<?xml version="1.0" encoding="UTF-8"?>
<svg version="1.1" viewBox="0 0 411 506" xmlns="http://www.w3.org/2000/svg" xmlns:cc="http://creativecommons.org/ns#" xmlns:dc="http://purl.org/dc/elements/1.1/" xmlns:rdf="http://www.w3.org/1999/02/22-rdf-syntax-ns#">
<metadata>
<rdf:RDF>
<cc:Work rdf:about="">
<dc:format>image/svg+xml</dc:format>
<dc:type rdf:resource="http://purl.org/dc/dcmitype/StillImage"/>
<dc:title/>
</cc:Work>
</rdf:RDF>
</metadata>
<g transform="translate(18,20.5)">
<rect x="-13.184" y="-17.745" width="197.93" height="307.99" fill="#fff"/>
<rect x="184.75" y="-17.745" width="203.43" height="307.99" fill="#0f47af"/>
<rect x="350.8" y="253.95" width="10.996" height="23.1" fill="#fcdd09" stroke="#000" stroke-linecap="round" stroke-linejoin="round" stroke-width="2.1996"/>
<rect x="278.22" y="253.95" width="10.996" height="23.1" fill="#fcdd09" stroke="#000" stroke-linecap="round" stroke-linejoin="round" stroke-width="2.1996"/>
<rect x="278.22" y="130.75" width="10.996" height="23.1" fill="#fcdd09" stroke="#000" stroke-linecap="round" stroke-linejoin="round" stroke-width="2.1996"/>
<path d="m-13.184 290.25h401.37c0 110-87.971 192.5-197.93 192.5-104.47 0-203.43-82.498-203.43-192.5z" fill="#fcdd09"/>
<rect x="30.802" y="-17.745" width="38.487" height="307.99" stroke-width="1.0998"/>
<rect x="107.78" y="-17.745" width="38.487" height="307.99" stroke-width="1.0998"/>
<path d="m34.604 359.97c-10.009-4.5496-12.284-14.452-9.3576-21.58 4.3129-10.041 11.932-18.784 32.004-9.6914l207.28 93.891c14.028 6.2483 7.122 23.026-6.4732 16.867l-87.893-39.813c-3.9541 6.3192-8.8436 5.4784-15.651 2.8099l-111.56-50.531c-5.0618-1.7837-8.483-0.47265-8.3499 8.0496z" fill="#0f47af" stroke="#000" stroke-linejoin="round" stroke-width="2.1996"/>
<path d="m177.57 383.19-7.4073 16.444" fill="none" stroke="#000" stroke-width="2.1996"/>
<path d="m227.64 382.65h93.469v-23.1h-76.975c0-6.5999-16.495-5.4999-16.495 1.1z" fill="#0f47af" stroke="#000" stroke-linecap="round" stroke-linejoin="round" stroke-width="2.1996"/>
<path d="m252.93 359.55v23.1" fill="none" stroke="#000" stroke-width="2.1996"/>
<path d="m236.43 323.25c-5.1475 7.6891-7.6779 19.641 0 27.499 9.4144-6.2996 5.7005-18.524 0-27.499z" fill="#da121a" stroke="#000" stroke-linecap="round" stroke-linejoin="round" stroke-width="2.1996"/>
<path d="m272.72 311.15c13.195 8.8e-4 42.885-2.1991 50.149 4.0936 5.1724 3.9002 4.7503 8.4866 4.8329 16.807v51.699h-7.6974v-51.699c-0.0338-7.6451-0.17131-11.279-6.493-13.426-5.603-1.9739-27.596-0.87391-40.791-0.87391-5.4982 0-5.4982-6.6011 3.6e-4 -6.6008z" stroke-width="1.0998"/>
<rect x="205.64" y="253.95" width="10.996" height="23.1" fill="#fcdd09" stroke="#000" stroke-linecap="round" stroke-linejoin="round" stroke-width="2.1996"/>
<rect x="350.8" y="-1.2432" width="10.996" height="23.1" fill="#fcdd09" stroke="#000" stroke-linecap="round" stroke-linejoin="round" stroke-width="2.1996"/>
<rect x="278.22" y="-1.2432" width="10.996" height="23.1" fill="#fcdd09" stroke="#000" stroke-linecap="round" stroke-linejoin="round" stroke-width="2.1996"/>
<path d="m227.64 359.55c2.8669 1.37 11.289 3.0724 16.495 0" fill="none" stroke="#000" stroke-width="2.1996"/>
<path d="m222.46 18.807c3.2328 0.63819 3.92-2.0478 4.7788-3.3094 3.3156 0.55515 2.5413 7.3068 3.676 10.48 2.3282 1.0082 2.6522-6.6837 6.9843-6.9865 1.5929 1.8021 3.1859 1.7359 4.7788 1.1032 0.86082 3.8177-3.2912 6.919-5.514 10.296 8.0172 27.296 30.922 35.915 44.663 41.735-0.99538-3.3707-6.978-9.3154-5.3302-10.848 1.0666-0.99263 7.1705 0.30722 10.844 0.18386 2.9522-0.14075 5.4798-7.2538 3.3084-6.435-4.312 0.32936-5.1428 1.0249-12.498 0.91928-5.6382 0.10527-5.5501-8.7499-2.9408-8.4574 6.5658 3.7745 11.758 3.561 17.461 3.4933 7.3716-0.08756 6.3124-11.465 1.1028-13.606-10.124-4.1591-9.2779 0.66506-12.866 1.8386l-0.3676-4.4126-5.1464 2.574c-0.0991-3.9823-4.7797-3.5228-5.1464-5.8834-0.94492-4.356-3.3697-10.324 2.9408-10.48 6.1041-0.15075 11.797-1.5194 16.909-5.6995 4.6685-3.8172 11.267-4.2947 19.482-4.9641 7.8306-0.63809 12.496 5.7784 8.8224 9.3767l14.336-10.112c2.2062 9.7483-1.3112 13.975-7.352 18.386 9.3139 1.3465 8.4727 14.471 12.498 22.431-2.4506 0.63498-4.9013 2.448-7.352 0.36771 1.5234 4.9641 6.1308 12.686 4.4112 18.754l-9.0061-3.4933c1.7558 6.864 3.319 13.177 8.4548 20.041-2.9752 0.43384-5.7887 0.98897-10.66 0l2.5732 15.996c-5.1279 0.49175-7.2704-0.47487-10.66-2.9417 3.8148 5.0867 0.13466 12.932 1.4704 19.305 1.6097 7.6792 5.3185 17.33 8.271 22.247 6.4421 10.729 14.024 20.47 18.748 32.727 2.0636 5.3543 9.2327 7.8683 14.888 4.5964 4.6814-2.7084 6.0424-15.976 2.3894-18.937l-21.333-17.292c-7.899-6.4027-12.481-14.367-12.498-21.695-0.0407-16.588 7.4351-18.934 13.233-21.511 0.62031-12.381 4.4175-24.364 7.1682-36.404 3.4612-15.15 0.0761-22.198-2.2056-28.682 11.806 4.5306 10.064 14.481 10.109 23.718 1.8379-2.0873 3.676-4.5403 5.514-8.0897 0.163 6.0822 3.2808 15.131-4.5949 22.062 5.1538-0.5627 11.326 1.3918 12.498 5.5157-7.7256 0.40514-15.285 1.311-19.115 5.8835-3.3679 4.0203-3.8398 10.296-3.4922 14.893 3.1068 1.3048 6.131 0.99401 10.293 0.18385 3.4586-0.67326 7.6373-2.9838 9.7414-7.9058 0.54644 4.2894 2.693 8.7788-4.2274 12.135 2.0867 2.5649 3.9196 6.0066 1.4704 10.664-4.7762-8.1587-9.8156-8.811-16.725-10.112 4.8824 12.665 12.584 25.022 18.931 37.507 5.527 10.871 5.5621 20.709 3.8598 29.6-2.3928 12.499-12.133 20.084-25.732 15.076-5.4266-1.9982-10.967-17.561-14.52-18.018-1.3616 0.58311 2.5289 11.963-1.6542 26.292-1.8864 7.1333-3.0144 15.319 1.2866 18.754 5.3468 4.2701 10.371 5.8381 12.131 12.87-2.4623 1.392-5.5097 1.9063-9.9252 0.36771 1.6236 3.7078 4.9602 6.3874 4.4112 11.399-1.34-0.8313-5.0876-0.45839-8.271-0.36771 1.2636 3.7767 3.7223 6.8363 2.757 11.95-4.1076 0.50978-7.949-0.84533-12.498 2.7579 1.07 4.0579 8.604 7.8829 5.6978 8.4574-2.9383 0.79793-3.399 3.111-4.9626 3.8609-4.3261-0.82052-4.7091-6.137-7.352-7.1704-2.0701 0.44853-0.29825 6.202-1.8379 7.9058-2.0914-1.8192-3.5012-0.22943-5.1464 0.18386 0.46567-3.7384 3.8006-8.9187 0.73521-10.664-3.048-1.4078-5.1467 7.1085-8.6385 6.0673-0.30168-2.6717-2.3402-2.7121-4.5949-2.9417 1.4092-2.2675 6.2946-3.8995 4.5949-7.722-2.4964 0.64683-4.7312 2.8642-7.6701 0.85565 1.8219-2.7673-1.9886-5.5456-0.60089-7.2907 2.2595-2.5837 16.169 4.41 20.034-2.2062 2.817-4.8219 7.1407-16.983 3.3084-22.798-4.9579-7.5235-10.583-12.281-17.094-18.201-0.71404-1.5999-10.478 3.3096-16.542 7.3542 1.0627-3.6771-0.54287-7.3542-1.838-11.032-2.3242 2.6629-1.4857 4.942-7.7196 7.1704-1.253-3.4498-1.9342-8.3095-3.3084-10.48-9.3493 7.8393-7.1513-3.4836-18.012-7.5382-0.92636 2.194-1.0563 6.8189-3.3084 5.6996-1.571-0.89455-2.7899-2.0697-5.6978-0.73543-1.1939-2.169 3.3016-6.5444 0.78613-8.8973-0.82272-1.5525-3.9864 5.1376-6.6678 3.5655-0.35933-1.5989-0.63816-3.2515-3.8597-2.9417 0.63877-2.8981 7.5293-4.2222 7.7196-6.2512-1.0415-2.987-6.3105-0.24734-7.5358-2.7579l0.55141-5.6996c2.0062-1.64 5.7978 3.0081 9.19 0.36772 2.2234-2.4479-1.4583-5.9414 0.3676-6.6188 2.4506 1.6732 4.9013 0.68668 7.352 0 1.1535 0.7527-0.89619 7.2674 0.7352 10.296 11.667 5.9552 28.636 12.322 30.511 8.8251 3.744-8.6617 4.1368-25.439 22.055-28.313-7.4598-3.7302-10.218-11.379-15.072-17.283 4.4292-4.8162 11.294-8.5885 12.682-14.709-2.9528 5.8906-4.5222 8.7056-13.049 13.606-2.925-0.79075-3.0965-2.6833-3.676-4.4126 0.10843 3.2229-3.6836 6.555-6.433 8.8251-3.7128-2.4107-5.0166-3.4402-11.396-10.296 0.20954 4.29 0.14922 7.6607-4.0436 11.95-2.1621-1.5392-3.9871-6.449-5.8816-10.664-0.55798 3.8544-4.2695 3.8189-7.1682 5.3318-4.0695-3.6536-5.9279-8.5709-13.049-10.48-0.21023 3.339 0.1452 7.3569-2.3894 7.9058-1.9914-1.5071-3.9504-1.6869-5.8815-0.73542-1.7867-1.7436 1.8615-6.9762-0.3676-8.0897-2.0651-2.2138-2.3006 6.7629-4.7788 4.7803-0.99559-2.1159-2.3699-3.7634-5.1464-3.6771-0.38851-3.9518 7.4564-4.5892 6.433-6.8027-1.5317-3.0865-6.9231 1.2736-8.6385-0.73543 1.7893-4.7758 0.85742-3.2578-0.3676-6.435 0.42964-1.8509 6.627 2.0618 8.2709-0.73542 1.0811-3.6954-4.7795-6.3137-2.757-6.9865 2.8716 0.96469 3.307-0.55414 4.7788-2.3901 1.5067-2.852 5.1352 5.1063 6.6167 9.3767 13.326 2.1206 26.109 1.5171 38.966 1.287 3.5535-0.12771 2.3282-10.422 5.6978-17.099-1.8667 2.7183-1.1186 7.1803-5.6978 8.0897-2.8727 0.69912-9.7266-6.5902-10.844-15.627-3.8807 6.5022-7.269 10.587-10.844 9.9282-1.0802-3.9949 3.0935-16.317-1.1028-19.121l-8.6385 5.8835c1.0366-6.8519 3.028-12.112 2.757-21.144-2.7193 4.169-5.856 3.7153-8.8224 5.148-0.34261-7.5869 1.9782-13.842-1.1028-22.798-2.0917-3.4669-8.7195 6.9081-9.7414 3.3094 0.0187-4.2918-1.5883-4.3304-2.757-5.5157-0.1214-3.3075 6.7414-2.1414 6.8006-5.5157-0.30634-3.4479-8.3323-0.07535-8.6385-3.1256 1.587-1.9723 0.80771-3.471 0-4.9641 2.1909-3.4863 6.344 1.8227 8.6385 0 1.5039-2.5127-1.6651-5.7608-0.18379-8.2735z" fill="#fcdd09" stroke="#000" stroke-linecap="round" stroke-linejoin="round" stroke-width="2.1996"/>
<path d="m302.41 144.93c-0.40161 9.7422-4.1752 17.189-7.5358 25.005-3.7775 8.785-4.1813 18.754 0.1838 29.417" fill="none" stroke="#000" stroke-linecap="round" stroke-linejoin="round" stroke-width="2.1996"/>
<path d="m282.2 72.31c-1.422 3.5416-7.0415 2.8845-10.66 4.2288 9.3145 7.3688 8.3347 6.5443 21.688 3.6771-1.3478 8.3292-2.6958 16.067-4.0436 20.041 8.8004-1.147 14.616-8.2644 20.034-16.18 1.5421 6.0994 2.7876 12.446 7.1682 16.18" fill="none" stroke="#000" stroke-linecap="round" stroke-linejoin="round" stroke-width="2.1996"/>
<path d="m291.21 20.281c3.8568-1.8593 8.7378 0.92979 12.682 2.2063l-7.5358 3.8609c-1.3556-5.6214-3.3334-5.02-5.1464-6.0673z" stroke-width="1.0998"/>
<path d="m261.43 32.601c2.4658-2.4779 1.2597 9.0099 15.623 9.3767l20.059 1.1108-0.14596 4.4126c-11.989-1.9332-33.439-0.7814-37.925-4.4202-4.1353-3.203-1.7409-6.7904 2.3894-10.48z" fill="#da121a" stroke="#000" stroke-width="2.1996"/>
<path d="m242.13 7.7742c4.154 1.6547 3.7365 8.4015 1.1028 11.766-2.7705 3.6768-4.2887 1.7659-5.6978-0.91929 1.8774-3.2699 5.0528-4.1383 4.5949-10.848z" fill="#da121a" stroke="#000" stroke-linecap="round" stroke-linejoin="round" stroke-width="2.1996"/>
<path d="m217.02 9.3995c3.4994-2.784 7.8416 0.71303 9.4529 4.6713 1.8135 4.2318-0.59863 4.6004-3.6284 4.4897-1.9042-3.2544 0.22368-6.2252-5.8246-9.161z" fill="#da121a" stroke="#000" stroke-linecap="round" stroke-linejoin="round" stroke-width="2.1996"/>
<path d="m204.2 35.615c-1.5962-4.1779 3.6492-8.4399 7.9079-8.7807 4.5808-0.45102 4.2034 1.9605 3.1827 4.816-3.6766 0.83278-6.466-0.91613-11.091 3.9647z" fill="#da121a" stroke="#000" stroke-linecap="round" stroke-linejoin="round" stroke-width="2.1996"/>
<path d="m204.96 43.832c0.9687 4.3664 7.6935 5.0328 11.435 2.9704 4.0714-2.1478 2.4284-3.9526 4e-3 -5.7732-3.5271 1.3311-4.8918 4.3278-11.44 2.8029z" fill="#da121a" stroke="#000" stroke-linecap="round" stroke-linejoin="round" stroke-width="2.1996"/>
<path d="m208.48 95.069c2.6496-3.6027 9.0704-1.4947 11.661 1.9043 2.8569 3.6101 0.62505 4.5969-2.3282 5.2827-2.6888-2.643-2.7269-5.9357-9.3322-7.1869z" fill="#da121a" stroke="#000" stroke-linecap="round" stroke-linejoin="round" stroke-width="2.1996"/>
<path d="m201.66 118.83c-1.5962-4.1779 3.6492-8.4399 7.9079-8.7807 4.5808-0.45102 4.2034 1.9605 3.1827 4.816-3.6766 0.83279-6.466-0.91612-11.091 3.9647z" fill="#da121a" stroke="#000" stroke-linecap="round" stroke-linejoin="round" stroke-width="2.1996"/>
<path d="m212.71 136.24c-3.9816-2.035-2.9368-8.7136-9e-4 -11.818 3.1013-3.4023 4.4347-1.3581 5.5873 1.4468-2.1742 3.0806-5.4167 3.649-5.5864 10.372z" fill="#da121a" stroke="#000" stroke-linecap="round" stroke-linejoin="round" stroke-width="2.1996"/>
<path d="m218.83 138.4c3.6719 2.5521 9.0662-1.5196 10.418-5.5738 1.5363-4.3403-0.89459-4.5522-3.9107-4.2457-1.6899 3.3708-0.66157 6.4989-6.5074 9.8195z" fill="#da121a" stroke="#000" stroke-linecap="round" stroke-linejoin="round" stroke-width="2.1996"/>
<path d="m235.04 151.18c3.9556-2.0851 8.8133 2.6142 9.6611 6.8029 0.99574 4.4953-1.4428 4.409-4.3992 3.7371-1.2665-3.5517 0.1356-6.5311-5.2619-10.54z" fill="#da121a" stroke="#000" stroke-linecap="round" stroke-linejoin="round" stroke-width="2.1996"/>
<path d="m217.49 173.56c-0.53369-4.4406 5.5897-7.3002 9.8036-6.5957 4.553 0.67574 3.6013 2.9233 1.9176 5.4452-3.7688-0.0857-6.0498-2.4601-11.721 1.1505z" fill="#da121a" stroke="#000" stroke-linecap="round" stroke-linejoin="round" stroke-width="2.1996"/>
<path d="m224.28 192.08c-3.1206-3.2031 7e-3 -9.1954 3.7821-11.197 4.0271-2.2299 4.636 0.13378 4.8299 3.1602-3.0458 2.222-6.2995 1.7219-8.6121 8.0362z" fill="#da121a" stroke="#000" stroke-linecap="round" stroke-linejoin="round" stroke-width="2.1996"/>
<path d="m233.63 197.54c3.7258 2.4728 9.0315-1.7138 10.296-5.7959 1.4429-4.3722-0.99197-4.5319-4.0009-4.1609-1.6174 3.4062-0.52211 6.5117-6.2955 9.9568z" fill="#da121a" stroke="#000" stroke-linecap="round" stroke-linejoin="round" stroke-width="2.1996"/>
<path d="m281.44 254.73c-2.9202-3.3869 0.56573-9.178 4.4555-10.946 4.1551-1.9808 4.6192 0.41543 4.629 3.4481-3.1751 2.0327-6.3925 1.3357-9.0845 7.4978z" fill="#da121a" stroke="#000" stroke-linecap="round" stroke-linejoin="round" stroke-width="2.1996"/>
<path d="m289.7 268.8c-3.5305-2.7444-1.2547-9.1094 2.2102-11.61 3.683-2.7616 4.6104-0.50394 5.2179 2.4672-2.712 2.619-6.0037 2.5704-7.428 9.1426z" fill="#da121a" stroke="#000" stroke-linecap="round" stroke-linejoin="round" stroke-width="2.1996"/>
<path d="m310.89 274.42c-4.4477 0.45765-7.2011-5.7157-6.4247-9.9183 0.75347-4.5422 2.9836-3.5518 5.4756-1.8245-0.15024 3.7679-2.5626 6.0085 0.94909 11.743z" fill="#da121a" stroke="#000" stroke-linecap="round" stroke-linejoin="round" stroke-width="2.1996"/>
<path d="m320.78 272.13c4.4301-0.60514 5.6494-7.254 3.9035-11.155-1.8037-4.2361-3.7372-2.7472-5.7514-0.48055 1.0348 3.626 3.9077 5.2339 1.8478 11.636z" fill="#da121a" stroke="#000" stroke-linecap="round" stroke-linejoin="round" stroke-width="2.1996"/>
<rect x="205.64" y="-1.2432" width="10.996" height="23.1" fill="#fcdd09" stroke="#000" stroke-linecap="round" stroke-linejoin="round" stroke-width="2.1996"/>
<path d="m342.54 104.27c-22.505 16.653 6.4687 36.349 21.887 47.892-8.8279-23.068-15.025-31.421-21.887-47.892z" fill="#0039a6" stroke="#000" stroke-linecap="round" stroke-linejoin="round" stroke-width="2.1996"/>
<path d="m340.91 97.502c-0.11011 3.8226 1.4266 5.9244 2.5226 8.8422" fill="none" stroke="#000" stroke-width="2.1996"/>
<path d="m346.57 96.083c-0.11011 3.8226 0.0925 4.5899 1.1885 7.5076" fill="none" stroke="#000" stroke-width="2.1996"/>
<path d="m-13.5-16h402v277c0 130-82 220-202 220s-200-90-200-220z" fill="none" opacity=".95" stroke="#000" stroke-linecap="round" stroke-linejoin="round" stroke-width="7"/>
<path d="m-13.184 290.25 401.37-2e-5" fill="none" stroke="#000" stroke-width="4"/>
<path d="m184.75-17.745v307.99" fill="none" stroke="#000" stroke-width="4"/>
</g>
</svg>
