<!-- Created with Inkscape (http://www.inkscape.org/) -->
<svg xmlns:rdf="http://www.w3.org/1999/02/22-rdf-syntax-ns#" xmlns="http://www.w3.org/2000/svg" height="550" width="404" version="1.1" xmlns:cc="http://creativecommons.org/ns#" xmlns:xlink="http://www.w3.org/1999/xlink" xmlns:dc="http://purl.org/dc/elements/1.1/">
 <defs></defs>
 <metadata>
  <rdf:RDF>
   <cc:Work rdf:about="">
    <dc:format>image/svg+xml</dc:format>
    <dc:type rdf:resource="http://purl.org/dc/dcmitype/StillImage"/>
    <dc:title/>
   </cc:Work>
  </rdf:RDF>
 </metadata>
 <g transform="translate(0,78)">
  <rect stroke-linejoin="round" stroke-dasharray="none" stroke-dashoffset="0" height="277.49" width="392" stroke="#000" stroke-linecap="round" stroke-miterlimit="4" y="-71.005" x="6" stroke-width="6" fill="#000"/>
  <path d="m6,208,392,0,0,98c0,60-75.493,160.78-196,160-120.51-0.78142-196-100-196-160z" fill="#fcdd09"/>
  <path d="m331.45,401.52,21.005,0.37673c-7.1296,7.6105-9.9591,10.471-21.005,20.577v-20.953z" fill="#0f47af"/>
  <path d="m203.9,401.05,62,0,0.097,55.947c-20.667,7.4673-41.333,8.5664-62,9z" fill="#0f47af"/>
  <path d="m72.471,401.47,66.144,0-0.26639,55.34c-21.14-9.67-45.644-19.46-65.392-36.76z" fill="#0f47af"/>
  <path d="m12.461,337.75,61.734,0.79917,0,62-22.574-0.26639c-16.423-19.54-31.251-40.15-39.16-62.53z" fill="#0f47af"/>
  <rect id="rect3808" width="64" height="64" y="209.48" x="8.9972" fill="#0f47af"/>
  <path stroke-linejoin="round" d="m55.249,8.6438c1.8424,7.6252,8.8861,15.657,11.873,13.958,4.3621-2.4816-14.751-31.235,12.238-16.218,8.3884-2.9204,12.226-5.5923,12.358,0.34582,0.1463,6.5828-14.195,11.359-11.605,16.23,9.7864,18.407,41.272,25.963,62.317,39.309,8.7579,5.5545,30.85,1.2308,26.409,8.1131-2.6858,4.1625-20.656-0.10441-22.992,13.699-2.5837,15.269-7.8172,23.726-16.759,27.033,1.4817-5.9926,2.0588-12.211,0.70776-18.912-3.6817,8.8545-7.8879,12.464-12.276,14.254,0.13705-6.2675-1.6004-10.394,2.5268-21.218-5.8077,7.1444-10.855,15.963-20.039,15.678,0.68717-6.7744,2.3663-14.116,7.9838-23.707-6.9066,10.854-16.234,12.142-25.534,8.2802,1.9655-8.0979,13.055-6.8721,15.831-14.437-6.3988-3.119-8.7725-5.5672-10.997-7.9905-8.0218,8.0342-16.044,8.0253-24.066,6.2093,7.3644-9.8207,0.0095-16.295,9.8329-27.117-5.359,3.265-15.72-0.636-16.08,2.753-1.014,9.55-2.401,16.408-9.392,17.072-6.486,0.615-4.215-9.875-3.226-17.909-12.967,1.077-14.624-6.06-12.02-7.758,4.252-2.772,30.195-1.721,27.385-5.02-4.109-4.827-10.236-3.577-14.719-3.494-10.76,0.201-24.841-6.396-0.928-11.659-6.294-14.824,7.776-21.546,11.172-7.4892z" stroke="#000" stroke-linecap="round" stroke-miterlimit="4" stroke-dasharray="none" stroke-width="2" fill="#fcdd09"/>
  <path d="m132.33-4.1814c1.7134,1.6467-18.527,15.975,0,29.303,18.337,13.191,38.679,16.814,61.536,15.451,3.2077-0.54942,1.7475,3.6306-1.0655,3.7294-16.115,0.84919-34.346,1.5893-46.884-2.3975-14.04-4.4641-33.871-13.359-36.495-27.172-3.28-17.265,14.816-26.692,22.909-18.914z" fill="#da121a"/>
  <path stroke-linejoin="round" d="m163.88,55.229c-10.539-5.2232-12.515,6.3161-3.151,8.326,13.341-0.49357,25.85-1.6485,42.703-3.0896,5.9034-0.50479,7.2542,6.4767,4.0115,6.1948-18.26-1.5871-24.742-2.5654-41.79,7.6639-17.954,4.217-19.754,22.135-19.331,31.965,11.22-20.635,22.533-16.241,34.751-24.56-1.4586,4.2064-9.088,10.684-14.719,15.586,1.2517-3.1591,2.1191-6.0108-0.12928-6.3698-12.034,10.745-10.136,15.328-10.016,21.675,0.14289,7.5481,5.539,6.9256,6.8726,20.298,6.7803-8.3811,1.0503-31.676,15.465-39.134-3.1206,13.751,2.8847,24.011,14.94,31.958-3.3505-14.692,10.218-20.572,9.8329-34.035,15.889,4.4399,0.92037,31.449,20.526,32.216-2.4879-12.499,3.6716-23.933,4.6957-37.498,2.8531,14.18-6.3961,30.743,0.88274,50.444-5.7461-9.5463-11.599-10.303-17.238-15.016-5.637-4.7101-1.8013-12.273-5.3957-19.842-18.176,15.311,0.78985,25.104-15.838,37.643,0.88432-17.386-13.998-20.863-16.759-35.216-2.75,1.9964-3.3412,25.385-6.1491,28.305-3.6756,3.823-7.886,6.2252-12.809,5.1907,3.0585-6.5668,6.4033-12.504-9.5887-10.693-14.027,0.0982-38.917-5.1083-24.537,8.8633-12.55-0.21157-24.547,2.7653-38.238-3.0185-5.4382-2.2973-8.8879-19.722-13.26-18.654-2.1378,0.52213-3.7972,2.498-6.0781,11.752-14.237,1.5379-14.851,1.878-14.376,5.83,0.88924,7.3979,21.022,4.9328,22.672,10.388,2.0272,6.7024-20.561,0.53569-25.484,3.4226-2.1233,1.2453,0.07241,7.2947,8.0629,9.8733,2.2083,5.1016-6.89,16.275,0.687,16.447,8.8666,0.20155,18.46-21.112,26.65-13.03,2.8672,2.8291-16.012,14.598-16.75,19.435-0.5806,3.8046,2.6434,4.126,13.516,2.6284,4.84,3.8045,11.095,13.151,14.52,9.4909,6.1027-6.5212-2.6036-17.057-0.71374-22.331l7.9149-5.585c6.5998,3.4787,2.0753,24.234,14.536,25.214-0.23603-5.3799,3.3189-13.468,8.0217-22.375,2.7067,8.4471,2.2815,18.199,12.9,23.349-0.19714-6.853,1.1672-14.331,4.5208-22.604,3.682,2.2508,3.0413,16.653,18.57,19.773-2.7396-9.1859-5.6944-18.356,1.9483-28.282,4.7023,5.6774,8.007,20.537,18.974,20.747,1.3667-6.8435-2.9972-11.777,5.9363-21.143,6.172,31.026,39.121,12.305,62.356,51.566h76c5.2655-11.103,6.7122-21.568,35.374-30.34,13.306-4.0722,16.313-13.648,18.137-20.473-12.187,7.2148-21.043,0.57773-36.524,18.083,9.7078-9.4418,2.8145-29.313,19.065-37.232,10.138-4.9407,24.116-6.2005,22.2-23.274-4.4499,6.0744-16.832,8.1953-28.091,10.853-14.055,3.3174-13.656,11.126-17.117,17.741,1.3544-18.228-13.277-27.066-6.9183-39.5,5.0944-9.9616,50.546-1.4355,41.615-30.663-7.8345,7.0798-14.458,14.244-33.449,11.294-17.992-2.7944-25.534,4.739-23.761,18.532-5.1412-8.0103-11.002-17.133-1.5983-30.58,11.22-16.043,64.701,6.5347,53.184-31.303-6.9422,10.201-21.558,16.55-28.494,10.602-13.55-11.62-18.763-4.295-25.534,7.0097,2.6819-12.97,10.716-24.157,32.49-30.763,15.013-3.2445,20.3-16.228,26.371-30.892,5.0056-12.09,8.7678-2.9769,12.809-2.9224,1.3614-13.812-11.689-15.444-30.009,10.153,0.56148-10.789,7.3278-25.647-5.4035-32.095-17.48-8.8529-31.192,1.2939-41.395,12.451-14.709,16.086-16.406-23.308-35.596-18.304,9.4784,10.224,7.3797,33.276,16.843,37.277,12.601,5.3288,20.051-7.9918,28.829-12.177-5.887,8.4759-9.6196,20.627,0.48058,24.369-1.7289-14.153,14.345-23.449,20.891-19.598,11.525,6.7815,5.6779,19.205-12.702,29.651-17.198,9.7748-31.33,19.345-38.198,41.341-5.7913,18.548,4.2515,32.578,10.412,42.292,12.62,19.899,28.306,34.591,25.571,58.596-1.0545,9.2555-0.87615,17.922-8.2881,27.125-5.4737-16.297-28.743-28.329-46.715-40.558-15.751-10.718-19.424-28.92-20.343-46.844,4.64,0.84566,8.4809,4.6567,13.121,2.3518-2.6086-14.519-27.441-16.594-21.409-37.14,4.6103,9.4516,10.57,16.629,21.188,15.952-9.992-14.419-0.18736-27.376-13.616-33.769,9.7561-0.1783,12.222,9.5735,17.512,12.9,10.182-13.543-0.88648-26.803-10.457-31.516,10.881-6.2876,17.612,9.9634,24.194,12.763,1.2312-31.736-14.008-25.243-25.938-24.065,7.8493-6.4278,15.699-10.932,23.548-10.99-6.5581-12.236-20.059-5.9575-30.397-8.1131-23.243-7.007-66.999-9.4377-70.263-5.0993-11.751,0.58596-15.756,3.6414-16.226,7.0476-7.2693,2.2111-5.7519,6.3862-1.6741,10.016-1.6063,12.801,2.4809,8.3607,3.8509,16.622,12.705,2.1936,25.41,3.5824,38.114,1.5526-2.1442,5.1267-3.3706,9.4886-9.5665,17.992z" stroke="#000" stroke-linecap="round" stroke-miterlimit="4" stroke-dasharray="none" stroke-width="2" fill="#fcdd09"/>
  <path d="m167.23-20.165c-9.1097-5.9551,1.0946-17.996,7.1925-2.6639,7.8722-9.0636,15.323,2.2919,5.3278,4.2622,3.1125,4.2997,5.4591,13.078,11.455,12.787,6.8744-0.3339,7.9116-4.6644,10.123-7.9917-13.688-6.9078-5.3501-17.393,4.2622-7.7253-5.0491-15.712,11.88-18.813,7.9917,0,13.372-7.8942,15.527,3.3422,2.1311,7.9917,3.0725,6.9551,4.4994,9.1666,10.123,9.0572,6.1455-0.11951,8.2462-4.8069,11.188-7.9917-8.2046-9.4831,2.0039-11.695,6.6597-4.5286-1.102-15.486,18.075-12.9,5.5942,2.1311,13.848-4.7289,14.749,7.6407,3.1967,5.8606-5.5216-0.85086-10.446,8.3469-11.188,12.52-27.694-5.5836-46.205-5.9807-65.532-4.2622,1.6245-7.2099-4.8969-11.739-10.656-11.988-13.442-0.5801-5.8422-10.098,2.1311-7.4589z" fill="#da121a"/>
  <use xlink:href="#rect3808" transform="translate(130.75138,3.6560059e-4)" height="497" width="427" y="0" x="0"/>
  <use xlink:href="#rect3808" transform="translate(258.74745,-0.37636558)" height="497" width="427" y="0" x="0"/>
  <use xlink:href="#rect3808" transform="translate(321.92739,63.400809)" height="497" width="427" y="0" x="0"/>
  <use xlink:href="#rect3808" transform="translate(194.90544,64.466366)" height="497" width="427" y="0" x="0"/>
  <use xlink:href="#rect3808" transform="translate(65.311038,64.46618)" height="497" width="427" y="0" x="0"/>
  <use xlink:href="#rect3808" transform="translate(130.75178,127.33837)" height="497" width="427" y="0" x="0"/>
  <use xlink:href="#rect3808" transform="translate(258.74778,127.33837)" height="497" width="427" y="0" x="0"/>
  <path stroke-linejoin="round" d="m308.58,68.003c-8.9763,6.0683-11.365,10.208-12.706,16.242m36.44-105.9c-15.48,2.341-25.71,20.564-36.47,18.911-11.77-1.8099-10.25-11.061-13.4-18.96m52.691,8.5254c-9.3383-1.55-15.951,2.8647-21.799,9.2913m50.996,3.7059c-4.87,11.482-13.16,19.55-25.56,23.498m22.364,31.694c-24.599,12.657-27.626-7.838-43.273,7.1089m43.273,27.174c-12.98,9.143-26.23-1.768-34.8,5.413m-142.19-29.622c-5.1835,3.2078-3.6582,4.1793-5.0614,6.127m11.455-6.6597c-4.9344,3.9323-4.0232,4.9419-5.0614,6.9261m11.988-6.6597c-1.9921,0.59464-3.68,2.102-4.2622,6.9261m10.656-6.3933c-1.7128,0.76884-3.3083,2.3442-2.9303,5.5942m49.548,10.123c-8.7054-7.4072-1.8208-15.92-11.721-20.512m-11.721,6.3933c-3.0857,12.076,7.836,15.362,13.319,29.836m-25.59-22.909c-5.0186,11.3,7.5403,16.742,2.3975,35.163m-50.62-11.717c-2.6639,2.3087-3.3957,8.1976-3.463,12.254m36.762-28.504c-12.325,6.1177-6.7127,18.51-11.988,30.368m71.659-57.54c-4.0239-15.921-17.638-5.8949-25.307-12.52m35.163-7.4589c-12.875-8.9372-20.894,3.3964-31.434-2.9303m22.11-18.114c-11.024,0.84508-17.61,13.851-29.836,4.5286m-15.451,5.0614c-9.0066,9.8507,2.5427,18.36-7.1925,28.77m-5.06-19.446c-2.3997,0.97128-2.994,6.1897-5.3278,10.922m-2.9303-12.254c-7.2832,13.266-7.0409,4.7912-8.2581,0.53278m-11.188-0.26639c-1.1544,2.3087,2.1311,13.142,5.3278-0.26639m-13.319,0.26639c-2.3479,2.2278-0.33731,7.26,8.2581,6.127m-16.25-6.9261c14.344,0.15922,32.719-1.5812,43.891,1.7498-0.10659-13.741-25.286-8.8337-38.563-9.4751m22.11-14.652c-7.9917,2.2199-19.854-3.9772-21.311,5.5942m58.339,33.299c-3.3233,9.2423-9.0516,19.565-15.626,19.355m36.68-61.445c-24.93-3.8595-45.58-4.483-68.2-3.7294m67.13-1.3319c-22.821-4.5839-45.641-3.9562-68.462-4.5286m0.73257,81.915c-11.204,9.4329-15.409-2.3059-23.975,15.184m-10.142-27.444c1.6718,2.8339,1.4849,7.9911,6.8269,6.2373m-11.833-6.8883c0.28604,5.438,0.95611,7.8038,1.741,9.2511m-42.169-12.493c0.21634,2.2301-0.28096,3.033-0.51939,4.3536m-3.6002-7.2059-0.33103,2.2816m-4.4183-5.6209c-0.65008,0.72976-1.0561,2.0697-0.70776,5.2955m-2.415-10.468c-2.615,1.3689-2.3754,5.0213-2.5914,8.3093m40.312,22.67c-1.9535,6.8012-3.907,9.6583-5.8606,13.053m-2.6639-20.512c-0.28509,2.977,0.74018,6.65-1.5983,8.2581m-5.86-14.216c0.43639,3.1504,0.47132,5.6985-1.0845,5.8606m-3.545-10.09c0.13812,1.3857,0.58831,3.0835-0.70776,3.0351m38.37,22.337c-1.2591,2.9303-0.85536,5.8606,0,8.7908m-5.8606-9.8564c0.6842,3.9748,0.99544,5.4189,0.26638,7.4589m-7.4589-12.254c0.81089,3.1698,0.60336,4.8121-0.00001,5.8606m6.283-26.365c-0.32838,2.3154-0.0647,4.9269,0.6108,7.7442m-4.7304-9.6546c-0.0913,1.8323-0.16676,3.7755,0.23406,9.0628m-4.05-11.838c-0.45572,3.5232-0.11807,7.0465,0.42243,10.57m-9.7611-14.611c1.4664,3.3484,2.8126,7.5382,4.7548,7.5559m-8.7148-7.0404c0.76957,9.0443,3.3082,9.2432,5.5083,11.135m-11.89-16.437c0.22461,2.756,0.0889,4.6712,1.741,10.758m-5.9252-10.707,0.79916,5.8606m22.11,37.561c0.81533,4.7923-0.62032,5.833-1.8647,7.1925m-11.188-13.852c-1.5942,6.0714-1.9577,8.4023-4.2622,8.7908m-6.389-15.719c-2.0012,3.4911-4.4831,4.5788-7.1925,4.5286m-14.918-23.975c-4.8344-0.6486-3.5591,4.6749-7.1925,7.1925m-23.709-26.638c3.405,0.51743,5.3944,2.009,3.4631,5.3278m22.377-31.701c2.825,0.40626,3.9567,3.7757,9.3236-0.26639m14.785,26.106c-0.64379,3.5565-3.1079,7.1312-0.53278,10.656m-49.016-27.971c4.647,0.52291,5.2408-2.3667,5.8606-4.5286" stroke="#000" stroke-linecap="round" stroke-miterlimit="4" stroke-dasharray="none" stroke-width="3" fill="none"/>
  <path stroke-linejoin="round" d="m345.36,145.79c-15.327,13.258-10.165,32.805-21.674,51.962m-7.13-158.24c-14.221,14.993-28.411,35.589-16.728,57.429,12.06,22.996,31.738,32.42,32.653,74.554m-6.5762-70.153c-6.8821,9.1595-3.5093,16.221-6.1002,23.666m51.496,3.0817c-7.7577,4.7799-15.676,2.3498-20.857,9.3693m18.785,29.246c-5.8034,3.9537-13.024,5.2422-15.583,8.9926m-62.777-0.51614c-0.65579,0.62753-1.5856,0.81654-2.5859,0.89287m-3.0651-3.7184c-1.7488-0.0241-2.802,0.64734-4.0928,1.0812m-1.9349-4.6602c-1.7221,1.434-2.8461,1.0737-4.0928,1.0812m-0.99308-5.0369c-1.1174,0.6073-2.4731,0.97622-4.0928,1.0812m-1.6524-4.4718c-1.7636,1.5584-2.7786,0.87089-4.0928,1.0812m-6.8324,36.78c-1.102,1.1473-2.3349,1.9017-2.9626,4.4718m-0.80471-8.8042c-0.79917,1.2057-1.5983,2.196-2.3975,4.8486m-0.42799-8.0508c-0.86196-0.19278-1.7239,2.6759-2.5859,4.8486m-0.80471-9.3693c-0.73638,0.74992-1.4728,3.0984-2.2091,6.3555m-0.42799-11.253c-1.6608,2.0732-2.0517,5.4161-2.7742,8.4275m-1.1814-13.89c-1.0214,3.0215-2.4854,4.7151-2.5859,10.5m-1.5582-15.774c-1.9535,1.9327-3.3318,5.3031-4.2812,9.7461m31.217-23.497c-1.3786,0.65997-3.3716,0.70563-5.223,0.89287m-27.929,10.032c-1.5416,2.5393-3.3156,4.1492-3.9044,10.5m-0.0513-16.15c-2.8144,0.92878-5.1617,6.5279-7.4834,12.383m4.0928-17.657c-6.7792,4.7556-7.7467,9.5112-9.7438,14.267m6.7299-18.788c-8.7843,4.7386-11.509,10.876-13.888,17.092m9.9321-22.367c-9.4377,2.1855-14.736,8.8283-17.655,18.034m-73.891-8.2391c-1.1478,2.4474-1.7304,7.721-2.3975,12.572m-3.45-14.83c-2.9876,2.058-3.341,4.7745-4.4695,7.2973m-4.0069-6.3555c-1.6973,1.1868-2.7712,3.4124-2.9626,7.1089m-6.8324-5.602c0.0456,5.5776,1.9062,7.5253,2.8768,11.253m37.81-28.583c-3.9386,1.1567-7.8772,1.2151-11.816-2.121m-1.9349-8.2391c3.1078,5.1567,9.9454,5.859,20.583,2.0231m-28.228,2.8098c3.117,3.0306,6.3749,5.6067,7.6962,8.3038m-10.6-3.3416c1.838,2.4888,3.6759,5.438,5.5139,5.0369m-12.107-4.2835c2.2409,2.6154,4.3115,6.0822,7.0208,6.3555m-13.05-5.04c2.2147,3.0526,4.4294,6.6339,6.644,7.2973m-12.86-8.9926c1.0881,4.3523,2.544,8.1618,5.8906,9.181m-17.562-11.82c2.4694,5.0993,4.9389,6.8088,7.4083,8.4716-6.1476-0.2494-8.568-2.87-10.371-5.8834m-11.164-13.52c-1.5779,4.7678-4.9381,5.7828-8.9903,5.7904m-3.6302,17.755c2.891,1.403,4.8907,3.7136,4.9488,7.4857m13.134,13.988c5.0801-0.18185,7.7905,3.1362,8.7161,5.9787m127.47-35.36c-11.941,2.1981-19.894,8.1852-21.799,19.918m-3.8186-10.123c-3.365,5.0206-3.2161,7.113-3.7161,9.7461m1.2673-18.034c-2.1305,1.7461-4.1528,5.4036-5.9764,12.572m-1.3698-16.339c-3.6138,5.0068-4.7821,10.014-5.4114,15.02m-2.8767-13.89c-2.3873,3.728-4.4467,7.8658-4.8463,14.078m-5.1371-10.876c-1.7862,3.5304-3.2348,7.8584-4.2812,13.137m-3.6302-10.876c-1.3768,3.343-2.5803,7.1191-2.9626,12.948m-3.6302-9.181c-0.96138,2.8065-2.3582,4.089-2.3975,10.123m-5.1371-8.2391c-0.94104,2.194-2.1076,3.5022-2.2091,8.9926m114.62-7.2521c2.3975,0.39816,4.795,0.72845,7.1925-0.2664m-14.651-5.5942c3.4118,0.10259,6.3468,1.1586,10.389,0m-14.385-6.6597c3.6768,0.18637,3.5957,0.99905,11.188,0.53277m-14.918-6.127c3.2142,0.65718,5.2861,1.8856,12.52,0.53277m-20.512-8.5244c4.7217,1.408,5.5223,2.7077,17.315,4.2622m-18.114-11.988c5.2117,1.9762,5.7031,4.316,16.516,5.8606m-16.782-14.119c4.6708,3.0165,6.1759,6.7906,14.651,8.5244m-12.653-16.25c2.3802,4.3597,5.8994,8.1498,12.52,10.389m3.1967-6.3933c-13.414-7.031-13.688-14.062-15.482-21.093l-1.3009,11.77m-95.034,53.411c-1.9571,3.3743-2.4388,6.7485-2.3975,10.123" stroke="#000" stroke-linecap="round" stroke-miterlimit="4" stroke-dasharray="none" stroke-width="3" fill="none"/>
  <path stroke-linejoin="round" d="m162.17,46.033c3.5029-0.4133,6.9643-0.46975,8.924,2.2643,2.8008-3.3502,6.6983-2.578,9.4568,0,2.5749-3.1957,7.9597-2.7266,13.319-2.1311-1.5228,1.977-1.3336,4.1986-5.0614,5.8606-2.0784,0.9628-3.8674-0.09951-5.5942-1.5983-2.4753,3.4321-5.9935,2.2295-9.8564,0.53278-3.2897,1.4968-6.5183,2.4899-8.3913,0.79917-3.3502-1.6871-1.9899-4.0402-2.7971-5.7274z" stroke="#000" stroke-linecap="round" fill="#fcdd09"/>
  <path stroke-linejoin="round" d="m198.19,12.436c3.295-0.24496,5.1019-1.2339,11.135-0.10976-4.7412-7.6742-8.3394-7.0131-11.084-0.12756" stroke="#000" stroke-linecap="round" stroke-miterlimit="4" stroke-dasharray="none" stroke-width="3" fill="#000"/>
  <path stroke-linejoin="round" d="M21.229,15.234c5.062-8.5793,14.816-10.747,20.92-6.014,2.583,2.002-0.325,11.734-2.969,8.891-4.66-5.009-12.522-2.482-17.951-2.877z" stroke="#000" stroke-linecap="round" stroke-miterlimit="4" stroke-dasharray="none" stroke-width="3" fill="#da121a"/>
  <path stroke-linejoin="round" d="m68.062-11.584c9.9575,0.27199,16.579,7.7553,15.395,15.388-0.5,3.2296-10.423,5.3999-9.216,1.7091,2.125-6.503-3.894-12.157-6.179-17.097z" stroke="#000" stroke-linecap="round" stroke-miterlimit="4" stroke-dasharray="none" stroke-width="3" fill="#da121a"/>
  <path stroke-linejoin="round" d="m29.644,61.594c-2.6181-9.611,2.6317-18.113,10.281-19.186,3.2363-0.4542,8.1824,8.4171,4.3004,8.3293-6.8397-0.15477-10.513,7.242-14.581,10.857z" stroke="#000" stroke-linecap="round" stroke-miterlimit="4" stroke-dasharray="none" stroke-width="3" fill="#da121a"/>
  <path stroke-linejoin="round" d="m42.981,120.35c6.8621-7.2206,16.854-7.1377,21.737-1.1526,2.0659,2.5322-2.957,11.36-4.894,7.9949-3.4129-5.9294-11.642-5.2365-16.843-6.8423z" stroke="#000" stroke-linecap="round" stroke-miterlimit="4" stroke-dasharray="none" stroke-width="3" fill="#da121a"/>
  <path stroke-linejoin="round" d="m38.538,171.75c-1.6792-9.8186,4.3659-17.774,12.083-18.105,3.265-0.14003,7.3326,9.1669,3.4772,8.7051-6.793-0.81356-11.162,6.1946-15.56,9.4003z" stroke="#000" stroke-linecap="round" stroke-miterlimit="4" stroke-dasharray="none" stroke-width="3" fill="#da121a"/>
  <path stroke-linejoin="round" d="m74.22,201.54c-6.8294-7.2515-6.1932-17.223,0.05321-21.767,2.6427-1.9224,11.179,3.5818,7.7116,5.3294-6.1094,3.0792-5.8734,11.334-7.7648,16.438z" stroke="#000" stroke-linecap="round" stroke-miterlimit="4" stroke-dasharray="none" stroke-width="3" fill="#da121a"/>
  <path stroke-linejoin="round" d="m398,208,0,98c0,60-75.493,160.78-196,160-120.51-0.78142-196-100-196-160v-98" stroke-dashoffset="0" stroke="#010000" stroke-linecap="round" stroke-miterlimit="4" stroke-dasharray="none" stroke-width="6" fill="none"/>
  <path stroke-linejoin="miter" d="m5,287,393,0m-392,63.995,392,0m-385,65,380,0m-341,63,301,0m-280-193,0,214m66-214,0,245m65-244,0,257m64-256-1,245m64-247,0,213" transform="translate(0,-78)" stroke="#000" stroke-linecap="butt" stroke-miterlimit="4" stroke-dasharray="none" stroke-width="3" fill="none"/>
 </g>
</svg>
