<?xml version="1.0" encoding="UTF-8" standalone="no"?>
<!-- Created with Inkscape (http://www.inkscape.org/) -->

<svg
   xmlns:dc="http://purl.org/dc/elements/1.1/"
   xmlns:cc="http://creativecommons.org/ns#"
   xmlns:rdf="http://www.w3.org/1999/02/22-rdf-syntax-ns#"
   xmlns:svg="http://www.w3.org/2000/svg"
   xmlns="http://www.w3.org/2000/svg"
   xmlns:sodipodi="http://sodipodi.sourceforge.net/DTD/sodipodi-0.dtd"
   xmlns:inkscape="http://www.inkscape.org/namespaces/inkscape"
   version="1.1"
   width="500"
   height="566.5318"
   viewBox="0 0 400.00002 453.22542"
   id="svg2"
   style="fill-rule:evenodd"
   inkscape:version="0.48.4 r9939"
   sodipodi:docname="Wappen LK Bad Dürkheim.svg">
  <sodipodi:namedview
     pagecolor="#ffffff"
     bordercolor="#666666"
     borderopacity="1"
     objecttolerance="10"
     gridtolerance="10"
     guidetolerance="10"
     inkscape:pageopacity="0"
     inkscape:pageshadow="2"
     inkscape:window-width="796"
     inkscape:window-height="730"
     id="namedview3348"
     showgrid="false"
     inkscape:zoom="0.58911856"
     inkscape:cx="231.21232"
     inkscape:cy="478.6512"
     inkscape:window-x="0"
     inkscape:window-y="0"
     inkscape:window-maximized="0"
     inkscape:current-layer="g218" />
  <metadata
     id="metadata474">
    <rdf:RDF>
      <cc:Work
         rdf:about="">
        <dc:format>image/svg+xml</dc:format>
        <dc:type
           rdf:resource="http://purl.org/dc/dcmitype/StillImage" />
        <dc:title />
      </cc:Work>
    </rdf:RDF>
  </metadata>
  <defs
     id="defs472" />
  <g
     transform="translate(-731.7408,-227.47102)"
     id="g4">
    <g
       transform="matrix(1.203732,0,0,1.203732,558.37565,-37.049202)"
       id="g216">
      <g
         id="g218">
        <path
           d="m 150.023,225.75003 320.3,0 0,204.368 c 0,88.082 -72.068,160.149 -160.15,160.149 l 0,0 c -88.083,0 -160.15,-72.067 -160.15,-160.149 l 0,-204.368 z"
           id="path3216"
           style="fill:#000000;fill-opacity:1;stroke:#000000;stroke-width:11.99989986;stroke-opacity:1" />
        <path
           d="m 342.561,229.74203 0,0 -0.002,94.891 c -0.744,-1.488 -1.882,-3.588 -3.808,-3.763 -1.707,-0.526 -3.633,0.393 -5.34,0.831 -4.376,-1.75 -9.19,-3.238 -12.079,-7.659 -1.269,-2.713 -0.613,-6.171 1.444,-8.315 1.97,-2.014 5.077,-2.32 7.484,-1.357 0.657,0.481 1.839,0.656 1.882,1.707 -2.144,0.569 -3.764,2.888 -3.982,5.033 -0.132,1.969 0.7,3.983 2.626,5.033 1.575,0.831 3.632,1.05 5.47,0.613 2.889,-1.051 4.99,-4.071 5.121,-7.134 0.525,-4.683 -1.751,-8.797 -5.558,-11.423 -4.071,-2.539 -9.935,-2.976 -14.268,-0.744 -5.733,2.713 -10.679,8.665 -11.992,14.705 l -0.525,0.307 c -6.827,-3.458 -14.224,-7.878 -18.601,-15.012 -1.75,-3.501 -1.925,-7.922 -1.444,-11.686 0.35,-0.744 0.832,-1.969 1.882,-1.969 0.832,-0.175 1.444,0.175 1.97,0.744 0.656,0.7 1.181,1.969 0.656,3.02 -0.394,1.357 -2.626,1.094 -2.232,2.757 1.138,0.744 2.889,0.175 4.114,0.175 2.801,-0.394 5.208,-2.976 6.39,-5.427 0.569,-0.044 0.656,0.7 0.744,1.138 0.438,3.633 -1.226,6.302 -0.832,9.672 0.526,1.007 1.751,1.051 2.714,0.832 0.394,-0.219 0.788,-0.306 1.269,-0.306 0.438,0.787 0.744,1.794 1.707,2.319 1.225,0.525 2.144,-0.525 3.239,-0.35 1.006,0.7 2.057,1.707 3.369,1.269 1.751,-0.919 2.845,-2.582 3.896,-4.201 1.488,-0.307 3.063,-0.569 3.982,-2.101 1.795,-2.057 -1.094,-6.521 2.407,-7.046 1.926,-0.701 4.333,-1.27 5.165,-3.545 0.481,-1.751 -1.094,-3.195 -1.795,-4.727 0.176,-2.582 -0.656,-4.683 -1.706,-6.74 -0.132,-0.569 0.568,-0.482 0.875,-0.7 4.289,-0.92 9.716,-1.357 11.423,-6.215 0.35,-1.094 -0.876,-1.838 -0.613,-3.064 1.576,-1.969 1.838,-4.77 1.357,-7.352 1.138,-1.445 2.626,-3.283 1.575,-5.121 -0.569,-0.919 -1.925,-0.919 -2.1,-1.882 -0.657,-2.889 4.726,-4.727 1.356,-7.265 -2.188,-1.532 -5.602,-1.05 -8.096,-0.832 -0.744,-0.787 -1.576,-1.313 -2.626,-1.356 -2.626,-0.088 -4.377,2.013 -6.609,3.019 -2.713,-1.663 -5.646,0.613 -7.965,2.101 -1.313,0.788 -2.189,2.407 -3.589,2.933 -0.656,-0.701 -0.306,-1.926 -1.357,-2.408 -3.632,-0.394 -2.932,5.996 -7.046,4.421 -1.838,-1.401 -3.86,-3.789 -6.171,-2.714 -1.525,0.709 -0.744,3.72 -2.976,3.545 -2.057,-0.175 -3.181,-2.758 -5.121,-3.238 -2.423,-0.6 -0.788,4.157 -3.676,3.02 -1.444,-0.832 -2.451,-2.977 -4.333,-2.495 l -0.525,0.919 c -0.175,1.969 0.744,3.501 -0.175,5.252 -1.488,1.181 -4.508,1.269 -4.333,3.676 1.05,1.488 3.72,0.482 4.42,2.101 -0.831,2.013 -3.05,3.377 -4.114,5.252 -0.6,1.057 0.509,1.937 1.27,2.013 1.053,0.105 2.37,-1.27 3.151,-0.438 1.88,2.005 -3.084,4.084 -0.219,5.602 1.53,0.811 3.411,-1.021 4.333,0.394 0.483,0.742 -0.963,1.532 -0.657,2.407 0.876,1.445 3.983,-0.787 3.151,1.882 -6.871,6.128 -7.79,15.406 -6.477,23.853 2.451,9.322 11.992,16.5 19.607,21.839 0.306,2.495 -1.926,4.201 -2.407,6.521 -0.438,2.932 -0.788,6.565 -4.07,8.097 -2.889,-0.482 -5.515,-1.488 -8.316,-1.138 -3.063,0.087 -5.514,3.107 -6.608,5.646 -0.744,2.144 -0.394,4.114 0,6.302 -0.657,1.138 -2.101,2.101 -2.845,3.282 l -1.138,1.97 -0.35,-0.394 -0.088,-117.918 0.025,0 -116.288,0 0,0 0.108,208.776 c 2.058,31.336 15.581,59.696 35.057,84.731 18.994,22.889 42.803,38.995 68.8,47.398 3.983,0.963 8.179,2.509 12.293,3.122 l 0.005,-0.496 0.219,-164.91 0.088,-0.131 c 0.831,1.575 1.706,3.282 2.538,4.945 0.044,0.788 -1.225,0.92 -1.269,1.795 -0.132,2.538 3.326,4.376 1.269,6.915 -0.263,1.4 -0.175,2.932 1.138,3.807 0.963,0.744 2.232,1.226 2.845,2.32 -0.044,2.363 -1.882,5.121 0.744,6.696 1.444,-0.131 2.363,-1.05 3.895,-0.394 2.013,1.576 4.508,1.97 7.134,2.189 1.181,1.181 0.787,3.151 0.744,4.726 -0.525,1.838 -2.495,3.327 -4.333,3.589 -0.657,0.438 -0.875,1.226 -0.613,1.97 1.663,2.757 5.121,2.057 7.659,3.063 0.7,1.138 0.438,2.451 0.613,3.895 0.481,1.226 0.481,2.845 2.013,3.458 3.239,-0.919 1.576,3.063 2.626,4.508 0.525,1.575 1.838,3.545 3.676,3.764 2.714,-0.788 4.289,-3.764 6.915,-4.727 4.333,-3.02 2.276,-8.009 2.758,-12.08 0.262,-0.218 0.7,-0.437 1.05,-0.175 1.182,1.138 0,2.626 0.219,4.071 -0.219,1.444 0,3.326 1.575,4.201 0.963,0.35 1.882,-0.394 2.276,-1.269 0,-0.219 0.263,-0.175 0.438,-0.175 1.138,0.219 1.751,1.707 2.845,2.101 0.963,0.525 2.319,0.875 3.37,0.175 1.488,-2.451 -0.132,-5.734 -0.657,-8.403 -0.437,-1.926 1.838,-2.714 1.488,-4.596 1.444,0.088 2.057,1.838 2.714,2.933 1.619,3.413 1.138,8.622 -0.307,12.079 -4.07,8.709 -13.129,15.493 -21.445,19.344 -2.319,-0.043 -1.575,-3.019 -2.407,-4.551 -1.138,-4.377 -4.639,-8.972 -9.147,-10.504 -3.983,-1.357 -8.666,-0.875 -11.861,2.013 -2.45,2.539 -3.763,5.559 -3.457,9.235 0.394,2.582 1.926,5.296 4.508,6.302 1.444,0.657 2.801,0.219 4.114,-0.394 0.7,-0.788 1.794,-1.532 1.357,-2.626 -0.745,-0.394 -1.27,0.438 -2.014,0.525 -1.313,0 -2.932,0.132 -3.457,-1.4 -0.832,-1.094 -0.613,-2.801 -0.394,-3.983 0.656,-2.1 2.845,-3.107 4.814,-3.37 2.67,-0.481 5.121,0.569 6.609,2.758 1.882,3.588 2.013,8.403 -0.525,11.773 -2.189,2.713 -5.033,4.42 -8.097,5.339 -2.057,-1.751 -5.208,-1.838 -7.878,-1.269 -3.457,1.619 -4.42,5.471 -4.202,9.016 0.92,4.726 2.539,9.147 5.471,13.042 0.701,0.7 1.576,1.313 2.539,1.05 4.726,-2.845 2.976,-9.497 8.709,-11.642 4.595,-3.369 10.198,-5.295 15.975,-4.857 0.35,0.262 0.919,0.218 1.05,0.744 -0.175,1.575 -1.838,0.131 -2.845,0.437 -1.619,0.175 -3.063,0.7 -4.201,1.97 -1.663,1.269 -0.744,5.383 -4.114,4.114 -3.02,0 -5.734,2.407 -6.828,5.12 -0.437,1.269 -0.788,2.758 -0.919,4.027 -2.538,1.137 -5.733,3.282 -6.521,6.171 -0.788,3.238 0.263,6.74 2.32,9.366 -1.27,3.851 -1.182,8.271 2.188,11.116 0.831,0.919 2.757,1.182 2.538,2.539 -0.787,2.669 -0.612,6.214 1.882,8.184 -0.919,2.494 -1.488,5.514 0.088,7.878 0.831,1.094 2.057,1.575 2.757,2.538 -0.087,2.626 -0.7,5.821 2.188,7.353 0.832,0.831 2.539,0.35 2.845,1.75 0.219,2.232 0.525,4.596 2.714,5.777 2.801,1.27 5.602,1.357 8.227,-0.306 2.189,-1.794 2.233,-4.727 2.408,-7.134 1.313,-0.963 3.107,-1.794 3.676,-3.457 0.175,-1.357 0.044,-2.451 0.087,-3.895 2.539,-1.445 5.165,-3.721 4.946,-6.828 -1.357,-3.457 3.414,-2.582 4.202,-5.339 0.875,-1.445 0.525,-2.714 0.831,-4.333 3.37,-1.882 6.565,-5.165 6.084,-9.235 -0.263,-1.138 -0.351,-2.451 -0.307,-3.589 2.407,-1.05 5.427,-1.794 6.609,-4.595 0.919,-2.626 1.182,-6.127 -0.613,-8.403 -3.632,-2.057 -1.269,-6.521 -2.626,-9.454 -0.437,-2.757 -2.888,-4.945 -5.47,-5.689 -1.664,-0.35 -3.939,-0.306 -5.471,0.744 -1.532,0.613 -2.189,-1.619 -3.545,-1.794 l -0.438,-0.613 c 0.263,-5.121 -2.889,-9.06 -6.171,-12.824 l 0,-0.612 c 4.814,-2.714 9.191,-6.565 14.574,-8.009 0.963,-0.044 2.145,-0.044 2.845,0.875 0.744,0.788 1.007,1.926 0.744,3.02 -0.175,0.7 -0.919,1.269 -1.576,1.488 -1.313,0.175 -2.276,-0.744 -3.37,-0.744 -0.219,0.744 0.307,1.488 0.963,1.969 1.269,1.269 3.064,1.051 4.727,0.744 1.4,-0.481 2.713,-1.794 3.326,-3.151 0.875,-2.67 0.394,-5.689 -1.575,-7.878 -1.401,-1.794 -5.865,-2.538 -4.289,-5.427 4.551,-7.484 8.009,-17.331 3.37,-25.865 -1.62,-2.801 -4.64,-4.858 -6.609,-7.441 -0.088,-0.262 0.044,-0.525 0.306,-0.525 0.7,0 1.445,0.482 2.101,0 1.357,-1.4 1.357,-4.114 3.764,-4.333 0.744,-0.087 1.619,-0.087 2.013,-0.831 0.306,-0.744 -0.35,-2.101 0.919,-2.32 0.788,-0.131 1.97,0 2.539,-0.919 1.006,-1.926 -1.488,-3.414 -1.357,-5.471 1.094,-0.787 1.925,-1.925 2.188,-3.151 -0.044,-2.057 -2.976,-2.101 -2.932,-4.201 0.306,-1.926 0.481,-4.596 -0.744,-6.303 -0.613,-0.656 -1.663,-1.006 -2.495,-0.525 -1.838,0.963 -3.282,2.801 -5.077,3.895 -3.107,0.088 -1.619,-4.114 -3.676,-5.383 -1.707,-0.087 -3.02,5.34 -4.202,1.488 0,-1.138 -0.394,-2.1 -1.138,-2.932 -0.437,-0.263 -0.962,-0.613 -1.487,-0.219 -1.62,1.488 -1.751,3.851 -3.852,4.814 -1.532,0.088 -1.619,-2.144 -3.151,-2.1 -2.057,2.888 -4.683,5.864 -3.808,9.584 0.219,1.226 1.795,2.889 0.307,3.896 -0.482,0.131 -1.357,-0.176 -1.357,-0.876 -0.394,-3.195 0.744,-7.134 -2.495,-9.103 -2.494,-1.488 -4.245,-4.07 -4.945,-6.653 -2.539,-1.4 -2.976,2.627 -4.946,3.502 -2.932,-0.088 -3.151,-3.808 -5.471,-4.946 -0.744,-0.131 -1.356,0.744 -1.575,1.357 -0.088,0.569 -0.525,0.919 -1.05,1.138 -2.801,0.35 -3.764,-6.871 -6.171,-2.276 -0.351,1.007 -0.482,2.232 -1.707,2.714 -1.882,0.7 -4.246,-1.926 -5.646,0.218 l -0.438,-1.05 0.219,-50.024 0.219,0 c 0.963,2.057 3.02,3.72 4.814,4.945 -0.35,3.064 0.7,6.084 2.932,8.316 1.357,1.619 4.902,1.838 3.677,4.726 0.131,1.62 1.4,3.327 2.932,4.202 -0.044,1.969 -0.963,3.72 0.131,5.646 0.569,1.313 1.97,2.495 3.239,3.063 0.744,0.394 0.482,1.357 0.525,1.882 -0.175,1.839 -0.219,3.852 0.832,5.252 1.838,2.013 4.158,2.933 6.652,3.37 0.788,1.97 0.963,4.202 2.495,5.865 1.532,1.794 3.633,2.319 5.908,2.319 2.189,-0.262 4.508,-1.225 5.558,-3.457 0.701,-1.401 0.788,-3.107 1.138,-4.639 2.67,-2.013 4.333,-4.815 3.589,-8.053 -0.394,-0.657 -0.569,-1.576 -0.306,-2.32 1.663,-1.269 3.326,-2.932 3.151,-5.164 -0.131,-1.094 -0.7,-2.232 -0.35,-3.239 1.269,-0.7 2.407,-1.969 2.976,-3.282 -0.131,-1.532 0.35,-3.239 -0.744,-4.508 0.087,-1.094 1.575,-1.094 2.319,-1.795 3.677,-2.538 1.664,-7.44 0.92,-10.81 2.844,-2.494 4.551,-6.039 3.457,-9.672 -0.438,-2.013 -2.144,-4.027 -4.07,-5.033 -1.007,-1.269 -0.613,-2.801 -1.182,-4.289 -0.788,-2.188 -2.976,-4.158 -5.252,-4.639 -1.225,-0.526 -3.589,0.656 -3.851,-1.27 -0.131,-2.45 -0.613,-5.558 -3.37,-6.915 -1.444,-0.919 -3.239,-0.262 -4.508,-1.356 -0.219,-0.701 0.306,-0.963 0.7,-1.269 8.403,-1.226 15.581,3.632 19.957,10.591 2.495,2.757 0.788,10.898 6.828,8.534 1.663,-1.532 1.532,-3.807 2.538,-5.558 1.751,-2.713 3.633,-5.383 4.64,-8.403 l 0,250.166 c -1.839,0.787 -3.896,1.094 -5.909,1.356 -11.729,1.838 -25.209,1.882 -37.682,1.182 -14.18,-1.357 -28.448,-3.764 -41.403,-8.622 -34.268,-10.941 -67.618,-41.402 -84.424,-74.139 -9.804,-19.301 -18.163,-39.477 -18.294,-62.498 l -0.015,-208.989 0,0 187.729,0 z"
           id="path3218"
           style="fill:#ffffff;stroke:none" />
        <path
           d="m 466.08,229.74303 0,-0.001 0,49.725 0,12.824 0,116.066 0,35.101 c -0.656,10.591 -3.428,21.62 -6.929,31.818 -12.036,36.15 -39.17,73.089 -74.796,91.908 -11.598,6.171 -23.721,10.898 -36.763,13.524 l -1.696,0.263 -0.011,-1.182 0,-121.101 0,-122.675 0.131,-23.853 0.525,-0.525 c 3.502,0.219 6.04,-0.35 9.147,-0.744 0.438,0.481 0.088,1.182 -0.131,1.663 -2.407,2.845 -5.514,5.515 -7.221,8.534 0,0.263 0.087,0.569 0.394,0.613 1.531,-0.481 2.757,-1.663 3.982,-2.845 1.882,-1.313 3.283,-4.07 5.602,-3.982 l 0,1.356 c -2.626,7.616 -5.689,15.056 -10.197,21.883 -0.131,0.394 -0.263,1.094 0.087,1.445 2.057,1.269 4.071,0.7 6.303,0.525 1.619,-0.219 2.932,-1.532 4.639,-1.357 0.744,1.007 -0.7,1.663 -0.963,2.539 -3.414,3.807 -6.915,7.746 -10.066,11.729 -0.131,0.612 -1.051,1.269 -0.307,1.794 1.882,-0.438 3.108,-2.363 4.508,-3.764 l 8.403,-9.672 c 0.438,-0.394 1.007,-0.788 1.576,-0.525 0.7,0.919 0.438,2.494 0.219,3.589 -2.495,7.921 -6.302,15.318 -11.467,22.145 -0.219,0.569 -0.525,1.357 0,1.882 2.057,1.444 4.464,0 6.74,0 2.057,-0.831 4.027,-1.969 6.302,-2.407 0.351,0.394 0.176,1.05 0,1.488 -4.289,7.615 -10.372,14.53 -14.18,22.364 0,0.351 -0.087,0.701 0.175,0.919 1.357,-0.568 2.364,-2.013 3.152,-3.151 3.763,-4.814 7.09,-9.847 10.635,-14.793 0.394,-0.175 0.7,-0.525 1.138,-0.525 0.393,3.895 -1.751,7.265 -2.845,10.81 -2.014,5.646 -5.909,10.504 -7.659,16.281 0,0.613 0.656,0.832 1.05,1.051 8.403,0.262 14.18,-6.565 20.264,-11.948 0.262,0 0.612,0.087 0.656,0.394 0.088,2.888 -1.357,5.12 -2.013,7.659 -1.138,3.545 -3.852,6.433 -5.471,9.803 -0.087,0.482 0.525,0.613 0.875,0.394 6.609,-7.178 10.286,-15.799 14.356,-24.159 1.138,-2.67 1.838,-5.602 3.676,-7.878 0.657,-0.262 1.05,0.394 1.182,0.832 -0.482,5.865 -3.064,11.16 -4.333,16.806 -2.67,9.541 -4.989,20.132 -14.049,26.084 -0.306,0.307 -0.613,0.788 -0.306,1.226 1.4,2.319 6.039,0.394 5.427,4.114 -2.32,6.477 -6.215,12.342 -8.71,18.819 -0.656,0.657 -1.619,0.963 -2.494,0.832 -4.552,-1.094 -11.292,-2.801 -14.925,1.269 -2.013,1.838 -1.969,5.208 -1.269,7.528 0.438,0.7 1.138,1.269 2.013,1.181 0.394,-0.7 -0.218,-1.794 0.701,-2.232 1.882,-0.437 3.545,2.32 5.164,0.35 0.7,-0.612 0.569,-1.575 1.357,-2.1 1.006,0.043 2.188,0.131 2.626,1.138 l -0.219,1.137 c -5.908,6.215 -13.13,12.868 -11.204,21.665 1.094,2.232 3.501,3.895 5.952,4.201 0.525,-0.306 1.401,-0.175 1.488,-0.963 -0.394,-1.269 -2.276,-2.057 -1.576,-3.676 1.445,-1.182 3.852,-0.919 4.815,-3.02 1.313,-1.751 -0.088,-3.72 -0.832,-5.252 -0.481,-1.838 1.576,-2.888 2.32,-4.333 0.875,-0.831 1.925,-2.144 3.151,-2.1 l 0.438,0.831 c -1.445,4.596 -2.407,9.804 -0.35,14.312 1.006,1.794 2.844,3.238 4.858,3.545 2.013,0.131 4.551,0.35 5.995,-1.663 -0.087,-1.707 -2.844,-0.876 -2.538,-2.714 1.313,-0.788 3.326,-1.532 3.151,-3.501 -0.087,-1.182 -0.875,-2.364 -2.013,-2.801 -3.501,-1.094 -0.788,-5.384 -1.225,-7.703 0.131,-0.613 0.437,-1.357 1.137,-1.576 2.057,0.044 4.071,0.526 5.165,2.451 0.481,2.014 -0.438,4.158 1.969,5.121 0.657,0.306 1.62,0.175 2.014,0.963 0.437,1.181 -2.495,2.888 0.218,3.151 1.751,0.175 3.458,-0.482 4.902,-1.357 2.451,-2.144 3.195,-5.208 2.626,-8.315 -1.182,-3.195 -4.595,-4.946 -7.221,-6.609 l -8.535,-4.42 c -0.656,-0.482 -1.138,-1.138 -0.919,-1.882 0.788,-2.626 2.407,-4.902 3.764,-7.265 2.188,-3.37 4.377,-6.697 7.046,-9.848 2.495,-1.006 2.714,3.502 5.165,2.626 0.613,-1.182 0.087,-2.407 0.394,-3.676 1.094,-3.895 3.063,-7.44 5.252,-10.854 0.35,-0.044 0.656,-0.306 1.05,-0.175 1.05,4.42 -0.569,8.797 -0.613,13.305 -0.963,4.726 -1.75,10.066 -6.608,12.604 -0.307,1.269 1.181,1.838 1.969,2.32 2.626,1.05 5.733,0.394 8.316,-0.613 0.919,-0.175 1.05,0.875 1.269,1.444 -0.525,11.598 1.575,25.078 -9.366,31.949 -2.845,1.664 -6.39,-0.087 -9.366,0.307 -1.226,1.094 -0.306,2.888 -0.175,4.201 0.525,2.67 2.538,5.69 5.339,6.522 3.152,1.006 6.522,0 9.454,-0.744 0.831,-0.176 1.4,0.218 1.575,0.962 -0.656,6.128 -4.464,12.605 -10.591,14.793 -4.07,1.488 -8.666,1.751 -12.605,-0.087 -0.525,-0.044 -1.356,0.35 -1.4,1.05 -0.788,4.245 2.013,7.659 5.252,9.979 4.376,2.713 9.628,2.319 14.399,1.137 2.188,0.307 1.225,3.02 1.882,4.509 1.531,5.208 3.589,10.372 8.228,14.092 0.963,0.438 2.013,0.131 2.932,-0.525 5.339,-5.69 7.834,-12.692 7.965,-20.395 l 0.526,-0.525 c 4.245,2.976 10.285,5.077 15.143,2.232 3.37,-1.707 5.689,-5.296 5.558,-8.928 -0.131,-0.832 -0.044,-1.882 -1.05,-2.101 -2.189,0.613 -4.027,0.963 -6.39,0.525 -7.134,-0.744 -13.261,-8.097 -15.143,-14.53 -0.219,-0.788 -0.219,-2.057 0.831,-2.188 4.07,1.312 9.541,2.801 12.736,-1.27 1.619,-2.057 2.932,-4.683 2.495,-7.221 -1.051,-1.357 -2.582,0.306 -3.983,0.219 -4.552,0.437 -7.046,-4.99 -9.016,-8.097 -2.844,-4.902 -2.713,-10.942 -3.063,-16.587 0,-3.283 -0.132,-6.303 0.525,-9.147 0.831,-1.445 2.232,0 3.37,0 2.845,0.35 5.689,-0.307 7.353,-2.626 0,-2.013 -2.583,-1.926 -3.808,-3.064 -4.333,-3.895 -3.939,-10.022 -4.289,-15.318 0.438,-2.32 -0.131,-5.296 1.269,-7.353 1.576,-0.087 2.188,1.707 2.932,2.714 1.838,3.107 3.239,7.353 1.27,10.722 -0.132,0.526 0.175,0.832 0.525,1.139 1.882,0.393 4.464,-2.933 5.558,0.437 1.576,3.545 3.458,7.003 4.639,10.723 1.007,2.845 -2.407,3.457 -3.895,4.726 -4.508,1.664 -9.716,5.865 -10.504,10.898 -0.262,2.626 0.044,5.733 2.626,7.572 0.657,0.35 1.269,0.787 2.101,0.744 1.269,-1.094 -0.657,-2.32 0,-3.677 1.619,-2.188 6.04,-1.838 5.558,-5.47 0,-0.919 -0.481,-1.882 0,-2.714 1.926,-1.444 4.246,-2.626 6.828,-2.407 1.488,2.801 2.013,5.865 1.575,9.235 -1.269,1.444 -3.982,1.706 -4.42,4.07 -0.263,1.663 0.656,3.02 2.013,3.807 0.482,0.351 1.182,0.482 1.444,1.138 0.482,1.882 -4.07,2.758 -1.444,4.202 2.188,0.131 4.639,-0.35 6.171,-2.32 4.508,-4.945 1.269,-11.816 1.795,-17.637 0.306,-0.35 0.962,-0.263 1.269,0 1.882,2.319 5.12,4.508 3.589,8.096 0.131,1.445 -0.088,3.283 1.137,4.421 0.745,1.006 2.626,1.094 2.408,2.713 -0.132,0.875 -0.263,1.62 0.131,2.407 0.175,0.394 0.613,0.175 0.919,0.219 1.313,-1.094 1.882,-2.495 2.232,-3.982 2.101,-1.051 3.808,-3.239 3.676,-5.69 -1.006,-6.215 -7.702,-9.322 -11.029,-14.487 -0.131,-0.437 0.394,-0.7 0.701,-0.744 2.494,0.482 3.851,4.289 6.827,2.845 0.657,-0.131 1.225,-0.569 2.013,-0.394 1.138,0.613 1.138,1.926 2.101,2.714 2.626,-1.576 0.219,-4.771 1.269,-6.915 -0.262,-2.32 -2.801,-3.501 -4.639,-4.202 -4.026,-0.569 -7.834,-1.094 -11.554,-1.181 -2.407,-0.92 -2.626,-3.633 -3.458,-5.646 -1.269,-4.508 -2.888,-8.885 -4.42,-13.261 -0.131,-0.788 -0.569,-1.707 -0.087,-2.495 1.444,-1.094 5.208,0.263 5.251,-2.757 -8.184,-9.016 -10.197,-20.614 -13.655,-31.599 -0.481,-2.976 -1.706,-5.909 -1.356,-8.928 0.481,-0.526 1.094,-0.394 1.663,-0.132 4.42,5.777 7.396,12.124 11.248,18.076 1.707,3.107 2.844,6.608 5.47,9.147 0.351,0.044 0.526,-0.482 0.526,-0.613 0,-2.057 -2.057,-3.457 -1.926,-5.69 0.35,-0.35 0.525,-0.569 0.963,-0.306 4.726,3.808 11.116,8.359 16.893,4.814 0.351,-0.525 1.007,-1.225 0.438,-1.882 -9.016,-7.484 -12.867,-17.418 -16.5,-27.31 0.175,-0.962 -0.787,-1.794 0,-2.625 l 0.963,0.218 8.622,10.504 c 0.525,0.132 0.832,0.832 1.444,0.744 0.569,-0.612 -0.131,-1.225 -0.219,-1.794 -2.713,-4.114 -6.083,-7.966 -8.796,-12.08 -0.132,-0.306 0.131,-0.437 0.306,-0.656 2.232,0.613 4.114,1.969 6.39,2.451 3.282,0.613 7.309,0.481 9.278,-2.32 l -0.438,-1.488 c -4.245,-3.501 -6.958,-7.834 -8.621,-12.473 -0.132,-0.7 0.525,-1.226 1.181,-0.875 2.057,1.706 3.895,4.42 6.303,5.602 0.35,-0.044 0.744,0.043 0.919,-0.351 -0.482,-2.494 -2.67,-4.332 -4.071,-6.477 l -5.689,-7.484 0,-0.919 c 1.794,-0.087 3.282,1.269 5.033,1.663 1.926,0.263 4.989,1.051 6.083,-1.05 l 0,-1.051 c -2.801,-5.82 -6.258,-11.422 -7.878,-17.769 0.132,-0.262 0.175,-0.656 0.526,-0.7 l 0.656,0.088 c 1.488,1.094 2.364,3.326 4.289,3.589 0.657,-0.526 0.175,-1.357 0,-1.926 -2.626,-3.939 -6.783,-7.265 -8.184,-11.729 1.444,-1.095 2.976,0.218 4.639,0 1.707,0.218 3.677,-0.176 4.902,-1.707 3.064,-5.602 -4.289,-8.753 -5.252,-13.655 1.007,-0.876 2.801,0.087 3.808,-0.832 0.131,-0.613 -0.569,-0.875 -0.963,-1.05 -2.67,0.044 -5.383,-1.444 -6.828,-3.764 0.044,-2.013 2.407,-2.013 3.677,-2.845 4.639,-2.188 7.878,-6.959 8.096,-11.992 -0.043,-1.4 -0.087,-3.195 -1.575,-3.676 -3.151,1.619 -5.865,5.033 -9.541,4.727 -0.088,-2.451 1.707,-4.421 2.407,-6.696 1.794,-4.552 2.32,-10.898 -1.576,-14.618 -0.875,-0.613 -1.706,-1.532 -2.844,-1.138 -1.576,1.313 -0.263,3.72 -0.963,5.471 -0.832,3.107 -2.889,5.733 -4.814,8.403 -1.707,1.094 -2.451,-1.401 -3.983,-1.707 -1.313,-0.219 -2.976,-1.051 -3.895,0.306 0.437,1.926 0.919,4.158 0.437,6.215 -2.144,5.427 -7.746,10.635 -4.945,16.894 0.7,1.488 3.195,1.488 2.101,3.588 -1.051,2.933 -1.007,7.134 1.575,9.673 0.35,1.531 -1.4,1.969 -1.707,3.238 -1.707,5.996 1.138,14.618 -5.646,17.769 -3.676,1.226 -8.009,0.876 -11.466,2.626 -1.532,-0.919 -1.051,-3.107 -0.832,-4.727 0.175,-1.838 0.307,-4.289 1.882,-5.689 1.138,-0.131 2.145,0.7 3.151,1.138 1.094,0.481 2.364,0.481 3.458,0 0.612,-0.35 0.612,-1.094 0.437,-1.663 -2.713,-2.933 -2.801,-7.222 -1.575,-10.723 1.269,-1.138 2.319,0.744 3.589,0.832 1.269,0.306 2.713,0.131 3.457,-1.051 -0.7,-2.319 -2.801,-4.07 -3.063,-6.608 -0.744,-3.939 -1.138,-7.791 -1.27,-11.861 1.313,-0.306 2.758,3.239 3.502,0.306 0.262,-4.42 -0.744,-8.753 -1.576,-13.129 0.613,-1.532 2.976,-1.576 3.458,-3.458 0.175,-0.306 0.043,-0.788 0.087,-1.138 -0.963,-0.744 -2.232,-0.35 -3.457,-0.744 -2.145,-0.875 -4.158,-2.976 -5.471,-4.945 -0.306,-1.751 1.794,-1.795 2.538,-3.02 0.832,-1.313 2.057,-2.67 1.576,-4.202 -1.401,-0.831 -2.67,0.569 -4.202,0.394 -6.477,0.175 -10.46,-6.871 -16.281,-8.797 -3.763,-0.831 -7.265,1.313 -9.584,4.508 -1.488,4.771 -7.09,3.107 -9.979,6.302 -2.495,2.189 -3.939,5.077 -3.151,8.403 0.525,1.401 1.488,3.414 3.282,3.545 0.307,-0.131 0.744,-0.131 1.051,-0.306 0.788,-0.919 0.394,-2.67 1.969,-3.02 2.714,-0.437 4.946,0.919 7.047,2.276 0.306,0.525 0.744,1.05 0.437,1.707 -3.676,2.101 -7.659,4.07 -11.992,3.983 -1.138,-0.219 -2.669,-1.488 -3.545,-0.132 0.526,2.582 3.283,2.933 5.252,3.677 5.033,1.707 9.848,-1.532 14.881,-2.101 0.35,0.262 0.35,0.919 0,1.182 -1.313,1.882 -3.983,3.063 -3.764,5.47 1.575,1.094 3.282,-0.7 4.945,-0.963 3.151,-0.612 6.434,-0.262 9.673,0.526 0.35,0.394 0.218,1.138 0.087,1.575 -1.707,3.02 -5.471,3.283 -8.184,3.064 -1.007,0.438 -0.525,1.4 -0.657,2.188 0.832,1.795 2.364,3.589 4.114,4.727 l 0,0.613 c -2.713,1.269 -6.039,2.801 -9.147,1.269 -0.394,0.175 -0.963,0.437 -1.05,0.963 -0.875,2.757 2.188,4.858 3.895,6.696 -0.613,1.357 -2.145,1.882 -3.457,2.232 -2.145,0.438 -4.333,-0.525 -5.69,-2.32 -1.094,0.263 -1.444,1.576 -1.576,2.626 -0.043,2.451 1.095,4.377 2.32,6.303 -0.35,1.531 -2.188,1.75 -3.457,2.1 -2.233,0.482 -3.546,-1.575 -5.384,-1.794 -1.444,1.225 -1.181,3.457 -0.612,5.033 0.612,2.101 2.669,3.633 4.639,4.201 0.175,0.351 0.044,0.788 0.087,1.182 -2.582,1.444 -5.996,0.482 -8.315,-0.831 -3.589,-2.801 -3.239,-7.353 -3.764,-11.467 -0.394,-2.757 -0.131,-6.521 -3.064,-8.622 -0.175,-1.663 1.707,-2.757 2.232,-4.289 1.094,-2.713 1.051,-5.208 0.394,-8.097 1.707,-1.313 4.508,-2.626 4.421,-5.252 0.656,-5.295 -5.252,-8.49 -4.946,-13.742 0.175,-0.7 0.306,-1.97 -0.525,-2.407 -2.145,-0.219 -3.37,2.144 -4.814,3.457 -2.32,-0.963 -2.714,-3.676 -3.896,-5.558 -1.706,-4.814 -3.72,-9.847 -2.713,-14.924 0,-0.394 -0.438,-0.525 -0.656,-0.744 -2.451,0.219 -4.377,2.538 -5.427,4.639 -1.051,1.182 0.131,4.377 -2.539,3.764 -0.613,0.7 -0.175,1.751 0,2.538 0.919,4.158 2.626,8.009 4.639,11.73 0.132,0.481 -0.219,0.787 -0.656,0.744 -2.932,-0.569 -5.471,-2.714 -7.572,-4.946 -0.262,-0.613 -0.919,-1.138 -1.444,-1.576 -0.875,-0.175 -1.05,0.788 -1.357,1.27 -0.875,4.726 0.044,9.672 4.071,13.042 1.4,1.357 3.194,2.276 4.42,3.676 0.175,0.788 -0.788,0.744 -1.138,1.138 -3.501,1.094 -6.959,0.044 -9.891,-1.794 -1.357,0.525 -1.313,-0.744 -1.576,-1.576 0.526,-3.282 -0.087,-6.784 0.088,-10.066 l -0.023,-46.179 0,-0.001 0,0.001 120.218,-0.001 0,0.001 z"
           id="path3220"
           style="fill:#008ed1;stroke:none" />
        <path
           d="m 336.038,242.31003 c 0.262,3.195 -4.114,7.396 0.612,9.016 0.875,1.531 -0.612,2.888 -0.744,4.42 0.175,2.319 -1.707,4.026 -3.238,5.471 0.743,0.787 1.444,2.013 1.137,3.063 -2.888,3.02 -7.352,3.764 -11.554,3.02 -0.437,0.088 -1.006,0.438 -1.138,0.963 -1.313,3.458 3.327,4.683 2.714,8.053 -0.088,1.751 0.437,3.457 1.269,4.946 -0.131,0.568 0.044,1.4 -0.744,1.488 -1.707,0.568 -4.07,-1.576 -5.033,0.393 0.175,2.583 1.576,5.515 -0.219,7.791 -1.313,0.569 -1.707,-1.926 -3.151,-1.051 -1.838,1.663 0.131,4.464 -1.226,6.303 -1.531,0.175 -2.056,-2.276 -3.807,-1.663 -1.532,-1.007 0.7,-4.202 -2.188,-3.896 -0.876,0.175 -1.182,1.707 -2.32,1.27 -3.195,-3.808 3.414,-8.316 -1.576,-11.248 -1.4,-0.35 -2.713,0.087 -3.763,0.831 -1.576,1.27 -1.882,3.195 -3.37,4.421 -3.064,-0.394 0.393,-4.158 -2.626,-4.727 -0.044,-1.313 1.707,-2.101 2.1,-3.37 0.263,-1.05 0.394,-2.145 -0.131,-3.151 -0.788,-1.313 -3.895,-1.488 -2.407,-3.676 0.7,-0.963 0.963,-2.32 0.219,-3.37 -0.657,-0.919 -1.904,-1.336 -3.064,-0.919 -0.552,0.198 -1.225,0.552 -1.882,0.306 -1.138,-0.427 -0.33,-2.512 -1.575,-2.539 -0.943,-0.02 -2,1.33 -2.714,0.744 -1.183,-0.971 0.919,-3.851 -1.488,-4.42 -1.508,-0.572 -3.016,2.046 -3.745,0.717 -0.579,-1.054 1.82,-0.629 2.826,-1.023 0.963,-1.094 1.007,-2.583 0.175,-3.764 -0.262,-0.525 -0.744,-1.138 -0.394,-1.795 1.62,0 2.057,-1.531 3.151,-2.319 2.189,-0.35 3.292,2.785 5.252,2.319 1.702,-0.404 -0.656,-3.851 1.882,-3.37 1.226,0.657 1.226,3.414 3.151,2.408 1.97,-0.832 1.795,-2.977 1.882,-4.815 0.307,-0.612 1.182,-0.744 1.795,-0.525 2.057,1.051 1.676,4.994 4.289,4.202 0.967,-0.294 1.309,-1.56 2.101,-2.189 0.39,-0.31 0.981,0.139 0.525,0.832 -0.876,1.33 -3.064,2.976 -1.882,5.033 0.394,0.919 1.182,2.013 2.232,2.32 1.225,0.218 2.626,0.131 3.545,-0.745 2.713,-2.406 0.35,-6.477 2.407,-9.146 1.138,-1.97 2.976,-5.034 5.471,-4.815 1.094,0.613 0.35,2.364 1.882,2.714 2.45,-0.788 2.1,-3.895 4.639,-4.815 0.656,-0.218 1.532,-0.568 2.188,-0.131 0.7,0.7 -0.087,2.057 1.05,2.451 2.451,-0.7 4.246,-3.282 7.047,-2.757 l 0.438,0.744 z"
           id="path3222"
           style="fill:#009240;stroke:none" />
        <path
           d="m 207.979,247.86803 c 0.043,1.269 -1.138,2.276 -0.394,3.589 1.006,1.357 3.107,1.138 3.764,2.932 0.043,1.663 0.131,3.195 -1.27,4.421 -1.87209,1.62593 -3.48722,1.96899 -5.646,1.663 -1.225,-0.569 -2.538,-0.876 -3.895,-1.051 -1.006,1.051 0.175,2.189 0.088,3.37 0.35,2.933 -1.532,5.383 -3.983,6.74 -0.175,1.445 1.576,2.32 2.013,3.676 0.876,1.97 0.613,4.552 0.832,6.697 0.569,1.138 1.882,0.875 2.932,1.05 4.683,0.875 8.053,-2.713 11.467,-5.558 0.744,-0.525 1.926,-0.482 2.845,-0.306 1.75,0.437 1.794,2.363 1.969,3.851 -0.788,2.101 1.094,4.289 0,6.127 -0.437,0.306 -1.313,0.306 -1.794,0 -0.963,-0.525 -1.051,-2.057 -2.188,-1.794 -1.051,1.444 0.306,3.107 -0.438,4.814 -0.744,0.744 -1.751,0.044 -2.495,-0.219 -1.794,-4.114 -5.952,-0.875 -8.84,-1.575 -0.307,0.131 -0.219,0.568 -0.088,0.744 6.346,2.582 8.709,9.366 8.403,15.755 -0.175,0.307 -0.088,0.788 -0.525,0.832 -1.007,0.175 -1.007,-1.007 -1.707,-1.444 -2.713,-0.963 -5.033,-3.327 -7.134,-5.384 -0.175,-0.043 -0.788,0 -0.744,0.438 1.444,2.32 2.582,4.858 1.488,7.659 -0.306,1.401 -0.919,2.67 -1.882,3.808 -0.788,0.175 -0.963,-0.526 -1.05,-1.051 0.831,-4.114 -3.108,-6.214 -5.471,-8.84 -1.05,-1.095 0,-3.414 -1.663,-3.896 -0.963,1.138 -0.919,3.02 -0.35,4.333 1.269,2.714 4.683,3.414 5.602,6.303 l 0.919,5.252 c 0.263,0.656 1.05,0.831 1.576,0.7 1.444,-0.788 2.057,-2.276 3.063,-3.458 1.488,-0.219 0.963,1.751 1.663,2.539 1.97,2.363 5.427,2.057 7.047,5.033 0.787,1.269 1.225,2.976 0.744,4.508 -1.488,1.75 0.087,4.245 -1.882,5.689 -1.445,-0.044 -0.701,-1.882 -1.488,-2.626 -1.401,-3.107 -5.734,-3.238 -6.084,-6.827 -0.131,-0.788 -0.219,-1.62 -1.05,-2.013 -0.526,-0.088 -0.701,0.525 -0.832,0.831 -0.656,4.727 5.033,6.302 6.915,9.672 0.744,2.232 -0.394,4.289 -2.013,5.69 1.707,4.639 1.663,10.416 -1.576,14.399 -1.4,2.538 -2.932,5.033 -2.626,8.272 -0.525,0.393 -1.137,0.306 -1.663,0 -3.851,-4.289 -3.282,-10.898 -2.1,-16.369 0.437,-2.538 1.838,-5.208 0.831,-7.79 -0.656,-0.394 -1.007,0.438 -1.269,0.831 -0.657,4.114 -1.882,8.666 -6.171,10.504 -1.882,0.919 -4.333,1.357 -6.434,0.876 -0.35,-0.176 -0.131,-0.569 -0.175,-0.876 2.495,-0.963 5.602,-1.925 6.828,-4.814 1.969,-6.083 -0.744,-12.561 -2.626,-18.163 -0.613,-1.575 -1.226,-3.195 -2.451,-4.42 l -0.7,0 c -1.576,2.888 -4.683,4.858 -7.703,4.726 -0.788,-0.087 -1.663,-0.175 -2.188,-0.744 0.35,-1.225 1.838,-1.444 2.625,-2.494 2.101,-2.32 3.502,-5.427 2.189,-8.403 -3.195,-4.114 -2.32,-9.935 -1.445,-14.399 0.044,-0.657 -0.7,-0.394 -0.962,-0.219 -2.583,3.151 -5.909,5.208 -9.979,4.727 -0.263,-0.219 -0.656,-0.351 -0.832,-0.613 l 0.219,-0.744 c 3.414,-1.576 6.872,-5.077 6.915,-8.928 -0.919,-4.421 -2.713,-8.841 -1.269,-13.436 -0.875,-2.32 -4.201,-0.526 -5.033,-3.152 -1.4,-2.801 -0.131,-6.302 -1.882,-8.928 -0.394,-1.006 -1.357,-1.926 -1.138,-3.063 1.051,-1.27 2.889,-1.226 4.377,-0.744 4.289,1.05 5.733,5.645 6.959,9.147 0.306,0.393 0.962,0.612 1.356,0.218 2.014,-1.969 -0.962,-4.989 1.663,-6.521 1.357,-0.043 2.014,1.795 3.37,1.27 0.963,-0.526 1.926,-1.313 3.152,-0.832 0.962,1.707 3.851,-0.438 3.457,1.794 -0.656,0.526 -1.794,1.313 -1.05,2.276 0.7,0.613 1.925,0.438 2.1,1.576 0.351,2.407 -0.744,4.464 -2.275,6.215 -0.263,1.925 2.013,1.838 2.801,3.238 1.181,1.532 1.006,3.983 2.844,4.858 1.27,-1.707 -0.481,-3.457 -0.919,-5.077 -0.437,-1.356 -2.976,-1.794 -2.1,-3.457 1.313,-1.838 1.881,-4.289 1.444,-6.609 -0.044,-1.138 -2.276,-1.269 -1.138,-2.494 0.788,-0.351 1.225,-1.182 1.444,-1.926 0.044,-0.875 0.131,-1.926 -0.525,-2.801 -1.619,-1.401 -4.158,0.612 -5.558,-1.707 -2.189,-0.525 -2.626,2.582 -4.596,2.538 -0.131,-0.175 -0.175,-0.481 0,-0.656 1.62,-1.138 1.751,-3.545 3.852,-4.377 4.42,-1.838 9.847,0.132 14.18,-2.1 2.363,-0.876 4.42,-2.451 6.652,-3.677 0.307,-0.087 0.613,0.088 0.701,0.394 z"
           id="path3224"
           style="fill:#ffcc00;stroke:none" />
        <path
           d="m 251.788,248.70003 c 0.7,1.05 -0.788,1.05 -1.138,1.575 -0.656,0.919 -0.831,2.626 -2.319,2.626 -0.701,-0.131 -1.401,-0.437 -1.795,-1.138 -0.569,-1.181 0.526,-1.969 1.051,-2.844 1.138,-0.701 3.02,-0.92 4.201,-0.219 z"
           id="path3226"
           style="fill:#e21c2a;stroke:none" />
        <path
           d="m 180.887,251.45703 c 0.745,0 1.576,0.219 1.488,1.138 -0.481,2.013 -2.144,3.895 -4.114,4.639 -1.006,0.219 -1.925,-0.263 -2.319,-1.182 -0.832,-2.057 -0.7,-5.077 0.35,-7.002 1.444,-1.094 1.882,1.444 3.151,1.75 l 1.444,0.657 z"
           id="path3228"
           style="fill:#ffcc00;stroke:none" />
        <path
           d="m 330.786,249.05003 c 0,3.151 -2.495,5.558 -4.727,7.965 -4.333,3.939 -11.292,5.734 -12.911,11.992 0.306,1.794 1.444,3.282 1.444,5.208 -0.306,3.939 -1.838,7.528 -2.319,11.248 -0.088,1.663 1.444,2.757 1.269,4.333 -1.576,-0.657 -2.232,-2.451 -2.495,-4.027 -0.437,-4.726 3.37,-10.11 -0.875,-13.961 -1.532,-0.175 -2.757,1.007 -4.202,1.488 -2.1,0.919 -5.076,1.05 -7.133,-0.088 l 0,-0.525 c 2.713,-0.043 5.076,-0.875 7.265,-2.1 2.669,-2.276 -1.882,-3.37 -2.32,-5.252 -1.05,-1.838 -2.013,-4.158 -4.201,-5.077 -3.502,-1.488 -7.003,1.357 -10.504,0.219 -0.219,-0.175 -0.088,-0.613 0.219,-0.613 4.289,0.044 7.527,-4.026 12.079,-1.795 3.895,2.101 4.245,7.178 8.272,9.148 2.188,-0.307 2.407,-2.758 3.588,-4.114 3.852,-5.909 11.029,-5.209 15.012,-11.248 l 2.232,-2.801 0.307,0 z"
           id="path3230"
           style="fill:#000000;stroke:none" />
        <path
           d="m 232.488,253.42603 c 1.006,2.408 0.393,5.077 -0.657,7.266 -5.383,6.171 -13.655,5.777 -20.876,7.659 -3.02,0.962 -6.346,1.137 -9.06,2.844 -0.306,-0.306 -1.182,-0.7 -0.831,-1.269 0.437,-0.438 0.962,-0.656 1.575,-0.613 2.363,-1.75 5.252,-2.144 7.966,-2.932 5.908,-1.926 12.648,-1.751 17.462,-6.302 1.094,-1.401 1.926,-3.108 1.269,-4.946 -0.787,-1.619 -2.494,-2.319 -4.026,-2.757 -0.482,-0.394 -0.657,-1.094 -0.394,-1.663 0.875,-1.138 2.582,-0.525 3.764,-0.525 1.444,0.656 2.932,1.794 3.808,3.238 z"
           id="path3232"
           style="fill:#e21c2a;stroke:none" />
        <path
           d="m 268.288,254.82703 c 0.044,0.7 0.394,1.488 0,2.188 -0.175,0.35 -0.7,0.219 -0.963,0.088 -0.525,-0.788 -0.963,-1.882 -1.969,-2.189 -0.876,-0.35 -1.751,0.701 -2.539,-0.087 -0.525,-0.438 -1.444,-1.051 -1.05,-1.795 0.569,-0.481 1.138,-1.05 1.882,-1.05 1.926,0.044 3.72,1.094 4.639,2.845 z"
           id="path3234"
           style="fill:#e21c2a;stroke:none" />
        <path
           d="m 424.27,260.69203 0.612,0.087 c -0.131,1.794 -2.276,2.539 -3.764,2.976 -0.569,0.307 -0.744,1.138 -0.218,1.576 2.582,2.844 5.295,6.433 9.015,7.44 -0.175,0.569 -0.963,0.569 -1.444,0.831 -1.488,0.175 -2.67,-0.262 -3.983,-0.394 -0.481,0.92 1.051,1.007 1.445,1.883 2.494,2.801 2.451,6.696 3.37,10.153 -0.044,0.7 0.087,1.269 -0.088,2.013 -0.919,-0.35 -1.182,-1.575 -2.101,-2.188 -0.481,-0.525 -0.963,-0.569 -1.488,-0.219 -0.919,5.996 0.832,11.686 1.488,17.725 0.351,1.313 1.182,2.408 1.751,3.589 -1.926,0.438 -3.501,-1.356 -5.033,-2.626 -0.657,-0.175 -0.832,0.657 -1.051,1.051 -0.306,4.026 -1.75,8.534 0.438,12.298 l 0,1.05 c -2.407,0.744 -4.333,-5.295 -6.215,-1.05 -1.4,4.026 -2.494,8.622 -1.882,13.13 -0.262,1.663 3.064,3.326 0.526,4.42 -1.226,-0.175 -2.364,-0.569 -3.239,-1.488 -2.276,-2.363 -1.357,-6.171 -2.013,-9.016 -0.219,-0.35 -0.744,-0.219 -1.051,-0.131 -2.757,3.02 -4.726,6.434 -6.389,9.76 -0.92,-0.263 -0.963,-1.488 -1.27,-2.276 -0.744,-3.239 0.219,-5.996 1.27,-8.753 l -0.351,-0.307 c -2.669,3.896 -6.608,8.185 -11.729,7.878 -0.788,-0.306 -1.838,-0.131 -2.319,-0.831 2.494,-1.532 5.996,-2.583 7.352,-5.777 0.044,-0.263 -0.087,-0.482 -0.306,-0.526 -2.451,0.35 -5.515,0.263 -7.572,-1.356 -0.831,-0.832 -1.619,-1.795 -1.269,-2.933 0.7,-0.175 1.401,0.263 2.101,0.394 3.414,-0.087 6.959,-0.612 8.928,-3.545 -0.438,-1.181 -2.057,-2.319 -2.713,-3.589 -0.219,-0.744 -0.919,-1.269 -0.657,-2.188 2.363,0.263 4.202,1.751 6.521,0.306 1.838,-0.7 3.764,-1.663 5.033,-3.37 0.132,-1.75 -1.925,-2.363 -2.932,-3.37 -0.613,-0.569 -1.663,-1.137 -1.663,-2.1 0.7,-0.482 1.707,0 2.407,0 3.326,-0.569 6.565,-1.576 9.016,-4.071 0.219,-2.188 -2.539,-1.706 -3.676,-2.976 -0.701,-0.525 -1.095,-1.225 -1.138,-2.1 3.632,0 7.046,-2.32 8.622,-5.646 1.444,-3.37 1.4,-8.534 -0.657,-11.861 -3.632,-4.77 -9.103,-7.046 -13.436,-11.029 -0.832,-0.831 -1.663,-1.794 -1.138,-3.063 0.219,-0.525 0.919,-0.525 1.225,-0.219 0.832,1.181 1.27,2.757 2.758,3.37 1.225,0.481 2.232,-0.482 3.457,0 1.094,1.138 1.488,3.808 3.589,3.282 0.394,-0.262 0.525,-0.788 0.306,-1.181 -3.238,-1.226 -1.663,-5.209 -4.332,-7.047 -1.051,-1.006 -2.408,-1.4 -3.764,-1.75 -1.882,-0.482 -3.458,2.232 -5.165,0.831 0.088,-2.451 2.32,-4.508 4.421,-5.383 8.534,-2.32 11.773,10.854 20.395,8.316 z"
           id="path3236"
           style="fill:#ffffff;stroke:none" />
        <path
           d="m 261.986,256.70903 c 0.744,0.481 0.35,1.575 0.306,2.319 -0.219,2.451 -5.296,1.445 -2.932,4.508 0,1.97 -2.232,3.02 -2.32,4.946 0.219,0.175 0.613,0.306 0.832,0.087 1.75,-1.969 3.982,-4.07 6.608,-3.151 1.27,1.182 -0.087,2.801 -0.394,4.114 0.044,1.313 1.226,2.714 -0.131,3.764 -1.357,0.35 -2.845,-1.663 -3.676,0 -0.219,1.488 0.306,3.589 -1.663,4.07 -1.313,0.701 -2.495,-0.919 -3.458,0.132 0.7,1.488 2.451,2.582 2.845,4.201 0.657,2.232 -0.569,4.464 1.05,6.302 0.526,0.657 1.576,0.876 1.751,1.664 -2.013,1.269 -3.676,-0.876 -5.427,-1.576 0.044,1.532 1.357,2.801 1.751,4.333 0.262,1.969 1.138,3.413 0.656,5.558 l -0.656,0 c -0.963,-1.532 -1.663,-4.026 -3.852,-4.201 -0.744,0.043 -1.4,0.481 -1.794,1.137 0.131,2.364 0.219,4.771 -0.219,7.134 0.35,1.838 1.663,3.283 2.626,4.858 -0.481,0.394 -1.269,0.175 -1.794,0 -3.458,-1.838 -6.434,-5.208 -7.222,-8.928 -0.306,-0.263 -0.394,-0.963 -0.963,-0.832 -0.525,1.051 -0.481,2.539 -1.882,3.02 -2.932,1.926 -6.477,2.451 -9.978,2.014 -0.525,-0.351 -0.35,-1.182 -0.088,-1.576 5.777,-7.615 15.493,-13.743 14.881,-24.071 l 0.131,-7.353 c 4.333,-4.333 5.558,-9.978 8.184,-15.012 0.525,-0.7 1.226,-1.006 1.97,-1.138 2.013,0.482 2.976,2.845 4.858,3.677 z"
           id="path3238"
           style="fill:#ffcc00;stroke:none" />
        <path
           d="m 248.243,254.82703 c 0.7,-0.175 1.532,0.175 2.188,0.525 0.438,0.482 0.701,1.182 0.438,1.882 -0.569,1.225 -3.151,1.269 -2.232,3.02 0.438,0.613 0.7,1.444 0.438,2.232 -0.394,1.007 -1.62,1.138 -2.407,0.744 -1.97,-1.926 -3.108,-4.158 -4.202,-6.434 -0.175,-0.919 -0.306,-2.144 0.525,-2.844 1.838,-0.963 3.414,1.356 5.252,0.875 z"
           id="path3240"
           style="fill:#ffcc00;stroke:none" />
        <path
           d="m 362.822,258.37203 c 1.182,7.615 3.808,14.618 8.928,20.57 l 0.745,0.525 c 0.656,-1.006 -0.438,-2.232 0.087,-3.457 0.438,-0.613 0.7,-1.27 1.488,-1.576 1.576,0.175 0.788,2.232 1.444,3.282 1.182,3.677 6.04,6.609 3.808,10.898 -0.744,0.7 -1.619,1.269 -2.538,1.182 -1.226,0.438 -2.714,-1.401 -3.239,0.175 1.838,2.582 3.326,5.952 2.101,9.147 -0.876,2.188 -2.451,4.201 -4.202,5.908 0.394,1.882 3.107,1.27 3.545,3.327 1.094,4.858 0.788,9.584 1.882,14.311 1.094,3.282 4.683,4.683 7.353,6.083 2.538,3.327 7.002,3.764 10.504,2.845 1.488,-0.087 2.582,-2.013 4.026,-1.269 1.225,2.845 2.363,5.777 4.727,8.184 0.306,0.044 0.612,0.394 0.919,0.132 0.788,-1.663 0.087,-3.983 1.269,-5.471 0.394,-0.744 1.007,-1.226 1.663,-1.795 2.101,0.175 2.495,2.583 4.114,3.589 2.145,1.882 5.427,1.795 7.966,1.138 1.269,-1.707 -2.057,-2.67 -1.051,-4.639 3.02,-2.714 7.834,-1.532 11.467,-3.02 7.484,-3.151 6.258,-11.685 6.915,-18.382 0.437,-2.144 3.195,-2.45 3.807,-4.332 -2.013,-0.919 -3.72,-2.845 -4.332,-4.902 -0.307,-2.714 0.306,-5.515 2.319,-7.484 -0.219,-1.357 -1.75,-0.394 -2.494,-0.832 -0.657,-0.306 -1.532,-0.788 -1.707,-1.575 -1.094,-6.784 4.989,-11.117 6.083,-17.244 0.219,-1.138 -0.831,-1.926 -0.306,-3.107 1.882,-0.175 3.151,2.1 4.201,3.326 1.576,-0.132 2.32,-1.926 3.458,-2.932 2.363,-3.283 4.814,-6.697 4.858,-10.811 0.087,-0.525 0.831,-0.306 1.138,-0.218 3.72,5.339 0.394,11.554 -1.576,16.587 -0.394,1.663 -1.794,3.063 -1.575,4.858 1.138,0.525 2.582,-0.088 3.807,-0.35 2.889,-0.657 5.383,-2.364 7.747,-4.377 0.7,-0.306 0.919,0.481 0.963,0.919 -0.438,4.07 -2.407,8.272 -6.434,10.416 -3.063,1.664 -6.083,3.37 -9.847,3.37 -0.263,0.219 -0.788,0.263 -0.744,0.701 1.313,2.363 4.551,1.094 5.996,3.37 2.888,4.157 5.821,8.359 8.709,12.517 0.219,1.225 0.131,2.582 -0.744,3.457 -3.282,2.013 -7.09,-0.306 -9.979,-2.101 -0.7,-0.437 -1.488,0.219 -1.444,0.963 2.32,11.029 6.171,21.446 11.642,31.162 0.044,0.393 -0.044,0.787 -0.438,0.875 -5.864,0.044 -9.847,-4.858 -13.961,-8.622 -0.613,-0.481 -1.313,0.306 -1.357,0.832 1.62,7.221 4.333,14.048 7.134,20.788 1.838,4.027 4.464,7.703 7.878,11.029 0.219,0.175 0.087,0.482 0.131,0.744 -1.138,1.182 -3.02,0.788 -4.552,0.744 -8.315,-0.656 -13.611,-9.453 -17.637,-15.755 -0.307,-0.307 -0.569,-0.7 -1.051,-0.525 l -0.393,0.831 c 2.844,15.449 8.665,29.717 17.112,42.847 1.532,1.838 3.239,3.632 5.121,5.033 0.262,0.613 -0.438,0.656 -0.701,0.744 -10.503,0.131 -17.812,-9.979 -22.802,-17.944 -3.413,-6.477 -6.565,-13.086 -8.184,-20.264 -0.087,-1.006 0.35,-1.925 1.226,-2.319 0.962,-0.175 1.663,0.175 2.319,0.744 3.983,7.09 6.39,14.88 10.198,22.058 0.262,0.35 0.262,1.05 0.831,1.138 l 0.219,-0.438 c -2.713,-7.484 -5.952,-14.749 -8.184,-22.452 0.175,-3.983 0.7,-8.097 -0.832,-11.773 -0.175,-0.087 -0.262,-0.438 -0.525,-0.306 l -0.438,1.05 c 0.175,2.495 0.613,4.946 0,7.221 -0.393,0.526 -1.181,1.226 -1.882,0.657 -1.925,-1.488 -2.582,-3.895 -4.332,-5.383 -0.526,-0.132 -0.482,0.481 -0.613,0.744 0.044,2.276 1.707,5.777 -1.138,7.352 -0.832,0.394 -1.969,0.263 -2.757,-0.218 -0.613,-0.394 -0.788,-1.27 -1.576,-1.357 -0.613,0.438 -0.131,1.182 0,1.707 0.876,2.057 3.633,1.269 4.114,3.457 1.313,9.016 -2.407,17.157 -4.114,25.735 -3.326,12.779 -5.208,25.778 -5.12,39.17 0.744,4.639 1.356,10.46 6.477,13.042 0.263,0.175 0.394,0.482 0.35,0.832 -2.889,1.094 -6.127,0 -8.403,-1.882 -2.057,0.262 -0.919,2.757 -1.401,4.201 0.351,11.467 -2.188,23.897 6.653,32.124 2.276,2.626 5.339,4.465 8.49,4.114 0.832,0.263 0.219,1.182 0.088,1.664 -1.619,2.494 -4.508,3.939 -7.353,3.588 -2.319,-0.394 -4.77,-1.269 -6.608,-3.151 -0.526,-0.437 -1.007,0.219 -1.27,0.613 -0.831,8.228 3.589,16.937 11.555,20.789 2.976,1.357 6.521,2.538 9.891,1.575 0.525,-0.131 0.831,0.307 0.831,0.744 -0.437,2.451 -2.232,4.639 -4.508,5.778 -3.107,1.006 -7.659,1.4 -10.503,-0.745 l -5.996,-4.289 c -0.438,-0.262 -0.963,0.044 -1.138,0.526 0.044,2.844 1.138,5.514 0.744,8.709 -0.963,4.945 -2.845,9.541 -5.909,13.655 -0.525,0.525 -1.313,1.05 -1.969,0.525 -4.464,-5.164 -7.615,-11.685 -6.215,-18.688 0.263,-0.525 0,-1.138 -0.219,-1.576 l -0.306,-0.131 c -2.188,1.269 -4.595,2.057 -7.046,2.758 -5.033,0.437 -10.767,-0.132 -13.743,-4.858 -0.613,-0.745 -0.437,-1.97 -0.306,-2.933 l 0.394,-0.219 c 6.171,2.801 13.436,-0.087 18.294,-4.595 4.508,-4.814 6.39,-10.985 6.521,-17.331 0,-0.482 -0.175,-0.963 -0.657,-1.182 -1.663,0.394 -2.844,1.926 -4.42,2.538 -2.976,1.007 -7.221,1.795 -9.978,-0.306 -1.401,-1.225 -2.451,-2.67 -2.276,-4.42 0.875,-0.569 1.706,0.131 2.626,0.218 5.033,0.088 9.628,-2.801 11.948,-7.265 6.127,-9.103 4.07,-20.832 4.201,-32.036 -0.131,-0.263 -0.437,-0.613 -0.744,-0.744 -1.488,0.262 -2.67,1.313 -4.07,1.794 -1.794,0.175 -3.501,1.094 -5.164,0 -0.132,-1.751 2.232,-2.451 2.932,-3.983 2.888,-5.777 2.626,-12.035 3.501,-18.294 0.657,-15.93 -3.239,-31.117 -5.996,-46.391 -0.744,-4.421 -0.744,-9.148 1.97,-13.043 l 0,-0.612 c -1.926,-0.175 -1.838,2.932 -3.983,2.801 -0.875,0.043 -1.488,-0.701 -1.794,-1.445 -0.526,-1.444 0.7,-3.063 -0.613,-4.333 -0.919,-0.35 -1.007,0.744 -1.357,1.182 -0.131,1.97 1.182,4.421 0.088,6.521 -4.596,9.147 -10.11,18.032 -17.55,25.91 -3.939,2.801 -7.528,7.046 -12.474,6.74 -0.525,-0.482 -0.394,-1.445 -0.131,-2.014 6.915,-11.685 13.217,-23.633 15.668,-37.157 -0.044,-1.532 0.657,-3.063 -0.437,-4.42 l -0.832,0.087 c -4.946,5.384 -10.154,12.124 -17.55,12.211 -0.306,-0.438 -0.306,-1.269 0,-1.707 5.033,-7.002 8.447,-14.661 11.248,-22.583 1.444,-4.552 2.888,-9.541 2.013,-14.705 -0.219,-0.263 -0.7,-0.263 -0.963,-0.088 -4.158,4.814 -8.753,11.16 -15.537,10.416 -0.744,-0.393 -0.35,-1.269 0,-1.707 4.727,-6.914 7.353,-14.661 9.891,-22.451 0.525,-3.064 2.145,-6.697 0.613,-9.585 l -0.306,0 c -3.414,4.289 -8.316,5.689 -13.655,5.252 -0.35,-0.132 -0.219,-0.613 -0.132,-0.832 6.872,-3.107 9.892,-10.372 13.787,-15.974 0.875,-0.919 1.838,-2.407 3.37,-1.663 1.05,0.131 2.1,1.663 3.151,0.612 -0.263,-1.4 -1.926,-1.575 -2.976,-2.188 -5.252,-2.845 -12.999,-6.959 -13.524,-13.874 l 0.306,-1.794 c 1.532,0.087 2.408,1.794 3.677,2.538 2.888,1.488 5.908,3.064 9.147,3.458 0.481,-0.788 -0.482,-1.488 -0.744,-2.189 -3.589,-5.645 -6.302,-14.267 -1.663,-20.263 0.525,-0.088 0.787,0.525 0.831,0.919 z"
           id="path3242"
           style="fill:#ffffff;stroke:none" />
        <path
           d="m 402.956,267.30003 c 0.306,0.482 0.787,0.875 0.612,1.576 -1.138,0.919 -2.582,1.05 -3.982,1.269 -2.845,0 -4.508,-2.845 -7.353,-2.713 -1.882,-0.176 -4.158,2.407 -5.383,0 0.35,-2.276 2.144,-3.764 3.895,-5.384 1.4,-1.05 2.845,-1.707 4.639,-1.269 2.801,1.882 4.42,5.164 7.572,6.521 z"
           id="path3244"
           style="fill:#e21c2a;stroke:none" />
        <path
           d="m 205.484,261.43503 c 0.219,0.876 -0.525,1.357 -0.963,1.97 -0.656,0.175 -0.875,-0.656 -1.138,-1.05 -0.044,-0.526 -0.087,-1.226 0.613,-1.226 0.525,0.088 1.182,-0.262 1.488,0.306 z"
           id="path3246"
           style="fill:#ffffff;stroke:none" />
        <path
           d="m 362.91,266.16203 c 1.532,4.377 3.545,8.578 6.302,12.474 l -0.087,0.962 c -1.313,-0.043 -1.926,-1.706 -2.758,-2.626 -1.75,-3.238 -3.151,-6.652 -3.851,-10.284 0.175,-0.176 -0.044,-0.657 0.394,-0.526 z"
           id="path3248"
           style="fill:#2c2c2b;stroke:none" />
        <path
           d="m 271.308,269.92603 c 0.306,1.182 0.437,2.801 -0.088,3.895 -1.225,0.525 -1.356,-1.181 -2.188,-1.663 -0.963,-0.525 -2.145,-1.006 -2.757,-1.926 -0.175,-0.962 0.219,-1.794 0.963,-2.275 1.663,-0.657 3.457,0.394 4.07,1.969 z"
           id="path3250"
           style="fill:#e21c2a;stroke:none" />
        <path
           d="m 450.617,272.77103 c -2.364,4.026 -6.39,8.315 -10.723,10.066 -0.481,0.088 -0.613,-0.481 -0.394,-0.831 3.851,-2.758 7.572,-5.821 11.117,-9.235 z"
           id="path3252"
           style="fill:#2c2c2b;stroke:none" />
        <path
           d="m 409.958,275.39703 c 0.219,0.394 0.088,0.919 0.131,1.357 -1.181,1.444 -2.275,-0.438 -3.457,-0.438 -5.077,0 -8.928,2.845 -14.005,2.845 0.175,-0.525 1.313,0.219 1.182,-0.613 l -1.707,-0.525 c 4.464,-1.357 8.359,-3.983 12.954,-5.033 2.057,-0.263 4.027,0.612 4.902,2.407 z"
           id="path3254"
           style="fill:#e21c2a;stroke:none" />
        <path
           d="m 209.029,277.80403 c -0.088,0.657 -0.832,0.7 -1.226,1.05 -0.656,0.219 -0.744,-0.525 -0.962,-0.831 -0.088,-0.569 -0.132,-1.182 0.437,-1.488 0.613,0.35 1.62,0.437 1.751,1.269 z"
           id="path3256"
           style="fill:#ffffff;stroke:none" />
        <path
           d="m 423,278.32903 c 0.175,0.919 0.438,2.188 -0.087,3.064 -0.263,0.306 -0.788,0.219 -1.051,0.087 -0.569,-1.575 0.132,-2.757 0.175,-4.289 0.744,-0.087 0.701,0.744 0.963,1.138 z"
           id="path3258"
           style="fill:#2c2c2b;stroke:none" />
        <path
           d="m 205.265,279.38003 c -0.481,0.437 -1.182,0.525 -1.794,0.306 -0.525,-0.35 -0.35,-1.138 -0.088,-1.576 0.175,-0.35 0.35,-0.525 0.744,-0.744 0.613,0.307 1.094,1.226 1.138,2.014 z"
           id="path3260"
           style="fill:#ffffff;stroke:none" />
        <path
           d="m 355.163,278.63603 c 4.508,3.413 9.454,5.82 14.793,7.265 0.263,0.219 0.35,0.481 0.306,0.831 -0.481,0.744 -1.356,0.788 -1.969,0.613 -4.989,-1.926 -9.716,-4.333 -13.874,-8.184 l 0,-0.613 0.744,0.088 z"
           id="path3262"
           style="fill:#2c2c2b;stroke:none" />
        <path
           d="m 414.291,279.46703 c 0.044,0.875 0.044,1.97 -0.832,2.539 -1.882,1.619 -4.683,0.525 -6.74,0.087 -0.087,-0.438 -0.481,-0.875 -0.218,-1.357 2.188,-0.7 4.201,-2.188 6.521,-2.188 0.481,0.219 1.138,0.306 1.269,0.919 z"
           id="path3264"
           style="fill:#e21c2a;stroke:none" />
        <path
           d="m 288.026,279.59803 c -1.4,3.414 -3.588,6.784 -3.151,10.723 -0.656,12.911 13.349,19.738 22.583,25.078 1.532,0.569 2.977,1.663 4.727,1.357 1.357,-1.445 0.832,-3.808 1.269,-5.559 1.269,-5.864 6.915,-11.466 12.911,-12.385 3.808,-0.613 7.703,0.612 10.285,3.676 1.751,2.013 2.933,4.814 2.101,7.353 -0.481,1.05 -1.05,2.1 -1.882,3.063 -0.569,0.088 -0.481,-0.525 -0.613,-0.875 1.313,-1.619 1.488,-3.633 0.613,-5.558 -1.663,-3.327 -5.164,-5.208 -8.622,-5.121 -3.239,0.175 -6.521,1.269 -8.49,4.289 -1.882,2.451 -3.37,5.777 -2.014,8.928 2.189,5.777 8.491,6.521 12.736,9.76 -0.044,1.663 -0.569,3.545 -2.013,4.508 -1.094,-1.313 0.175,-3.983 -1.882,-4.814 -0.569,-0.132 -1.007,0.175 -1.269,0.525 -0.35,-0.481 -0.263,-1.357 -1.051,-1.488 -1.4,-0.569 -2.057,3.151 -2.932,0.744 -0.087,-1.007 0.306,-2.32 -0.744,-2.845 -1.357,0.088 -1.269,2.101 -2.713,2.101 -0.788,-0.832 -0.088,-2.67 -1.795,-2.714 -1.05,-0.087 -1.225,1.401 -2.319,0.832 -1.138,-0.744 -2.407,-1.751 -3.895,-1.05 -3.152,2.013 -5.559,5.12 -6.084,8.709 -0.569,0.744 -1.444,1.794 -2.407,1.05 -1.444,-1.313 -0.394,-3.457 -0.131,-5.033 0.787,-2.669 1.838,-5.295 3.37,-7.659 0.131,-0.875 -0.744,-1.488 -1.357,-2.013 -1.138,-0.525 -3.151,1.269 -3.764,-0.7 0.175,-2.757 -2.451,-0.307 -3.37,-1.926 -0.175,-0.831 0,-1.882 -0.963,-2.276 -0.919,-0.262 -2.276,0.613 -2.845,-0.656 -0.131,-0.788 0.044,-1.926 -1.05,-2.188 -0.919,-0.044 -1.882,-0.176 -2.407,-1.051 0.044,-0.963 0.175,-2.232 -1.05,-2.407 -0.876,-0.263 -1.839,-0.875 -2.32,-1.794 0.263,-1.051 0.613,-2.32 -0.525,-3.064 -0.525,-0.394 -1.226,-0.788 -1.445,-1.444 -0.35,-0.919 1.051,-1.226 0.394,-2.101 -0.919,-0.919 -2.013,-1.838 -1.575,-3.151 0.569,-0.613 1.05,-1.532 0.525,-2.32 l -0.613,-1.269 c 1.445,-3.37 1.926,-7.134 4.946,-9.891 0.438,-0.131 0.875,0.219 0.831,0.656 z"
           id="path3266"
           style="fill:#009240;stroke:none" />
        <path
           d="m 458.276,282.53103 c -0.963,1.356 -2.714,1.838 -4.071,2.713 -3.763,1.882 -8.271,2.495 -12.385,2.757 -0.307,-0.262 -0.744,-0.35 -0.876,-0.744 0,-0.481 0.526,-0.525 0.876,-0.612 5.777,0.043 11.204,-1.313 15.843,-4.333 0.219,0.044 0.481,-0.044 0.613,0.219 z"
           id="path3268"
           style="fill:#2c2c2b;stroke:none" />
        <path
           d="m 350.962,291.98403 c 2.188,0.744 5.164,-0.087 7.352,0.307 0.438,0.568 0.044,1.356 -0.218,1.881 -2.67,4.727 -6.128,10.285 -11.336,12.824 -0.613,0.219 -0.788,-0.482 -0.875,-0.832 0.131,-6.083 -0.263,-11.685 0.35,-17.418 1.707,0.831 2.888,2.625 4.727,3.238 z"
           id="path3270"
           style="fill:#009dd5;stroke:none" />
        <path
           d="m 422.475,290.84603 c -0.263,1.182 -0.569,2.451 -1.794,3.151 -0.613,0.132 -1.226,-0.393 -1.269,-0.962 0,-0.744 0.35,-1.62 1.181,-1.795 0.876,0.438 1.488,-1.926 1.882,-0.394 z"
           id="path3272"
           style="fill:#2c2c2b;stroke:none" />
        <path
           d="m 364.091,294.30403 c -1.006,2.844 -3.194,5.164 -4.945,7.659 -0.657,0.7 -1.357,1.794 -2.32,2.013 -0.437,-0.613 0.307,-1.007 0.438,-1.488 1.926,-2.538 3.545,-5.208 5.252,-7.878 0.394,-0.35 1.181,-1.006 1.575,-0.306 z"
           id="path3274"
           style="fill:#2c2c2b;stroke:none" />
        <path
           d="m 452.717,303.84503 c 1.182,1.575 3.283,2.451 3.677,4.332 -0.263,0.176 -0.701,0.132 -0.919,-0.131 l -4.421,-3.37 c -2.319,-0.219 -4.945,0.132 -6.433,-2.101 l 0,-0.525 c 1.663,-0.087 2.976,2.364 4.726,0.963 0.788,-0.875 0.394,-1.969 -0.175,-2.845 l -3.807,-4.508 c 0.044,-0.218 -0.088,-0.481 0.219,-0.525 3.763,1.576 4.901,5.734 7.133,8.71 z"
           id="path3276"
           style="fill:#2c2c2b;stroke:none" />
        <path
           d="m 218.614,298.89903 c 1.05,-0.044 1.794,0.525 2.932,0.35 0.175,0.175 0.044,0.482 0.088,0.701 -1.489,1.269 -3.633,1.269 -4.902,2.844 -0.175,0.744 0.569,0.832 1.05,1.051 8.009,-2.145 16.937,3.151 24.159,-1.663 0.35,-0.088 0.569,0.131 0.613,0.393 -1.095,2.889 -4.421,4.114 -7.134,4.552 -1.401,0.088 -3.414,-0.219 -4.202,1.357 0.219,1.663 2.057,3.676 0.744,5.033 -3.151,-1.838 -7.484,-0.525 -10.416,-3.151 -1.313,-0.569 -2.495,-1.97 -3.983,-1.795 -1.181,2.101 -0.394,5.996 -3.588,6.215 -1.751,-2.407 -4.202,-4.201 -6.828,-4.945 -1.488,-1.576 -1.094,-4.158 -2.495,-5.865 0.175,-0.306 -0.087,-1.138 0.613,-1.269 3.282,-1.007 2.757,4.245 5.996,3.02 2.582,-2.232 2.145,-5.602 1.576,-8.71 0.131,-0.306 0.306,-0.481 0.612,-0.612 1.926,0.306 3.239,2.188 5.165,2.494 z"
           id="path3278"
           style="fill:#ffcc00;stroke:none" />
        <path
           d="m 416.392,300.91203 c 0.656,0.175 1.444,-0.612 1.882,0.088 -0.088,1.094 -0.919,1.75 -1.795,2.319 -0.744,0.263 -1.619,0.044 -1.969,-0.612 -0.394,-1.007 -0.263,-2.013 0.394,-2.757 0.656,-0.132 0.919,0.744 1.488,0.962 z"
           id="path3280"
           style="fill:#2c2c2b;stroke:none" />
        <path
           d="m 169.246,303.01303 c -0.044,2.626 -0.876,5.208 -0.132,7.878 2.451,11.51 10.373,20.701 13.787,31.818 3.982,11.029 5.952,23.633 1.138,34.794 -3.152,6.958 -7.572,13.392 -10.198,20.57 -2.757,7.746 -6.171,18.075 -1.05,25.821 2.626,3.414 6.433,5.821 10.722,4.64 2.933,-0.744 5.559,-3.633 6.215,-6.522 0.482,-6.083 -3.457,-11.16 -2.319,-17.112 2.232,-11.817 7.965,-22.671 10.941,-34.444 2.495,-8.534 -3.764,-15.274 -4.858,-23.239 -0.263,-2.364 0.306,-4.946 1.882,-6.696 0.613,-0.263 0.656,0.437 0.744,0.744 -1.182,4.682 -0.481,10.547 3.676,13.83 1.007,0.525 2.145,0.481 3.152,0 2.319,-1.576 0.831,-3.939 2.013,-6.171 1.488,-4.727 7.09,-3.108 9.672,-7.047 0.656,-0.525 1.138,-1.488 1.969,-1.575 1.226,2.319 0.657,5.164 1.357,7.571 0.525,4.289 1.795,8.535 5.909,11.029 1.75,0.744 3.457,1.313 5.252,0.219 1.925,-2.363 -1.489,-4.026 -1.576,-6.302 -0.088,-1.182 0,-2.32 0.744,-3.151 1.576,-1.488 3.457,-2.145 5.121,-3.37 0.831,0.043 0.875,0.962 1.269,1.444 0.7,4.026 5.821,6.127 6.083,10.329 0.263,3.457 1.138,7.177 4.421,9.234 4.901,1.444 8.884,6.171 10.285,10.898 1.663,1.969 3.763,3.589 6.214,3.501 1.751,0.132 3.283,-2.188 4.815,-0.437 0.612,1.969 -2.495,2.932 -1.489,4.945 0.438,1.401 2.408,2.67 1.051,4.289 -1.882,1.05 -4.158,-0.044 -5.865,-1.05 -1.663,-1.269 -3.02,-2.889 -4.508,-4.289 -0.393,-0.044 -0.744,0.219 -0.744,0.612 0.219,5.033 7.834,5.953 6.915,11.467 -0.175,0.569 -0.744,1.225 -1.356,1.444 -1.97,0.832 -2.714,-1.882 -4.727,-1.356 -0.875,0 -1.663,0.043 -2.495,-0.394 -1.006,-1.532 0.35,-3.108 1.138,-4.421 -0.175,-0.393 -0.394,-0.831 -0.831,-0.963 -0.744,-0.131 -1.27,0.219 -2.014,0.132 -1.356,-1.269 1.007,-3.02 -0.831,-4.027 -0.963,-0.087 -2.407,0.263 -3.239,-0.525 -1.444,-1.75 1.007,-3.983 -0.831,-5.427 -2.145,0.569 -2.232,3.064 -3.896,4.377 -1.225,1.138 -2.932,1.838 -4.507,1.05 0.262,-0.569 1.05,-0.963 1.575,-1.444 1.313,-2.32 2.363,-5.165 1.226,-7.79 -0.307,-0.35 -0.876,-0.526 -1.357,-0.307 -0.744,0.525 -0.569,2.145 -1.882,1.488 -1.794,-2.188 -0.131,-5.339 -0.963,-7.703 -0.219,-0.218 -0.613,-0.437 -0.919,-0.175 -1.488,2.101 -1.357,4.858 -2.932,6.915 -1.357,1.62 -3.108,3.808 -5.252,3.239 -0.438,-0.262 -0.132,-0.875 0.087,-1.225 1.838,-2.626 2.976,-6.303 1.576,-9.454 -1.576,-2.057 -1.269,-4.858 -2.407,-7.046 -0.701,-0.044 -1.094,0.744 -1.357,1.269 -0.919,3.107 -3.633,6.521 -7.046,7.003 -2.101,-0.35 -0.394,-2.758 -1.051,-4.202 -0.569,-4.552 -6.652,-6.827 -7.352,-11.335 0,-1.663 2.363,-3.108 1.05,-4.596 -1.444,0.307 -2.363,1.97 -2.845,3.239 -1.357,6.696 8.929,9.366 7.265,16.193 -0.043,1.007 0.263,2.364 1.445,2.801 3.37,0.832 5.47,-1.969 8.009,-3.545 0.744,-0.043 1.444,0 1.969,0.526 1.751,2.713 0.482,5.733 -0.919,8.271 -10.504,11.642 -18.206,24.947 -18.382,40.352 0.307,6.346 4.114,11.292 8.272,16.062 2.889,3.283 2.014,8.272 1.576,12.386 0.087,2.976 1.357,5.471 2.538,8.009 0,0.438 -0.394,0.613 -0.744,0.744 -2.013,-0.131 -3.764,-1.619 -4.726,-3.37 -2.276,-4.289 -0.92,-10.328 -5.778,-13.261 -0.437,-0.131 -1.094,0 -1.269,0.526 l 0,1.4 c 4.464,8.053 6.521,17.988 3.895,27.31 -2.451,9.278 -8.928,21.095 -0.962,29.892 5.076,6.04 13.917,4.07 17.987,11.467 1.795,3.982 5.996,7.702 10.373,7.79 1.75,0.044 3.939,0.044 4.858,1.97 0.525,2.056 -2.364,2.188 -2.757,3.895 -0.175,1.356 -0.219,2.976 -1.751,3.588 -1.313,0.351 -2.495,-0.131 -3.501,-0.744 -1.882,-1.488 -1.357,-4.332 -3.677,-5.251 -0.831,0 -1.575,-0.307 -2.188,-0.832 -0.656,-0.7 -0.569,-1.882 -1.663,-2.232 -0.7,0.044 -1.05,0.7 -1.182,1.269 0.525,3.545 5.821,5.777 3.677,9.76 -0.788,0.744 -1.926,0.963 -2.933,0.831 -2.188,-0.962 -3.151,-4.858 -5.864,-3.763 -1.051,0.393 -2.626,1.138 -3.589,0.087 -0.657,-0.438 -0.482,-1.488 -0.219,-2.101 0.088,-1.925 4.508,-1.444 2.101,-3.457 -1.357,0.131 -2.67,0.744 -3.983,0.131 -2.495,-1.4 0.525,-4.376 -1.794,-5.602 -2.539,0.219 -0.482,4.377 -3.458,3.676 -1.269,-1.444 -3.02,-0.7 -4.639,-0.831 -0.657,-0.263 -0.744,-0.963 -0.832,-1.576 0.088,-2.1 0.175,-4.157 0.745,-6.083 -0.044,-0.482 -0.438,-1.007 -0.963,-0.613 -1.576,1.269 -3.02,2.933 -4.902,3.458 -0.394,-0.088 -0.832,-0.219 -0.963,-0.657 0.131,-2.888 1.182,-5.427 -0.088,-8.184 -0.437,-2.276 1.051,-4.639 -1.181,-6.083 -1.007,-0.263 -1.707,0.35 -2.32,1.05 -1.619,1.926 -0.875,4.727 -1.663,6.74 -1.575,-0.394 -1.663,-2.32 -2.188,-3.589 -0.832,-3.851 1.181,-7.309 2.407,-10.723 0.087,-0.525 -0.569,-0.744 -0.963,-0.525 -3.589,1.707 -4.945,5.427 -5.471,8.928 -0.656,0.175 -0.875,-0.656 -1.138,-1.05 -1.181,-3.151 -0.656,-7.046 1.138,-9.847 0.044,-0.438 0.044,-0.919 -0.394,-1.051 -1.75,0.657 -3.676,1.795 -5.558,1.051 -0.656,-0.482 -1.838,-0.744 -1.794,-1.795 3.326,-0.35 6.74,-2.757 7.965,-5.996 0.525,-1.488 1.226,-3.238 0.657,-4.945 -0.438,-0.788 -1.445,-1.226 -2.101,-0.919 -2.582,1.488 -6.084,1.75 -8.535,-0.219 -0.962,-0.832 -1.881,-1.926 -1.575,-3.064 1.575,0.175 3.02,0.963 4.508,0.963 2.845,-0.262 4.989,-3.02 5.689,-5.558 3.895,-9.103 -2.626,-17.681 0.307,-26.916 0.525,-2.013 2.013,-3.589 2.232,-5.777 -0.263,-0.307 -0.919,-0.307 -1.182,0 -3.983,3.676 -9.803,4.158 -14.486,2.013 -8.272,-4.289 -9.891,-13.786 -9.148,-22.058 0.394,-5.952 1.926,-12.298 3.589,-18.382 0.613,-5.12 0.744,-10.722 -3.37,-14.399 -0.525,-0.612 -1.488,-1.181 -1.269,-1.969 1.97,-1.269 4.596,-0.35 6.302,0.832 1.226,0.744 2.101,2.232 3.458,2.494 1.007,-1.225 -0.438,-2.538 -0.832,-3.764 -2.888,-5.252 -9.891,-9.453 -7.659,-16.193 0.132,-0.263 0.394,-0.175 0.613,-0.175 1.357,3.895 5.252,7.046 8.753,9.103 1.313,1.182 1.882,2.67 3.02,3.895 0.7,0.132 1.007,-0.656 1.182,-1.138 -0.263,-11.598 -13.48,-19.038 -9.804,-31.117 0.175,-0.219 0.569,-0.525 0.744,-0.088 1.094,1.926 1.094,4.289 1.795,6.39 2.1,5.952 10.416,8.184 10.504,14.924 0.131,0.175 0.393,0.307 0.525,0.132 1.269,-1.795 0.656,-4.771 0.525,-6.74 -1.619,-12.036 -5.471,-23.415 -13.655,-32.868 -2.232,-2.233 -4.639,-4.027 -7.353,-5.033 -0.306,-0.745 0.438,-1.314 1.051,-1.489 1.663,-0.787 3.763,0.832 4.814,-1.05 -0.963,-4.377 -3.108,-8.884 -0.613,-13.217 0.569,-1.138 1.007,-2.626 2.32,-3.064 z"
           id="path3282"
           style="fill:#ffcc00;stroke:none" />
        <path
           d="m 248.024,308.04603 c -0.043,0.7 0.219,1.62 -0.656,1.882 -1.882,0.175 -3.808,-1.225 -5.033,-2.801 -0.307,-0.963 0.437,-1.751 1.05,-2.451 0.657,-0.437 1.313,-0.919 2.101,-1.05 1.619,0.788 2.013,2.845 2.538,4.42 z"
           id="path3284"
           style="fill:#ffcc00;stroke:none" />
        <path
           d="m 334.024,308.04603 c 0.219,1.182 0.131,2.101 -0.306,3.151 -0.482,0.394 -0.963,1.051 -1.663,0.657 -1.051,-1.313 -0.35,-2.889 0.175,-4.202 0.262,-1.4 2.013,-0.569 1.794,0.394 z"
           id="path3286"
           style="fill:#ecebeb;stroke:none" />
        <path
           d="m 408.82,309.31503 1.576,-0.306 c 0.306,1.182 -1.094,1.838 -1.882,2.495 -0.525,0.087 -0.876,0.131 -1.269,-0.175 -0.526,-0.876 -0.394,-1.62 -0.088,-2.626 0.175,-0.35 0.481,-0.35 0.832,-0.35 0.175,0.393 0.437,0.787 0.831,0.962 z"
           id="path3288"
           style="fill:#2c2c2b;stroke:none" />
        <path
           d="m 261.242,313.29803 0.744,0.131 c 0.175,1.226 -1.007,2.145 -1.882,3.02 -2.364,2.276 -5.208,3.283 -8.316,3.677 -0.788,0.35 -1.05,1.269 -0.525,1.882 3.545,5.164 8.884,8.14 14.618,8.534 0.438,0.131 0.306,0.788 0.175,1.138 -4.245,2.67 -9.41,1.882 -13.524,-0.525 -0.175,0.175 -0.525,0.131 -0.525,0.437 1.138,2.057 3.064,3.764 3.764,5.996 1.357,5.996 1.663,13.13 7.878,16.894 0.437,0.262 0.525,0.788 0.306,1.138 -5.383,0.788 -10.154,-3.064 -13.217,-7.528 -2.889,-4.42 -2.845,-10.11 -7.046,-13.874 -0.92,-0.394 -1.226,0.525 -1.357,1.138 0.744,3.458 2.144,7.703 0.831,11.335 0.175,3.195 1.532,6.128 3.37,8.754 -0.131,0.7 -1.05,0.35 -1.663,0.306 -6.39,-2.889 -9.234,-9.585 -10.11,-15.756 -0.7,-1.838 -0.044,-4.464 -2.188,-5.558 -0.35,0 -0.613,0.35 -0.744,0.613 1.182,3.282 1.751,7.878 -1.05,10.591 -0.613,0.613 -1.357,1.225 -2.189,0.963 l -0.219,-0.306 c 0.788,-2.977 0.438,-6.784 -0.612,-9.673 -0.394,-0.219 -0.613,-0.963 -1.051,-0.612 -0.437,0.481 -0.525,1.225 -0.437,1.75 0.744,4.464 0.087,9.454 -1.051,13.874 -0.218,1.751 0.832,3.501 1.882,4.946 l -0.087,0.962 c -1.532,0.438 -2.67,-0.656 -3.808,-1.575 -3.37,-4.814 -3.37,-10.854 -4.376,-16.412 -0.482,-0.788 -0.744,-1.795 -1.707,-2.32 -2.32,0.394 -3.37,3.151 -5.34,4.333 -0.919,0.7 -1.882,1.182 -3.063,1.269 -0.526,-1.926 0.875,-3.633 0.831,-5.471 0.307,-2.319 -0.394,-4.464 -0.831,-6.608 0.656,-1.532 2.45,-1.663 3.457,-2.976 1.269,-1.488 1.663,-3.414 1.926,-5.34 0.262,-0.437 0.744,-0.087 1.05,0 2.101,2.32 4.727,3.458 7.44,4.421 1.882,1.225 1.62,4.507 4.202,4.289 3.02,-1.882 3.414,-5.209 2.845,-8.403 -0.044,-0.482 0.437,-0.701 0.831,-0.744 2.626,0.306 5.34,2.407 6.215,4.945 0.525,0.525 1.444,0.919 2.101,0.306 1.707,-1.663 2.276,-3.982 1.969,-6.389 -0.569,-1.882 -2.232,-4.289 -4.42,-4.64 -0.306,0.219 -0.219,0.744 0,0.963 1.444,1.62 2.494,3.545 2.626,5.559 -0.263,0.787 -0.132,2.494 -1.357,2.1 -1.4,-3.501 -5.208,-4.814 -8.622,-5.339 -2.276,0.525 -0.919,2.888 -1.138,4.595 0.175,1.62 0.044,3.458 -1.356,4.421 -1.095,-0.088 -1.007,-1.445 -1.707,-2.101 -2.801,-2.976 -7.922,-2.714 -9.235,-7.134 -0.569,-3.195 3.064,-4.639 2.932,-7.659 2.145,-0.35 3.502,1.751 5.384,2.32 2.844,1.531 6.433,-0.701 8.709,2.275 0.613,0.307 1.269,-0.393 1.488,-0.919 0.788,-2.188 -0.656,-3.851 0,-5.996 2.801,-1.313 5.777,0.219 8.491,0.832 5.733,2.932 12.079,7.09 18.688,3.151 z"
           id="path3290"
           style="fill:#ffcc00;stroke:none" />
        <path
           d="m 414.904,310.14703 c 0.218,-0.175 0.569,-0.044 0.831,-0.088 0.263,1.095 -1.05,2.014 -1.882,2.626 -0.525,0.307 -1.006,0.263 -1.575,0.088 -0.744,-1.094 -0.394,-2.363 0.131,-3.458 1.05,-0.306 1.269,1.97 2.495,0.832 z"
           id="path3292"
           style="fill:#2c2c2b;stroke:none" />
        <path
           d="m 366.192,311.41603 c -0.569,2.363 -2.057,4.683 -1.181,7.265 0.656,0.744 1.444,-0.087 2.1,-0.35 1.445,-0.875 2.582,-2.845 4.114,-3.326 0.657,0.438 -0.044,1.05 -0.131,1.576 l -6.302,5.427 c -2.495,4.07 -5.559,8.096 -8.797,11.685 l -0.307,0 0,-0.963 c 2.232,-4.289 6.084,-7.878 7.528,-12.473 -0.7,-3.633 0.7,-6.609 1.576,-9.672 0.219,-0.482 0.787,-1.226 1.4,-0.832 l 0,1.663 z"
           id="path3294"
           style="fill:#2c2c2b;stroke:none" />
        <path
           d="m 192.135,311.50403 c 0.175,3.326 3.195,5.514 4.289,8.403 0.307,1.094 -0.218,2.713 0.876,3.282 1.619,-0.525 1.532,-2.538 2.1,-3.895 0.088,-0.875 -0.262,-1.794 0.307,-2.626 0.525,-0.394 1.225,0.175 1.269,0.744 0.263,2.932 -0.569,5.777 -2.976,7.659 -0.569,0.569 -1.488,0.875 -2.188,0.438 -1.401,-1.269 -0.307,-3.589 -0.963,-5.165 -1.707,-2.757 -4.421,-5.339 -4.071,-8.709 -0.131,-0.875 1.357,-1.05 1.357,-0.131 z"
           id="path3296"
           style="fill:#2c2c2b;stroke:none" />
        <path
           d="m 406.807,316.66803 c 0.438,-0.131 0.963,-0.744 1.4,-0.219 -0.393,1.532 -2.057,2.714 -3.501,3.064 -0.744,0.175 -1.05,-0.657 -1.225,-1.182 0.131,-1.05 0,-2.363 0.919,-3.02 1.269,0 0.875,2.189 2.407,1.357 z"
           id="path3298"
           style="fill:#2c2c2b;stroke:none" />
        <path
           d="m 447.159,318.98803 c 1.444,3.151 0.525,6.521 2.013,9.672 0.963,2.013 2.933,3.632 3.239,5.952 l -0.525,0 c -3.108,-2.626 -3.852,-7.528 -8.184,-8.403 -0.963,-0.875 -1.882,-1.751 -1.795,-3.02 1.138,-0.656 1.269,1.094 1.882,1.663 0.613,0.613 1.357,1.094 2.232,0.744 1.882,-1.356 0.569,-3.632 0.175,-5.339 -0.219,-1.138 -1.05,-2.145 -0.7,-3.37 1.05,0.219 1.182,1.357 1.663,2.101 z"
           id="path3300"
           style="fill:#2c2c2b;stroke:none" />
        <path
           d="m 338.97,324.24003 c 2.626,2.757 0.525,6.915 -0.613,9.759 -1.882,2.145 -2.276,4.902 -3.589,7.266 -0.35,0.087 -0.963,0.218 -1.269,-0.132 -1.444,-3.37 -1.619,-7.878 -1.05,-11.423 0.569,-2.451 1.356,-5.777 4.332,-6.302 0.657,0.088 1.664,0.088 2.189,0.832 z"
           id="path3302"
           style="fill:#009240;stroke:none" />
        <path
           d="m 338.357,327.08403 c 0.263,3.414 -1.969,6.084 -3.151,9.016 -0.963,0.263 -1.051,-0.656 -1.269,-1.269 -0.219,-3.283 -0.438,-7.046 2.319,-9.016 0.963,-0.35 1.62,0.482 2.101,1.269 z"
           id="path3304"
           style="fill:#000000;stroke:none" />
        <path
           d="m 311.572,332.11703 c 1.401,1.62 2.057,3.852 1.445,6.084 -0.613,1.532 -1.838,3.282 -3.677,3.457 -0.875,0 -1.882,0.132 -2.494,-0.525 -0.569,-1.707 -0.438,-3.764 -2.101,-5.033 -0.963,-0.831 -2.582,-1.619 -2.013,-3.151 1.4,-2.538 4.814,-2.013 7.134,-1.794 l 1.706,0.962 z"
           id="path3306"
           style="fill:#008ed1;stroke:none" />
        <path
           d="m 372.888,334.96203 c 0,1.707 -0.481,3.633 0,5.559 0.482,0.481 1.226,0.525 1.795,0.218 1.181,-0.394 1.969,-2.888 3.238,-1.794 -0.656,3.676 -5.383,3.632 -6.477,6.915 -1.926,5.12 -4.727,9.935 -8.403,14.18 l -0.35,-0.087 c 1.225,-4.114 4.245,-7.484 5.996,-11.336 l 2.101,-5.164 c 0.087,-3.151 -0.307,-6.346 0.744,-9.235 0.525,-1.225 1.663,-0.044 1.356,0.744 z"
           id="path3308"
           style="fill:#2c2c2b;stroke:none" />
        <path
           d="m 302.732,337.36903 c 1.75,2.057 2.407,4.815 1.488,7.353 -0.832,1.225 -1.663,2.801 -3.283,3.02 -1.269,0.263 -2.976,0.175 -4.07,-0.7 -2.495,-1.926 -3.151,-5.296 -2.32,-8.097 0.788,-1.532 2.189,-3.195 3.983,-3.37 1.532,-0.044 3.064,0.525 4.202,1.794 z"
           id="path3310"
           style="fill:#008ed1;stroke:none" />
        <path
           d="m 291.265,338.28803 c -0.175,2.145 -0.219,3.939 0.875,5.778 0,1.4 -1.75,1.225 -2.626,1.794 -2.319,0.131 -4.551,4.289 -6.74,0.963 -0.875,-1.313 -2.144,-2.626 -2.013,-4.202 0.35,-2.232 1.576,-4.376 3.808,-5.252 2.013,-0.306 5.646,-1.4 6.696,0.919 z"
           id="path3312"
           style="fill:#008ed1;stroke:none" />
        <path
           d="m 442.739,338.94503 c 0.525,2.845 -0.044,5.996 0.437,8.797 2.014,4.42 5.121,8.403 7.047,12.823 -0.044,0.263 0.087,0.569 -0.132,0.744 -3.238,-3.895 -5.252,-8.447 -8.096,-12.604 -2.451,-2.407 -6.434,-3.064 -7.528,-6.74 -0.087,-0.35 0.044,-0.744 0.394,-0.832 2.013,1.051 2.845,4.639 5.689,3.983 2.32,-1.838 0.394,-5.296 0.832,-7.659 1.007,-0.175 0.963,0.963 1.357,1.488 z"
           id="path3314"
           style="fill:#2c2c2b;stroke:none" />
        <path
           d="m 399.367,338.81403 c -0.175,2.057 -2.232,3.588 -1.663,5.689 0.962,1.357 0.875,3.37 2.494,4.289 1.882,-0.35 2.495,-2.538 3.064,-4.07 0.219,-0.394 0.613,-0.481 1.05,-0.438 0.701,1.62 0.132,3.458 -0.831,4.727 -0.832,1.094 -1.926,1.619 -3.064,1.882 -3.72,-0.569 -2.319,-7.178 -6.827,-5.777 -2.32,-1.269 -2.407,-4.07 -3.151,-6.302 -0.044,-0.526 0.481,-0.788 0.962,-0.526 1.182,1.445 0.919,3.545 2.626,4.64 1.532,0.043 2.32,-1.751 3.151,-2.714 0.263,-0.831 1.445,-3.632 2.189,-1.4 z"
           id="path3316"
           style="fill:#2c2c2b;stroke:none" />
        <path
           d="m 322.47,342.31503 c 0.263,2.232 0.656,5.077 -1.269,6.696 -1.05,1.007 -2.582,1.357 -3.983,0.963 -1.838,-1.05 -1.182,-3.108 -1.969,-4.727 -0.744,-1.138 -1.97,-2.188 -1.488,-3.676 0.875,-1.007 1.488,-2.626 2.844,-2.845 2.495,-0.131 4.771,1.488 5.865,3.589 z"
           id="path3318"
           style="fill:#008ed1;stroke:none" />
        <path
           d="m 422.388,339.47003 c -0.569,2.451 -1.226,4.946 -3.37,6.609 -1.226,0.394 -2.364,-0.525 -2.933,-1.576 -0.744,-1.313 -1.707,-2.932 -1.05,-4.42 l 0.306,-0.219 c 1.401,1.05 0.657,4.771 3.458,3.676 1.619,-1.094 1.532,-3.151 2.538,-4.595 0.482,-0.044 0.919,0 1.051,0.525 z"
           id="path3320"
           style="fill:#2c2c2b;stroke:none" />
        <path
           d="m 412.715,340.82703 c -0.612,1.926 -1.094,4.683 -3.37,5.471 -2.057,-0.482 -2.494,-2.67 -3.063,-4.333 0,-0.482 0.394,-1.138 0.963,-0.7 0.525,0.919 0.175,2.275 1.356,2.801 0.919,0.35 1.839,-0.438 2.232,-1.226 0.569,-0.7 0.394,-3.851 1.882,-2.013 z"
           id="path3322"
           style="fill:#2c2c2b;stroke:none" />
        <path
           d="m 311.966,344.50303 c 1.269,1.226 1.751,2.801 1.795,4.508 -0.132,1.576 -0.788,3.195 -2.189,4.333 -1.575,0.963 -3.501,1.619 -5.47,1.05 -1.488,-0.744 -3.326,-1.532 -3.677,-3.37 0.088,-1.882 2.232,-2.363 3.239,-3.895 0.657,-1.488 1.488,-3.545 3.37,-3.895 0.919,-0.044 2.232,0.394 2.932,1.269 z"
           id="path3324"
           style="fill:#008ed1;stroke:none" />
        <path
           d="m 417.004,348.39803 c -0.612,1.838 -1.181,3.677 -2.494,5.252 1.488,1.97 -0.482,4.114 -1.182,5.996 -0.656,0.832 -1.532,1.401 -2.495,1.138 -1.663,-1.4 -2.976,-3.501 -2.319,-5.558 1.707,0.087 0.438,2.801 2.319,3.238 0.657,0.176 1.182,-0.175 1.664,-0.525 1.006,-1.138 0.962,-2.713 1.663,-3.982 -2.232,-0.351 -2.933,-2.801 -3.545,-4.508 l 0.218,-0.963 c 0.919,-0.219 0.919,0.7 1.138,1.269 0,0.7 0.219,1.488 0.963,1.663 0.613,0.35 1.182,-0.087 1.663,-0.525 0.832,-0.919 0.876,-2.32 1.576,-3.239 0.525,-0.131 0.831,0.307 0.831,0.744 z"
           id="path3326"
           style="fill:#2c2c2b;stroke:none" />
        <path
           d="m 295.292,349.84303 c 1.225,2.844 -2.145,4.332 -2.014,6.958 0.132,0.744 -0.175,1.532 -0.525,2.189 -1.138,0.963 -3.02,0.831 -4.42,0.525 -2.057,-1.094 -2.101,-3.72 -1.97,-5.865 0.35,-1.313 0.307,-2.757 1.357,-3.807 1.838,-2.32 5.908,-2.845 7.572,0 z"
           id="path3328"
           style="fill:#008ed1;stroke:none" />
        <path
           d="m 326.672,349.84303 c 1.488,1.225 2.057,3.063 1.488,4.858 -0.569,1.313 -1.707,2.757 -3.064,3.37 -1.313,0.437 -2.495,0.569 -3.764,-0.132 -1.619,-0.787 -1.663,-2.451 -2.013,-3.895 0,-2.013 0.963,-4.07 2.932,-4.814 1.445,-0.263 3.239,-0.525 4.421,0.613 z"
           id="path3330"
           style="fill:#008ed1;stroke:none" />
        <path
           d="m 283.212,350.06103 c 2.188,1.97 -0.35,4.683 0.919,7.047 0,0.963 -0.656,1.838 -1.444,2.319 -1.794,0.613 -3.72,0.832 -5.164,-0.656 -1.445,-1.313 -1.751,-3.239 -1.576,-5.121 0.131,-1.838 1.619,-3.676 3.37,-4.333 1.444,-0.131 2.757,-0.175 3.895,0.744 z"
           id="path3332"
           style="fill:#008ed1;stroke:none" />
        <path
           d="m 379.716,354.26303 c 0.306,1.313 -0.306,3.02 1.269,3.676 1.882,0.263 3.195,-1.663 4.639,-2.844 0.438,-0.044 1.138,0.043 1.051,0.656 -0.132,1.576 -1.882,2.232 -2.976,3.02 -5.384,1.4 -4.727,7.309 -6.915,11.029 -4.027,7.965 -7.659,16.106 -13.655,23.24 -0.263,0.218 -0.613,0.306 -0.963,0.393 l 0,-0.831 c 6.521,-10.241 13.173,-20.439 16.193,-32.124 0.175,-3.195 -0.875,-6.915 0.088,-10.198 0.35,-0.35 0.875,-1.05 1.488,-0.612 0.875,1.269 -0.307,3.019 -0.219,4.595 z"
           id="path3334"
           style="fill:#2c2c2b;stroke:none" />
        <path
           d="m 305.664,356.49503 c 0.875,0.613 0.569,2.013 0.306,2.801 -0.831,1.926 -2.626,3.633 -4.814,3.676 -1.138,0.132 -2.451,-0.087 -3.457,-0.612 -2.101,-1.576 -2.364,-4.114 -2.014,-6.39 0.219,-1.269 1.226,-2.364 2.32,-3.064 2.538,-1.663 4.202,1.444 5.996,2.626 l 1.663,0.963 z"
           id="path3336"
           style="fill:#008ed1;stroke:none" />
        <path
           d="m 316.08,355.22603 c 1.007,1.225 1.576,2.932 1.138,4.508 -0.481,1.532 -1.225,3.195 -2.845,4.114 -1.313,0.394 -3.282,0.7 -4.507,-0.525 -1.226,-1.664 -1.226,-4.158 -0.394,-5.996 0.831,-1.445 2.1,-2.539 3.676,-2.933 1.182,-0.262 2.013,0.35 2.932,0.832 z"
           id="path3338"
           style="fill:#008ed1;stroke:none" />
        <path
           d="m 405.975,354.91903 c -0.7,2.451 -1.575,5.778 -4.507,6.828 -2.32,-1.269 -3.721,-3.983 -3.677,-6.521 0.175,-0.394 0.613,-0.131 0.963,-0.219 1.576,1.007 0.875,5.865 3.851,3.589 1.532,-1.138 1.226,-3.108 2.539,-4.202 0.394,-0.131 0.831,0.088 0.831,0.525 z"
           id="path3340"
           style="fill:#2c2c2b;stroke:none" />
        <path
           d="m 323.302,361.61603 c 1.488,1.444 2.013,3.632 1.575,5.47 -0.394,1.051 -1.181,2.232 -2.276,2.714 -0.919,0.438 -2.1,0.175 -2.976,-0.175 -1.488,-0.919 -1.619,-2.582 -2.1,-4.027 0.306,-1.575 0.568,-4.245 2.844,-4.726 1.138,-0.044 2.145,0.043 2.933,0.744 z"
           id="path3342"
           style="fill:#008ed1;stroke:none" />
        <path
           d="m 291.615,361.74703 c 0.963,0 1.97,0.744 2.276,1.663 0.35,2.845 -0.963,5.471 -3.326,6.74 -1.751,0.832 -3.939,0.481 -5.602,-0.35 -1.926,-1.532 -2.976,-4.027 -2.189,-6.39 0.569,-0.831 0.832,-2.144 2.014,-2.32 2.451,-0.218 4.333,1.839 6.827,0.657 z"
           id="path3344"
           style="fill:#008ed1;stroke:none" />
        <path
           d="m 416.698,362.79703 c -0.044,2.364 -1.225,4.858 -3.457,6.084 -2.057,-0.307 -2.101,-2.714 -2.758,-4.202 0,-0.569 -0.043,-1.225 0.438,-1.488 1.751,0.35 0.394,4.07 2.713,2.933 1.138,-1.051 1.27,-3.195 3.064,-3.327 z"
           id="path3346"
           style="fill:#2c2c2b;stroke:none" />
        <path
           d="m 307.371,366.12403 c 0.438,1.838 0.131,3.851 -1.488,5.164 -1.838,1.575 -4.858,2.144 -7.046,0.963 -1.445,-0.569 -2.276,-2.145 -2.933,-3.37 0,-1.182 -0.525,-2.364 0.438,-3.283 2.232,-2.626 5.514,1.313 7.878,-1.356 1.488,-0.569 2.451,0.831 3.151,1.882 z"
           id="path3348"
           style="fill:#008ed1;stroke:none" />
        <path
           d="m 408.82,364.98603 c 0.132,3.107 -3.238,4.507 -4.945,6.608 -0.088,1.488 0.787,2.889 2.1,3.808 0.832,0.262 1.751,0.044 2.32,-0.657 0.832,-0.831 0.832,-2.013 1.663,-2.844 1.97,0.087 1.138,3.763 3.589,2.538 0.7,-0.525 1.225,-1.707 2.188,-1.269 0.394,1.094 -0.438,1.969 -1.138,2.757 -0.875,0.569 -1.794,1.269 -2.932,0.832 -0.613,-0.307 -0.963,-1.182 -1.794,-0.832 -1.664,1.532 -3.764,3.326 -2.933,5.777 0.219,0.438 0.525,0.963 1.051,1.226 2.319,0.875 2.319,-4.421 3.982,-1.445 -0.35,1.707 -1.663,3.37 -3.238,4.202 -1.882,-0.044 -2.801,-2.145 -3.37,-3.589 -0.613,-1.926 1.75,-4.114 -0.438,-5.646 -1.182,-0.875 -2.276,-2.276 -2.32,-3.676 -0.131,-1.313 1.138,-2.276 0.526,-3.501 -1.095,-1.27 -1.62,-3.02 -1.357,-4.596 0.131,-0.262 0.525,-0.394 0.831,-0.306 0.701,1.094 0.788,2.538 2.014,3.239 1.838,-0.088 2.538,-2.233 3.37,-3.37 0.525,-0.132 0.831,0.306 0.831,0.744 z"
           id="path3350"
           style="fill:#2c2c2b;stroke:none" />
        <path
           d="m 316.08,368.13703 c 0.132,1.269 0.263,2.363 -0.525,3.37 -0.656,1.05 -1.707,1.575 -2.845,1.663 -1.531,0.262 -2.407,-1.094 -3.063,-2.188 -0.482,-1.707 -0.088,-3.545 1.269,-4.727 0.613,-0.744 1.838,-0.394 2.626,-0.307 1.006,0.394 1.969,1.226 2.538,2.189 z"
           id="path3352"
           style="fill:#008ed1;stroke:none" />
        <path
           d="m 263.561,370.67503 c 0.919,1.269 2.364,2.363 2.495,3.983 -0.131,0.744 -0.394,1.619 -1.226,1.882 -1.006,0.262 -1.75,-1.007 -2.625,-0.088 -0.526,0.613 -0.657,1.488 -1.489,1.882 -1.269,0.132 -2.45,-0.175 -3.238,-0.963 -0.744,-0.656 -0.919,-1.707 -0.963,-2.494 -0.044,-1.707 2.188,-1.926 2.407,-3.502 0.569,-1.312 0.832,-3.151 2.407,-3.676 1.838,-0.175 1.663,1.926 2.232,2.976 z"
           id="path3354"
           style="fill:#ffcc00;stroke:none" />
        <path
           d="m 270.082,371.06903 c 0.088,0.525 0.219,1.269 -0.131,1.707 -1.094,0.569 -1.269,-0.963 -2.188,-1.182 -0.788,-0.219 -1.795,-0.656 -2.013,-1.575 -0.219,-0.526 -0.088,-1.27 0.525,-1.445 1.838,-0.393 2.976,1.226 3.807,2.495 z"
           id="path3356"
           style="fill:#e21c2a;stroke:none" />
        <path
           d="m 297.917,374.65803 c 0.394,0.394 0.394,1.138 0.088,1.575 -1.182,1.926 -3.458,3.37 -5.865,2.933 -1.269,-0.044 -2.188,-1.007 -2.626,-2.101 -0.481,-1.707 -0.175,-3.589 1.138,-4.814 1.007,-0.569 1.97,-1.576 3.239,-1.182 1.269,1.138 2.451,2.757 4.026,3.589 z"
           id="path3358"
           style="fill:#008ed1;stroke:none" />
        <path
           d="m 320.676,372.86303 c 0.7,1.007 1.094,2.276 0.744,3.589 -0.175,1.095 -1.182,2.014 -2.101,2.626 -1.094,0.525 -2.714,0.744 -3.895,0.175 -1.007,-0.481 -1.751,-1.356 -2.101,-2.407 -0.175,-0.481 -0.088,-1.094 0.35,-1.444 1.838,-0.438 3.283,-2.145 4.595,-3.589 1.095,-0.262 1.751,0.394 2.408,1.05 z"
           id="path3360"
           style="fill:#008ed1;stroke:none" />
        <path
           d="m 310.084,374.65803 c 0.963,1.357 0.92,3.545 0,4.945 -1.575,1.489 -4.026,2.101 -5.996,1.226 -0.962,-0.394 -1.663,-1.444 -2.188,-2.276 -0.175,-1.138 -0.219,-2.451 0.394,-3.37 1.138,-1.225 2.451,-2.013 4.027,-2.101 1.225,0.219 2.888,0.132 3.763,1.576 z"
           id="path3362"
           style="fill:#008ed1;stroke:none" />
        <path
           d="m 301.069,381.70403 c 0.525,1.926 -0.482,3.458 -1.707,4.814 -1.357,0.92 -3.239,1.357 -4.946,0.832 -1.182,-0.394 -2.188,-1.488 -2.713,-2.626 -0.307,-0.613 -0.307,-1.576 0,-2.188 1.794,-0.963 4.201,-0.307 5.777,-2.014 0.7,-0.569 1.488,-1.531 2.407,-0.831 l 1.182,2.013 z"
           id="path3364"
           style="fill:#008ed1;stroke:none" />
        <path
           d="m 318.706,383.36703 c 0.482,1.226 0.044,2.626 -0.744,3.589 -0.569,0.657 -1.532,0.832 -2.319,0.7 -0.613,-0.481 -1.576,-0.919 -1.795,-1.75 -0.087,-1.051 -0.219,-1.926 0.131,-2.845 0.438,-0.788 1.226,-1.225 1.97,-1.488 1.182,0 2.319,0.7 2.757,1.794 z"
           id="path3366"
           style="fill:#008ed1;stroke:none" />
        <path
           d="m 311.879,385.68703 c 0.656,3.764 -3.895,2.451 -5.252,5.12 -1.357,0.307 -2.32,-0.35 -3.151,-1.225 -1.007,-0.788 -0.744,-2.276 -0.657,-3.37 0.525,-2.495 3.151,-3.239 5.252,-3.589 1.62,0.219 3.326,1.445 3.808,3.064 z"
           id="path3368"
           style="fill:#008ed1;stroke:none" />
        <path
           d="m 393.152,385.03003 c 1.269,8.403 3.02,16.894 3.808,25.21 -0.744,2.188 -2.714,3.807 -3.896,5.777 -1.488,2.625 -2.363,5.689 -4.726,7.79 -0.744,-0.088 -1.532,-0.525 -1.795,-1.269 -0.7,-2.057 -0.306,-4.64 -0.744,-6.697 -0.262,-0.787 -1.181,-0.962 -1.75,-0.525 -2.014,1.795 -4.508,2.801 -7.178,2.714 -0.35,-0.482 -0.175,-1.269 0,-1.795 7.003,-8.665 8.491,-19.607 12.517,-29.498 0.569,-1.094 0.919,-2.494 2.101,-3.151 0.963,-0.306 1.444,0.832 1.663,1.444 z"
           id="path3370"
           style="fill:#ffffff;stroke:none" />
        <path
           d="m 271.308,386.95603 c 0.394,0.482 0.262,1.313 0.131,1.882 -0.219,0.306 -0.525,0.35 -0.831,0.306 -0.657,-1.75 -3.808,-1.575 -3.064,-3.763 1.532,-1.489 2.976,0.393 3.764,1.575 z"
           id="path3372"
           style="fill:#e21c2a;stroke:none" />
        <path
           d="m 424.663,388.00603 c 1.707,5.427 3.852,10.679 5.778,16.063 1.75,4.157 3.982,8.096 6.214,12.079 0.044,0.481 0.044,1.269 -0.744,1.269 -2.888,0.613 -4.901,-1.663 -6.827,-3.37 l -0.613,0.744 c -0.831,2.582 0.219,6.609 -2.538,8.578 -2.889,0.35 -2.67,-3.326 -4.071,-4.902 -1.531,-2.976 -5.645,-5.251 -4.201,-9.059 1.269,-6.609 2.407,-13.874 3.851,-20.701 0.482,-0.876 0.307,-2.145 1.401,-2.714 1.269,-0.175 1.225,1.313 1.75,2.013 z"
           id="path3374"
           style="fill:#ffffff;stroke:none" />
        <path
           d="m 408.82,390.19503 c 0.788,-0.744 0.613,-2.451 2.013,-2.407 0.788,0.744 0.482,1.663 0.394,2.626 -0.525,0.962 -1.138,2.538 -2.494,2.494 -1.839,-0.437 -2.101,-2.538 -2.626,-3.982 0.175,-0.35 0,-0.876 0.394,-1.138 1.575,0.087 0.7,2.319 2.319,2.407 z"
           id="path3376"
           style="fill:#2c2c2b;stroke:none" />
        <path
           d="m 300.718,389.23203 c 0.176,2.451 4.858,2.976 2.539,5.689 -0.7,1.138 -1.882,1.664 -3.064,2.014 -1.882,0.131 -3.545,-1.007 -4.508,-2.539 -0.437,-1.356 -0.568,-2.976 0.219,-4.201 1.138,-1.488 3.677,-3.108 4.814,-0.963 z"
           id="path3378"
           style="fill:#008ed1;stroke:none" />
        <path
           d="m 316.299,392.51403 c 0.306,0.963 0.306,1.532 0,2.495 -0.875,1.094 -1.926,2.101 -3.282,2.101 -1.27,0.087 -2.407,-0.307 -3.37,-1.138 -0.657,-0.613 -1.007,-1.401 -1.051,-2.32 0,-1.094 0.701,-2.101 1.707,-2.626 0.788,-0.481 1.663,-0.656 2.626,-0.744 1.269,0.35 2.67,0.876 3.37,2.232 z"
           id="path3380"
           style="fill:#008ed1;stroke:none" />
        <path
           d="m 231.743,408.05103 c 4.114,5.427 9.585,11.16 15.756,13.568 0.525,1.269 -1.313,1.094 -2.101,1.225 -2.801,0.525 -4.683,-1.182 -7.046,-1.751 l 0,0.526 c 4.727,4.376 9.147,9.716 7.572,16.149 -0.307,3.677 -5.252,5.865 -3.283,10.11 0.438,1.882 0.175,5.033 2.32,6.39 4.858,1.094 7.703,-4.377 12.298,-4.202 1.225,-0.481 2.188,-1.663 3.676,-1.488 1.182,1.051 0.613,2.801 1.663,3.896 0.307,0.743 0.744,1.794 0.132,2.538 -1.795,2.144 -3.589,-1.138 -5.471,0.394 -1.182,1.75 -4.245,1.357 -4.202,3.808 0.569,1.531 2.495,1.794 3.677,1.881 1.357,-0.087 2.713,-1.138 4.07,-0.306 1.138,0.7 0.875,1.751 0.744,2.845 -3.414,1.794 1.357,8.315 -3.983,7.659 -0.744,-3.239 -4.376,-2.976 -6.389,-4.858 -0.876,0 -0.482,1.269 -0.745,1.925 -0.043,1.97 -0.962,4.202 -3.063,5.121 -0.438,0.175 -0.525,-0.35 -0.613,-0.613 0.482,-2.538 0,-4.945 -1.794,-6.608 -0.613,-0.131 -1.182,0.481 -1.269,1.05 -0.482,2.101 -2.189,4.596 -4.508,5.033 -0.219,-0.044 -0.744,0.088 -1.051,-0.131 -0.437,-0.963 1.051,-1.357 1.27,-2.188 1.838,-2.583 -0.263,-5.384 -1.051,-7.791 -1.357,1.357 -2.101,3.327 -3.457,4.858 -1.095,1.094 -2.32,2.189 -3.896,1.882 -0.262,-1.488 1.226,-2.538 1.576,-3.895 1.619,-4.945 -0.087,-10.372 -2.101,-14.705 -0.262,-0.175 -0.612,-0.482 -0.963,-0.219 -1.4,0.919 -1.619,3.239 -3.545,3.063 0.35,-2.538 0.701,-4.289 0.088,-6.827 -1.05,-4.42 -2.757,-9.322 1.05,-13.042 0.832,-1.926 -0.481,-3.72 -1.575,-5.252 -4.027,-5.383 -10.635,-7.703 -13.349,-13.83 0.219,-1.094 -0.569,-3.326 1.05,-3.808 1.576,0.088 2.583,1.444 4.027,1.795 0.394,-0.307 0.088,-0.832 -0.131,-1.138 -1.182,-1.488 -2.933,-2.714 -3.239,-4.552 0.35,-0.306 1.094,-0.306 1.444,0 l 6.74,5.602 0.438,0 0,-0.875 c -2.189,-3.02 -5.34,-4.814 -6.959,-8.053 l 0,-0.35 c 1.882,-0.175 3.064,2.188 4.42,3.37 1.007,1.05 2.014,2.538 3.37,2.932 0.307,-0.219 0.307,-0.875 0,-1.138 -2.232,-2.801 -5.164,-4.77 -6.608,-7.79 0.087,-1.094 0.131,-2.232 0.919,-3.02 1.094,-1.357 2.363,0.175 3.37,0.613 3.807,2.845 7.396,6.608 10.722,10.197 z"
           id="path3382"
           style="fill:#ffcc00;stroke:none" />
        <path
           d="m 309.034,398.81703 c 1.007,0.394 2.713,-0.132 3.063,1.269 0.351,1.882 -1.137,3.282 -2.538,4.201 -1.4,0.482 -2.976,0.482 -4.201,-0.437 -1.488,-1.182 -1.926,-2.976 -1.663,-4.727 0.306,-0.919 0.962,-1.882 1.75,-2.407 1.838,-0.569 2.189,1.707 3.589,2.101 z"
           id="path3384"
           style="fill:#008ed1;stroke:none" />
        <path
           d="m 258.091,401.53003 c 0.437,1.05 -0.263,1.882 -0.832,2.626 -0.788,0.569 -1.707,1.532 -2.757,0.832 1.225,-1.138 0.788,-6.522 3.589,-3.458 z"
           id="path3386"
           style="fill:#e21c2a;stroke:none" />
        <path
           d="m 290.871,415.84103 c 0.394,-0.525 0.788,-1.4 1.576,-1.4 1.663,0.35 2.932,1.619 4.42,2.451 1.838,0.525 1.882,-2.932 3.764,-1.401 1.488,1.138 2.976,2.758 3.895,4.202 0.219,2.757 0.438,6.04 3.02,7.703 1.444,0.525 2.889,-0.088 4.201,-0.35 3.677,-2.276 1.007,-6.084 1.051,-9.323 2.276,-1.225 1.707,3.283 4.026,1.663 1.182,-0.919 0.919,-3.895 3.02,-2.932 0.438,0.613 0.438,1.401 1.182,1.882 2.1,0.263 2.188,-2.976 4.289,-2.713 2.188,1.4 -1.926,6.302 2.319,4.814 2.276,-1.138 4.202,-3.02 6.39,-4.42 0.569,-0.132 1.051,0.175 1.269,0.656 0,2.101 -1.05,3.764 -1.575,5.646 0.613,0.656 1.444,-0.131 2.32,0.131 0.787,0 1.575,0.044 2.1,0.744 -0.131,1.182 -1.925,1.838 -1.269,3.239 0.919,0.744 1.663,1.75 1.794,2.932 -1.663,0.788 -3.807,-0.831 -4.639,1.357 0,0.788 0.919,1.269 0.438,2.101 -1.269,0.919 -3.72,-0.569 -4.42,1.269 -0.219,0.919 0.831,1.4 0.306,2.319 -1.619,0.482 -1.401,-2.057 -3.02,-1.882 -2.188,-0.306 -4.026,1.007 -5.077,2.845 -2.976,4.071 3.195,6.565 2.626,10.592 -1.4,1.444 -2.057,3.588 -1.444,5.47 0.394,1.357 1.707,3.37 0.306,4.508 -2.144,-0.087 -1.838,-2.582 -3.151,-3.589 -1.094,0.132 -1.488,2.32 -2.538,0.744 -0.263,-1.925 1.488,-3.895 -0.088,-5.645 -0.831,-1.051 -2.057,-1.576 -3.37,-1.182 -1.138,0.35 -2.363,1.269 -2.932,2.407 -1.619,3.501 2.407,7.003 -0.613,9.891 -1.532,1.663 -3.238,2.757 -5.164,3.458 -1.051,0.131 -1.532,-0.963 -1.882,-1.663 -0.35,-2.189 -0.088,-4.202 -1.05,-6.084 -0.92,-0.394 -3.02,0.088 -2.933,-1.707 -0.35,-1.882 0.088,-3.982 0.394,-5.864 -0.087,-0.263 -0.35,-0.526 -0.613,-0.657 -2.188,-0.131 -4.464,2.101 -6.083,0.525 0.306,-1.094 1.357,-1.882 1.882,-2.932 0.744,-2.495 0.875,-5.252 -0.131,-7.659 -1.401,-2.67 -4.465,-1.707 -6.697,-2.538 -1.313,-0.788 -2.538,-1.795 -4.114,-1.97 -0.35,-0.175 -0.131,-0.656 -0.218,-0.963 0.7,-0.875 2.188,-0.306 2.538,-1.575 0.044,-0.832 -0.919,-1.532 -1.576,-1.795 -1.75,-0.919 -3.851,-1.4 -5.164,-3.02 0.044,-1.838 2.932,-1.05 2.538,-2.932 -1.312,-1.225 -3.632,-2.276 -3.37,-4.42 0.482,-0.788 1.489,-0.438 1.795,-1.357 0.394,-1.926 -3.808,-2.932 -1.269,-4.42 1.444,-0.175 2.713,1.269 3.982,0.219 l 0.876,-1.182 c 2.275,0.437 3.545,4.376 6.083,3.807 z"
           id="path3388"
           style="fill:#009240;stroke:none" />
        <path
           d="m 290.346,422.84403 c 3.02,1.97 7.353,0.744 10.066,3.501 3.326,2.495 4.946,5.909 7.353,8.928 1.926,1.182 3.764,-0.35 5.47,-0.875 4.421,-1.925 6.784,-8.797 12.517,-6.915 1.707,0.525 3.983,0.438 5.559,-0.306 0.394,0.131 0.087,0.525 0,0.744 -2.801,3.151 -7.309,-0.175 -10.198,2.626 -2.713,3.151 -5.908,6.346 -9.891,7.44 -0.175,0.175 -0.481,0.481 -0.394,0.832 2.714,2.757 9.104,2.144 8.403,7.571 -0.919,0.438 -0.963,-0.875 -1.575,-1.269 -2.495,-1.619 -5.296,-2.889 -8.403,-2.714 -0.744,0.263 -1.357,0.876 -1.707,1.576 -0.613,2.188 1.094,3.633 1.4,5.558 0.307,2.495 0.92,5.34 -0.962,7.44 -0.394,0.482 -0.919,0.963 -1.488,0.744 1.575,-2.626 1.225,-6.477 -0.526,-8.928 -1.006,-1.838 -1.531,-3.807 -1.138,-5.996 3.502,-3.37 -0.568,-7.002 -1.881,-10.066 -3.152,-7.09 -11.292,-4.858 -15.756,-10.066 -0.919,-1.313 -2.495,-2.451 -2.407,-4.027 1.794,1.532 3.413,3.327 5.558,4.202 z"
           id="path3390"
           style="fill:#000000;stroke:none" />
        <path
           d="m 384.049,421.79403 c 0.787,2.932 -1.226,4.901 -2.32,7.177 -3.633,5.646 -7.484,11.248 -10.941,16.981 -0.788,2.232 1.838,2.758 3.063,3.808 5.208,2.67 11.379,4.902 14.706,10.373 0.306,0.787 0.306,1.969 0,2.757 -0.307,0.35 -0.92,0.219 -1.27,0.087 -0.787,-0.787 -0.875,-2.451 -2.319,-2.101 -0.832,0.526 -0.876,1.62 -1.882,1.795 -0.919,0.087 -1.97,-0.394 -2.101,-1.357 -0.525,-1.357 1.97,-2.407 0.613,-3.589 -2.451,-2.232 -5.296,-3.588 -8.272,-4.595 -3.151,1.444 -2.67,5.296 -3.983,7.965 0.044,2.276 -1.444,5.427 1.051,6.74 0.744,0.044 1.444,0.175 2.101,0.613 -0.088,0.744 -0.657,1.226 -1.27,1.576 -0.831,0.043 -1.882,0.175 -2.013,1.138 -0.35,0.919 0.438,2.494 -0.831,2.844 -0.876,0.088 -1.445,-0.525 -1.795,-1.269 -0.831,-2.845 -0.569,-5.996 -0.613,-8.928 -0.131,-3.545 1.97,-6.215 2.626,-9.454 0.175,-0.875 -0.612,-1.531 -1.269,-1.881 -2.276,0 -3.895,2.625 -5.471,4.201 -2.363,2.626 -4.376,5.383 -6.083,8.316 -0.088,1.881 2.626,1.4 2.538,3.369 -0.087,0.745 -0.612,1.576 -1.4,1.751 -1.357,0.35 -1.97,-1.619 -3.326,-0.919 -1.051,0.613 -0.92,2.714 -2.451,2.101 -1.576,-1.576 0.219,-3.764 0.744,-5.471 3.238,-5.646 7.44,-10.941 12.823,-15.318 0.219,-0.438 0.7,-1.05 0.219,-1.488 l -1.05,-0.744 c -2.276,-0.481 -4.771,-1.269 -6.959,-0.919 -1.488,0.044 -1.094,2.757 -2.801,1.751 -0.657,-1.051 -1.182,-2.014 -2.32,-2.495 -0.306,-0.219 -0.306,-0.832 0,-1.051 2.101,-1.531 5.427,-0.656 7.878,-0.744 2.451,0.263 4.814,0.657 6.915,1.664 1.05,0.087 1.926,-0.92 2.32,-1.751 2.538,-8.14 7.265,-15.362 10.591,-23.108 0.481,-0.919 1.357,-1.576 2.32,-1.707 1.094,0.043 1.75,1.05 2.232,1.882 z"
           id="path3392"
           style="fill:#e21c2a;stroke:none" />
        <path
           d="m 433.81,423.80703 c 2.014,6.302 3.983,12.648 6.303,18.819 1.05,1.401 2.888,1.269 4.639,1.226 4.245,0.175 8.491,-0.657 11.773,2.013 0.088,0.481 -0.525,0.7 -0.744,1.05 -2.057,-0.744 -2.013,2.057 -3.589,2.013 -2.057,-3.238 -5.558,-1.969 -8.49,-2.1 -0.394,0.131 -0.701,0.437 -0.832,0.831 l 0.088,0.613 c 4.157,5.208 10.153,9.541 12.517,15.537 0.306,0.744 -0.569,1.138 -0.963,1.4 -1.182,0.307 -1.444,-1.925 -2.714,-1.05 -0.7,0.656 -1.313,1.444 -2.319,1.357 -0.394,-0.525 -0.613,-1.357 -0.219,-1.882 0.788,-0.482 1.05,-1.488 1.05,-2.232 l -0.831,-1.576 c -2.67,-3.107 -5.865,-6.39 -8.71,-9.016 -0.788,-0.175 -0.963,0.613 -1.05,1.138 1.488,5.602 0.613,11.292 0.7,17.244 -0.262,0.788 -0.831,1.269 -1.663,1.05 -0.656,-0.919 0.088,-2.188 -1.269,-2.626 -0.613,0.088 -1.532,0.307 -1.97,-0.218 -0.262,-0.613 -0.131,-1.488 0.526,-1.795 1.006,0 2.363,-0.218 2.407,-1.444 0.131,-4.902 -0.482,-9.06 -1.882,-13.655 -1.488,-1.05 -3.02,0.438 -4.421,0.832 -2.626,1.006 -5.47,1.925 -7.352,4.201 -0.175,1.576 2.976,2.714 0.612,3.983 -1.006,-0.088 -2.1,-0.7 -3.019,-0.306 -0.919,0.437 -0.526,2.45 -2.014,1.575 -0.831,-0.7 -0.218,-1.838 -0.087,-2.626 2.407,-6.083 8.841,-8.622 13.83,-11.554 0.875,-0.482 1.225,-1.401 1.488,-2.232 -0.175,-2.626 -2.057,-4.552 -3.151,-6.828 -1.663,-5.033 -6.653,-10.635 -2.626,-16.062 0.569,-0.612 1.05,-1.575 2.013,-1.138 1.007,1.007 1.357,2.276 1.969,3.458 z"
           id="path3394"
           style="fill:#e21c2a;stroke:none" />
        <path
           d="m 264.699,440.91903 0,0.657 c -1.357,0.219 -3.02,1.182 -4.289,0.087 -0.656,-0.481 -0.744,-1.313 -0.525,-2.013 1.663,-0.744 4.026,-0.7 4.814,1.269 z"
           id="path3396"
           style="fill:#e21c2a;stroke:none" />
        <path
           d="m 257.259,440.39403 c -0.832,2.67 5.121,2.801 1.794,5.164 -1.313,0.219 -2.407,-0.612 -3.151,0.745 0.263,2.057 -2.101,2.538 -3.37,3.326 -0.744,0.306 -1.575,0.394 -2.319,0 -0.307,-2.32 2.057,-3.764 2.626,-5.865 0.7,-1.532 1.006,-3.414 2.626,-4.42 0.831,-0.175 1.794,0.175 1.794,1.05 z"
           id="path3398"
           style="fill:#ffcc00;stroke:none" />
        <path
           d="m 326.978,440.91903 c 4.902,4.421 9.191,9.454 8.097,16.5 -0.044,5.252 -2.32,9.541 -4.946,13.743 -2.976,4.289 -7.528,7.615 -11.335,11.029 -0.438,0.656 0.394,1.225 0.131,1.794 -1.576,0.35 -2.495,1.794 -3.808,2.538 -2.582,-1.356 -2.494,2.845 -4.945,1.664 -0.744,0.7 -1.007,1.75 -0.7,2.713 1.75,1.794 4.376,2.32 5.952,4.552 1.532,2.057 2.669,4.551 2.319,7.134 -0.437,0.568 -1.356,1.094 -2.1,0.612 -1.488,-1.357 -1.226,-3.457 -2.495,-4.945 -1.532,-2.145 -3.939,-2.583 -6.127,-3.327 -1.007,-0.744 -0.832,-3.369 -2.714,-2.232 -0.306,0.219 -0.787,0.482 -1.138,0.219 -0.481,-0.175 -0.7,-0.919 -1.269,-0.744 -0.919,0.7 -0.219,2.845 -1.882,2.407 -0.744,-0.569 -0.131,-2.1 -1.488,-2.1 -0.744,0.131 -1.357,0.744 -1.488,1.488 0,0.612 0.131,1.4 -0.525,1.663 -0.963,0.043 -1.663,-1.663 -2.714,-0.613 -0.744,0.919 0.744,1.707 0,2.626 -1.006,0.744 -2.232,-1.532 -2.625,0.306 -0.176,0.919 0,2.32 -0.963,2.933 -0.876,0.481 -1.182,-0.569 -1.445,-1.138 0.219,-1.226 -0.175,-2.976 0.919,-3.983 3.764,-2.714 9.016,-4.595 10.329,-9.541 1.094,-4.989 0.657,-10.241 -3.282,-13.786 -1.838,-1.269 -3.895,-1.97 -6.171,-2.101 -0.088,-0.481 0.481,-0.788 0.831,-0.919 3.764,-0.919 7.616,1.05 9.979,4.377 2.057,3.326 3.195,7.046 3.545,11.028 0.131,0.307 0.481,0.613 0.744,0.745 5.383,-1.664 10.11,-4.858 14.705,-8.272 6.959,-4.902 11.861,-11.948 12.824,-19.957 0.437,-5.865 -2.495,-11.38 -7.353,-15.581 -0.306,-0.832 0.569,-1.138 1.138,-0.832 z"
           id="path3400"
           style="fill:#009240;stroke:none" />
        <path
           d="m 269.951,451.33603 c 0.306,0.569 -0.044,1.269 -0.525,1.575 -1.663,-0.919 -3.851,1.007 -5.033,-0.831 -0.088,-1.051 -0.394,-2.539 0.831,-3.064 1.532,-0.481 2.67,0.569 3.896,1.138 l 0.831,1.182 z"
           id="path3402"
           style="fill:#e21c2a;stroke:none" />
        <path
           d="m 267.238,467.92303 c 0.612,1.05 1.313,2.713 0.393,3.764 -1.269,0.262 -1.706,-1.051 -2.494,-1.751 -0.919,-0.656 -2.539,-1.225 -2.539,-2.626 0.132,-0.656 0.569,-1.138 1.182,-1.4 1.488,-0.088 2.845,0.656 3.458,2.013 z"
           id="path3404"
           style="fill:#e21c2a;stroke:none" />
        <path
           d="m 286.538,497.42103 c 1.839,4.552 -0.569,9.191 -1.882,13.349 -0.612,0.481 -1.181,1.269 -1.969,0.962 -2.582,-4.595 -5.777,-10.591 -2.538,-15.886 0.7,-1.27 2.319,-1.095 3.369,-0.92 1.138,0.482 2.364,1.357 3.02,2.495 z"
           id="path3406"
           style="fill:#009240;stroke:none" />
        <path
           d="m 284.963,498.38403 c 1.532,3.282 0.044,7.178 -1.138,10.285 -0.219,0.35 -0.7,0.569 -1.051,0.306 -2.1,-3.326 -3.063,-7.352 -2.013,-11.335 0.307,-0.613 0.963,-1.269 1.707,-1.269 1.05,0.131 1.926,1.138 2.495,2.013 z"
           id="path3408"
           style="fill:#000000;stroke:none" />
        <path
           d="m 312.929,504.99303 c 0.744,1.663 0.875,3.982 -0.131,5.558 -1.97,1.882 -4.333,-1.401 -6.828,0 -0.656,0.35 -1.313,-0.131 -1.663,-0.613 -1.094,-1.05 -0.963,-2.67 -0.525,-3.983 0.7,-1.663 2.013,-3.501 3.983,-3.588 2.057,-0.219 4.201,0.612 5.164,2.626 z"
           id="path3410"
           style="fill:#008ed1;stroke:none" />
        <path
           d="m 239.709,504.03003 c 1.532,1.619 -0.788,4.07 0.744,5.908 0.875,1.313 2.232,2.538 1.663,4.289 -0.306,0.657 -0.832,1.619 -1.663,1.707 -1.269,0.175 -2.276,-0.219 -3.151,-0.963 -1.795,-1.094 -0.175,-4.726 -3.064,-4.201 -0.569,0.35 -1.094,1.05 -1.882,0.612 -1.094,-1.575 0.569,-3.019 1.269,-4.376 1.532,-1.707 3.545,-4.771 6.084,-2.976 z"
           id="path3412"
           style="fill:#ffcc00;stroke:none" />
        <path
           d="m 246.536,507.53103 c -0.131,0.175 -0.087,0.394 -0.087,0.613 -1.226,0.394 -2.626,0.612 -3.895,0.437 -0.526,-0.35 -0.482,-1.094 -0.307,-1.575 0.525,-0.744 1.313,-1.226 2.189,-0.875 0.7,0.481 1.488,0.7 2.1,1.4 z"
           id="path3414"
           style="fill:#e21c2a;stroke:none" />
        <path
           d="m 324.046,509.50103 c 0.744,1.881 0.481,4.07 -0.219,5.908 -1.488,2.101 -4.202,2.495 -6.609,2.101 -1.269,-0.219 -2.407,-1.095 -3.239,-2.232 -0.831,-1.401 0.963,-2.495 1.357,-3.764 0.832,-1.707 0.219,-4.858 2.932,-4.946 2.058,0 4.596,0.657 5.778,2.933 z"
           id="path3416"
           style="fill:#008ed1;stroke:none" />
        <path
           d="m 334.331,511.60103 c 0.437,1.751 1.05,4.202 -0.088,5.777 -0.832,0.876 -1.969,1.313 -3.151,0.963 -1.401,-1.444 -5.427,-0.744 -4.42,-3.982 0.744,-1.883 -0.176,-5.69 3.151,-5.603 1.838,0.175 3.632,1.095 4.508,2.845 z"
           id="path3418"
           style="fill:#008ed1;stroke:none" />
        <path
           d="m 301.681,510.02603 c 1.926,3.37 -3.37,4.814 -3.457,8.009 -0.569,0.437 -1.401,0.481 -2.101,0.306 -0.963,-0.525 -1.926,-1.313 -2.101,-2.407 -0.175,-2.013 0,-4.377 1.882,-5.777 1.62,-1.401 4.158,-1.838 5.777,-0.131 z"
           id="path3420"
           style="fill:#008ed1;stroke:none" />
        <path
           d="m 310.303,515.19003 c 0.832,1.313 1.488,2.801 1.051,4.508 -0.35,1.444 -1.182,3.107 -2.758,3.676 -1.531,0.919 -3.107,0.525 -4.726,0 -1.795,-1.138 -2.495,-3.151 -2.714,-5.164 0.219,-1.707 1.182,-3.676 3.064,-4.202 2.101,-0.7 4.42,-0.131 6.083,1.182 z"
           id="path3422"
           style="fill:#008ed1;stroke:none" />
        <path
           d="m 296.736,521.05503 c 0.875,0.612 1.181,1.444 1.181,2.407 -0.481,2.144 -1.488,4.42 -3.676,5.471 -2.188,0.787 -4.464,0.131 -5.996,-1.576 -1.05,-1.182 -1.663,-2.67 -1.357,-4.289 0.701,-1.838 1.882,-4.333 4.202,-4.508 2.407,-0.394 3.589,2.101 5.646,2.495 z"
           id="path3424"
           style="fill:#008ed1;stroke:none" />
        <path
           d="m 329.735,522.10503 c 0.569,2.845 0.569,5.952 -2.013,7.659 -1.226,0.7 -2.801,0.963 -4.07,0.219 -1.926,-1.05 -2.407,-3.239 -2.451,-5.121 0.131,-2.188 1.094,-4.639 3.37,-5.383 2.057,-0.219 4.333,0.525 5.164,2.626 z"
           id="path3426"
           style="fill:#008ed1;stroke:none" />
        <path
           d="m 319.231,523.98703 c 0.438,1.576 0.569,3.37 -0.131,4.858 -1.4,2.101 -3.764,2.932 -6.083,2.495 -1.62,-0.307 -3.02,-1.926 -3.764,-3.327 -0.657,-1.794 1.532,-2.625 2.494,-3.676 1.138,-1.269 1.488,-3.501 3.37,-3.807 1.882,-0.088 3.414,1.838 4.114,3.457 z"
           id="path3428"
           style="fill:#008ed1;stroke:none" />
        <path
           d="m 337.919,522.32403 c 0.92,1.138 1.357,2.757 0.832,4.201 -0.832,1.751 -2.32,3.195 -4.202,3.677 -1.006,0.219 -2.582,0.219 -3.238,-0.832 0.613,-2.232 1.05,-4.683 0.394,-6.959 -0.044,-1.05 0.744,-1.75 1.706,-1.881 1.532,-0.044 3.37,0.306 4.508,1.794 z"
           id="path3430"
           style="fill:#008ed1;stroke:none" />
        <path
           d="m 209.554,521.58003 c 0.088,1.4 -1.313,2.057 -2.188,2.845 -0.482,0.306 -1.313,0.306 -1.795,0 -0.218,-1.357 0.657,-2.714 1.795,-3.458 0.788,0.088 1.838,-0.306 2.188,0.613 z"
           id="path3432"
           style="fill:#e21c2a;stroke:none" />
        <path
           d="m 245.18,526.00003 c 0.043,1.138 0.043,2.32 -0.832,3.064 -1.138,0.262 -1.225,-1.182 -1.707,-1.795 -0.087,-1.006 0.088,-2.232 1.051,-2.844 1.05,-0.132 1.137,0.919 1.488,1.575 z"
           id="path3434"
           style="fill:#e21c2a;stroke:none" />
        <path
           d="m 307.152,528.01303 c 0.613,1.357 1.094,3.589 0,4.902 -1.313,0.919 -2.495,-0.35 -3.895,-0.087 -1.576,-0.132 -3.37,1.663 -4.508,0.087 -0.481,-1.794 -0.525,-3.807 0.394,-5.427 1.313,-1.532 3.107,-2.276 5.077,-1.925 1.138,0.393 2.363,1.269 2.932,2.45 z"
           id="path3436"
           style="fill:#008ed1;stroke:none" />
        <path
           d="m 223.734,530.50803 c 0.219,1.488 -1.05,2.539 -2.1,3.283 -0.438,0.306 -0.963,-0.132 -1.138,-0.526 0.131,-0.787 0.831,-1.313 1.05,-2.013 0.263,-0.569 0.263,-1.4 1.05,-1.575 0.701,-0.219 0.919,0.393 1.138,0.831 z"
           id="path3438"
           style="fill:#e21c2a;stroke:none" />
        <path
           d="m 295.598,532.39003 c 1.006,1.05 1.532,2.276 1.575,3.676 0.044,1.182 -0.787,2.276 -1.706,3.152 -1.401,1.05 -3.414,1.181 -4.902,0.35 -1.051,-0.963 -2.145,-2.057 -2.013,-3.589 0.175,-1.62 0.7,-3.414 2.407,-3.983 1.444,-0.569 3.413,-0.831 4.639,0.394 z"
           id="path3440"
           style="fill:#008ed1;stroke:none" />
        <path
           d="m 331.311,534.49103 c 0.656,2.494 0.35,4.945 -1.357,6.827 -1.138,1.051 -2.582,1.751 -4.114,1.488 -1.882,-0.394 -3.501,-1.925 -4.42,-3.676 -0.35,-1.488 -0.263,-3.151 0.306,-4.639 1.97,-2.582 4.77,-0.132 7.178,-1.663 1.006,0 1.925,0.787 2.407,1.663 z"
           id="path3442"
           style="fill:#008ed1;stroke:none" />
        <path
           d="m 318.925,534.92803 c 0.832,2.014 -0.088,4.114 -1.269,5.69 -1.313,1.138 -3.108,0.875 -4.727,0.613 -2.232,-1.051 -2.538,-3.414 -2.319,-5.559 0.262,-0.525 0.262,-1.225 0.962,-1.488 1.62,0.044 3.545,0.438 5.121,-0.306 0.963,-0.175 1.882,0.131 2.232,1.05 z"
           id="path3444"
           style="fill:#008ed1;stroke:none" />
        <path
           d="m 308.421,537.99203 c 0.7,1.269 0.482,2.845 -0.219,4.07 -1.356,1.62 -3.413,2.101 -5.383,1.707 -1.357,-0.656 -2.669,-1.751 -3.02,-3.282 -0.175,-1.226 -0.262,-2.933 0.832,-3.895 1.313,-1.532 3.37,-1.007 5.164,-0.832 1.051,0.306 2.014,1.269 2.626,2.232 z"
           id="path3446"
           style="fill:#008ed1;stroke:none" />
        <path
           d="m 299.581,544.60103 c 0.787,1.006 3.326,1.313 2.188,3.151 -0.832,1.269 -2.101,2.801 -3.764,2.713 -1.007,0 -2.363,0.132 -3.239,-0.525 -1.269,-1.138 -1.575,-3.063 -0.963,-4.595 0.438,-1.444 1.489,-2.976 3.064,-3.283 1.357,0.219 1.707,1.751 2.714,2.539 z"
           id="path3448"
           style="fill:#008ed1;stroke:none" />
        <path
           d="m 315.949,544.60103 c 1.707,1.575 0.919,4.114 0.131,5.864 -0.744,1.138 -1.838,1.795 -3.151,1.795 -1.969,-0.088 -3.808,-0.744 -4.508,-2.714 -0.656,-1.838 0.132,-3.589 1.051,-5.077 1.444,-2.319 4.989,-1.488 6.477,0.132 z"
           id="path3450"
           style="fill:#008ed1;stroke:none" />
        <path
           d="m 324.177,545.21303 c 0.919,1.095 1.225,2.626 0.919,4.114 -0.525,1.357 -1.794,2.583 -3.239,2.845 -1.006,0 -1.882,0.044 -2.845,-0.438 -1.881,-2.275 1.445,-4.639 -0.437,-7.046 0.087,-0.525 0.656,-0.744 1.05,-0.919 1.663,-0.175 3.326,0.263 4.552,1.444 z"
           id="path3452"
           style="fill:#008ed1;stroke:none" />
        <path
           d="m 307.152,551.64703 c 0.788,1.532 3.545,2.145 2.188,4.202 -0.831,1.488 -2.407,2.232 -4.07,2.188 -1.4,0 -2.538,-1.094 -3.282,-2.188 -0.526,-1.488 -0.744,-3.108 -0.219,-4.64 1.05,-1.137 1.969,-3.37 3.895,-2.626 0.788,0.919 0.788,2.101 1.488,3.064 z"
           id="path3454"
           style="fill:#008ed1;stroke:none" />
        <path
           d="m 298.749,553.52903 c 0.569,1.663 1.969,3.37 1.269,5.121 -0.656,0.962 -1.969,0.787 -3.063,0.962 -1.226,0 -2.101,-1.094 -2.539,-2.1 -0.394,-1.357 0.263,-2.539 0.963,-3.589 0.875,-0.7 2.363,-1.226 3.37,-0.394 z"
           id="path3456"
           style="fill:#008ed1;stroke:none" />
        <path
           d="m 320.282,555.63003 c 0.437,0.569 0.394,1.663 0.087,2.319 -0.525,1.401 -2.057,2.276 -3.37,2.714 -1.006,0.087 -1.969,-0.7 -2.801,-1.357 -0.744,-1.444 -1.313,-2.801 -0.35,-4.333 0.613,-1.05 1.838,-1.575 3.064,-1.575 1.4,0.043 2.626,1.05 3.37,2.232 z"
           id="path3458"
           style="fill:#008ed1;stroke:none" />
        <path
           d="m 314.505,562.54503 c 0.569,0.175 1.269,0.437 1.575,1.05 0.219,1.094 -0.306,2.101 -0.963,2.932 -1.313,0.963 -2.976,1.095 -4.507,0.526 -1.138,-0.175 -2.189,-1.27 -2.714,-2.276 -0.656,-1.62 -0.262,-3.589 0.919,-4.858 0.569,-0.394 1.357,-0.919 2.013,-0.394 0.963,1.225 2.189,2.67 3.677,3.02 z"
           id="path3460"
           style="fill:#008ed1;stroke:none" />
        <path
           d="m 305.795,562.98203 c 0.219,1.532 0.175,3.458 -1.181,4.596 -0.701,0.7 -1.532,0.963 -2.495,0.963 -1.488,0.131 -2.538,-0.919 -3.37,-2.014 -0.263,-1.531 -0.394,-2.801 0.088,-4.289 0.7,-1.094 1.838,-1.663 2.932,-2.013 1.707,0.044 3.326,1.226 4.026,2.757 z"
           id="path3462"
           style="fill:#008ed1;stroke:none" />
        <path
           d="m 311.572,571.25403 c 0.569,1.532 -0.175,3.02 -1.269,4.114 -1.575,0.919 -3.982,1.051 -5.471,-0.087 -0.875,-0.963 -1.05,-2.364 -0.962,-3.589 0.394,-1.401 1.706,-2.539 3.063,-2.932 1.97,-0.176 3.764,0.744 4.639,2.494 z"
           id="path3464"
           style="fill:#008ed1;stroke:none" />
        <path
           d="m 207.36406,261.30231 c 0.5728,1.94485 1.90017,2.28747 2.28391,0.21055 -0.12411,-0.51304 -0.30403,-1.19088 -0.96833,-0.97015 -0.47044,0.24909 -1.2043,0.1241 -1.31559,0.75958 z"
           id="path3466"
           style="fill:#ffffff;stroke:none" />
      </g>
    </g>
  </g>
</svg>
