<?xml version="1.0" encoding="UTF-8" standalone="no"?>
<svg xmlns="http://www.w3.org/2000/svg" height="552" width="471">
 <g fill-rule="evenodd">
  <path d="m59.5 13.5l15-10c13.897 18.48 42.521 15 70 15h323c-19.624 18.255-20 60-20 85v245c0 95-8 130.36-66 170-42.05 28.738-87 30-152 30-65 0-105 0-150-30-39.25-26.17-60-75-60-170v-225c0-22.902-9.804-29.26-16-40z" stroke="#000" stroke-linejoin="round" stroke-linecap="round"/>
  <path d="m26.5 121.5h201v-87h-130c-11 0-21.66-6.911-31-15l-53 64c8.488 11.881 13.76 24.37 13 38" fill="#fcdd09"/>
  <path d="m26.5 126.5h201v95h-201z" fill="#da121a"/>
  <path d="m26.5 226.5h201v95h-201z" fill="#fcdd09"/>
  <path d="m26.5 326.5h201v95l-195.8-.18c-1.826-18.685-5.2-41.82-5.2-55.82z" fill="#da121a"/>
  <path d="m32.5 426.5h195v115c-55 0-93.22-.4-131-20-40.25-20.88-55-58-64-95" fill="#fcdd09"/>
  <path d="m427.5 426.5c4.054-18.591 7-38 6-61v-89h-201v265c55 0 93.22-.4 131-20 40.25-20.88 56.46-60.43 64-95" fill="#078930"/>
  <path d="m232.5 34.5h210c-5 22-9 36-9 69 0 52 0 167 0 167h-201z" fill="#fff"/>
  <g stroke="#000">
   <g fill="#078930" stroke-linejoin="round" stroke-linecap="round" stroke-width="2.5">
    <path d="m253.63 159.27c15.901 4.639 33.456 8.657 54.08 11.524 2.393 3.936 4.464 7.807 9.71 12.313 12.182.367 26.05.733 44.12 1.1l11.726-18.02c14.12-1.99 32.712-8.171 47.46-13.635-7.861 10.667-20.08 31.15-24.03 32.445-4.406 1.442-6.73 1.518-10.506 1.161-.154 4.698-3.049 6.723-4.744 12.917-9.431 1.754-19.746 4.857-32.98 3.987-13.248-.871-19.764-2.214-30.25-2.929-13.144-.896-20.497 1.213-30.746 1.82.128-3.777-1.589-9.09-3.181-14.301-2.433-.94-5.725-.604-11.08-.375z"/>
    <path d="m362.13 143.24c-6.238-33.703 2.757-63.3 28.478-88.72-25.17 10.935-50.09 20.06-74.67 26.856 4.613 3.08 1.567 10.23.411 16.647-3.051 16.942-13.03 38.835-13.445 56.947 14.61-10.324 35.16-13.224 59.22-11.731z"/>
    <path d="m380.82 154.35c-5.898-17.01-11.507-34.11-1.783-56.32 13.04-3.992 26.09-8.01 40.859-14.896-19.811 21.636-11.388 39.989-2.554 54.24-20.459.254-29.515 7.945-36.521 16.973z"/>
    <path d="m277.12 106.56c17.22-5.112 35.26-9.187 45.12-14.614-5.205 17.17-6.832 32.35-2.594 47.16-15.232.405-30.17 2.874-44.22 11.514-3.637-14.687-5.767-29.374 1.696-44.06z"/>
   </g>
   <path d="m336.86 143.53v40.13" fill="none" stroke-width="5"/>
   <g fill="#da121a" stroke-width=".346">
    <path d="m287.2 76.55v-4.966l2.31-1.501v6.814c1.213.407 2.417.567 3.465.577v2.31c-1.404-.007-2.418-.038-3.465-.577v4.504l-2.31-.808v-4.04c-1.914-.049-2.989-.712-4.577-.051-1.635.681-4.445.746-6.687 1.31l-4.906-1.028.579-.752c3.434-.555 7.993-.478 11.05-1.64 2.01-.763 2.774-.093 4.544-.149z"/>
    <path d="m305.51 52.55c3.03 1.989 12.231-.421 17.494-1.178 2.318-.334 6.93 1.155 6.93 1.155v-5.775h3.465v6.352c2.695 1.022 5.39.947 8.08-.577v3.465c-2.695 1.302-5.39 1.135-8.08.577v5.197l-3.465-1.848v-3.927c-2.384-.582-4.588-1.271-6.93-1.155-5.83.288-11.517 3.088-18.908.779l-1.881-1.934z"/>
    <path d="m388.83 80.25v2.887c-4.553.443-8.548-.227-12.705-.577l-1.155 1.155 2.31 1.155c3.68.23 6.153.729 11.55.577v2.541l2.31 1.039v-3.58c1.614.09 2.594.068 4.62-.231v-2.31c-1.729.227-3.318.43-4.62.231v-3.118z"/>
   </g>
   <g stroke-linejoin="round" stroke-linecap="round" stroke-width="2.5">
    <path d="m420.73 152.55c2.472-2.963 4.885-5.808 8.186-10.429-4.774-1.326-9.274-2.729-11.578-4.749m-11.183 26.04h-2.31v2.31m-9.24 3.465v-2.31h3.465m-8.08 2.31h-2.31v2.31m-8.08 0h-2.31v2.31m-79.69 0h-2.31v2.31m-9.24-1.155v-2.31h2.31m-9.24 0v-2.31h2.31m-6.93-1.155h-2.31v2.31m36.497 22.14c-10.06-3.377-18.397-5.154-25.533-6.439m126.48 57.45c-13.866-5.406-21.487 2.243-33.588-.203-22.258-4.499-28.364 1.571-47.597-2.39-12.901-2.657-19.2 2.404-28.601 2.28-6.29-.083-10.898-2.749-14.869-3.381-8.243-1.313-13.898-1.083-25.989 2.356m1.219-18.706c13.273-2.916 30.868 4.689 46.867 4.339 10.132-.221 19.14-3.414 28.14-3.842 7.05-.335 16.02.924 20.887 4.203 5.03 3.388 31.442-7.876 44.36-.601 5.49 3.093 10.361 2.049 15.1 3.278m-164.03-16.924c18.78 1.781 29.05-.584 50.02 1.292 8.314.744 15.286-1.445 22.52-1.744 12.233-.505 24.338.6 38.577 2.825 5.278.825 15.716-2.876 21.356-2.345 8.156.767 17.462 4.227 25.461 3.715m6.963-14.158c-16.267 1.311-21.429-4.648-34.967-5.56m-132.57.97c12.761 1.029 24.354 6.442 38.599 1.907m-16.454-122.86c3.869-5.404 7.669-3.657 10.596-4.699 3.707-1.319 6.347-4.431 11.348-5.155v16.924c-6.457-5.167-14.744-5.248-21.944-7.07m31.04-25.669c10.589-2.583 14.891-4.488 20.771-6.03 7.72-2.024 15.557 1.773 18.644-3.397v18.733c-8.28 1.463-11.417-3.936-17.313-5.249-7.29-1.623-13.151 6.815-22.1-4.058m72.909 30.29c7.664-5.489 14.07.288 20.789-7.29v16.297c-4.693-7.01-14.818-4.08-20.789-9.01m-90.46 48.41c-1.483 3.2-1.511 5.671-1.195 7.971m-3.512-6.716c-1.595 3.899-1.079 6.39-.948 9.138m-5.55-1.718c3.917-2.261 6.983-3.104 10.01-3.882m121.93-17.05c-.246 7.64-1.805 9.422-5.588 10.466.014-4.117-.192-8.223.961-12.329m-19.464 6.262c-.437 6.316.518 10.647 2.218 15.58m-34.621-25.26c-1.126 5.481-1.137 9.29-1.075 12.989m-8.733 7.943c4.353-5.05 7.912-7.732 13.06-9.835m-7.558-12.386c-.051 7.99-.67 13.495 2.163 23.823m26.08-38.573c2.046.229 3.815.126 6.339-.518m12.11 46.37v17.943m-17.873 3.851l7.55-11.84m-3.25-9.811c-4.678-.685-9.514-1-15.44-1.299 6.82 6.182 13.366 11 20.968 21.09m-93.59-20.372v23.927c4.222-4.25 5.835-7.551 13.4-12.916m-37.37 7.567c1.776-3.753 5.194-7.741 9.897-11.912m-21.796 8.649l-16.661-4.086c11.882-6.934 23.68-15.04 35.15-27.783m69.36-64.67v10.746m-48.51 12.687v16.05" fill="none"/>
    <path d="m241.34 291.1c9.712 4.308 13.242 5.441 18.661 5.156 3.565 4.907 6.06 7.125 8.03 8.05l49.988 31.699c5.789-13.418 14.329-8.989 17.617-17.347-11.351 1.835-12.505-2.279-8.122-10.343-8.809-1.925.669-4.239 3.637-15.52-1.565-1.804-7.829-1.728-13.184-2.02 4.821-3.668 11.725-3.347 16.728-5.958 7.849-4.097 13.343-10.755 15.1.246 5.708-5.923 18.566-2.808 18.413 4.03-.15 6.703-2.609 8.464-7.398 12.17 2.425 3.615 3.904 8.346-.847 11.862-2.514 1.86-5.924 2.239-9.722-.826.458 3.51 1.923 7.423-1.395 9.423 12.702 4.391 16.348 15.628 14.63 23.445 9.337 10.322 16.17 20.18 25.315 22.1 5.566 1.169 13.04 15.759 21.438 17.523 7.493 1.573 9.682 6.895 15.841 6.705 9.04-.278 2.668 10.794-2.987 6.354 6.273 5.439 2.13 11.36-4.536 8.451 4.359 6.16-4.896 14.537-6.478-1.25-5.473-.941-12.144-8.473-18.216-12.709 1.372 5.188-.374 5.388-2.965 4.236-17.669-20.18-23.954-16.286-37.28-34.31.529 14.06 11 23.318 14.776 42.17 8.199 6.439 17 12.817 9.671 20.809 5.585 6.211 16.938 16.735 6.902 15.82-10.08-.919-15.655-.311-22.431.847 12.928 8.06 20.666 18.247 25.396 27.536 6.682 3.854 25.24 11.612 7.625 19.786-9.01 5.293-6.883 10.65-15.353 17.617-6.094 5.01-15.767 1.494-9.371-6.675 4.464-5.703 10.661-9.755 5.092-19.983-10.473-9.393-15.343-15.02-22.876-17.822-12.417-4.613-15.792-12.08-20.19-20.03h-10.591c-4.647 9.47-18.227 9.945-15.674 21.18 2.977 13.1-2.894 21.374-5.931 30.925-.228 7.455 14.464 21.581-3.192 22.03-7.908-3.046-11.622 4.36-22.23 5.084-10.986.75-13.951-7.151-5.931-12.285 6.04-3.864 14.172-1.39 15.674-13.556-3.647-15.318 1.218-18.377-1.074-30.3-1.4-7.283-3.969-14.257 2.067-19.508l13.834-12.04c-4.459-.742-8.723-2.276-5.528-5.713 4.832-5.198 9.465-6.03 14.219-14.715 4.03-7.363-.16-19.431 5.713-26.17-5.864-7.717-4.462-16.898 8.648-15.85-3.355-2.812-5.343-6.02-3.141-10.415-4.076 2-9.205 10.328-11.862 3.813-.082 7.624-7.247 9.415-11.986 18.319-3.777 1.182-6.851-9.186-18.685-12.651-9.882 7.573-20.53 6.5-28.849 1.855-8.319-4.645-13.145-15.07-12.76-23.781.385-8.707 5.724-18.15 15.499-22.365 9.774-4.217 21.831-1.931 29.16 6.05 7.252 7.904 8.257 18.997 5.156 27.5 5.3 1.939 11.09-.882 15.16-7.764 4.174-7.05 6.993-8.25 8.999-1.57-1.401-3.145-1.606-6.12 2.542-8.473l-48.717-30.501c-4.751-3.404-7.807-2.572-11.01-2.118-.146-3.868-4.194-8.566-11.01-18.216z" fill="#fff"/>
    <g fill="none">
     <path d="m264.43 349.39l-6.361 1.171m2.595-3.766l1.171 6.361m-16.16-.101l-6.361 1.171m2.595-3.766l1.171 6.361m40.1-11.09l-6.361 1.171m2.595-3.766l1.171 6.361m-12.493 18.866l-6.361 1.171m2.595-3.766l1.171 6.361m-4.849-41.689l-6.361 1.171m2.595-3.766l1.171 6.361"/>
     <path d="m375.9 480.19c4.513-2.306 8.622-5.62 12.01-10.745m-102.94 26.26c14.977 2.097 15.674-1.271 15.674-1.271m37.768-74.14c1.459 7.086 8.04 15.917.91 21.929m-12.592-31.07c1.441 12.723 4.713 22.02 6.11 31.17l29.675-.424c-2.252-3.453-2.449-6.563-6.879-10.379m-32.95-16.18c.799 8.993 3.264 18.402 2.396 26.978m-25.285-8.473c3.849-.375 7.88-.262 9.409-6.823-1.803 6.856-3.874 14.04 5.991 6.89-6.915 6.954 3.736 5.736 7.05 8.406m19.733-37.873l6.175-5.784c5.7-1.798 5.138-12.623 11.547-17.256m-6.951 1.312c-.351-4.705-7.207-2.314-11.495-2.724-4.891-.088-6.777 2.077-10.153 3.125m.595 11.811l11.528-.761c8.4-2.512 8.01-13.958 14.457-16.986m-19.297 12.574l-.543 10.86m-17.11-15.83c-2.497 6.844-3.799 12.395.15 16.775 5.01 5.559 2.505-7.983 6.599-10.53 3.223 1 5.585-.411 6.812-5m-20.1 1.216c.003-3.043 3.61-1.978 6.538-2.461l58.692 55.887m-56.58-69.28c3.236 3.033 2.271 5.04 4.41 8.216l50.785 45.615m-43.825-50.776c-3.771 2.121-4.768 4.413-5.23 6.738m11.638-6.796l.631 5.599m-18.41-8.596c4.121-.24 8.807.62 11.37 3.055 9.73.577 12.153-1.72 21.379-2.335m-63.07-12.558c1.027 6.159.592 15.279-.889 21.23m-6.258-21.06c-1.694 4.827-4.513 8.304-8.203 10.736m40.12-15.93c2.701 2.15 2.41 4.3 2.414 6.45 1.739-1.82 3.274-5.278 5.375-4.204m68.49 13.73c4.116 11.3 1.294 12.688.269 21.822m28.978-1.303c-7.878 4.671-7.974 9.341-10.762 14.01m-48.593-59.886c-1.806 5.978-3.611 1.903-5.417-1.392-.166 5.515-4.797 11.579-9 14.664 2.422-.018 4.857-.052 4.551 3.827m-20.452-62.66c.565 1.458.784 2.861 2.524 1.971m-2.272-4.581c1.252.098 2.442-.533 3.93 2.381m-9.719 10.642c.364 1.828 2.117 1.141 3.664 1.391m7.589 26.66c5.771-2.33 9.239-2.436 15.326-13.797m-3.153-17.392c1.792-.373 4.338 1.691 4.823-2.905.333 3.411 2.129 3.896 4.133 3.964m-17.14-3.686c2.954 4.415 4.41 6.421 7.383 8.05m-7.175-18.863c7.863 5.456 12.709 5.212 18.572 6.89m-12.792 21.395c-6.358-.158-10.32-1.375-13.205-3.068 2.375-2.369 4.751-3.09 7.126-9.655l.3-15.562c-4.888-2.036-8.808-1.65-12.581-.899m-18.392 49.39c2.395-1.28 5.148-1.964 5.931-5.931m-58.22-19.251c4.77-5.106 9.687-9.991 12.266-18.382"/>
    </g>
   </g>
  </g>
 </g>
 <ellipse cx="261.23" cy="350.01" rx="12.397" ry="12.397" fill="none" stroke="#000" stroke-linejoin="round" stroke-linecap="round" stroke-width="2.5"/>
</svg>
