<?xml version="1.0" encoding="UTF-8" standalone="no"?>
<svg
   stroke-linecap="round"
   stroke-linejoin="round"
   viewBox="0 0 544 581"
   version="1.1"
   id="svg966"
   sodipodi:docname="Wappen_Vogelsbergkreis_korrigierte_Farben anderes Template.svg"
   inkscape:version="1.3.2 (091e20ef0f, 2023-11-25, custom)"
   xml:space="preserve"
   xmlns:inkscape="http://www.inkscape.org/namespaces/inkscape"
   xmlns:sodipodi="http://sodipodi.sourceforge.net/DTD/sodipodi-0.dtd"
   xmlns:xlink="http://www.w3.org/1999/xlink"
   xmlns="http://www.w3.org/2000/svg"
   xmlns:svg="http://www.w3.org/2000/svg"><defs
     id="defs970"><inkscape:path-effect
       effect="skeletal"
       id="path-effect6414"
       is_visible="true"
       lpeversion="1"
       pattern="m 26507.414,27761.564 c 0,-13.157 10.678,-23.835 23.835,-23.835 13.157,0 23.835,10.678 23.835,23.835 0,13.157 -10.678,23.835 -23.835,23.835 -13.157,0 -23.835,-10.678 -23.835,-23.835 z"
       copytype="single_stretched"
       prop_scale="0.08"
       scale_y_rel="false"
       spacing="0"
       normal_offset="0"
       tang_offset="0"
       prop_units="false"
       vertical_pattern="false"
       hide_knot="false"
       fuse_tolerance="0" /><clipPath
       clipPathUnits="userSpaceOnUse"
       id="clipPath2859"><path
         id="path2861"
         style="display:inline;fill:none;fill-opacity:1;stroke:none;stroke-width:1.64568;stroke-linecap:round;stroke-linejoin:round;stroke-miterlimit:4;stroke-dasharray:none"
         inkscape:label="coa-0i"
         d="M 354.54345,238.74553 C 223.55577,156.75357 119.43187,114.87865 34.576779,89.62848 c 8.876182,10.44097 14.888351,17.88417 19.319914,27.78887 12.26236,27.40378 12.096687,74.21206 24.447904,259.77867 1.001764,15.06437 2.015176,27.97806 3.197296,44.95708 1.98963,28.57846 14.647835,65.41003 35.748827,105.60433 47.98507,91.40413 139.82495,200.27434 250.54058,269.57698 110.76074,69.33086 200.14598,73.85488 245.14937,40.62465 19.76241,-14.59498 31.00654,-36.43478 31.67517,-63.32385 0.39784,-15.99005 0.81666,-28.00723 1.12272,-42.25296 3.75148,-174.97941 1.35354,-223.62022 12.55188,-236.43703 4.09063,-4.68471 9.94306,-4.73016 18.65081,-4.20259 -86.19928,-81.8216 -191.45166,-171.00611 -322.4378,-252.9971 z"
         sodipodi:nodetypes="scscssssscscs" /></clipPath><clipPath
       clipPathUnits="userSpaceOnUse"
       id="clipPath3166"><path
         id="path3168"
         style="display:inline;fill:none;fill-opacity:1;stroke:none;stroke-width:1.44239;stroke-linecap:round;stroke-linejoin:round;stroke-miterlimit:4;stroke-dasharray:none"
         inkscape:label="coa-0i"
         d="m 272.09682,16.815 c -100.64238,0 -181.07671,23.297594 -246.79082,51.157814 6.72925,4.884065 11.28033,8.563303 14.55296,15.692836 9.05556,19.72474 8.05789,66.62865 14.24827,244.43339 0.50182,14.43482 1.05264,26.71205 1.65961,42.94833 1.02157,27.32834 10.21096,56.23151 25.92289,83.21297 35.73001,61.35723 105.34043,112.73127 190.40709,112.73127 85.10131,0 154.73324,-51.41798 190.4501,-112.80759 15.68445,-26.96064 24.8595,-55.83375 25.87988,-83.13665 0.60697,-16.23628 1.15659,-28.51351 1.65961,-42.94833 6.17246,-177.29714 5.20465,-224.42884 14.17658,-244.251856 3.2774,-7.244004 7.84283,-10.952148 14.62464,-15.87437 C 453.17473,40.112594 372.73801,16.815 272.09682,16.815 Z"
         sodipodi:nodetypes="scscssssscscs" /></clipPath></defs><sodipodi:namedview
     id="namedview968"
     pagecolor="#505050"
     bordercolor="#eeeeee"
     borderopacity="1"
     inkscape:showpageshadow="0"
     inkscape:pageopacity="0"
     inkscape:pagecheckerboard="0"
     inkscape:deskcolor="#505050"
     showgrid="false"
     inkscape:zoom="2.8284271"
     inkscape:cx="285.67114"
     inkscape:cy="327.21367"
     inkscape:window-width="1920"
     inkscape:window-height="1011"
     inkscape:window-x="26"
     inkscape:window-y="23"
     inkscape:window-maximized="0"
     inkscape:current-layer="g6895" /><radialGradient
     id="a"
     cx="276.1"
     cy="261"
     gradientTransform="matrix(1.863 .598 -.57 1.774 -1.1 -293.9)"
     gradientUnits="userSpaceOnUse"
     r="203.2"><stop
       offset="0"
       stop-color="#d22"
       id="stop706" /><stop
       offset=".5"
       stop-color="#d11"
       id="stop708" /><stop
       offset="1"
       stop-color="#e00"
       stop-opacity=".8"
       id="stop710" /></radialGradient><g
     id="g9711"
     inkscape:label="coa"
     transform="matrix(1.1562656,0,0,1.1562656,651.53157,-14.913733)"
     style="display:inline;opacity:1"><g
       id="g6895"
       inkscape:label="coa-0"
       style="display:inline;stroke-width:0.983732"
       transform="matrix(1.033347,0,0,1,20591.699,21947.417)"><path
         style="display:inline;fill:#000000;fill-opacity:1;stroke:none;stroke-width:0.613696;stroke-linecap:round;stroke-linejoin:round;stroke-miterlimit:8;stroke-dasharray:none"
         d="m -20411.083,-21907.453 c -15.515,4.373 -16.522,2.476 -16.472,-7.369 -11.229,16.274 -25.394,34.386 -43.38,50.573 43.4,-1.385 29.337,44.652 41.096,254.746 3.946,70.515 75.331,172.216 185.086,172.216 109.754,0 186.238,-92.378 190.707,-172.216 11.758,-210.094 -3.3,-255.984 35.474,-254.746 -17.985,-16.187 -32.15,-34.299 -43.38,-50.573 0.05,9.845 -0.957,11.742 -16.472,7.369 -70.182,-19.781 -120.688,-24.234 -166.329,-24.234 -45.642,0 -96.147,4.453 -166.33,24.234 z"
         id="path3684"
         sodipodi:nodetypes="sccsssccszs"
         inkscape:label="coa-0o" /><path
         style="opacity:1;fill:#da251d;fill-opacity:1;stroke:none;stroke-width:4;stroke-linejoin:bevel;stroke-dasharray:none;stroke-opacity:1"
         d="M 72.797989,443.52385 C 45.06768,402.30281 55.798577,296.5662 47.5,222.75 45.759197,168.96926 57.03395,88.119059 25.122542,68.054225 95.115065,34.241323 169.96867,7.4370607 277.75,10.75 c 95.43774,3.913817 180.1273,17.056056 243.42823,58.076286 z"
         id="path2522"
         sodipodi:nodetypes="cccccc"
         inkscape:label="rotes Feld"
         transform="matrix(0.83694364,0,0,0.8648532,-20472.482,-21934.519)"
         clip-path="url(#clipPath3166)" /><path
         style="display:inline;opacity:1;fill:#0f47af;fill-opacity:1;stroke-width:5;stroke-linejoin:bevel"
         d="M 81.759222,456.72469 501.25033,106.37538 490.93414,374.25 C 480.37901,460.38955 434.51655,500.20201 384.01562,539.46875 308.85641,577.86734 251.70788,574.09377 198.58969,556.45191 148.01014,532.26238 102.96043,498.54123 81.759222,456.72469 Z"
         id="path1863"
         sodipodi:nodetypes="cccccc"
         inkscape:label="Blaues Feld"
         transform="matrix(0.83694364,0,0,0.8648532,-20472.482,-21934.519)" /><rect
         style="display:inline;opacity:1;fill:#ffffff;fill-opacity:1;stroke:#000000;stroke-width:4.56376;stroke-linejoin:bevel;stroke-dasharray:none;stroke-opacity:1"
         id="rect2337"
         width="598.57318"
         height="38.635242"
         x="87.037102"
         y="494.47638"
         transform="matrix(0.65277278,-0.54126311,-0.01552832,0.86470433,-20472.482,-21934.519)"
         inkscape:label="weißer Balken"
         clip-path="url(#clipPath2859)" /><path
         id="path7816"
         style="display:inline;fill:none;fill-opacity:1;stroke:none;stroke-width:1.44239;stroke-linecap:round;stroke-linejoin:round;stroke-miterlimit:4;stroke-dasharray:none"
         inkscape:label="coa-0i"
         d="m 272.09682,16.815 c -100.64238,0 -181.07671,23.29759 -246.79082,51.15781 6.72925,4.88407 11.28033,8.56331 14.55296,15.69284 9.05556,19.72474 8.05789,66.62865 14.24827,244.43339 0.50182,14.43482 1.05264,26.71205 1.65961,42.94833 1.02157,27.32834 10.21096,56.23151 25.92289,83.21297 35.73001,61.35723 105.34043,112.73127 190.40709,112.73127 85.10131,0 154.73324,-51.41798 190.4501,-112.80759 15.68445,-26.96064 24.8595,-55.83375 25.87988,-83.13665 0.60697,-16.23628 1.15659,-28.51351 1.65961,-42.94833 6.17246,-177.29714 5.20465,-224.42884 14.17658,-244.25186 3.2774,-7.244 7.84283,-10.95214 14.62464,-15.87437 C 453.17473,40.11259 372.73801,16.815 272.09682,16.815 Z"
         sodipodi:nodetypes="scscssssscscs"
         transform="matrix(0.83694364,0,0,0.8648532,-20472.482,-21934.519)" /></g><g
       id="g6901"
       inkscape:label="coa-f"
       style="stroke-width:0.983732"
       transform="matrix(1.033347,0,0,1,20591.699,21947.417)"><path
         style="display:inline;fill:none;stroke:#000000;stroke-width:3.93493;stroke-linecap:square;stroke-linejoin:round;stroke-miterlimit:8"
         d="m -20451.98,-21873.804 c 5.28,3.961 8.709,6.694 11.262,11.87 2.552,5.175 4.243,12.997 5.483,26.959 2.479,27.919 3.209,80.183 6.734,184.786 0.421,12.481 0.882,23.092 1.389,37.116 1.414,39.13 21.209,81.748 53.525,114.659 32.316,32.911 77.227,56.117 128.888,56.117 51.661,0 96.572,-23.206 128.888,-56.117 32.316,-32.911 52.111,-75.529 53.525,-114.659 0.507,-14.024 0.968,-24.635 1.389,-37.116 3.525,-104.603 4.255,-156.867 6.734,-184.786 1.24,-13.962 2.931,-21.784 5.483,-26.959 2.553,-5.176 5.982,-7.909 11.262,-11.87"
         id="path12605"
         sodipodi:nodetypes="csscsszsscssc"
         inkscape:label="coa-f0" /><g
         id="g6725"
         inkscape:label="coa-t"
         transform="matrix(0.98768621,0,0,0.98768621,-20541.115,-21931.13)"
         style="display:inline;stroke-width:0.983732"><path
           style="display:inline;fill:#ffffff;fill-opacity:1;stroke:none;stroke-width:0.621348;stroke-linecap:round;stroke-linejoin:round;stroke-miterlimit:8;stroke-dasharray:none"
           d="m 90.931186,56.088695 c 9.222964,-9.222961 18.750364,-22.897601 22.196504,-30.133475 2.91304,4.282405 6.66994,4.997402 13.50536,3.070951 C 195.91326,9.4989117 251.53526,3.1207816 300.05654,3.1207816 c 48.52129,0 104.14328,6.3781301 173.42349,25.9053894 6.83543,1.926451 10.59232,1.211454 13.50537,-3.070951 3.44613,7.235874 12.86363,20.800612 22.1965,30.133475 C 453.498,31.692884 385.33829,11.292721 300.05654,11.292721 c -85.28175,0 -153.44146,20.400163 -209.125354,44.795974 z"
           id="path3386"
           sodipodi:nodetypes="ccszscczc"
           inkscape:label="coa-t0" /><path
           style="display:inline;fill:#000000;stroke:none;stroke-width:1.2427;stroke-linecap:round;stroke-linejoin:round;stroke-miterlimit:8;stroke-dasharray:none"
           d="M 90.931186,56.088695 C 90.722588,55.605817 112.44467,44.775647 149.70371,33.027609 187.45298,21.124999 239.50549,9.4302864 299.87672,9.3857645 c 0,0 0.18516,-6.77e-5 0.18515,-6.77e-5 60.42726,-0.01015 112.5115,11.6678702 150.30396,23.5899692 37.29112,11.763947 59.02525,22.630106 58.81609,23.113038 -0.20916,0.482931 -22.29458,-9.484611 -59.60498,-20.533202 -37.8376,-11.204704 -89.56438,-22.376627 -149.5141,-22.356237 -10e-6,0 -0.18366,9.7e-5 -0.18367,9.7e-5 -59.89403,0.03275 -111.5923,11.22151 -149.38725,22.407225 -37.27934,11.033117 -59.352136,20.964986 -59.560734,20.482108 z"
           id="path6412"
           inkscape:path-effect="#path-effect6414"
           inkscape:original-d="m 90.931186,56.088695 c 137.846684,-59.5481628 279.927774,-59.908188 418.250714,0"
           sodipodi:nodetypes="cc"
           inkscape:label="coa-tp"
           class="UnoptimicedTransforms" /></g></g></g><g
     id="g3021"
     inkscape:label="Zwiebeln"><use
       x="0"
       xlink:href="#b"
       y="0"
       id="use958"
       style="display:inline"
       transform="translate(145.10001,-109.7)" /><g
       id="b"
       style="display:inline"><use
         stroke="#000000"
         stroke-width="3"
         x="0.89999998"
         xlink:href="#c"
         y="1.7"
         id="use727" /><g
         id="c"><path
           d="m 147.5,181.2 c 17.03,13.61 26.74,35.07 26.74,62.09 0,17.07 -2.18,24.61 -5.3,31.15 -0.5,1.04 -1.02,2.06 -1.56,3.08 -1.25,2.37 -2.6,4.78 -3.99,7.67 -0.45,0.92 -0.89,1.88 -1.34,2.91 -6.18,-1.98 -17.68,-1.41 -24.31,0.13 -0.49,-0.55 -0.98,-1.14 -1.45,-1.77 -5.47,4.14 -11.38,6.37 -21.59,5.7 -8.7,-0.57 -14.82,-4.73 -18.99,-11.04 -2.59,5.07 -20.38,-3.33 -20.38,-32.96 0,-32.12 27.25,-48.25 21.29,-73.67 16.21,8.55 22.21,31.8 22.21,53.91 0,21.62 -5.85,29.12 -6.12,41.38 v 0.01 c 5.24,7.27 11.78,7.33 17.42,5.03 -3.41,-8.87 -5.64,-20.11 -5.64,-31.44 0,-16.97 11.38,-45.59 11.38,-55.59 0,-6.67 -1.96,-13.05 -3.58,-15.79 3.43,1.53 6.67,3.28 9.72,5.26"
           fill="#ffffff"
           id="path729" /><path
           d="m 147.5,181.2 c -0.29,-6.71 0.29,-20.46 1.27,-24.95 1.25,-5.71 4.84,-10.42 10.64,-11.09 5.08,-0.58 3.92,-8.14 -1,-8 -8.54,0.25 -15.71,9.42 -16.07,19.09 -0.17,4.68 -0.48,15.64 -0.33,21.01"
           fill="#ffffff"
           stroke="#000000"
           stroke-width="2.5"
           id="path731" /><path
           d="m 130.1,170.5 1.18,1.67 c 2.71,5.55 3.97,11.91 3.38,18.07 -1.78,10.84 -5.43,21.25 -7.91,31.94 -2.62,10.15 -4.19,20.71 -2.73,31.18 1.59,12.53 4.77,25.58 12.93,35.54 4.08,1.09 -0.11,-3.26 -0.72,-4.2 -7.83,-12.36 -10.63,-27.32 -10.74,-41.78 0.55,-13.61 5.01,-26.64 8.37,-39.74 2.2,-7.85 4.26,-16.18 1.95,-24.28 -0.4,-0.72 -0.76,-2.88 -1.27,-4.62 4.03,2.1 7.87,4.55 11.41,7.39 14.28,11.28 22.91,28.57 25.43,46.4 1.5,10.78 1.46,21.79 0.06,32.58 -0.89,8.74 -5.48,16.31 -9.08,24.12 -2.49,2.21 -0.25,6.56 1.3,2.36 4.1,-7.87 9.31,-15.41 10.76,-24.36 2.4,-14.79 2.16,-30.15 -1.68,-44.68 -4.71,-18.41 -16.89,-35.02 -33.79,-43.97 -1.7,-0.4 -8.84,-3.63 -8.84,-3.63 z"
           id="path733" /><path
           d="m 223.8,253.6 c 0,11.33 -6.88,29.17 -21.32,28.36 -4.46,6.17 -10.8,10.26 -19.08,10.26 -9.45,0 -16.14,-3.63 -20.07,-6.97 1.39,-2.89 2.74,-5.3 3.99,-7.67 0.54,-1.02 1.06,-2.04 1.56,-3.08 4.07,1.85 11.73,0.87 18.08,-3.19 -0.71,-12.39 -7.82,-29.02 -7.82,-47.96 0,-25 9.9,-43.68 20.34,-52.58 -5.46,40.65 24.32,43.16 24.32,82.83 z"
           fill="#ffffff"
           id="path735" /><path
           d="m 142.4,183.9 c 8.19,12.68 10.83,27.97 12.16,42.75 1.4,18.84 -0.1,37.8 -2.79,56.51 -0.46,3.21 -2.16,7.03 -2.76,3.14 3.37,-14.69 4.32,-29.84 4.41,-44.88 -0.2,-16.56 -1.88,-33.43 -8.1,-48.96 -1.08,-2.69 -3.26,-5.71 -4.11,-8.27 -0.28,-1.34 0.43,-1.2 1.18,-0.3 z"
           id="path737" /><path
           d="m 208,220.9 c 12.38,21.31 10.89,40.51 3.69,51.12 M 196.9,230.5 c 9.67,21.08 6.83,42.78 1.08,50.03 M 109.9,207.5 c 6.46,29.46 -5.58,48.67 -5.58,62.33 0,7.13 1.76,12.07 7.92,17.04 m 18.57,-35.57 c -0.25,7.46 2.96,24.94 9.13,32.6 m 20.88,-28.5 c 0.38,7.96 -1.35,19.58 -5.53,27.63 m 10.13,-59.43 c 5.82,19.88 2.12,45.69 -5.72,59.22 M 146.32,208.6 c 4.14,17.3 4.02,54.26 -0.79,74.99"
           fill="none"
           stroke="#000000"
           stroke-width="1.8"
           id="path739" /><path
           d="m 95.43,172.4 c -0.18,3.65 1.63,7.8 0.94,11.57 -1.28,14.2 -10.8,25.6 -16.16,38.36 -6.94,14.99 -8.2,33.07 -1.44,48.35 2.8,5.66 7.28,11.93 14.03,12.82 3.28,1.51 5.32,-5.17 1.8,-2.53 -5.22,1.75 -9.63,-4.02 -12.25,-7.88 -6.54,-11.17 -7.25,-25 -4.58,-37.43 3.37,-15.84 14.39,-28.52 19.17,-43.81 2.12,-4.31 0.89,-12.34 1.73,-14.83 10.38,7.59 14.8,20.63 16.93,32.8 2.62,15.88 1.77,32.27 -2.28,47.84 -1.66,7.58 -2.75,15.91 0.27,23.28 1.79,3.82 5.97,6.1 9.97,6.62 0.26,-3.05 -6.87,-2.38 -7.77,-6.18 -3.24,-6.23 -2.17,-13.73 -0.77,-20.32 2.88,-10.12 5.57,-20.45 5.53,-31.05 0.05,-15.48 -2.16,-31.78 -10.8,-44.99 -3.3,-4.84 -9.4,-9.86 -14.3,-12.64 z"
           id="path741" /><path
           d="m 101.4,187 c 3.28,14.77 -1.06,29.78 -5.09,43.93 -2.64,9.85 -6.78,19.65 -6.3,30.02 0.93,9.82 4.57,20.41 13.02,26.22 6.99,4.46 16.02,4.81 23.76,2.58 2.51,-0.73 6.73,-4.89 9.54,-3.28 0.48,3.49 -5.86,5.19 -8.73,6.09 -7.27,2.27 -15.61,1.75 -22.59,-1.52 -10.4,-5.3 -15.37,-17.23 -16.69,-28.28 -1.1,-10.89 3.36,-21.25 6.21,-31.55 4.25,-14.21 8.66,-29.31 5.42,-44.2 0.14,-0.79 1.32,-0.8 1.46,-0.01 z"
           id="path743" /><path
           d="m 162,288.1 c -5.27,2.42 -17.92,2.42 -24.31,0.13 6.63,-1.54 18.13,-2.11 24.31,-0.13 z"
           stroke="#000000"
           stroke-width="2"
           id="path745" /><path
           d="m 156.6,309.3 c -6.25,-4.8 -7.14,-14.62 -7.02,-21.32 0.02,-1.27 3.74,-1.19 3.79,-0.07 0.16,3.63 0.65,12.76 5.48,17.41 m -17.84,0.57 c 2.99,-4.63 3.58,-11.65 3.58,-17.98 0,-1.18 4.01,-1.17 4.01,0.1 0,8.4 -0.91,14.44 -5.01,21.23 m 27.42,-2.05 c -8,-4.44 -14.88,-12.88 -16.64,-18.19 -0.45,-1.35 4.23,-2.03 4.77,-0.39 1.74,5.3 7.12,11.11 14.24,13.99 m -47.97,0.19 c 4.66,-2.23 12.48,-6.39 14.07,-14.2 0.25,-1.22 3.99,-0.69 3.8,0.38 -1.81,10.38 -11.23,15.18 -15.76,17.72"
           fill="#ffffff"
           stroke="#000000"
           stroke-width="2"
           id="path747" /><path
           d="m 152.1,315.3 c 4.67,-4.95 7.24,-10.79 10.08,-16.88 4.02,3.06 3.65,10.45 0.26,14.2 -3.39,3.75 -7.51,5.04 -10.34,2.68 z m -3,-0.1 c -4.73,-4.52 -8.69,-9.3 -11.82,-14.96 -3.82,3.32 -2.61,9.18 1.01,12.7 3.62,3.52 8.14,4.79 10.81,2.26 z m 18,-2 c 4.06,-5.31 6.74,-11.16 9.07,-17.3 4.24,2.75 4.42,9.01 1.32,13.01 -3.1,3.99 -7.39,6.44 -10.39,4.3 z m -35.5,-0.4 c -3.7,-5.27 -7.18,-10.63 -9.13,-16.73 -4.4,2.49 -4.14,8.2 -1.29,12.37 2.85,4.17 7.29,6.31 10.41,4.35 z"
           fill="#ffffff"
           stroke="#000000"
           stroke-width="2"
           id="path749" /><path
           d="m 200.1,168.9 c -4.57,2.95 -7.78,7.89 -10.75,12.41 -11.45,18.87 -13.57,42.28 -8.66,63.53 1.99,10.91 6.4,21.73 5.07,32.98 0.62,3.67 -5.48,6.5 -4.02,9.05 4.93,-3.02 6.69,-9.18 6.28,-14.7 -0.84,-12.97 -5.71,-25.27 -7.12,-38.18 -2.56,-20.41 1.95,-42.45 15.16,-58.6 1.36,-1.61 3.31,-4.15 2.38,-0.57 -1.27,11.44 1.36,23.12 7.11,33.06 6.12,10.61 13.44,21.01 15.46,33.38 2.31,11.47 1.53,24.56 -6.25,33.9 -2.87,4.8 -9.26,4.89 -13.23,6.69 1.66,2.55 6.3,0.58 8.81,-0.17 8.71,-3.95 13.05,-13.6 14.67,-22.53 1.72,-13.14 -1.32,-26.74 -7.9,-38.2 -6.18,-10.93 -14.4,-21.35 -15.92,-34.22 -0.96,-5.68 -0.56,-11.47 -0.19,-17.17 0.03,-1.22 -0.22,-1.35 -0.89,-0.67 z"
           id="path751" /><g
           fill="none"
           stroke="#000000"
           stroke-width="1.5"
           id="g757"><path
             d="m 112.7,269.8 c 5.24,7.27 11.77,7.33 17.41,5.03 m 38.79,-0.33 c 4.08,1.85 11.73,0.87 18.08,-3.19"
             stroke-width="2"
             id="path753" /><path
             d="m 87.39,242 c -3.33,6.58 -5.03,24.25 1.63,34.58 m 32.27,6.22 c -3.4,-0.84 -5.17,-1.81 -7.59,-3.76 m 6.49,0.16 c -2.34,-0.72 -5.47,-2.53 -7.36,-4.79 m 54.56,3.19 c 1.25,1.02 4.72,2.09 7.79,1.9 m -10.09,2.4 c 1.32,1.27 5.49,2.66 9.62,3 m 17.68,-22 c 1.75,9.81 1.02,17.6 -3.15,22.5 M 168.9,274.5 c -1.65,3.45 -3.56,6.61 -5.55,10.75"
             id="path755" /></g><path
           d="m 196.2,180.7 c -3.94,15.14 0.99,30.66 5.88,44.95 3.78,11.71 9.46,23.46 8.43,36.07 -0.98,12 -6.81,24.89 -18.27,30.11 -9.56,3.82 -21.1,1.42 -28.96,-5.04 -2.07,-4.21 3.38,-0.8 5.41,0.34 8.59,4.84 20.66,5.42 28.68,-1.26 8.74,-7.56 12.13,-19.87 11.39,-31.1 -1.88,-14.58 -8.71,-27.89 -12.31,-42.05 -2.85,-10.46 -4.53,-21.69 -1.7,-32.35 0.2,-0.98 1.73,-0.56 1.45,0.33 z"
           id="path759" /></g></g></g><g
     id="g2999"
     inkscape:label="Löwenkopf"><path
       d="m 383,337.5 c 3.01,-10.34 7.36,-21.57 13.24,-35.99"
       stroke-linecap="round"
       stroke-linejoin="miter"
       id="path962"
       style="display:inline" /><use
       stroke="#000000"
       stroke-width="3"
       x="0"
       xlink:href="#d"
       y="0"
       id="use765"
       transform="translate(0.1,1.4)"
       style="display:inline" /><g
       id="d"
       transform="translate(1.9,-4.5)"
       style="display:inline"><path
         d="m 273.8,516.9 c 2.59,0.97 7.42,0.22 7.66,-6.66 -4.31,-2.57 -8.23,-9.8 -6.46,-14.64 -1.39,3.54 -2.51,5.91 -6.79,6.39 -5.92,0.68 -12.62,-2.27 -12.08,-9.72 -2.4,-1.07 -4.14,-3.37 -4.61,-7.17 9.09,4.31 11.97,0.36 13.85,-4.8 h 145.2 c -0.13,7.78 -1.83,13.92 4.53,12.47 -2.63,3.63 -6.67,4.55 -10.02,2.51 -4.66,4.27 -8,4.28 -10.54,2.04 -4.29,3.17 -8.25,1.34 -11.4,-2.44 -2.11,1.42 -7.05,0.53 -8.17,-2.26 0.95,2.14 1.82,4.1 1.82,7.29 0,8.75 -7.46,11.46 -7.46,16.86 0,3.93 2.85,8.39 8.25,6.75 -2.21,5.65 -12.96,6.62 -17.03,-1.16 -4.75,1.15 -9.32,-0.31 -11.73,-4.5 -4,1.96 -9.77,-3.5 -9.6,-7.83 -0.76,8.84 -0.62,17.62 -14.35,19.98 -2.97,3.36 -7.14,5.31 -12.88,4.56 6.35,-4.52 4.37,-8.77 2.59,-14.71 -6.64,-0.77 -12.12,-8.9 -10.24,-14.64 -2.32,7.79 -4.29,14.73 -14.6,13.79 -8.18,7.07 -14.47,-0.02 -16,-2.1"
         fill="#d22"
         id="path767"
         style="fill:#da121a" /><path
         d="m 428.6,460.2 c -0.4,0 -0.8,-0.01 -1.19,-0.04 -2.17,6.59 -5.71,7.58 -9.34,6.15 -1.96,3.69 -7.9,5.34 -9.96,1.21 2.2,4.13 2.57,8.66 2.5,12.75 h -145.2 c 1.09,-2.99 1.84,-6.39 3.28,-8.84 -6.43,9.12 -18,-4.66 -15.6,-11.54 1.23,1.83 2.44,2.39 4.44,2.39 5.35,0 6.99,-14.77 13.01,-17.16 -5.23,1.47 -9.28,-1.09 -9.02,-7.76 1.37,0.97 2.9,1.61 4.64,1.9 -1.41,-0.35 -3.22,-2.52 -3.78,-4.96 h 155.7 c 3.71,7.45 5.08,16.98 10.95,16.98 2.98,0 4.57,-1.11 6.58,-5.08 2.96,7.43 -1.42,14 -7.01,14 z"
         fill="#ffffff"
         id="path769" /><path
         d="m 430.7,409.6 c 0,9.88 -4.01,13.69 -9.23,14.18 -0.42,3.16 -2.93,5.25 -6.14,6.09 1.09,1.3 2,2.81 2.8,4.43 h -155.7 c -0.5,-2.18 0.02,-4.58 2.75,-6.07 0,2.97 3.55,5.22 7.81,5.22 5.73,0 5.91,-7.16 15.36,-7.16 1.74,0 4.64,0.51 5.99,2.42 -1.36,-1.65 -1.36,-4.18 -0.42,-5.72 1.12,-1.81 3.22,-2.65 6.5,-1.16 5.33,2.43 15.82,5.41 25.92,5.41 1.07,0 2.12,-0.02 3.16,-0.09 2.01,-4.55 3.15,-8.8 3.58,-12.8 -5.73,-2.19 -12.92,-3.79 -20.14,-3.79 -13.25,0 -17.71,2.35 -30.28,2.35 -3.85,0 -7.77,-0.53 -11.45,-1.5 -0.01,0 -0.01,0 -0.02,-0.01 -10.12,-2.69 -18.39,-8.81 -18.39,-16.79 0,-5.53 2.88,-11.12 10.06,-13 0.24,8.69 2.74,14.18 7.25,17.53 0.01,0.01 0.03,0.02 0.04,0.03 6.22,4.62 16.28,5.15 29.54,4.37 15.37,-0.91 24.93,0.22 33.44,4.01 -0.71,-7.84 -2.89,-16.86 -8.26,-22.32 0.3,-0.87 0.77,-1.69 1.39,-2.42 0.53,-0.62 1.17,-1.18 1.89,-1.64 0.63,-0.4 1.34,-0.73 2.1,-0.98 4.22,1.43 7.98,4.1 10.72,8.14 h 72.78 c -0.19,3.68 -3.32,7.29 -8.37,5.71 5.95,1.89 12.51,4.92 13.77,17.37 3.47,1.75 7.17,1.92 11.58,-1.81 z"
         fill="#d22"
         id="path771"
         style="fill:#da121a" /><use
         fill="none"
         stroke="#000000"
         stroke-width="2"
         transform="translate(1.3,0.73)"
         xlink:href="#f"
         id="use773" /><path
         d="m 413.6,386.5 c 1.16,3.15 -3.12,1.39 -4.91,1.84 h -67.71 c -2.97,-3.71 -8.38,-9.99 -13.35,-6.8 -2.79,2.24 -2.94,7.27 -7.14,3.13 -2.33,-5.49 -6.92,1.1 -7.31,4.59 -3.56,-1.01 -5.13,-6.89 -7.69,-1.49 -2.76,3.09 -2.21,11.06 -7.14,5.51 -2.86,-3.43 -1.44,6.49 -4.37,2.32 -5.02,-3.03 -2.56,-9.77 -7.1,-12.75 -2.88,-4.81 -2.96,-11.06 -0.86,-16.18 -4.22,-4.79 -2.08,-12.42 4.3,-13.95 4.36,-2.13 9.62,-2.44 13.45,-5.54 2.07,-3.63 8.53,-1.77 12.53,-2.82 20.28,-1.4 40.67,-1.56 60.97,-0.44 7.1,-1.16 9.68,6.44 14.67,9.9 3.09,3.94 11.17,6.15 11.73,-0.97 2.99,3.97 1.09,12.06 -4.93,10.69 5.18,0.14 7.61,5.87 6.47,9.57 3.29,3.35 8.42,5.46 12.76,2.76 2.37,-1.26 3.92,-5.7 4.54,-0.79 1.98,6.08 -3.13,10.96 -8.9,11.42 z"
         fill="#ffffff"
         id="path775" /><path
         d="m 397.1,305.4 c -2.23,4.26 -11.89,29.58 -14.24,39.07 -10.45,-1.53 -31.35,-1.27 -39.66,-1.27 -8.31,0 -28.4,0.8 -38.86,2.33 -2.65,-12.86 -11.53,-34.34 -15.04,-40.13 2.12,-3.37 11.51,-0.92 12.98,4.47 1.34,-1.95 3.51,-3.4 6.04,-3.4 4.12,0 6.45,3 6.45,7.11 0,4.11 -2.55,6.56 -6.66,6.56 -2.38,0 -4.41,-0.66 -5.77,-2.39 7.98,11.56 13.09,10.49 17.66,-0.63 5.88,9.63 13.7,10.27 18.88,-1.28 -1.68,1.97 -4.41,2.78 -6.77,2.78 -4.07,0 -7.36,-3.83 -7.36,-7.9 0,-4.06 2.49,-7.1 6.56,-7.1 2.06,0 4.55,0.97 5.88,2.33 -0.8,-1.18 -1.61,-3.53 -1.61,-5.05 0,-3.57 3.35,-6.17 7.61,-6.17 5.2,0 7.87,2.86 7.87,6.44 0,1.52 -0.81,3.6 -1.6,4.78 1.34,-1.36 3.56,-2.59 5.61,-2.59 4.07,0 6.57,3.3 6.57,7.36 0,4.07 -3.3,7.37 -7.37,7.37 -2.36,0 -5.09,-0.28 -6.77,-2.26 6.35,9.85 13.01,10.63 18.88,1.01 5.01,7.74 11.04,10.72 19.02,-0.85 -1.36,1.74 -3.48,3.12 -5.86,3.12 -4.12,0 -7.18,-2.8 -7.18,-6.91 0,-4.12 3.06,-7.18 7.18,-7.18 2.54,0 5.28,0.91 6.63,2.86 1.13,-4.92 8.8,-5.86 10.91,-2.5"
         fill="#fd1"
         id="path777"
         style="fill:#fcdd09" /><path
         d="m 330,425.8 c -0.18,0.44 -0.37,0.88 -0.56,1.33 -1.03,0.07 -2.09,0.09 -3.16,0.09 -9,0 -18.29,-2.37 -23.98,-4.61 -0.71,-0.27 -1.35,-0.55 -1.95,-0.82 -0.93,-0.42 -1.77,-0.66 -2.51,-0.73 0.9,-2.6 2.2,-5.02 6.82,-5.65 -0.6,1.54 -0.43,3.06 0.51,3.99 1.45,-1 3.22,-1.51 5.22,-1.17 -0.4,1.45 0,3 2,4.22 1.53,-1.53 3.7,-2.71 5.81,-2.56 0.09,2.18 1.84,3.42 3.66,4.32 1.03,-1.38 2.55,-2.44 4.16,-2.44 0.17,1.57 0.58,3.1 3.99,4.02 z"
         fill="#ffffff"
         id="path779" /><path
         d="m 322.3,357.2 c -1.99,-0.52 -2.18,-1.32 -2.06,-1.81 0.25,-0.99 2.57,-0.34 2.85,-1.45 0.29,-1.12 -1.02,-3.31 -2.91,-3.8 -0.86,-0.22 -2.36,-0.71 -3.31,-0.11 1.11,-0.89 2.68,-1.19 4.28,-0.3 0.31,0.17 0.64,0.36 0.99,0.55 1.34,0.73 2.97,1.6 4.75,2.45 1.23,1.46 -1.69,5.2 -4.58,4.47 z"
         id="path781" /><circle
         cx="291.20001"
         cy="378.5"
         r="1.2"
         id="circle783" /><circle
         cx="293.29999"
         cy="382.39999"
         r="1.2"
         id="circle785" /><circle
         cx="297.39999"
         cy="381.39999"
         r="1.2"
         id="circle787" /><circle
         cx="300.10001"
         cy="377.5"
         r="1.2"
         id="circle789" /><circle
         cx="296.10001"
         cy="375.70001"
         r="1.2"
         id="circle791" /><circle
         cx="292.20001"
         cy="373.79999"
         r="1.2"
         id="circle793" /><circle
         cx="295.39999"
         cy="370.60001"
         r="1.2"
         id="circle795" /><circle
         cx="298.20001"
         cy="367.5"
         r="1.2"
         id="circle797" /><circle
         cx="300.5"
         cy="372"
         r="1.2"
         id="circle799" /><path
         d="m 287.9,444.4 c 0,0 -0.09,0.09 -0.24,0.24 -0.17,0.15 -0.33,0.35 -0.55,0.6 -0.23,0.25 -0.47,0.56 -0.71,0.89 -0.25,0.33 -0.48,0.7 -0.68,1.09 -0.43,0.76 -0.72,1.6 -0.9,2.25 -0.18,0.65 -0.27,1.1 -0.27,1.1 -0.07,0.36 -0.42,0.59 -0.78,0.52 -0.29,-0.06 -0.5,-0.31 -0.53,-0.59 v -0.02 c 0,0 -0.05,-0.52 0.05,-1.31 0.06,-0.39 0.13,-0.85 0.28,-1.33 0.15,-0.48 0.35,-0.97 0.6,-1.45 0.26,-0.47 0.57,-0.91 0.88,-1.3 0.31,-0.4 0.66,-0.7 0.96,-0.97 0.3,-0.26 0.6,-0.47 0.77,-0.57 0.18,-0.11 0.29,-0.18 0.29,-0.18 0.31,-0.19 0.72,-0.09 0.91,0.22 0.16,0.26 0.12,0.59 -0.09,0.8 z"
         id="path801" /><path
         d="m 288.5,452.6 c -1.2,1.36 -1.94,3.05 -2.56,4.73 -0.63,1.79 -1.08,3.64 -1.35,5.52 -0.1,0.52 -0.84,0.69 -1.15,0.26 -0.26,-0.36 -0.14,-0.83 -0.17,-1.24 0.07,-2.54 0.84,-5.04 2.02,-7.28 0.62,-1.12 1.36,-2.21 2.39,-2.99 0.45,-0.29 1.09,0.17 0.97,0.69 -0.02,0.12 -0.07,0.23 -0.15,0.31 z"
         id="path803" /><path
         d="m 306.7,456.2 c -1.96,1.18 -3.84,2.63 -5.11,4.56 -0.42,0.67 -0.75,1.4 -0.89,2.18 -0.07,0.52 -0.07,1.05 0.04,1.56 0.17,0.77 0.54,1.5 1.01,2.13 0.29,0.4 0.69,0.73 0.89,1.19 0.23,0.67 -0.53,1.36 -1.17,1.06 -0.48,-0.24 -0.7,-0.78 -1.05,-1.16 -0.39,-0.53 -0.71,-1.12 -0.96,-1.73 -0.22,-0.6 -0.38,-1.21 -0.41,-1.85 -0.05,-0.74 0.06,-1.48 0.28,-2.18 0.26,-0.83 0.69,-1.61 1.2,-2.31 1.45,-1.95 3.46,-3.43 5.57,-4.6 0.74,-0.33 1.28,0.74 0.6,1.15 z"
         id="path805" /><path
         d="m 304.5,462.8 c -1.12,0.08 -1.64,1.42 -2.29,2.2 -2.01,3.18 -2.05,7.05 -2.93,10.59 -0.53,2.29 -1.82,4.45 -3.84,5.71 -0.84,0.26 -1.97,1.41 -0.8,2.06 1.74,0.46 3.52,0.88 5.33,0.87 1.83,0.03 3.66,-0.51 5.11,-1.64 2.4,-2.01 3.49,-5.06 4.48,-7.93 0.25,-0.67 -0.67,-1.18 -1.12,-0.62 -0.97,1.77 -1.78,3.63 -2.97,5.27 -1.03,1.51 -2.66,2.65 -4.49,2.9 -1.22,0.2 -2.46,0.12 -3.68,-0.07 2.2,-1.66 3.39,-4.31 3.91,-6.96 0.71,-3.43 0.89,-7.15 2.94,-10.12 0.48,-0.61 1.6,-1.79 0.35,-2.24 z"
         id="path807" /><path
         d="m 331.5,469.2 c -0.97,0.38 -1.4,1.54 -1.85,2.42 -1.33,3.42 -0.95,7.23 -2.2,10.68 -0.67,2.04 -2.12,3.77 -3.96,4.87 -0.95,0.69 0.02,1.69 0.84,1.86 2.82,1.42 6.3,1.34 9.07,-0.16 1.55,-0.79 2.89,-1.94 4.01,-3.26 1.89,-2.19 3.21,-4.81 4.18,-7.52 0.69,-1.9 1.16,-3.87 1.55,-5.85 0.05,-0.86 -1.3,-0.86 -1.33,-0.03 -0.61,2.18 -1.3,4.34 -2.25,6.4 -1.45,3.17 -3.44,6.27 -6.47,8.13 -2.14,1.34 -4.86,1.73 -7.27,0.93 2.5,-1.96 3.68,-5.12 4.02,-8.19 0.42,-2.71 0.25,-5.6 1.45,-8.13 0.23,-0.66 1.41,-1.4 0.55,-2.06 -0.11,-0.06 -0.24,-0.1 -0.36,-0.09 z"
         id="path809" /><path
         d="m 326.5,464.1 c -1.36,2.43 -2.58,5.08 -2.64,7.92 -0.05,1.98 0.61,3.94 1.78,5.53 0.96,1.4 2.26,2.52 3.56,3.6 0.55,0.52 0.09,1.57 -0.69,1.48 -0.75,-0.2 -1.3,-0.84 -1.94,-1.25 -1.67,-1.39 -3.15,-3.08 -3.94,-5.13 -0.98,-2.33 -0.93,-5 -0.16,-7.38 0.64,-2.02 1.72,-3.89 3.03,-5.56 0.52,-0.5 1.37,0.17 1.01,0.79 z"
         id="path811" /><path
         d="m 349.5,456 c -0.8,2.05 -0.96,4.31 -0.64,6.48 0.26,1.82 0.88,3.58 1.65,5.24 0.19,0.5 -0.39,1.04 -0.87,0.81 -0.39,-0.19 -0.52,-0.66 -0.77,-0.99 -1.55,-2.64 -2.22,-5.83 -1.71,-8.86 0.22,-1.16 0.59,-2.32 1.22,-3.32 0.32,-0.43 1.08,-0.23 1.15,0.3 0.02,0.11 0.01,0.23 -0.03,0.34 z"
         id="path813" /><path
         d="m 352.8,465.9 c -0.77,-0.08 -0.91,0.91 -0.39,1.31 1.36,1.82 2.2,4.01 2.56,6.24 0.28,1.97 0.06,4.1 -1.09,5.77 -0.61,0.96 -1.51,1.71 -2.47,2.3 -1.66,1.04 -3.57,1.57 -5.47,1.96 2.06,-3.7 2.59,-8.14 1.86,-12.28 -0.42,-0.95 -1.65,-0.08 -1.2,0.74 0.48,4.24 -0.46,8.74 -3.09,12.16 -0.71,0.79 0.29,1.76 1.16,1.45 2.72,-0.21 5.48,-0.85 7.79,-2.35 1.06,-0.65 1.97,-1.52 2.72,-2.51 0.45,-0.69 0.86,-1.4 1.13,-2.18 0.72,-2.03 0.63,-4.27 0.08,-6.33 -0.6,-2.25 -1.69,-4.4 -3.26,-6.13 -0.1,-0.08 -0.21,-0.13 -0.33,-0.14 z"
         id="path815" /><path
         d="M 410.6,480.3 H 265.4"
         fill="none"
         stroke="#000000"
         stroke-width="1.3"
         id="path817" /><path
         d="m 295.1,428.1 c -5.43,-6.17 -15,-2.22 -19.43,3.19 -4.62,3.22 -8.13,-2.62 -10.07,-4.72 -5.78,0.2 -2.36,9.24 -5.1,10.82 -3.54,7.56 9.84,8.4 3.13,13.53 -1.97,5.11 -5.22,13.04 -11.07,7.83 -6.08,9.39 8.76,17.37 12.28,18.54 -0.46,8.81 -8.47,8.61 -14.29,7 1.26,6.4 4.36,12.73 8.95,17.64 6.74,6.19 15.21,-5.23 16.89,5.38 5.81,2.14 3.15,9.7 -2.65,7.88 -3.75,4.63 8.95,11.04 13.95,7.42 3.2,-2.8 7.98,-1 11.24,-3.87 4.02,-2.86 4.33,-9.71 7.3,-2.27 3.43,4.06 10.08,4.4 8.67,11.32 -0.74,2.54 -3.94,5.37 -4.88,7.15 0.95,1.19 2.49,1.62 5.77,1.25 9.71,-3.89 25.15,-6.3 24.8,-20.13 4.99,3.45 9.61,4.75 14.73,8.16 6.72,-1.91 9.98,8.17 18.2,4.8 3.34,-1.37 5.79,-6.64 5.79,-6.64 0,0 -3.35,0.68 -5.76,-0.46 -7.47,-7.03 6.25,-12.47 5.41,-20.16 -1.27,-5.48 3.54,-6.14 7.22,-2.26 6.41,0.57 13.66,1.91 19.16,-2.73 4.01,3.02 11.8,-1.84 11.85,-4.77 0,0 -3.79,-0.06 -4.81,-1.65 1.68,-5.91 -5.15,-19.5 4.75,-20.37 3.73,-2.44 10.52,-1.6 11.58,-8.09 7.83,-0.22 11.54,-10.58 7.44,-16.58 -3.14,3.32 -9.6,8.37 -11.82,-0.24 -1.47,-7.66 -10.18,-14.31 -1.69,-19.72 7.34,-1.02 10.79,-9.83 9.04,-16.47 -4.46,1.03 -12.91,5.31 -12.05,-3.85 -0.81,-7.42 -12.33,-8.57 -4.82,-14.76 -0.92,-5.67 8.7,-3.47 8.92,-9.94 1.13,-3.18 -1.93,-9.53 -1.93,-9.53 0,0 -2.09,1.69 -4.56,3.74 -7,3.62 -11.76,-2.4 -12.05,-8.66 -4.26,-2.54 6.16,-8.57 -1.68,-14.29 -4.98,12.17 -15.56,-4.66 -19.62,-8.08 l -2.22,2.04 c 5.15,5.62 15.18,17.98 21.96,11.08 1.37,4.6 -3.27,5.73 -6.06,6.7 1.62,2.62 7.71,2.75 6.54,7.64 -1.25,5.22 7.73,8.94 11.97,7.26 2.73,-1.08 3.37,-1.95 5.11,-2.84 1.38,2.59 0.81,3.11 0.29,4.93 -1.58,5.48 -9.54,2.95 -9.06,7.91 -0.32,3.42 -3.76,5.65 -6.99,4.88 -0.37,3.97 11.86,6.79 11.23,14.34 -0.5,9.75 9.44,5.03 12.67,5.84 0.64,7.67 -9.43,7.38 -10.98,13.38 -9.7,2.64 1.84,11.62 2.09,17.72 1.03,8.35 12.19,9.69 14.96,5.5 0.99,6.09 -3.75,8.51 -8.48,8.6 0.17,6.68 -3.33,7.11 -8.74,6.29 -0.39,4.47 -7.73,4.32 -9.04,1.26 -6.73,0.59 0.74,4.93 -0.13,14.34 -0.18,1.89 0.24,7.93 0.89,9.95 0.97,2.99 2.51,3.08 3.02,3.69 -1.92,0.52 -4.25,1.1 -7.28,0.16 -2.87,2.21 -6.24,4.11 -9.59,2.17 -1.16,-1.07 -7.87,3.93 -10.99,-1.37 -1.3,-2.61 -4.36,3.48 -10.99,-4.9 -2.35,2.82 1.75,7.63 0.52,11.16 -0.79,6.74 -8.95,11.4 -6.26,18.82 1.09,3 5.99,4.46 7.23,4.81 -1.48,1.2 -2.67,1.49 -5.43,1.72 -6.17,0.51 -6.16,-6.48 -12.29,-5.35 -3.45,0.63 -5.65,-1.14 -7.82,-3.82 -2.92,0.48 -7.18,0.33 -9.4,-5.32 -1.12,-2.68 -1.38,-4.85 -2.92,-0.71 -0.79,6.39 -2.76,13.96 -9.97,15.78 -3.5,0.74 -9.21,6.33 -12.08,5.88 2.72,-7 2.29,-14.99 -3.86,-15.64 -4.77,-2.37 -6.88,-6.67 -5.74,-13.85 -5.19,-0.61 -3.93,12.09 -10.35,13.69 -3.91,0.97 -4.56,-2.25 -9.24,1.78 -3.24,2.16 -7.86,1.71 -9.47,-0.95 0,0 2.95,-1.11 4.47,-2.64 4.51,-5.82 -4.09,-9.08 -5.14,-14.28 -0.47,-2.31 0.27,-5.76 0.27,-5.76 0,0 -1.7,-2.19 -4.06,2.01 -3.42,6.1 -15.73,3.43 -16.04,-6.29 -1.38,-0.62 -2.67,-1.93 -2.96,-3.71 -0.08,-0.48 1.71,0.75 4.39,0.91 10.1,0.59 8.63,-12.84 13.4,-18.91 -2.29,-1.63 -6.32,8.95 -14.86,-0.34 -0.16,-0.14 8.57,-1.62 7.68,-2.6 -5.22,2.09 -9.97,1.25 -10.18,-4.14 0,0 3.41,1.82 5.54,0.68 4.72,-2.52 6.47,-10.14 6.47,-10.14 0,0 3.54,-3.42 4.36,-8.71 -3.37,0.71 -7.23,-1.14 -7.5,-4.9 2.11,2.45 10.56,-0.04 3.64,-0.95 -2.98,-0.48 -4.16,-7.83 -1.8,-7.38 5.01,6.86 13.75,3.07 18.18,-2.16 3.99,-2.41 8.34,-0.67 11.95,0.74 z"
         id="path819" /><path
         d="m 427.6,458.4 h -0.05 z"
         id="path821" /><path
         d="m 400.4,413.3 c 3.17,3.18 7.09,5.54 11.22,7.25 3.11,1.23 6.49,2.1 9.86,1.69 1.15,-0.15 2.04,1.26 1.43,2.24 -0.44,0.87 -1.51,0.78 -2.33,0.77 -4.04,-0.06 -7.91,-1.58 -11.42,-3.49 -3.61,-2.03 -7.03,-4.54 -9.7,-7.73 -0.35,-0.59 0.47,-1.22 0.95,-0.73 z"
         id="path823" /><path
         d="m 400,399.4 c 2.85,-0.07 5.58,1.02 7.97,2.5 3.86,2.34 7.05,5.65 11.02,7.82 0.7,0.34 1.63,0.69 1.71,1.61 0.2,1.14 -1.17,2.1 -2.17,1.53 -5.07,-2.83 -8.54,-7.76 -13.58,-10.63 -1.54,-0.87 -3.26,-1.44 -5.03,-1.52 -0.82,-0.08 -0.74,-1.32 0.09,-1.3 z"
         id="path825" /><path
         d="m 401.7,406.2 c 2.29,2.73 4.76,5.36 7.77,7.3 2.71,1.82 5.73,3.11 8.79,4.21 0.98,0.41 0.05,1.74 -0.76,1.15 -4.88,-1.24 -9.53,-3.64 -13.08,-7.26 -1.42,-1.45 -2.69,-3.03 -3.82,-4.71 -0.32,-0.67 0.63,-1.27 1.1,-0.7 z"
         id="path827" /><path
         d="m 401,423.4 c 1.72,2.96 4.88,4.95 8.24,5.46 2.01,0.33 4.09,0.16 6.03,-0.46 1.05,-0.21 2.06,0.96 1.66,1.97 -0.27,0.88 -1.27,1.09 -2.07,1.15 -4.88,0.71 -10.19,-1.08 -13.32,-4.97 -0.66,-0.85 -1.27,-1.76 -1.65,-2.77 -0.07,-0.59 0.8,-0.9 1.11,-0.38 z"
         id="path829" /><path
         d="m 387.7,427.5 c -0.6,-0.04 -0.99,0.85 -0.37,1.22 2.1,1.21 4.18,2.58 5.73,4.47 2.08,2.47 2.58,5.83 2.52,8.97 0.05,2.93 -1.51,5.51 -2.72,8.08 -0.85,1.75 -1.26,3.83 -0.71,5.71 -1.51,0 -3.1,-0.24 -4.09,-1.47 -1.23,-1.73 -1.09,-3.98 -1.14,-6 -0.03,-3.13 0.37,-6.44 -0.99,-9.37 -0.63,-1.05 -1.81,-2.99 -3.17,-2.37 -0.51,0.82 0.6,1.15 0.98,1.67 1.59,1.86 1.51,4.48 1.46,6.78 -0.07,3.23 -0.74,6.67 0.7,9.71 1.07,2.26 3.72,3.18 6.07,3.09 0.99,0.03 3.06,0.08 2.55,-1.48 -0.75,-1.49 -0.71,-3.26 -0.05,-4.78 1.15,-2.79 2.9,-5.46 3.06,-8.56 0.12,-2.86 -0.23,-5.82 -1.46,-8.44 -1.61,-3.38 -4.84,-5.59 -8.11,-7.16 -0.09,-0.05 -0.18,-0.07 -0.27,-0.08 z"
         id="path831" /><path
         d="m 390.9,420.7 c 3.73,0.85 6.68,3.75 8.47,7.03 1.71,3.13 2.3,6.96 1.11,10.37 -0.55,1.58 -1.4,3.06 -2.56,4.26 -0.38,0.99 -2.21,1.59 -2.35,0.16 -0.03,-0.92 0.89,-1.37 1.32,-2.08 1.54,-1.94 2.35,-4.44 2.19,-6.92 -0.22,-4.11 -2.54,-8.03 -5.93,-10.33 -0.75,-0.52 -1.59,-0.9 -2.46,-1.16 -0.9,-0.19 -0.8,-1.5 0.19,-1.32 z"
         id="path833" /><path
         d="m 406.3,434.2 c 1.91,1.15 3.44,2.81 4.92,4.45 1.36,1.56 2.67,3.18 3.65,5.01 0.31,0.52 -0.28,1.18 -0.82,0.93 -0.47,-0.29 -0.69,-0.85 -1.07,-1.24 -1.78,-2.17 -3.66,-4.25 -5.58,-6.28 -0.61,-0.64 -1.25,-1.26 -1.91,-1.86 -0.39,-0.35 -0.13,-1.06 0.38,-1.1 0.15,-0.02 0.31,0.01 0.43,0.09 z"
         id="path835" /><path
         d="m 386.6,460.9 c 1.69,1.62 3.08,3.54 4.01,5.69 1.5,3.43 1.73,7.2 2.12,10.88 0.22,1.98 0.57,3.95 1.31,5.8 0.33,0.96 -1.23,1.19 -1.33,0.23 -1.79,-3.72 -1.7,-7.93 -2.44,-11.9 -0.5,-2.91 -1.56,-5.73 -3.3,-8.12 -0.43,-0.73 -1.2,-1.26 -1.49,-2.06 -0.07,-0.59 0.72,-0.95 1.12,-0.51 z m 19.8,-6.4 c 2.51,3.04 5.29,5.91 8.53,8.17 1.24,0.87 2.6,1.59 4.04,2.06 1.07,0.4 1.43,1.9 0.67,2.75 -0.55,0.69 -1.62,0.82 -2.35,0.33 -2.94,-1.47 -5.29,-3.86 -7.39,-6.34 -1.66,-2.01 -3.2,-4.14 -4.53,-6.38 -0.24,-0.62 0.62,-1.11 1.03,-0.59 z m 3.2,-8.1 c 2.99,4.21 6.65,8.16 11.37,10.42 2.1,0.99 4.39,1.54 6.71,1.59 1.28,0.02 2.1,1.63 1.38,2.68 -0.53,0.94 -1.7,0.9 -2.61,0.67 -4.79,-0.72 -9.06,-3.47 -12.34,-6.96 -2.21,-2.35 -4.08,-5 -5.65,-7.81 -0.26,-0.69 0.73,-1.2 1.14,-0.6 z m -27.95,49.26 c -2.24,-3.39 -3.66,-7.26 -4.54,-11.21 -0.36,-0.62 0.43,-1.43 0.98,-0.83 l 0.06,0.08 0.05,0.1 c 1.41,3.38 3.28,6.61 5.76,9.32 0.45,0.49 1.05,1.5 1.1,2.22 m 7.31,2.08 c -2.56,-3.48 -3.72,-7.71 -4.84,-11.82 -1.13,-4.14 -1.89,-8.39 -3.47,-12.39 -0.2,-1.08 -1.51,-1.83 -1.31,-2.92 0.21,-0.38 0.79,-0.42 1.05,-0.08 1.93,2.16 2.78,5.01 3.76,7.69 1.75,4.99 3.1,10.17 5.65,14.84 0.74,1.31 1.66,2.52 2.8,3.51 m -122.5,-0.31 c 1.34,-3.01 3.14,-7.58 5.34,-10.08 0.72,-0.8 1.51,-1.57 2.42,-2.14 0.52,-0.22 1.09,0.4 0.8,0.9 -0.04,0.07 -0.08,0.14 -0.14,0.19 -1.98,1.68 -3.21,4.03 -4.09,6.43 -0.57,1.51 -1.27,4.4 -1.51,5.8 m 26.38,9.17 c 1.38,-4.05 3.69,-10.21 6.45,-13.55 0.53,-0.65 1.11,-1.26 1.73,-1.82 0.61,-0.42 1.34,0.43 0.84,0.97 -2.51,2.72 -3.97,6.2 -5,9.71 -0.42,1.39 -0.76,2.81 -1.15,4.22 m 38.65,-8.73 c -1.83,2.28 -2.79,5.14 -3.2,8 -0.26,1.66 -0.35,3.34 -0.43,5.02 -0.09,0.91 0.76,6.36 -1.52,6.23 -2.28,-0.13 -1.01,-6.56 -0.88,-7.18 0.49,-3.57 1.21,-7.21 3.1,-10.34 0.58,-0.95 1.25,-1.85 2.02,-2.64 0.59,-0.45 1.36,0.32 0.91,0.91 z m 6.3,0.5 c -1.51,4.4 -2.65,9.05 -2.3,13.73 0.16,2.16 0.74,4.31 1.88,6.16 0.45,0.91 -0.52,2.03 -1.48,1.7 -0.81,-0.23 -0.99,-1.15 -1.33,-1.8 -1.58,-3.84 -1.38,-8.15 -0.56,-12.14 0.6,-2.82 1.51,-5.57 2.63,-8.22 0.39,-0.63 1.41,-0.14 1.16,0.56 z m 54,-1.2 c -3.55,-2.32 -5.23,-6.53 -5.84,-10.57 -0.8,-5.14 0.3,-10.42 -0.9,-15.52 -0.45,-1.96 -1.5,-3.72 -2.8,-5.23 -0.6,-1.32 1.26,-1.2 1.56,-0.19 2.08,2.33 3.08,5.4 3.37,8.47 0.58,4.65 -0.07,9.44 1.27,13.99 0.78,2.73 2.21,5.49 4.73,6.98 m -3.59,-33.93 c 2.99,1.54 5.63,3.79 7.49,6.6 0.54,0.85 0.15,2.11 -0.78,2.51 -0.9,0.45 -2.11,-0.06 -2.41,-1.02 -0.91,-2.48 -2.45,-4.71 -4.36,-6.53 -0.26,-0.3 -0.67,-0.49 -0.82,-0.88 -0.15,-0.5 0.43,-0.96 0.88,-0.68 z m -42.8,62.6 c -2.17,-4.46 -1.91,-9.74 -0.48,-14.38 1.46,-4.59 4.38,-8.76 4.64,-13.69 0.21,-3.57 -0.14,-7.21 -1.29,-10.61 0.22,-1.88 1.84,-0.03 1.72,1.04 1.12,3.84 1.53,7.93 0.98,11.9 -0.85,5.47 -4.38,10.16 -4.78,15.74 -0.3,3.1 0.04,6.35 1.54,9.12 0.41,1.45 -1.68,2.24 -2.33,0.88 z m 14.16,-28.38 c -0.61,-1.92 -1.4,-5.25 -1.55,-7.27 -0.1,-1.3 -0.11,-2.6 0.01,-3.89 0.11,-0.51 0.88,-0.61 1.11,-0.14 0.03,0.06 0.06,0.12 0.07,0.19 0.4,2.39 1.21,4.85 2.38,6.98 0.46,0.85 0.69,2.34 1.73,3.03 m -19.31,-6.41 c 1.13,3.1 1.62,6.49 1.02,9.76 -0.42,2.38 -1.3,4.66 -2.38,6.82 -0.47,0.86 -1.68,-0.05 -1.11,-0.79 1.05,-2.95 2.03,-5.99 2.03,-9.15 0.02,-2.12 -0.36,-4.22 -0.82,-6.28 -0.18,-0.8 1.01,-1.12 1.26,-0.35 z m -101.5,4.1 c 2.36,1.09 5.09,0.84 7.5,0.06 3.89,-1.27 7.3,-3.81 9.83,-7 0.65,-0.79 1.16,-1.68 1.74,-2.52 0.77,-0.7 1.53,0.58 0.81,1.15 -2.45,4.49 -6.44,8.14 -11.16,10.13 -2.92,1.19 -6.29,1.74 -9.31,0.62 -0.91,-0.12 -1.46,-1.25 -0.89,-2 0.32,-0.46 0.95,-0.65 1.47,-0.44 z m 69.8,4.7 c -1.7,2.2 -3.21,4.64 -3.86,7.37 -0.61,2.38 -0.58,4.87 -0.45,7.31 0.03,1 -1.5,0.78 -1.35,-0.15 -0.59,-3.41 -0.45,-7.05 1.03,-10.22 0.88,-1.97 2.2,-3.73 3.73,-5.23 0.59,-0.43 1.35,0.36 0.9,0.93 z m 10.1,-4.4 c -2.06,2.4 -2.49,5.69 -3,8.71 -0.82,5.48 -0.76,11.04 -1.44,16.54 -0.79,5.27 -2.42,10.66 -6,14.74 -1.54,1.44 -3.9,-0.99 -2.45,-2.49 3.88,-4.27 5.46,-10.06 6.21,-15.65 0.74,-5.96 1.13,-12.03 2.89,-17.81 0.63,-1.87 1.41,-3.83 2.96,-5.13 0.67,-0.32 1.31,0.54 0.82,1.09 z m -19.8,7.8 c -1.82,4.12 -2.87,8.68 -2.35,13.19 0.25,2.47 0.96,4.85 1.76,7.18 0.31,1.11 -0.94,2.2 -2,1.74 -0.89,-0.29 -0.99,-1.3 -1.18,-2.08 -1.01,-4.04 -1.33,-8.31 -0.42,-12.4 0.62,-2.89 1.73,-5.66 3.16,-8.24 0.41,-0.54 1.3,-0.02 1.02,0.6 z m -28.2,18.3 c 3.42,-2.6 5.88,-6.21 8.06,-9.86 1.15,-1.94 2.16,-3.96 3.17,-5.97 0.67,-0.73 1.45,0.41 0.89,1.03 -1.71,5.19 -3.75,10.35 -6.94,14.82 -0.85,1.14 -1.74,2.27 -2.81,3.21 -1.04,0.77 -2.7,0.21 -3.05,-1.04 -0.26,-0.78 0.02,-1.69 0.67,-2.19 z m 1.1,-28.2 c -2.51,3.19 -4.08,7.01 -5.23,10.88 -0.97,3.34 -1.54,6.8 -1.6,10.28 -0.08,1.01 -1.5,1.46 -2.15,0.69 -0.61,-0.66 -0.21,-1.59 -0.21,-2.38 0.67,-5.83 2.55,-11.53 5.52,-16.6 0.8,-1.34 1.7,-2.62 2.76,-3.77 0.58,-0.47 1.39,0.32 0.92,0.91 z"
         id="path837" /><path
         d="m 379.8,446.3 c -0.01,1.98 0.07,4.01 0.7,5.91 0.58,1.81 1.64,3.41 2.69,4.97 0.28,0.46 -0.2,1.09 -0.72,0.95 -0.43,-0.13 -0.64,-0.57 -0.95,-0.86 -1.6,-1.83 -2.81,-4.07 -3.14,-6.49 -0.23,-1.56 -0.17,-3.16 0.14,-4.7 0.16,-0.51 0.94,-0.57 1.19,-0.1 0.06,0.1 0.09,0.21 0.09,0.33 z"
         id="path839" /><path
         d="m 374.7,444.7 c -1.26,2.12 -1.68,4.68 -1.24,7.11 0.68,4.04 2.82,7.86 2.42,12.06 -0.27,3.19 -1.91,6.52 -4.93,7.9 -0.93,0.29 -2.24,1.07 -3.03,0.17 -0.7,-1.16 0.77,-1.7 1.66,-1.81 2.63,-0.95 4.05,-3.76 4.29,-6.42 0.46,-4.78 -2.36,-9.14 -2.16,-13.9 0.07,-2.11 0.77,-4.21 2,-5.91 0.53,-0.43 1.3,0.21 0.98,0.81 z"
         id="path841" /><path
         d="m 367.1,459.6 c 2.46,2.13 3.82,5.45 3.53,8.69 -0.22,3.18 -2.06,6.2 -4.8,7.83 -0.93,0.55 -1.92,1.03 -2.98,1.23 -0.76,0.04 -1.19,-1.01 -0.6,-1.51 0.54,-0.37 1.2,-0.52 1.75,-0.88 2.26,-1.21 4.03,-3.37 4.59,-5.9 0.71,-3.02 -0.28,-6.33 -2.42,-8.56 -0.57,-0.6 0.36,-1.49 0.93,-0.9 z"
         id="path843" /><path
         d="m 364.7,470.5 c 0.24,3.37 -0.88,6.79 -2.88,9.48 -1.87,2.53 -4.89,4.21 -8.05,4.26 -1.13,0.04 -2.27,-0.14 -3.35,-0.44 -0.75,-0.28 -0.8,-1.46 -0.07,-1.8 0.64,-0.3 1.33,0.13 1.99,0.14 2.26,0.31 4.63,-0.33 6.39,-1.79 2.71,-2.17 4.34,-5.58 4.49,-9.03 -0.23,-0.77 0.35,-2.02 1.25,-1.32 0.14,0.13 0.23,0.31 0.24,0.5 z"
         id="path845" /><path
         d="M 418.1,434.3 H 262.3"
         fill="none"
         stroke="#000000"
         stroke-width="1.3"
         id="path847" /><path
         d="m 405.8,374.6 c 0,0 -1.55,-0.92 -1.85,-1.22 -1.55,-1.26 -3.33,-2.26 -5.25,-2.83 -0.3,-0.11 -0.63,-0.13 -0.9,-0.29 -0.37,-0.25 -0.3,-0.87 0.11,-1.03 0.11,-0.05 0.23,-0.06 0.35,-0.05 2.23,0.3 4.38,1.09 6.31,2.25"
         id="path849" /><path
         d="m 405.5,393.1 c -2.2,-0.64 -4.48,-1.08 -6.56,-2.09 -1.03,-0.49 -1.94,-1.24 -2.55,-2.21 -0.15,-0.16 -0.37,-0.23 -0.58,-0.2 -0.53,0.07 -0.71,0.77 -0.35,1.14 1.03,1.78 2.91,2.83 4.76,3.59 1.61,0.66 3.28,1.15 4.9,1.76 l 3.42,1.74"
         id="path851" /><path
         d="m 367.6,415.2 c -1.01,-0.25 -1.31,1.13 -0.27,1.32 2.15,1.02 3.23,3.29 3.93,5.44 0.91,2.68 1.34,5.63 3.14,7.91 0.64,0.72 1.55,1.16 2.5,1.3 -1.09,1.72 -3.15,2.89 -5.21,2.53 -2.23,-0.33 -4.03,-1.84 -5.65,-3.3 -0.87,-0.45 -1.37,0.88 -0.55,1.32 1.43,1.78 3.35,3.33 5.62,3.86 2.34,0.52 4.97,-0.26 6.5,-2.15 0.88,-0.99 1.76,-2.26 1.51,-3.65 -0.84,-0.84 -2.26,0.07 -3.07,-0.83 -1.56,-1.89 -1.8,-4.4 -2.57,-6.64 -0.76,-2.48 -1.9,-5.12 -4.25,-6.47 -0.51,-0.29 -1,-0.66 -1.63,-0.62 z"
         id="path853" /><path
         d="m 368,402.9 c 3.6,1.18 6.57,4.18 7.67,7.81 0.83,2.7 0.39,5.74 -1.15,8.11 -0.61,0.96 -1.36,1.85 -2.22,2.59 -0.64,0.4 -1.54,-0.32 -1.25,-1.04 0.35,-0.66 0.98,-1.12 1.34,-1.78 1.43,-1.96 2.06,-4.53 1.5,-6.91 -0.78,-3.36 -3.32,-6.12 -6.39,-7.58 -0.76,-0.34 -0.28,-1.49 0.49,-1.2 z"
         id="path855" /><path
         d="m 366.9,393.3 c 0,0 0.22,0.1 0.62,0.26 0.42,0.2 1,0.48 1.65,0.9 1.29,0.84 2.88,2.26 3.89,4.14 0.25,0.47 0.48,0.95 0.65,1.46 0.04,0.13 0.09,0.24 0.13,0.39 l 0.09,0.35 c 0.06,0.27 0.11,0.54 0.15,0.79 0.14,1.02 0.06,2.01 -0.18,2.83 -0.22,0.82 -0.58,1.44 -0.86,1.85 -0.28,0.41 -0.47,0.61 -0.47,0.61 l -0.05,0.05 c -0.33,0.35 -0.89,0.36 -1.24,0.03 -0.34,-0.33 -0.36,-0.87 -0.05,-1.22 0,0 0.14,-0.16 0.33,-0.46 0.19,-0.3 0.44,-0.75 0.61,-1.34 0.18,-0.59 0.24,-1.33 0.15,-2.12 -0.03,-0.2 -0.06,-0.4 -0.1,-0.58 l -0.08,-0.34 -0.09,-0.29 c -0.12,-0.41 -0.29,-0.82 -0.48,-1.22 -0.78,-1.61 -2.12,-2.93 -3.23,-3.72 -0.55,-0.42 -1.06,-0.69 -1.39,-0.89 l -0.6,-0.3 c -0.32,-0.16 -0.45,-0.55 -0.29,-0.87 0.15,-0.31 0.52,-0.44 0.83,-0.31 z"
         id="path857" /><path
         d="m 381,386 c -1.37,0.29 -0.19,1.64 0.65,1.77 2.77,1.56 5.42,3.84 6.25,7.04 0.92,3.14 0.52,6.53 1.78,9.59 0.64,1.79 2.01,3.61 4.02,3.86 0.55,0.03 0.93,-0.01 0.31,0.48 -1.34,1.45 -3.33,2.64 -5.38,2.17 -2.5,-0.6 -4.27,-2.76 -5.43,-4.94 -0.79,-1.49 -1.32,-3.1 -1.62,-4.76 -0.6,-1.25 -1.73,0.15 -1.16,1.02 0.59,3.73 2.41,7.49 5.64,9.62 1.33,0.86 2.94,1.21 4.5,1.01 -0.56,1.34 -1.29,2.72 -2.56,3.51 -1.18,0.72 -2.68,0.43 -3.82,-0.23 -1.93,-1.12 -3.41,-2.93 -4.35,-4.94 -0.27,-0.6 -1.23,-0.41 -1.24,0.25 0.13,0.72 0.5,1.39 0.82,2.04 1.16,2.11 2.91,4.03 5.2,4.9 1.49,0.58 3.27,0.5 4.62,-0.39 1.88,-1.18 2.92,-3.26 3.58,-5.31 0.05,-0.22 0.13,-0.44 0.2,-0.66 1.92,-1.07 3.39,-2.86 4.41,-4.79 0.31,-0.92 -0.8,-1.42 -1.5,-1.01 -1.14,0.42 -2.58,0.31 -3.36,-0.71 -1.39,-1.74 -1.62,-4.08 -1.92,-6.21 -0.23,-3.08 -0.76,-6.33 -2.8,-8.78 -1.71,-2.11 -4.13,-3.5 -6.62,-4.5 l -0.23,-0.05 z"
         id="path859" /><path
         d="m 369.3,386.5 c 2.67,0.55 5.31,1.9 6.85,4.21 1.32,1.89 1.48,4.45 0.55,6.53 -0.7,1.63 -1.9,3 -3.28,4.1 -0.58,0.38 -1.42,-0.17 -1.31,-0.85 0.09,-0.57 0.66,-0.87 0.99,-1.3 1.19,-1.35 2.21,-3.01 2.22,-4.87 0.01,-1.94 -1.2,-3.68 -2.72,-4.79 -1.12,-0.85 -2.43,-1.4 -3.76,-1.83 -0.68,-0.33 -0.26,-1.41 0.46,-1.21 z"
         id="path861" /><path
         d="m 343,419.9 c -2.03,-1.91 -5.55,-3.92 -9.92,-5.59 -5.73,-2.19 -12.93,-3.79 -20.13,-3.79 -13.26,0 -17.71,2.35 -30.28,2.35 -14.49,0 -29.85,-7.41 -29.85,-18.3 0,-5.52 2.87,-11.12 10.05,-13 0.57,20.68 13.93,23.28 36.82,21.93 15.37,-0.91 24.93,0.21 33.44,4.01 3.99,1.78 7.75,4.17 11.77,7.18"
         fill="none"
         stroke="#000000"
         stroke-width="2.5"
         id="path863" /><path
         d="m 385.2,377.4 c 2,1.07 3.62,2.77 4.87,4.65 1.75,2.67 2.72,6.05 1.87,9.21 -0.43,1.63 -1.33,3.13 -2.52,4.32 -0.61,0.52 -1.66,0 -1.61,-0.8 0.05,-0.72 0.77,-1.11 1.08,-1.71 1.37,-1.87 1.66,-4.35 1.1,-6.56 -0.66,-2.6 -2.13,-4.97 -4.04,-6.83 -0.49,-0.51 -1.09,-0.88 -1.6,-1.35 -0.37,-0.54 0.28,-1.25 0.86,-0.93 z"
         id="path865" /><path
         d="m 370.3,345.9 c -5.02,-0.08 -10.14,2.7 -12.27,7.34 -0.4,1.62 1.19,1.51 1.82,0.49 1.35,-2.81 4.26,-4.62 7.24,-5.29 3.84,-0.74 8.32,-0.46 11.38,2.25 2.64,2.63 3.45,6.5 3.78,10.08 0.36,5.48 0.39,11.48 -2.96,16.13 -1.98,3.04 -6.39,4.09 -9.55,2.38 -0.07,0.02 -0.12,0.05 -0.18,0.07 -0.14,-0.05 -0.28,-0.12 -0.43,-0.17 -2.02,0.19 -0.77,1.73 0.58,2.3 0.73,0.6 1.68,1.15 2.23,1.46 1.88,1.33 3.14,3.88 2.01,6.09 -1.08,1.77 1.63,1.58 1.84,0.07 1.35,-2.4 0.05,-5.27 -1.83,-7.01 2.19,-0.09 4.35,-0.97 5.97,-2.46 3.69,-3.54 4.84,-8.88 4.97,-13.81 0,-5.13 -0.27,-10.65 -3.23,-15.05 -2.4,-3.75 -7.12,-5.06 -11.36,-4.89 z"
         id="path867" /><path
         d="m 383.5,368.1 c 1.5,0.21 2.95,0.74 4.21,1.58 1.57,1.04 2.9,2.5 3.62,4.25 0.47,1.1 0.63,2.32 0.51,3.5 -0.1,0.78 -0.31,1.55 -0.67,2.25 -0.3,0.65 -0.7,1.26 -1.18,1.79 -0.4,0.37 -0.68,1 -1.28,1.04 -0.71,0.07 -1.2,-0.86 -0.73,-1.41 0.44,-0.56 0.91,-1.11 1.23,-1.75 0.37,-0.68 0.61,-1.44 0.67,-2.21 0.08,-0.84 -0.09,-1.68 -0.39,-2.46 -0.72,-1.8 -2.22,-3.21 -3.94,-4.06 -0.78,-0.42 -1.64,-0.66 -2.5,-0.84 -0.67,-0.19 -0.8,-1.21 -0.19,-1.56 0.19,-0.12 0.42,-0.17 0.64,-0.13 z"
         id="path869" /><g
         fill="none"
         stroke="#000000"
         stroke-width="1.8"
         id="g883"><path
           d="m 372.3,353.4 c -4.97,0.82 -6.74,4.97 -6.74,7.55 0,3.41 1.33,5.52 1.33,9.56 0,2.04 -0.27,5.33 -2.98,5.88"
           id="path871" /><path
           d="m 372.2,357.9 c -3.29,0.2 -5.04,1.66 -6.58,3.06"
           id="path873" /><path
           d="m 372.9,362.3 c -2.82,-0.27 -5.17,1 -6.73,2.98"
           id="path875" /><path
           d="m 373.1,366.2 c -3.05,-0.3 -4.96,0.62 -6.41,1.78"
           id="path877" /><path
           d="m 372.8,370.4 c -1.49,-0.55 -3.93,-0.77 -5.96,0.68"
           id="path879" /><path
           d="m 372,374.8 c -1.81,-1.34 -2.87,-1.67 -5.73,-0.5"
           id="path881" /></g><path
         d="m 305.1,342.6 c -3.56,-12.68 -8.1,-26.08 -14.05,-36.89 l 0.23,-0.1 c 0.18,-0.12 0.45,-0.14 0.68,-0.22 0.24,-0.07 0.52,-0.06 0.78,-0.1 0.55,-0.03 1.13,0.01 1.7,0.1 0.29,0.03 0.57,0.12 0.86,0.18 0.29,0.05 0.57,0.17 0.85,0.25 0.29,0.08 0.56,0.2 0.83,0.32 0.85,0.33 1.58,0.85 2.27,1.36 0.21,0.2 0.45,0.37 0.64,0.58 0.18,0.22 0.38,0.42 0.55,0.65 l 0.44,0.71 0.32,0.76 0.06,0.13 c 0.07,0.17 0.19,0.33 0.36,0.44 0.45,0.31 1.07,0.19 1.38,-0.26 l 0.01,-0.01 c 0.78,-1.03 1.82,-1.86 2.96,-2.31 0.57,-0.23 1.16,-0.36 1.75,-0.4 0.54,-0.04 1.32,0.05 1.8,0.17 1.15,0.29 2.09,0.94 2.71,1.87 0.61,0.95 0.93,2.15 0.94,3.4 v 0.42 l -0.03,0.55 c -0.04,0.34 -0.06,0.54 -0.13,0.84 -0.12,0.57 -0.32,1.1 -0.61,1.54 -0.57,0.89 -1.42,1.52 -2.53,1.84 -0.55,0.16 -1.15,0.26 -1.77,0.28 -0.1,0.01 -0.34,0.01 -0.51,0.02 -0.15,-0.01 -0.29,0 -0.45,-0.01 -0.32,-0.01 -0.62,-0.04 -0.92,-0.08 -0.6,-0.1 -1.18,-0.22 -1.7,-0.46 -0.53,-0.24 -1.02,-0.56 -1.48,-0.97 l -0.16,-0.13 c -0.33,-0.28 -0.82,-0.31 -1.19,-0.06 -0.45,0.31 -0.57,0.92 -0.27,1.38 1.22,1.8 2.49,3.58 4.03,5.21 0.39,0.41 0.79,0.81 1.22,1.18 0.43,0.38 0.88,0.75 1.38,1.08 0.49,0.34 1.03,0.63 1.61,0.89 0.6,0.23 1.22,0.44 1.9,0.49 0.67,0.06 1.39,0.02 2.05,-0.18 0.66,-0.19 1.28,-0.48 1.81,-0.84 1.09,-0.72 1.9,-1.63 2.6,-2.56 0.84,-1.13 1.52,-2.31 2.13,-3.5 0.16,0.2 0.32,0.39 0.48,0.59 0.34,0.46 0.75,0.88 1.16,1.3 l 0.61,0.63 0.69,0.58 0.69,0.57 0.77,0.5 c 0.49,0.35 1.07,0.61 1.65,0.86 l 0.43,0.19 0.47,0.13 0.94,0.24 c 0.32,0.06 0.65,0.06 0.98,0.09 0.33,0.02 0.65,0.06 0.98,0 0.66,-0.07 1.31,-0.15 1.91,-0.4 0.3,-0.11 0.63,-0.19 0.9,-0.34 l 0.83,-0.46 c 0.58,-0.28 1,-0.72 1.49,-1.09 0.49,-0.38 0.84,-0.85 1.27,-1.27 0.42,-0.43 0.72,-0.92 1.08,-1.38 0.37,-0.46 0.64,-0.96 0.93,-1.45 0.29,-0.49 0.59,-0.98 0.82,-1.49 l 0.73,-1.52 v -0.01 c 0.23,-0.47 0.14,-1.06 -0.26,-1.44 -0.5,-0.48 -1.28,-0.46 -1.76,0.04 l -0.07,0.08 c -0.86,0.89 -2.01,1.53 -3.3,1.85 -0.64,0.16 -1.3,0.27 -1.96,0.3 -0.65,0.05 -1.36,-0.05 -1.82,-0.18 -0.58,-0.14 -1.12,-0.44 -1.63,-0.77 -0.52,-0.33 -0.98,-0.76 -1.38,-1.24 -0.81,-0.95 -1.36,-2.16 -1.52,-3.39 -0.06,-0.28 -0.05,-0.66 -0.07,-0.88 l 0.02,-0.57 c 0,-0.2 0.03,-0.3 0.04,-0.46 0.07,-0.59 0.22,-1.23 0.46,-1.79 0.48,-1.12 1.32,-1.99 2.4,-2.49 0.54,-0.26 1.15,-0.4 1.78,-0.46 0.15,-0.01 0.34,-0.04 0.46,-0.03 0.21,0 0.37,0 0.5,0.01 0.31,0.02 0.65,0.06 0.97,0.13 1.31,0.23 2.65,0.79 3.6,1.59 l 0.02,0.01 0.06,0.05 c 0.32,0.26 0.78,0.3 1.15,0.07 0.47,-0.29 0.63,-0.91 0.34,-1.38 -0.29,-0.47 -0.54,-1.06 -0.74,-1.65 -0.2,-0.59 -0.36,-1.21 -0.46,-1.8 -0.05,-0.3 -0.08,-0.59 -0.09,-0.86 v -0.15 l 0.02,-0.24 c 0.02,-0.15 0.01,-0.38 0.05,-0.47 0.06,-0.43 0.28,-1 0.55,-1.44 0.55,-0.92 1.45,-1.66 2.5,-2.13 0.53,-0.23 1.09,-0.42 1.67,-0.52 0.57,-0.12 1.21,-0.15 1.75,-0.15 0.33,0.02 0.71,0.01 0.99,0.04 0.29,0.04 0.57,0.05 0.87,0.11 0.6,0.09 1.15,0.28 1.69,0.48 0.52,0.24 1,0.52 1.42,0.87 0.41,0.36 0.76,0.77 1.03,1.24 0.28,0.47 0.45,0.99 0.55,1.54 0.11,0.55 0.12,1.14 0.04,1.66 -0.17,1.15 -0.62,2.41 -1.22,3.42 l -0.02,0.03 c -0.23,0.36 -0.2,0.85 0.09,1.19 0.36,0.42 1,0.47 1.42,0.1 l 0.03,-0.03 c 1,-0.86 2.24,-1.55 3.48,-1.84 0.64,-0.16 1.17,-0.22 1.82,-0.14 l 0.28,0.02 0.2,0.05 c 0.14,0.04 0.26,0.04 0.4,0.09 0.29,0.08 0.56,0.19 0.83,0.31 1.03,0.52 1.89,1.39 2.37,2.51 0.25,0.56 0.42,1.16 0.51,1.78 0.03,0.32 0.08,0.63 0.07,0.95 l 0.01,0.24 v 0.06 l -0.01,0.13 -0.03,0.57 c -0.07,0.49 -0.21,1.12 -0.45,1.66 -0.24,0.55 -0.57,1.06 -0.96,1.52 -0.39,0.46 -0.86,0.85 -1.38,1.16 -0.51,0.31 -1.06,0.57 -1.65,0.71 -0.29,0.09 -0.59,0.12 -0.89,0.16 -0.3,0.02 -0.6,0.05 -0.99,0.04 -0.69,0 -1.39,-0.04 -2.04,-0.13 -1.32,-0.17 -2.44,-0.63 -3.25,-1.46 l -0.13,-0.13 c -0.41,-0.41 -1.07,-0.48 -1.57,-0.15 -0.57,0.38 -0.73,1.16 -0.34,1.73 l 0.9,1.33 c 0.29,0.45 0.63,0.88 0.96,1.31 0.33,0.43 0.65,0.86 1.03,1.26 0.38,0.4 0.71,0.84 1.14,1.2 0.42,0.37 0.8,0.78 1.26,1.12 0.48,0.33 0.89,0.71 1.42,0.98 0.52,0.28 1.02,0.59 1.61,0.77 0.29,0.1 0.57,0.21 0.86,0.3 l 1.38,0.24 h 0.47 l 0.95,-0.02 c 0.61,-0.12 1.26,-0.2 1.82,-0.43 0.57,-0.23 1.16,-0.45 1.64,-0.78 l 0.76,-0.47 0.68,-0.54 0.67,-0.56 0.59,-0.61 c 0.4,-0.4 0.79,-0.81 1.12,-1.25 0.23,-0.31 0.48,-0.61 0.71,-0.91 0.22,0.28 0.44,0.55 0.66,0.83 0.35,0.42 0.75,0.82 1.12,1.23 0.4,0.4 0.83,0.77 1.24,1.15 0.47,0.34 0.92,0.71 1.43,1 0.53,0.28 1.02,0.6 1.62,0.78 0.29,0.1 0.57,0.22 0.87,0.29 l 0.92,0.15 c 0.31,0.07 0.62,0.06 0.93,0.05 0.31,-0.01 0.62,-0.01 0.93,-0.04 0.59,-0.15 1.22,-0.21 1.76,-0.46 0.54,-0.24 1.12,-0.43 1.58,-0.77 0.49,-0.31 0.99,-0.59 1.4,-0.96 0.42,-0.36 0.89,-0.68 1.26,-1.09 l 1.15,-1.17 1.02,-1.24 c 0.7,-0.82 1.25,-1.72 1.88,-2.57 l 0.03,-0.04 c 0.29,-0.4 0.25,-0.96 -0.13,-1.31 -0.4,-0.38 -1.03,-0.36 -1.41,0.05 l -0.07,0.08 c -0.93,0.99 -2.06,1.8 -3.28,2.16 -0.58,0.2 -1.26,0.28 -1.76,0.26 -0.85,-0.04 -1.29,-0.14 -1.94,-0.33 -1.19,-0.4 -2.2,-1.12 -2.86,-2.1 -0.33,-0.49 -0.57,-1.04 -0.72,-1.62 -0.16,-0.58 -0.21,-1.21 -0.18,-1.82 0,-0.43 0.06,-0.65 0.09,-0.93 0.07,-0.3 0.13,-0.6 0.25,-0.88 0.2,-0.57 0.49,-1.1 0.86,-1.58 0.75,-0.94 1.8,-1.64 3.01,-1.95 0.62,-0.16 1.19,-0.24 1.93,-0.23 0.62,0.01 1.33,0.09 1.97,0.24 1.31,0.28 2.52,0.88 3.31,1.81 0.01,0.02 0.03,0.03 0.04,0.05 0.11,0.17 0.27,0.32 0.48,0.39 0.5,0.19 1.07,-0.06 1.26,-0.56 l 0.07,-0.17 0.24,-0.63 c 0.1,-0.2 0.23,-0.38 0.34,-0.58 0.12,-0.19 0.29,-0.34 0.42,-0.52 0.14,-0.17 0.34,-0.3 0.5,-0.45 0.16,-0.16 0.39,-0.25 0.57,-0.39 0.18,-0.14 0.42,-0.2 0.63,-0.31 0.2,-0.11 0.44,-0.16 0.66,-0.24 0.22,-0.09 0.46,-0.12 0.69,-0.17 0.23,-0.06 0.47,-0.08 0.7,-0.09 0.24,-0.03 0.47,-0.03 0.7,-0.02 0.24,-0.01 0.47,0.02 0.69,0.06 0.23,0.02 0.45,0.07 0.66,0.14 0.22,0.05 0.42,0.12 0.6,0.21 0.2,0.07 0.36,0.18 0.52,0.29 0.11,0.05 0.19,0.12 0.26,0.2 -4.89,12.43 -10.26,25.54 -13.59,37.21 -25.49,-1.21 -51.2,-1.85 -76.26,1.07 z m 79.14,2.2 c 3.68,-12.8 8.84,-26.27 14.01,-38.54 0.38,-3.16 -1.97,-4.11 -6.25,-4.08 -3.79,0.03 -4.77,5.2 -8.82,2.29 -4.29,-3.09 -11.11,0.55 -12.22,6.01 -1.05,5.16 3.14,10.45 8.41,10.01 0.26,1.33 -5.16,2.72 -7.7,0.54 -1.8,-1.55 -3.47,-3.97 -5.33,-5.72 -3.21,3.44 -5.14,7.69 -10.14,6.87 -1.94,-0.43 -6.6,-3.69 -1.96,-2.6 5.97,0.28 10.07,-6.31 8.31,-11.84 -1.4,-4.42 -6.65,-7.02 -10.72,-4.79 1.52,-4.74 -2.83,-8.98 -7.52,-9.34 -4.65,-0.35 -10.04,2.7 -9.69,7.86 1.4,3.81 -4.51,-0.18 -7.28,1.76 -5.88,4.12 -6.55,11.46 1.34,16.21 2.84,1.71 8.24,-1.08 5.21,1.59 -2.3,2.73 -6.42,2.38 -8.96,0.03 -1.73,-1.6 -2.97,-3.51 -4.91,-5.49 -2.17,2.92 -2.73,7.93 -7.14,9.03 -2.5,1.08 -9.22,-4.21 -3.48,-2.97 4.83,-0.19 7.51,-5.31 6.78,-9.76 -0.8,-4.82 -6.38,-8.3 -10.58,-6.07 -2.73,1.45 -2.97,2.13 -5.26,-0.36 -2.75,-2.98 -8.03,-4.17 -11.9,-1.39 4.96,12.26 11.26,28.32 14.33,41.84 l 1.69,1.19 c 13,-1.85 26.16,-2.33 39.27,-2.56 12.94,0.12 25.96,-0.25 38.81,1.5 z"
         id="path885" /><path
         d="m 399.9,364.8 c -1.58,-0.43 -4.39,-1.63 -5.62,-2.68 -0.27,-0.25 -0.23,-0.74 0.09,-0.93 0.19,-0.13 0.45,-0.13 0.64,-0.02 1.2,0.69 3.89,1.54 5.28,1.66"
         id="path887" /><path
         d="m 415.4,387.3 c -1.42,0.06 -4.69,0.41 -6.11,0.27 -3.28,-0.21 -6.52,-1.06 -9.43,-2.6 -1.25,-0.66 -2.45,-1.4 -3.6,-2.22 -0.54,-0.53 0.17,-1.42 0.81,-1.01 2.84,1.81 5.97,3.25 9.32,3.73 2,0.29 4.04,0.38 6.05,0.14 0.63,-0.01 3.28,-0.53 3.75,0.07"
         id="path889" /><path
         d="m 259,396.3 c 0.16,2.62 1.43,5.04 2.94,7.13 2.32,3.14 5.63,5.58 9.38,6.69 0.72,0.12 7.79,2.04 13.06,2.79 -0.77,0.39 -7.13,1.37 -13.83,-0.42 -5.31,-1.85 -9.71,-6.06 -11.93,-11.21 -0.67,-1.59 -1.15,-3.3 -1.11,-5.04 0.13,-0.87 1.43,-0.81 1.49,0.07 z m 11.82,1.82 c 3.51,2.94 7.53,5.34 11.98,6.53 5.76,1.61 11.78,1.81 17.72,1.97 1.31,0.5 0.08,1.99 -0.96,1.49 -6.66,0.04 -13.47,-0.1 -19.86,-2.21 -3.87,-1.29 -7.42,-3.43 -10.59,-5.96 -1.01,-1.12 0.53,-2.76 1.71,-1.81 z"
         id="path891" /><path
         d="m 285.1,367.2 c -1.59,-2.48 -2.98,-5.43 -2.4,-8.45 0.55,-3.05 3.14,-5.16 5.75,-6.52 3.95,-2.1 8.38,-3 12.44,-4.84 0.81,-0.4 1.77,-0.89 2.01,-1.8 0.44,-0.65 0.91,-1.56 1.85,-1.34 1.3,0.29 1.16,1.94 0.74,2.88 -0.88,1.91 -3,2.74 -4.84,3.45 -4.28,1.58 -8.92,2.38 -12.82,4.86 -1.68,1.04 -3.1,2.8 -3.07,4.87 0.01,2.21 1.11,4.2 2.15,6.07 0.38,1.1 -1.23,1.83 -1.81,0.82 z"
         id="path893" /><path
         d="m 318.1,344.5 c 3.61,-0.05 8.83,0.81 12.08,2.44 1.93,0.78 1.16,0.95 -0.96,1.1 -3.76,-1.11 -9.05,-2.18 -12.97,-1.57 -2.27,0.35 -3.23,1.6 -4.78,3.36 -0.72,0.71 -1.16,1.62 -1.66,2.49 -0.63,0.79 -1.35,-0.2 0.05,-2.98 1.4,-2.78 3.23,-4.7 8.25,-4.84 z"
         id="path895" /><path
         d="m 296.6,356.1 c 3.28,0.73 3.61,5.29 0.83,6.87 -1.02,2.41 2.49,1.46 4.09,3.54 2.65,3.43 3.72,8.79 1.07,12.44 -2.32,3.95 2.59,-0.93 6.46,-1.69 6.04,-1.19 12.27,-1.65 18.38,-1.09 9.1,1.12 17.26,7.88 19.53,16.84 2.02,7.56 2.39,15.58 1.44,23.34 -0.84,5.69 -3.49,12.31 -9.63,13.91 -10.39,2.91 -21.42,2.89 -32.08,1.69 -3.99,-0.7 -8.45,-1.08 -11.64,-3.82 -2.34,-2.51 0.18,-7.41 3.68,-5.81 10.32,4.42 21.72,7.01 32.98,5.89 5.92,-0.48 12.06,-4.34 13.94,-10.1 2.54,-7.62 1.77,-16.05 -0.48,-23.72 -2.48,-8.57 -10.12,-15.37 -19.04,-16.4 -8.86,-1.17 -17.75,1.39 -25.54,5.51 -3.44,1.82 -8.44,3.49 -11.49,0.17 -3.67,-4.02 -3.41,-10.16 -2.46,-15.25 0.44,-2.33 3.76,-6.26 4.92,-5.9 1.78,3.45 4.01,-4 -0.06,-2.29 -5.43,1.99 -8.55,7.73 -8.47,13.34 -0.44,6.07 2.8,13.53 9.49,14.38 6.27,0.61 11.33,-3.98 17.08,-5.66 8.37,-2.78 18.58,-3.48 25.94,2.19 7.74,5.96 9.46,16.57 8.69,25.75 -0.35,5.65 -2.53,12.16 -8.31,14.32 -6.37,2.23 -13.32,1.55 -19.87,0.67 -5.77,-0.9 -11.4,-2.57 -16.77,-4.83 -5.24,-2.21 -9.38,5 -5.84,8.93 3.77,3.58 9.36,3.94 14.26,4.69 10.74,0.98 21.85,0.92 32.23,-2.3 6.86,-2.22 9.6,-9.84 10.37,-16.37 0.71,-8.45 0.4,-17.24 -2.51,-25.29 -3.6,-9.99 -14.22,-16.21 -24.64,-15.94 -5.92,0.16 -13.7,0.33 -17.13,1.96 0.54,-3.28 -1.17,-10.83 -6.36,-12.84 2.57,-1.92 0.8,-6.76 0.31,-7.79 3.54,-0.33 6.83,-0.11 10.27,0.75 1.93,-1.37 -1.48,-1.93 -2.55,-2.08 -2.08,-0.3 -4.31,-0.45 -6.29,-0.39 -1.7,0.05 -8.54,0.4 -4.83,2.38 z"
         id="path897" /><path
         d="m 311,363 c -1.92,-2.01 -4.45,-3.52 -7.21,-3.99 -1.2,-0.21 -2.43,-0.17 -3.62,0.11 -0.65,0.16 -1.26,-0.6 -0.97,-1.2 0.19,-0.52 0.79,-0.54 1.25,-0.62 2.94,-0.47 5.95,0.43 8.43,2 1.22,0.77 2.34,1.7 3.28,2.78 0.35,0.49 -0.12,1.24 -0.72,1.14 -0.17,-0.02 -0.33,-0.1 -0.45,-0.22 z"
         id="path899" /><path
         d="m 319.8,363.3 c 0.51,3.43 2.33,6.71 5.23,8.66 4.12,2.85 9.61,3.58 14.35,2 2.92,-1 5.72,-3.04 6.73,-6.06 0.6,-1.72 0.44,-3.6 -0.06,-5.33 -0.2,-1.28 1.74,-1.06 1.59,0.13 0.89,2.71 0.58,5.83 -1.05,8.19 -2.44,3.69 -6.92,5.56 -11.22,5.83 -4.79,0.31 -9.8,-1.28 -13.21,-4.72 -2.28,-2.28 -3.57,-5.42 -3.84,-8.61 0.03,-0.86 1.33,-0.95 1.49,-0.1 z"
         id="path901" /><path
         d="m 342.8,361.5 c 0.66,1.44 0.7,3.1 0.36,4.64 -0.23,0.97 -0.59,1.92 -1.16,2.75 -0.32,0.38 -1.02,0.23 -1.13,-0.26 -0.09,-0.38 0.12,-0.74 0.18,-1.1 0.42,-1.59 0.77,-3.23 0.59,-4.88 -0.01,-0.34 -0.13,-0.68 -0.1,-1.02 0.09,-0.44 0.67,-0.69 1.03,-0.41 0.1,0.07 0.18,0.17 0.23,0.28 z"
         id="path903" /><g
         fill="none"
         stroke="#000000"
         id="g914"><path
           d="M 413.7,388.3 H 340.92"
           stroke-width="1.3"
           id="path905" /><g
           stroke-width="2"
           id="g912"><path
             id="f"
             d="m 330.2,380.2 c -2.65,0.85 -4.59,2.77 -5.37,5.03 -0.13,0.39 -0.23,0.78 -0.3,1.18 -3.56,-0.74 -5.29,-2.42 -6.26,-4.47 -0.41,-0.86 -0.69,-1.79 -0.91,-2.74 m -9.16,5.7 c -3.45,2.88 -5.05,6.32 -5.89,10.77 -2.14,-0.86 -3.76,-1.97 -4.94,-3.38 -1.25,-1.49 -2.03,-3.33 -2.44,-5.56 M 318.3,382 c -1.42,0.86 -5.14,4.19 -5.14,7.32 -2.55,-1.03 -4.14,-2.64 -4.97,-4.37 -0.5,-1.04 -0.71,-2.1 -0.71,-3.16 M 297.3,392.3 c -1.13,1.22 -1.4,2.03 -1.64,4.49 -5.23,-2.94 -6.01,-7.59 -6.01,-11.12" /><path
             d="m 325.5,386 c 5.37,5.45 7.01,12.79 7.72,20.62 m -0.29,8.56 c -0.39,3.61 -1.27,6.58 -2.94,10.64"
             stroke-width="3"
             id="path908" /><path
             d="m 342.2,391 c 2.41,6.28 3.62,16.56 1.62,23.28"
             stroke="#000000"
             stroke-width="2"
             id="path910" /></g></g><path
         d="m 328.8,380.1 c 6.04,3.56 9.27,8.63 11.39,14.48 1.03,2.91 1.55,5.99 1.51,9.07 -0.22,1.09 -1.78,0.54 -1.5,-0.45 -0.15,-7.25 -3.72,-14.26 -9.24,-18.92 -1.08,-0.92 -2.28,-1.53 -3.68,-2.41 4.72,4.29 7.31,8.47 8.84,13.87 0.54,1.88 0.8,3.83 0.76,5.78 -0.2,1.05 -1.74,0.58 -1.5,-0.39 -0.1,-4.76 -2.24,-9.27 -5.21,-12.91 -1.41,-1.78 -2.99,-2.77 -4.94,-4.54"
         id="path916" /><g
         fill="none"
         stroke="#000000"
         stroke-width="1.5"
         id="g948"><path
           d="m 306.7,340.6 c 1.92,-0.21 5.11,-0.55 7.3,-0.73"
           id="path918" /><path
           d="m 380.4,339.5 c -5.8,-0.57 -14.05,-0.9 -21.09,-0.97"
           id="path920" /><path
           d="m 311.3,335.4 c -1.74,0.16 -4.47,0.48 -5.99,0.66"
           id="path922" /><path
           d="m 360.8,333.9 c 7.23,0.1 15.5,0.47 21.04,1.11"
           id="path924" /><path
           d="m 362.4,329.2 c 7.44,0.12 15.75,0.55 20.98,1.29"
           id="path926" /><path
           d="m 303.9,331.5 c 1.16,-0.16 3.5,-0.45 4.84,-0.59"
           id="path928" /><path
           d="m 302.9,326.9 c 0.67,-0.1 2.46,-0.34 3.21,-0.43"
           id="path930" /><path
           d="m 379.6,325.3 c 1.76,0.13 3.98,0.41 5.41,0.59"
           id="path932" /><path
           d="m 364.1,324.6 c 1.79,0.04 3.59,0.09 5.36,0.15"
           id="path934" /><path
           d="m 384.1,322.1 c 0.56,0.07 1.66,0.27 1.94,0.3"
           id="path936" /><path
           d="m 386.4,318.7 c 0.2,0.03 1,0.17 1.17,0.2"
           id="path938" /><path
           d="m 387.9,315 c 0.19,0.03 0.97,0.18 1.13,0.21"
           id="path940" /><path
           d="m 376.1,313.4 c 2.18,0.23 4.77,0.54 7.11,0.85"
           id="path942" /><path
           d="m 376.6,309.6 c 5.32,0.66 10.13,1.39 13.71,2.06"
           id="path944" /><path
           d="m 392.2,308 c -0.5,-0.06 -2.08,-0.34 -3.07,-0.5"
           id="path946" /></g><path
         id="e"
         d="m 330,425.8 c -3.4,-0.93 -3.82,-2.46 -3.98,-4.03 -1.62,0 -3.13,1.05 -4.16,2.43 -0.62,0.83 -1.05,1.75 -1.29,2.71 m 1.33,-2.71 c -1.81,-0.89 -3.56,-2.13 -3.66,-4.31 -2.11,-0.15 -4.27,1.02 -5.81,2.55 -0.86,0.86 -1.52,1.82 -1.87,2.73 m 1.84,-2.67 c -2.01,-1.23 -2.4,-2.77 -2.01,-4.22 -1.99,-0.35 -3.77,0.17 -5.22,1.16 -1.2,0.82 -2.17,1.97 -2.87,3.23 m 2.9,-3.27 c -0.93,-0.93 -1.11,-2.44 -0.5,-3.98 -4.62,0.63 -5.91,3.05 -6.82,5.65"
         fill="none"
         stroke="#000000"
         stroke-width="2" /><path
         d="m 319.9,434.1 c -0.39,1.6 -0.45,3.27 -0.42,4.91 0.01,0.88 0.09,1.76 0.16,2.64 -0.02,0.45 -0.6,0.71 -0.95,0.43 -0.3,-0.23 -0.27,-0.64 -0.36,-0.97 -0.39,-2.11 -0.62,-4.27 -0.49,-6.42 0.05,-0.41 0.04,-0.84 0.18,-1.23 0.24,-0.56 1.01,-0.77 1.5,-0.39 0.32,0.23 0.49,0.66 0.39,1.05 z m -4.8,0.2 c -0.74,1.06 -1.24,2.27 -1.7,3.48 -0.31,0.83 -0.56,1.68 -0.77,2.54 -0.16,0.42 -0.79,0.48 -1.04,0.11 -0.22,-0.3 -0.06,-0.68 -0.04,-1.01 0.26,-1.77 0.7,-3.52 1.37,-5.18 0.18,-0.4 0.34,-0.83 0.61,-1.19 0.38,-0.45 1.16,-0.43 1.52,0.04 0.28,0.34 0.3,0.85 0.05,1.21 z m 10.7,-0.5 c -0.24,1.45 -0.12,2.94 0.07,4.39 0.14,1.06 0.38,2.11 0.69,3.13 0.08,0.44 -0.44,0.82 -0.84,0.62 -0.36,-0.16 -0.4,-0.59 -0.56,-0.91 -0.71,-1.88 -1.18,-3.86 -1.35,-5.87 -0.04,-0.59 -0.07,-1.18 0.02,-1.77 0.13,-0.59 0.86,-0.94 1.4,-0.66 0.39,0.18 0.63,0.63 0.56,1.06 z m 5.6,-1.1 c 0.91,2.29 1.38,4.78 1.12,7.24 -0.06,0.35 -0.03,0.72 -0.19,1.04 -0.22,0.38 -0.85,0.36 -1.03,-0.05 -0.14,-0.3 -0.03,-0.64 -0.05,-0.96 0.01,-1.51 -0.26,-3.02 -0.78,-4.44 -0.26,-0.75 -0.61,-1.46 -0.96,-2.18 -0.22,-0.57 0.21,-1.26 0.81,-1.32 0.46,-0.07 0.93,0.22 1.08,0.66 z m 5.7,-1 c 0.75,1.79 1.37,3.69 1.4,5.65 0.03,1.09 -0.07,2.18 -0.2,3.26 -0.11,0.46 -0.79,0.58 -1.05,0.19 -0.21,-0.31 -0.09,-0.7 -0.13,-1.05 0.02,-1.58 -0.11,-3.2 -0.68,-4.69 -0.33,-0.93 -0.79,-1.8 -1.23,-2.68 -0.23,-0.59 0.22,-1.3 0.85,-1.33 0.44,-0.05 0.87,0.23 1.03,0.64 z M 342,430 c 1.54,1.89 2.58,4.15 3.21,6.5 0.14,0.57 0.29,1.14 0.34,1.73 -0.01,0.47 -0.63,0.75 -0.98,0.43 -0.27,-0.24 -0.25,-0.63 -0.38,-0.94 -0.67,-2.13 -1.73,-4.16 -3.19,-5.85 -0.28,-0.36 -0.74,-0.63 -0.78,-1.12 -0.1,-0.62 0.49,-1.21 1.11,-1.12 0.26,0.03 0.51,0.17 0.67,0.37 z m 3.8,-3.7 c 2.14,1.38 4.08,3.1 5.57,5.17 0.41,0.57 0.84,1.13 1.18,1.74 0.17,0.52 -0.54,1 -0.95,0.62 -0.34,-0.34 -0.62,-0.75 -0.94,-1.11 -1.37,-1.64 -3.01,-3.06 -4.86,-4.13 -0.43,-0.27 -0.91,-0.47 -1.31,-0.79 -0.46,-0.46 -0.31,-1.35 0.31,-1.6 0.32,-0.15 0.71,-0.12 1,0.09 z m 2.6,-5.2 c 2.6,0.69 4.97,2.11 6.95,3.9 0.68,0.63 1.36,1.27 1.96,1.98 0.27,0.42 -0.16,1.02 -0.64,0.89 -0.39,-0.12 -0.61,-0.5 -0.93,-0.73 -2.12,-1.87 -4.61,-3.43 -7.4,-4.01 -0.42,-0.07 -0.91,-0.17 -1.11,-0.61 -0.35,-0.61 0.14,-1.46 0.84,-1.47 0.11,-0.01 0.22,0.01 0.33,0.04 z m 1.4,-6.3 c 2.43,0.29 4.71,1.36 6.65,2.83 0.62,0.48 1.23,0.97 1.77,1.53 0.28,0.38 -0.05,0.98 -0.52,0.94 -0.37,-0.03 -0.6,-0.37 -0.9,-0.55 -2.03,-1.5 -4.43,-2.63 -6.98,-2.75 -0.45,0.03 -0.93,-0.2 -1.09,-0.63 -0.26,-0.57 0.16,-1.3 0.78,-1.37 0.1,-0.01 0.2,-0.01 0.29,0 z M 310,434.2 c -1.48,1.23 -2.61,2.93 -2.95,4.84 0,0.38 -0.37,0.71 -0.75,0.61 -0.33,-0.07 -0.51,-0.42 -0.46,-0.73 0.12,-2.27 1.17,-4.43 2.71,-6.08 0.35,-0.47 1.1,-0.52 1.5,-0.1 0.41,0.39 0.39,1.11 -0.05,1.47 z m -7,-0.8 c -1.1,0.43 -2.07,1.17 -2.79,2.11 -0.6,0.76 -1.03,1.63 -1.44,2.49 -0.24,0.38 -0.87,0.32 -1.04,-0.1 -0.15,-0.34 0.08,-0.69 0.17,-1.01 0.55,-1.58 1.39,-3.1 2.67,-4.21 0.52,-0.45 1.09,-0.85 1.71,-1.14 0.57,-0.22 1.26,0.21 1.32,0.82 0.06,0.43 -0.19,0.88 -0.59,1.05 z M 290.2,433 c 1.07,-1.15 2.38,-2.08 3.85,-2.65 0.8,-0.32 1.63,-0.56 2.46,-0.77 0.6,-0.1 1.19,0.46 1.13,1.07 -0.03,0.49 -0.45,0.9 -0.94,0.93 -1.36,0.2 -2.75,0.47 -3.97,1.14 -0.65,0.34 -1.24,0.79 -1.81,1.24 -0.38,0.23 -0.92,-0.09 -0.89,-0.53 0,-0.16 0.07,-0.31 0.18,-0.42 z m 55.7,-46.3 c 1.96,-0.37 3.83,-1.14 5.49,-2.24 0.38,-0.23 0.93,0.11 0.89,0.55 -0.01,0.38 -0.38,0.56 -0.63,0.79 -1.55,1.26 -3.34,2.22 -5.23,2.84 -0.56,0.21 -1.23,-0.19 -1.31,-0.78 -0.1,-0.52 0.27,-1.06 0.79,-1.16 z m 1.9,4.2 c 2.25,-0.26 4.48,-0.84 6.51,-1.85 0.91,-0.45 1.76,-1.02 2.52,-1.7 0.38,-0.29 0.98,0.05 0.94,0.52 -0.03,0.41 -0.44,0.62 -0.68,0.9 -2.01,1.82 -4.55,2.93 -7.13,3.67 -0.68,0.18 -1.36,0.37 -2.06,0.45 -0.69,0.02 -1.21,-0.77 -0.92,-1.39 0.14,-0.33 0.46,-0.57 0.81,-0.61 z m 2.2,18.3 c 2.21,-0.06 4.44,0.36 6.47,1.23 0.34,0.16 0.7,0.31 1.01,0.53 0.35,0.28 0.21,0.9 -0.22,1.02 -0.34,0.11 -0.64,-0.15 -0.96,-0.23 -1.74,-0.58 -3.6,-0.78 -5.43,-0.64 -0.45,0.01 -0.93,0.21 -1.35,-0.04 -0.54,-0.28 -0.68,-1.08 -0.27,-1.52 0.18,-0.22 0.46,-0.35 0.75,-0.35 z m -0.2,-4.9 c 2.61,-0.32 5.24,0.06 7.8,0.61 0.54,0.13 1.08,0.23 1.61,0.4 0.43,0.19 0.43,0.88 0,1.07 -0.33,0.16 -0.68,-0.03 -1.01,-0.04 -2.43,-0.35 -4.92,-0.56 -7.36,-0.19 -0.46,0.05 -0.95,0.29 -1.39,0.04 -0.56,-0.27 -0.71,-1.1 -0.28,-1.55 0.16,-0.18 0.39,-0.3 0.64,-0.33 z m -0.1,-4.7 c 1.76,0.33 3.59,0.37 5.36,0.05 0.86,-0.14 1.7,-0.38 2.54,-0.59 0.47,-0.06 0.83,0.52 0.57,0.91 -0.2,0.31 -0.61,0.34 -0.92,0.49 -1.92,0.72 -3.94,1.2 -6,1.2 -0.65,0 -1.31,-0.02 -1.96,-0.09 -0.6,-0.11 -0.96,-0.84 -0.7,-1.39 0.18,-0.42 0.66,-0.67 1.11,-0.58 z m -0.7,-4.8 c 2.09,0.32 4.31,0.27 6.28,-0.59 0.31,-0.1 0.58,-0.38 0.93,-0.33 0.46,0.06 0.66,0.68 0.33,1 -0.47,0.37 -1.02,0.64 -1.56,0.9 -1.96,0.86 -4.14,1.11 -6.26,1 -0.61,-0.06 -1.03,-0.75 -0.81,-1.32 0.15,-0.45 0.62,-0.73 1.09,-0.66 z m -5.8,-12.2 c 1.92,-0.47 3.84,-1.13 5.43,-2.35 1.36,-1.01 2.51,-2.27 3.68,-3.5 0.39,-0.32 1.03,0.05 0.95,0.54 -0.07,0.39 -0.43,0.64 -0.65,0.96 -1.54,1.91 -3.26,3.77 -5.48,4.9 -1.11,0.59 -2.29,1.02 -3.48,1.4 -0.7,0.19 -1.41,-0.55 -1.19,-1.24 0.09,-0.35 0.39,-0.63 0.74,-0.71 z m -3.6,-3.2 c 2.38,-0.84 4.89,-1.53 6.89,-3.13 1.39,-1.08 2.43,-2.56 3.19,-4.13 0.44,-0.81 1.56,0.09 0.98,0.74 -0.89,2.13 -2.32,4.06 -4.23,5.39 -1.89,1.36 -4.09,2.14 -6.22,3.03 -0.72,0.26 -1.5,-0.53 -1.24,-1.25 0.09,-0.3 0.33,-0.55 0.63,-0.65 z"
         id="path951" /><path
         d="m 314.2,354.5 c -0.31,0.54 0.08,0.61 0.94,1.19 0.43,0.29 1.27,0.55 1.53,0.82 0.93,0.98 0.84,1.76 1.96,2.48 2.41,1.49 5.36,1.61 8.1,1.4 2.22,-0.34 4.58,-1.12 6.04,-2.92 0.37,-0.76 0.43,-1.4 1.35,-0.82 2.99,0.99 5.96,1.73 9.02,0.83 2.21,-0.65 3.54,-2.57 4.18,-4.07 -1.92,1.61 -3.18,2.16 -5.31,2.66 -4.69,1.1 -12.63,-2.33 -18.32,-5.65 -1.34,-0.66 -2.73,-2.47 -5.09,-2.87 -2.43,-0.41 -3.63,0.81 -3.85,2.24 -0.31,2 0.14,3.47 -0.55,4.71 z m 5.09,-3.91 c 4.11,0.98 7.49,3.21 11.08,4.75 1.61,0.73 -0.25,2.04 -1.06,2.38 -2.4,1.16 -5.01,1.16 -7.57,0.67 -1.69,-0.45 -3.35,-1.46 -4.62,-2.7 -0.22,-0.21 -1.63,-0.29 -1.96,-0.96 -0.21,-0.7 1.16,0.53 2.18,-0.97 0.65,-0.96 -0.14,-2.34 0.29,-2.84 0.59,-0.67 1.05,-0.56 1.66,-0.36 z"
         id="path953" /><path
         d="m 326.3,352.9 c 1.23,1.86 -1.03,5.07 -4.04,4.31 -2.18,-0.55 -2.18,-1.32 -2.06,-1.8 0.26,-0.99 2.22,0.68 2.85,-1.45 0.33,-1.12 -2.75,-5.19 -5.62,-3.59"
         stroke="#000000"
         stroke-width="1.5"
         id="path955" /></g></g></svg>
