<?xml version="1.0" encoding="UTF-8" standalone="no"?>
<!-- Created with Inkscape (http://www.inkscape.org/) -->

<svg
   width="113.27287mm"
   height="127.869mm"
   viewBox="0 0 113.27287 127.869"
   version="1.1"
   id="svg5"
   inkscape:version="1.2.2 (732a01da63, 2022-12-09)"
   sodipodi:docname="DEU Landkreis Nienburg, Weser COA.svg"
   xmlns:inkscape="http://www.inkscape.org/namespaces/inkscape"
   xmlns:sodipodi="http://sodipodi.sourceforge.net/DTD/sodipodi-0.dtd"
   xmlns="http://www.w3.org/2000/svg"
   xmlns:svg="http://www.w3.org/2000/svg">
  <sodipodi:namedview
     id="namedview7"
     pagecolor="#9e9e9e"
     bordercolor="#666666"
     borderopacity="1.0"
     inkscape:showpageshadow="2"
     inkscape:pageopacity="0"
     inkscape:pagecheckerboard="0"
     inkscape:deskcolor="#8c8c8c"
     inkscape:document-units="mm"
     showgrid="false"
     inkscape:zoom="1.1075876"
     inkscape:cx="214.42999"
     inkscape:cy="242.41875"
     inkscape:current-layer="layer1" />
  <defs
     id="defs2" />
  <g
     inkscape:label="Ebene 1"
     inkscape:groupmode="layer"
     id="layer1"
     transform="translate(-494.57542,-138.6799)">
    <g
       id="g2890"
       transform="translate(447.65279,56.22437)">
      <path
         id="path2542"
         style="fill:#e50000;fill-opacity:1;stroke:none;stroke-width:0.9;stroke-dasharray:none;stroke-opacity:1"
         d="m 103.55905,82.905534 c -30.435835,0 -56.061691,9.863997 -56.061691,9.863997 0,0 3.470772,9.481799 4.100008,20.021519 0.629237,10.53971 2.473751,52.40869 2.473751,52.40869 h 0.03359 a 49.536629,46.755764 0 0 0 49.454342,44.67479 49.536629,46.755764 0 0 0 49.45383,-44.67479 h 0.0336 c 0,0 1.84451,-41.86898 2.47375,-52.40869 0.62924,-10.53972 4.10053,-20.021519 4.10053,-20.021519 0,0 -25.62586,-9.863997 -56.0617,-9.863997 z" />
      <path
         id="rect2740"
         style="fill:#0031ff;fill-opacity:1;stroke:none;stroke-width:0.899999;stroke-dasharray:none;stroke-opacity:1"
         d="m 52.741484,135.92865 c 0.667304,14.33809 1.329634,29.27109 1.329634,29.27109 h 0.03359 a 49.536629,46.755764 0 0 0 49.454342,44.67479 49.536629,46.755764 0 0 0 49.45383,-44.67479 h 0.0336 c 0,0 0.66233,-14.933 1.32964,-29.27109 z" />
      <path
         id="rect2683"
         style="fill:#ffd500;fill-opacity:1;stroke:none;stroke-width:0.899999;stroke-dasharray:none;stroke-opacity:1"
         d="m 52.741484,135.92865 c 0.667304,14.33809 1.329634,29.27109 1.329634,29.27109 h 0.03359 a 49.536629,46.755764 0 0 0 49.454342,44.67479 v -73.94588 z" />
      <path
         id="path2797"
         style="fill:none;fill-opacity:1;stroke:#000000;stroke-width:0.9;stroke-dasharray:none;stroke-opacity:1"
         d="m 103.55905,82.905534 c -30.435835,0 -56.061691,9.863997 -56.061691,9.863997 0,0 3.470772,9.481799 4.100008,20.021519 0.629237,10.53971 2.473751,52.40869 2.473751,52.40869 h 0.03359 a 49.536629,46.755764 0 0 0 49.454342,44.67479 49.536629,46.755764 0 0 0 49.45383,-44.67479 h 0.0336 c 0,0 1.84451,-41.86898 2.47375,-52.40869 0.62924,-10.53972 4.10053,-20.021519 4.10053,-20.021519 0,0 -25.62586,-9.863997 -56.0617,-9.863997 z" />
      <path
         style="fill:none;fill-opacity:1;stroke:#000000;stroke-width:0.899999;stroke-dasharray:none;stroke-opacity:1"
         d="m 52.746309,135.92854 101.610471,0.31171"
         id="path2799" />
      <path
         style="fill:none;fill-opacity:1;stroke:#000000;stroke-width:0.899999;stroke-dasharray:none;stroke-opacity:1"
         d="m 103.55154,136.08439 0.007,73.79014"
         id="path2801" />
      <g
         id="g1218"
         transform="translate(-181.62057,-3.9644977)">
        <g
           id="g1207"
           transform="matrix(-1,0,0,1,570.72732,0)">
          <path
             style="fill:#cccccc;stroke:#000000;stroke-width:0.7"
             d="m 271.43246,120.77185 26.59005,15.37916 h 27.26556 l -42.5243,-24.60572 c 0,0 -2.16326,-0.87818 -2.16326,-2.29396 0,-1.41579 0.35394,-2.75292 -0.0787,-3.14619 -0.4326,-0.39327 -1.37645,-0.74722 -1.37645,-0.74722 0,0 -2.89534,3.21203 -4.87659,2.67426 -2.75292,-0.74722 -2.14495,-2.50633 -3.3035,-4.56197 -1.4714,-2.61073 -3.10686,-2.79224 -3.10686,-2.79224 0,0 -0.7844,-1.873935 -2.42511,-2.624767 -1.64071,-0.750833 -4.11568,-0.08343 -4.11568,-0.08343 0,0 -1.50166,-2.141264 -3.72635,-2.085647 -2.22469,0.05562 -2.50278,1.41824 -3.5317,1.668517 -1.02891,0.250278 -2.14126,-0.639598 -3.44826,-0.417129 -1.30701,0.222469 -2.33593,0.945493 -2.33593,0.945493 l -1.1031,-2.004337 -1.17982,3.401814 -1.04218,-2.064685 c 0,0 -0.84554,8.298071 -0.25563,9.556541 0.58991,1.25847 1.29781,2.63493 1.37646,3.06753 0.0786,0.4326 0.70261,1.61375 1.06412,2.03088 0.36151,0.41713 1.16796,0.69521 1.47385,1.11234 0.3059,0.41713 3.80979,6.14571 4.33815,6.14571 0.52836,0 2.22469,0.50055 2.97552,-0.19466 0.75083,-0.69522 2.2525,-1.83537 1.77975,-2.64182 -0.47274,-0.80645 -0.77864,-1.66852 -0.9733,-2.91991 -0.19466,-1.25138 -0.19466,-1.9466 -0.19466,-1.9466 0,0 0.76452,-0.72074 0.80385,-2.37248 0.0393,-1.65175 -0.23596,-2.53662 -0.23596,-2.53662 0,0 5.6828,0.29496 5.21087,5.09289 -0.47193,4.79794 -1.45511,6.72498 -1.45511,6.72498 0,0 1.30649,1.98126 4.40466,0.78654 3.00853,-1.16016 3.5198,-3.14618 3.5198,-3.14618 0,0 -0.10546,2.08869 1.04441,3.38825 0.59432,0.67169 1.6054,1.21066 1.6054,1.21066 z"
             id="path1199"
             sodipodi:nodetypes="ccccsscsscscsssccccsssssssscscscscsc" />
          <path
             style="fill:none;stroke:#000000;stroke-width:0.4;stroke-dasharray:none"
             d="m 246.18909,106.18379 h 1.84838 l 0.14748,-1.82872 z"
             id="path1203" />
          <path
             style="fill:#000000;stroke:#000000;stroke-width:0.02;stroke-dasharray:none"
             d="m 268.27138,116.57112 c 0,0 0.20156,-0.526 0.4326,-1.13066 0.16487,-0.43149 0.1966,-0.59482 0.28022,-0.58499 0.0835,0.01 0.0845,0.5773 0.11796,1.00285 0.0561,0.71253 0.0492,1.2044 0.0492,1.2044 z"
             id="path1205"
             sodipodi:nodetypes="cscscc" />
        </g>
        <g
           id="g1197">
          <path
             style="fill:#cccccc;stroke:#000000;stroke-width:0.7"
             d="m 271.43246,120.77185 26.59005,15.37916 h 27.26556 l -42.5243,-24.60572 c 0,0 -2.16326,-0.87818 -2.16326,-2.29396 0,-1.41579 0.35394,-2.75292 -0.0787,-3.14619 -0.4326,-0.39327 -1.37645,-0.74722 -1.37645,-0.74722 0,0 -2.89534,3.21203 -4.87659,2.67426 -2.75292,-0.74722 -2.14495,-2.50633 -3.3035,-4.56197 -1.4714,-2.61073 -3.10686,-2.79224 -3.10686,-2.79224 0,0 -0.7844,-1.873935 -2.42511,-2.624767 -1.64071,-0.750833 -4.11568,-0.08343 -4.11568,-0.08343 0,0 -1.50166,-2.141264 -3.72635,-2.085647 -2.22469,0.05562 -2.50278,1.41824 -3.5317,1.668517 -1.02891,0.250278 -2.14126,-0.639598 -3.44826,-0.417129 -1.30701,0.222469 -2.33593,0.945493 -2.33593,0.945493 l -1.1031,-2.004337 -1.17982,3.401814 -1.04218,-2.064685 c 0,0 -0.84554,8.298071 -0.25563,9.556541 0.58991,1.25847 1.29781,2.63493 1.37646,3.06753 0.0786,0.4326 0.70261,1.61375 1.06412,2.03088 0.36151,0.41713 1.16796,0.69521 1.47385,1.11234 0.3059,0.41713 3.80979,6.14571 4.33815,6.14571 0.52836,0 2.22469,0.50055 2.97552,-0.19466 0.75083,-0.69522 2.2525,-1.83537 1.77975,-2.64182 -0.47274,-0.80645 -0.77864,-1.66852 -0.9733,-2.91991 -0.19466,-1.25138 -0.19466,-1.9466 -0.19466,-1.9466 0,0 0.76452,-0.72074 0.80385,-2.37248 0.0393,-1.65175 -0.23596,-2.53662 -0.23596,-2.53662 0,0 5.6828,0.29496 5.21087,5.09289 -0.47193,4.79794 -1.45511,6.72498 -1.45511,6.72498 0,0 1.30649,1.98126 4.40466,0.78654 3.00853,-1.16016 3.5198,-3.14618 3.5198,-3.14618 0,0 -0.10546,2.08869 1.04441,3.38825 0.59432,0.67169 1.6054,1.21066 1.6054,1.21066 z"
             id="path1011"
             sodipodi:nodetypes="ccccsscsscscsssccccsssssssscscscscsc" />
          <rect
             style="fill:none;stroke:#000000;stroke-width:0.7"
             id="rect1169"
             width="3.3428233"
             height="5.938427"
             x="283.45172"
             y="119.33878" />
          <path
             style="fill:none;stroke:#000000;stroke-width:0.4;stroke-dasharray:none"
             d="m 246.18909,106.18379 h 1.84838 l 0.14748,-1.82872 z"
             id="path1175" />
          <path
             style="fill:#000000;stroke:#000000;stroke-width:0.02;stroke-dasharray:none"
             d="m 268.27138,116.57112 c 0,0 0.20156,-0.526 0.4326,-1.13066 0.16487,-0.43149 0.1966,-0.59482 0.28022,-0.58499 0.0835,0.01 0.0845,0.5773 0.11796,1.00285 0.0561,0.71253 0.0492,1.2044 0.0492,1.2044 z"
             id="path1179"
             sodipodi:nodetypes="cscscc" />
        </g>
      </g>
      <g
         id="g1572"
         transform="translate(-181.49482,-3.7900533)">
        <path
           style="fill:#000000;stroke:none;stroke-width:0.3;stroke-dasharray:none"
           d="m 253.01238,147.22186 c 0,0 -1.92703,-2.92986 -6.25304,-2.73325 -4.12531,0.18749 -4.75861,3.40182 -4.75861,3.40182 0,0 1.44554,-1.18391 3.19534,-0.83571 1.06608,0.21215 1.93687,1.00285 1.91721,1.34696 -0.0174,0.30429 -0.28512,0.55059 -0.79637,0.55059 -0.51126,0 -2.61582,-0.24698 -3.84425,0.77671 -1.53377,1.27814 -1.19948,2.80207 -1.19948,2.80207 0,0 0.99512,-1.30148 2.40879,-1.47477 1.60342,-0.19655 2.75292,0.46209 2.78241,0.8947 0.0295,0.4326 -1.22898,0.90452 -1.81889,1.0815 -0.58991,0.17697 -2.01475,0.54855 -2.68409,1.65174 -0.53091,0.87504 -0.33428,2.47763 -0.33428,2.47763 0,0 0.96746,-1.3754 2.98888,-1.59276 1.30289,-0.1401 2.78241,0.29495 2.8119,0.61941 0.0307,0.33805 -0.67244,0.63669 -1.27813,0.8357 -0.68824,0.22613 -2.37402,0.27589 -3.10686,2.39897 -0.40294,1.16734 -0.20647,2.26132 -0.20647,2.26132 0,0 0.38057,-0.78252 1.29376,-1.39222 0.64851,-0.43297 1.3087,-0.57345 1.3087,-0.57345 0,0 0.67154,0.42207 1.83169,0.62854 1.16016,0.20647 2.61527,-0.30479 2.61527,-0.30479 0,0 1.14257,1.16401 4.50741,2.55444 3.36485,1.39043 4.94994,1.75195 4.94994,1.75195 l 1.14016,1.58509 -4.64404,30.06112 c 0,0 4.11968,5.48184 10.53946,7.89765 5.99499,2.25596 10.28919,1.58509 10.28919,1.58509 0,0 0.51573,-2.29507 0.0936,-7.84622 -0.51141,-6.72482 -4.40388,-29.11144 -4.59854,-30.50187 -0.19466,-1.39043 -0.0278,-3.25361 -0.41713,-4.44938 -0.38932,-1.19577 -1.52948,-3.8654 -3.47608,-5.14459 -1.9466,-1.2792 -15.2574,-10.31399 -15.2574,-10.31399 z"
           id="path1274"
           sodipodi:nodetypes="cscsssscsssscsssscscscscccscsssscc" />
        <path
           id="path1364"
           style="fill:#eb0000;fill-opacity:1;stroke:#eb0000;stroke-width:0.02;stroke-dasharray:none;stroke-opacity:1"
           d="m 246.02581,144.55758 c -3.46826,0.50783 -4.02508,3.33262 -4.02508,3.33262 0,0 1.44536,-1.18381 3.19516,-0.83561 0.0745,0.0148 0.14774,0.0336 0.22014,0.0537 0.22438,-0.22529 0.45389,-0.55929 0.6258,-1.05626 0.1873,-0.54149 0.10643,-1.08941 -0.016,-1.49449 z" />
        <path
           id="path1495"
           style="fill:#eb0000;fill-opacity:1;stroke:#eb0000;stroke-width:0.02;stroke-dasharray:none;stroke-opacity:1"
           d="m 244.95042,148.93716 c -0.80842,0.0407 -1.78326,0.21283 -2.47788,0.79169 -1.53377,1.27813 -1.19941,2.80241 -1.19941,2.80241 0,0 0.99497,-1.30156 2.40864,-1.47485 0.23688,-0.029 0.46255,-0.0374 0.67747,-0.0325 0.48393,-0.25529 0.93838,-0.59127 0.96842,-0.9617 0.0405,-0.49985 -0.16016,-0.87304 -0.37724,-1.125 z" />
        <path
           id="path1554"
           style="fill:#eb0000;fill-opacity:1;stroke:#eb0000;stroke-width:0.02;stroke-dasharray:none;stroke-opacity:1"
           d="m 244.42694,153.09763 c -0.66973,0.20053 -1.86722,0.60043 -2.46548,1.58647 -0.53091,0.87504 -0.33435,2.47788 -0.33435,2.47788 0,0 0.96755,-1.3753 2.98897,-1.59266 0.0947,-0.0102 0.19035,-0.0168 0.28628,-0.0212 0.15747,-0.34039 0.27913,-0.79089 0.23462,-1.33584 -0.0382,-0.46703 -0.36989,-0.84515 -0.71004,-1.11466 z" />
        <path
           id="path1559"
           style="fill:#eb0000;fill-opacity:1;stroke:#eb0000;stroke-width:0.02;stroke-dasharray:none;stroke-opacity:1"
           d="m 244.98298,157.35164 c -0.70806,0.26533 -1.49737,0.78957 -1.93993,2.0717 -0.40294,1.16734 -0.20671,2.26136 -0.20671,2.26136 0,0 0.38079,-0.78298 1.29398,-1.39268 0.3103,-0.20717 0.62146,-0.34574 0.86351,-0.43563 0.22164,-0.39502 0.42829,-0.90509 0.46767,-1.47536 0.0382,-0.55337 -0.19685,-0.85966 -0.47852,-1.02939 z" />
        <path
           style="fill:none;stroke:#000000;stroke-width:0.3;stroke-dasharray:none"
           d="m 253.01238,147.22186 c 0,0 -1.92703,-2.92986 -6.25304,-2.73325 -4.12531,0.18749 -4.75861,3.40182 -4.75861,3.40182 0,0 1.44554,-1.18391 3.19534,-0.83571 1.06608,0.21215 1.93687,1.00285 1.91721,1.34696 -0.0174,0.30429 -0.28512,0.55059 -0.79637,0.55059 -0.51126,0 -2.61582,-0.24698 -3.84425,0.77671 -1.53377,1.27814 -1.19948,2.80207 -1.19948,2.80207 0,0 0.99512,-1.30148 2.40879,-1.47477 1.60342,-0.19655 2.75292,0.46209 2.78241,0.8947 0.0295,0.4326 -1.22898,0.90452 -1.81889,1.0815 -0.58991,0.17697 -2.01475,0.54855 -2.68409,1.65174 -0.53091,0.87504 -0.33428,2.47763 -0.33428,2.47763 0,0 0.96746,-1.3754 2.98888,-1.59276 1.30289,-0.1401 2.78241,0.29495 2.8119,0.61941 0.0307,0.33805 -0.67244,0.63669 -1.27813,0.8357 -0.68824,0.22613 -2.37402,0.27589 -3.10686,2.39897 -0.40294,1.16734 -0.20647,2.26132 -0.20647,2.26132 0,0 0.38057,-0.78252 1.29376,-1.39222 0.64851,-0.43297 1.3087,-0.57345 1.3087,-0.57345 0,0 0.67154,0.42207 1.83169,0.62854 1.16016,0.20647 2.61527,-0.30479 2.61527,-0.30479 0,0 1.14257,1.16401 4.50741,2.55444 3.36485,1.39043 4.94994,1.75195 4.94994,1.75195 l 1.14016,1.58509 -4.64404,30.06112 c 0,0 4.11968,5.48184 10.53946,7.89765 5.99499,2.25596 10.28919,1.58509 10.28919,1.58509 0,0 0.51573,-2.29507 0.0936,-7.84622 -0.51141,-6.72482 -4.40388,-29.11144 -4.59854,-30.50187 -0.19466,-1.39043 -0.0278,-3.25361 -0.41713,-4.44938 -0.38932,-1.19577 -1.52948,-3.8654 -3.47608,-5.14459 -1.9466,-1.2792 -15.2574,-10.31399 -15.2574,-10.31399 z"
           id="path1564"
           sodipodi:nodetypes="cscsssscsssscsssscscscscccscsssscc" />
      </g>
      <path
         style="fill:#cccccc;fill-opacity:1;stroke:#000000;stroke-width:0.7;stroke-dasharray:none;stroke-opacity:1"
         d="m 133.43065,140.5773 c 0,0 -9.28395,-1.49452 -11.05099,11.32627 -1.25754,9.12406 6.04459,21.15166 2.28097,28.07971 -3.51194,6.46475 -10.77568,6.29237 -10.77568,6.29237 0,0 -1.86559,3.7655 -0.9201,8.15926 0.9455,4.39376 2.39154,6.67407 2.39154,6.67407 0,0 12.5695,-1.39043 18.13123,-10.51166 5.56172,-9.12123 1.66851,-18.24246 -0.88988,-24.91653 -2.55839,-6.67407 -4.60568,-10.86729 -4.28253,-15.68406 0.29509,-4.39851 5.11544,-9.41943 5.11544,-9.41943 z"
         id="path1651"
         sodipodi:nodetypes="csscscsssc" />
    </g>
  </g>
</svg>
