<?xml version="1.0" encoding="UTF-8" standalone="no"?>
<svg xmlns="http://www.w3.org/2000/svg" viewBox="0 0 940 1226" width="940" height="1226">
 <g transform="translate(0 736)">
  <path d="m4-731v751c0 123 49 242 136 329 87 87 206 136 330 136 124 0 242-49 330-136 87-87 136-206 136-329v-751" fill="#fcdd09" stroke="#000" stroke-width="8"/>
  <g transform="translate(-6.1-436)">
   <g stroke="#000" stroke-linejoin="round" stroke-linecap="round" stroke-width="6" stroke-miterlimit="1.4">
    <g fill="#da121a">
     <path d="m233 245c70-52.6 85 24.6 49 66-14.2 19.5-30 39-41 58-14.7-17.3-30-32.8-45.5-47.8-56-42.7-18.2-123 37-77z"/>
     <path d="m699-222c45-33.7 89 10.2 47.8 78l-51 54-42-53c-39-38-18-117 45.5-79z"/>
     <path d="m474 733c54-49 86 26.9 51 58-13.5 23.7-28.5 46.9-48 68l-55-62c-41-73 38.5-98 52-64z"/>
     <path d="m238-219c73-44.9 73.9 44 43.8 72l-43 49-52-63.7c-16.6-23-19.8-99 51-57.8z"/>
     <path d="m717 734c31.4-29 77-19.8 33.4 57-17.6 30-27.9 34.9-39.6 66-15-17.8-28-42.6-46-50.9-7.9-54 31.5-51.9 52-72z"/>
    </g>
    <g fill="#0f47af">
     <path d="m197-156l14.8-5.7c15.8 18 45.6 28.6 47.9 50.8 12.2 36 34.8 53 62 62 43.9 21 73 45.9 87 69l5.5 139-139-72c-64-8.1-19-94-28.5-140"/>
     <path d="m395 276c26.6 16.9 48.7 33.8 46.7 50.7-23.5-10.1-47.9 1.2-72 17.7-7.9 8.1-25.8 11.2-41.8 15.3-26.3-2.5-29.7 19.6-42.6 31.4.5 13-10.7 10.4-19.3 11.3-4.9-6.8-15.3 1.5-24 5.6-18 8.3-29 2.8-38.6-4.8-8.1 15.4 2 22.7 24.9 24-22.6-5.7-48.9 11.2-51-43 3.4-30.4-30-32.8-43-8 30.4 14.3 13.8 20.8 14.8 37 .1 2.3 10.6 6.9 10.7 9.3-41.9-21.9-.8 46.5 27.4 31-52-.9-1.8 52.8 0 44.7-8.7-14-1.8-27 28-24.9 39.4-3.5 40-20.3 51-31.4-20.3 18.7-7.4 34.9 0 51 15 8.4 1.4 10.2-.8 15.7-21.4 6.9-33.7 24-46.7 49-4.1 8-10.4 12.3-20.9 9.7-10 1.5-17-4.5-21.7-16.9-3.6-22.8-17.6-28-39-20.9-11-5.2-43.6 16.4-12 36.6 26 29.5-1.7 24-11.3 15.7-27-13.2-37.4 17.8-35.4 48-1.9 27.7 50.7 43.5 41-5.6 3.1 5 7.7 8 16 5.6 39.7-7.7 6.5 20.7 4 22.5-23.7 14.9 2.9 23.6 11.3 34.6 20.3 8.8 42.6 21.9 44-9.7-3.3-7.6 21-56.7 23.3-22.5.6 25 20.3 8.3 31.4 10.5-.7-6.2 8.2-12.3 22.5-18.5-1.4 25.8 12.8 27.3 30.6 23.3-.3-15.3 1.4-29.4 16.9-36-11.3 8-14.4 24-16 41.8 5.7 28.4 51 47.5 63 32.8 2.6-3.3-38-12.5-26.7-35-5-16.5 3-26.4 8-37.8-4.3 23.4-8 46 23.3 42.6-9.7-39 6.7-59 11.3-88l-5.6 46.7c8.3 25.5 24.3 24.8 41 21.7-20.9-7-10.5-24.9-12-38.6-1.9-11 3.9-20.7-8-33.8 17.9-5 10.4-20.9.8-37.8-14-20.7-5.6-37.7 12-53l37.8-45 39 5.6c-4 26-7.6 52 3.2 77l4.8 27.4c-4.5 43-38.5 17-26.6 8-32 24 23 63 41.8 6.4l-1.6 57c-5.6 22.6-40.6 33.7-42.6-4.8-9.9-4.7-44 49.9 27 45 17-7.2 35-12.9 49-35 5-18-5.7-34.4-1.6-56-7.7 13.1 5.7 37 2.4 57 23 23.6 37 11 52 .8-29.8-2-31-18.7-29.4-40 7.4-16-3.5-29.6-4.4-43.5 6.9 32.9 30 47.6 56 58.7 23 9.2 50 31.6 26.6 87 2.1 2.5-19.4 35-33.8 2.4 1.8-10.6-29.5-42.7-46.7 1.6-2.8-4.4-45 25.5.8 32l-5.6 1.6c19.6-.8 31.9 21.6-8 28-34.6 10-19.5 35.9-26.6 54.7-14 26 76 47 53-8 27.4 12.8 29.5-13.6 43-21.7-6 9-17.3 13.4-17.7 27.4 18.3 20.2 53.7 41.5 72 4.8 7.1-15.8-7.4-52 4-54.7 6.6 1.4 13.3 2.5 16.9 12 7.6-19.7 16.7-26.5 28-12.9 8.3-7.3 3.1-18 3.2-27.4 9.5 1.5 14.9-6.1 14.5-26.6 16-3.3 29.5-28 31.4-2.4 11-3.5 6.7-21.3 7.2-34.6l19.3 7.2c-.5-14.5-.1-29.6-16-33 13-2.5 27-6.9 32.6 4.5 3.8-25-14.2-30-23.8-28.6 3.4-5.8 7.4-10.1 16-3.2l-25.7-26.6c9.7 0 19.3 17 29 29 10.2-4.3 26.4.4 29-15.3-21.3-2.1-26-18.6-30.6-35.4l-13.7-8c15.2 6.4 27.7 18 46.7 16.9 16.6 3.6 28.4-20.3 16-39.6-13.3 9.1-27.4 10-45-3.9-10.2-9.7-24.7-2.8-37-4l36-3.2c14.3-12.9 29.6-27.5 12.6-40-6.7 13.6-35.8 11.3-53.6 17 12.5-10.5 33-17.5 32-33.8 5.1-24.3-15-21.3-21.6-21.5 10 16.3-3.5 26.3-23.4 32-7.9 3.1-16.5 9.8-26.6 25.7-3.1 7.6-1.3 19.3-29 6.4-10.5-14-24-20-41-16.9-11.4 2.9-16.6-6.4-21.7-16-4.4-11.6-3.3-17.8-15.3-37-3.7-10.2-5.4-20.4-19.3-30.6 14.4 1.2 25 9.5 34.5 24.4 15 23.6 45.5 8.4 39.5-1.1 97 21.4 105-21 127-60 11.4 2.5 20.5-15.5 19.3-28.9-.6-6.5 10 .5 15.3-15.3 13.6-16 25.4-18 33 12.9 18.9-19.4 16.3-36.6-7.2-51 27-10.7 75-81 20-95 7.4 58.9-23.4 41-36 60l34.6-85c15.5-27.5 3.7-68.9-29.8-45.9 36 20.5-15 52-23.3 78-3.4-16.6 2.2-44 18.5-85 7.7-27-8.1-81-38.6-45 40.7 32.8.9 66-5.6 82-31.6-47.7-71-92-49-162 47.6 20.6 66.9-14.9 84-45 22.9-48.6 60.8-51.6 51-14.3 60-30.7-14.3-66-32.9-53-2.1-8.7 65-84-2.4-146-26.5-3.9-40.6 32.4-14.5 24.9 30.7 40-15.8 53-24.9 80 5.3-37.4 2.6-65.9-29.8-61 13.7 24.3 5.9 42.7-13.7 57.9-34.4-33-35-11-30.6 20l-30.6 57.9c-4.9 15.5-8.8 30.8 4.1 41.9 13.4 9.9 11.6 24 3.9 40-12.4 47-5.3 90 21.7 130-30 .1-35 20.3-29 49 75-56 89 87 84 122-7.9 150-258 128-231-45.9 12.4-8.5-11.4-141-28-132-4.8.8-164 9.7-164 9.7z"/>
    </g>
   </g>
   <path d="m473-145c-13 0-26.4 1.9-39.8 4.6-25.8-1.6-45-8-50.6-4-1.7 1.2 1.7 7.5 1.4 8.5-2.8 8.6 30.8 5.5 49 10-1 28.7-6.3 65 4.1 72 27.6 5.1 54 20 86-8 31.7-29 22.5-64-11.7-76-12.4-5.3-25-7.4-38-7.4m-24 38c13.1.2 26 2.1 39 7.1 6.7 3.2 11.9 11.5-2 7.7-14.9-3.3-28.8-4.6-43-6.5-5.9-1.4-11.7-8.8.3-8.3 1.9 0 3.8 0 5.6 0"/>
   <g stroke="#000" stroke-linejoin="round" stroke-linecap="round" stroke-width="6" stroke-miterlimit="1.4">
    <g fill="#0f47af">
     <path d="m553-267c9.9 6.7 16 14 17 26.6h5c7 9.7 8.8 19.8 10 30 14.8 6.5 20.2-2.1 30-3.4l-12.6 42c26 19.9 47 41.8 42 66l-20-10c5.1 16 14.8 30.5 10 50 2.2 3.3 3 6.9 10.2 10.2 13.2-5.2 57 25.9 23.4 56 5.2-21.5-38-47.9-26 3.8 9.5 10.5-2.9 24.7 28.4 16 12.8 15.5-1.1 19.8-10.2 26.4-5 4.1.4 8.9.6 13 16 16 5 35-1 54-7.1 14.6-11.7 31-40 30 41-18.7.4-59.7-10-90 11.2 24.3 18.9 55.9 0 85-7.1-2.5-7.5-11-7.8-19.8-20.4 50 3.8 87 23.8 49 27 17.9-4.2 40.8-31 40.8-7.9-15-20.9-27.9-21-54.6 4.7 32.4 35.6 53.6 6 95-21.6 32.7-49-9.7-45-20 39.9 10.4 22.7-26.5 14.4-42-4.3-10.7-8.1-29.6-4.4-47.8-2.6 15.9-3.2 38 4.2 48.6-12-2.9-29.9-4.1-34-23.6-12.2 14.5-3.4 30-5 45-19-4.8-54-22-10-75-18.5 13.6-46.7 41-55 40-.1-9.3-.4-18.6 10-30-12 14.7-17.3 35-5 65-32-8-70-50-16.2-86-16.8-4.9-22 20.8-33.8 30.8v-45c-20.5-2.4-44.9-21.4-60 0 1.7-36 27.4-31 45-40-19-.1-28 18-60-5-8.4-7.7-21-8.2-33.9-8.4 3.4-29.7 30.3-28.4 84-31.6-49 8-52.7-5.1-60-30 32 23.8 72-11.8 125 0 23.7 5.8 36-41-12.3-14-4.3-8.1-8.4-13.9-9.7-22.7.4-19.8 9.4-19.5 17-13 19.6 6.7 38.8 10.9 53.7 8.6 74-11.8 79-125-63.7-94-7 3.5-44 .5-41.6-10.4 4.9-20.5 18-17-2-1.3-9.1 7.2-14.4-26 7.8-32-17.7-.4-4.6-22 5-21.8 4.9-5 8.5-4.3 12.4-6.3-1.5-12.5 8.7-30 33.4-33l36-3.2c11.8-5.4 14.9-10.2 9-16.8-.2-2.5.4-4.6 5-5 17.2 9 19.7 14.7 20 20 14.4 18.3 46-5.1 42.8-16.8z"/>
     <path d="m194-88c13.2 3.5 12.2 17.9 5.7 36.5-23.6 12.8-42.6 17.5-37.6-19.4l6.8-15.4c-7.2 24.8-19.5 34-43 9.1-11.1-24 1.6-32.9 10.8-43.9-43 18.2-27.6-17.8-16.5-49.6l24 10.8c41.5 18.6 51.6 45 50.8 74"/>
     <path d="m151-199c8.5-30.4 81-24 65 33.6-7.3 9.8-16 16.9-39.9-1.7z"/>
    </g>
    <g fill="#fff">
     <path d="m68.9-182c19.7-1.4 34.6 4.9 48 15.2 93 70 135 271-53.8 276 25.4 45 23 105 3.4 167 83-5 340-252 89-473-28-9.2-56.9-15.7-81-38.7"/>
     <ellipse cx="35.5" cy="-215" rx="17.3" ry="36.7" transform="matrix(.99568.09289-.1032.99466 0 0)"/>
     <ellipse cx="59" cy="193" rx="24.6" ry="86"/>
    </g>
   </g>
   <path d="m52-191c-8.3-14.7-7.6-28.9 0-42.8 7-4.5 8.8-3.4 7.4 1.1-1.7 5.8-.8 10.8 2 15 3.1 12.3-1.8 6.2-3.4 7.7-9.8-6.7-4.3 12-6 18.8"/>
   <path d="m45 232c-1.5-32.4-4.9-65 6-98 7.4-19.2 11.5-7.8 16 .9 14.4 36 6.8 59.7 5.4 79 .3 1.5-2.8 5.8-4 2.1-.9-2.2-2.7-1.5-5.1 1.1-5.7 4.9-6.2 2.2-3.8-4.7 13.2-14.7 3.2-8.5 1.3-7.8-3-.4-9.2 5-2.6-12.5 4-1.8 8.9-14.3-4.6-4.8-6.4 12-3.3 28.9-2.6 44 3.5 11.5-5.1 14.8-6 .6"/>
   <g stroke-linejoin="round" stroke-linecap="round" stroke-miterlimit="1.4">
    <g stroke="#000">
     <g stroke-width="6">
      <path d="m461 240c-16-5-22.8 6.4-28.5 19.4-14.3 2.2-30 1.9-34 21.7.5 25.9-26 61.8-53 25.7 7-5.4 26.6-4 16-18.8l-8.6-17.7-.6 21.7c5 4.4-15.4 3.1-17.7-23.4l-10.8.6c-2-4.3.5-11.7-6.3-12.5l-9.7 8.6c-2.4-19.3-1.5-33-.6-34-6.3-4.4-10.6 3.3-15.4 7.4.8-7.3 7.2-17-2.3-20-1.9 6.4-.8 9.9-1.1 14.8-12.8-17.3-13.6-19.3-17.6-27.4-1.5-9-11.6-16-19-24 0-6.1 1-12.7-1.6-20.9-6.1 17.6-19.6 28.7-30 6.3-14.8-2.7-30.4-4.2-25.3-33.6-20 6.8-42.6 26.7-55 4.5 8.4-9.6 16.7-19.3-8-33-3.8-9-3.3-15.4 8-15.4h.6c50 5.8 48.9-25 4.6-20-16.5-2.2-21-12.9-18.2-29 17.5-15.4 29-45.8 62-26-5.7 35.5 38 37.5 12.7 5 8.5-34.8 83-7.8 50.8 20.5-13.2 20.8-27.9 36.7 11.4 43.9 51 13.4 100 48 150 72" fill="#0f47af"/>
      <g fill="#da121a">
       <path d="m120 138c.1-14.5 4.2-20.3 9.7-23 11-14 31.4 12.7 13.3 17.7-8 2.7-16 5.3-23 6.9"/>
       <path d="m107 55c.2-25.6 9-39.9 30.6-37.5 16.7-7 34 24.9 5.6 25.8-13.8-7.1-24.4 6.3-36 11.7z"/>
       <path d="m217-14.4c15.5 2.2 25.7 8.7 29.4 20.6 1.9 17.9-17.5 16.9-22 6 1.3-5.2 2-10.9-7.3-26.6z"/>
       <path d="m188-120c-7.2 8.5-9.7 16.3-10.5 23.8.8 23.5 13.3 10.7 19.8 4.4 2.2-12-3-20.4-9.3-28z"/>
       <path d="m176-140c-8.4 4.8-17.5 8.3-21.8 21.4-7.2 17.4 10.6 23.5 15.7 15.3 5.8-10.8 8.8-22.7 6-36.7z"/>
       <path d="m175-141c-7.9 4.2-16 8.2-26 11.3-12.7 1.3-19-23.4-2-24 11.6.6 19.7 7.1 28 12.9z"/>
       <path d="m158-158c-4.1-11.6-4.8-22.6-2.4-33 30.7-16 33-3.3 27.4 16-6.7 7.3-13 14.8-25 16.9z"/>
       <path d="m208 169c-11.7 6.6-16.6 16.5-19.8 27.4 10 6.9 18.9-.1 27.8-8 15.8-19 .7-19.3-8-19.4z"/>
      </g>
      <path d="m105 105c7.1 4.5 14.6 8.6 6 29.8 8.8 8.7 20.8 15.8 6.9 35.9 16 11.3 9 22.6 4.4 33.9 11.4 8.4 7.4 19.4-.4 31 9 7.5-2 13.2-4.4 19.8" fill="#fff"/>
      <path d="m188 170v15.3m-10-9.3v15.3m-10-9.3v15.3m-10-9.3v15.3m-10-11.3v15.3m-8-11.3v15.3" fill="none"/>
     </g>
     <g stroke-width="2">
      <path d="m285 162l8.2 7.2c16.3 4.2 20.3 19.6 38.8 34 8 3.4 11.2 10.9 16.2 17 2.1 2.6 10.6 7.4 14.5 11.6 6.4 5.7 11.6 3.2 16.9 1.6 4.5-10.8 14.8-8.5 28-7.7 4.2 1.6 12 2.2-1.2 8.9-21 .9-26.5 21.2-39 32.7-4.5 5.7-7.5.9-8.5-2.8 0-5.3-.1-10.4-1.6-14-9.2 6.5-8.2-6.5-10.5-13.3-4.6 10-9.8 6.1-9.6-11.2-1.3 7.1-10.6 4.5-8.5-4.5 1.4-3.1 2.1-11.5-3.6-4.8-3 12.9-4.4-1.9-6.5-6-2.2 3-4.3-2.5-6.5-10.9-6.5 9.3-8.4-2.6-11.7-8-4.1-7.5-11-16.7-21.4-21.4-3.7-5.5-5.6-10.2 5.7-8.6z"/>
      <path d="m419 13.3c17.4-5.3 18.4 8 7.4 9.1-11.7 7.2-15.4 12.9-17.7 18.2-1.7 7.3-1.6 12.5 6.8 8.6 4.3-4.3 8.2-4.4 11.4 1.1 10.7 3.3 21 8.8 32.5 6.8 22-.6 15 17.4 8 15.4-6.1 14.7-3.7 17.9-5.1 26 6.8-5.2 13-8 18.8-8l24 1.7c18.2-.6 35.5-3.6 48-17.7 1.7 21-30.6 24-62 27.4-9.4 1.5-20 1.5-23.4 10.3-5 2.3-9.9 5-16-1.1-3.9-12.2-4.2-25.3 2.9-40.5-11-8.2-24-7.2-35.9-10.8-6.4 9.1-17.4 7-26 10.3-1.4-8.5-12.6-35.4 26-57z"/>
     </g>
     <g stroke-width="6">
      <path d="m506 80c-23 6.2-1.9 4.4 3.8 5.4 30.9-2.8 43-15.7 46.9-33 1.2-18-2.2-10.6-5.8-3.3-5 19.9-22 28-45 31z"/>
      <g fill="none">
       <path d="m625 28.5c2.8 24.3 9 31.8 14.8 41.5 22.5 21.7 17.9 34.4 18.8 48.9"/>
       <path d="m468-11.3c25 13.5 50 6.2 75 4-4.5-49.8 7.1-114-12.5-116"/>
       <path d="m523-172c-.6-9.2 1.2-22.3-2.8-26"/>
       <path d="m533-190c.9-33 17.6-44 43-50 8.9 21.7 15.9 43-.6 60"/>
       <path d="m451-203c-1.1 32.8 40 29 54 4"/>
       <path d="m453-174c17.4-4.9 34.5-6.9 51.9-5.7"/>
      </g>
      <ellipse cx="471" cy="-200" rx="11" ry="5.5"/>
     </g>
    </g>
    <g stroke-width="6">
     <ellipse cx="469" cy="-203" rx="4.3" ry="2.1" fill="#fff" stroke="#fff"/>
     <g stroke="#000">
      <path d="m425-210c2.8 7 12.3 6.4 20.5 7.4 32-11 47-.4 59 4.6 4.5-3.5 17.8-.3 25 .4" fill="none"/>
      <path d="m556-222c-6 10-3.9 13.8-5.6 20.5 9.7 2.4 2.5 11.9 3.1 18 3.5-1.1 7-1.6 10.5-1.6-.7-9 .3-16.8-1.6-22.5-2.2-3.9-6.1-7 5.6-17.7z"/>
      <path d="m580-137c.6 5-.7 9.9-4.4 14.9"/>
      <path d="m575-80c1.6 2.4-2 10-4.4 16.5"/>
      <path d="m570-41l-4 7.6"/>
      <path d="m571-23.8c2.2 2.3-10 17.8-11.3 17.3"/>
      <path d="m610 6.4c-.7 9.9-5.6 15.6-9.3 22.5"/>
      <path d="m604-74l-5.2 13.7 4 12.5c2.9-9.7 3.7-18.6 1.2-26z"/>
      <path d="m595-124l-3.6 7.6c1.4 3.6 2.4 8.5 6.8 2.8z"/>
      <path d="m470-16.5c.4 22.9 18.4 13.2 31.8 12"/>
      <path d="m411 344c36-6 70-4.3 80 77 5.9 29.6-37 39-38.6-2.4 2.8-33-2.1-62.8-41.8-74.8z" fill="#0f47af"/>
      <g fill="none">
       <path d="m482 335c26.9 69 8.9 95 4 133"/>
       <path d="m313 580c11.9-8.2 27-8.5 29.8-38.6"/>
       <path d="m272 616c13.6-1.5 29 .2 36-12 8.2-2.8 16.7-9.6 24-4 30.4-1.7 31.4-13.8 21.7-32 20-6-3.5-33 1.6-52 6-8.7 9.9-15.7 19.3-25.7-2.8-2.7 5.2-4.1.8-13.7 20.7 27 12.7-10.5 13.7-22.5 14 36.5 14.4 8.5 16-12.9 17.5 32.8 12.6-16 18.5-25.7 5.7 17 13.2 60 12.9-13.7"/>
      </g>
      <g fill="#da121a">
       <path d="m119 512c16.6-7.4 25 3.7 35.8 10.5 3.7 20.7-3.2 28-24 17.7-5-8.3-17-10.2-11.7-28z"/>
       <path d="m66 657c-4.8-14-5.4-27 1.6-39 13.3-19.4 17.6-2.9 22.5 10.9-6.7 9.8-4.1 22-24 28z"/>
       <path d="m146 716c-17-19.6-7.6-35.4-10.5-37.4 17-19.9 25.9-3.7 25.3 10.9-5 8.1-9.9 17.4-14.9 26.6z"/>
       <path d="m231 695c2.4-12.9 6.6-26 .8-37 5.7-11.4 16-9.2 28-2.4-4.5 17.5-9.7 34.5-29 39z"/>
       <path d="m527 709c6.7-10.8 14.4-21 34-24 22.7 5 12.7 28 3.2 28.6-6.5-4.3-11.2-9.5-37.4-4.4z"/>
       <path d="m515 856c-2.6-15.8-14-23 2-56.7 9.3-16 38.8-.5 30.6 13.7-12.8 14.4-23 28.7-32.6 43z"/>
       <path d="m636 869c-14.2-.1-20.4-20.7-27.4-39-1.4-10 27.3-32 33.4 2-3.7 11.5-7.6 22.8-6 37.4z"/>
       <path d="m881 501c-53-79 14.6-116 61-75l-14.5 141z"/>
       <path d="m236 731c49-42 82 19.2 48.9 59.8-16.8 27.9-32 44-48 64-17.6-23.3-35-38.7-52.8-72-17.4-52 18-87 51.9-52.6z"/>
       <path d="m64 490c32.8-47 .6-98-54-62 1.5 50.7 1.7 97 13.8 139 11.5-23 12.6-31 40.5-77z"/>
       <path d="m693 241c52-44 94 18.6 47.8 66l-46.7 60-47-54.6c-43-50 .4-106 46-72z"/>
       <path d="m943 126l-53-62c-42.8-37-24.6-130 48.9-79"/>
       <path d="m8.8 114c2.3-4.6 41-56.9 41-56.9 56-79-10.3-105-39-72"/>
      </g>
      <g fill="#fff">
       <path d="m102-217c3.2 17.3-.2 28.9-6.8 37.8"/>
       <path d="m127-206c2.8 17.9-2.8 29-10.5 38.7"/>
      </g>
     </g>
    </g>
    <g stroke="#000">
     <path d="m352-106c29-45.7-41-34-34.4-6 4.3 16 13.2 38 70 39 31.9-5 75-3 113-5.1l-6.8-7.7c-47-6.7-150-5.9-142-20z" fill="#da121a" stroke-width="8"/>
     <g fill="#fff">
      <g stroke-width="6">
       <path d="m386-136c.4 11-.7 22.7 4 31.6 7.5-7 10.7-16.7 14.5-25.9-4.5-4.2-10.2-6.8-18.5-5.7z"/>
       <path d="m409-130c2.4 12.5 3.1 25.5 17.9 34.4l10.2-32c-9-3.2-18.4-4.4-28-2.3z"/>
      </g>
      <g stroke-width="3">
       <path d="m441-126c12.8-3.9 16.3-1 23.6-.9-6.7 13.3-15.3 26-23.6.9z"/>
       <path d="m472-126c3.8-2.2 9-2.1 15-.6-1.7 5.2-2.8 10.7-7.4 13.7-8.5-.3-8.9-5.3-7.7-13z"/>
       <path d="m495-126c5.5.1 10.3 1.2 12.8 6.5-2 4.3-5.5 7.8-10.5 10.5-3.7-4.6-8.1-8.8-2.3-17z"/>
      </g>
      <path d="m420-59c5.7 2.4 10.6 2.7 13.3-.2.5-3.4-3.6-12-7.6-12.5-5.4 1-6.4 7.9-5.7 12.7z" stroke-width="6"/>
      <g stroke-width="3">
       <path d="m447-75c-5.2 2.7-6.4 8.1-4.8 15.4 0 4.9 6.3 4.9 13 4.6-1.7-6.8-1-13.8-8.3-19.9z"/>
       <path d="m465-53c2.4 1.6 4.8 3.1 9.4 1.7l2.3-8.5c-2.3-9.7-8.2-5.1-10-.6z"/>
       <path d="m488-51l6.5-.6 4-3.1c3.6-5.8-12.7-9.6-10.5 3.7z"/>
      </g>
     </g>
     <g fill="none" stroke-width="8">
      <path d="m699 538c-1.4 17 12.2 19.3 22 25 10.3 9.4 21 18.4 13.7 38-8 4.7-5.7 9.5-5.1 14.2v26.7c-4.7 3.5-8.8 7.2-4.6 13.7 5.8 13.8-1.3 19.9-2.3 29.6-12.8 3.1-9.8 13.3-9.7 22-4.4 23.4-8.7 17.8-13 26"/>
      <path d="m758 562c1 16 7.5 31.4-1.1 48.9-6.3 11.2-7.5 21.7-1.7 31-16 60-27 65.8-40 98"/>
     </g>
    </g>
   </g>
  </g>
  <path d="m4-731v751c0 123 49 242 136 329 87 87 206 136 330 136 124 0 242-49 330-136 87-87 136-206 136-329v-751l-937 .3" fill="none" stroke="#000" stroke-width="10"/>
 </g>
</svg>
