<svg height="508.144" width="490" xmlns="http://www.w3.org/2000/svg"><g fill="#ffe000" fill-rule="evenodd" stroke="#000" stroke-width="1.9"><path d="M1.909 1.909v386.548c0 25.591 22.615 61.393 60.772 70.504L245 506.173l182.319-47.212c38.157-9.111 60.772-44.913 60.772-70.504V1.909H245Z" fill="#fcdd09" stroke-linecap="round" stroke-width="3.817138"/><path d="M245 1.909v504.264" stroke-width="3.817138"/></g><g fill="#da121a" stroke="#000" stroke-linecap="round" stroke-linejoin="round"><g stroke-width=".192"><path d="M80.802 22.788s6.907-6.28 10.046-5.651c2.512 2.511-1.255 11.302-1.255 11.302M51.291 23.416s-7.534-8.163-10.674-7.535c-1.883 2.512.628 13.814.628 13.814M23.036 58.577s-9.418-4.395-8.79-8.162c1.256-2.512 11.302-1.256 11.302-1.256M23.036 83.693s-7.534 7.535-6.906 10.046c3.139 2.512 12.557-.628 12.557-.628M41.873 156.528s-1.256-10.046 1.884-11.93c3.14 0 8.162 8.163 8.162 8.163M25.548 180.388s-11.302 1.256-12.558 3.767c1.256 2.512 11.93 7.535 11.93 7.535M34.338 224.968s-9.418 3.767-11.93 1.256c-.627-2.512 6.28-9.419 6.28-9.419M56.314 240.037s1.256 11.302 3.768 12.558c3.767-1.256 8.79-12.558 8.79-12.558M28.06 389.475s-8.791-6.279-8.791-9.418c2.512-2.512 11.93-.628 11.93-.628M34.966 417.73s-6.279 9.418-5.023 11.93c2.512 1.256 13.186-3.767 13.186-3.767M75.151 440.334s-3.14 10.046-7.535 10.046c-2.511-1.256-2.511-11.302-2.511-11.302M100.267 434.055s8.162 6.279 10.674 5.023c1.883-2.511-1.256-11.302-1.256-11.302M139.824 426.52s-8.79-4.395-9.419-8.162c1.884-2.512 11.302-2.512 11.302-2.512M150.498 454.775s-5.023 10.675-3.14 12.558c2.512 1.256 12.558-5.023 12.558-5.023M194.45 470.473s-1.256 10.674-6.279 11.93c-3.14-.628-4.395-11.93-4.395-11.93M218.31 461.682s10.674 5.023 13.185 3.768c1.256-3.768-5.65-13.814-5.65-13.814" stroke-width="2.00924544"/></g><path d="M142.963 68.624c-3.767-1.256-5.65-2.512-10.674-1.256-5.651.628-10.046 6.279-21.348 7.535-6.907 1.255-20.72-5.024-19.465-21.977 3.14 12.558 10.674 14.442 18.209 13.814 6.279-.628 9.418-5.023 16.953-5.651 8.79-.628 11.93 3.767 16.325 7.535z" stroke-width="2.00902"/></g><path d="M186.902 8.978c-8.79 1.883-8.161 6.906-13.185 8.161C140.44 14 132.91 20.906 132.281 28.44c-19.464 1.884-18.834 2.511-19.462 6.278-.628 6.907.628 14.44.628 14.44 1.256 3.14 2.51 8.161 5.022 12.557 6.907-6.28 10.045-8.162 14.44-8.162 8.163 0 10.045 4.394 11.301 8.79 1.884 6.278-2.51 11.3-6.278 11.928-6.907 3.14-12.557-6.279-12.557.628 0 10.674 5.022 15.695 10.046 15.067 11.302 0 18.206-15.696 22.601-5.65 1.884 3.767-25.112 37.67-32.647 36.414-2.511 0-13.81-13.81-25.112-28.252-12.558-15.07-26.369-30.763-25.74-34.53 0-10.674 10.671-10.045 15.695-15.068 9.444-15.792-9.664-27.832-21.346-14.44-5.023 8.163 3.767 14.44-3.14 16.951-8.79-1.883-.627-8.788-3.766-16.323-6.66-15.052-28.805-3.438-21.974 10.673 4.395 6.907 15.696 7.533 10.673 14.44-6.907 4.395-7.533-9.417-16.323-10.045-13.748-.672-17.47 18.389-5.023 23.229 8.163 1.256 13.812-5.651 16.951 1.256 0 9.418-11.928-.001-18.834 5.022-12.775 9.51-.51 27.894 13.184 22.602 6.907-5.023 6.277-16.952 16.951-12.557 1.884.628 5.65 6.278 4.395 11.301-2.512 8.163-13.812 16.322-13.184 25.74.627 8.163 6.905 21.346 10.672 24.485-6.278-18.208 15.696-13.81 12.557-31.39 3.767 6.906 15.695 45.83 15.695 45.83C80.8 170.328 69.5 182.256 65.733 181c-10.047-3.767-1.256-13.183-2.512-20.718-6.55-17.127-27.964-7.473-23.857 8.79 3.768 9.418 13.813 5.65 10.673 13.184-5.65 5.65-6.277-5.023-15.067-6.906-16.466-2.005-18.259 19.791-3.767 24.485 8.162 0 15.067-8.163 17.579 0-1.256 8.162-11.928-.001-17.58 6.906-10.119 11.092 2.767 24.752 15.068 17.579 6.907-5.651 3.766-13.813 11.301-11.929 7.535 5.023-6.906 8.789-7.534 16.951-.025 15.683 21.858 20.249 25.74 4.395.629-8.79-9.417-13.183-1.883-20.09 3.14-3.768 7.534-3.767 10.673-1.884 5.023 3.14 3.14 13.184 3.14 13.184 19.464-9.418 21.972-18.206 26.368-18.206 3.14 0 31.389 30.131 45.83 63.41 0 0 4.395 11.928 3.14 12.556-1.256 0-2.512 0-3.14-.628-40.812-23.232-43.944-24.485-72.199-28.252-10.674-1.884-26.995 3.766-33.902 13.184-6.907 11.302-3.767 25.74-4.395 26.369-4.395 6.906-20.09 9.415-20.09 23.857 0 5.023 2.51 10.107 8.162 19.525-3.14-12.558 17.579-14.501 18.834-25.176 0 0 3.14 3.767 3.14 9.418 0 8.79-13.813 7.595-14.44 22.664 0 6.907 5.022 11.928 10.673 17.579-3.768-15.07 18.835-12.555 13.812-29.508 9.418 7.535 17.578 8.162 17.578 11.929 0 3.767-5.65 13.811-11.3 23.23-5.651 10.673-10.673 21.345-13.184 21.345-10.675 1.884-11.3-8.161-17.58-11.928-16.896-6.898-24.763 14.81-10.044 23.229 9.418 3.767 15.067-6.28 18.206.628 0 8.162-7.533 1.883-14.44 6.906-12.615 10.17 1.815 27.67 15.068 18.834 5.651-6.279 3.138-16.323 11.3-13.184 5.024 6.279-7.533 9.416-6.277 18.207 1.711 14.366 21.185 14.881 23.229.628 0-8.79-8.162-12.556-1.884-16.324 8.79-2.511 3.139 10.673 8.79 16.951 11.896 10.59 29.685-4.392 19.462-16.95-5.65-6.907-19.462-2.51-17.579-13.185 0-5.023 4.395-9.417 9.418-15.067 5.65-6.907 11.3-13.812 13.184-15.696-5.023 15.07 13.185 18.206 8.162 27.624 10.046-9.418 13.184-18.207 13.184-18.207 0-11.302-10.045-13.183-10.045-19.462 0-8.79 10.045-11.928 10.045-18.835 0-8.79-26.997-11.989-26.997-30.826 0-13.185 10.044-18.206 25.741-18.206 15.07 0 31.391 6.278 31.391 8.79 0 6.278-24.485 30.823-23.857 49.66 0 22.604 38.297 40.806 38.297 57.759 0 4.395 0 8.789-5.023 12.556-10.046 3.14-11.3-7.533-17.579-10.673-18.378-4.722-24.912 18.75-7.533 25.113 9.418 1.884 13.183-8.162 17.578-1.883 1.256 8.162-8.16 3.138-14.44 8.79-11.519 11.675 6.246 27.895 17.58 16.322 5.023-6.278 2.51-16.323 11.3-14.44 6.28 5.652-6.906 11.3-5.022 19.463 5.093 12.808 24.571 10.885 24.485-3.767-1.256-8.79-10.046-10.044-4.395-15.695 8.162-3.14 4.394 10.672 10.673 16.323 14.073 6.789 27.969-8.593 16.951-20.718-6.907-5.023-18.207 1.257-17.579-9.417v-25.74c5.023 16.324 22.601 7.531 26.368 23.856 0 0 .628-7.533 0-13.184-1.883-26.371-25.112-18.205-25.74-32.019-.628-3.767-.628-8.79-.628-8.79 4.395 13.186 20.717 5.021 26.368 21.974 0 0 .628-9.416 0-15.067-3.139-32.65-41.436-11.298-41.436-39.553 0-8.162 1.884-21.408 3.767-27.059 4.396 5.023 9.417 7.597 13.812 7.597 13.814 0 18.207-18.268 17.58-30.198 0-10.674-2.512-29.508-2.512-29.508 0-11.302 11.928-13.182 12.556-28.252.628-10.046-2.51-13.183-4.394-23.857 1.255 14.442-15.068 13.81-13.185 32.647 0 0-3.139-9.417-3.139-12.557 0-18.208 21.346-19.46 21.346-42.691 0-4.395-2.51-18.206-5.65-29.508-1.256 14.442-30.136 28.25-30.136 47.715 0 21.976 16.952 65.92 17.58 77.85 0 0 1.883 8.788.627 15.695-1.256 6.906-6.277 13.812-11.3 13.812-6.28.627-11.93-12.556-11.301-18.207.628-15.697 1.883-30.133 0-51.481-3.768-38.93-7.534-40.808-7.534-46.459 0-7.535 6.904-7.53 23.857-34.53 11.302-18.837 22.602-42.061 22.602-67.177V80.55c0-28.883-18.205-55.875-39.553-62.154 0 0-3.766-10.045-9.417-9.417zm-41.436 18.207 10.045.627s-1.883 5.65-6.906 7.534H138.56s1.255-8.161 6.906-8.161zm49.597 2.51c1.884 7.536 11.3 8.79 14.44 13.813.628 2.511 1.256 6.905 1.256 11.3-1.884-8.162-9.417-6.905-13.184-13.811-1.884-3.768-2.512-6.906-2.512-11.301zm-3.139 19.463c1.256 8.163 10.673 11.928 13.184 18.207 1.256 2.512.628 7.533 0 12.556-1.255-9.418-9.417-9.416-12.556-17.579-1.256-4.395-1.256-7.533-.628-13.184zm26.369 10.673c1.255 6.907 10.044 9.417 12.556 15.068.628 1.883.628 6.277 0 10.673-1.256-8.163-8.161-7.533-11.3-15.068-1.884-3.14-1.884-6.278-1.256-10.673zm-33.275 7.534c0 10.046 10.045 13.811 12.557 20.718.627 3.14 0 8.161-1.256 13.184 0-9.418-8.79-10.044-11.3-20.09-1.884-4.395-1.257-7.533 0-13.812zm28.88 12.556c.628 8.163 10.045 12.556 11.928 18.835 1.256 2.511.628 7.533 0 12.556-.627-9.418-9.417-9.416-11.928-18.206-1.256-4.396-1.256-7.534 0-13.185zm-40.18 2.512c-1.256 11.302 10.672 18.205 11.3 27.624.628 3.767-1.255 10.672-3.139 16.323 1.256-12.558-9.417-15.066-11.3-26.996-1.256-6.28-.001-10.045 3.138-16.951zm32.646 16.95c0 8.791 9.417 13.184 11.3 20.719 1.257 2.511-.627 8.16-.627 13.184-.628-10.046-8.79-10.672-11.929-20.09-1.255-5.023-.628-8.161 1.256-13.812zm-47.714 1.884c-2.512 11.302 10.045 21.345 10.673 32.019 0 4.395-3.139 12.556-6.278 18.207 2.511-13.186-9.418-16.95-9.418-31.391-.628-6.907.628-11.3 5.023-18.835zm-18.207 19.463c-3.14 11.93 10.045 21.972 10.045 33.274 0 4.395-3.139 11.928-6.906 18.207 3.14-13.814-8.79-18.205-9.417-32.647 0-6.907 1.883-11.928 6.278-18.834zm54.62 0c-.628 9.418 10.045 15.694 11.929 23.857 0 3.14-.628 9.416-2.511 14.44 0-10.675-9.417-12.556-11.929-23.23-1.256-5.65 0-8.789 2.511-15.067zm-15.695 17.578c-1.884 11.302 10.045 20.09 11.3 30.764.628 3.767-2.51 11.3-5.022 17.579 1.884-12.558-10.045-16.322-10.673-30.136-.628-6.279.627-10.672 4.395-18.207zm-17.58 22.602c-2.51 11.93 10.674 22.6 11.302 32.647 0 4.395-2.511 11.927-5.65 18.206 1.883-13.185-10.046-16.95-10.674-31.39-.628-6.907.628-12.556 5.023-19.463z"/><g fill-rule="evenodd"><path d="M285.494 1.909v493.779l60.27-15.633V1.91ZM387.327 1.909v467.41l39.992-10.358c7.358-1.757 14.128-4.558 20.278-8.036V1.909Z"/></g></svg>