<?xml version="1.0" encoding="UTF-8" standalone="no"?>
<svg xmlns="http://www.w3.org/2000/svg" height="490" width="412">
 <g fill="#fff">
  <path d="m6.04 6.04h399.95v277.98c1.103 134.74-123.6 199.98-199.98 199.98-76.37 0-201.08-65.24-199.98-199.98v-277.98" display="block" fill="#fff" transform="translate(.003)"/>
 </g>
 <g fill-rule="evenodd">
  <g fill="#0f47af">
   <path d="m205 247v237c60-2 200-42 200-207v-30z"/>
   <rect width="198.96" height="240.96" x="6.04" y="6.04" mix-blend-mode="normal" solid-color="#000000" color-interpolation-filters="linearRGB" color="#000" image-rendering="auto" color-rendering="auto" isolation="auto" color-interpolation="sRGB" solid-opacity="1" shape-rendering="auto"/>
  </g>
  <path d="m369.62 148.06c15.178-.164 14.12-10.491 18.15-23.748 2.358-7.758 6.287-13.586 3.403-18.99-2.172-4.071-8.608-6.05-15.962-9.309-10.759-4.769-17.347-13.414-29.23-6.09-6.977 4.3-12.368 18.592-19.669 13.699-4.779-3.203 8.596-16.176 11.638-25.893 4.534-14.485-5.613-16.675-16.976-24.605-6.65-4.64-10.978-10.178-17.01-9.105-4.543.808-8.414 6.317-13.786 12.304-7.86 8.759-18.12 12.352-14.825 25.919 1.933 7.964 14.433 18.243 6.95 22.94-7.46 4.682-12.728-13.174-21.03-19.07-12.375-8.788-17.593.185-28.646 8.542-6.468 4.89-13.07 7.296-13.916 13.363-.635 4.571 3.408 9.954 7.442 16.913 5.902 10.182 6.149 21.05 20.07 22.11 8.172.623 20.518-7.425 23.951-.094 3.413 7.288-16.476 7.462-24.649 13.535-12.182 9.05-5.261 16.789-.728 29.884 2.652 7.663 2.899 14.687 8.409 17.364 4.15 2.02 10.52-.165 18.385-1.851 11.507-2.466 21.918.656 27.23-12.255 3.117-7.58-2.538-22.813 7.861-22.644 8.613.14 2.554 18.14 5.805 27.789 4.846 14.384 14.342 10.191 28.2 9.927 8.107-.154 14.864 1.781 19.11-2.631 3.201-3.324 3.094-10.06 3.921-18.06 1.21-11.706 7.397-20.643-3.241-29.683-6.245-5.307-21.534-5.572-19.09-13.901 2.31-7.883 18.05 3.749 28.24 3.639z" fill="#da121a" stroke="#000300" stroke-linejoin="round" stroke-linecap="round" stroke-width="4"/>
  <g fill="#000">
   <path d="m288.91 72.44c1.603-4.613 3.986-6.563 14.292-4.398 7.07 1.484 16.848-3 20.837 2.683 2.287 3.26 3.549 1.321 2.15-1.64-2.61-5.526-10.1-7.096-18.485-5.087-7.122 1.706-17.292-4.392-20.826 7.337-.926 3.075.966 4.173 2.031 1.105"/>
   <path d="m356.44 101.32c4.883.099 7.474 1.763 8.6 12.234.772 7.18 8.06 15.1 3.888 20.646-2.394 3.183-.16 3.783 2.224 1.538 4.449-4.19 3.628-11.797-.875-19.15-3.824-6.246-1.167-17.803-13.414-17.54-3.21.069-3.67 2.208-.424 2.274"/>
   <path d="m353.14 174.95c1.415 4.674.633 7.653-8.978 11.959-6.59 2.953-11.865 12.333-18.435 10.08-3.766-1.293-3.648 1.017-.776 2.591 5.36 2.937 12.341-.195 17.945-6.75 4.759-5.567 16.571-6.611 12.536-18.18-1.058-3.03-3.234-2.808-2.293.3"/>
   <path d="m283.5 192.11c-4.01 2.79-7.083 2.967-14.15-4.842-4.845-5.355-15.396-7.473-15.281-14.418.066-3.982-2.094-3.155-2.703.063-1.137 6 3.999 11.677 11.965 14.981 6.765 2.806 11.408 13.717 21.16 6.306 2.557-1.943 1.671-3.943-.994-2.088"/>
   <path d="m243.75 133.12c-3.892-2.95-5.01-5.819.233-14.952 3.596-6.263 2.35-16.952 8.99-18.989 3.807-1.168 2.353-2.967-.895-2.552-6.06.775-9.87 7.412-10.55 16.01-.578 7.3-9.52 15.09.542 22.07 2.638 1.831 4.267.371 1.679-1.59"/>
  </g>
  <path d="m340.23 163.32c-5.289.202-11.258-8.582-16.825-17.96 5.63 6.327 11.276 12.903 16.825 17.96zm-53.693 10.992c1.97-10.818 5.01-20.711 8.559-31.763l1.879 1.634c-2.829 10.02-7.68 20.558-8.394 30.655-2.9 4.077-2.259.652-2.044-.527zm22.958-80.72l-1.319 13.32c2.229 3.063 2.451-3.941 2.753-5.951.67-4.458.248-5.769.362-8.815-.502.189-.918.111-1.796 1.445zm-19.755 27.493c1.907-3.24-7.134-4.596-11.04-5.02-3.058-.329-7.698.382-8.78 3.716 5.172-2.316 12.659-1.688 19.822 1.3zm-12.754 3.411c2-.095 4.248.838 6.575 2.132-.576-4.549-6.499-4.048-6.575-2.132zm24.24 25.13c-4.57 3.145-4.259 7.485-3.036 10.08.908-1.752 2.247-6.475 3.036-10.08zm26.901-9.566c1.503 1.24 2.95 1.579 4.547 4.302-2.912.768-3.292-1.948-4.547-4.302zm11.257-15.429c-2.659-1.091-6.105.712-7.748 3.884 2.786-1.413 5.416-2.735 7.748-3.884zm18.369-16.1c-5.863.102-11.833 1.94-17.302 5.415-2.772 1.761-3.671 4.455-4.448 5.937 7.217-4.307 14.445-8.437 21.75-11.352zm-56.949-25.579c1.329 14.1.71 20.566-.75 28.351 4.894-6.403 3.163-19.894 2.322-28.688-.595-6.224-2-4.212-1.573.336z" fill="#fff" stroke="#fff" stroke-width=".5"/>
  <g stroke-linejoin="round" stroke-linecap="round">
   <path d="m303.27 79.939c.115 11.334 2.359 23.67-2.546 31.851-5.355-1.152-8.504 1.274-10.257 4.16-7.905-3.479-19.309-5.39-22.99-.103 3.451.296 6.92-.987 10.66-.71 3.823.283 7.837 1.66 12.428 4.314-1.693 2.35-1.761 4.04-1.522 5.608-5.396-6.06-10.34-5.02-15.351-5.04 3.375 2.644 10.261 2.187 10 5.924-.522 7.506 3.701 6.802 5.169 12.02-.421 7.03-1.354 16.309-3.278 25.26-.48 2.235.693 5.727 1.504-.006 1-7.105 2.97-14.15 7.416-21.23l2.794 2.578c-3.365 9.9-7.738 19.865-8.638 29.608 4.931-10.77 8.294-26.912 18.18-27.334 4.79-.204 7.499-.602 10.354-.659 7.709 8.179 14.02 16.07 23.875 20.901-8.849-8.497-20.911-23.17-19.04-25.593 2.056-2.655 9.395 11.919 15.389 11.546-3.973-5.634-11.979-11.807-10.02-17.65 5.442-16.194 21.246-13.209 32.03-18.32-8.406-.466-18.625-2.141-31.507 8.768 5.897-4.759 11.787-9.517 14.76-14.09-5.588 2.041-11.522 4.602-15.03 7.845-2.01-2.636-5.01-5.347-7.813-7.03-3.167-1.895-6.05-2.633-6.191-3.419-.732-3.955.552-12.308-.081-19.973-1.576 3.655-1.635 7.896-2.184 11.07-.571 3.302-1.061 5.472-1.632 7.711-.151.593-1.853-.257-1.931-.817-.988-7.079-1.481-18.17-2.762-26.891-.292-1.986-1.81-2.633-1.786-.313z" fill="#000" stroke="#000"/>
   <path d="m316.64 137.58c-1.188 3.206-2.225 7.754-7.674 5.373-3.212.043-6.776 6.365-10.457-.963-1.138 4.811-7.322-2.025-8.02-6-4.282-1.035-4.503-6.289-1.766-10.03-.224-4.11 1.188-6.54 3.094-8.463 1.337-3.351 3.365-5.424 5.368-4.224 2.781 1.665 4.108 1.22 5.691-1.114 3.387-4.994 5.184-2.819 8.329.973 3.705-1.345 7.612-3.169 7.654 4.147 2.644 2.327 5.134 4.807 5.203 8.938.11 6.576-1.77 7.294-3.32 8.854-.932-1.915-1.366-4.328-1.92-8.52-.986-7.468-5.28-8.874-10.153-7.997 2.596 1.059 4.133 2.98 4.506 5.851 4.521-1.214 4.231 5.01 2.064 4.879 5.619 5.435.166 6.777-2.613 6.178-1.906 4.247-6.549 5.424-11.397 1.978-.746 3.914 1.935 5.135 4.639 4.02 6.219 2.716 7.523-5.622 10.776-3.869z" fill="#fcdd09" stroke="#fcdd09"/>
   <path d="m295.51 130.28c-.486 1.743.355 3.401 2.197 4.996m7.366-2.347c2.466-1.73 5.815-2.453 4.872-8.08m-11.07-4.682c-2.595 1.919-1.657 3.612-1.413 5.351" fill="none" stroke="#000" stroke-width="2"/>
  </g>
  <g fill="#fff">
   <path d="m307.95715 121.79433a2.057612 1.255693 64.27873 0 0 2.00584 1.45341 2.057612 1.255693 64.27873 0 0 .36198 -2.31392 2.057612 1.255693 64.27873 0 0 -2.00584 -1.45341 2.057612 1.255693 64.27873 0 0 -.36198 2.31392m-14.94057 2.72178a1.255693 2.057612 18.441425 0 1 -1.80551 1.69587 1.255693 2.057612 18.441425 0 1 -.65226 -2.2494 1.255693 2.057612 18.441425 0 1 1.80549 -1.69587 1.255693 2.057612 18.441425 0 1 .65228 2.2494m4.08751-8.1425a1.255693 2.057612 18.441425 0 1 -1.80551 1.69588 1.255693 2.057612 18.441425 0 1 -.65227 -2.2494 1.255693 2.057612 18.441425 0 1 1.8055 -1.69587 1.255693 2.057612 18.441425 0 1 .65228 2.24939m7.95978-1.56915a1.255693 2.057612 18.441425 0 1 -1.8055 1.69587 1.255693 2.057612 18.441425 0 1 -.65226 -2.2494 1.255693 2.057612 18.441425 0 1 1.8055 -1.69587 1.255693 2.057612 18.441425 0 1 .65226 2.2494m-2.60909 9.10689a1.271447 2.260723 14.415655 0 1 -1.79423 1.87301 1.271447 2.260723 14.415655 0 1 -.6686 -2.50608 1.271447 2.260723 14.415655 0 1 1.79424 -1.87301 1.271447 2.260723 14.415655 0 1 .66859 2.50608" mix-blend-mode="normal" solid-color="#000000" color-interpolation-filters="linearRGB" color="#000" image-rendering="auto" color-rendering="auto" isolation="auto" color-interpolation="sRGB" solid-opacity="1" shape-rendering="auto"/>
   <path d="m52.47 225.99c-.447-7.987 10.952-16.959 17.861-17.228v-165.56l3.676-3.471 1.435.004v-1.359l2.721-2.57h1.958v-1.848l2.912-2.75h2.722v-2.569l3.488-3.294 8.364 2.433v8.07l6.431-6.202 9.371 2.708v8.116l7.361-5.957 10.5 3.046v8.164l7.162-6.072 8.597 2.501v164.93c10.507 3.151 16.11 9.102 15.76 18.909 10.691.972 18.02 7.437 21.01 21.01h-157.6c9.774-6.36 11.295-25.15 26.27-21.01z" stroke="#000300" stroke-linejoin="round" stroke-linecap="round" stroke-width="2"/>
  </g>
  <g stroke-linejoin="round" stroke-linecap="round" stroke-width="2">
   <path d="m120.76 136.7c0-1.05-3.152-1.786-3.152.315l.191 7.297-2.292-.679v-9.664c.062-3.219 5.253-2.521 5.253 1.681v9.559m-37.823-27.418c0-1.05-3.152 0-3.152 2.101l.191 6.561-2.292 1.843v-8.404c.062-3.219 5.253-7.353 5.253-3.151v7.353m37.823-42.02c0-1.05-3.152-1.786-3.152.315l.191 7.297-2.292-.679v-9.664c.062-3.219 5.253-2.521 5.253 1.681v9.559m-37.823-27.418c0-1.05-3.152 0-3.152 2.101l.191 6.561-2.292 1.843v-8.404c.062-3.219 5.253-7.353 5.253-3.151v7.353" fill="#000" stroke="#000"/>
   <path d="m102.51 222.45c2.766-1.169 4.717-3.561 5.385-7.879m-15.497 6.172c1.047-4.858 4.583-6.16 8.01-7.616m-32.57 8.666c9.4-8.217 34.942-4.133 22.852 8.535 12.495-16.02 27.2-4.943 35.2 4.465 10.162-2.802 18.11-.205 24.428 11.687m17.73.525c-3.63-12.43-9.07-16.04-15.497-14.838-3.391-12.04-11.628-17.506-25.872-14.838m-56.34-8.561c4.626 2.597 6.82-2.124 8.799-2.206 2.45-.101 6.824 4.582 10.113 3.677 2.4-.66 10.325-1.854 11.163 2.889 3.719-1.965 5.855-.766 7.486 1.444 7.156-7.368 11.751-7.372 18.78 2.758 5.583-8.221 12.682-10.385 20.356-10.242m-57.786-181.73v184.88m41.933-164.27l7.255 2.085v-8.39m-25.07 1.145l7.401 2.146.006-8.428m-23.256 1.66l6.524 1.913v-8.439m-21 1.561v10.92l2.722-2.315v-8.606m-7.592 4.599v10.473l1.957-1.718v-8.756m-6.113 3.925l.002 10.136 1.433-1.271v-8.861" fill="none" stroke="#000300"/>
  </g>
  <path d="m34 353c0 4 17-3 29-3h32v32c0 12-13 27-13 27 14 8 24 19 30.96 31.997 7.04-12.997 17.04-23.997 31.04-31.997 0 0-13-15-13-27v-32h32c12 0 29 7 29 3v-42c0-4-17 3-29 3h-32v-32c0-12 7-23 3-23-4.101.064-38.08-.056-42 0-4 0 3 11 3 23v32h-32c-12 0-29-7-29-3-.095 4.751-.008 37 0 42" fill="#da121a"/>
  <g fill="#000">
   <path d="m133.63 350c-2.625 0-2.625 0-2.625 2.802l-8.04-11.751 10.667 8.949"/>
   <path d="m33.96 327.75l.009 8c16.603-3.869 43.25-2.595 64.908-3.875-21.666-1.356-48.31.083-64.918-4.125"/>
  </g>
  <path d="m97.88 330c-21.03-1.311-55.738-.616-62.975-4.375v2.468c20.65 3.818 46.37 3.144 62.975 1.907" fill="#fff"/>
  <path d="m109.62 259l8 .009c-3.869 16.603-2.595 43.25-3.875 64.908-1.356-21.666.083-48.31-4.125-64.918" fill="#000"/>
  <path d="m111.87 322.92c-1.311-21.03-.616-55.738-4.375-62.975h2.468c3.818 20.65 3.144 46.37 1.907 62.975" fill="#fff"/>
  <path d="m192.01 327.75l-.009 8c-16.603-3.869-43.25-2.595-64.908-3.875 21.666-1.356 48.31.083 64.918-4.125" fill="#000"/>
  <path d="m128.09 330c21.03-1.311 55.738-.616 62.975-4.375v2.468c-20.65 3.818-46.37 3.144-62.975 1.907" fill="#fff"/>
  <path d="m112.9 439.01l5.077-6.821c-3.869-16.603-2.595-59.25-3.875-80.908-1.356 21.666-1.642 76.874-3.746 85.18 1.776 1.817 2.545 2.55 2.545 2.55" fill="#000"/>
  <path d="m112.23 352.28c-1.311 21.03-.616 71.74-4.375 78.975l2.852 3.3c3.818-20.65 2.759-65.67 1.523-82.27" fill="#fff"/>
  <g fill="#000">
   <path d="m92.96 350c2.625 0 2.625 0 2.625 2.802l8.04-11.751-10.667 8.949"/>
   <path d="m92.7 314c2.625 0 2.625 0 2.625-2.802l8.04 11.751-10.667-8.949"/>
   <path d="m133.63 314.97c-2.625 0-2.625 0-2.625-2.802l-8.04 11.751 10.667-8.949"/>
  </g>
  <path d="m246.94 278.26c-.999-7.07 4.325-10.803-5.213-8.833-9-4.785-2.301 6.788-4.21 7.29-2.298.604-6.374-12.502-11.06-4.759-5.084 2.01-3.564 4.137-3.151 6.303.785 4.119 9.235 3.082 8.02 7.322-.894 3.127-11.07-3.797-8.171 3.714.15 11.145 5.27 5.962 8.551 6.822.224 3.516 1.503 5.448 4.202 5.252 3.393.994 4.842-2.14 6.303-5.252.223 5.348.699 10.57-2.436 17.597 1.831-1.58 3.663-3.409 5.494-7.185.772 2.544 1.788 4.771 1.143 8.496l-1.422 3.616c2.14-2.4 6.255-3.124 9.826-3.616-3.778 5.092-7.72 9.465-12.72 9.181-.21 2.542 2.215 6.576 5.367 7.626-2.181 4.706-5.177 5.945-8.338 6.486-4.653-.175-14.602-10.218-13.927-.464-5.474 1.981-2.756 3.961-.279 5.942-7.22 1.852-2.926 3.393-1.578 5.01-.086 1.207-.09 2.193-.02 2.981.336 3.784 2.381 2.979 5.234-.0001-1.297 4.056-.386 6.115 3.514 5.469 3.611 1.595 7.387 3.535 5.94-5.469 1.085 4.434 2.317 8.404 6.316 3.612 2.624.392 5.271.826 5.239-3.612 1.655-2.079 11.996-2.142 12.606 0 .408 1.434-1.036 2.965-2.339 4.447 2.18-.962 4.361-1.377 6.541-4.447l1.351-3.073c1.651.676 2.992 1.279 4.952 3.073 1.377 1.26 2.335 2.139 1.734 3.797 1.673-1.544 2.404-2.609 2.888-3.797.291-.715.163-1.43.454-2.145 1.109.56 2.404 1.425 3.328 3.195 1.265-1.381 2.18-2.501 2.243-5.05 1.052.326 2.105 1.078 3.157 2.043 1.233-1.298 1.854-2.287 2.555-3.963 2.765 1.805 4.774 3.382 6.751 5.922-12.337 2.751-23.424 7.319-31.514 16.807-5.627 6.599-8.694 19.687-18.46 16.887l.602 2.02c2.057 6.901 5.463 3.501 9.454 2.101-.866 5.252-3.342 10.731-8.404 15.756-2.233 2.217-4.897 3.968-7.353 4.202-5.798.552-12.246-5.898-14.726 1.917-2.887 9.234 4.388 9.48 9.656 6.685-2.862 2.73-5.724 5.541-8.586 6.104-2.467 1.307-2.565 2.988-.327 5.04.354 10.312 13.629 8.412 9.279-.925.369-1.885 2.675-2.939 4.705-4.113l2.386 3.069c-2.544 10.635 3.632 8.731 6.936 5.682 7.544-.545 5.125-4.566 2.233-8.751 5.837 3.469 8.094-.938 10.301-5.454 8.908-2.903.502-8.466-5.757-4.921 3.393-2.809 6.991-4.388 10.162-8.533l5.251-9.108.836 9.842c5.463-2.591 8.03-6.817 7.799-12.627 3.94 1.4 4.356 5.02 3.621 9.377 6.26-3.162 5.519-9.282 5.603-15.341.103-7.41-4.112-16.808 9.454-18.908-1 10.348 12.07 13.948 4.974 22.523 3.321-1.699 6.134-4.108 8.218-7.539-.31 3.759-.176 7.517-1.637 11.276 2.164-1.371 4.375-2.463 6.303-5.252-.093 6.348-1.641 11.879-4.202 15.756-4.696 7.112-11.727-5.649-13.301 3.89-4.949.531-10.748 9.502 3.064 7.985-2.928 6.425-15.275-.689-11.823 7.03 1.448 14.973 11.955 5.82 15.757 0-2.86 4.808-4.132 8.12 3.552 7.939 6.108-.144 6.611-3.597 6.428-7.939 4.694-.098 6.926-2.54 6.421-7.59 2.702-4.316-1.023-4.543-3.487-5.572 1.998-.064 3.884-3.495 5.995-5.746 1.644-1.752 3.502-4.5 5.252-7.353l3.151 5.252 2.087-5.15c6.079 4.632 10.519 1.999 10.519-3.253-3.151 2.101-6.549 3.24-3.151-7.353 2.958-9.222-5.252-15.756-12.606-8.403-2.47-3.501-2.736-6.977-1.05-10.504 5.121-10.714 9.332-4.252 14.707 0 5.068 4.01 12.606 5.252 17.858 0 1.921-1.921 3.973-4.916 6.303-8.403 5.559 2.066 8.02-4.698 8.535-9.979-3.357 1.705-4.551 2.31-6.171 2.626 1.489-3.151 1.386-6.303.788-9.454 6.01-1.747 10.443-4.774 8.466-11.03-3.498 6.266-8.622.798-12.02 6.377-.341-3.661-1.862-5.396-2.753-6.899-.729-1.229-.788-2.01-1.707-2.757 5.975-4.08 15.09.23 11.293-12.343-1.895 8.41-11.747 3.922-17.989 7.747-3.449-3.151-5.259-6.783-2.101-9.454 8.01-6.775 26.16-.042 24.966-14.03-5.651 10.92-14.976.572-21.79 5.751-.745-.976.352-3.426 1.3-5.756-6.596 1.793-9.357 5.777-12.627 9.47-.824-6.553 2.752-11.262 8.152-14.347 5.646-3.225 11.224-7.316 14.707-17.857 1.8-5.449 1.458-8.4 1.654-11.99-3.919 5.881-7.479 12.12-14.259 15.14 1.156-3.732 2.166-7.726 2.101-13.656-5.604 2.45-8.305 6.323-10.505 10.504-2.559 4.863-2.03 9.472-3.151 13.656-.629 2.347-1.514 2.958-2.101 4.202-2.951 6.249-4.85 12.806-3.151 18.908 2.823 10.137 7.152 12.642 10.505 16.807 5.138 6.383 12.01 12.695 10.505 19.958-.697 3.353-1.438 7.221-7.353 7.353-4.676.104-9.488-1.455-15.757-7.353-5.132-4.828-10.505-13.04-15.757-19.958.163-1.233 1.82-1.569 3.151-2.101-2.65-1.872-3.676-7.194-4.365-13.232 1.89 1.014 3.982.618 5.416 4.828.158-1.628.363-3.232 0-6.303-.423-3.578-1.676-7.24-4.116-11.06 2.988 2.212 4.919 3.155 6.685 3.9.19-5.481-.546-8.445-1.519-11.747-1.016-3.45-2.64-6.404-4.609-8.307 2.046.251 4.133.543 5.942.557-1.285-3.4-3.046-7.424-5.955-10.11-.903-.833-1.774-1.928-2.958-2.334l6.499-2.6c-3.404-2.584-6.809-4.096-10.213-3.714 2.41-1.175 4.562-2.27 3.9-3.157-1.955-2.618-4.457-3.353-6.685-1.3.042-2.723-.064-5.447-1.486-8.17-8.333 1.321-9.139 7.198-10.77 11.513-.248-.789.423-2.431 3.157-7.799-8.477-1.431-16-.849-20.06 7.06-3.876.264-8.238 3.152-5.2 6.685-.682.904-.938 2.44-.938 3.82 0 5.252 10.491-.645 8.404 3.151-1.469 2.672-.134 3.142 4.417 2.565 2.272-.288.92-7.431 6.303-1.822 1.914 1.994 2.883 4.455.836 7.104-3.985-3.347-9.862-3.444-19.48-4.833-3.954-.571-7.452-1.071-11.298-6.164-1.36-1.801-1.672-4.833-1.984-7.905-.776 2.548-1.955 3.827-2.218 7.905-.383 5.93 7.842 10.115 14.725 10.353 6.137.212 12.667-1.226 15.961 5.03-8.745 2.333-13.428-2.673-12.513 2.472 0 4.202 4.852 4.48 6.953 2.379 2.101 8.403-9.05 6.02-13.256-1.329-3.407 7.642-4.145 4.515-11.927-4.202l-1.73 7.353c-.394 1.677-1.098-3.17-3.151-4.202-5.304-2.665-9.515-7.133-11.03-17.857" fill="#fff"/>
  <g fill="#da121a">
   <path d="m327.31 296.11c-1.016-3.45-2.64-6.404-4.609-8.307 2.046.251 4.133.543 5.942.557-1.285-3.4-3.046-7.424-5.955-10.11"/>
   <path d="m363.42 329.07c5.975-4.08 15.09.23 11.293-12.343-1.895 8.41-11.747 3.922-17.989 7.747-3.449-3.151-5.259-6.783-2.101-9.454h-14.707c2.823 10.137 7.152 12.642 10.505 16.807h14.707c-.729-1.229-.788-2.01-1.707-2.757"/>
   <path d="m360.92 351.79c-.697 3.353-1.438 7.221-7.353 7.353-4.676.104-9.488-1.455-15.757-7.353h-42.02c-12.337 2.751-23.424 7.319-31.514 16.807h65.13c5.121-10.714 9.332-4.252 14.707 0h17.858c1.921-1.921 3.973-4.916 6.303-8.403 5.559 2.066 8.02-4.698 8.535-9.979-3.357 1.705-4.551 2.31-6.171 2.626l.368-1.05h-9.869"/>
   <path d="m283.89 402.84c.735-4.352.319-7.978-3.621-9.377.232 5.81-2.337 10.04-7.799 12.627.263-3.461 1.018-7.086-.836-9.842l-5.251 9.108h-18.908c5.062-5.03 7.538-10.504 8.404-15.756-3.992 1.4-7.398 4.8-9.454-2.101h43.07c-.084 6.06.656 12.179-5.603 15.341"/>
   <path d="m312 387.55c-.279 2.469-.559 4.884-1.498 7.3 2.164-1.371 4.375-2.463 6.303-5.252-.093 6.348-1.641 11.879-4.202 15.756h12.606c1.644-1.752 3.502-4.5 5.252-7.353l3.151 5.252 2.087-5.15c6.079 4.632 10.519 1.999 10.519-3.253-3.151 2.101-6.549 3.24-3.151-7.353"/>
   <path d="m309.85 432.21c-7.684.181-6.412-3.131-3.552-7.939-3.802 5.82-14.309 14.973-15.757 0h25.736c.183 4.342-.32 7.795-6.428 7.939"/>
   <path d="m327.31 296.11h-46.22c-.916-5.145 3.768-.139 12.513-2.472-3.294-6.258-9.824-4.82-15.961-5.03-6.883-.238-15.11-4.423-14.725-10.353h4.202c3.846 5.093 7.345 5.593 11.298 6.164 9.618 1.389 15.496 1.486 19.48 4.833 2.048-2.649 1.078-5.109-.836-7.104-5.382-5.609-4.03 1.534-6.303 1.822-4.551.577-5.886.107-4.417-2.565 2.087-3.796-8.404 2.101-8.404-3.151h44.75"/>
   <path d="m325.2 329.73c-2.65-1.872-3.676-7.194-4.365-13.232 1.89 1.014 3.982.618 5.416 4.828.158-1.628.363-3.232 0-6.303h-79.84l-1.422 3.616c2.14-2.4 6.255-3.124 9.826-3.616-3.778 5.092-7.72 9.465-12.72 9.181-.21 2.542 2.215 6.576 5.367 7.626h74.58c.163-1.233 1.82-1.569 3.151-2.101"/>
   <path d="m259.84 356.23c1.303-1.482 2.747-3.01 2.33-4.447h4.097c-2.067 3.071-4.247 3.485-6.427 4.447"/>
   <path d="m257.97 424.27c-1.577 1.269-3.352 1.754-6.303 0 2.891 4.185 5.311 8.206-2.233 8.751-3.304 3.049-9.481 4.953-6.936-5.682l-2.386-3.069c-2.029 1.173-4.336 2.228-4.705 4.113 4.35 9.337-8.925 11.237-9.279.925-2.237-2.05-2.139-3.73.327-5.04z"/>
   <path d="m369.32 278.26c-3.483 10.542-9.06 14.633-14.707 17.857h-11.555c.587-1.243 1.472-1.855 2.101-4.202 1.122-4.183.593-8.792 3.151-13.656l9.387-.041c-.347 1.082-.66 2.147-.983 3.193 1.94-.864 3.617-1.992 5.183-3.226z"/>
   <path d="m223.32 351.79c.346 3.784 2.39 2.979 5.243 0-1.297 4.056-.386 6.115 3.514 5.469 3.611 1.595 7.387 3.535 5.94-5.469 1.085 4.434 2.317 8.404 6.316 3.612 2.624.392 5.271.826 5.266-3.612zm49.36 0c1.377 1.26 2.335 2.139 1.734 3.797 1.673-1.544 2.404-2.609 2.836-3.797z"/>
   <path d="m257.97 296.11c-5.304-2.665-9.515-7.133-11.03-17.857h-23.635c.785 4.119 9.235 3.082 8.02 7.322-.894 3.127-11.07-3.797-8.171 3.714.15 11.145 5.27 5.962 8.551 6.822zm7.591-.034c-.798-.936-1.693-1.979-2.71-3.117l-.71 3.152z"/>
  </g>
  <g stroke-linejoin="round" stroke-linecap="round">
   <g stroke="#000">
    <path d="m289.55 424.53c3.972-.245 4.264 3.774 2.113 3.716-3.055-.082-4.526 1.648-4.228 4.983-3.392-4.405-1.171-8.497 2.115-8.699z" fill="#fcdd09"/>
    <path d="m291.03 268.56c-.69 1.162-1.532 2.149-1.196 3.482m8.883 80.07c2.875 2.463 5.903 4.927 10.842 7.39m-13.765-7.721c6.478.59 12.956 2.051 19.434 5.777-8.337 2.01-12.806 6.238-16.282 11.03m-52.786-19.958c2.501 1.964 5.812 2.01 8.447 1.632m-23.15-2.682l-2.889 4.202m9.585-3.677l-.131 3.677m49.76-13.1c.026 3.37 1.227 6.04 2.999 8.359m-43.31-15.215c4.775.315 10.208.101 13.13-2.757-1.184 4.421 1.44 8.841 5.121 13.262 10.03-9.838 33.15 6.131 38.473-17.726 7 4.638 14.01 6.435 21.01 5.121m-64.08-29.412c-.001 3.501 1.719 5.821 3.414 9.323-5.108.626-7.325 3.06-9.717 5.383m38.774-21.38c2.302-.737 4.081-1.91 4.295-4.387m10.242-26.754c-1.629 1.596-2.567 3.307-2.101 5.252m-25.673 4.582c-.61.475-1.05 1.286-1.489 2.103m34.35-9.285c-1.351 3.12-2.666 6.424-4.697 6.145m-20.85-3.49c-.047 4.94 3.774 5.842 5.529 1.989m-6.759-2.044c3.827-.074 6.102 1.382 8.367 3.217" fill="none" stroke-width="2"/>
   </g>
   <g fill="none" stroke="#000200">
    <path d="m357.63 278.17c.721-2.887 1.231-6.153 1.185-10.422"/>
    <path d="m262.11 296.11l-.988 4.201c-.394 1.677-1.098-3.17-3.151-4.202"/>
    <path d="m266.38 351.79l1.351-3.073c1.651.676 2.992 1.279 4.952 3.073"/>
    <path d="m246.94 278.26c-.999-7.07 4.325-10.803-5.213-8.833-9-4.785-2.301 6.788-4.21 7.29-2.298.604-6.374-12.502-11.06-4.759-5.084 2.01-3.564 4.137-3.151 6.303.785 4.119 9.235 3.082 8.02 7.322-.894 3.127-11.07-3.797-8.171 3.714.15 11.145 5.27 5.962 8.551 6.822.224 3.516 1.503 5.448 4.202 5.252 3.393.994 4.842-2.14 6.303-5.252.223 5.348.699 10.57-2.436 17.597 1.831-1.58 3.663-3.409 5.494-7.185.772 2.544 1.788 4.771 1.143 8.496l-1.422 3.616c2.14-2.4 6.255-3.124 9.826-3.616-3.778 5.092-7.72 9.465-12.72 9.181-.21 2.542 2.215 6.576 5.367 7.626-2.181 4.706-5.177 5.945-8.338 6.486-4.653-.175-14.602-10.218-13.927-.464-5.474 1.981-2.756 3.961-.279 5.942-7.22 1.852-2.926 3.393-1.578 5.01-.086 1.207-.09 2.193-.02 2.981.336 3.784 2.381 2.979 5.234-.0001-1.297 4.056-.386 6.115 3.514 5.469 3.611 1.595 7.387 3.535 5.94-5.469 1.085 4.434 2.317 8.404 6.316 3.612 2.624.392 5.271.826 5.239-3.612 1.655-2.079 11.996-2.142 12.606 0 .408 1.434-1.036 2.965-2.339 4.447 2.18-.962 4.361-1.377 6.541-4.447l1.351-3.073c1.651.676 2.992 1.279 4.952 3.073 1.377 1.26 2.335 2.139 1.734 3.797 1.673-1.544 2.404-2.609 2.888-3.797.291-.715.163-1.43.454-2.145 1.109.56 2.404 1.425 3.328 3.195 1.265-1.381 2.18-2.501 2.243-5.05 1.052.326 2.105 1.078 3.157 2.043 1.233-1.298 1.854-2.287 2.555-3.963 2.765 1.805 4.774 3.382 6.751 5.922-12.337 2.751-23.424 7.319-31.514 16.807-5.627 6.599-8.694 19.687-18.46 16.887l.602 2.02c2.057 6.901 5.463 3.501 9.454 2.101-.866 5.252-3.342 10.731-8.404 15.756-2.233 2.217-4.897 3.968-7.353 4.202-5.798.552-12.246-5.898-14.726 1.917-2.887 9.234 4.388 9.48 9.656 6.685-2.862 2.73-5.724 5.541-8.586 6.104-2.467 1.307-2.565 2.988-.327 5.04.354 10.312 13.629 8.412 9.279-.925.369-1.885 2.675-2.939 4.705-4.113l2.386 3.069c-2.544 10.635 3.632 8.731 6.936 5.682 7.544-.545 5.125-4.566 2.233-8.751 5.837 3.469 8.094-.938 10.301-5.454 8.908-2.903.502-8.466-5.757-4.921 3.393-2.809 6.991-4.388 10.162-8.533l5.251-9.108.836 9.842c5.463-2.591 8.03-6.817 7.799-12.627 3.94 1.4 4.356 5.02 3.621 9.377 6.26-3.162 5.519-9.282 5.603-15.341.103-7.41-4.112-16.808 9.454-18.908-1 10.348 12.07 13.948 4.974 22.523 3.321-1.699 6.134-4.108 8.218-7.539-.31 3.759-.176 7.517-1.637 11.276 2.164-1.371 4.375-2.463 6.303-5.252-.093 6.348-1.641 11.879-4.202 15.756-4.696 7.112-11.727-5.649-13.301 3.89-4.949.531-10.748 9.502 3.064 7.985-2.928 6.425-15.275-.689-11.823 7.03 1.448 14.973 11.955 5.82 15.757 0-2.86 4.808-4.132 8.12 3.552 7.939 6.108-.144 6.611-3.597 6.428-7.939 4.694-.098 6.926-2.54 6.421-7.59 2.702-4.316-1.023-4.543-3.487-5.572 1.998-.064 3.884-3.495 5.995-5.746 1.644-1.752 3.502-4.5 5.252-7.353l3.151 5.252 2.087-5.15c6.079 4.632 10.519 1.999 10.519-3.253-3.151 2.101-6.549 3.24-3.151-7.353 2.958-9.222-5.252-15.756-12.606-8.403-2.47-3.501-2.736-6.977-1.05-10.504 5.121-10.714 9.332-4.252 14.707 0 5.068 4.01 12.606 5.252 17.858 0 1.921-1.921 3.973-4.916 6.303-8.403 5.559 2.066 8.02-4.698 8.535-9.979-3.357 1.705-4.551 2.31-6.171 2.626 1.489-3.151 1.386-6.303.788-9.454 6.01-1.747 10.443-4.774 8.466-11.03-3.498 6.266-8.622.798-12.02 6.377-.341-3.661-1.862-5.396-2.753-6.899-.729-1.229-.788-2.01-1.707-2.757 5.975-4.08 15.09.23 11.293-12.343-1.895 8.41-11.747 3.922-17.989 7.747-3.449-3.151-5.259-6.783-2.101-9.454 8.01-6.775 26.16-.042 24.966-14.03-5.651 10.92-14.976.572-21.79 5.751-.745-.976.352-3.426 1.3-5.756-6.596 1.793-9.357 5.777-12.627 9.47-.824-6.553 2.752-11.262 8.152-14.347 5.646-3.225 11.224-7.316 14.707-17.857 1.8-5.449 1.458-8.4 1.654-11.99-3.919 5.881-7.479 12.12-14.259 15.14 1.156-3.732 2.166-7.726 2.101-13.656-5.604 2.45-8.305 6.323-10.505 10.504-2.559 4.863-2.03 9.472-3.151 13.656-.629 2.347-1.514 2.958-2.101 4.202-2.951 6.249-4.85 12.806-3.151 18.908 2.823 10.137 7.152 12.642 10.505 16.807 5.138 6.383 12.01 12.695 10.505 19.958-.697 3.353-1.438 7.221-7.353 7.353-4.676.104-9.488-1.455-15.757-7.353-5.132-4.828-10.505-13.04-15.757-19.958.163-1.233 1.82-1.569 3.151-2.101-2.65-1.872-3.676-7.194-4.365-13.232 1.89 1.014 3.982.618 5.416 4.828.158-1.628.363-3.232 0-6.303-.423-3.578-1.676-7.24-4.116-11.06 2.988 2.212 4.919 3.155 6.685 3.9.19-5.481-.546-8.445-1.519-11.747-1.016-3.45-2.64-6.404-4.609-8.307 2.046.251 4.133.543 5.942.557-1.285-3.4-3.046-7.424-5.955-10.11-.903-.833-1.774-1.928-2.958-2.334l6.499-2.6c-3.404-2.584-6.809-4.096-10.213-3.714 2.41-1.175 4.562-2.27 3.9-3.157-1.955-2.618-4.457-3.353-6.685-1.3.042-2.723-.064-5.447-1.486-8.17-8.333 1.321-9.139 7.198-10.77 11.513-.248-.789.423-2.431 3.157-7.799-8.477-1.431-16-.849-20.06 7.06-3.876.264-8.238 3.152-5.2 6.685-.682.904-.938 2.44-.938 3.82 0 5.252 10.491-.645 8.404 3.151-1.469 2.672-.134 3.142 4.417 2.565 2.272-.288.92-7.431 6.303-1.822 1.914 1.994 2.883 4.455.836 7.104-3.985-3.347-9.862-3.444-19.48-4.833-3.954-.571-7.452-1.071-11.298-6.164-1.36-1.801-1.672-4.833-1.984-7.905-.776 2.548-1.955 3.827-2.218 7.905-.383 5.93 7.842 10.115 14.725 10.353 6.137.212 12.667-1.226 15.961 5.03-8.745 2.333-13.428-2.673-12.513 2.472 0 4.202 4.852 4.48 6.953 2.379 2.101 8.403-9.05 6.02-13.256-1.329-3.407 7.642-4.145 4.515-11.927-4.202l-1.73 7.353c-.394 1.677-1.098-3.17-3.151-4.202-5.304-2.665-9.515-7.133-11.03-17.857z" stroke-width="2"/>
   </g>
   <path d="m281.92 281.71c-.053-2.391 3.441-2.277 3.136-1-.306 1.283-.782 2.555-.827 3.708-.994-.604-2.284-1.553-2.309-2.706zm1.672 12.13c.609 2.313 3.837 1.372 3.498.106-.315-1.176-.961-2.656-2.18-4.12-1.554 1.758-1.612 2.898-1.318 4.01zm41.32 121.96c-3.979.091-3.93 4.12-1.792 3.881 3.037-.339 4.649 1.26 4.633 4.608 3.01-4.675.45-8.565-2.842-8.49zm-17.745 17.08c1.382-3.732 5.176-2.374 4.253-.43-1.31 2.761-.323 4.806 2.848 5.882-5.4 1.322-8.245-2.364-7.102-5.452zm-9.104-26.702c3.331 2.179 1.161 5.574-.528 4.242-2.4-1.892-4.613-1.385-6.368 1.467-.086-5.559 4.142-7.511 6.897-5.709zm-33.458 12.938c-3.396-2.075-5.534 1.34-3.606 2.296 2.738 1.357 3.229 3.574 1.404 6.382 5.059-2.305 5.01-6.961 2.202-8.678zm-17.82 15.907c.404-3.959 4.417-3.594 4.01-1.481-.577 3 .89 4.734 4.23 4.981-4.898 2.632-8.575-.225-8.24-3.5zm-22.18-5.292c3.695-1.479 5.233 2.245 3.172 2.866-2.927.881-3.78 2.985-2.451 6.06-4.603-3.118-3.779-7.7-.722-8.924zm.305-19.244c3.947.513 3.471 4.514 1.37 4.05-2.984-.66-4.757.76-5.096 4.091-2.496-4.968.461-8.565 3.726-8.14zm22.415-54.36c-2.652-2.968-5.685-.315-4.116 1.156 2.23 2.09 2.059 4.354-.499 6.516 5.51-.746 6.808-5.217 4.614-7.672zm-17.253 2.153c2.22-3.303 5.588-1.093 4.236.58-1.922 2.377-1.442 4.596 1.388 6.386-5.56.017-7.46-4.233-5.624-6.966zm-9.682-9.933c3.94-.566 4.556 3.416 2.407 3.533-3.052.166-4.378 2.01-3.81 5.309-3.738-4.115-1.856-8.374 1.403-8.842zm4.715-14c2.65 2.97-.328 5.685-1.613 3.959-1.826-2.451-4.095-2.537-6.531-.239 1.362-5.39 5.951-6.177 8.144-3.72zm12.671-30.83c.456-3.954-3.542-4.458-3.599-2.308-.081 3.055-1.886 4.432-5.201 3.957 4.218 3.622 8.423 1.622 8.8-1.649zm-13.149-14.186c3.038 2.571.469 5.675-1.045 4.145-2.15-2.172-4.409-1.941-6.5.675.597-5.528 5.03-6.947 7.545-4.82zm19.791-22.1c-1.057 3.837-4.953 2.809-4.201.793 1.068-2.863-.091-4.816-3.343-5.615 5.267-1.78 8.418 1.648 7.543 4.822zm-16.645 2.374c1.452 3.706-2.284 5.216-2.889 3.151-.86-2.933-2.957-3.802-6.04-2.495 3.151-4.58 7.728-3.722 8.929-.657z" fill="#fcdd09" stroke="#000" stroke-width="1.5"/>
  </g>
 </g>
 <g fill="none" stroke="#000300" stroke-linejoin="round" stroke-linecap="round" stroke-width="6">
  <path display="block" d="m6.04 6.04h399.95v277.98c1.103 134.74-123.6 199.98-199.98 199.98-76.37 0-201.08-65.24-199.98-199.98v-277.98" transform="translate(.003)"/>
 </g>
 <g fill="none" fill-rule="evenodd" stroke="#000">
  <g stroke-width="3">
   <path d="m205 482v-475m-198.96 240h398.96" stroke-linejoin="miter" stroke-linecap="butt"/>
   <path d="m34 353c0 4 17-3 29-3h32v32c0 12-13 27-13 27 14 8 24 19 30.96 31.997 7.04-12.997 17.04-23.997 31.04-31.997 0 0-13-15-13-27v-32h32c12 0 29 7 29 3v-42c0-4-17 3-29 3h-32v-32c0-12 7-23 3-23-4.101.064-38.08-.056-42 0-4 0 3 11 3 23v32h-32c-12 0-29-7-29-3-.095 4.751-.008 37 0 42z" stroke-linejoin="round" stroke-linecap="round"/>
  </g>
  <g stroke-linejoin="round" stroke-linecap="round">
   <path d="m124.28 238.75c9.424-2.131 15.911.544 20.15 6.894m-.177-15.733c5.068 2.761 10.135 9.329 15.203 16.263m-4.95-11.667c2.261-.112 7.387 3.424 10.08 11.49m9.02-12.02c3.927 3.268 5.01 7.482 6.187 11.667m-15.03-15.556c6.356 4.259 10.371 9.238 10.607 15.38m-64.877-25.279c.727-4.14 1.801-7.135 8.132-7.07m-18.738 7.601c2.12-2.433 2.411-1.96 4.066-3.01m-7.955 3.01c.638-2.333 2.597-3.723 6.518-5.588" stroke-width="2"/>
   <path d="m95.87 117.17h1.4m-1.7 2h1.9m-2.1 2h2.3m-2.5 2h2.7m-3 2h3.1m41.806 2.01l1.013-.02m-46.34-.014l3.79.04m41.44 1.983l1.214-.005m-46.722.002l4.23.012m41.18 1.993l1.415-.015m-47.04.022l4.611-.012m40.918 2l1.616-.016m-47.38 0l5 .006m40.657 2l1.787.005m-47.678.021l5.399-.029m40.39 1.998l2.02.022m-48.03-.035l5.777.006m40.13 2.032l2.222-.009m-48.24-.007h6m39.917 2.01l2.423-.001m-48.661.004l6.534.002m39.605 2l2.625-.001m-48.969.004l6.902-.009m39.34 2.01h2.826m-49.27-.014l7.209.001m39.14 1.997l3.03.003m-49.65 0l7.706.007m38.794 1.994l3.253-.003m-49.881.021l7.998.0001m38.555 1.998l3.431-.013m-50.18-.006l8.358.017m38.29 2l3.633-.013m-50.48-.02l8.719.038m38.03 1.988l3.834-.004m-50.785.015l9.08-.006m37.769 1.991l4.04-.0001m-51.09.009l9.448.008m37.506 1.982l4.236-.0001m-51.4-.003l9.822.019m37.24 1.977l4.437.0001m-51.703.027l10.185-.008m36.983 1.976h4.638m-11.366.008h.617m-24.733-.025l1.051.025m-17.582.003h10.555m36.617 1.998h5.066m-12.291 0h2.217m-26.733.03h2.758m-18.651-.031l11.179-.016m-11.179 38.02h54.8m-54.8 2h55m-55 2h53m-53-10h54.5m-54.5 2h54.6m-54.6 2h54.7m-54.7-10h54.2m-54.2 2h54.3m-54.3 2h54.4m-14.775-10h14.275m-21.03 0h5.438m-38.31 0h24.437m14.875 2h14.688m-21.13 0h5.625m-11.688 0h3m-29.812 0h24.875m7.875 2h21.35m-27.788 0h4.75m-31.06 0h25.437m21.938-10h5.925m-13.55 0h6m-12.688 0h4.375m-37.437 0h22.437m24.875 2h6.188m-13.75 0h6.313m-13.06 0h4.875m-37.875 0h23.25m16.375 2h14.08m-20.7 0h5.125m-38.12 0h23.875m23.688-10h5.438m-13 0h4.375m-10.875 0h2.813m-22.465-.03l7.04.03m-20.887 0h12.06m35.438 2h5.5m-13.13 0h4.938m-11.5 0h3.563m-23.417-.032l7.917.032m-21.375 0h12.312m35.06 2h5.725m-13.288 0h5.5m-12.188 0h4.125m-37.25 0h21.937m25.75-8h5.113m-12.675 0h3.5m-28.998-.036l5.123.036m-19.75 0h11.687m36.01 2h5.2m-12.9 0h4m-10.313 0h2m-21.456-.005l6.081.005m-20.312 0h11.812m-6.912 38h40.1m-12.6 2h9.6m5.634-44h5.066m-12.491 0h2.917m-28.11-.019l4.248.019m-19.261 0l11.342-.024" stroke-width=".7"/>
  </g>
 </g>
</svg>
