<?xml version="1.0" encoding="UTF-8" standalone="no"?>
<!-- Created with Inkscape (http://www.inkscape.org/) -->
<svg
   xmlns:svg="http://www.w3.org/2000/svg"
   xmlns="http://www.w3.org/2000/svg"
   version="1.0"
   width="723.61414"
   height="782.19128"
   id="svg2403">
  <defs
     id="defs2406" />
  <path
     d="M 302.4703,770.59953 C 200.78486,750.05857 122.64122,690.54989 76.10718,598.21705 C 45.31298,537.11533 43.22238,523.28621 21.5105,237.06745 L 5.78614,5.7861414 L 717.82802,6.0305434 C 717.82802,6.0305434 691.39782,360.61847 688.20418,405.35637 C 680.16682,517.94557 672.07558,553.62013 641.2993,612.16129 C 610.81662,670.14397 546.78594,727.73821 484.7771,752.94969 C 428.18434,775.95913 361.1363,782.45033 302.4703,770.59953 z"
     id="path2438"
     style="fill:#fcdd09;fill-opacity:1;stroke:#000000;stroke-width:11.57228184;stroke-opacity:1" />
  <g
     transform="matrix(4,0,0,4,-15.6407,-19.840977)"
     id="g3757">
    <path
       d="M 129.62289,113.00404 C 114.25116,117.91644 81.400457,119.75093 59.043633,114.34309 C 59.14828,114.45518 59.298827,150.56622 59.307722,150.53009 C 61.490978,151.11294 92.967805,154.63137 129.67438,150.30598 C 129.7278,150.29969 129.76738,112.95787 129.62289,113.00404 z"
       id="path3709"
       style="opacity:1;fill:#da121a;fill-opacity:1;fill-rule:nonzero;stroke:#000000;stroke-width:1;stroke-miterlimit:4;stroke-dasharray:none;stroke-opacity:1" />
    <path
       d="M 59.015151,124.24242 C 107.82468,129.12338 129.78896,122.3566 129.78896,122.3566"
       id="path3721"
       style="opacity:1;fill:none;fill-rule:evenodd;stroke:#000000;stroke-width:1px;stroke-linecap:butt;stroke-linejoin:miter;stroke-opacity:1" />
    <path
       d="M 58.904221,133.61893 C 107.71375,138.49989 129.67803,131.73311 129.67803,131.73311"
       id="path3723"
       style="opacity:1;fill:none;fill-rule:evenodd;stroke:#000000;stroke-width:1px;stroke-linecap:butt;stroke-linejoin:miter;stroke-opacity:1" />
    <path
       d="M 59.347944,142.27153 C 108.15747,147.15249 130.12175,140.38571 130.12175,140.38571"
       id="path3725"
       style="opacity:1;fill:none;fill-rule:evenodd;stroke:#000000;stroke-width:1px;stroke-linecap:butt;stroke-linejoin:miter;stroke-opacity:1" />
    <path
       d="M 64.561688,115.58983 C 64.561688,124.46429 64.450758,124.51975 64.450758,124.51975"
       id="path3727"
       style="opacity:1;fill:none;fill-rule:evenodd;stroke:#000000;stroke-width:1.00010002;stroke-linecap:butt;stroke-linejoin:miter;stroke-miterlimit:4;stroke-dasharray:none;stroke-opacity:1" />
    <path
       d="M 73.651059,116.90571 C 73.651059,124.97057 73.531171,125.02097 73.531171,125.02097"
       id="path3729"
       style="opacity:1;fill:none;fill-rule:evenodd;stroke:#000000;stroke-width:0.99114132;stroke-linecap:butt;stroke-linejoin:miter;stroke-miterlimit:4;stroke-dasharray:none;stroke-opacity:1" />
    <path
       d="M 66.537738,125.20867 C 66.537738,133.27353 66.41785,133.83379 66.41785,133.83379"
       id="path3731"
       style="opacity:1;fill:none;fill-rule:evenodd;stroke:#000000;stroke-width:0.99114132;stroke-linecap:butt;stroke-linejoin:miter;stroke-miterlimit:4;stroke-dasharray:none;stroke-opacity:1" />
    <path
       d="M 81.837944,117.61518 C 81.837944,124.99155 81.709198,125.50398 81.709198,125.50398"
       id="path3733"
       style="opacity:1;fill:none;fill-rule:evenodd;stroke:#000000;stroke-width:0.98228365;stroke-linecap:butt;stroke-linejoin:miter;stroke-miterlimit:4;stroke-dasharray:none;stroke-opacity:1" />
    <path
       d="M 106.58572,117.39947 C 106.58572,124.77584 106.45698,125.28827 106.45698,125.28827"
       id="path3735"
       style="opacity:1;fill:none;fill-rule:evenodd;stroke:#000000;stroke-width:0.98228365;stroke-linecap:butt;stroke-linejoin:miter;stroke-miterlimit:4;stroke-dasharray:none;stroke-opacity:1" />
    <path
       d="M 115.48647,116.30349 C 115.48647,124.00584 115.36209,124.54091 115.36209,124.54091"
       id="path3737"
       style="opacity:1;fill:none;fill-rule:evenodd;stroke:#000000;stroke-width:0.986637;stroke-linecap:butt;stroke-linejoin:miter;stroke-miterlimit:4;stroke-dasharray:none;stroke-opacity:1" />
    <path
       d="M 124.54446,114.67769 C 124.54446,122.67002 124.42372,123.22523 124.42372,123.22523"
       id="path3739"
       style="opacity:1;fill:none;fill-rule:evenodd;stroke:#000000;stroke-width:0.99026638;stroke-linecap:butt;stroke-linejoin:miter;stroke-miterlimit:4;stroke-dasharray:none;stroke-opacity:1" />
    <path
       d="M 122.18839,124.37386 C 122.18839,132.36619 122.06765,132.9214 122.06765,132.9214"
       id="path3741"
       style="opacity:1;fill:none;fill-rule:evenodd;stroke:#000000;stroke-width:0.99026638;stroke-linecap:butt;stroke-linejoin:miter;stroke-miterlimit:4;stroke-dasharray:none;stroke-opacity:1" />
  </g>
  <g
     transform="matrix(4,0,0,4,-15.6407,-19.840977)"
     id="g3743">
    <path
       d="M 80.115328,62.505316 C 83.732496,54.54273 95.839579,23.313891 95.193574,23.971 C 92.440023,26.771883 60.850889,56.16286 58.801678,58.15509 C 64.332989,60.71818 78.558328,62.504706 80.115328,62.505316 z"
       id="path3822"
       style="opacity:1;fill:#89c5e3;fill-opacity:1;fill-rule:nonzero;stroke:#000000;stroke-width:0.80000001;marker-mid:none;stroke-miterlimit:4;stroke-dasharray:none;stroke-opacity:1" />
    <path
       d="M 107.97922,62.637784 C 104.90946,54.448566 98.100981,23.848468 97.976218,23.876964 C 97.941386,23.88492 128.49171,56.908242 130.08757,59.662163 C 124.39542,61.844869 109.53269,62.742594 107.97922,62.637784 z"
       id="path3632"
       style="opacity:1;fill:#89c5e3;fill-opacity:1;fill-rule:nonzero;stroke:#000000;stroke-width:0.80000001;marker-mid:none;stroke-miterlimit:4;stroke-dasharray:none;stroke-opacity:1" />
    <path
       d="M 80.270915,62.554931 C 83.719843,54.62127 93.171467,29.305335 95.0228,23.854604 C 95.244606,23.20156 97.717551,24.016212 97.72187,24.029431 C 99.569595,29.685058 106.90171,59.962984 108.02694,62.716905 C 102.09947,63.487693 83.903041,63.01272 80.270915,62.554931 z"
       id="path3634"
       style="opacity:1;fill:#89c5e3;fill-opacity:1;fill-rule:nonzero;stroke:#000000;stroke-width:0.80000001;marker-mid:none;stroke-miterlimit:4;stroke-dasharray:none;stroke-opacity:1" />
    <path
       d="M 96.324165,20.195654 C 96.324165,21.408646 95.692028,22.391971 94.912247,22.391971 C 94.132466,22.391971 93.500329,21.408646 93.500329,20.195654 C 93.500329,18.982662 94.132466,17.999337 94.912247,17.999337 C 95.692028,17.999337 96.324165,18.982662 96.324165,20.195654 z"
       transform="matrix(2.4289361,0,0,1.6328876,-134.29402,-12.412355)"
       id="path3458"
       style="opacity:1;fill:#89c5e3;fill-opacity:1;fill-rule:evenodd;stroke:#000000;stroke-width:0.5857169;stroke-linecap:square;stroke-linejoin:miter;stroke-miterlimit:4;stroke-dasharray:none;stroke-opacity:1" />
  </g>
  <g
     transform="matrix(4,0,0,4,-15.6407,-19.840977)"
     id="g3749">
    <path
       d="M 130.0511,59.861856 C 84.218008,68.066893 58.531784,58.282821 58.602284,58.558081 C 59.096703,136.81927 58.846761,99.489556 59.021196,114.34812 C 59.191896,114.13896 93.087762,123.35816 129.61506,113.0445 C 129.66821,113.02949 130.20163,59.834907 130.0511,59.861856 z"
       id="path3455"
       style="opacity:0.98000004;fill:#da121a;fill-opacity:1;fill-rule:nonzero;stroke:#000000;stroke-opacity:1" />
    <path
       d="M 73.427592,73.228185 C 73.519829,73.224348 67.402209,72.12421 67.551149,72.20337 C 67.54638,72.147463 68.143031,82.250149 67.984673,82.13307 C 67.988977,82.201237 72.952587,83.119186 73.094599,83.011154 C 73.138555,82.977716 73.274801,73.234542 73.427592,73.228185 z"
       id="path3699"
       style="opacity:1;fill:#000000;fill-opacity:1;fill-rule:nonzero;stroke:none;stroke-opacity:1" />
    <path
       d="M 115.09126,72.493548 C 114.99902,72.489711 121.11664,71.389573 120.9677,71.468733 C 120.97247,71.412826 120.37582,81.515512 120.53418,81.398433 C 120.52987,81.4666 115.56626,82.384549 115.42425,82.276517 C 115.3803,82.243079 115.24405,72.499905 115.09126,72.493548 z"
       id="path3701"
       style="opacity:1;fill:#000000;fill-opacity:1;fill-rule:nonzero;stroke:none;stroke-opacity:1" />
    <path
       d="M 89.521727,73.880181 C 89.429487,73.876344 97.543861,73.719117 97.394921,73.798277 C 97.399691,73.74237 97.191298,93.551496 97.349658,93.434417 C 97.345348,93.502584 89.7194,93.588552 89.57739,93.48052 C 89.53344,93.447082 89.674517,73.886538 89.521727,73.880181 z"
       id="path3703"
       style="opacity:1;fill:#000000;fill-opacity:1;fill-rule:nonzero;stroke:none;stroke-opacity:1" />
    <rect
       width="2.070575"
       height="54.696735"
       x="80.98175"
       y="62.694901"
       id="rect3705"
       style="opacity:1;fill:#000000;fill-opacity:1;fill-rule:evenodd;stroke:none;stroke-width:1;stroke-linecap:square;stroke-linejoin:miter;stroke-miterlimit:4;stroke-dasharray:none;stroke-opacity:1" />
    <rect
       width="2.070575"
       height="54.696735"
       x="104.78011"
       y="62.737213"
       id="rect3707"
       style="opacity:1;fill:#000000;fill-opacity:1;fill-rule:evenodd;stroke:none;stroke-width:1;stroke-linecap:square;stroke-linejoin:miter;stroke-miterlimit:4;stroke-dasharray:none;stroke-opacity:1" />
  </g>
  <g
     transform="matrix(1.0363476,0,0,1.0298182,-9.8074787,-13.579415)"
     id="g2752">
    <path
       d="M 221.89004,595.83322 C 221.89004,518.64626 283.23779,455.97962 359.92245,455.97962 C 435.99362,455.97962 497.34134,518.64626 497.34134,595.83322 C 497.34134,673.78442 435.99362,736.45106 359.92245,736.45106 C 283.23779,736.45106 221.89004,673.78442 221.89004,595.83322"
       id="path281"
       style="fill:#231f20;fill-opacity:1;fill-rule:nonzero;stroke:none" />
    <path
       d="M 222.45356,595.51158 C 222.45356,519.07718 283.97258,457.46166 359.30206,457.46166 C 434.6315,457.46166 495.52282,519.07718 495.52282,595.51158 C 495.52282,672.72602 434.6315,734.3415 359.30206,734.3415 C 283.97258,734.3415 222.45356,672.72602 222.45356,595.51158"
       id="path283"
       style="fill:#e7e7e7;fill-opacity:1;fill-rule:nonzero;stroke:#000000;stroke-width:4.06855106;stroke-opacity:1" />
    <path
       d="M 244.68064,595.49038 C 244.68064,532.1679 295.70488,480.35866 359.31956,480.35866 C 422.27154,480.35866 473.29574,532.1679 473.29574,595.49038 C 473.29574,659.63522 422.27154,711.4445 359.31956,711.4445 C 295.70488,711.4445 244.68064,659.63522 244.68064,595.49038"
       id="path287"
       style="fill:#ffffff;fill-opacity:1;fill-rule:nonzero;stroke:#000000;stroke-width:31.68799973;stroke-miterlimit:4;stroke-dasharray:none;stroke-opacity:1" />
    <path
       d="M 326.18118,595.83322 C 326.18118,577.49178 340.90463,562.20722 359.92245,562.20722 C 378.32675,562.20722 393.05022,577.49178 393.05022,595.83322 C 393.05022,614.9389 378.32675,630.22346 359.92245,630.22346 C 340.90463,630.22346 326.18118,614.9389 326.18118,595.83322"
       id="path399"
       style="fill:#231f20;fill-opacity:1;fill-rule:nonzero;stroke:none" />
    <path
       d="M 362.77214,616.30618 C 351.73056,618.54754 339.5697,610.55526 337.05967,598.18994 C 334.70651,586.59746 342.78857,574.4961 353.83014,572.25478 C 365.79187,569.82666 377.95269,577.81894 380.30584,589.41138 C 382.81588,601.77674 374.73386,613.8781 362.77214,616.30618"
       id="path403"
       style="fill:#e7e7e7;fill-opacity:1;fill-rule:nonzero;stroke:#000000;stroke-width:29.5265522;stroke-miterlimit:4;stroke-dasharray:none;stroke-opacity:1" />
    <path
       d="M 349.0087,595.6327 C 349.0087,590.25454 353.67995,585.4141 359.20053,585.4141 C 364.29642,585.4141 368.96768,590.25454 368.96768,595.6327 C 368.96768,601.54874 364.29642,606.38906 359.20053,606.38906 C 353.67995,606.38906 349.0087,601.54874 349.0087,595.6327"
       id="path405"
       style="fill:#000000;fill-opacity:1;fill-rule:nonzero;stroke:#e7e7e7;stroke-width:4;stroke-opacity:1" />
    <path
       d="M 381.13068,664.87565 C 405.9243,659.91034 408.39552,680.16635 408.86398,687.94427 C 408.87063,688.0548 438.09075,665.07226 437.9902,665.04385 C 430.8916,663.03853 413.74546,655.06226 419.8551,634.42868 C 419.92455,634.19415 392.86911,633.20844 392.65091,607.12017 C 392.64954,606.95786 363.64892,629.94158 363.61658,629.94834 C 388.12545,636.98841 381.09891,664.89402 381.13068,664.87565 z"
       id="path7443"
       style="fill:#000000;fill-opacity:1;fill-rule:nonzero;stroke:none" />
    <path
       d="M 383.77113,662.00134 C 415.79893,636.81957 415.79893,636.81957 415.79893,636.81957"
       id="path4007"
       style="fill:#e7e7e7;fill-opacity:1;fill-rule:evenodd;stroke:#e7e7e7;stroke-width:2.79999971;stroke-linecap:butt;stroke-linejoin:miter;stroke-miterlimit:4;stroke-dasharray:none;stroke-opacity:1" />
    <path
       d="M 426.05175,619.38038 C 437.2486,596.70862 454.8036,607.1122 461.2512,611.48759 C 461.34282,611.54977 460.96759,574.37624 460.88372,574.43855 C 454.96315,578.83835 438.18081,587.55408 425.56317,570.12228 C 425.41976,569.92414 408.12821,590.75609 387.32776,575.0085 C 387.19834,574.91053 387.70846,611.9109 387.69407,611.94065 C 408.22788,596.82079 426.04691,619.41676 426.05175,619.38038 z"
       id="path4015"
       style="fill:#000000;fill-opacity:1;fill-rule:nonzero;stroke:none" />
    <path
       d="M 425.38605,615.53454 C 424.98197,574.79464 424.98197,574.79464 424.98197,574.79464"
       id="path4017"
       style="fill:#e7e7e7;fill-opacity:1;fill-rule:evenodd;stroke:#e7e7e7;stroke-width:2.79999995;stroke-linecap:butt;stroke-linejoin:miter;stroke-miterlimit:4;stroke-dasharray:none;stroke-opacity:1" />
    <path
       d="M 295.49179,621.47262 C 306.68864,598.80086 324.24364,609.20444 330.69124,613.57983 C 330.78286,613.64201 330.40763,576.46848 330.32376,576.53079 C 324.40319,580.93059 307.62085,589.64632 295.00321,572.21452 C 294.8598,572.01638 277.56825,592.84833 256.7678,577.10074 C 256.63838,577.00277 257.1485,614.00314 257.13411,614.03289 C 277.66792,598.91303 295.48695,621.509 295.49179,621.47262 z"
       id="path4027"
       style="fill:#000000;fill-opacity:1;fill-rule:nonzero;stroke:none" />
    <path
       d="M 294.82609,617.62678 C 294.42201,576.88688 294.42201,576.88688 294.42201,576.88688"
       id="path4029"
       style="fill:#e7e7e7;fill-opacity:1;fill-rule:evenodd;stroke:#e7e7e7;stroke-width:2.79999995;stroke-linecap:butt;stroke-linejoin:miter;stroke-miterlimit:4;stroke-dasharray:none;stroke-opacity:1" />
    <path
       d="M 304.92303,554.22159 C 330.10855,551.97036 330.37174,572.37485 329.99517,580.15777 C 329.98981,580.26837 361.52686,560.58519 361.42998,560.54606 C 354.59028,557.78383 338.40871,547.99773 346.7168,528.14709 C 346.81124,527.92146 320.02165,524.01174 322.6298,498.05326 C 322.64601,497.89176 291.32705,517.59988 291.29417,517.60309 C 314.89655,527.2558 304.88946,554.23641 304.92303,554.22159 z"
       id="path4033"
       style="fill:#000000;fill-opacity:1;fill-rule:nonzero;stroke:none" />
    <path
       d="M 307.85922,551.65012 C 342.42559,530.08468 342.42559,530.08468 342.42559,530.08468"
       id="path4035"
       style="fill:#e7e7e7;fill-opacity:1;fill-rule:evenodd;stroke:#e7e7e7;stroke-width:2.79999971;stroke-linecap:butt;stroke-linejoin:miter;stroke-miterlimit:4;stroke-dasharray:none;stroke-opacity:1" />
    <path
       d="M 416.8108,550.19045 C 403.16943,528.89981 421.14006,519.23185 428.21515,515.96709 C 428.31569,515.92071 396.28092,497.05842 396.29101,497.16242 C 397.00432,504.50426 395.80916,523.37706 374.36646,525.18892 C 374.12273,525.20951 383.04298,550.77114 358.82008,560.46118 C 358.66938,560.52148 390.62544,579.17886 390.6435,579.20653 C 388.28916,553.8155 416.83946,550.21337 416.8108,550.19045 z"
       id="path4039"
       style="fill:#000000;fill-opacity:1;fill-rule:nonzero;stroke:none" />
    <path
       d="M 413.1731,548.77598 C 378.06865,528.09797 378.06865,528.09797 378.06865,528.09797"
       id="path4041"
       style="fill:#e7e7e7;fill-opacity:1;fill-rule:evenodd;stroke:#e7e7e7;stroke-width:2.79999971;stroke-linecap:butt;stroke-linejoin:miter;stroke-miterlimit:4;stroke-dasharray:none;stroke-opacity:1" />
    <path
       d="M 344.81913,664.55325 C 333.47385,641.95539 352.3552,634.2154 359.73234,631.70674 C 359.83717,631.67109 329.94551,609.56904 329.94469,609.67351 C 329.88801,617.04971 326.73004,635.69476 305.21533,635.25925 C 304.97079,635.25429 311.17505,661.60719 286.07326,668.71673 C 285.91709,668.76097 315.75185,690.65103 315.76692,690.68044 C 316.07492,665.18235 344.84524,664.57903 344.81913,664.55325 z"
       id="path4045"
       style="fill:#000000;fill-opacity:1;fill-rule:nonzero;stroke:none" />
    <path
       d="M 341.34887,662.76691 C 308.59377,638.53873 308.59377,638.53873 308.59377,638.53873"
       id="path4047"
       style="fill:#e7e7e7;fill-opacity:1;fill-rule:evenodd;stroke:#e7e7e7;stroke-width:2.79999971;stroke-linecap:butt;stroke-linejoin:miter;stroke-miterlimit:4;stroke-dasharray:none;stroke-opacity:1" />
  </g>
</svg>
