<?xml version="1.0" encoding="utf-8"?>
<!-- Generator: Adobe Illustrator 13.0.0, SVG Export Plug-In . SVG Version: 6.00 Build 14948)  -->
<!DOCTYPE svg PUBLIC "-//W3C//DTD SVG 1.0//EN" "http://www.w3.org/TR/2001/REC-SVG-20010904/DTD/svg10.dtd">
<svg version="1.0" id="svg3560" xmlns:svg="http://www.w3.org/2000/svg"
	 xmlns="http://www.w3.org/2000/svg" xmlns:xlink="http://www.w3.org/1999/xlink" x="0px" y="0px" width="266.742px"
	 height="332.006px" viewBox="0 0 266.742 332.006" enable-background="new 0 0 266.742 332.006" xml:space="preserve">
<g id="layer1" transform="translate(-449.43836,-487.78785)">
	<path id="path489" d="M583.567,819.794c-2.464-1.579-3.664-3.917-6.191-5.56c-3.096-4.359-12.193-8.403-16.742-10.994
		c-0.063-0.252-0.126-0.505-0.126-0.694c-8.214-4.296-16.301-5.876-25.398-6.065c-0.063-0.252-0.126-0.505-0.126-0.695
		c-13.71-1.263-27.609,0.254-41.256-1.832c-5.181-1.516-19.144-5.18-21.797-10.487c-7.393-5.56-14.658-13.268-17.438-22.365
		c-3.728-3.411-4.106-11.246-4.928-15.669c-0.063-85.923-0.127-171.783-0.127-257.644c88.894,0,177.786,0,266.742,0
		c-0.126,84.85-0.189,169.698-0.253,254.611c-0.758,5.244-1.517,8.276-2.274,14.278c-1.264,3.285-7.076,17.627-9.982,18.195
		c-3.158,5.876-10.93,9.73-16.3,13.837c-4.549,1.958-9.098,3.979-13.646,6.002c-13.331,2.653-26.03,1.2-39.487,0.758
		c-1.074,0.38-1.074,0.38-13.836,1.517c-3.538,1.011-7.076,2.021-10.551,3.032c-5.939,2.591-10.931,7.392-16.616,10.552
		c-3.664,3.664-3.664,3.664-4.676,4.295C587.674,817.013,585.589,818.909,583.567,819.794z"/>
	<path id="path491" fill="#FFFFFF" d="M582.809,810.001c-2.653-3.222-6.76-5.243-9.666-8.339
		c-10.299-5.687-19.839-10.426-31.337-12.952c-3.98-0.189-10.93-2.022-14.595-0.695c-10.93-0.632-21.859,0.126-32.727-2.274
		c-8.655-3.032-8.655-3.032-12.13-4.549c-8.214-6.191-17.754-12.825-21.103-23.439c-2.274-3.728-3.096-8.023-3.79-12.32
		c0.063-83.143,0.126-166.287,0.252-249.367c83.396,0,166.793,0,250.189,0c0,83.081,0.063,166.225,0.126,249.367
		c-0.505,2.212-1.011,4.486-1.516,6.761c-4.107,10.487-8.403,18.259-16.933,26.03c-3.79,2.211-7.519,4.485-11.245,6.76
		c-8.467,2.653-8.467,2.653-8.656,2.969c-17.816,0.633-36.075-1.579-53.513,2.338c-0.189,0.316-0.189,0.316-8.655,3.349
		c-7.14,3.791-7.14,3.791-15.605,8.908c0,0.885-3.222,2.591-3.791,3.032c0,0.885-1.643,1.391-2.147,2.654
		c-0.316,0.063-0.568,0.189-0.821,0.315c-0.063,0.19-0.063,0.442-0.063,0.695C584.262,809.432,584.073,809.748,582.809,810.001z"/>
	<path id="path493" d="M583.188,808.105c-9.919-10.234-25.334-19.901-40.182-21.164c-4.232-1.138-9.54-1.138-13.963-1.58
		c-9.098,0-34.812,2.717-42.456-4.928c-6.507-1.896-12.257-8.15-16.679-12.889c-4.55-7.203-4.55-7.203-5.623-8.467
		c-2.653-6.128-2.653-6.128-4.17-11.056c0.063-83.271,0.126-166.54,0.253-249.747c81.501,0,163.002,0,244.503,0
		c-0.127,83.207-0.19,166.476-0.253,249.747c-0.568,5.938-3.285,11.94-6.381,17.059c-1.517,1.706-4.359,5.054-5.244,7.14
		c-0.759,0.631-0.759,0.631-0.885,1.326c-0.821,0.189-4.864,3.538-13.015,8.781c-4.17,1.391-7.392,2.654-11.752,3.412
		c-14.847,0.127-29.946-0.252-44.73,1.137c-9.413,2.275-9.604,2.591-12.825,3.412c-5.434,2.97-5.434,2.97-6.76,3.349
		c-4.107,2.464-14.911,7.897-16.806,12.636c-0.253,0-0.506,0-0.695,0.063c-0.063,0.189-0.063,0.379-0.063,0.632
		c-0.252,0-0.505,0-0.694,0.063c-0.127,0.253-0.253,0.506-0.316,0.822C584.009,807.916,583.567,807.979,583.188,808.105z"/>
	<path id="path495" fill="#FCDD09" d="M583.188,804.378c-1.643-2.464-6.002-5.812-8.845-7.013
		c-5.623-4.802-13.078-7.897-19.901-10.551c-18.259-5.181-35.949-3.096-54.713-4.486c-2.844-0.758-5.623-1.516-8.403-2.273
		c-5.875-2.97-5.875-2.97-10.74-5.939c-3.222-2.653-6.065-5.37-8.845-8.402c-2.022-3.285-4.044-6.57-6.002-9.793
		c-1.517-4.106-2.464-7.961-3.349-12.383c-0.063-81.122-0.127-162.244-0.127-243.366c80.237,0,160.476,0,240.713,0
		c-0.127,82.007-0.189,164.013-0.253,246.02c-1.453,6.128-3.096,12.004-6.697,17.185c-0.885,2.021-3.096,3.791-3.538,5.686
		c-1.39,0.316-2.779,1.643-3.032,3.033c-0.759,0.189-2.78,2.148-6.634,4.991c-5.687,3.222-10.867,5.56-17.374,6.381
		c-13.773,0.38-27.609-0.253-41.319,0.759c-8.782,1.516-16.49,3.727-24.45,7.96C593.992,796.039,588.369,799.829,583.188,804.378z"
		/>
	<path id="path497" d="M594.813,768.302c-0.253-0.126-0.505-0.252-0.758-0.379c-0.127-2.021-0.189-4.043-0.253-6.065
		c-0.695-0.694-0.695-0.694-1.832-3.285c0-7.96-2.148-14.089,6.191-17.185c4.485-0.127,8.972-0.253,13.521-0.379
		c3.854-1.706,12.383-10.488,9.729-14.974c-6.444,0.379-12.825,1.769-19.27,2.022c-1.896,1.895-2.843,4.484-3.791,6.949
		c-2.969,0.632-5.181-0.063-8.023-0.885c-0.063-0.252-0.126-0.506-0.126-0.695c-0.253-0.063-0.442-0.063-0.632-0.063
		c-0.063-0.253-0.127-0.442-0.127-0.632c-1.2-0.506-1.643-0.695-2.211-1.833c-0.253-0.063-0.506-0.126-0.695-0.126
		c0-1.138-4.233-4.738-4.864-4.864c-0.063-0.253-0.127-0.506-0.127-0.695c-0.253-0.063-0.442-0.063-0.632-0.063
		c-0.694-2.4-3.096-3.664-1.643-6.57c2.148-0.759,3.412-2.401,5.181-3.665c0.759-7.139,0.759-7.139,1.517-11.245
		c2.59-7.519,7.834-14.721,13.521-20.28c0-0.253,0.063-0.442,0.126-0.633c-11.94-1.452-27.42,2.907-28.431,17.186
		c-0.253,0-0.505,0-0.694,0.063c-0.127,5.371,0.315,9.667,1.2,14.975c-0.759,1.516-1.77,2.021-2.591,3.348
		c0.189,2.275,0.442,4.549,0.695,6.823c-0.506,0.885-1.011,1.77-1.517,2.717c-1.326,1.2-3.475,2.338-3.854,4.044
		c-1.138,0.252-14.152,10.93-14.91,12.889c-3.096,2.211-4.865,4.359-8.467,6.064c-1.769-0.885-0.947-2.906-1.895-4.549
		c-3.349,0-3.223,3.602-4.044,6.255c-0.253,0-0.505,0-0.695,0.063c-0.631,3.854-5.749,2.338-8.402,2.338
		c-1.959,1.958-1.959,2.463-2.4,5.18c-8.719,0.063-17.438,0.127-26.094,0.254c-0.063-2.401,0.063-4.865-0.821-7.076
		c-3.411-1.012-1.326-11.941-0.884-15.1c1.264-2.591,3.222-3.286,5.813-4.359c7.328-0.19,15.857,0.568,22.555-2.591
		c2.464-3.602,6.317-5.876,8.655-9.54c2.148-1.391,3.412-3.285,4.296-5.687c-0.379-17.185-0.379-17.185-1.137-31.084
		c-0.821-4.296-0.127-4.359-4.359-4.359c-0.885,0.948-0.885,0.948-1.011,1.706c-0.569,0-1.138,0.063-1.706,0.127
		c0-7.141,0.821-14.216,2.211-21.229c0.632-1.264,1.517-1.391,2.78-2.085c3.917,0.442,6.887,0.884,10.425,1.958
		c2.906-0.885,5.813-1.769,8.719-2.653c12.698-1.643,24.261,1.832,36.833,2.97c1.327-0.253,2.717-0.506,4.106-0.758
		c0.063-0.19,0.127-0.38,0.189-0.506c-3.979-6.444-3.917-5.876-11.562-7.392c-3.032-4.107-3.412-5.054-7.897-10.867
		c-0.821-1.706-0.821-1.706-1.39-2.211c-6.634,1.39-12.699,4.486-19.08,6.697c-0.442,0-0.885,0-1.327,0
		c-0.442-0.505-0.442-0.505-1.137-3.538c-0.506-0.19-7.708,2.148-7.897,2.464c-2.78,0.695-6.508,2.211-9.54,2.969
		c-3.159-0.379-3.412-0.695-4.423-0.821c-1.517,3.917-6.76,2.022-9.729,2.59c-0.632,1.327-0.126,3.159,0,4.612
		c-8.402,0.127-16.742,0.253-25.082,0.38c-1.074-2.212-1.137-4.36-1.453-6.824c-3.096-1.201-1.832-12.32-0.821-14.91
		c3.664-4.296,10.046-3.033,15.163-3.033c3.475-0.253,6.949-0.505,10.487-0.758c11.941-3.665,22.239-9.224,33.801-13.899
		c0.379-3.096-2.464-7.455-3.538-10.298c0-3.475,1.517-6.887,1.517-10.109c-12.004-34.938-12.004-34.938-12.762-36.454
		c-0.632-3.854,2.085-5.307,2.716-8.529c-1.326-0.126-2.653-0.253-3.917-0.379c-0.315,0.695-0.315,0.695-0.442,3.854
		c-7.771-1.516-15.983,0.316-23.755,0.316c-0.315-0.126-0.632-0.252-0.885-0.379c-1.326-6.887-6.002-18.448,0.127-24.008
		c0.884-0.253,1.769-0.506,2.653-0.758c10.74-0.189,21.291-2.022,30.895,3.222c0,0.948,3.096,3.348,3.854,4.359
		c6.508,10.172,10.614,21.796,16.554,32.285c3.032,8.402,3.032,8.402,3.537,8.971c1.896,0,3.538-1.58,4.739-2.97
		c14.783-7.581,15.542-8.339,18.953-9.856c0.189-0.252,0.379-0.505,0.632-0.695c-2.843-0.568-3.411-0.252-5.117,1.833
		c-7.582-0.379-7.582-0.379-9.729-0.885c0-3.601,0.315-6.634,1.074-10.108c0.189-0.063,0.379-0.126,0.632-0.126
		c0-0.253,0.063-0.442,0.126-0.632c0.947-0.189,1.896-0.379,2.906-0.505c0.253-0.821,0.253-0.821,0.063-1.264
		c-8.846,0-8.846,0-14.279-0.379c-3.601-0.885-4.738-2.843-6.57-6.128c-1.011-3.602,0.506-8.277,1.2-11.814c0.316,0,0.695,0,1.074,0
		c2.148,10.045,5.939,12.32,15.921,12.32c0.569-0.253,1.201-0.442,1.832-0.632c0.063-1.011,0.127-1.958,0.253-2.906
		c-2.085-0.569-2.085-0.569-3.854-0.695c-0.253-4.17-0.253-4.17-0.189-13.331c0.694-0.632,1.39-1.2,2.147-1.769
		c0.759-7.897,0.759-7.897,1.201-8.782c11.245,0,11.245,0,15.163-0.442c2.274-3.222,5.938-1.453,9.603-1.011
		c2.212-0.758,3.349-2.654,5.055-3.475c3.728,0,7.519,0,11.309,0c4.359,1.138,8.846,3.602,12.51,6.192
		c3.096,4.928,5.37,9.603,7.519,15.037c0.126,4.106,0.253,8.276,0.379,12.446c-1.896,8.655-3.349,16.932-7.519,24.766
		c-2.147,7.582-5.56,14.784-8.276,22.176c-1.327,5.939-3.664,11.309-4.106,17.438c-0.885,1.137-0.947,2.274-1.138,3.728
		c-0.758,0.442-1.516,0.884-2.211,1.39c1.327,12.383,4.991,25.019,7.834,37.086c1.643,3.349,2.844,3.664,6.255,5.308
		c0.885,3.348,2.527,14.404,6.57,15.983c1.77,2.717,5.118,2.148,7.961,1.579c2.843-4.801,3.854-7.834,4.802-13.457
		c0-17.311-3.791-34.495-3.791-51.743c-1.264-12.193-2.527-24.324-3.728-36.454c0-15.29,0-25.271,15.921-31.4
		c5.308-0.252,10.678-0.695,15.858,1.011c0,0.189,0,0.379,0.063,0.568c1.705,0.19,4.611,1.453,5.243,3.033
		c0.253,0.063,0.506,0.189,0.821,0.316c5.687,9.287,6.571,16.3,0.063,25.651c-2.148,4.422-8.276,13.583-6.128,18.322
		c2.59,1.39,2.59,1.39,5.686,2.59c0.063,0.316,0.127,0.632,0.253,0.948c-18.006,3.032-25.019-15.416-25.019-30.137
		c0.379-2.464,0.505-5.623,1.769-7.771c0.632-0.063,1.264-0.126,1.959-0.189c0.063,0.379,0.189,0.758,0.315,1.137
		c0.695,0.253,0.695,0.253,3.096,0.063c0-1.011,0-2.021,0-2.969c-2.97-2.148-5.496-0.316-8.213,1.516
		c-1.706,3.98-2.401,8.34-2.717,12.636c2.717,31.463,6.002,62.926,8.655,94.389c-0.126,2.717-0.253,5.497-0.379,8.276
		c-1.011,3.033-2.021,6.065-2.97,9.161c-2.969,3.476-5.243,5.497-9.54,7.519c-3.917,0.189-7.202,0.316-11.056-0.379
		c-2.022-1.138-4.107-3.096-6.444-2.78c-1.138,4.359-4.612,13.394-2.717,17.563c2.085,1.453,6.065,3.223,8.529,1.77
		c5.749,0,11.372,0,17.058,0.758c4.676,3.728,2.654,7.834,0.759,12.826c2.59,3.222,2.211,5.369,2.338,9.477
		c-3.412,3.411-4.612,9.477-7.897,13.141c-0.063,0.379-0.127,0.758-0.19,1.201c-0.252,0-0.505,0-0.694,0.063
		c-0.695,1.58-1.453,2.211-1.959,3.664c-4.612,1.138-5.307,11.941-10.677,12.573c-4.612-4.612-7.961-1.833-9.478,3.979
		c-2.337,5.434-3.222,3.98-8.276,3.096c-0.252,0.506-0.505,1.012-0.694,1.518C611.176,768.113,602.964,768.177,594.813,768.302z"/>
	<path id="path499" fill="#4D87CA" d="M597.846,764.955c-0.316-0.254-0.632-0.443-0.948-0.633c0-0.379,0-0.758,0-1.074
		c0.379-0.315,0.759-0.631,1.138-0.884c0.315,0.063,0.632,0.189,0.947,0.315c0,0.632,0.063,1.327,0.126,2.021
		C598.668,764.765,598.225,764.828,597.846,764.955z"/>
	<path id="path501" fill="#4D87CA" d="M602.332,764.955c-0.253-0.127-0.506-0.254-0.758-0.38c0.063-0.568,0.126-1.138,0.189-1.706
		c2.021-1.326,3.854-0.568,4.738,1.706C605.112,764.701,603.721,764.828,602.332,764.955z"/>
	<path id="path503" fill="#4D87CA" d="M610.229,764.575c0.253-1.011,0.505-2.021,0.758-3.032c0.253,0,0.506,0,0.759,0
		c0.379,0.885,0.758,1.769,1.137,2.653C611.998,764.322,611.114,764.449,610.229,764.575z"/>
	<path id="path505" fill="#4D87CA" d="M616.989,763.817c-0.505-0.759-2.147-2.085-3.032-2.274c-0.063-0.253-0.127-0.506-0.127-0.695
		c-0.189-0.063-0.379-0.063-0.568-0.063c-0.442-1.138-1.516-1.517-2.337-2.401c-0.127-1.453-0.253-2.906-0.316-4.359
		c2.274-0.568,4.865-0.253,6.887-1.138c-0.063-0.568-0.127-1.137-0.189-1.705c-6.697-0.316-8.466-1.706-9.225,4.675
		c0.506,2.464,0.695,3.412,0,5.813c-6.064-1.327-5.686-6.634-5.37-11.751c2.717-0.063,5.813,0.379,8.023-1.201
		c-0.126-0.505-0.189-0.947-0.252-1.389c-2.906-0.254-7.455-0.948-9.92,1.073c-0.379,1.138-0.379,1.138-0.694,7.076
		c0.253,1.706,0.947,3.411,0.315,5.055c-1.769,0-3.348-0.569-4.991-1.2c-1.2-3.98-0.315-8.34,0.38-12.447
		c5.307-4.359,13.204-2.779,19.774-3.475c0-0.252,0.063-0.441,0.127-0.631c8.971-2.401,17.247-13.963,13.268-23.314
		c-6.571-4.359-15.669-0.947-22.997,0.19c-3.033,0-7.519,0.884-9.099-2.274c-0.252-0.063-0.505-0.127-0.694-0.127
		c-0.316-1.769-0.632-3.475-0.885-5.18c-0.316,0.063-0.632,0.189-0.885,0.315c-4.296,12.193,13.647,8.972,19.648,8.087
		c0.063-0.253,0.19-0.442,0.316-0.632c0.063,0.189,0.126,0.379,0.253,0.632c4.802-0.947,8.529-0.947,13.078,0.506
		c0,2.526-0.127,4.675-0.568,7.139c-1.517,3.791-2.591,5.56-2.78,6.381c-1.011,0-2.085,1.896-2.78,2.591
		c0-2.527,3.475-5.434,4.423-8.276c0-1.264,0-2.527,0-3.729c-0.821-0.694-1.643-1.389-2.464-2.021
		c-4.865-0.063-9.54,0.695-14.216,1.832c-3.538,0.127-7.075,0.253-10.551,0.443c-0.189,2.717-1.264,3.475-2.4,5.813
		c-0.063-1.201,0.695-3.096,0.695-4.233c-1.517-0.569-2.97,2.59-3.412,3.601c-0.442,0.063-0.821,0.127-1.2,0.253
		c-0.253-0.568-0.442-1.073-0.632-1.579c1.706-2.148,2.969-2.527,2.969-5.244c-0.252,0-0.505,0-0.758,0.063
		c-0.947,1.896-3.159,3.917-5.37,3.728c0.126-0.632,0.253-1.264,0.379-1.832c1.453,0,2.464-2.906,2.527-4.107
		c-0.379,0-0.758,0.063-1.074,0.127c-1.579,1.579-1.958,2.717-4.423,3.222c-0.568-1.011-0.568-1.643-0.568-2.843
		c0.506-0.442,2.717-1.2,3.285-1.77c-0.063-0.568-0.126-1.137-0.189-1.643c-2.274-0.884-4.864,2.844-5.433,2.465
		c0-0.443,0-0.885,0.063-1.327c1.453-1.074,2.906-2.147,4.423-3.222c0.379-0.759,0.379-5.623,1.2-10.615
		c2.464-6.57,5.497-11.119,9.793-16.932c7.771-7.328,18.322-18.258,16.932-29.82c-0.947,0.063-1.832,0.189-2.717,0.316
		c-0.505,4.675-1.264,7.834-3.032,12.193c-0.758,0.568-0.758,0.568-1.138,1.453c-0.505,0-1.011,0-1.453,0
		c-4.043-6.381-8.528-12.51-12.446-18.954c-0.947-0.947-1.137-1.2-1.579-2.527c3.791-0.632,7.645-0.885,11.562-1.011
		c0.759-2.085-1.073-2.717-2.59-3.033c-1.517,0.379-1.517,0.379-17.816,1.516c-0.821-0.821-0.759-1.074-0.759-2.211
		c11.752-0.821,13.647-1.2,19.586-1.453c0.189-1.137,0-1.579-0.316-2.716c-2.59-1.264-19.838,1.011-22.302,1.137
		c-0.758-0.758-0.758-0.758-0.947-1.643c6.696-1.769,14.973-1.264,21.923-1.58c0.442-1.074,0.253-1.39-0.189-2.401
		c-6.761-2.211-16.174,1.074-23.756,0.316c-0.442-0.505-0.442-0.505-0.252-1.074c7.202-1.895,15.415-0.947,22.87-2.148
		c-0.063-0.505-0.126-1.011-0.126-1.453c-4.423-2.464-10.614,0.821-15.795-0.695c5.055-2.717,7.519-3.222,13.331-3.222
		c0.189-0.189,0.379-0.379,0.568-0.569c-0.253-0.758-0.442-1.453-0.632-2.148c-1.706-0.063-3.412-0.063-5.117-0.063
		c0-11.057,17.248-9.161,24.387-9.729c0,0.695,0,1.453,0,2.211c-1.896,0.316-3.791,0.632-5.686,0.948
		c-0.885,3.601,4.611,2.653,6.57,2.653c0.379,0.506,0.379,0.506,0.379,2.148c-3.096,1.327-6.634-0.442-4.296,3.791
		c2.337,0,4.802-0.884,5.686,1.39c-1.579,0.063-3.158,0.189-4.738,0.316c-1.579,4.169,2.653,2.716,5.497,2.653
		c0,0.632,0.063,1.327,0.126,2.022c-2.78,0.379-2.78,0.379-4.233,1.074c0,3.665,2.085,2.717,5.308,3.096
		c0.063,0.568,0.126,1.137,0.253,1.706c-1.453,0.126-1.453,0.126-3.412,0.948c-0.189,1.2,0,1.643,0.506,2.717
		c1.326-0.126,2.653-0.19,4.043-0.253c0,0.568,0,1.2,0,1.832c-2.211,0.126-2.211,0.126-2.906,0.442
		c0.063,0.885,0.189,1.769,0.316,2.717c1.137,0.126,2.274,0.252,3.475,0.442c0,0.189,0,0.442,0,0.695
		c-0.947,0.379-1.896,0.758-2.843,1.201c0,0.505,0.063,1.011,0.126,1.516c1.074,0.126,2.211,0.316,3.349,0.505
		c0,0.442,0,0.885,0,1.326c-0.568,0-1.074,0-1.579,0c-0.695,0.695-0.632,1.517-0.253,2.338c8.339,2.338,9.224,1.77,10.613,10.172
		c1.012,2.085,2.022,4.233,3.033,6.381c2.021,2.086,2.021,2.086,2.906,3.729c4.232,1.958,8.023,2.652,12.257,0.252
		c6.887-8.213,5.749-19.648,5.054-29.82c-3.348-25.145-4.485-50.669-7.139-75.878c0.315-10.93-0.063-17.563,9.098-24.577
		c0.379-0.126,0.758-0.253,1.2-0.316c0-0.253,0.063-0.442,0.127-0.632c9.098-2.401,18.511-1.453,23.755,6.95
		c0.126,1.2,0.253,2.401,0.442,3.601c-0.821-1.579-0.821-1.579-1.453-1.895c0.253,4.043,0.253,4.043-0.063,8.971
		c-0.632,1.516-1.264,3.096-1.896,4.675c-5.938,5.497-10.487,10.298-9.54,19.017c-0.315-0.126-0.632-0.189-0.947-0.253
		c-0.316-3.98-0.127-5.875,1.137-9.729c1.644-1.896,1.644-1.896,3.159-4.549c5.497-4.991,7.329-6.634,7.329-14.026
		c-0.759-2.843-1.896-9.161-4.865-10.361c-0.063,0.505-0.063,1.074-0.063,1.643c2.274,5.56,5.875,15.037-1.201,18.575
		c-0.126,0.253-0.189,0.505-0.252,0.821c-4.359,3.159-6.761,7.834-7.897,12.762c-0.253,0-0.506,0-0.695,0
		c-5.117-5.434,2.717-11.625,6.887-14.278c6.128-6.128,3.285-12.257,0.694-19.585c-0.315,0.063-0.631,0.189-0.884,0.315
		c0.947,4.675,2.59,9.667,1.516,14.405c-2.147,3.412-6.002,4.422-7.645,7.708c-1.264,0-2.085,2.464-3.158,3.349
		c0-4.802,3.475-4.612,6.317-7.645c6.065-3.538,5.055-18.259-2.338-19.27c0.632,1.201,0.632,1.201,2.338,3.223
		c2.021,6.444,2.78,9.729-1.896,15.226c-1.896,0.884-3.917,3.032-5.813,3.664c0.127-2.717,0.127-2.717,0.568-3.98
		c3.097-0.885,6.003-2.78,7.835-5.497c0-1.011,0.063-1.958,0.126-2.906c-0.379-0.063-0.695-0.063-1.011-0.063
		c-1.39-7.96-6.697-8.087-13.078-4.422c-0.063,0.189-0.063,0.442-0.063,0.695c-4.928,1.958-4.359,13.963-4.359,18.322
		c2.274,22.555,2.274,22.555,4.486,51.491c1.958,19.017,6.949,38.413,0.379,56.861c-6.002,6.823-12.636,7.14-20.407,3.285
		c-0.252-0.821-0.252-0.821-1.39-2.274c-0.189-1.453-0.379-2.906-0.568-4.359c-0.695,0.063-1.39,0.127-2.022,0.252
		c-2.59,8.782-6.001,17.691-5.307,26.979c0.568,0.884,1.138,1.832,1.706,2.779c7.392,1.517,15.668,1.012,23.376,1.137
		c1.011,0.506,2.021,1.012,3.096,1.58c0,3.475,0.127,4.486-3.096,5.939c-3.791,0.379-4.928,0.758-8.087,0.947
		c0.063,0.442,0.127,0.885,0.189,1.326c0.759,0.379,0.759,0.379,6.129,0.822c2.653,1.453,3.285,2.147,3.98,2.4
		c0,0.253,0,0.506,0,0.758c-1.644-0.821-2.97-1.895-4.929-1.705c-0.189,0.252-0.379,0.505-0.568,0.758
		c1.643,2.274,3.664,2.779,4.991,5.434c-0.316,0-0.632,0-0.947,0c-0.19-0.379-0.316-0.695-0.442-1.012
		c-0.253-0.063-0.506-0.126-0.695-0.126c0-0.758-1.453-1.453-1.959-2.021c-0.441,0.063-0.884,0.126-1.326,0.189
		c-0.379,1.327-0.379,1.327-0.379,2.717c-0.316,0.063-0.569,0.189-0.821,0.315c0,0.316,0.063,0.633,0.126,1.012
		c1.327,0.947,1.327,0.947,2.464,1.199c0,0.19,0,0.38,0.063,0.633c0.189,0,0.442,0.063,0.694,0.126
		c0.506,1.264,0.506,2.085,0.506,3.476c-1.327,1.01-2.906-2.148-3.98-2.591c-0.694-0.063-1.39-0.063-2.085-0.063
		c0.189,2.4,0.759,2.654,2.654,3.98c-0.063,0.189-0.127,0.379-0.127,0.632c-0.632-0.569-1.264-1.074-1.896-1.579
		c-0.568,0.063-1.137,0.126-1.706,0.252c0.063,1.453,0.063,1.453,0.569,2.021c1.896,0.506,2.464,2.212,2.464,4.107
		c-1.011,1.011-3.917-1.012-4.738-1.453c-0.821,0.063-1.643,0.126-2.401,0.252c0.063,1.012,0.379,1.264,0.379,2.338
		c-0.379,0.189-0.758,0.379-1.137,0.632c0.315,1.958,1.958,2.148,3.602,3.032c0.126,0.443,0.252,0.948,0.379,1.453
		c-1.959,0.316-3.917-1.137-5.939-1.39c-0.315,0.821-0.315,0.821-0.126,1.517c0.442,0.127,0.885,0.252,1.327,0.441
		c0.063,0.316,0.126,0.633,0.252,0.948c-1.2-0.568-1.2-0.568-3.348-0.694c-0.442,1.2-0.127,1.516,0.631,2.273
		c-0.758,0.127-1.453,0.254-2.147,0.38c-0.506,2.085,1.579,2.59,3.285,3.349c-4.233,0.063-6.065-0.695-9.54,2.147
		c-0.758,2.401-1.517,4.864-2.274,7.329c-1.832,0.758-3.602,0.126-5.37-0.506c-0.063-1.074-0.126-2.147-0.189-3.158
		c1.453-1.453,2.527-1.012,4.549-1.074c-0.127-0.568-0.253-1.138-0.316-1.643c-0.252-0.063-0.505-0.127-0.694-0.127
		c-0.063-0.252-0.127-0.505-0.127-0.695c-2.211,0-4.422,0-6.57,0c0.126,2.527,0.253,5.055,0.442,7.582
		C617.305,763.628,617.116,763.691,616.989,763.817z"/>
	<path id="path507" fill="#4D87CA" d="M502.066,757.815c-0.947-0.569-0.821-0.632-1.011-1.579c0.189-0.189,0.38-0.38,0.569-0.569
		c0.758,0.38,1.516,0.759,2.337,1.2C503.33,757.183,502.698,757.499,502.066,757.815z"/>
	<path id="path509" fill="#4D87CA" d="M511.038,757.435c-0.315-0.568-0.315-0.568-1.074-0.758c-0.063-1.074-0.126-2.148-0.189-3.222
		c0.506-0.38,0.506-0.38,1.643-0.506c0,0.19,0,0.38,0.063,0.569c0.442,0.126,0.948,0.315,1.453,0.505
		c0.127,1.138,0.253,2.274,0.379,3.411C512.554,757.435,511.797,757.435,511.038,757.435z"/>
	<path id="path511" fill="#4D87CA" d="M516.724,757.435c-0.568-1.199-1.138-1.832-0.948-3.222c0.695,0,1.706,0.695,3.918,1.327
		c0.126,0.506,0.252,1.011,0.379,1.516C518.935,757.183,517.798,757.309,516.724,757.435z"/>
	<path id="path513" fill="#4D87CA" d="M520.831,754.403c-5.055-3.411-5.623-2.021-6.191-8.023c1.958-1.958,5.938,0.821,6.444-2.401
		c-1.58-0.315-1.58-0.315-7.329-0.379c-0.315,0.822-0.315,0.822-1.074,1.453c-0.505,2.148-0.758,3.918-0.758,6.129
		c-1.643,0-1.643,0-2.906-0.379c-0.758-3.033-0.885-5.623-0.947-8.782c2.464-0.315,4.928-0.632,7.392-0.885
		c0.315-0.821,0.315-0.821,0.063-1.517c-3.033,0-6.065,0-9.035,0c-2.4,2.906-0.505,10.867,0.063,14.405
		c-3.159-0.253-7.645-1.074-8.529-4.485c0.253-7.393-1.453-9.604,4.738-13.016c6.508,0.569,13.395,0.189,19.901-0.758
		c1.2-0.758,2.401-1.453,3.665-2.148c0-0.252,0.063-0.441,0.126-0.631c1.896-0.633,5.687-5.687,6.76-7.455
		c0.316-0.063,0.632-0.127,1.011-0.127c0-0.253,0.063-0.442,0.127-0.632c0.315-0.063,0.632-0.126,1.011-0.126
		c0.821-1.391,1.264-2.274,2.653-3.033c0.316-1.2,1.706-3.285,2.464-5.938c-0.758-22.935-1.137-26.599-1.137-32.979
		c-0.885-2.211-1.138-3.664-3.476-4.676c0.948-0.252,1.896-0.505,2.844-0.694c0.063-0.315,0.189-0.569,0.315-0.821
		c-0.252-0.442-0.442-0.821-0.632-1.201c-1.958,0-3.285-0.189-4.991-0.758c-0.063-0.441-0.126-0.885-0.189-1.264
		c0.632,0.063,1.327,0.127,2.022,0.189c0.063,0.253,0.189,0.506,0.315,0.822c3.223,0.252,3.223,0.252,3.917,0
		c0-0.569,0-1.138,0-1.706c-0.253-0.063-0.442-0.063-0.632-0.063c0-0.252,0-0.506,0-0.695c1.011-0.758,1.58-0.947,1.77-2.211
		c-1.391,0.063-2.148,0.442-4.044,0.442c-1.137-0.694-1.137-0.694-2.211-0.884c-0.253-1.58-0.253-1.58,0-3.412
		c3.411,0.821,5.117,1.516,8.402,0.315c0-0.379,0-0.758,0-1.073c4.802-0.885,8.466-4.044,13.71-4.739
		c10.867,0,21.544,2.591,32.348,3.791c2.717,0.063,5.497,0.126,8.276,0.253c0.316,0.695,0.632,1.453,0.948,2.211
		c-1.453,0-2.906,0-4.297,0.063c0.063,1.769,0.063,1.769,0.695,4.106c-7.897,1.264-7.897,1.264-14.657,2.717
		c-6.761,3.537-17.943,4.359-25.335,2.653c-1.832-2.653-1.517-3.601-0.568-6.507c0.189-0.064,0.379-0.127,0.632-0.127
		c0.947-3.917,10.677-3.664,13.52-3.728c-1.326-3.79-10.613-0.442-13.078,0.253c-4.485,4.485-5.749,10.424,1.58,12.762
		c3.349,0,6.697,0,10.045,0c9.667-1.77,18.765-4.991,28.62-5.813c0,0.253,0,0.506,0,0.758c-6.254,0.948-11.877,1.707-17.627,4.297
		c-2.906,0.758-10.993,3.096-11.688,6.634c-0.253,0-0.442,0-0.632,0.063c-0.379,1.579-3.285,2.969-4.106,4.928
		c-2.97,2.211-2.464,8.087-4.486,11.119c-1.264,6.76-2.527,13.521-3.79,20.281c-2.78,6.381-5.813,14.025-13.837,14.025
		c0-1.137,0-2.211,0-3.285c3.285-3.096,6.318-7.582,8.972-11.31c-0.063-0.189-0.126-0.315-0.189-0.442
		c-2.4,0-3.475,1.77-4.423,3.664c-0.253,0-0.505,0-0.694,0.064c-3.223,4.549-8.087,7.518-5.623,13.709
		c5.813,0.506,9.54-2.021,12.888-6.444c1.264-0.315,3.033-3.917,4.044-5.117c3.159-11.12,2.97-23.882,8.34-34.306
		c1.958-2.275,3.98-4.55,6.002-6.761c2.653-1.517,6.255-3.285,8.782-4.991c3.475-0.947,7.013-1.832,10.551-2.717
		c0,0.253,0,0.506,0,0.758c-8.15,1.201-15.353,5.244-19.396,12.384c-1.011,3.222-2.021,6.444-2.969,9.729
		c-0.253,3.475,1.011,12.193-4.107,12.193c-0.568-2.338-0.379-4.738-0.315-7.202c-0.316,0.063-0.632,0.189-0.885,0.315
		c-1.453,4.107-1.137,5.939,1.074,9.604c3.728,0,4.738-2.653,5.876-5.75c1.326,4.297,1.326,4.297,1.326,5.244
		c-1.832,1.327-2.211,1.58-4.549,1.453c0,1.327,1.327,2.212,1.959,3.285c0.189,0.885,0.379,1.77,0.568,2.654
		c-1.769-0.253-1.959-1.074-4.17-0.947c-0.063,0.252-0.126,0.505-0.189,0.758c0.947,1.453,2.338,2.4,3.032,3.537
		c-0.126,0.506-0.252,1.074-0.379,1.643c-0.315,0.064-0.632,0.127-0.885,0.254c-0.821-1.074-1.579-2.148-2.337-3.159
		c-0.695,0.063-1.391,0.126-2.085,0.189c0.063,0.632,0.126,1.263,0.253,1.896c-1.833-0.253-1.833-0.253-2.527,0.063
		c0,1.201,1.643,2.086,2.274,3.223c0,0.821,0,1.643,0,2.464c-0.316,0.126-0.632,0.253-0.885,0.442
		c-2.021-1.327-1.264-2.591-4.423-2.78c0,0.569,0,1.138,0,1.706c0.189,0,0.442,0.063,0.695,0.127
		c0.506,0.947,0.506,0.947,0.379,1.705c-0.694-0.695-1.326-1.326-1.958-1.959c-0.442,0.063-0.885,0.127-1.264,0.254
		c-0.948,2.4,2.147,2.717,1.705,5.622c-0.379,0-0.758,0-1.137,0c-0.315-1.643-1.769-3.159-3.538-2.716c0,0.505,0,1.01,0,1.516
		c0.442,0.316,0.947,0.632,1.453,1.011c-0.063,0.38-0.126,0.759-0.126,1.138c-0.569-1.201-1.959-1.706-3.223-1.391
		c-0.063,1.138-0.063,1.138,0.253,1.832c1.579,0.569,1.264,1.643,1.453,3.096c-0.821,0.19-0.821,0.19-1.264,0.695
		c-0.253-0.505-0.506-0.947-0.758-1.39c-0.948,0-1.391-1.074-1.896-1.769c-1.074,0.505-1.264,0.631-1.58,1.832
		c-4.043,0.379-1.643,1.895-0.315,4.043c-0.126,0-0.253,0.063-0.379,0.127c-0.885-3.602-5.939-1.074-7.645-0.063
		c-0.948,2.591-1.832,5.181-2.717,7.834c-2.274,0-2.97-0.063-5.055-1.011c-0.442-1.264-0.442-1.264-0.189-2.021
		c0.695-0.189,1.39-0.379,2.148-0.506c0-0.442,0-0.885,0-1.326c-1.959-0.316-3.728,0-5.75,0.315
		c-0.063,1.958-0.126,3.98-0.126,6.002C522.347,754.15,521.589,754.277,520.831,754.403z"/>
	<path id="path515" d="M627.856,747.263c-7.266-3.285,0.695-13.836,3.032-18.385c0.189-0.063,0.379-0.126,0.632-0.126
		c0-0.253,0.063-0.442,0.127-0.632c0.758-0.253,0.758-0.253,1.263-0.063c0,5.307-8.466,11.371-5.496,16.742c1.011,0,2.021,0,3.032,0
		c5.687-4.865,12.32-15.669,11.183-23.756c-0.252-0.063-0.441-0.063-0.631-0.063c-0.063-0.254-0.063-0.506-0.063-0.695
		c-0.758-0.253-1.453-0.506-2.148-0.758c0.063-0.443,0.127-0.885,0.189-1.327c12.952,0-2.527,24.197-6.634,28.178
		C630.888,747.011,630.888,747.011,627.856,747.263z"/>
	<path id="path517" d="M530.624,730.774c0.885-2.653,4.359-4.423,6.634-5.749c1.264-1.959,2.779-4.17,4.359-5.939
		c1.516-3.411,1.516-3.411,3.411-9.792c0.063-3.728,0.189-7.456,0.316-11.183c-0.885-9.73-3.159-22.176,1.958-31.021
		c1.453-1.011,1.453-1.011,2.085-2.021c0.379,0.063,0.821,0.127,1.264,0.189c0.127,0.253,0.253,0.506,0.442,0.821
		c-0.189,0.315-0.315,0.632-0.442,0.948c-7.96,3.98-3.854,25.271-3.032,31.779c-0.189,5.559,0.568,16.805-4.423,20.975
		c-1.137,2.338-4.17,4.865-4.738,7.203C535.677,728.373,533.53,730.016,530.624,730.774z"/>
	<path id="path519" d="M644.409,716.117c-2.653-0.568-2.653-0.568-6.76-0.947c-3.159-1.012-6.318-2.022-9.414-2.97
		c-0.758-0.759-0.758-0.759-4.106-2.464c-1.011-3.285-1.39-5.939-1.517-9.414c0.253,0,0.506,0,0.759,0
		c1.326-9.729,2.843-17.248,4.296-28.494c-0.316-0.947-0.569-1.895-0.821-2.779c-0.316-0.127-0.569-0.189-0.821-0.253
		c0-0.505,0-1.011,0-1.517c4.611-0.568,3.538,3.475,3.538,6.761c-1.517,10.93-4.107,21.985-4.107,33.042
		c2.275,4.549,10.425,5.055,14.848,6.191c4.296,0.38,4.296,0.38,9.351,0.38c1.958-0.885,3.159-2.148,5.307-1.39
		c-0.063,0.758-0.063,1.516-0.063,2.337c-0.38,0-0.759,0-1.074,0c0,0.253,0,0.505,0,0.759
		C650.79,716.243,647.568,716.053,644.409,716.117z"/>
	<path id="path521" d="M602.332,715.738c-5.876-2.654-5.496-13.71,0.632-15.922c0.885-1.453,1.579-2.527,3.032-3.348
		c0-1.327,2.401-1.706,2.906-3.096c3.665-2.338,18.954-11.625,12.51-18.07c-1.137-0.125-2.211-0.252-3.285-0.379
		c-2.338,0.822-2.338,0.822-2.906,0.633c0-3.35,3.854-2.527,6.255-2.527c4.991,4.106,3.158,8.402,0.126,13.52
		c-1.264,0.822-2.211,1.896-3.538,2.717c-5.56,6.255-20.406,12.193-16.806,22.998c3.98,2.4,9.035-0.695,12.257-3.033
		c1.011-2.527,2.906-9.477,6.255-9.477c0,2.779-3.285,7.771-4.296,10.361c-1.201,0.252-1.706,0.947-2.085,2.021
		C609.281,714.98,607.133,715.359,602.332,715.738z"/>
	<path id="path523" fill="#4D87CA" d="M568.531,696.594c0.189-2.653,1.327-6.57,3.602-8.087
		C569.795,693.183,569.036,695.836,568.531,696.594z"/>
	<path id="path525" fill="#4D87CA" d="M576.428,684.591c1.137-0.948,1.958-2.212,3.538-1.958
		C578.766,683.263,577.565,683.895,576.428,684.591z"/>
	<path id="path527" fill="#4D87CA" d="M580.535,682.316c0.506-1.074,1.074-0.947,2.085-0.821
		C582.115,682.253,581.356,682.127,580.535,682.316z"/>
	<path id="path529" fill="#4D87CA" d="M603.848,678.589c-1.706-2.527-3.412-5.055-5.118-7.581c3.98-0.443,6.382,3.222,6.382,6.949
		C604.67,678.146,604.227,678.336,603.848,678.589z"/>
	<path id="path531" fill="#4D87CA" d="M588.053,677.451c3.222-1.769,6.949-1.39,10.551-1.137c-0.126,0.252-0.189,0.568-0.253,0.885
		C594.877,677.261,591.464,677.325,588.053,677.451z"/>
	<path id="path533" fill="#4D87CA" d="M538.142,665.068c-1.138-0.379-2.275-0.758-3.412-1.137c0-0.506,0-1.012,0-1.517
		c4.865,0.505,4.865,0.505,7.14,1.138c0,0.379,0,0.758,0,1.137C540.606,664.815,539.342,664.941,538.142,665.068z"/>
	<path id="path535" d="M616.989,657.171c-2.717-10.045-6.381-19.648-8.908-29.757c-0.821-1.074-1.643-2.085-2.4-3.096
		c-0.506,0-1.011,0-1.517,0c-1.011,1.201-1.643,2.022-2.969,2.78c0.188-4.106,3.032-6.949,6.949-4.17
		c4.359,9.414,6.444,20.154,9.729,30.01c0.821,1.39,0.758,2.275,0.758,3.98C618.063,656.981,617.495,657.045,616.989,657.171z"/>
	<path id="path537" fill="#4D87CA" d="M498.655,651.927c-0.253-0.126-0.506-0.253-0.758-0.379c0-0.758,0-1.516,0-2.274
		c0.505,0.063,1.073,0.126,1.643,0.19c0.379,0.884,0.379,0.884,0.379,2.211C499.476,651.738,499.034,651.801,498.655,651.927z"/>
	<path id="path539" fill="#4D87CA" d="M505.415,651.927c-1.516-1.327-1.705-1.39-1.832-3.412c2.212,0.126,2.212,0.126,4.486,0.758
		c0,0.758,0.063,1.58,0.126,2.401C507.248,651.738,506.299,651.801,505.415,651.927z"/>
	<path id="path541" fill="#4D87CA" d="M511.797,651.548c0-0.505,0-1.011,0-1.516c1.895,0.189,1.895,0.189,3.411,0.948
		C514.829,651.358,514.829,651.358,511.797,651.548z"/>
	<path id="path543" fill="#4D87CA" d="M515.587,648.515c-3.411-1.327-3.411-1.327-4.864-1.517c-0.569-9.35,2.274-2.969,8.276-5.938
		c-0.063-0.569-0.063-1.074-0.063-1.58c-3.601-0.695-7.202-0.442-10.866-0.379c-0.253,2.211-0.506,4.486-0.759,6.761
		c-1.326-0.253-2.59-0.442-3.854-0.632c-3.538-9.729,7.202-7.518,13.268-7.581c-0.127-0.569-0.253-1.137-0.316-1.643
		c-2.085-1.011-14.025-1.2-15.604,0.379c-0.442,1.643-0.442,1.643-0.821,9.667c-1.391,0.568-2.844-0.126-4.297-0.506
		c-0.063-3.917-1.896-10.804,2.591-12.256c4.485,0,8.972,0,13.521,0c16.806-2.401,32.348-10.488,47.7-17.438
		c0-0.253,0-0.505,0-0.758c2.021-1.2,2.843-2.211,4.043-4.233c1.011,0,1.2,0.126,2.085,0.758c0,4.865-10.867,8.213-14.342,9.287
		c-4.928,2.274-5.686,3.033-7.139,3.791c6.191,0,14.657-4.612,19.901-6.76c1.137-1.201,1.958-3.349,3.411-3.917
		c0.063-0.315,0.189-0.568,0.316-0.821c4.043,0.316,8.023,2.843,12.004,2.843c0.189,0.126,0.379,0.252,0.632,0.442
		c-1.643,2.78-6.382,2.906-9.225,4.801c-7.328,1.833-17.438,2.464-23.692,7.14c0.885,0.568,5.055-0.758,6.761-0.758
		c-6.191,2.148-11.436,6.128-17.248,9.035c-4.928,0.758-4.928,0.758-8.276,0.758c-0.758-0.758-0.758-0.758-1.517-0.947
		c-0.315-3.602,2.527-4.739,5.244-6.571c-1.327-1.327-5.876,1.453-7.14,2.085c0,0.189,0,0.442,0,0.695c-0.252,0-0.505,0-0.694,0
		c-3.854,7.708,7.202,7.203,12.004,6.381c-0.127,0.569-0.253,1.138-0.316,1.77c-0.568-0.253-1.073-0.442-1.579-0.632
		c-0.189,1.643,0.189,4.422-1.896,4.738c-0.505-0.505-0.505-0.505-1.39-3.728c-2.843-1.517-4.106,3.159-4.991,5.37
		c-2.591,0.632-3.223,0.695-5.055-1.137c0.885-0.884,1.011-1.074,1.011-2.337c-1.769-0.632-4.549-1.327-6.191-0.379
		c-0.063,0.505-0.063,1.074-0.063,1.643c0.441,0.316,0.884,0.632,1.39,1.011C517.735,647.315,517.356,648.073,515.587,648.515z"/>
	<path id="path545" fill="#4D87CA" d="M538.837,643.271c-0.063-1.706-0.126-3.348-0.126-4.991
		c11.436-6.823,11.436-6.823,14.025-7.96c5.434-1.074,11.752-1.643,16.553-4.549c-1.011-1.011-10.361,1.011-11.625,1.137
		c-0.126-0.126-0.252-0.252-0.379-0.379c8.214-1.896,16.301-4.043,24.008-7.519c2.654-2.464,4.17-2.085,7.519-1.643
		c-0.947,2.211-0.947,2.211-2.464,4.106c-1.327,4.044-2.274,4.486-6.317,4.739c0,0.442,0,0.884,0,1.327
		c4.864,1.2,6.128-1.137,8.402-4.928c0.253,0,0.506,0,0.758,0c-1.326,3.285-2.843,6.507-6.57,7.329
		c-3.538-0.379-3.538-0.379-4.296-0.189c-0.127,0.758-0.253,1.516-0.379,2.274c-0.316-0.126-0.632-0.253-0.885-0.316
		c-0.063-3.096-0.063-3.096,0.315-5.75c-0.315-0.252-0.632-0.442-0.884-0.632c-1.011,0.253-1.201,0.885-1.77,1.769
		c-0.189-0.315-0.379-0.632-0.505-0.884c-0.442-0.063-0.821-0.063-1.201-0.063c-1.579,3.475-1.137,6.065-1.073,9.982
		c-0.316-0.126-0.632-0.252-0.885-0.316c-0.442-2.969-0.379-5.117,0.126-7.96c-6.507,0.758-5.117,4.17-4.864,9.856
		c-0.316,0-0.632,0-0.885,0c-1.074-2.211,0-5.181,0.126-7.582c-1.137,0.189-1.137,0.189-2.085,0.948
		c-0.884-0.569-1.074-0.758-2.085-0.569c-1.39,3.159-1.073,6.444-0.379,9.73c-1.516,0.568-1.516,0.568-2.717,0.442
		c-1.39-2.78,0.316-6.191,0.506-9.035c-0.695,0.19-1.39,0.379-2.021,0.569c-0.316,0.505-0.569,1.074-0.821,1.643
		c-0.38-1.137-0.38-1.137-0.885-1.453c-3.412,1.453-0.568,5.875-4.928,6.381c-0.19-1.517,0.189-2.274,0.063-4.296
		c-0.315-0.063-0.568-0.063-0.821-0.063c-2.211,2.211-3.538-0.189-4.359,3.601c-0.568-1.137-0.821-0.885-2.021-1.137
		c-0.315,0.505-0.632,1.011-0.947,1.516c-0.127-0.126-0.253-0.252-0.38-0.379c-1.137,1.137-1.011,2.843-1.137,4.486
		C540.037,642.955,540.037,642.955,538.837,643.271z"/>
	<path id="path547" fill="#4D87CA" d="M544.902,640.618c-0.126-0.758-0.253-1.517-0.379-2.211c0.189,0.063,0.379,0.189,0.568,0.316
		C545.028,639.354,544.965,639.986,544.902,640.618z"/>
	<path id="path549" d="M513.691,623.37c-3.979-3.475-3.979-3.475-10.361-10.172c-0.379-1.137-1.516-1.39-1.895-2.653
		c-0.316-0.126-0.632-0.253-0.885-0.316c-0.063-0.252-0.127-0.505-0.127-0.695c-2.085-0.758-2.843-2.527-4.232-4.233
		c-4.802-2.527-9.414-8.466-11.688-13.205c-0.315-0.126-0.632-0.253-0.885-0.316c-3.475-11.941-1.326-22.555,11.625-26.851
		c5.434,0,11.12,0.063,15.101,4.486c4.675,2.401,3.222,2.401,6.949-2.211c4.802-2.464,8.087-2.906,13.331-1.958
		c1.706,0.821,3.475,1.643,5.243,2.527c0,0.506,4.297,4.36,4.991,5.181c0.632,1.832,1.264,3.727,1.896,5.623
		c0,2.527,0,5.055,0,7.582c-1.516,4.17-3.032,6.76-3.917,9.414c-1.137,0-2.148,2.148-2.464,3.096
		c-2.211,0.315-4.359,5.749-6.318,7.329c-1.2,1.896-3.979,3.222-4.358,5.37c-1.201,0.442-4.676,4.549-4.865,5.623
		c-1.264,0.505-1.264,0.948-1.896,2.211C517.04,619.2,515.965,622.738,513.691,623.37z"/>
	<path id="path551" fill="#4D87CA" d="M591.464,619.579c0.063-0.316,0.127-0.632,0.253-0.885c0.189,0,0.442,0,0.695,0.063
		C592.096,619.01,591.781,619.263,591.464,619.579z"/>
	<path id="path553" fill="#DA121A" d="M514.071,618.126c-1.959-2.969-6.444-4.612-7.646-7.834c-0.315-0.126-0.568-0.252-0.821-0.315
		c-3.601-4.928-10.172-7.897-13.204-13.331c-0.821-0.821-1.769-2.401-2.717-2.59c-3.222-7.455-5.37-11.688-2.527-19.585
		c6.065-10.172,20.976-7.329,24.83,3.412c0.126,0.063,0.315,0.126,0.505,0.189c3.159-4.043,5.75-7.392,10.551-9.792
		c5.118,0,7.897,1.453,12.194,3.791c1.011,1.896,2.021,3.854,3.032,5.813c1.011,4.865,1.769,11.877-3.032,15.037
		c-1.959,3.349-4.549,7.392-7.456,10.108c-1.263,2.78-6.443,5.623-6.949,8.34C517.861,612.061,517.293,616.736,514.071,618.126z"/>
	<path id="path555" fill="#4D87CA" d="M599.362,615.472c-3.411-2.464-2.59-3.98-1.769-7.96c0.821-1.137,1.643-2.211,2.464-3.285
		c2.211-0.126,4.485-0.253,6.76-0.379c-0.947,6.508-0.947,6.508-1.326,6.95c0.442,1.516,0.884,3.096,1.326,4.675
		C604.291,615.472,601.826,615.472,599.362,615.472z"/>
	<path id="path557" fill="#4D87CA" d="M593.676,614.715c-0.948-2.906-0.885-4.296,0.442-7.139c0.063,5.939,0.063,5.939,0.315,7.139
		C594.181,614.715,593.928,614.715,593.676,614.715z"/>
	<path id="path559" fill="#4D87CA" d="M588.053,614.336c-3.728-0.569-3.728-0.569-4.991-1.074c0-3.791,1.39-7.392,4.612-9.604
		c1.769,0.063,3.538,0.126,5.307,0.189c-1.137,3.728-2.906,6.444-2.653,10.488C589.57,614.336,588.811,614.336,588.053,614.336z"/>
	<path id="path561" fill="#4D87CA" d="M614.336,614.336c-2.4-4.486-1.579-6.697,0.189-11.436c2.464-0.695,4.865-1.706,7.455-1.517
		c-0.694,3.917-1.326,7.834-1.958,11.814C618.127,613.577,616.231,613.956,614.336,614.336z"/>
	<path id="path563" fill="#4D87CA" d="M610.229,613.956c-1.453-0.695-2.338-4.296-1.074-5.244
		C610.355,613.135,610.355,613.135,610.229,613.956z"/>
	<path id="path565" fill="#4D87CA" d="M556.527,612.819c0.253-1.516,1.264-2.337,2.59-3.222c0,0.569,0,1.137,0,1.769
		c-0.947,0.189-1.263,0.569-1.453,1.453C557.285,612.819,556.906,612.819,556.527,612.819z"/>
	<path id="path567" fill="#4D87CA" d="M579.398,612.44c-0.127-0.379-0.253-0.758-0.316-1.074c0.442-0.189,1.517-4.486,2.211-5.686
		c0.253,0,0.506,0,0.759,0C581.293,607.385,580.598,611.619,579.398,612.44z"/>
	<path id="path569" fill="#4D87CA" d="M574.912,611.745c-1.074-0.505-2.147-0.947-3.159-1.39c0.253-3.854,2.022-8.466,6.192-9.035
		c0.821,0.316,1.705,0.632,2.59,1.011c-0.632,1.643-1.327,2.274-2.779,4.802c-0.316,1.39-0.632,2.78-0.948,4.233
		C576.175,611.492,575.544,611.619,574.912,611.745z"/>
	<path id="path571" fill="#4D87CA" d="M553.874,608.333c-0.253-0.884-0.506-1.769-0.759-2.653c1.327,0.252,1.643,0.758,1.643,2.022
		C554.442,607.891,554.126,608.081,553.874,608.333z"/>
	<path id="path573" fill="#4D87CA" d="M565.182,608.333c-4.17-1.895-6.634-1.958-4.738-6.191c2.211-1.896,3.728-3.538,6.381-4.612
		c1.2,0.568,2.401,1.137,3.602,1.769c0,0.253,0,0.506,0,0.758c-3.096,1.201-3.791,5.37-4.17,8.276
		C565.878,608.333,565.499,608.333,565.182,608.333z"/>
	<path id="path575" fill="#4D87CA" d="M594.434,607.196c0.189-0.568,0.379-1.137,0.568-1.706c0.253,0,0.506,0.063,0.759,0.126
		C594.94,606.944,594.94,606.944,594.434,607.196z"/>
	<path id="path577" fill="#4D87CA" d="M569.289,606.817c0.821-2.148,2.148-3.98,3.033-6.002c0.189,0,0.442,0,0.694,0
		C572.384,602.205,570.426,606.059,569.289,606.817z"/>
	<path id="path579" fill="#4D87CA" d="M556.527,603.469c0.568-2.843,2.527-8.403,6.57-7.202c-0.442,0.568-1.769,1.011-3.791,2.969
		C558.422,600.626,557.727,602.521,556.527,603.469z"/>
	<path id="path581" fill="#4D87CA" d="M552.736,601.952c-0.505-3.033,3.032-10.93,7.14-8.656c0.063,0.253,0.126,0.505,0.189,0.758
		c-3.223,2.843-4.423,3.601-6.065,7.645C553.557,601.763,553.115,601.826,552.736,601.952z"/>
	<path id="path583" fill="#4D87CA" d="M603.089,601.194c0.316-2.78,2.401-6.128,3.412-8.655c4.423-0.632,4.423-0.632,6.128-0.569
		c0,2.906-0.821,5.434-3.032,7.329c-0.063,0.253-0.126,0.506-0.126,0.758C607.259,600.562,605.427,601.005,603.089,601.194z"/>
	<path id="path585" fill="#4D87CA" d="M590.707,600.815c-0.253-0.253-0.442-0.505-0.632-0.758c1.39-2.717,2.78-5.433,4.17-8.087
		c2.843-0.063,2.843-0.063,5.623,0.379c1.643,3.286-2.211,6.824-4.676,8.213C593.676,600.626,592.16,600.689,590.707,600.815z"/>
	<path id="path587" fill="#4D87CA" d="M586.221,599.678c0.442-1.39,1.326-1.517,2.021-2.59c0,1.2-1.074,1.39-1.327,2.59
		C586.664,599.678,586.411,599.678,586.221,599.678z"/>
	<path id="path589" fill="#4D87CA" d="M615.852,599.678c1.011-3.159,2.021-6.255,3.032-9.351c2.906-0.821,4.423-1.769,7.519-1.896
		c-3.285,9.161-3.285,9.161-3.791,9.54C620.338,598.541,618.063,599.109,615.852,599.678z"/>
	<path id="path591" fill="#4D87CA" d="M579.082,599.299c-1.326-0.505-2.653-0.947-3.917-1.39c-0.126-0.316-0.189-0.569-0.253-0.821
		c0.253,0,0.506,0,0.758,0c0-0.253,0-0.506,0-0.758c2.907-1.643,5.497-4.486,6.571-7.708c1.137,0.252,4.928,1.011,5.56,2.021
		c-0.947,3.854-1.327,7.329-5.623,8.024C581.672,599.046,581.672,599.046,579.082,599.299z"/>
	<path id="path593" fill="#4D87CA" d="M573.396,594.813c0.505-0.758,1.011-1.517,1.516-2.274c0.253,0,0.506,0,0.758,0
		C575.418,593.676,574.343,594.118,573.396,594.813z"/>
	<path id="path595" fill="#4D87CA" d="M567.393,594.055c-3.917-2.148-4.549-2.843-5.243-2.969c0-0.253,0-0.506,0-0.758
		c0.947-0.189,1.896-0.379,2.906-0.505c0-0.253,0.063-0.442,0.126-0.632c2.401-0.758,6.318-4.106,7.14-6.381
		c1.516,0.379,2.843,2.211,4.232,3.159c0,0.948,0,0.948-1.643,4.738c-0.379,0.126-0.694,0.253-1.011,0.379
		C572.827,593.297,569.542,593.613,567.393,594.055z"/>
	<path id="path597" fill="#4D87CA" d="M673.724,591.781c-3.096-8.15,1.516-15.479,7.645-20.66c1.264-2.59,2.085-4.991,2.843-7.834
		c0.253,0,0.506,0,0.759,0c-1.454,8.213-8.024,14.468-10.362,22.492c-0.126,1.896-0.252,3.854-0.379,5.813
		C674.04,591.654,673.85,591.718,673.724,591.781z"/>
	<path id="path599" fill="#4D87CA" d="M552.357,591.465c-0.189-2.717-0.189-2.717,0.189-4.359c1.011-0.632,2.021-1.264,3.096-1.832
		c-0.126-0.569-0.253-1.074-0.315-1.58c-0.632,0.063-1.264,0.126-1.833,0.252c0.19-1.011,1.138-1.895,0.695-2.843
		c-2.274,0-2.4,0.189-4.17,1.643c-2.021-3.601-1.264-3.98,1.959-5.813c0.063-0.442,0.126-0.821,0.253-1.2
		c-1.453-0.126-1.833-0.379-3.223,0.316c0-0.253,0-0.505,0-0.758c1.074-0.253,2.211-0.505,3.349-0.758
		c0.568,1.706,1.137,3.412,1.706,5.181C558.801,584.894,557.474,588.685,552.357,591.465z"/>
	<path id="path601" fill="#4D87CA" d="M598.983,589.19c-1.074-0.379-2.147-0.758-3.159-1.074c-0.694-3.096,0.695-6.002,2.022-8.719
		c0.252,0,0.505,0,0.758,0c0-0.252,0-0.505,0-0.758c1.39-0.063,4.485-0.569,5.623,0.568c-2.401,2.085-2.527,6.76-2.97,9.667
		C600.5,588.937,599.741,589.064,598.983,589.19z"/>
	<path id="path603" fill="#4D87CA" d="M604.985,589.19c-0.568-2.464-0.885-4.043,0-6.381c0.189-0.063,0.379-0.126,0.632-0.126
		c0.063-0.442,0.189-0.821,0.316-1.201c0.126,0,0.252,0.063,0.379,0.126C605.87,584.136,605.427,586.663,604.985,589.19z"/>
	<path id="path605" fill="#4D87CA" d="M607.955,589.19c-0.253-3.791,0.315-5.56,2.148-8.782c1.516-0.063,2.4,6.95,2.779,8.403
		C611.24,588.937,609.597,589.064,607.955,589.19z"/>
	<path id="path607" fill="#4D87CA" d="M562.908,587.674c1.959-2.274,3.285-3.475,6.002-4.486
		C568.531,585.652,565.182,587.042,562.908,587.674z"/>
	<path id="path609" fill="#4D87CA" d="M587.674,587.295c-2.401-1.011-2.401-1.011-2.844-1.516c0-6.191,1.453-12.699,8.467-10.109
		c-1.012,4.17-3.096,7.076-3.349,11.625C589.19,587.295,588.432,587.295,587.674,587.295z"/>
	<path id="path611" fill="#4D87CA" d="M618.884,587.295c-2.147-2.274-3.538-8.339-0.821-10.74c1.896,0,5.687,6.95,6.444,8.845
		C621.475,586.663,621.475,586.663,618.884,587.295z"/>
	<path id="path613" fill="#4D87CA" d="M615.093,586.916c-1.2-1.958-1.011-3.222-0.947-5.623
		C615.22,586.094,615.22,586.094,615.093,586.916z"/>
	<path id="path615" fill="#4D87CA" d="M592.602,586.157c0.505-3.601,0.885-5.497,3.159-8.213c-0.379,1.453-1.138,2.211-1.896,3.728
		C593.107,585.4,593.107,585.4,592.602,586.157z"/>
	<path id="path617" fill="#4D87CA" d="M558.801,584.325c-1.327-1.896-1.77-2.464-1.579-4.802
		C558.612,580.598,558.927,582.683,558.801,584.325z"/>
	<path id="path619" fill="#4D87CA" d="M578.324,583.567c-0.632-0.379-1.264-0.758-1.896-1.137c-0.063-0.252-0.126-0.505-0.126-0.695
		c-0.948-0.189-1.012-0.758-1.454-1.453c-0.252-0.063-0.505-0.126-0.694-0.126c0.063-0.568,0.126-1.137,0.189-1.643
		c2.527-1.453,5.117-2.843,7.708-4.233c0,0.252,0.063,0.505,0.126,0.758c-2.464,2.464-2.653,5.244-3.096,8.529
		C578.829,583.567,578.577,583.567,578.324,583.567z"/>
	<path id="path621" fill="#4D87CA" d="M626.782,583.188c-2.021-1.2-2.653-3.791-4.423-5.244c-0.315-0.821-1.326-2.716-0.441-3.412
		c1.453,3.159,4.549,5.56,5.56,8.656C627.224,583.188,626.971,583.188,626.782,583.188z"/>
	<path id="path623" fill="#4D87CA" d="M561.391,582.43c-3.158-3.791-5.496-11.183-7.013-15.795
		c-1.958-3.854-3.854-8.529-3.664-12.952c1.39,0,2.4,1.201,3.728,0.253c3.728,7.202,6.949,14.721,10.487,22.049
		c0.759,2.59,0.759,2.59,0.695,4.296C564.172,580.977,562.782,581.672,561.391,582.43z"/>
	<path id="path625" fill="#4D87CA" d="M628.614,579.397c-2.4-2.021-3.98-3.917-3.98-7.202c0.821-1.958,1.517-2.59,2.338-4.233
		c0.948,0,3.412,2.148,3.602,3.096c0.505,0.189,1.011,0.442,1.579,0.695c0,2.78-1.264,4.865-2.274,7.392
		C629.435,579.208,628.993,579.271,628.614,579.397z"/>
	<path id="path627" fill="#4D87CA" d="M556.148,578.639c-0.632-2.338-1.706-4.233-2.844-6.381c-1.453-4.106-1.453-4.106-2.716-6.128
		c-0.316,0-0.633,0-0.948,0c-0.189,0.253-0.379,0.505-0.568,0.758c-1.959-0.379-2.97-0.189-4.928,0.126c0-0.885,0-1.769,0-2.59
		c1.579-0.253,3.538-0.379,4.106-1.896c-0.506-0.126-1.011-0.252-1.517-0.379c0.568-1.706,0.568-1.706,0.442-2.022
		c-1.706-0.063-3.412-0.126-5.055-0.189c-0.442-0.821-0.442-0.821-0.632-2.274c0.253,0,0.506,0,0.759,0c0-0.253,0-0.505,0-0.758
		c1.453-0.126,2.969-0.252,4.485-0.379c-0.126-0.569-0.253-1.137-0.315-1.643c-1.517,0-3.033,0.063-4.549,0.126
		c0.252-1.643,1.579-2.591,2.085-4.107c0-1.011,0-2.021,0-3.033c-2.085-2.085-2.907-1.516-5.497-1.137c0-0.631,0-1.263,0-1.895
		c2.085-0.379,2.085-0.379,2.653-0.885c-1.516-1.516-5.37-1.2-7.519-1.327c0.063,0.632,0.127,1.264,0.253,1.958
		c0.253,0.063,0.568,0.126,0.885,0.253c-0.126,0.884-0.253,1.769-0.379,2.653c-1.327,0.632-1.58,1.137-2.464,2.274
		c-1.074-1.264-2.022-2.843-3.538-3.412c0-0.252,0-0.505,0-0.758c-0.316-0.126-0.632-0.252-0.885-0.315
		c-0.126-0.253-0.189-0.506-0.253-0.758c-0.253,0-0.505,0-0.758,0c0-1.39,0-2.78,0-4.17c2.274-0.569,6.002-0.948,6.823-1.453
		c0-0.316,0-0.632,0-0.948c-2.843,0-5.687,0-8.466,0c-0.379,0.885-0.379,0.885-0.948,7.645c-0.947-0.505-1.895-0.947-2.779-1.39
		c-0.253-1.011-0.821-0.821-1.517-1.517c-0.063-2.717-0.063-2.717,0.506-6.444c4.232-0.253,8.529-0.506,12.825-0.695
		c0-0.568,0.063-1.074,0.126-1.579c-1.516-1.517-13.015-0.379-15.542-0.379c-1.2,3.222-0.885,7.203-1.074,10.614
		c-1.958,0-2.274-0.063-3.979-1.137c-0.569-3.159-1.454-8.592,0.758-11.12c2.97-0.316,5.938-0.568,8.972-0.821
		c9.413,0,15.036-0.442,22.428,5.37c2.465,3.601,8.656,10.804,8.214,14.974c-1.138-0.063-2.274-0.126-3.412-0.189
		c-0.315,0.568-0.632,1.2-0.947,1.832c0.947,8.972,5.181,17.185,8.466,25.524C556.653,578.639,556.401,578.639,556.148,578.639z"/>
	<path id="path629" fill="#4D87CA" d="M604.606,575.67c-0.253-0.252-0.442-0.505-0.632-0.758c2.717-3.917,2.97-4.802,2.78-9.729
		c-0.38,0-0.759,0.063-1.074,0.126c-0.948,1.327-1.2,2.401-1.643,3.98c-0.253-1.453-0.442-2.906-0.632-4.359
		c-0.379-0.063-0.695-0.063-1.011-0.063c-1.012,5.434-1.896,6.824-7.266,8.34c-0.316-0.189-0.632-0.379-0.948-0.568
		c0.759-1.011,1.517-2.022,2.274-3.033c0.821-3.538,0.821-3.538,1.391-4.486c2.4-0.948,4.738-1.643,6.507-3.412
		c-0.063-0.442-0.126-0.884-0.189-1.327c-0.632-0.126-1.264-0.253-1.832-0.316c1.138-0.505,2.338-0.948,3.538-1.39
		c0.315-4.738,2.59-17.248-2.021-20.028c6.949,0,1.516,20.597,3.79,25.651c0.442,0,0.885,0,1.327,0
		c0.126-1.39,0.315-2.717,0.506-4.043c0.252,0,0.505,0,0.758,0c0.126,1.137,0.253,2.337,0.379,3.538
		c0.506-0.063,1.074-0.126,1.643-0.189c0-5.181,0-10.361,0.063-15.542c-0.442-5.813-1.264-10.867-7.897-12.067
		c0-1.011,0-2.021,0-2.969c3.412,0.063,6.823,0.189,10.298,0.315c5.434,3.159,7.708,2.843,8.024-3.159
		c-0.948-0.948-1.012-0.884-2.275-1.011c0,1.137,0,2.274,0,3.412c-3.285,0-6.57-6.128-9.477-6.887
		c-1.326-4.359-7.455-3.728-10.866-2.527c-0.127,1.39-0.189,2.78-0.253,4.17c-0.695,0.189-1.327,0.442-1.959,0.695
		c0.063,0.632,0.189,1.264,0.316,1.958c1.074,0.189,2.211,0.379,3.349,0.632c-0.253,1.074-0.253,1.074,0,6.76
		c-9.035-0.632-9.035-0.632-9.729-0.948c0.884-0.126,1.769-0.189,2.716-0.253c0-0.505,0.063-0.948,0.127-1.39
		c-0.568-0.19-1.138-0.316-1.706-0.442c-0.063-0.505-0.126-1.011-0.126-1.453c-1.074-0.632-1.074-0.632-4.802-1.39
		c1.011-0.189,2.085-0.379,3.159-0.568c0-0.379,0-0.758,0-1.137c1.073-0.126,2.147-0.253,3.222-0.316
		c0.189,2.211,0.442,3.854,1.453,5.749c0.442-0.063,0.885-0.126,1.327-0.189c-0.885-6.823-0.442-7.582-7.519-7.076
		c-0.063,0.506-0.126,1.011-0.126,1.517c-1.517,0-2.97,0-4.423,0.063c0.126,1.39,0.126,1.39,0.568,1.958
		c-1.011,1.011-0.632,4.928-0.632,6.381c0.316,0.189,0.695,0.379,1.074,0.632c-1.453,0.442-2.464,0.379-4.106,0.316
		c-0.316-2.97-0.632-5.371-0.189-8.403c2.021-1.39,5.938-3.096,5.938-5.876c-1.327-0.948-1.769-0.948-3.475-0.695
		c0.126-0.632,0.253-1.264,0.379-1.896c1.706-0.063,2.78-0.442,4.296,0.316c-0.252,1.201-1.579,0.758-0.885,2.211
		c3.476,0.063,6.95,0.126,10.425,0.189c0.127-0.253,0.253-0.442,0.379-0.632c-2.716-1.453-5.181-1.137-7.834-1.896
		c1.643,0,7.961,0.695,8.655-2.085c3.98-0.315,8.276,0.885,11.878-0.884c0-0.252,0.063-0.442,0.127-0.632
		c4.991-2.653,10.551-1.137,15.668,0.442c-0.758,0-1.517,0-2.211,0.063c-2.78-1.39-9.856-0.632-10.425,2.78
		c1.39-0.126,3.664-0.885,4.864-0.822c-0.252,0.063-0.505,0.126-0.694,0.253c-0.063,0.189-0.063,0.442-0.063,0.695
		c-0.821,0.189-0.821,0.189-2.211,1.201c0.063,0.379,0.189,0.758,0.315,1.2c0.442,0,0.948,0,1.453,0
		c0.127-0.189,0.316-0.379,0.506-0.505c0.063,0.948-0.506,1.453,0,2.464c0.315-0.063,0.694-0.126,1.074-0.126
		c1.516,5.054,5.243,1.643,8.971,1.39c-1.579,5.307-7.707,7.834-8.908,13.394c0.253,0.063,0.506,0.189,0.759,0.316
		c-0.632,1.643-0.632,1.643-0.632,2.401c2.4,2.021,5.938,1.137,8.529,2.843c0.189,0.695,0.379,1.39,0.632,2.085
		c-1.77-0.884-2.906-1.39-4.865-1.516c-0.063-0.253-0.126-0.505-0.126-0.695c-0.821,0-1.643,0-2.464,0
		c0,0.568,0.063,1.137,0.126,1.769c3.096,2.211,6.57,1.517,6.191,6.444c-2.338-1.137-3.664-2.085-6.255-1.895
		c0.063,1.895-0.379,2.653-0.126,4.296c0.505,0.189,1.011,0.379,1.517,0.632c0,1.2,2.59,2.401,3.032,4.106
		c-0.316-0.126-0.632-0.189-0.948-0.252c-0.126-0.316-0.252-0.569-0.315-0.821c-0.253-0.063-0.442-0.063-0.632-0.063
		c-0.063-0.252-0.126-0.505-0.126-0.695c-1.453-0.632-1.453-0.632-3.223-0.758c-0.695,2.211,2.527,2.717,3.538,4.865
		c-0.126,0-0.253,0.063-0.379,0.126c-0.821-1.453-1.896-1.895-3.412-2.653c-1.011,0.632,2.212,4.991,2.212,6.76
		c-0.253,0-0.506,0-0.695,0c-1.2-3.096-1.2-4.423-4.233-5.307c-0.063,0.316-0.063,0.695-0.063,1.074
		c-0.506,0.126-0.948,0.253-1.39,0.379c0,2.969,1.137,5.623,1.137,8.719c-0.821,0.379-1.643,0.758-2.464,1.2
		c0-2.021,1.137-9.54-2.401-9.224c-0.379,0.758-0.379,4.928-0.694,6.76c-0.316-1.706-0.568-4.991-1.77-6.192
		c-0.441,0.063-0.884,0.126-1.326,0.19c-1.201,4.233,2.021,5.939-2.527,9.351C605.996,575.354,605.301,575.48,604.606,575.67z"/>
	<path id="path631" fill="#4D87CA" d="M547.113,574.154c-0.505-1.074-0.694-1.516-0.568-2.78c0.885-0.569,1.832-1.074,2.78-1.58
		c0-0.252,0-0.505,0-0.758c-1.959,0-2.401,0.569-4.107,1.011c0-0.379,0-0.758,0-1.137c4.486-1.833,5.244-0.885,6.065,4.106
		C548.63,573.522,548.63,573.522,547.113,574.154z"/>
	<path id="path633" fill="#4D87CA" d="M601.953,572.637c0.568-1.643,0.568-1.643,1.579-2.97
		C603.595,570.995,602.838,571.942,601.953,572.637z"/>
	<path id="path635" fill="#4D87CA" d="M589.19,571.184c1.138-1.769,2.844-2.401,4.865-2.654
		C593.549,570.742,591.086,571.058,589.19,571.184z"/>
	<path id="path637" fill="#4D87CA" d="M632.784,569.289c-0.253-0.126-0.505-0.253-0.758-0.379c0-1.264-1.896-1.074-2.274-2.654
		c1.264,0.189,1.264,0.189,3.791,1.516c0.126,0.506,0.252,1.011,0.379,1.517C633.543,569.289,633.163,569.289,632.784,569.289z"/>
	<path id="path639" fill="#4D87CA" d="M634.237,565.877c-3.602-2.527-4.612-4.233-3.349-8.592c2.021,0.252,3.98,1.264,6.002,1.832
		c-0.189,2.337-1.073,4.549-1.896,6.76C634.743,565.877,634.49,565.877,634.237,565.877z"/>
	<path id="path641" fill="#4D87CA" d="M662.794,564.424c0.063-0.442,0.127-0.885,0.253-1.264c1.138-0.189,2.274-0.379,3.475-0.505
		c1.327-0.948,1.327-0.948,2.085-0.948C667.342,563.287,664.753,564.108,662.794,564.424z"/>
	<path id="path643" fill="#4D87CA" d="M582.051,563.287c-0.632-2.274-0.442-3.791-0.189-6.191c0.568-0.063,1.137-0.126,1.705-0.19
		c0,0.253,0,0.505,0,0.758c-0.252,0-0.505,0-0.694,0.063c0,0.379,0,0.822,0,1.264c15.731,0.253,15.731,0.253,18.448,0.695
		c0.189,0.252,0.189,0.252-4.991,1.074c-3.096,0.189-6.191,0.379-9.287,0.632c-0.127,0.379-0.253,0.821-0.379,1.264
		C585.463,563.034,585.463,563.034,582.051,563.287z"/>
	<path id="path645" fill="#FFFFFF" d="M684.59,562.908c-0.063-1.264-0.126-2.527-0.189-3.791
		C685.096,559.812,684.59,561.897,684.59,562.908z"/>
	<path id="path647" fill="#4D87CA" d="M609.471,558.738c-0.19-8.972-0.19-8.972,0.189-11.625
		C609.723,549.703,610.924,556.779,609.471,558.738z"/>
	<path id="path649" fill="#4D87CA" d="M600.436,557.664c0-0.253,0-0.505,0-0.758c0.759-0.189,1.58-0.316,2.401-0.442
		c0.126-0.758,0.252-1.517,0.441-2.211c-0.063,0.758-0.063,1.58-0.063,2.401C601.953,557.411,601.953,557.411,600.436,557.664z"/>
	<path id="path651" fill="#4D87CA" d="M625.645,556.906c-0.506-0.568-0.948-1.074-1.391-1.58c0.379-0.126,0.379-0.126,1.959,1.201
		C626.024,556.653,625.835,556.779,625.645,556.906z"/>
	<path id="path653" fill="#4D87CA" d="M636.132,556.906c-3.159-1.769-3.159-1.769-4.106-2.78c0.758-0.126,0.758-0.126,5.623,1.643
		c0,0.379,0,0.758,0,1.137C637.143,556.906,636.638,556.906,636.132,556.906z"/>
	<path id="path655" fill="#4D87CA" d="M593.297,554.252c-0.632-1.137-1.264-0.758-1.453-2.274c2.147-0.063,6.507-1.201,6.507,2.021
		C596.645,554.063,594.94,554.126,593.297,554.252z"/>
	<path id="path657" fill="#4D87CA" d="M586.537,553.873c0-0.506,0-1.011,0-1.517c0.632,0.442,1.264,0.885,1.896,1.327
		C587.8,553.747,587.169,553.81,586.537,553.873z"/>
	<path id="path659" fill="#4D87CA" d="M636.89,553.494c-4.738-1.896-5.496-4.043-4.106-8.971c2.527,0.758,4.612,0.948,7.266,1.011
		C639.734,548.061,640.113,552.989,636.89,553.494z"/>
	<path id="path661" fill="#4D87CA" d="M514.071,550.145c0-0.758,0-1.516,0-2.274c0.505,0.316,1.011,0.632,1.579,1.011
		c0,0.316,0,0.632,0,0.948C515.082,549.893,514.576,550.019,514.071,550.145z"/>
	<path id="path663" fill="#4D87CA" d="M520.073,550.145c-0.379-1.39-0.759-2.78-1.138-4.169c0.379,0.063,0.821,0.126,1.264,0.189
		c0.758,1.58,2.021,1.769,2.527,3.601C521.841,549.893,520.957,550.019,520.073,550.145z"/>
	<path id="path665" fill="#4D87CA" d="M526.454,550.145c-0.506-0.821-1.138-1.327-0.948-2.464c0.316-0.063,0.632-0.126,0.948-0.189
		c0.695,1.264,0.695,1.264,0.885,2.401C527.022,549.956,526.707,550.019,526.454,550.145z"/>
	<path id="path667" fill="#4D87CA" d="M574.912,550.145c-4.802-0.695-10.298-1.895-10.298-7.897
		c0.632,1.453,1.326,2.969,2.021,4.485c2.211,0.695,4.486,1.39,6.761,2.085c9.792,0,13.33-0.379,18.448-0.379
		c3.728,0.379,3.728,0.379,4.485,0.758C589.19,549.198,582.051,549.64,574.912,550.145z"/>
	<path id="path669" fill="#4D87CA" d="M599.362,550.145c-0.947-0.631-0.947-0.631-2.653-0.947c1.011,0.063,2.021,0.126,3.032,0.189
		C599.615,549.64,599.489,549.893,599.362,550.145z"/>
	<path id="path671" fill="#4D87CA" d="M598.983,546.734c-1.958-1.453-6.065-1.2-8.466-1.39c-0.063-0.569-0.063-0.569,1.706-3.475
		c2.59,0,4.675,0.316,7.139,1.138c0.379,1.326,0.442,2.274,0.379,3.727C599.489,546.734,599.236,546.734,598.983,546.734z"/>
	<path id="path673" fill="#4D87CA" d="M609.471,546.734c0-1.074,0-2.211,0-3.348c0.126,0,0.252,0,0.379,0c0,1.074,0,2.211,0,3.348
		C609.723,546.734,609.597,546.734,609.471,546.734z"/>
	<path id="path675" fill="#4D87CA" d="M585.463,545.218c0.063-0.821,0.127-1.643,0.189-2.401c0.506-0.442,0.506-0.442,2.78-0.568
		C588.179,543.954,586.916,544.396,585.463,545.218z"/>
	<path id="path677" fill="#4D87CA" d="M637.649,543.764c-1.264-0.442-2.527-0.884-3.728-1.327c4.485,0.316,4.485,0.316,5.622,0.758
		C638.913,543.385,638.281,543.575,637.649,543.764z"/>
	<path id="path679" fill="#4D87CA" d="M624.886,542.627c-2.337-0.632-2.337-0.632-2.906-1.137c0.189-0.253,0.189-0.253,6.887-0.884
		c0-0.506,0.063-0.948,0.126-1.39c0.127,0,0.253,0,0.38,0c0,1.011,0,2.021,0,3.033C627.856,542.374,626.339,542.501,624.886,542.627
		z"/>
	<path id="path681" fill="#4D87CA" d="M634.616,540.353c-1.896-1.327-1.39-3.159-1.453-5.244c2.338,0.505,3.854,0.884,6.381,0.758
		c0.127,1.327,0.253,2.717,0.38,4.106C638.154,540.1,636.385,540.226,634.616,540.353z"/>
	<path id="path683" fill="#4D87CA" d="M635.375,533.593c-0.632-0.442-1.264-0.884-1.832-1.264c1.073-0.126,1.073-0.126,3.096,0.316
		c0.063,0.316,0.126,0.632,0.252,0.948C636.385,533.593,635.88,533.593,635.375,533.593z"/>
	<path id="path685" fill="#FFFFFF" d="M602.711,530.244c0.127-1.39,0.253-2.78,0.379-4.169c0.38,0,0.759,0,1.138,0
		c-0.063,1.137-0.127,2.274-0.189,3.412C603.595,529.739,603.153,529.991,602.711,530.244z"/>
	<path id="path687" fill="#FFFFFF" d="M608.713,530.244c-0.253-0.126-0.505-0.252-0.758-0.379c-0.063-1.39-0.379-2.085,0.315-3.285
		c1.706,1.2,2.148,1.896,3.096,3.664C610.482,530.244,609.597,530.244,608.713,530.244z"/>
	<path id="path689" fill="#4D87CA" d="M634.237,530.244c-1.39-1.706-1.011-3.791-1.074-6.002c1.327,0.316,3.854,4.233,3.854,5.75
		C636.069,530.054,635.122,530.118,634.237,530.244z"/>
</g>
</svg>
