<?xml version="1.0" encoding="UTF-8" standalone="no"?>
<!-- Created with Inkscape (http://www.inkscape.org/) -->

<svg
   xmlns:dc="http://purl.org/dc/elements/1.1/"
   xmlns:cc="http://creativecommons.org/ns#"
   xmlns:rdf="http://www.w3.org/1999/02/22-rdf-syntax-ns#"
   xmlns:svg="http://www.w3.org/2000/svg"
   xmlns="http://www.w3.org/2000/svg"
   xmlns:sodipodi="http://sodipodi.sourceforge.net/DTD/sodipodi-0.dtd"
   xmlns:inkscape="http://www.inkscape.org/namespaces/inkscape"
   id="svg4163"
   version="1.1"
   inkscape:version="0.48.3.1 r9886"
   width="805"
   height="893"
   sodipodi:docname="vorlageLOL.svg">
  <metadata
     id="metadata4169">
    <rdf:RDF>
      <cc:Work
         rdf:about="">
        <dc:format>image/svg+xml</dc:format>
        <dc:type
           rdf:resource="http://purl.org/dc/dcmitype/StillImage" />
        <dc:title />
      </cc:Work>
    </rdf:RDF>
  </metadata>
  <defs
     id="defs4167" />
  <sodipodi:namedview
     pagecolor="#ffffff"
     bordercolor="#666666"
     borderopacity="1"
     objecttolerance="10"
     gridtolerance="10"
     guidetolerance="10"
     inkscape:pageopacity="0"
     inkscape:pageshadow="2"
     inkscape:window-width="1280"
     inkscape:window-height="962"
     id="namedview4165"
     showgrid="false"
     inkscape:zoom="2.5230948"
     inkscape:cx="378.87956"
     inkscape:cy="485.23404"
     inkscape:window-x="-8"
     inkscape:window-y="-8"
     inkscape:window-maximized="1"
     inkscape:current-layer="svg4163" />
  <path
     style="fill:#f5d307;fill-opacity:1;stroke:#000000;stroke-width:1px;stroke-linecap:butt;stroke-linejoin:miter;stroke-opacity:1"
     d="M 37.636493,489.08081 C 37.959553,778.15898 250.58323,872.02678 407.27443,882.31265 679.61607,867.45549 760.64979,644.96097 775.33944,489.08081 z"
     id="path3991"
     inkscape:connector-curvature="0"
     sodipodi:nodetypes="cccc" />
  <path
     style="fill:#0095c5;fill-opacity:1;stroke:#000000;stroke-width:1px;stroke-linecap:butt;stroke-linejoin:miter;stroke-opacity:1"
     d="m 39.227193,484.35733 c -12.47879,33.83026 -0.71964,67.66051 11.40033,101.49077 l 60.338357,0 0.83417,-57.27972 133.46731,0 0,55.88944 94.53935,0 0.55612,-56.1675 133.74537,0.27806 0.55611,56.16749 92.87101,-0.27805 -0.55612,-55.88944 136.24789,0 1.11222,55.88944 53.66499,0.55611 11.12227,-100.10048 z"
     id="path4009"
     inkscape:connector-curvature="0"
     sodipodi:nodetypes="ccccccccccccccccc" />
  <path
     style="fill:#ffffff;fill-opacity:1;stroke:#000000;stroke-width:1px;stroke-linecap:butt;stroke-linejoin:miter;stroke-opacity:1"
     d="m 11.965823,10.569876 23.08548,481.149884 741.165227,0 17.01035,-482.3649094 z"
     id="path3857"
     inkscape:connector-curvature="0" />
  <path
     style="fill:#e64625;fill-opacity:1;stroke:#000000;stroke-width:5;stroke-linecap:butt;stroke-linejoin:miter;stroke-miterlimit:4;stroke-opacity:1;stroke-dasharray:none"
     d="m 185.7144,71.357975 c 4.83273,16.336488 1.33712,29.059825 -16.65448,43.704045 -2.73219,-1.7517 -4.74115,-3.2995 -8.60308,-3.35658 -3.76744,0.367 -6.87475,3.55777 -8.72629,6.25306 -2.55883,-1.10151 -4.97826,-2.41213 -8.63994,-1.85938 -3.55669,0.49523 -6.2786,1.7887 -7.54811,7.35753 -3.24904,-4.59967 -6.18724,-4.69404 -11.08262,-4.14204 -3.79966,1.17787 -4.77761,4.21581 -7.29015,7.89766 -2.68374,-0.94698 -4.686,-2.91617 -8.39463,-2.32581 -6.78992,0.62013 -9.179141,9.74202 -14.150725,12.83146 -11.4681,2.41553 -29.812257,3.66235 -27.509675,-20.2627 -13.449197,9.73065 -13.551757,29.34746 -8.199587,42.45993 2.88763,7.07452 7.468978,14.50141 14.839049,16.61619 6.630231,1.96915 10.623492,2.84109 15.886912,2.7796 8.321905,-0.37758 3.90356,7.68408 0.08356,14.77387 -8.379864,15.55272 -27.732953,36.62009 -24.616726,45.12455 6.099561,9.84983 13.366766,9.05821 21.102883,7.89134 14.879839,-3.35777 25.872409,-28.70265 36.396019,-38.22563 9.92525,6.72655 22.05235,18.2931 25.70495,31.04724 2.35179,8.21199 -1.86993,20.34207 -0.65586,25.87651 6.47905,13.92124 20.41238,9.06775 34.6703,9.57912 -1.14767,9.51328 6.30328,16.81213 10.24877,24.79746 -18.49634,6.17924 -44.29558,4.89833 -69.42803,5.46128 -13.01687,1.20088 -7.19129,12.234 -12.33036,18.579 -20.850247,25.7429 -41.841127,52.048 -31.846441,95.70073 2.371819,9.28461 16.08749,-6.48116 20.15847,-2.52796 2.289981,3.79123 1.737321,10.14189 6.394141,10.831 8.71178,1.78457 17.29759,-11.50259 17.93688,-30.36931 0.83201,-7.77739 1.22338,-9.50098 9.1369,-8.97792 6.34662,0.49357 2.97951,-8.94101 4.161,-13.50636 1.20506,-8.92116 13.95083,-15.53418 20.93127,-23.30026 4.11084,-4.82441 14.11116,0.83962 27.16009,3.06455 13.95427,2.37929 31.44268,2.77481 43.39138,2.0256 12.20955,15.32755 28.8101,26.02648 48.601,29.76811 1.91471,16.94632 -4.87891,44.11778 -10.28519,61.70563 -4.03466,13.12568 -5.5114,20.36896 -0.95063,19.57522 l 7.89451,-0.78545 c 7.46676,-1.87636 1.7409,6.32147 10.02394,5.16385 l 17.92163,-0.60751 c 5.66474,-0.53617 9.30158,-2.25168 12.0585,-3.73244 6.0379,-3.24299 -0.39691,-21.41622 4.64809,-25.42816 l 5.77137,-5.16384 c 2.05436,-0.90754 -0.65582,-14.02657 1.25476,-26.06855 1.8687,-11.77797 8.30268,-22.4729 15.14807,-24.355 20.47056,-0.32034 33.97501,-5.25667 52.70637,-16.963 18.03108,-11.26868 35.17638,-24.31981 51.53598,-31.87514 9.15364,-4.2274 17.85264,-5.8996 26.82847,-6.59737 -2.59324,5.90639 -7.47822,10.56827 -10.99622,15.01957 -9.47273,11.98576 -20.42586,19.59688 -36.23787,24.31686 12.55199,1.27981 22.81627,2.30189 34.19992,-3.29104 5.32896,-2.61818 11.259,-7.27896 17.13489,-12.95991 0.80517,9.11559 -1.02341,21.2391 3.79695,27.94557 5.8979,4.71075 4.4745,5.14167 3.64507,7.89766 l -9.87208,18.37725 -13.36527,8.20143 c -9.71645,6.48849 -4.81726,15.76296 -5.16386,23.69298 -0.49664,8.20142 -16.94952,25.19334 -9.91656,23.97832 3.10715,-0.13881 6.29812,-0.65731 8.15843,-1.03309 9.31774,-1.88215 0.1246,5.29811 8.25073,5.00034 l 14.77034,-0.30375 c 5.57561,-0.8151 9.79005,-2.23535 12.7136,-6.15399 4.33757,-5.81396 8.3651,-13.24997 9.76436,-19.36153 4.15134,-0.93053 8.30267,-1.21432 12.45401,-5.16386 l 7.29014,-17.61787 c 5.74449,-17.1768 11.0926,-15.09572 19.74416,-20.0479 8.6019,-1.86234 3.67569,-21.35713 5.77138,-31.89441 18.83288,12.44486 57.47489,6.60281 59.23246,24.60426 -0.96839,23.27845 -13.92145,39.67405 -23.54111,61.51063 -1.86433,4.27044 -0.71747,8.95322 2.41558,10.35994 2.73162,1.22648 5.83092,0.27876 10.03843,-2.46227 3.90553,5.34037 4.38369,6.92658 7.13826,7.29015 4.98494,0.98202 9.80376,-0.20498 14.27655,-0.45564 10.42544,-1.72746 17.77675,-10.04965 21.87044,-18.83288 l 3.94884,-0.30377 c 2.43985,-15.44993 7.02596,-30.29235 8.40904,-46.04604 1.23927,-14.11567 0.5874,-29.44637 5.56375,-43.56204 -14.02849,-21.0349 -51.54218,-31.71077 -49.20851,-60.4475 l 0.60751,-52.54983 52.85359,19.74416 c -5.1587,8.8584 -8.93213,15.75462 -10.85637,21.79095 -6.85878,21.51593 4.54926,28.26789 11.16012,37.44152 -2.79848,-10.77238 -6.19509,-21.45838 -2.93831,-32.07453 2.44683,-7.97596 9.31071,-15.91249 19.34115,-23.81662 18.3961,1.35397 31.61096,-0.9719 43.7409,-8.80893 6.8417,11.92044 8.9499,27.09361 2.12629,41.00709 -8.62371,15.60184 -27.62044,29.70836 -34.62821,44.04465 -1.75764,3.90806 -1.60887,8.06951 -1.17852,12.75441 1.06562,11.60071 6.97513,24.24477 12.72126,33.41654 -5.16921,-12.84674 -8.53337,-28.29194 -2.1263,-44.04465 4.61392,-7.87588 11.37584,-12.86462 17.45006,-19.59192 20.14142,-22.30698 34.84769,-47.03045 25.07582,-76.69881 10.09345,-14.73161 11.96947,-30.35939 10.52839,-44.61103 -1.76495,-17.45442 -8.96105,-33.1484 -17.75681,-46.35464 -9.14895,-13.73654 -12.75844,-17.18783 -22.5397,-28.71429 -1.89437,-1.61841 -1.69906,-5.47912 -1.25843,-9.69297 0.5673,-5.42511 1.94068,-11.43557 3.99224,-14.00002 2.49833,-3.64739 15.82632,1.20903 26.87493,-4.2681 8.24623,-4.08766 15.16606,-17.152561 12.00588,-29.145083 -2.39542,6.897324 -5.37521,13.195742 -10.30018,16.444584 -9.09598,6.000311 -22.63,5.260196 -35.87079,4.514597 -22.86826,3.926892 -16.42846,15.043542 -22.17419,24.908012 -22.0308,-11.9308 -67.43897,-8.39377 -75.0278,-13.36527 -23.6246,-11.945763 -52.05485,-28.401277 -66.52261,-19.744161 19.72518,4.975264 33.12837,11.326341 40.70333,25.211771 -18.64769,10.38439 -41.70554,9.72632 -64.39632,6.07512 -10.87274,-1.8403 -27.86347,-4.87375 -37.03007,-12.73353 -19.83555,-17.007721 -43.5973,-29.856972 -67.76583,-21.89468 20.94622,3.617879 39.67041,17.11334 56.68863,31.36378 6.10986,5.11617 13.58746,9.62361 18.64292,16.02219 -16.38679,8.51346 -39.49783,2.77106 -58.41964,-8.75625 -16.94359,-10.32216 -31.99505,-26.251545 -49.1577,-34.228652 -15.50213,-7.205307 -33.3392,-4.770402 -46.42708,0.762788 40.37279,0.988916 68.95728,29.722444 98.11327,56.194904 -14.7828,4.92469 -37.46327,11.55481 -56.19491,3.64508 -22.65642,-7.08947 -35.89471,-28.86648 -46.56945,-41.20002 -4.78376,-5.52712 -8.36501,-10.639884 -13.40347,-14.893461 -14.06408,-11.873185 -30.558,-16.712514 -53.32816,-7.695334 40.20676,1.512255 51.68653,37.067995 70.16769,61.055005 -9.11234,-5.74028 -19.96059,-11.78913 -29.03005,-18.6023 -14.85391,-11.15857 -28.00262,-23.34527 -43.66394,-32.009456 -12.5855,-6.962578 -27.36356,-13.858898 -41.2146,-12.873299 13.74279,5.473339 28.1039,7.863028 32.80568,21.870455 -10.07675,-3.5838 -23.11635,-7.781877 -34.39049,-10.323532 -1.47465,-0.332448 -2.59081,-3.29739 -5.09348,-6.853141 -2.24819,-3.194193 -5.79117,-6.835837 -8.7502,-9.968826 -5.65778,-5.990406 -15.53074,-7.384475 -15.34458,-7.428514 0,0 1.35143,4.66922 1.74699,10.275663 0.34293,4.860636 -0.48775,10.822287 -2.23284,11.036656 -2.48824,0.305659 -4.75408,0.15257 -7.24214,0.150616 -3.62286,-0.0028 -7.46165,0.05954 -11.02672,0.207721 -7.90507,0.328575 -15.78773,-0.62287 -23.47186,-1.041468 C 130.9886,91.312168 119.08782,88.807848 107.17708,86.219954 94.302629,83.422669 86.581176,80.513403 74.865339,74.903288 c 8.20244,7.436684 14.575296,12.613224 26.226211,17.211826 9.86802,3.894891 19.96156,6.742936 30.25049,8.214726 11.09064,0.95333 21.92607,1.63802 32.49696,1.76833 5.30791,0.0654 8.86658,0.33703 12.15321,0.32371 1.78811,-0.007 3.33531,0.27541 5.40849,-0.46548 2.32393,-0.8305 5.27361,-8.353333 6.08426,-15.947034 0.70377,-6.592575 -1.56392,-14.510302 -1.56392,-14.510302 0.36296,-0.725917 7.47998,1.333957 13.15749,5.889844 8.63151,6.926296 14.0761,15.856616 20.4605,28.335212 0,0 5.15682,1.21073 9.83165,2.38472 9.94389,2.4972 20.40846,4.93111 29.54898,10.2945 6.26886,2.88039 12.92898,7.28001 18.42251,11.06142 20.78278,14.30562 37.00014,31.89441 64.80669,37.53958 32.48871,9.27063 70.13632,2.03626 109.35225,-2.73381 -6.66918,24.89251 -26.84958,24.57466 -44.34841,27.03431 38.42281,7.01126 44.56103,-12.93974 67.58122,-23.90771 30.33665,-14.4539 66.02255,-23.5446 100.09222,-28.33837 -15.08217,20.12986 -27.85641,34.23542 -54.97988,42.52588 18.98089,-1.15799 32.66511,-4.21861 47.35805,-15.0059 14.8557,-10.90678 26.17272,-25.31087 46.80639,-32.07632 14.80436,-4.61651 48.21087,6.24958 64.58721,13.68817 36.37214,16.52124 45.68097,52.33195 42.39142,71.16749 -1.06379,6.0911 -4.48155,11.01254 -8.25783,15.08016 -5.06591,5.45674 -11.26283,9.13403 -17.92164,9.72019 -10.72336,2.25269 -48.06131,-19.04945 -90.85531,-34.7604 -23.08469,-8.47507 -46.43119,-13.33505 -64.66788,-15.05564 -27.37265,-3.32479 -50.81863,9.51502 -81.55746,15.12913 -28.73779,5.24865 -53.52678,3.37827 -85.50847,-0.54882 -8.54663,-0.0147 -18.70206,-17.38168 -37.96954,-18.83288 l -38.8808,-4.2526 c -8.99663,-12.25612 -13.58705,-24.25651 -33.71694,-33.86882 -2.3544,-1.18767 -3.76591,-3.63156 -5.43008,-7.55149 -2.36586,-5.57277 -8.3374,-11.25392 -13.45808,-14.23411 -5.88448,-3.42471 -12.82166,-5.80082 -16.47339,-7.09729 -3.5006,-8.50358 -7.06925,-18.56029 -11.95734,-27.168633 C 207.13949,83.245745 198.0164,72.781973 185.7144,71.357975 z"
     id="path2987"
     inkscape:connector-curvature="0"
     sodipodi:nodetypes="cccccccccccsccscccsccccscccccccsccsccccsccscsscscscccccccsccscccccccscccccsccccscsccccsccscsscscscsccccccscscsscccssccssccssscsssssscscsssscssscscccsccscssscscsccccsscsc" />
  <path
     style="fill:none;stroke:#000000;stroke-width:2;stroke-linecap:butt;stroke-linejoin:miter;stroke-miterlimit:4;stroke-opacity:1;stroke-dasharray:none"
     d="m 209.51614,126.92343 c 4.82528,-0.0967 9.83508,-0.83914 15.46475,-3.75116"
     id="path3757"
     inkscape:connector-curvature="0"
     sodipodi:nodetypes="cc" />
  <path
     style="fill:none;stroke:#000000;stroke-width:2;stroke-linecap:butt;stroke-linejoin:miter;stroke-miterlimit:4;stroke-opacity:1;stroke-dasharray:none"
     d="m 206.29432,116.94342 c 6.39041,1.13728 10.88116,-2.16965 14.93541,-4.53661"
     id="path3759"
     inkscape:connector-curvature="0"
     sodipodi:nodetypes="cc" />
  <path
     style="fill:none;stroke:#000000;stroke-width:2;stroke-linecap:butt;stroke-linejoin:miter;stroke-miterlimit:4;stroke-opacity:1;stroke-dasharray:none"
     d="m 203.157,105.84814 c 5.36322,0.82803 9.91875,-0.76698 13.66194,-4.79904"
     id="path3761"
     inkscape:connector-curvature="0"
     sodipodi:nodetypes="cc" />
  <path
     style="fill:none;stroke:#000000;stroke-width:2;stroke-linecap:butt;stroke-linejoin:miter;stroke-miterlimit:4;stroke-opacity:1;stroke-dasharray:none"
     d="m 199.90912,97.078678 c 5.4796,1.138193 8.54748,-0.80501 11.61383,-3.206557"
     id="path3763"
     inkscape:connector-curvature="0"
     sodipodi:nodetypes="cc" />
  <path
     style="fill:none;stroke:#000000;stroke-width:2;stroke-linecap:butt;stroke-linejoin:miter;stroke-miterlimit:4;stroke-opacity:1;stroke-dasharray:none"
     d="m 196.3359,88.905936 c 4.74754,0.09254 6.87659,-1.909718 9.74363,-3.321583"
     id="path3765"
     inkscape:connector-curvature="0"
     sodipodi:nodetypes="cc" />
  <path
     style="fill:#e64625;fill-opacity:1;stroke:#000000;stroke-width:5;stroke-linecap:butt;stroke-linejoin:miter;stroke-miterlimit:4;stroke-opacity:1;stroke-dasharray:none"
     d="m 182.66763,275.45703 c 12.64073,0.27441 20.97794,-9.74221 23.43796,-18.62813 0.65575,-5.1916 2.53092,-9.67487 3.14669,-15.37391 0.83449,-7.72339 2.89751,-15.3756 5.86106,-22.83598 3.75279,-9.44722 9.55255,-18.45077 13.72167,-27.99362 1.87528,-4.2924 2.70428,-9.04044 4.57026,-13.33285 0.7674,-5.82246 6.56386,-3.39978 13.26305,-1.17953 5.31811,1.76254 12.87577,2.24496 17.26738,1.92999 -9.74495,-2.13142 -17.92783,-9.32258 -23.08571,-19.24207 -4.59812,-8.84299 -8.05756,-19.31311 -12.74704,-27.64464 -1.64326,4.29202 -9.38207,7.11811 -18.99806,7.09415 -8.67719,-0.0216 -18.91112,-2.19468 -27.07529,-10.69791"
     id="path3767"
     inkscape:connector-curvature="0"
     sodipodi:nodetypes="ccssscscscsc" />
  <path
     style="fill:#e64625;fill-opacity:1;stroke:#000000;stroke-width:5;stroke-linecap:butt;stroke-linejoin:miter;stroke-miterlimit:4;stroke-opacity:1;stroke-dasharray:none"
     d="M 66.237214,231.16304 C 71.33818,221.31162 84.234765,218.33025 96.310278,214.2471 107.97056,210.30436 118.855,205.28298 121.78284,194.89176"
     id="path3769"
     inkscape:connector-curvature="0"
     sodipodi:nodetypes="csc" />
  <path
     style="fill:none;stroke:#000000;stroke-width:3;stroke-linecap:butt;stroke-linejoin:miter;stroke-miterlimit:4;stroke-opacity:1;stroke-dasharray:none"
     d="m 92.081019,179.44675 10.937081,-0.0521"
     id="path3771"
     inkscape:connector-curvature="0"
     sodipodi:nodetypes="cc" />
  <path
     style="fill:none;stroke:#000000;stroke-width:2;stroke-linecap:butt;stroke-linejoin:miter;stroke-miterlimit:4;stroke-opacity:1;stroke-dasharray:none"
     d="m 63.464705,166.26018 c -1.167132,-3.31565 1.03484,-5.52969 3.065472,-7.79975"
     id="path3773"
     inkscape:connector-curvature="0"
     sodipodi:nodetypes="cc" />
  <path
     style="fill:none;stroke:#000000;stroke-width:2;stroke-linecap:butt;stroke-linejoin:miter;stroke-miterlimit:4;stroke-opacity:1;stroke-dasharray:none"
     d="m 73.596598,164.72614 c -0.760976,3.49752 -1.31892,9.24068 -3.163384,10.21006"
     id="path3775"
     inkscape:connector-curvature="0"
     sodipodi:nodetypes="cc" />
  <path
     style="fill:none;stroke:#000000;stroke-width:2;stroke-linecap:butt;stroke-linejoin:miter;stroke-miterlimit:4;stroke-opacity:1;stroke-dasharray:none"
     d="m 81.958068,166.10384 c -1.410177,5.07171 -0.303906,8.4658 -0.455634,12.69855"
     id="path3777"
     inkscape:connector-curvature="0"
     sodipodi:nodetypes="cc" />
  <path
     style="fill:none;stroke:#000000;stroke-width:2;stroke-linecap:butt;stroke-linejoin:miter;stroke-miterlimit:4;stroke-opacity:1;stroke-dasharray:none"
     d="m 92.152871,168.08457 c -0.105787,3.67452 0.642246,9.35153 -1.655395,11.19951"
     id="path3779"
     inkscape:connector-curvature="0"
     sodipodi:nodetypes="cc" />
  <path
     style="fill:#e64625;fill-opacity:0;stroke:#000000;stroke-width:5;stroke-linecap:butt;stroke-linejoin:miter;stroke-miterlimit:4;stroke-opacity:1;stroke-dasharray:none"
     d="m 95.893238,137.1335 c 0.71596,3.56033 2.103951,6.44861 5.636612,7.19224 -2.906691,2.66164 -4.986782,4.39084 -4.688492,7.85372 0.12143,4.06899 4.642902,6.13056 9.917102,7.82134 -6.68256,2.99232 -7.391181,4.54639 -6.07697,8.04507 1.45455,3.97687 7.55306,3.44766 12.20606,2.60536 -5.3582,1.12717 -10.15387,5.65431 -9.69151,9.86946 1.82225,8.73122 6.8082,7.6596 12.53141,8.19881 0.36498,6.71566 4.8319,5.83458 7.97769,6.21359 4.36692,-0.26717 6.03641,-2.17116 7.92742,-7.08355 3.89575,5.99968 8.94453,7.85135 14.45819,6.16595 4.78527,-1.42052 7.83931,-4.90858 12.55747,-11.05843 3.50472,3.06588 6.59743,4.13475 11.99128,2.07418 7.28213,-2.74158 5.23365,-8.46896 2.57746,-14.3908 6.08332,-1.23695 9.81875,-3.48787 11.27953,-7.41783 0.55074,-2.10207 2.18003,-7.2949 -2.93964,-8.95817 5.40015,-2.74123 7.17808,-5.85073 6.92085,-11.42064 -0.0233,-3.19216 -4.31721,-6.99184 -8.79551,-10.184 4.16303,-3.78987 5.78815,-7.02204 5.13332,-10.56147 -1.02795,-5.25076 -8.65933,-7.51708 -15.46813,-6.66013"
     id="path3781"
     inkscape:connector-curvature="0"
     sodipodi:nodetypes="cccccccccccccccccccc" />
  <path
     style="fill:#ffffff;fill-opacity:1;stroke:#000000;stroke-width:2;stroke-linecap:butt;stroke-linejoin:miter;stroke-miterlimit:4;stroke-opacity:1;stroke-dasharray:none"
     d="m 193.20304,174.33948 c -1.74589,5.14961 -10.25756,11.6848 -10.39433,15.78824 -0.18573,3.73004 0.28669,12.27678 1.70304,15.06755 2.57448,-1.35163 9.09779,-7.79582 13.19105,-11.14293 4.35954,-6.34057 -3.61119,-20.73813 -4.49976,-19.71286 z"
     id="path3783"
     inkscape:connector-curvature="0"
     sodipodi:nodetypes="ccccc" />
  <path
     style="fill:none;stroke:#000000;stroke-width:2;stroke-linecap:butt;stroke-linejoin:miter;stroke-miterlimit:4;stroke-opacity:1;stroke-dasharray:none"
     d="m 182.36387,261.58031 c 2.54781,4.39555 6.61439,4.96169 8.55468,3.75563 1.95397,-0.7097 3.60753,-3.9873 2.52534,-7.44389"
     id="path3785"
     inkscape:connector-curvature="0"
     sodipodi:nodetypes="ccc" />
  <path
     style="fill:none;stroke:#000000;stroke-width:3;stroke-linecap:butt;stroke-linejoin:miter;stroke-miterlimit:4;stroke-opacity:1;stroke-dasharray:none"
     d="m 225.20271,122.20029 2.73381,10.47959"
     id="path3787"
     inkscape:connector-curvature="0"
     sodipodi:nodetypes="cc" />
  <path
     style="fill:none;stroke:#000000;stroke-width:5;stroke-linecap:butt;stroke-linejoin:miter;stroke-miterlimit:4;stroke-opacity:1;stroke-dasharray:none"
     d="m 123.9,195.40555 c -2.28777,5.48482 -1.34946,9.83094 -1.06314,14.5803"
     id="path3789"
     inkscape:connector-curvature="0"
     sodipodi:nodetypes="cc" />
  <path
     style="fill:#e64625;fill-opacity:0;stroke:#000000;stroke-width:5;stroke-linecap:butt;stroke-linejoin:miter;stroke-miterlimit:4;stroke-opacity:1;stroke-dasharray:none"
     d="m 260.13468,177.48393 c 6.07767,-0.36299 13.07224,9.50237 18.27164,19.30117 4.48069,8.44435 8.77397,16.50089 5.42134,17.45334 -16.05098,4.09514 -28.25452,-7.88314 -38.84088,-20.71494 -4.15641,-5.03802 -7.17628,-10.63922 -12.03828,-13.91328"
     id="path3791"
     inkscape:connector-curvature="0"
     sodipodi:nodetypes="cscsc" />
  <path
     style="fill:#ffffff;fill-opacity:0;stroke:#000000;stroke-width:2;stroke-linecap:butt;stroke-linejoin:miter;stroke-miterlimit:4;stroke-opacity:1;stroke-dasharray:none"
     d="m 182.52496,194.49428 c 3.43318,1.83353 9.70684,0.71088 10.32771,-3.4932 0.21398,-3.17837 -1.17826,-6.7728 -6.07513,-7.13827"
     id="path3793"
     inkscape:connector-curvature="0"
     sodipodi:nodetypes="ccc" />
  <path
     style="fill:#e64625;fill-opacity:1;stroke:#000000;stroke-width:5;stroke-linecap:butt;stroke-linejoin:miter;stroke-miterlimit:4;stroke-opacity:1;stroke-dasharray:none"
     d="m 78.184686,387.53137 49.664154,1.51878"
     id="path3795"
     inkscape:connector-curvature="0"
     sodipodi:nodetypes="cc" />
  <path
     style="fill:none;stroke:#000000;stroke-width:3;stroke-linecap:butt;stroke-linejoin:miter;stroke-miterlimit:4;stroke-opacity:1;stroke-dasharray:none"
     d="m 99.143869,399.07411 c -1.817021,6.8717 -0.43423,11.82353 -0.45563,17.61786"
     id="path3797"
     inkscape:connector-curvature="0"
     sodipodi:nodetypes="cc" />
  <path
     style="fill:none;stroke:#000000;stroke-width:3;stroke-linecap:butt;stroke-linejoin:miter;stroke-miterlimit:4;stroke-opacity:1;stroke-dasharray:none"
     d="m 191.03014,297.31577 c 1.84629,1.29188 3.90021,2.33593 4.62018,4.33883 1.37093,3.81383 0.29805,9.11027 0.54367,12.21588 3.36817,8.23762 11.78331,8.02395 11.84649,10.93523 -0.83579,12.01377 5.24125,22.10806 20.04791,32.19816"
     id="path3799"
     inkscape:connector-curvature="0"
     sodipodi:nodetypes="csccc" />
  <path
     style="fill:none;stroke:#000000;stroke-width:5;stroke-linecap:butt;stroke-linejoin:miter;stroke-miterlimit:4;stroke-opacity:1;stroke-dasharray:none"
     d="m 259.37529,334.67778 c -0.31857,1.67247 3.69355,16.72318 8.5883,30.15229 4.43969,12.18063 8.78472,18.41696 8.87769,22.24567"
     id="path3801"
     inkscape:connector-curvature="0"
     sodipodi:nodetypes="csc" />
  <path
     style="fill:none;stroke:#000000;stroke-width:2;stroke-linecap:butt;stroke-linejoin:miter;stroke-miterlimit:4;stroke-opacity:1;stroke-dasharray:none"
     d="m 187.99257,290.93689 c 6.23953,-1.7992 12.0744,-4.37904 14.27655,-11.23898"
     id="path3803"
     inkscape:connector-curvature="0"
     sodipodi:nodetypes="cc" />
  <path
     style="fill:none;stroke:#000000;stroke-width:2;stroke-linecap:butt;stroke-linejoin:miter;stroke-miterlimit:4;stroke-opacity:1;stroke-dasharray:none"
     d="m 210.77429,291.69628 c -1.29433,6.83666 -8.77091,10.08842 -14.12466,13.06151"
     id="path3805"
     inkscape:connector-curvature="0"
     sodipodi:nodetypes="cc" />
  <path
     style="fill:none;stroke:#000000;stroke-width:2;stroke-linecap:butt;stroke-linejoin:miter;stroke-miterlimit:4;stroke-opacity:1;stroke-dasharray:none"
     d="m 220.34261,309.61789 c -0.54381,6.96926 -8.08727,9.29794 -14.73218,12.45401"
     id="path3807"
     inkscape:connector-curvature="0"
     sodipodi:nodetypes="cc" />
  <path
     style="fill:none;stroke:#000000;stroke-width:2;stroke-linecap:butt;stroke-linejoin:miter;stroke-miterlimit:4;stroke-opacity:1;stroke-dasharray:none"
     d="m 228.08839,322.83129 c -0.29142,3.64688 -2.79447,7.94033 -6.14895,9.94959 -4.42779,2.65216 -10.11356,2.56471 -11.92454,4.0232"
     id="path3809"
     inkscape:connector-curvature="0"
     sodipodi:nodetypes="csc" />
  <path
     style="fill:none;stroke:#000000;stroke-width:2;stroke-linecap:butt;stroke-linejoin:miter;stroke-miterlimit:4;stroke-opacity:1;stroke-dasharray:none"
     d="m 239.1755,333.61464 c -5.32277,5.8405 -12.26025,14.18165 -21.26294,14.5803"
     id="path3811"
     inkscape:connector-curvature="0"
     sodipodi:nodetypes="cc" />
  <path
     style="fill:none;stroke:#000000;stroke-width:2;stroke-linecap:butt;stroke-linejoin:miter;stroke-miterlimit:4;stroke-opacity:1;stroke-dasharray:none"
     d="m 248.74382,343.79047 c -2.45066,6.99581 -8.67779,16.46261 -18.22538,14.5803"
     id="path3813"
     inkscape:connector-curvature="0"
     sodipodi:nodetypes="cc" />
  <path
     style="fill:none;stroke:#000000;stroke-width:2;stroke-linecap:butt;stroke-linejoin:miter;stroke-miterlimit:4;stroke-opacity:1;stroke-dasharray:none"
     d="m 259.52717,359.58579 c -0.83212,6.31986 -8.93748,10.09585 -13.2134,14.42842"
     id="path3815"
     inkscape:connector-curvature="0"
     sodipodi:nodetypes="cc" />
  <path
     style="fill:none;stroke:#000000;stroke-width:2;stroke-linecap:butt;stroke-linejoin:miter;stroke-miterlimit:4;stroke-opacity:1;stroke-dasharray:none"
     d="m 356.64599,365.88282 c -0.12803,6.53762 -0.68747,13.71177 -5.68425,20.36802"
     id="path3817"
     inkscape:connector-curvature="0"
     sodipodi:nodetypes="cc" />
  <path
     style="fill:none;stroke:#000000;stroke-width:2;stroke-linecap:butt;stroke-linejoin:miter;stroke-miterlimit:4;stroke-opacity:1;stroke-dasharray:none"
     d="m 375.87716,360.99034 c 0.66006,7.23816 -1.55147,13.9266 -5.33285,20.35723"
     id="path3819"
     inkscape:connector-curvature="0"
     sodipodi:nodetypes="cc" />
  <path
     style="fill:none;stroke:#000000;stroke-width:2;stroke-linecap:butt;stroke-linejoin:miter;stroke-miterlimit:4;stroke-opacity:1;stroke-dasharray:none"
     d="m 390.98603,360.61288 c -0.73852,4.62049 0.0657,9.24098 -3.62534,13.86147"
     id="path3821"
     inkscape:connector-curvature="0"
     sodipodi:nodetypes="cc" />
  <path
     style="fill:none;stroke:#000000;stroke-width:2;stroke-linecap:butt;stroke-linejoin:miter;stroke-miterlimit:4;stroke-opacity:1;stroke-dasharray:none"
     d="m 406.78059,352.39882 c -0.31604,2.84796 -0.0246,6.06489 -1.55563,10.5183"
     id="path3823"
     inkscape:connector-curvature="0"
     sodipodi:nodetypes="cc" />
  <path
     style="fill:none;stroke:#000000;stroke-width:5;stroke-linecap:butt;stroke-linejoin:miter;stroke-miterlimit:4;stroke-opacity:1;stroke-dasharray:none"
     d="m 498.83571,302.52033 c 3.66399,5.31323 9.81519,10.00191 13.76044,15.18939 3.68329,4.84303 5.17086,10.17931 8.35681,15.27015 3.71577,5.93745 6.43515,12.67174 10.02146,18.65308 3.95331,6.59343 8.82938,12.40263 14.28158,18.19423"
     id="path3825"
     inkscape:connector-curvature="0"
     sodipodi:nodetypes="csssc" />
  <path
     style="fill:none;stroke:#000000;stroke-width:5;stroke-linecap:butt;stroke-linejoin:miter;stroke-miterlimit:4;stroke-opacity:1;stroke-dasharray:none"
     d="m 470.31654,333.69066 c 5.05906,-7.95193 31.45059,-4.64076 46.56137,-6.25491"
     id="path3827"
     inkscape:connector-curvature="0"
     sodipodi:nodetypes="cc" />
  <path
     style="fill:none;stroke:#000000;stroke-width:2;stroke-linecap:butt;stroke-linejoin:miter;stroke-miterlimit:4;stroke-opacity:1;stroke-dasharray:none"
     d="m 494.75474,309.39355 c 2.75542,0.53799 5.91406,0.67277 10.09504,-0.21479"
     id="path3829"
     inkscape:connector-curvature="0"
     sodipodi:nodetypes="cc" />
  <path
     style="fill:none;stroke:#000000;stroke-width:2;stroke-linecap:butt;stroke-linejoin:miter;stroke-miterlimit:4;stroke-opacity:1;stroke-dasharray:none"
     d="m 497.2248,317.23332 c 4.15257,-0.19708 9.70126,-0.15828 13.85383,-2.04049"
     id="path3831"
     inkscape:connector-curvature="0"
     sodipodi:nodetypes="cc" />
  <path
     style="fill:none;stroke:#000000;stroke-width:2;stroke-linecap:butt;stroke-linejoin:miter;stroke-miterlimit:4;stroke-opacity:1;stroke-dasharray:none"
     d="m 502.16493,322.9252 c 4.01437,-0.49618 9.32401,0.30291 11.81335,-1.7183"
     id="path3833"
     inkscape:connector-curvature="0"
     sodipodi:nodetypes="cc" />
  <path
     style="fill:none;stroke:#000000;stroke-width:5;stroke-linecap:butt;stroke-linejoin:miter;stroke-miterlimit:4;stroke-opacity:1;stroke-dasharray:none"
     d="m 351.08755,332.86389 c -1.15228,7.4331 -4.62604,13.51903 -8.76329,19.51195 -2.42696,3.5155 -1.30465,8.87337 -2.68921,13.30636 -1.58371,5.07064 -6.9712,12.14473 -5.19673,14.49166 1.95002,2.74267 3.46509,5.05038 5.02462,7.40256"
     id="path3835"
     inkscape:connector-curvature="0"
     sodipodi:nodetypes="csscc" />
  <path
     style="fill:none;stroke:#000000;stroke-width:2;stroke-linecap:butt;stroke-linejoin:miter;stroke-miterlimit:4;stroke-opacity:1;stroke-dasharray:none"
     d="m 471.72029,357.96172 c 0.90098,-1.54865 2.54406,-2.47482 3.42052,-3.70988 3.61638,-5.09596 6.22292,-8.07376 10.15063,-9.6737 5.65646,-2.30414 12.7818,-1.31743 23.19447,-3.19196 -15.31111,23.52786 -4.01485,31.08823 3.14812,34.32478 4.31145,0.51552 14.43129,0.94754 11.81095,-8.41599 3.28574,2.89263 4.42015,7.41256 9.81047,5.95305 3.62391,-0.76351 5.22437,-3.34401 5.99728,-9.69101"
     id="path3837"
     inkscape:connector-curvature="0"
     sodipodi:nodetypes="cssccccc" />
  <path
     style="fill:#e64625;fill-opacity:1;stroke:#000000;stroke-width:5;stroke-linecap:butt;stroke-linejoin:miter;stroke-miterlimit:4;stroke-opacity:1;stroke-dasharray:none"
     d="m 267.73451,441.08025 c 15.2186,7.92986 37.21125,6.9721 51.79447,0.57065"
     id="path3839"
     inkscape:connector-curvature="0"
     sodipodi:nodetypes="cc" />
  <path
     style="fill:none;stroke:#000000;stroke-width:2;stroke-linecap:butt;stroke-linejoin:miter;stroke-miterlimit:4;stroke-opacity:1;stroke-dasharray:none"
     d="m 285.65852,447.39491 c -6.99322,5.02176 -5.41581,18.43518 -9.23589,19.97529"
     id="path3841"
     inkscape:connector-curvature="0"
     sodipodi:nodetypes="cc" />
  <path
     style="fill:#e64625;fill-opacity:1;stroke:#000000;stroke-width:5;stroke-linecap:butt;stroke-linejoin:miter;stroke-miterlimit:4;stroke-opacity:1;stroke-dasharray:none"
     d="m 454.80415,441.48823 c 5.9405,1.18034 15.90638,1.43293 26.46228,1.51859 6.22989,0.0506 12.56631,0.63683 18.66928,-0.28198"
     id="path3843"
     inkscape:connector-curvature="0"
     sodipodi:nodetypes="csc" />
  <path
     style="fill:none;stroke:#000000;stroke-width:2;stroke-linecap:butt;stroke-linejoin:miter;stroke-miterlimit:4;stroke-opacity:1;stroke-dasharray:none"
     d="m 466.18792,443.20653 c -3.05388,4.11611 -5.16362,9.72477 -6.83515,14.01787 -1.22622,3.14941 -1.86943,5.64043 -4.22644,6.06482"
     id="path3845"
     inkscape:connector-curvature="0"
     sodipodi:nodetypes="csc" />
  <path
     style="fill:#e64625;fill-opacity:1;stroke:#000000;stroke-width:5;stroke-linecap:butt;stroke-linejoin:miter;stroke-miterlimit:4;stroke-opacity:1;stroke-dasharray:none"
     d="m 588.79893,435.82861 c -0.23954,5.53734 5.16581,8.45333 11.03714,9.91962 6.6307,1.65593 14.89245,1.28465 21.66475,1.65501 8.30185,0.45401 15.13782,1.93349 16.05099,2.09441"
     id="path3847"
     inkscape:connector-curvature="0"
     sodipodi:nodetypes="cssc" />
  <path
     style="fill:none;stroke:#000000;stroke-width:2;stroke-linecap:butt;stroke-linejoin:miter;stroke-miterlimit:4;stroke-opacity:1;stroke-dasharray:none"
     d="m 591.83649,462.71104 c 4.25816,-5.41699 4.96545,-11.59336 6.98639,-17.01035"
     id="path3849"
     inkscape:connector-curvature="0"
     sodipodi:nodetypes="cc" />
  <path
     style="fill:none;stroke:#000000;stroke-width:5;stroke-linecap:butt;stroke-linejoin:miter;stroke-miterlimit:4;stroke-opacity:1;stroke-dasharray:none"
     d="m 754.24563,584.8179 -50,0 0,-56 -137,0 0,56 -93,0 0,-56 -134,0 0,56 -95,0 0,-56 -134,0 0,57 -59.000007,0"
     id="path3853"
     inkscape:connector-curvature="0"
     sodipodi:nodetypes="cccccccccccccc" />
  <path
     style="fill:none;stroke:#000000;stroke-width:5;stroke-linecap:butt;stroke-linejoin:miter;stroke-miterlimit:4;stroke-opacity:1;stroke-dasharray:none"
     d="m 61.370869,628.8179 221.783351,0"
     id="path3855"
     inkscape:connector-curvature="0" />
  <path
     style="fill:none;stroke:#000000;stroke-width:5;stroke-linecap:butt;stroke-linejoin:miter;stroke-miterlimit:4;stroke-opacity:1;stroke-dasharray:none"
     d="m 528.73348,628.42467 219.87845,0"
     id="path3855-1"
     inkscape:connector-curvature="0" />
  <path
     style="fill:none;stroke:#000000;stroke-width:5;stroke-linecap:butt;stroke-linejoin:miter;stroke-miterlimit:4;stroke-opacity:1;stroke-dasharray:none"
     d="m 528.90241,639.8179 218.32708,0"
     id="path3855-7"
     inkscape:connector-curvature="0" />
  <path
     style="fill:none;stroke:#000000;stroke-width:5;stroke-linecap:butt;stroke-linejoin:miter;stroke-miterlimit:4;stroke-opacity:1;stroke-dasharray:none"
     d="m 530.24563,696.8179 182,0"
     id="path3855-4"
     inkscape:connector-curvature="0" />
  <path
     style="fill:none;stroke:#000000;stroke-width:5;stroke-linecap:butt;stroke-linejoin:miter;stroke-miterlimit:4;stroke-opacity:1;stroke-dasharray:none"
     d="m 529.63887,754.8179 140,0"
     id="path3855-0"
     inkscape:connector-curvature="0" />
  <path
     style="fill:none;stroke:#000000;stroke-width:5;stroke-linecap:butt;stroke-linejoin:miter;stroke-miterlimit:4;stroke-opacity:1;stroke-dasharray:none"
     d="m 500.24563,811.8179 115,0"
     id="path3855-9"
     inkscape:connector-curvature="0" />
  <path
     style="fill:none;stroke:#000000;stroke-width:5;stroke-linecap:butt;stroke-linejoin:miter;stroke-miterlimit:4;stroke-opacity:1;stroke-dasharray:none"
     d="m 61.270033,639.80875 221.693067,0"
     id="path3855-9-4"
     inkscape:connector-curvature="0" />
  <path
     style="fill:none;stroke:#000000;stroke-width:5;stroke-linecap:butt;stroke-linejoin:miter;stroke-miterlimit:4;stroke-opacity:1;stroke-dasharray:none"
     d="m 193.20514,812.40132 122.10108,0"
     id="path3855-0-8"
     inkscape:connector-curvature="0" />
  <path
     style="fill:none;stroke:#000000;stroke-width:5;stroke-linecap:butt;stroke-linejoin:miter;stroke-miterlimit:4;stroke-opacity:1;stroke-dasharray:none"
     d="m 125.34356,755.19015 160.15757,0"
     id="path3855-4-8"
     inkscape:connector-curvature="0" />
  <path
     style="fill:none;stroke:#000000;stroke-width:5;stroke-linecap:butt;stroke-linejoin:miter;stroke-miterlimit:4;stroke-opacity:1;stroke-dasharray:none"
     d="m 88.842688,697.40368 194.129852,0"
     id="path3855-7-2"
     inkscape:connector-curvature="0" />
  <path
     style="fill:none;stroke:#000000;stroke-width:5;stroke-linecap:butt;stroke-linejoin:miter;stroke-miterlimit:4;stroke-opacity:1;stroke-dasharray:none"
     d="m 185.57226,640.8715 0,55.8126"
     id="path3152"
     inkscape:connector-curvature="0" />
  <path
     style="fill:none;stroke:#000000;stroke-width:5;stroke-linecap:butt;stroke-linejoin:miter;stroke-miterlimit:4;stroke-opacity:1;stroke-dasharray:none"
     d="m 245.26736,698.36054 0,55.8126"
     id="path3152-4"
     inkscape:connector-curvature="0" />
  <path
     style="fill:none;stroke:#000000;stroke-width:5;stroke-linecap:butt;stroke-linejoin:miter;stroke-miterlimit:4;stroke-opacity:1;stroke-dasharray:none"
     d="m 185.48513,755.3622 0,55.8126"
     id="path3152-5"
     inkscape:connector-curvature="0" />
  <path
     style="fill:none;stroke:#000000;stroke-width:5;stroke-linecap:butt;stroke-linejoin:miter;stroke-miterlimit:4;stroke-opacity:1;stroke-dasharray:none"
     d="m 245.26737,813.19805 0,32.5096"
     id="path3152-51"
     inkscape:connector-curvature="0" />
  <path
     style="fill:none;stroke:#000000;stroke-width:5;stroke-linecap:butt;stroke-linejoin:miter;stroke-miterlimit:4;stroke-opacity:1;stroke-dasharray:none"
     d="m 625.64921,640.80275 0,55.8126"
     id="path3152-7"
     inkscape:connector-curvature="0" />
  <path
     style="fill:none;stroke:#000000;stroke-width:5;stroke-linecap:butt;stroke-linejoin:miter;stroke-miterlimit:4;stroke-opacity:1;stroke-dasharray:none"
     d="m 566.9792,697.52637 0,55.8126"
     id="path3152-1"
     inkscape:connector-curvature="0" />
  <path
     style="fill:none;stroke:#000000;stroke-width:5;stroke-linecap:butt;stroke-linejoin:miter;stroke-miterlimit:4;stroke-opacity:1;stroke-dasharray:none"
     d="m 625.64921,754.24997 0,51.47715"
     id="path3152-15"
     inkscape:connector-curvature="0" />
  <path
     style="fill:none;stroke:#000000;stroke-width:5;stroke-linecap:butt;stroke-linejoin:miter;stroke-miterlimit:4;stroke-opacity:1;stroke-dasharray:none"
     d="m 566.97921,811.80775 0,31.42574"
     id="path3152-2"
     inkscape:connector-curvature="0" />
  <path
     style="fill:none;stroke:#000000;stroke-width:5;stroke-linecap:butt;stroke-linejoin:miter;stroke-miterlimit:4;stroke-opacity:1;stroke-dasharray:none"
     d="m 406.26231,853.51629 0,31.96767"
     id="path3152-76"
     inkscape:connector-curvature="0" />
  <path
     style="fill:none;stroke:#000000;stroke-width:5;stroke-linecap:butt;stroke-linejoin:miter;stroke-miterlimit:4;stroke-opacity:1;stroke-dasharray:none"
     d="m 284.24563,599.8179 245,0 0,155 c -0.28453,36.05672 -52.63369,95.71206 -123,98 -43.71368,-0.22012 -112.86955,-39.12044 -122,-97 z"
     id="path3989"
     inkscape:connector-curvature="0"
     sodipodi:nodetypes="cccccc" />
  <path
     style="fill:#000000;fill-opacity:1;stroke:#000000;stroke-width:1px;stroke-linecap:butt;stroke-linejoin:miter;stroke-opacity:0"
     d="m 355.22471,654.52612 c 1.8509,0.4752 6.50839,-1.16367 8.84608,-3.70849 1.76501,-1.9214 -3.23842,-6.96743 0.15463,-5.76979 4.80943,2.1737 6.80933,4.37637 11.59046,3.85786 4.35299,0.27783 5.63507,-2.96304 11.48107,-2.60372 4.76963,0.31829 6.96224,3.64065 11.45143,4.6612 1.75335,0.36318 4.46727,-0.0792 5.93405,-1.39668 0.59025,-0.53017 0.93079,-0.5298 1.13425,-1.98241 -0.43088,-4.89206 -4.30028,-1.86518 -8.47135,-1.997 -1.36615,-0.82645 -1.33402,-1.45277 -1.39729,-2.6635 -0.12739,-2.43776 1.35653,-4.55853 2.6753,-4.61129 0.6703,-0.40902 2.15053,1.76144 4.18572,2.7173 1.9194,0.90149 4.2667,1.54272 5.54676,0.82178 2.98592,-1.44165 -9.02951,-7.13397 -15.35569,-7.97263 -9.41793,-1.24853 -17.82715,-1.73301 -18.20515,-7.82242 -0.41072,-3.31843 1.71549,-8.89282 5.19754,-8.64291 -0.37059,10.28125 3.24598,12.92598 18.43669,14.72244 2.84921,0.33695 5.4166,1.75839 7.77516,3.20877 1.88127,1.15688 3.21461,2.3639 4.41747,3.69654 1.40932,1.22274 2.6122,-2.37961 1.5936,-5.08843 -0.80339,-2.13651 -2.83462,-3.54357 -5.43254,-3.60339 -3.49076,-0.44293 -8.55708,1.26669 -9.09904,-2.67238 -0.0537,-2.33979 -1.78853,-4.43138 -1.51823,-8.33811 0.3724,-3.91879 5.98968,-3.91732 12.1038,-4.33049 3.08387,-0.18952 3.79504,-3.22779 6.18148,-4.81215 3.14581,-1.04086 4.95418,-0.83461 7.96459,-0.82309 2.75436,0.0105 5.74005,-0.13972 8.35454,0.33154 4.92601,0.71652 6.34274,2.75628 9.60538,4.89854 2.10537,2.00472 3.51145,-3.45479 5.63234,-2.63745 3.12169,3.56259 3.53004,7.89444 3.83402,11.69865 1.19227,4.47793 4.04595,9.10511 3.14585,13.17327 -1.07188,5.83293 -5.02858,11.76683 -6.39002,17.89204 -0.34502,2.7966 1.35613,11.91817 -1.57292,8.06126 l -2.85093,-3.34247 c -1.88542,-0.91679 -2.69743,0.46026 -3.4102,2.73741 -0.90364,2.88697 -1.40896,7.34008 -1.11196,11.71385 -0.02,0.90066 0.41329,2.39235 -0.26916,2.79618 -0.55696,0.32956 -1.83311,-1.33084 -2.42681,-0.43266 -0.3808,0.57611 -0.15497,6.77912 -0.15497,6.77912 0.0643,3.2374 -0.79828,7.0134 -0.97689,10.63213 -0.27127,5.49587 0.66559,9.351 -1.08758,11.68379 -0.6938,0.75005 -0.8444,2.11948 -1.55959,3.35021 -0.90896,1.56419 -2.77534,2.39765 -1.29134,4.12118 7.76226,3.71449 9.69049,13.12597 13.1012,22.89191 4.72671,13.53407 9.88518,27.35568 21.20828,28.03161 7.30807,0.21646 9.21598,-6.96334 8.74941,-15.53265 -0.9079,-7.28197 -2.69135,-14.82591 -4.97306,-21.85225 -1.03795,-3.19632 -2.15365,-3.38805 -2.69496,-9.55858 0.53593,-11.09457 2.42875,-19.70791 6.62959,-27.1138 3.27979,-5.78212 8.47957,-10.96726 12.97624,-15.88356 3.54499,-3.87582 6.33726,-7.53193 9.57734,-11.54342 5.10404,-6.31924 9.96047,-14.5747 12.00787,-22.58037 2.06692,-9.24201 -5.93372,-18.97238 -15.43436,-18.18698 -5.86374,-0.24125 -15.11072,4.55542 -17.3022,19.17006 1.70021,5.2212 1.01232,11.76641 -0.47173,17.02798 -0.7793,2.76294 -2.44605,3.82272 -2.67412,6.86085 -0.13939,2.71627 0.627,5.03852 2.04073,6.9789 1.23135,1.69005 3.09618,3.04294 3.46451,4.71975 -2.13001,2.35939 -8.73029,-5.29621 -10.81388,-2.06447 -7.47039,14.42842 -15.36057,17.97556 -21.33282,17.49882 6.32711,-4.81648 17.35758,-12.26197 15.23773,-20.34975 -5.5721,0.80625 -8.89737,5.7711 -12.87834,9.63418 -0.70787,-2.21564 0.0273,-5.53544 2.15247,-8.54867 3.40673,-4.83033 9.89502,-8.90028 10.43095,-12.19432 l 1.27801,-8.35617 c 0.30717,-3.52322 1.70992,-6.921 3.98333,-9.45024 1.04786,-1.16578 3.08623,-1.15203 4.18499,-2.06164 1.15963,-0.95998 1.3622,-2.83652 1.76078,-3.82416 1.29917,-4.9052 2.59895,-8.10316 4.65301,-10.6274 1.38817,-1.70593 2.43269,-3.44398 4.5301,-5.12537 2.26672,-1.81713 4.93826,-3.13853 8.03805,-3.8316 1.47603,-0.33002 3.19205,-0.66961 4.70152,-0.56876 11.15959,0.72291 15.56323,5.68432 18.05753,9.78856 2.8892,4.75401 2.32743,9.99537 2.11246,14.04269 -2.75894,17.86957 -21.15523,33.78067 -34.50609,49.54721 5.00771,-2.50545 10.50307,-4.45428 15.84019,-5.81579 4.04241,-1.03124 8.3212,-1.55384 11.66917,-3.36758 7.92208,-3.70697 9.15312,-10.75947 12.19019,-16.90896 -0.10755,5.50952 -0.28419,10.63334 -3.72482,15.44213 -1.7355,2.42562 -4.40151,4.79434 -8.50899,6.84293 -8.78449,4.1416 -21.26295,2.448 -27.99101,11.83478 -0.79679,1.25344 -3.31222,5.05072 -4.25017,10.6835 -1.34387,8.07049 0.0821,16.35611 2.98903,14.57467 3.62045,-4.343 8.2374,-7.61155 13.96768,-9.65292 1.98516,-0.7072 4.12061,-1.18091 6.42279,-1.54227 12.89396,-3.17897 15.85259,-10.20808 21.84821,-16.88715 -1.99914,7.73095 -5.23505,16.72943 -14.71245,20.61093 -20.20276,4.97027 -27.90671,13.93979 -23.08551,32.99774 0.36409,3.50831 3.47164,-2.314 9.31258,-5.25981 2.36581,-1.19317 4.93584,-2.12679 7.25235,-3.4177 2.9427,-1.63986 5.3407,-3.94388 6.78466,-5.89592 1.787,5.59224 -4.64601,8.61441 -12.41575,13.32944 -3.67673,2.23121 -6.2193,6.47504 -8.20556,9.17821 -5.7324,7.80143 -8.13026,14.96727 -19.23414,15.11346 -7.20694,-0.72374 -14.23235,-3.21217 -22.73588,-15.34591 -4.11775,2.09755 -4.30128,8.56225 -4.52217,15.33603 -0.39521,7.37402 6.0016,16.97991 12.83084,21.85145 2.7963,1.99469 6.40307,3.20593 9.1087,4.61725 1.18291,1.40908 -2.53194,3.87569 -2.08133,5.678 2.92967,5.16733 1.37283,5.49792 -1.1797,6.48832 l -8.15955,3.5391 c -5.40871,2.01044 -4.72037,7.25379 -9.53588,7.37309 -4.21063,0.33948 -12.49754,1.64502 -12.28849,5.50525 0.39105,3.34349 3.77107,3.17161 3.63739,5.70186 -0.28438,4.11016 -1.75491,7.09822 -4.52216,6.68494 0.96464,-1.57293 0.7358,-3.14585 -0.68816,-4.52216 -1.00702,-0.94402 -2.59094,-0.35398 -3.83401,-0.58985 -1.29898,-0.29921 -0.56971,-5.45597 -3.83401,-5.40694 -1.75445,0.13142 -2.9756,1.2121 -3.27395,2.57105 -0.3067,1.39698 0.32272,3.08245 -0.56006,3.91728 -2.75779,0.82358 -4.63832,3.22794 -6.88156,6.88155 -0.4187,-1.96875 -0.30733,-4.64159 -0.95886,-6.59463 -0.44277,-1.32726 -1.81984,-1.89885 -1.69545,-3.33448 2.15574,-2.96398 4.96622,-2.80696 3.63739,-5.80016 -3.09853,-0.83472 -4.12259,2.15748 -6.1934,2.26109 -2.27091,-0.86265 -3.78646,0.35195 -5.01371,2.35938 -0.50673,-2.4643 -1.52572,-3.57675 1.57293,-7.4714 0.94926,-1.3805 1.79519,-3.17435 3.24416,-2.55601 1.6486,-0.3116 3.6012,0.18747 4.52217,-2.06446 -0.19882,-1.61516 -2.35786,-1.92349 -4.03062,-2.55602 0.60276,-2.68272 -0.74539,-3.54591 -5.21032,-5.89848 2.94923,-1.63899 5.50524,-2.54548 8.45448,0 2.03612,0.0954 4.31191,-0.52614 4.81709,0.58986 0.46493,0.6123 0.53447,2.53706 1.07786,3.64062 0.56919,1.15596 2.01328,1.96933 2.85445,1.96293 l 6.39002,-1.37631 c 2.33733,-0.81189 3.1009,-3.23089 4.71654,-5.4058 1.49859,-2.01735 5.83369,-3.75605 5.50749,-5.50639 -1.57889,-6.8607 -12.64896,-9.14263 -17.69543,-17.00727 -3.45424,2.78295 -7.28409,7.47769 -9.53587,5.21032 -1.67181,-0.85569 1.25114,-1.83388 2.46214,-3.74882 1.30983,-2.0712 2.06569,-4.61312 1.56848,-6.96675 l -2.06447,-8.6511 c -0.52015,-5.80087 2.44664,-7.10183 4.98178,-10.99259 1.63797,-2.51385 2.9564,-5.60684 2.88286,-7.58761 -0.76219,-0.58302 -5.23969,0.0456 -8.63098,0.24454 -5.29313,0.31055 -10.645,1.49315 -16.0162,6.46914 -2.91115,2.69695 -4.74143,7.52556 -4.64859,12.25975 -0.32456,6.14056 2.81241,9.71623 5.99678,14.35297 0.70531,1.72375 -2.90749,0.55885 -2.75262,4.22724 0.10073,4.66051 -1.50275,3.2253 -3.24416,3.34247 -2.49051,-0.13115 -6.33684,-1.38721 -7.17649,1.57293 -0.33419,2.27646 -2.85347,0.35034 -4.62047,0 l -3.93231,-1.76955 c -1.53504,-0.69233 -2.65429,-1.5244 -3.01152,-1.14987 -0.69052,0.72394 0.39003,3.53508 -0.72419,3.60757 -2.62608,0.49683 -5.8281,-1.40331 -8.5072,-3.4386 -2.26867,-1.7235 -4.05111,-3.73862 -5.94406,-2.45987 -1.17182,0.35522 -2.14094,2.94498 -0.49156,5.11201 3.99198,6.38391 -2.244,10.2532 -8.25786,11.2071 1.17978,-0.98304 3.59463,-1.92831 2.26109,-4.42385 -1.17517,-0.23391 -2.76786,0.34292 -2.26109,-1.57293 1.25379,-4.45236 -1.44101,-3.67914 -3.63739,-3.53909 -0.97169,-0.15336 -2.3726,0.0892 -3.08886,1.27362 -0.44973,0.74369 -0.21269,2.96372 -0.73015,3.70193 -0.70206,1.00154 -1.85625,0.96976 -2.4727,1.8077 l -1.47462,3.53909 c -0.81042,-3.17463 -3.2785,-6.81029 -3.24416,-8.94602 -0.069,-2.30535 1.51196,-1.37009 2.556,-2.85094 1.3368,-1.29117 1.66603,-3.50805 0.88478,-4.91539 -0.23215,-1.12201 -3.26772,-1.78692 -5.21033,0.0983 l -1.67123,1.47461 c -0.78647,0.64554 -1.86785,0.57569 -2.75262,-1.76954 -0.6129,-3.19625 -3.13532,0.1925 -4.62048,1.57293 -2.02437,-3.57232 1.84207,-4.41525 3.55319,-6.53364 0.57672,-0.71399 0.66281,-1.76063 0.87067,-2.31408 2.12535,-1.5556 4.6311,1.28193 6.29171,0.88477 1.73688,0.12172 2.05473,-0.89831 2.06446,-2.75262 -0.0394,-1.6218 -0.0825,-2.67609 -3.44077,-3.24416 l 0.98307,-3.53909 c 0.0602,-1.84214 -2.55189,-3.28338 -4.12893,-4.42386 3.65852,-2.32973 5.06065,0.51102 7.76633,1.27801 2.24794,0.0957 4.35448,0.30455 4.03062,2.4577 -1.98084,4.83178 3.21197,5.34083 4.52217,5.21032 4.34957,-0.15309 7.38508,-3.02608 10.71557,-3.6374 4.44214,-1.90377 15.56993,2.12458 16.1225,-3.6374 0.22062,-4.12493 -3.62614,-5.49724 -5.57885,-8.54079 -1.9158,-2.98601 -2.51363,-6.36524 -4.05532,-9.35125 -3.94428,0.10141 -8.0348,0.73988 -10.51895,-3.53909 3.30188,-0.97679 5.0674,-0.52756 8.21931,-1.76909 1.45885,-0.57463 4.40854,-1.73622 6.13365,-3.24461 l 6.29171,-7.17648 c 1.07201,-1.27408 8.28776,-0.83709 16.41297,-1.90188 2.13427,-0.2797 4.51433,-1.21216 6.64498,-1.65454 2.64325,-0.54881 5.62683,-1.36267 7.88368,-2.3763 2.68121,-1.20422 5.12877,-2.55165 7.00524,-3.60315 1.45435,-1.27551 -3.20947,-2.30318 -8.20727,-4.26589 -4.33436,-1.70216 -3.22576,-7.65699 -6.83385,-7.43277 -1.47451,-0.55713 -2.82477,-2.15947 -5.30862,-1.67123 -4.34713,2.09112 -8.85401,1.17884 -13.15494,1.41511 -0.88645,0.0487 -1.48176,1.27577 -2.37773,1.33751 -4.84986,-0.0983 -15.92641,-2.27149 -14.45127,0.19662 3.53786,3.40643 -5.97361,1.42482 -9.43756,1.08139 -5.26058,-0.49511 -12.94402,-2.39236 -15.04112,0.49153 -1.91921,1.75007 -0.42888,7.15183 -1.57293,9.8308 -1.08361,3.49009 -4.56591,5.70615 -7.56971,6.09509 1.70651,-1.55024 3.22907,-3.29288 2.85093,-5.60354 -0.24459,-0.88838 -1.69514,-0.4149 -2.03837,-1.48685 -0.61063,-1.90712 -0.27062,-5.30011 -1.59902,-5.68964 -2.31478,-0.77988 -4.72959,2.0439 -6.19341,3.63739 -1.24372,1.33789 -3.40672,-0.39246 -4.52216,0.58985 l -3.53908,3.83401 c -0.80263,-2.48753 -2.21781,-3.99679 0.88477,-6.97986 0.58182,-0.43437 0.82711,-2.41516 1.40073,-3.06773 0.80525,-0.91605 2.31179,-0.8294 3.32837,-1.23174 1.08362,-0.42888 1.6507,-1.34639 1.56261,-2.38547 0.0276,-2.21402 -4.94612,-1.67632 -8.65358,-1.77131 -1.0211,-0.0262 -1.09122,-1.08339 -2.35691,-0.29316 l -2.16278,2.85093 c -0.63809,-0.953 -1.38885,-2.3213 -0.97616,-3.50655 0.53102,-1.52512 2.46229,-2.91934 3.80489,-4.18501 1.2362,-1.16536 2.11517,-2.71581 4.15113,-2.72908 1.75973,-0.23585 3.14881,0.48143 4.528,1.16675 1.49823,0.74446 3.08309,2.82752 4.0248,1.9791 2.11508,-1.39528 0.87292,-3.52742 -2.75263,-6.48832 0.67327,-2.71748 -1.27351,-3.86292 -4.52216,-4.22724 1.03806,-1.39742 2.46138,-2.71249 4.71878,-2.16278 1.66457,0.23383 2.64008,0.79596 2.75262,2.06447 1.35898,0.16956 3.69048,-0.77725 4.03064,0.78648 0.99248,3.00684 0.86764,5.23827 5.112,6.68493 4.80433,2.06238 9.55086,-4.32681 15.01717,-6.85203 10.13666,-4.30711 26.6624,-10.53196 25.97725,-16.74188 -0.0906,-2.20763 -2.38257,-2.84748 -5.11144,-3.02905 -3.19288,-0.21244 -5.30251,5.3563 -6.5872,2.73412 -2.75677,-3.00895 -7.48723,-11.86703 -9.73249,-7.66801 -0.38451,2.67153 -1.66912,6.16386 -3.04755,-10e-6 -0.76723,-2.70826 -1.96747,-5.95878 -3.48869,-8.41535 -1.31204,-2.11877 -2.4948,-3.6721 -3.68779,-3.47991 -0.7537,-0.11215 -1.50739,0.67355 -2.26109,1.86786 -1.60555,0.28214 -2.09331,-5.8803 -3.6517,-9.29667 -4.02759,-8.82949 -7.89132,-18.2905 -10.30802,-18.13125 -3.23685,-0.32404 -4.2538,2.87042 -6.39002,3.44077 -3.21023,0.004 -6.51387,0.24991 -8.45449,-3.04755 1.59204,0.0955 3.27291,0.6353 4.62048,-0.49153 0.65704,-0.901 0.40485,-2.29447 1.44936,-2.96012 1.69526,-1.08036 3.39588,-2.73509 3.56435,-4.01976 0.93775,-4.74966 -11.28213,-0.72204 -13.27158,-5.11201 0.62102,-0.63067 2.37461,-1.21287 3.80354,-2.11284 1.11311,-0.70106 1.75863,-1.67227 3.27463,-2.50763 1.79155,-0.77882 5.10067,3.00581 7.36816,1.27306 1.29311,-1.53537 -0.50857,-4.09099 -1.10923,-6.94886 -0.1815,-0.86361 0.66274,-2.61406 0.67033,-3.39733 -0.0205,-1.31077 -1.28307,-2.57588 -0.0238,-3.14585 1.40498,-0.29626 3.46575,-0.0446 4.79323,1.70003 1.54822,2.11456 2.5945,5.39051 4.12894,7.4714 2.07438,2.43869 2.06632,-1.16479 3.63739,-2.75262 1.34354,-1.68167 1.80231,-0.82791 3.14585,-1.278 1.50191,0.19113 0.92271,-1.79714 0.88477,-3.14586 2.3172,-0.0233 3.42397,2.24513 3.93232,4.03063 0.11431,0.99784 0.17535,1.91475 -0.0173,3.02753 -0.27603,1.59462 -0.96938,3.18771 -1.89464,4.43671 -2.07384,2.79946 -5.41901,4.15945 -4.18318,6.49549 8.9931,10.21865 18.88481,21.4286 30.33239,23.68523 z"
     id="path3993"
     inkscape:connector-curvature="0"
     sodipodi:nodetypes="csccccsccscscsccsscscccccsccccccccscsscscscsccscssscccscscccccsccsscssscsccsccsccscsccccsscsscccscccccccccccsccscccccccccccsccscccsccscsscccccccscsccccccsscccccccccscccccccccccsccsccssscsccscccccccscccccsscsccsscscccccccccscccsccsccccsccsccsccccccccssccc" />
  <path
     style="fill:#ffffff;fill-opacity:1;stroke:#ffffff;stroke-width:1px;stroke-linecap:butt;stroke-linejoin:miter;stroke-opacity:0"
     d="m 416.27236,725.22413 c -1.14375,-0.0975 -0.22283,1.15615 0.49385,2.94543 0.81362,2.0313 1.53538,4.71273 1.76853,6.166 0.30319,1.88983 0.53586,3.91157 -0.54489,5.52378 -0.4539,1.26766 -2.12603,-1.44987 -4.35972,-3.38628 -3.34997,-2.90411 -7.21728,-5.65036 -6.37775,-3.3566 2.26715,2.43594 5.17539,4.98119 6.32205,8.90901 0.4358,1.4928 0.87271,2.93001 1.02261,4.21188 0.42039,3.59492 -0.0668,5.96807 1.24981,4.91907 1.01049,-1.13132 1.52941,-2.0091 2.26482,-3.29466 1.82437,-3.18912 3.35515,-6.77023 3.91351,-10.33362 0.55981,-3.06236 -0.30471,-5.29603 -1.19098,-7.19646 -1.13579,-2.43547 -2.62303,-4.19735 -4.56184,-5.10755 z"
     id="path3995"
     inkscape:connector-curvature="0"
     sodipodi:nodetypes="csscscsscscsc" />
  <path
     style="fill:#ffffff;fill-opacity:1;stroke:#ffffff;stroke-width:1px;stroke-linecap:butt;stroke-linejoin:miter;stroke-opacity:0"
     d="m 395.48761,684.34976 c 1.64923,0.30614 1.11674,2.39154 1.86275,4.46999 0.86539,2.41105 2.25404,5.11995 3.38554,7.22708 1.1411,2.12502 3.06428,3.92404 3.96765,5.76419 1.67134,3.40449 1.71792,6.86101 2.92025,6.86523 1.94864,-0.0312 3.71753,-7.27905 5.11005,-10.89173 1.59659,-4.14209 2.6167,-7.80627 4.21329,-8.46203 1.6647,-0.0631 3.87466,3.25795 6.46933,7.47475 2.41119,3.91861 4.30542,6.45416 4.30888,9.10398 -1.66834,2.57202 -5.4916,-6.98368 -9.26082,-8.44701 -1.74839,-0.27032 -1.56102,3.68114 -3.48854,7.41705 -2.31877,4.49426 -6.53745,8.18414 -8.83234,8.23208 -2.09062,0.0169 -1.59836,-2.79422 -3.66453,-6.32343 -0.93012,-1.58873 -1.53609,-3.58064 -2.53505,-5.18606 -0.8701,-1.39835 -2.15579,-2.43637 -2.71463,-3.51586 -2.12673,-4.10802 -2.8451,-8.1454 -4.48518,-8.36021 -0.91272,0.0315 -3.20267,1.88097 -5.23195,2.90985 -3.45234,1.7504 -7.45666,3.00472 -10.16791,2.41889 -3.18559,-0.8221 -8.05192,-1.57866 -9.45394,-2.28554 -1.11876,-0.87167 0.50289,-1.97969 1.80737,-3.68426 0.70309,-1.08905 -4.26627,-2.17811 -2.64154,-3.26716 0.83583,-0.80028 2.47334,-0.31548 3.8139,-0.56835 2.16354,-0.40809 4.0269,-1.08114 4.04121,0.22077 -0.0423,2.07513 -2.26867,2.27273 -2.06157,3.61475 0.73425,2.08357 4.63045,2.50793 7.18526,2.31083 2.46008,-0.17188 5.43288,-1.69557 8.16372,-3.25199 0.4038,-0.23015 1.34299,-0.65762 1.73377,-0.88493 2.66677,-1.55122 4.38369,-3.03549 5.55503,-2.90088 z"
     id="path3997"
     inkscape:connector-curvature="0"
     sodipodi:nodetypes="cssscscsccscssscsccccscccssc" />
  <path
     style="fill:#ffffff;fill-opacity:1;stroke:#ffffff;stroke-width:1px;stroke-linecap:butt;stroke-linejoin:miter;stroke-opacity:0"
     d="m 425.83158,639.65356 c -2.6199,1.20733 -6.7585,2.86649 -5.96834,5.18332 0.25136,1.50615 1.40916,1.72899 2.54234,1.77783 1.07498,0.0463 2.21626,-0.41287 2.79689,-1.28423 1.85362,-2.79451 2.39209,-6.50147 0.62911,-5.67692 z"
     id="path3999"
     inkscape:connector-curvature="0"
     sodipodi:nodetypes="ccscc" />
  <path
     style="fill:#ffffff;fill-opacity:1;stroke:#ffffff;stroke-width:1px;stroke-linecap:butt;stroke-linejoin:miter;stroke-opacity:0"
     d="m 351.13753,658.29879 c -2.66954,1.79303 -6.84385,3.41422 -7.372,6.37844 0.14184,2.94647 1.90821,5.23016 3.84669,7.50767 1.31341,1.54312 2.62608,3.13659 3.87288,4.72684 0.94637,2.08232 -0.0647,3.47602 0.41709,4.10134 1.20603,0.69744 2.06541,-0.27605 2.61274,-2.28554 0.57474,-1.32077 0.74122,-2.9196 -0.12711,-3.96231 -0.78526,-0.68609 -0.86511,-0.93705 -1.934,-2.10114 -1.90549,-2.0752 -4.15201,-4.78703 -5.01743,-6.5832 -1.48456,-2.06974 5.5817,-5.87112 8.011,-7.45139 0.63915,-0.40044 1.23708,-0.46398 1.23358,-1.43522 -0.005,-1.50415 -4.53678,0.54065 -5.54344,1.10451 z"
     id="path4001"
     inkscape:connector-curvature="0"
     sodipodi:nodetypes="ccsccccsccsc" />
  <path
     style="fill:#ffffff;fill-opacity:1;stroke:#ffffff;stroke-width:1px;stroke-linecap:butt;stroke-linejoin:miter;stroke-opacity:1"
     d="m 415.62637,612.56687 c -1.07117,0.43138 -1.23428,1.12612 0.44588,3.1232 0.64373,0.64757 1.66092,1.22306 2.72177,1.70328 1.01628,0.46006 2.08475,0.81248 2.3612,1.96061 0.13696,2.10753 0.8752,2.46674 1.72099,2.29397 1.09177,-0.35552 0.98564,-1.95845 0.8208,-5.03731 -0.4299,-2.03697 -2.43496,-1.27527 -4.82072,-1.69113 -1.57071,-0.2738 -1.33583,-2.28816 -3.24992,-2.35262 z"
     id="path4003"
     inkscape:connector-curvature="0"
     sodipodi:nodetypes="ccscccsc" />
  <path
     style="fill:#ffffff;fill-opacity:1;stroke:#ffffff;stroke-width:1px;stroke-linecap:butt;stroke-linejoin:miter;stroke-opacity:0"
     d="m 415.25496,617.5143 c -1.8927,-0.35007 -1.37832,1.57312 -1.30392,3.36897 -0.0309,1.88893 1.38623,2.10858 2.76667,2.15051 1.02785,0.0312 1.98621,-0.0356 2.36053,-0.44145 0.45623,-0.90109 -0.6332,-1.27608 -2.09905,-2.67871 -0.64519,-0.61735 -0.29042,-1.61454 -1.72423,-2.39932 z"
     id="path4005"
     inkscape:connector-curvature="0"
     sodipodi:nodetypes="ccscsc" />
  <path
     style="fill:#ffffff;fill-opacity:1;stroke:#ffffff;stroke-width:1px;stroke-linecap:butt;stroke-linejoin:miter;stroke-opacity:0"
     d="m 407.65259,620.25764 c -1.12525,-0.0347 -1.56679,-0.15302 -2.03627,1.48365 -0.61524,1.96742 0.98655,2.0152 1.74979,1.59041 1.42136,-1.19768 1.75996,-2.69068 0.28648,-3.07406 z"
     id="path4007"
     inkscape:connector-curvature="0"
     sodipodi:nodetypes="cccc" />
  <path
     style="fill:none;stroke:#000000;stroke-width:14;stroke-linecap:butt;stroke-linejoin:miter;stroke-miterlimit:4;stroke-opacity:1;stroke-dasharray:none"
     d="m 11.680573,8.6639524 782.531347,0 c 0,0 -12.81085,252.2892476 -16.57802,379.7884276 -2.21696,75.03513 -0.11353,148.5777 -20.81604,219.15514 -8.90671,30.36413 -19.8493,57.81146 -36.68244,86.96061 C 702.3146,728.68465 659.45686,784.62498 598.47077,824.76015 537.41715,864.93978 460.44283,882.86476 404.91632,883.2116 271.49283,881.73208 157.04842,812.44766 87.333152,697.72539 75.376409,673.33445 64.097578,650.61723 56.339553,628.32143 44.579633,594.52466 38.864333,561.69648 34.964233,525.47539 29.736633,475.70488 28.956103,422.36525 27.025943,369.06117 20.265563,182.36427 11.680573,8.6639524 11.680573,8.6639524 z"
     id="path4101-8"
     inkscape:connector-curvature="0"
     sodipodi:nodetypes="ccsscsccscsc" />
  <path
     style="fill:none;stroke:#000000;stroke-width:5;stroke-linecap:butt;stroke-linejoin:miter;stroke-miterlimit:4;stroke-opacity:1;stroke-dasharray:none"
     d="m 30.823693,492.22666 738.745137,0"
     id="path3855-92"
     inkscape:connector-curvature="0" />
</svg>
