<?xml version="1.0" encoding="UTF-8"?>
<svg height="581" viewBox="0 0 544 581" width="544" xmlns="http://www.w3.org/2000/svg">
<path d="m458.7 28.52c8.27 2.24 20.55 6.64 25.15 3.68 3.13-2.01 4.31-5.22 4.21-9.59-.59-3.75 1.71-2.31 3.18-.39 14.68 21.03 23.98 35.98 48.94 56.33 3.43 2.79 2.45 3.43-1.96 3.43-29.36 0-33.28 15.66-33.28 47.47 0 0-7.34 154.9-10.77 232.5-1.96 40.18-9.4 65.34-26.33 98.17-15.22 29.46-37.59 53.54-65.04 74.58-30.44 23-83.44 43.07-124.2 43.07-49.38 0-101.3-20.06-135.6-46-33.47-25.45-63.33-59.02-79.33-101.2-9.15-24.18-11.35-43.16-13.37-73.07l-15.78-234.4c-5.27-35.28-6.74-39.2-29.25-43.12-4.41-.79-4.61-1.37-.98-4.89 22.62-21.83 32.52-40.05 42.09-53.34 1.47-2.08 3.04-4.44 2.94-.03-.12 4.94 1.48 10 5.83 11.01 3.57.84 8.91-1.31 13.75-2.69 130.2-37.19 271.1-33.77 389.8-1.61v.03z"/>
<path d="m513.3 66.83l-445.5 357.5c-8.32-23.11-12.61-47.65-12.61-72.19l-5.42-224.5c-.13-21.14-1.16-51-25.28-60.44l-1.11-.64c184.5-90.64 397.7-46.73 489.9.25z" fill="#16b"/>
<path d="m228.4 126c-.36-1.39-1.92-3.25-1.12-4.48-4.66.41-4.97 4.55-5.47 7.97m4.6 2.34c.29-2.35.88-4.43 1.99-5.84 1.04-1.32.93-3.05 3.06-2.9-1.26 3.37 1.26 9.54 4 12.58m0-48.22c-3.72 1.56-7.77 11.08-7.61 15.81-2.47-1.24-3.68-2.78-4.62-5.19-.84-2.15-.92-4.7-.92-7.55m.92 7.55c-.84 1.64-2.15 2.77-2.05 4.95-4.96-2.84-5.59-8.84-5.16-13.14" fill="none" stroke="#000" stroke-linejoin="round" stroke-miterlimit="10" stroke-width="2"/>
<path d="m376.8 176.4l-17.51 14.06c-6.49-9.25-10.8-22.04-12.49-31.5h22.11c1.25 6.15 3.65 11.7 7.89 17.44z" fill="#fff"/>
<path d="m460.4 96.94c-3.25 5.7-5.85 6.45-11.1 6.45-4.84 0-9.04-.84-13.31-2.17 2.87 1.08 3.15 5.67 11.87 5.64-1.29 2.94-4.28 5.28-7.18 5.28-3.5 0-5.93-1.61-8.61-3.12 4.27 2.71-2.71 6.23-8.77 3.47 2.62 1.51 3.31 3.64 3.31 5.87 0 1.85-2.31 3.25-4.43.85 1.13 1.45 1.56 3.09 1.56 5.12 0 5.86-6.63 10.61-14.46 7.86 3.25-.25 4.78-3.2 4.78-5.64s-.82-6.03-7.07-5.19c-8.91 1.21-14.62-3.05-15.49-8.8-12.43 3.77-23.76 19.25-23.76 32.71 0 5.01.31 9.48 1.16 13.67h-22.11c-.54-2.99-.81-5.64-.81-7.75 0-19.11 9.3-38.12 33.12-54.47-.46-.4-.84-.93-1.15-1.56h74.54c2.07 1.48 4.18 2.47 7.91 1.78z" fill="#d12"/>
<path d="m377.2 176.1c-7.14-9.65-9.16-17.76-9.16-30.14 0-13.46 11.01-29.05 23.44-32.82" fill="none" stroke="#000" stroke-linejoin="round" stroke-miterlimit="10" stroke-width="4.8"/>
<g fill="#fff">
<path d="m477.5 73.58c0 5.97-7.09 11.65-13.44 11.65-1.5 0-2.92-.12-4.27-.29 6.68 1.37-4.01 11.77-12.5 6.63 2.13 1.14 3.65 2.5 5.18 3.59h-74.55c-.84-1.68-1.2-4.13-1.2-6.94 0-8.14 3.99-14.91 8.33-21.03 3.08-4.36 7.31-4.67 5.39-1.31.89-1.37 1.88-2.44 2.87-3.32 3.47-3.08 7.03-3.98 7.03-8.42 0-3.68-3.61-4.99-6.15-5 4.5-3.19 11.68-3.09 13.49 5.59 3.01-5.24 8.51 1.66 6.36 6.37 6.55-6.47 14.98-2.47 17.4-10.29 3.43.9 5.32 4.25 2.9 7.3 1.75-2.15 4.69 2.87-.59 5.97 4.43-1.59 8.08-1.3 12.06-.26 4.53 1.18 6.57 4.9 3.28 4.78 2.59.22 5.02.74 7.36 1.5 6.14 2 9.99 5.69 6.06 6.27 6.54-.62 11.42-4.07 10.21-10.41 3.34 1.03 4.78 3.4 4.78 7.62z"/>
<path d="m218.7 289.9c0 3.13-2.67 6.35-6.73 8.41 2.9-5.96-.18-8.9-4.1-10.76-1.01-.48-2.05-.8-3.13-1.07h13.3c.41 1.03.66 2.16.66 3.42z"/>
<path d="m192.8 290.3c1.89 1.58 3.19 3.39 3.19 6.81 0 5.13-2.71 8.94-8.72 9.53 2.09-14.07-8.39-12.19-13.98-15.02 6.29 3.74-3.52 9.55-8.69 5.26 4.7 3.91 6.52 9.29-.46 13.98-4.71-11.75-15.96-12.09-22.99-5.53 3.46-.17 6.92 1.35 9.56 3.99 3.98 3.98 4.75 10.25 2.34 15.02-1.07-1.81-2.6-3.59-4.63-5.38-1.97-1.73-4.77-2.09-6.45-.08-1.89 2.24-1.86 5.55 1.83 7.9 1.59 1.01 2.84 1.97 3.84 3.04-4.78 2.46-10.9 1.48-14.91-2.53-2.54-2.53-3.78-5.74-2.45-9.58-4.48 2.78-7.85 7.03-10.06 12.07 1.34 3.14 1.72 6.82.83 10.13-1.57 5.87-6.48 8.57-12.14 8.08.29-2.96.89-5.49 1.56-7.42.92-2.64-.16-6-4.17-6.56-3.08-.43-4.55 1.54-5.31 4.23-.52 1.79-.69 3.88-.49 6.12-2.94-2.94-4.11-7.35-3.28-12.04 1.1-6.23 8.68-11.41 10.89-17.49-2.05 5.18-15.58 6.88-14.38 1.09-.91 3.77-3.84 7.58-7.15 9.59-6.13 3.73-11.71 3.25-13.74-1.84 1.69-1.38 3.37-2.31 4.95-3.25 2.3-1.37 2.59-5.65 1.05-8.23-1.49-2.48-3.59-3.36-6.87-.37l-.01.01c.43-4.05 1.72-7.38 5.47-9.37 6.27-3.33 9.89-1.03 17.26-2.37 3.45-.62 5.59-1.23 8.4-2.7-4.49 1.83-10.57-5.62-6.48-7-4.57 1.61-10.11 1.71-12.74-1.19-.8-.89-1.31-1.78-1.57-2.67h115.1c.68 3.19-1.17 6.34-4.64 3.77z"/>
<path d="m128.3 222.7l-7.27.02c-1.05-6.51.59-10.89 7.63-12.29-2.78 4.11-2.8 9.09-.36 12.27z"/>
</g>
<path d="m319 222.7l-70.14 56.29c-8.42-2-17.97-6.67-23.72-13.34.8 3.28-5.67 5.87-10.61 3.66 6.65 4.05 7.41 19.15.47 12.96 1.27 1.26 2.33 2.62 2.97 4.21h-13.29c-3.08-.77-6.35-1.09-9.29-3.43 1.09.93 1.74 2.19 2 3.43h-115.1c-.62-2.1.13-4.2 1.54-6.2 1.79.53 5.25-.29 7.59-2.18 2.37-1.91 4.61-4.39 2.2-6.06 4.89-1.83 10.94-.82 14.69 2.27 2.93 2.41 4.25 4.21 2.97 7.53-.89 2.33 1.75 6.19 5.22 3.04 4.53-4.11 33.23-33.78 51.76-53.41-2.64 2.83-5.63 1.32-5.42-3.98 0 10.63-23.72 8.67-16.64 4.04-2.76 1.48-5.7 2.4-8.61 2.4-8.62 0-15.5-5.04-16.5-11.21l7.27-.02c1.49 1.93 3.89 3.2 7.14 3.2 4.3 0 7.92-1.18 10.96-3.2h172.6z" fill="#d12"/>
<path d="m136 91.68c-1.38.79-2.65 2.02-3.53 3.49h-38.37c-3.58-3.79-6.48-8.6-4.28-9.19-.85.18-1.72.31-2.56.31-8.82 0-15.68-4.53-15.68-10.12 0-2.57 1.75-6.13 4.4-7.75 1.2.9 2.25 1.81 3.08 2.59 2.32 2.2 6.21 3.27 8.49 1.63 2.01-1.46 2.51-4.64.64-6.73 6.36-.44 11.72 1.33 14.46 7.73 2.04 4.76 5.59 11.16 12.05 17.32-2.37-2.45 1.63-9.77 3.29-8.31-3.5-4.93-4.39-9.64-1.78-12.39 1.73-1.84 4.84-2.35 8.28-1.57.21 2.86 1.49 4.08 3.37 5.31 1.84 1.2 4.49 1.62 5.32.63.2-.23.35-.55.44-.95 6.09 5.76 7.78 14.89 2.38 18z" fill="#fff"/>
<path d="m233.8 134.7c-3.43-1.14-6.46-2.48-9.05-3.84-1.01-.54-1.97-1.08-2.85-1.62-.62-.37-1.2-.62-1.74-.73.49-3.42 2.46-6.57 7.12-6.99-.8 1.24-.89 2.11-.54 3.5 1.04-1.32 2.53-2.06 4.66-1.9-1.25 3.36-.34 8.54 2.4 11.58z" fill="#fff"/>
<path d="m95.14 141.5c-5-5.51-4.68-13.45.22-17.09 2.78-2.06 5.75-3.38 9.38-2.71-5.88-3.13-7.46-3.92-13.92-3.92-5.58 0-7.6 2.55-10.66 3.89-1.1.49-2.31.81-3.86.81-7.22 0-9.48-2.38-10.16-6.84 2.16-1.13 4.19-1.92 6-2.39 3.19-.82 4.43-4.46 3.37-7.1-.9-2.24-3.07-3.17-5.94-2.13-.91.33-1.91.8-2.96 1.4 1.62-5.45 5.81-9.75 11.67-9.75 5.27 0 7.85 2.94 16.27 3.62 1.97.17 4.04.35 6.15.57-1.71-.16-4.33-2.19-6.65-4.65h38.38c-1.52 2.53-1.87 5.77.39 8.74 10.17 13.38 47.74 41.5 55.21 48 1.87-.79 3.69-1.2 5.28-.94-3.93-.68-5.28-3.05-5.28-5.56 0-3.61 1.6-5.81 5.35-6.94-.19 3.94 2.96 6.65 7.15 6.65 6.62 0 13.53-9.17 16.85-7.38-2.6-1.88-2.57-5.03-1.17-7.08 1.21-1.78 2.47-2.47 3.95-2.17.55.11 1.13.36 1.75.73.88.53 1.83 1.08 2.85 1.61 2.58 1.37 5.61 2.71 9.05 3.84 4.24 1.4 9.1 2.48 14.55 2.89 3.22-3.55 4.14-6.13 4.14-9.4 0-2.04-.18-3.9-.46-5.56-7.8-4.03-16.26-4.78-22.31-4.78-11.04 0-22.96 3.34-35.75 3.34-16.08 0-24.75-9.17-24.75-18.68 0-8 8.54-16.03 15.05-12.54-3.8 3.13-3.77 8.17-3.77 10.33 0 .14 0 .27.01.41.49 8.5 16.1 10.06 27.71 10.06 9.83 0 10.9-1 19.5-1 6.84 0 14.85 1.32 22.52 5-.56-2.65-1-5.64-1-9.52 0-5.73 3.63-9.69 3.63-14.94 0-3.1-1-6.16-2.53-8.75-.69-.02-1.39-.03-2.12-.03-4.61 0-7.84 1.56-11.19 3.3-2.15 1.12-3.45-1.11-1.9-3.54 1.81-2.71 6.38-4.06 13.42-4.41 1.25-.06 2.58-.09 3.99-.09.38 0 .76.01 1.14.03 3.24.17 6.69 1.03 9.76 2.45.35.18.7.35 1.05.51 2.23 1.17 4.21 2.63 5.69 4.33.88 1.01 1.57 2.1 2.04 3.27.43 1.06.66 2.19.66 3.37 0 .23 0 .46-.01.69-.05 1.35-.24 2.59-.51 3.76h53.68c.41 1.34.64 2.64.64 3.81 0 3.87-2.14 5.03-4.83 1.72 2.39 3.33 3.17 6.42 3.17 9.18 0 4.66-3.23 5.14-4.73 1.82 1.13 2.53 2.45 4.71 8.05 4.71 1.84 0 3.17-.59 4.68-2.42 2.03 8.58-2.51 11.13-7.35 11.13-1.65 0-3.55-.52-5.35-1.59 4.88 3.16 5.67 6.3 5.73 9.44.09 4.2-3.56 7.47-5.45 3.35 1.46 3.25 1.69 6.18 1.37 10.17-.53 6.56 3.21 12.71 9.54 6.71.08 2.21-.21 4.14-.78 5.75h-214.4c8.46-8.54 8.97-20.61-.21-25.95 1.1 3.87-.61 7.7-3.27 10.2-3.86 3.61-8.8 4.37-12.31 2.61z" fill="#d12"/>
<g fill="#fff">
<path d="m327.7 90.84c-2.59 0-3.89-1.16-4.99-2.75 1.36 2.13 2.61 4.67 3.33 7.08h-53.69c.23-1 .4-2.05.48-3.18.03-.41.04-.84.04-1.28 0-1.04-.18-2.05-.52-3.01-.47-1.3-1.21-2.51-2.18-3.62-1.47-1.71-3.45-3.17-5.69-4.33-.35-.16-.7-.33-1.05-.51-3.43-1.59-7.35-2.49-10.9-2.49-1.41 0-2.74.03-3.99.09-7.04.35-11.61 1.71-13.42 4.42-2.2 3.71-5.66 7.16-9.27 7.84 3.14-.55 5.66-1.55 7.94-2.65-3.72 1.56-6.9 11.68-6.74 16.41-2.47-1.24-4.55-3.38-5.5-5.78-.84 1.64-1.28 3.37-1.17 5.54-4.96-2.84-6.46-9.43-6.04-13.74-3.32-1.16-5.21-4.31-5.21-12.89 0-2.91.41-5.48 1.1-7.51.61-1.83 1.45-3.23 2.41-4.06-1.05-1.2-2.52-2.07-3.51-3.95-.55-1.05-.96-2.41-1.05-4.32-.31-6.21 18.54-14.17 29.9-13.87-1.53-.15-1.9-1.37-1.9-3.19 0-4.34 6.47-9.44 19.3-9.44 22.96 0 38.79 7.84 49.79 1.38 2.15 2.67 3.31 5.85-.37 7.18 8.29-3.28 14.37 12.44 18.87 12.44 3.63 0 4.88-2.45 4.08-6 6.31 4.77 4.11 16.49-4.48 12.96 4.6 2.12 1.05 10.6-2.61 7.07 1.35 1.42 2.99 2.29 4.23 3.97 2.44 3.29.31 5.88-3.66 3.92 5.09 2.41 4.38 8.67 7.88 8.67 2.15 0 3.5-1.09 4.44-2.84 3.87 5.35.53 12.44-5.85 12.44z"/>
<path d="m330.8 159c-1.31 3.72-4.09 5.77-7.34 5.77-1.86 0-3.91-1.28-5.53-3.14 2.79 3.58-2.64 7.81-6.34 3.45.87 1.18 1.69 2.45 2.35 3.99 2.83 6.69-1.61 13.13-5.08 7.47 1.1 1.75 1.89 3.52 1.89 5.48 0 6.14-2.56 5.65-2.56 9.69 0 3.06.69 6.88 4.85 6.46-3.84 4-11.02 2.67-12.46-2.69 1.41 6.15-3.46 6.7-5.58 3.23.7 1.28 1.68 2.56 3.06 3.81-.38.21-.76.38-1.15.51 5.67 4.24 15.09 11.44 23.34 18.8l-1.19.95h-172.6c.4-.26.79-.54 1.16-.84-4.55 3.28-4.95-2.56-2.03-9.74 1.26-3.08 3.31-8.09 6.41-13.27-3.23 5.21-6.07 2.4-6.28-2.85-.09-2.23.52-4.83 1.45-7.46-1.12 2.93-3.61 6.21-6.36 6.83-3.81.86-7.44-.68-4.43-3.36-5.83 4.75-12.98 3.64-18.91-1.21 4.75-1.05 12.66-3.97 13.64-11.93.35-2.78.54-5.1 1.12-7.04-.89 3.09-3.82 1.93-4.98-1-1.16-2.9-.56-7.56.65-8.72-5.64 4.83-12.19 2.71-14.72-.4 1.18-.87 2.26-1.81 3.23-2.79z"/>
<path d="m45.81 32.05c5.33 9.81 14.04 5.36 27.45 1.77 141.3-37.88 291.6-28.34 394.4 1.06 13.7 3.91 16.2 5.33 23.59-2.44l23 33.89c-92.01-47.47-308-91.81-492.3-.15z"/>
</g>
<path d="m495 81.49c-8.58 14.05-6.49 33.09-7.18 47.98l-6.36 222.7c0 27.9-5.53 55.79-16.25 81.59-10.67 25.74-26.42 49.38-46.2 69.15-19.72 19.57-43.36 35.72-69.1 46-25.79 10.77-53.69 16.15-81.58 16.15-27.9 0-55.8-5.38-81.59-16.15-25.74-10.28-49.38-26.43-69.1-46-19.77-19.77-35.53-43.41-46.2-69.15-1.29-3.11-2.5-6.24-3.64-9.4z" fill="#fd1"/>
<g stroke-miterlimit="10">
<path d="m379.7 424.6l3.6 6.72 35.46 66.27-72.99-39.06-24 77.76-21.71-70.35-2.28-7.41-72.99 39.06 35.45-66.27 3.6-6.72-77.76-24 77.76-23.99-39.05-72.99 72.99 39.05 2.28-7.41 21.71-70.35 24 77.76 6.72-3.6 66.27-35.45-39.06 72.99 7.41 2.28 70.35 21.71z" stroke="#000" stroke-linecap="round" stroke-linejoin="round" stroke-width="1.6"/>
<g fill="none">
<path d="m377.8 423.9l-112.3-46.5m32.88 79.38l46.5-112.3m0 112.3l-46.5-112.3m-32.88 79.38l112.3-46.5m37.85 117.2l-188-188m0 188l188-188m-93.98 225.5v-263m-131.5 131.5h263m-125 114.6v0" stroke="#fff" stroke-linecap="round" stroke-width="1.2"/>
<path d="m495 81.49l18.27-14.66c-92.15-46.98-305.4-90.88-489.9-.24l1.11.64c24.11 9.45 25.15 39.3 25.28 60.44l5.42 224.5c0 24.54 4.29 49.08 12.61 72.18 1.14 3.16 2.35 6.3 3.64 9.4 10.67 25.74 26.43 49.38 46.2 69.15 19.72 19.58 43.36 35.72 69.1 46 25.79 10.77 53.69 16.15 81.58 16.15 27.9 0 55.79-5.39 81.58-16.15 25.74-10.28 49.38-26.43 69.1-46 19.77-19.77 35.53-43.41 46.2-69.15 10.72-25.79 16.25-53.69 16.25-81.58l6.36-222.7c.69-14.88-1.41-33.93 7.18-47.98z" stroke="#000" stroke-width="2"/>
</g>
</g>
<circle cx="217.5" cy="74.3" r=".8"/>
<circle cx="217.8" cy="79.4" r=".8"/>
<circle cx="219.6" cy="83.7" r=".8"/>
<circle cx="222.8" cy="80.5" r=".8"/>
<circle cx="224.1" cy="85.1" r=".8"/>
<circle cx="228.2" cy="83.2" r=".8"/>
<circle cx="227.2" cy="78.4" r=".8"/>
<circle cx="231.2" cy="79.8" r=".8"/>
<circle cx="233.2" cy="75.6" r=".8"/>
<circle cx="229.3" cy="73.2" r=".8"/>
<circle cx="233.8" cy="71.4" r=".8"/>
<circle cx="230.5" cy="67.9" r=".8"/>
<g fill="none" stroke-linejoin="round" stroke-miterlimit="10">
<g stroke="#000">
<g stroke-linecap="round">
<path d="m250.7 53.93c2.71.85 2.41 4.81 8.08 6.54 4.49 1.37 10.23-3.98 7.01-8.09" stroke-width="1.9"/>
<path d="m89.78 85.98c-3.62.97 6.58 13.42 10.93 13.83" stroke-width="2"/>
<path d="m114.7 90.95c-2.21-2.35 2.5-8.56 3.89-7.28" stroke-width="2.5"/>
<path d="m94.06 95.16h38.37" stroke-width="1.3"/>
</g>
<path d="m320.2 221.8c-8.34-7.44-16.85-15.24-22.19-19.3" stroke-width="5"/>
<g stroke-linecap="round">
<path d="m146.4 222.7h172.6" stroke-width="1.3"/>
<path d="m128.3 222.7h-7.27" stroke-width="1.3"/>
<path d="m193.4 151c-1.6-.28-3.45.13-5.34.93-5.22 2.2-10.83 7.4-12.81 9.53-2.53 2.72-1.61 5.28 2.09 2.43" stroke-width="2"/>
<g stroke-width="1.3">
<path d="m330.8 158.9h-214.4"/>
<path d="m377.9 95.16h74.55"/>
<path d="m346.8 158.9h22.11"/>
</g>
</g>
</g>
<path d="m209.5 291.8" stroke="#21ff00" stroke-linecap="round" stroke-width="2"/>
<g stroke="#000">
<path d="m226.2 265.4c2.93 6.13 14.27 11.67 22.69 13.67" stroke-width="3"/>
<path d="m96.56 290.4c-4.09 1.37 1.99 8.82 6.48 7" stroke-linecap="round" stroke-width="2"/>
<path d="m82.17 286.5h135.8" stroke-linecap="round" stroke-width="1.3"/>
<path d="m252 122.6c.28 1.66.46 3.52.46 5.56 0 3.27-.92 5.85-4.14 9.4" stroke-width="2"/>
<g stroke-linecap="round">
<path d="m228.3 88.22c3.61-.68 5.48-3.37 6.83-6.96 1.5-2.53 3.04-4.76 3.04-6.73 0-5.46-2.04-10.63-8.72-10.26" stroke-width="1.5"/>
<g stroke-width="1.7">
<path d="m276.4 145c2.31 2.72 1.69 5.8-.38 10.01"/>
<path d="m279.7 136.2c4.33 7.19-.27 14.81-2.29 10.45"/>
</g>
</g>
<path d="m226.8 125c-.36-1.39-.26-2.26.54-3.5-4.66.41-6.63 3.56-7.12 6.99m4.6 2.34c.29-2.35.88-4.43 1.99-5.84 1.04-1.32 2.53-2.05 4.66-1.9-1.26 3.37-.34 8.54 2.4 11.58m0-48.22c-3.72 1.56-6.9 11.68-6.74 16.41-2.47-1.24-4.55-3.38-5.49-5.79-.84-2.15-.92-4.7-.92-7.55m.92 7.55c-.84 1.64-1.28 3.37-1.18 5.55-4.96-2.84-6.46-9.44-6.03-13.74" fill="none" stroke="#000" stroke-linejoin="round" stroke-miterlimit="10" stroke-width="2"/>
<path d="m326.1 95.16h-53.7" stroke-linecap="round" stroke-width="1.3"/>
</g>
</g>
<path d="m114.3 328.5c-.46.03-.88.61-.46 1.03 1.07 1.33 1.72 2.95 2.02 4.61.43 2.47.16 5.14-1.15 7.31-.6.48.1 1.51.74 1.05 1.71-1.83 2.33-4.44 2.22-6.89-.13-2.55-1.03-5.17-2.94-6.93-.13-.14-.29-.2-.44-.19zm3.48-11.22c-.09.01-.17.05-.24.1-.35.22-.38.77-.04 1.02.93.67 1.86 1.34 2.69 2.13.36.27.61.78 1.1.8.44-.01.76-.54.55-.93-.72-1.53-2.16-2.69-3.79-3.1h0c-.09-.02-.18-.03-.26-.01zm14.16-.99c-.16 0-1.88.18-2.08.25-4.26 2.6-7.52 6.6-9.72 11.06-.74-1.15-1.64-2.19-2.74-3.05-.54-.44-1.32.24-.98.83 1.1 1.31 2.04 2.76 2.7 4.35 1.65 3.85 1.84 8.54-.27 12.26-1.58 2.89-4.87 4.53-8.1 4.57-.93.13-1.98-.36-2.82.23-1 .68-.65 2.42.54 2.65 3.34.36 7.45.7 10.12-1.43 3.36-2.63 4.82-7.06 4.6-11.21-.11-2.01-.63-4.05-1.42-5.92 1.69-3.5 4.42-7.12 7.43-9.58-.14 3.1.68 5.35 2.91 7.47 5.04 4.78 11.92 4.94 16.71 2.17l-1.67-2.27c-4.41 2.12-9.98.96-13.42-2.48-.86-.86-2.33-3.12-2.02-6.36.1-1.06.2-3.54.2-3.54zm-10.43-3.32c-.53-.06-.86.66-.51 1.04.8.61 1.64 1.18 2.39 1.85.43.35.77.81 1.24 1.11.48.22 1.04-.34.82-.82-.7-1.56-2.16-2.75-3.81-3.17v0l-.06-.01zm-31.9-1.5c-.24 0-.47.13-.55.46-.52 2.23-1.27 4.45-2.61 6.33-1.45 2.12-3.61 3.65-5.91 4.73-.63.29-.32 1.29.36 1.17 2.35-.74 4.53-2.09 6.14-3.98 1.87-2.19 2.91-5 3.21-7.84.2-.49-.24-.86-.64-.86zm9.61-2.88c-.22.03-.42.16-.5.37-.12.49-.1 1-.16 1.49-.07.92-.42 1.77-.71 2.63-.03.08-.04.17-.03.26.02.44.57.71.94.48.37-.28.61-.7.84-1.1.48-.87.64-1.88.5-2.86-.07-.35-.1-.74-.3-1.05-.13-.19-.36-.26-.58-.23zm5.55-.9c-.21.05-.4.19-.47.4-.1.48-.09.98-.15 1.46-.07.92-.42 1.77-.71 2.63v0c-.02.07-.03.14-.03.21-.02.46.56.77.94.53.38-.29.63-.73.86-1.14.47-.87.62-1.9.47-2.87-.08-.35-.1-.75-.33-1.04-.15-.17-.38-.22-.58-.18zm10.38-10.92l-.01 0c-.2.01-.41.19-.62.6-1.44 5.63-4.63 10.54-6.83 15.86-.16.48-.34.93-.53 1.39-1.62 1.42-4.46 3.1-6.38 3.47-1.65.26-3.43.44-5.02-.22-.75-.23-1.18-1.06-1.01-1.81l-.01 0c.19-1.05.22-2.11-.07-3.17-.09-.3-.35-.46-.62-.46-.27-.01-.54.13-.64.42-.23 1.36-.51 2.72-1.02 4.01-1.12 2.71-2.98 5.14-5.34 6.86-2.47 1.81-5.48 3.2-8.62 3.02-1.99-.12-3.94-1.03-4.55-3.28-.25-1.11-2.98 1.52-2.94 2.73 0 0 2.52.79 4.03 1.77 7.05 4.35 15.4-.28 18.62-7.73 5.11 1.45 8.22.56 10.6-.51-1.84 2.36-4.12 4.54-5.75 7.03-3.9 5.42-3.54 13.63 1.17 18.45l1.99-1.51c-2.77-2.7-3.8-6.77-3.27-10.54.09-.78.25-1.48.57-2.34 2.31-5.71 7.75-9.52 10.04-15.24 1.9-5.72 5.21-10.86 6.59-16.76.63-.69.22-2.1-.38-2.06zm33.98-2.36l-5.08.87c-.31.06-.54.35-.51.67.03.34.34.59.68.56l5.14-.46c.02 0 .04-.01.07-.01.45-.08.75-.5.68-.95-.08-.45-.5-.75-.95-.67zm-39.06-2.12c-.08.01-.17.03-.25.08 0 0-.63.35-1.73.97-1.09.62-2.64 1.54-4.51 2.54-.94.49-1.95 1-3.05 1.43-1.1.44-2.29.79-3.57 1.07-1.27.28-2.65.51-3.99.67-1.35.16-2.74.18-4.15.18-1.41-.01-2.86-.08-4.36-.02-1.49.05-3.01.27-4.41.7-.7.2-1.39.48-2.05.76-.29.14-.58.28-.87.42l-.21.1c-.15.07-.17.1-.26.15l-.45.26c-1.18.72-2.17 1.66-2.91 2.63-.75.98-1.2 2.01-1.52 2.92-.32.91-.48 1.72-.59 2.38-.11.65-.16 1.21-.18 1.54-.02.34-.04.52-.04.52-.03.5.32.97.83 1.05.55.1 1.06-.27 1.16-.81 0 0 .03-.18.09-.51.06-.35.13-.77.28-1.35.29-1.14.75-2.78 1.91-4.25.58-.73 1.32-1.43 2.27-1.98l.36-.2.15-.08.21-.11c.28-.14.57-.28.87-.43.54-.22 1.07-.45 1.68-.63 1.18-.37 2.45-.57 3.8-.63 1.34-.07 2.78-.01 4.25-.01 1.47 0 2.98-.08 4.44-.29 1.47-.22 2.85-.5 4.21-.83 1.35-.33 2.67-.76 3.86-1.28 1.19-.52 2.26-1.08 3.21-1.65 1.9-1.13 3.37-2.18 4.41-2.92 1.02-.75 1.59-1.2 1.59-1.2l.01 0c.25-.2.33-.55.17-.83-.13-.24-.39-.36-.64-.33zm-5.95-1.39c-.26-.04-.55.05-.73.26-.87.88-2.09 1.26-3.24 1.62-.57.16-.56 1.06.02 1.19 1.26.2 2.61-.2 3.55-1.06.4-.41.87-.88.91-1.48-.02-.31-.24-.49-.5-.53zm53.34-2.53c-2.82.09-5.64.32-8.42.81-.19.03-.37.16-.45.33-.23.41.16.97.62.89 2.67-.34 5.37-.43 8.06-.39.4.06.82-.16.94-.56.19-.5-.23-1.09-.76-1.09zm-58.73-5.37c-.08 0-.17.01-.27.06-3.18 1.92-6.72 3.34-10.42 3.82h0c-.68.05-.71 1.19 0 1.21 1.1.1 2.21-.06 3.29-.27 2.73-.59 5.37-1.74 7.53-3.53.68-.23.46-1.27-.12-1.3zm65.68-.48c-2.87.03-5.74.21-8.58.64-.39.1-.86.03-1.16.33-.36.38-.03 1.08.49 1.02 3.97-.54 7.99-.54 11.98-.34v0c.26.02.52-.1.68-.29.43-.47.09-1.31-.54-1.35-.96-.02-1.91-.02-2.87-.01zm-80.73-3.26c-.19.03-.37.11-.51.27-1.4 1.81-2.41 4.11-2.07 6.44.4 2.29 1.94 4.36 4 5.42 2.62 1.33 5.7 1.29 8.53.78 1.92-.4 3.93-.87 5.46-2.19.41-.37.18-1.12-.37-1.19-.97-.01-1.87.4-2.77.69-2.85.89-6 1.3-8.9.38-1.47-.45-2.69-1.53-3.38-2.9-.85-1.59-.52-3.54.35-5.04.24-.58.8-1.03.85-1.67.03-.63-.61-1.07-1.18-.98zm90.55-2.24c-3.89-.06-7.79.08-11.65.6-.83-.15-1.14 1.18-.23 1.27 5.18-.57 10.41-.47 15.6-.11l0 0c.23.02.46-.06.62-.22.51-.43.22-1.36-.45-1.42-1.3-.06-2.59-.1-3.89-.12zm7.61-6.89c-3.81.04-7.63.21-11.39.78-.94.43-.03 1.59.76 1.14 6.13-.66 12.31-.53 18.44-.07h0c.98.09 1.24-1.37.28-1.62-2.69-.2-5.39-.24-8.09-.23zm72.86-2.05c-.24.02-.48.14-.61.36-.86 1.46-1.98 2.77-3.27 3.86-.23.19-.54.39-.51.73-.01.44.53.76.91.53 1.65-1.12 3.1-2.54 4.23-4.17.23-.31.19-.78-.08-1.06-.17-.19-.42-.26-.66-.24zm-4.39-2.29c-.25.02-.49.14-.63.36-.95 1.66-2.24 3.12-3.75 4.3-.25.2-.59.38-.58.74-.02.44.51.77.9.56 1.9-1.2 3.55-2.8 4.8-4.68l0 0c.22-.3.19-.75-.07-1.02-.17-.2-.42-.29-.67-.27zm-62.8-1.72c-2.63-.02-5.25.08-7.87.36-.86-.22-1.33 1.13-.36 1.27 7.06-.65 14.15.01 21.17.77 1.09.12 1.25-1.55.16-1.64-4.35-.39-8.73-.74-13.1-.76zm58.03-.4c-.25.01-.49.13-.64.35-.99 1.66-2.33 3.11-3.89 4.26-.25.19-.61.37-.6.73-.03.44.49.78.88.58 1.95-1.17 3.66-2.75 4.95-4.62l0 0c.22-.3.2-.74-.05-1.02-.16-.2-.42-.3-.67-.28zm-4.22-2.05c-.24 0-.49.1-.64.31-1.01 1.44-2.29 2.69-3.74 3.69-.25.17-.58.34-.59.69-.05.44.46.8.86.61 1.81-1 3.44-2.34 4.75-3.94.26-.29.26-.76 0-1.06-.15-.2-.4-.3-.64-.3zm-53.91-3.95c-.72-.12-1.43.79-.57 1.23 2.56.44 5.15.74 7.73 1.02 5.25.5 10.53.82 15.78.36.89-.06 1.03-1.38.17-1.61-.86-.05-1.73.16-2.6.17-6.74.36-13.51-.17-20.2-1.04-.1-.06-.2-.1-.3-.12zm52.69-14.66l-2.26 1.55c-3.87 2.66-5.38 7.66-4.46 12.28.4 2.01 2.01 4.1 1.15 5.14-2.13 2.58-5.96 3.12-13.91-.61-.16 2.87 2.23 4.66 3.12 5.11v0c-2.96 3.06-8.34-.29-10.36-1.45-1.08-.62-1.67-.13-1.45.65.45 5.06 2.06 6.33 3.16 7.16 4.16 3.12 4.45 9.09 2.74 9.56 0 0-4.29-2.81-5.6-3.82-3.19-2.47-6.82-5.14-7.82-9.29-.15-.29-.33-.44-.51-.48-.07-.02-.13-.02-.2 0-.46.09-.81.8-.41 1.39 1.12 4.43 4.89 7.37 8.22 10.19 2.67 2.27 5.67 4.94 5.96 8.67.33 2.66-1.44 4.94-3.39 6.58.41-2.04.16-4.19-1.2-5.86-2.44-3.04-6.34-4.31-10.04-4.95-2.34-.4-4.72-1.11-6.67-2.48-.6-.43-1.17-.92-1.67-1.48-1.1-.99-1.7-2.44-2.74-3.42-1.82.2.02 2.38.42 3.27.68 1.16 1.57 2.17 2.57 3.02.01.01.02.03.03.04 1.13 1.15 1.73 2.79 1.59 4.4-.07.64-.25 1.39-.83 1.75-.61.27-1.27-.08-1.81-.36-.25-.12-.48-.3-.73-.45-2-1.47-4.25-2.63-6.04-4.37-.43-.42-1.29-1.52-1.89-1.57-.27-.02-.49.17-.59.75 1.08 1.69 2.61 3.05 4.16 4.31 1.02.85 2.19 1.63 3.22 2.53.12.12.25.24.38.35.94.88 1.73 1.87 2.1 3.15.57 2.32.32 4.87-.72 7.02-.95 1.96-2.86 3.12-4.89 3.72.22-2.45.08-5.03-1.06-7.26-1.32-2.78-4.21-4.37-7.08-5.11-3.13-.93-6.74-1.16-9.19-3.56-2.26-.75-.52 2.22.34 2.65.31.23.64.44.97.63v0c.54.51 1.22 1.05 1.29 1.84-.05.74-.71 1.24-1.28 1.63-1.87 1.17-4.28 1.49-6.37.76-1-.42-1.81-1-2.8-1.31-.86.05-.92 1.54.1 2.02 1.92 1.74 3.88 4.36 3.94 6.5.07 2.11-1.34 3.77-2.91 5.07-.46-1.01-.94-2-1.57-2.91-1.85-2.73-4.56-4.9-7.73-5.85-5.07-1.55-10.78.34-14.73 3.77-1.65 1.44-2.41 2.65.35 2.65 3.39 0 6.7 1.35 8.99 3.78 3.28 3.4 4.47 8.93 2.14 13.17l3.95 3.14s1.19-5.11.98-7.6c-.37-6.2-1.77-10.57-10.11-14.1 1.28-.99 6.31-2.22 8.48-1.64l.01-.01c4.82 1.29 5.78 4.23 7.28 7.4.31.79 1.78 2.05 2.77 1.58 1.61-1.03 3.1-2.32 4.14-3.95 1.61-2.44 1.5-6.58 1.74-7.75 1.77-2.28 7.67-2.83 7.18-6.23l2.14.72c2.01.69 3.99 1.93 4.86 3.94.75 1.84 1.52 4.05.68 5.83l-.98 2.06c-.45.96 2.94.96 3.83.8 6.25-1.13 11.4-8.07 9.26-14.26 3.47-3.1 1.66-6.68 1.66-6.68 3.26.8 7.82 1.53 10.38 3.89 1.56 1.33 1.94 3.57 1.34 5.46-.29 1.02-1.49 3.02.34 3.22 1.91-.61 4.38-1.96 5.65-3.5 2.78-3.36 4.42-7.6 3.04-10.09 2.23-.42 3-5.4 2.93-7.33-.09-2.62-1.14-4.91-3.55-6.77 3.01.42 9.25-1.07 7.68-4.53 2.82.19 4.85.11 7.09-1.77 4.34-3.64 3.08-4.93 1.87-7.9-1.09-3.12-.85-7.14.85-9.95.35-.92 4.35-4.14 2.42-4.47zm-6.58-5.11c-.48-.08-1.14.28-1.57.56-3.39 2.28-6.47 5.48-7.43 9.51-.21.86-.55 2.81-.16 3.09 1.18.02 1.09-1.68 1.32-2.42 1.22-4.04 4.29-7.35 7.98-9.26.28-.14.49-.44.44-.76-.07-.46-.29-.67-.58-.71zm-6.36-2.3c-2.42 1.16-4.59 2.97-5.98 5.29-1.72 2.64-1.93 5.89-3.29 8.68-1.32 2.63-4.47 3.41-7.16 3.71-5.89.56-11.81-.18-17.67-.82-1.02-.6-2.43.86-.99 1.39 4.86.81 9.76 1.5 14.7 1.56 3.68-.04 7.71-.14 10.8-2.42 2.63-2.01 3.06-5.46 3.97-8.41.89-3.25 3.23-5.94 6.12-7.61h.01c.67-.41.26-1.5-.51-1.37zm83.78-14.88c-.18.01-.35.08-.49.23-1.26 1.82-2.74 3.48-4.27 5.08-2.61 2.69-5.31 5.31-8.33 7.53-.59.42-.04 1.37.61 1.06.88-.57 1.69-1.22 2.51-1.87 3.25-2.67 6.32-5.55 9.11-8.7.6-.73 1.26-1.44 1.72-2.27.22-.58-.34-1.1-.87-1.07zm-3.8-3.2c-.18.01-.35.08-.49.23-1.26 1.82-2.74 3.48-4.27 5.08-2.61 2.69-5.31 5.31-8.33 7.53-.59.42-.04 1.37.61 1.06.88-.57 1.69-1.22 2.51-1.87 3.25-2.67 6.32-5.55 9.11-8.7.6-.73 1.26-1.44 1.72-2.27.22-.58-.34-1.1-.87-1.07zm-135.6-1.04c-.1.03-.2.08-.28.16-.86.99-1.49 2.18-1.86 3.43-.43 1.44-.52 2.98-.18 4.45.11.34.12.77.45.99.38.27.97-.05.96-.52-.12-1.22-.1-2.46.15-3.67.27-1.39.82-2.71 1.47-3.96.07-.14.09-.31.04-.46-.08-.33-.45-.51-.76-.43zm131.9-2.16c-.18.01-.35.08-.49.23-1.26 1.82-2.74 3.48-4.27 5.08-2.61 2.69-5.31 5.3-8.33 7.53-.59.42-.04 1.37.61 1.06.88-.57 1.7-1.22 2.51-1.87 3.25-2.67 6.32-5.55 9.11-8.7.6-.73 1.26-1.44 1.72-2.27.22-.58-.34-1.1-.87-1.07zm-127.6-11.52c-.13.01-.26.05-.36.15-.39.6-.63 1.27-.82 1.96-.53 2.03-.61 4.31.38 6.23.19.43.58 1.1 1.14.8.58-.28.25-.93.1-1.37-.66-2.29-.32-4.73.23-7.01h0c.14-.44-.27-.79-.66-.77zm74-6.38c-.34-.04-.72.23-.72.59.11.76.3 1.51.3 2.28.03 1.02-.4 1.99-.94 2.84-.17.33-.48.6-.54.98-.08.47.51.83.91.6.91-.71 1.63-1.68 1.98-2.78.43-1.38.14-2.9-.52-4.16-.04-.08-.09-.15-.15-.2-.09-.09-.2-.13-.31-.15zm-33.21-2.88c-.19.02-.37.14-.49.29-.78.88-1.1 2.09-1.04 3.25.04.35.02.74.25 1.03.28.37.94.24 1.08-.19.26-1.2.46-2.41.88-3.56.01-.03.02-.05.02-.08.07-.33-.18-.66-.5-.72-.07-.02-.13-.03-.2-.02zm-30.65-4.78c-.13-.02-.27.01-.4.1-1.35 1.22-2.51 2.68-3.27 4.33-1.15 2.49-1.3 5.35-.86 8.03 0 .7 1.07.79 1.22.14.03-1.86.02-3.76.48-5.58.51-2.26 1.82-4.23 3.26-6.01l.05-.07c.27-.39-.08-.87-.47-.93zm47.86-.26c-.14.01-.27.07-.36.2-.96 1.43-1.56 3.1-1.73 4.81-.24 2.04.32 4.25 1.83 5.7.77.76 1.75 1.24 2.76 1.56.5.14.98-.48.68-.91-.29-.39-.82-.47-1.2-.76-1.24-.74-2.11-2.01-2.36-3.43-.4-2.15.17-4.35 1.04-6.31l.02-.06c.17-.44-.28-.84-.69-.8zm23.77-3.4c-.39.05-.66.51-.47.89.36.75.61 1.57.64 2.4.07 1.5-.57 2.92-1.41 4.13-.2.35-.53.62-.67 1-.19.5.47.99.9.7 1.31-1.04 2.3-2.51 2.67-4.15.36-1.62-.02-3.4-1.05-4.71-.1-.14-.26-.23-.42-.25-.06-.01-.12-.01-.17 0zm18.76-.29c-.43.04-.8.56-.46.99.78.81 1.43 1.75 1.93 2.76 1.32 2.64 1.89 5.59 2.18 8.5.12.54-.05 1.18.29 1.64.45.48 1.2-.05 1.08-.63.13-2.83-.25-5.7-1.27-8.35-.7-1.82-1.75-3.55-3.3-4.77h0c-.14-.12-.29-.16-.43-.15zm-103.2-.26c-.11 0-.22.04-.31.11-1.26 1.01-2.2 2.37-2.86 3.84-.63 1.42-1 2.96-1.05 4.52.02.37-.09.8.14 1.13.28.4.99.26 1.09-.23.15-.98.34-1.95.63-2.89.59-1.99 1.55-3.87 2.88-5.47.09-.11.14-.25.14-.4.02-.36-.33-.63-.66-.62zm43.9-.06c-.32-.04-.65.23-.9.41-2.68 1.94-4.16 5.31-4.01 8.58.04.41.03.84.16 1.23.2.55 1.08.43 1.17-.14.04-.94.12-1.89.32-2.81.49-2.39 1.78-4.59 3.59-6.21.26-.24.26-.68-.02-.91-.1-.1-.2-.15-.31-.16zm27.42-.08c-.84-.11-.72.93-1.14 1.38-1.37 1.88-3.46 3.1-4.83 4.98-.97 1.27-1.54 2.92-1.2 4.52.15.96.63 1.83 1.11 2.65.14.64 1.28.78 1.33.03-.07-.65-.55-1.18-.71-1.82-.3-.91-.4-1.92-.08-2.84.58-1.6 1.9-2.76 3.09-3.91 1.23-1.19 2.59-2.48 2.92-4.24.1-.34-.14-.71-.5-.75zm-46.31-2.8c-.16-.03-.33.01-.5.14-3.75 2.87-7.04 6.4-9.32 10.55-2.53 4.52-3.58 9.83-2.96 14.98.23 1.36.46 3.05 1.81 3.75.42.21.83.21 1.23.1-.22 3.04.2 6.13 1.57 8.87.55 1.07 1.55 2.3 2.89 2.09-.02.47-.05.93-.07 1.4-.13 2.97-.13 6.22-2.08 8.65-1.53 1.87-3.83 2.87-6.07 3.62-1.66.8.16 2.42 1.18 2.81 3.24 1.62 7.1.53 10.01-1.3.74-.47 1.43-1 2.09-1.56.36.45.92.76 1.51.77 1.87.07 3.56-.94 5.04-1.98 1.53-1.12 2.92-2.4 4.16-3.82.86 1.27 2.63 1.49 4.03 1.18 3.06-.69 5.39-3.15 6.85-5.82 2.3-4.27 2.88-9.21 2.85-13.99.01-.38-.27-.6-.57-.64-.3-.04-.63.11-.71.48-.08 1.93-.16 3.87-.48 5.78-.61 3.67-1.83 7.43-4.48 10.15-1.3 1.29-3.05 2.44-4.96 2.25-.95.03-1.17-.88-.81-1.55 2.28-3.15 3.93-6.76 4.88-10.52.22-.78-.95-1.16-1.24-.4-2.11 5.69-5.41 11.13-10.3 14.85-1.21.88-2.52 1.84-4.06 1.94.04-.08.08-.15.11-.28.19-.16.3-.36.37-.58 2.94-3.37 4.87-7.63 5.9-11.96.19-.65-.68-1.12-1.12-.6-.62 1.55-1.16 3.14-1.9 4.64-2.2 4.57-5.56 8.96-10.38 10.93-1.64.65-3.67 1-5.37.4.73-.28 1.45-.6 2.12-1.01 2.34-1.28 4.16-3.5 4.82-6.09.95-3.59.48-7.33.89-10.98.08-.23.11-.47.07-.71.27-2.61 1.06-5.15 2.12-7.54-.09-.39-.25-.59-.43-.65v-.02c-.55-.18-1.38.87-1.56 1.5-1.16 2.01-1.75 4.21-2.08 6.47-.22.64-.23 1.38-.63 1.97-.01.54-.49-.55-.76-.89-1.52-3.1-1.69-6.72-1.13-10.08.73-4.53 3.32-8.47 6.16-11.97v-.01c.47-.57-.28-1.37-.88-.94-3.09 3.1-5.77 6.79-6.92 11.07-.02.09-.04.18-.06.27-.19.45-.33.96-.52 1.31-.52 1.27-.95.06-1.09-.71-.58-2.89-.5-5.91.09-8.79 1.41-6.62 5.76-12.25 10.98-16.39v0c.49-.4.16-1.07-.32-1.15zm33.01-.36c-.06 0-.12.01-.18.03-.41.26-.76.61-1.09.96-1.46 1.56-2.24 3.64-2.43 5.75-.07.91-.09 1.83.04 2.73.06.57.97.64 1.17.12.16-1 .23-2.02.41-3.02.33-2.05 1.26-3.98 2.59-5.56l0 0c.03-.04.06-.08.08-.13.22-.4-.17-.89-.59-.88zm32.14-2.49c-.35.01-.69.32-.63.69.19.84.34 1.68.41 2.54.2 2.59-.22 5.28-1.5 7.56-.16.35-.49.63-.54 1.03-.04.5.61.84.99.51 1.3-1.31 2.07-3.07 2.44-4.86.49-2.35.3-4.85-.61-7.07v0c-.05-.12-.13-.22-.24-.29-.1-.08-.22-.11-.33-.11zm-12.66-.51c-.79-.07-.72.83-.69 1.37.05 3.49-1.13 6.99-3.31 9.71-.28.46-.88.78-.9 1.37.07.6.88.71 1.2.24 3.42-2.93 5.06-7.76 4.23-12.17h0c-.05-.26-.25-.5-.53-.51zm17.35-5.82c-.37.03-.72.38-.55.83.86 2.11 1.16 4.44.86 6.7-.26 2.4-1.11 4.68-2.12 6.86-.22.7.87 1.09 1.17.43 1.52-2.39 2.51-5.15 2.66-7.99.13-2.24-.33-4.53-1.44-6.48v0c-.13-.26-.36-.35-.58-.33zm4.7-1.46c-.34-.01-.69.27-.67.64-.17 1.35.08 2.75.66 3.98.61 1.31 1.6 2.45 2.84 3.2 1.14.71 2.49 1.06 3.83 1.04.37-.05.8.05 1.13-.18.41-.29.23-1.01-.26-1.09-.73-.07-1.47-.13-2.17-.36-1.1-.33-2.11-.96-2.88-1.81-1.21-1.3-1.86-3.07-1.9-4.84-.01-.18-.11-.36-.25-.47-.1-.08-.21-.12-.32-.12zm23.22-6.79c-.28-.03-.58.12-.66.46-.1.96-.08 1.95.19 2.89.46 1.61 1.5 2.95 2.62 4.16 1.42 1.53 3.06 2.98 3.83 4.98.33.87.46 1.8.47 2.73-.13.74 1.05 1.02 1.22.27.1-1.05.1-2.12-.18-3.15-.59-2.21-2.19-3.92-3.74-5.52-1.1-1.14-2.22-2.34-2.79-3.85-.29-.77-.38-1.58-.4-2.39-.01-.35-.28-.55-.56-.58zm-17.98-2.17c-.78-.02-.75.94-.99 1.47-.73 2.45-1.01 5.08-.46 7.59.43 2.04 1.6 4 3.43 5.05 1.15.68 2.48 1 3.81 1 .58.14 1.55-.1 1.21-.89-.32-.49-.98-.32-1.47-.43-1.12-.18-2.25-.55-3.13-1.28-1.36-1.02-2.05-2.67-2.36-4.3-.43-2.49-.08-5.03.5-7.47.08-.35-.18-.72-.54-.75zm-25.72-2.12c-.32-.02-.64.22-.67.56 0 .69-.02 1.39-.14 2.08-.22 1.26-.8 2.44-1.54 3.48-.16.28-.46.53-.43.88.02.44.58.73.95.48.54-.41.99-.92 1.4-1.47.45-.65.81-1.37 1.01-2.14.3-1.11.3-2.29-.02-3.4v0c-.04-.15-.13-.28-.26-.36-.09-.07-.2-.1-.3-.1zm-10.33-.97c-.12 0-.23.04-.33.12-.98.73-1.9 1.56-2.65 2.53-.81 1.03-1.36 2.26-1.5 3.57-.15 1.29.07 2.59.48 3.81.19.45.9.46 1.1.02.16-.35-.01-.75-.02-1.11-.14-1.37-.12-2.81.49-4.08.67-1.48 1.84-2.63 2.91-3.82.09-.1.15-.24.16-.38.05-.37-.3-.67-.65-.67zm-82.59-2.83c-.21.04-.4.16-.53.4-3.28 5.5-5.45 11.61-6.77 17.86-.46.74.69 1.56 1.1.71 1.43-6.21 3.67-12.28 7.07-17.7v-.01c.46-.69-.26-1.37-.88-1.26zm100.1-1.29c-.41-.01-.75.45-.58.86.24.73.36 1.51.33 2.28-.08 2.08-1.15 3.98-2.43 5.57-.25.39-.72.65-.8 1.13-.05.54.7.88 1.06.47 1.55-1.18 2.75-2.83 3.37-4.68.56-1.71.5-3.67-.38-5.26h0c-.07-.16-.22-.27-.38-.32-.06-.02-.12-.03-.18-.03zm-53.14-.45c-.18-.01-.35.04-.49.18-1.7.52-3.34 1.68-3.94 3.42-.32.9-.3 2.14.58 2.73.04.03.09.04.13.06-.43.32-.86.65-1.27 1-1.9 1.62-3.49 3.79-3.86 6.31-.11.42.35.77.73.64.6-.34.44-1.22.81-1.76 1.13-2.55 3.39-4.37 5.69-5.83.51-.46 1.64-.6 1.51-1.47-.16-.83-1.1-.6-1.64-.32-.47.17-1.36.5-1.45-.26.06-1.23.97-2.24 1.98-2.85.51-.37 1.12-.52 1.66-.8.59-.4.09-.99-.44-1.03zm-51.93-2.06c-.18.02-.34.11-.47.27-3.07 4.87-5.02 10.41-5.96 16.08-.01.65-.47 1.41-.03 1.98.84.59 1.18-.59 1.17-1.23.99-5.61 3-11.06 6.12-15.84v-.01c.05-.07.08-.16.1-.24.18-.6-.41-1.08-.94-1.01zm-4.44-4.23c-.24-.01-.48.08-.64.3-3.03 4.59-5.22 9.73-6.42 15.1-.41.8.96 1.37 1.17.46 1.28-5.2 3.53-10.15 6.57-14.56h0c.11-.16.17-.36.15-.56-.02-.44-.42-.73-.82-.74zm-4.46-4.32c-.23.03-.44.14-.57.36-2.23 4.29-4.31 8.67-6 13.2-.51.66.52 1.54 1.01.79 1.83-4.51 4.03-8.87 6.39-13.13.11-.2.14-.44.07-.65-.1-.41-.52-.61-.9-.57zm-4-4.53c-.22.02-.43.11-.57.31-.28.49-.43 1.05-.66 1.56-1.46 3.47-3.12 6.86-4.95 10.15-.19.49.38 1 .84.76.4-.24.53-.74.79-1.1 1.99-3.4 3.81-6.91 5.38-10.52v0c.09-.19.09-.4.03-.59-.11-.38-.5-.58-.86-.56zm158-1.25c-.77-.13-.89 1.03-.31 1.35.89 1.4 1.16 3.09 1.18 4.72.03 2.03-.17 4.16-1.09 5.99-.8 1.58-1.25 1.34-2.16.14-.28-.9-.68-1.76-1.13-2.56-1.33-2.39-3.3-4.44-4.07-7.11-.11-.15-.29-.24-.48-.23-1.45.54-.07 2.56.36 3.48 1.4 2.99 4.03 5.6 4.13 9.06.01 1.63-.67 3.84-2.4 4.13-1.94.33-1.91-2.42-2.89-3.59-.2-.83-1.64-2.07-1.83-.61 1.16 1.87 2.23 3.96 2.1 6.23-.01 2.23-1.25 4.15-2.37 5.98-1.12 1.83-1.73 4.43-.33 6.29-.44.55-2.13.44-2.84-.21-1.92-1.38-2.81-3.9-2.7-6.18.16-3.21 2.39-6.02 2.1-9.3-.12-1.3-.09-2.9-1.08-3.88-1.54-.89-.73 1.22-.43 1.97.91 2.3-.28 4.77-1.06 6.97-.9 2.2-1.4 4.65-.77 7.01.66 2.49 2.33 5.18 5.08 5.57 1.43.11 3.41-.23 4.13-1.56-.56-1.2-2.21-1.93-1.62-3.6.43-2.42 2.32-4.23 2.96-6.58.29-1.08.45-2.2.34-3.31 1.85.85 3.73-.7 4.53-2.3.53-1.06.74-2.19.7-3.33 1.23.95 2.25-.22 2.8-1.13 1.32-2.19 1.72-4.82 1.62-7.34-.08-2.1-.6-4.33-2.1-5.88-.1-.1-.23-.18-.37-.19zm-162.6-4.46c-.37-.04-.76.16-.88.54-.87 3.41-2.03 6.76-3.57 9.93-.13.37-.48.71-.37 1.12.12.48.84.6 1.1.18 1.88-3.38 3.32-6.99 4.4-10.7.08-.25.03-.53-.12-.74-.13-.2-.34-.3-.56-.32zm175.1-1.21c-.26-.03-.36.1-.4.26-.06.68.67 1.14.94 1.72.99 1.43 1.59 3.08 1.96 4.77.08.67 1.17.65 1.22-.01.17-2.59-1.1-5.17-2.4-6.08-.65-.45-1.06-.63-1.32-.66zm-195-1.2c-.49-.03-1.45 1.2-1.73 1.88.33 1.49.3 3.06-.13 4.53-1.61 5.11-7.23 8.92-12.6 7.83l-1.2 1.71c1.63 1.16 2.4.86 4.37.74 10.24-2.01 13.06-7.14 14.18-9.5.85 1.03 1.12 3.12 1.45 4.41.95 5.92-1.72 11.54-6.12 15.75-1.14 1.09-2.87 3.72-2.87 3.72 1.85 2.62 5.3 4.59 8.46 4.75 1.87.1 4.73.11 4.73.11-1.19 4.07.79 7.65 5 7.77-.35 2.1-.53 4.24-1.19 6.28-1.49 4.12-5.54 6.58-9.49 7.96-1.08.59-4.12.86-3.31 2.75 3.8 4.22 12.8 6.87 18.22 4.29 4.96 3.95 9.14.48 9.21.56.28 3.12 2.09 5.12 3.96 6.61v0s-2.61 6.86-3.96 10.78c-.69 2.52-1.83 5.48-.96 8.05.11.38.32.69.56.96-1.66.74-3.44 1.15-5.25 1.45-6.76 1.13-11.03-2.75-9.94-9.91.38-2.46 4.97-5.21 1.27-5.09-2.45-.05-5.13 1.08-6.86 2.52-2.97 2.49-3.35 6.71-2.8 10.3.49 4.75 4.01 8.66 8.18 10.7 3.93 1.93 9.8 3.59 14.11 2.62 2.1.64 8.48 5.22 17.33.01l3.09.09c-2.76 2.91-5.54 5.81-8.33 8.68-12.97 13.23-23.78 25.5-37.22 38.24-3.05.38-2.16-2.64-3.03-4.53-3.17-6.85-13.87-10.24-20.9-7.35l.35 1.93c2.73 1.92 6.02-1.31 9.58.47 3.09 1.54 8.35 4.04 6.73 8.23-1.41 3.65 3.16 7.75 6.48 5.18 4.37-3.73 8.14-8.12 12.23-12.14 12.6-13.15 25.33-26.19 37.71-39.55 1.17-.85 2.27-2.06 2.81-2.85.08-.12.12-.24.14-.35 3.43-3.74 6.85-7.49 10.21-11.29.78-1.57 5.94-5.03 3.16-5.57-5.25 5.41-10.42 10.89-15.6 16.37-.7.46-1.6.78-2.15-.02-1.64-7.02 3.18-17.37 7.02-22.59.34-.46-.05-1.01-.5-1.04-.15-.01-.31.04-.45.17-2.13 2.69-4 5.59-5.58 8.64-1.73 3.45-3.13 7.19-3.51 11.23-.16 1.77-1.22 3.19-2.56 4.02-2.81 1.73-11.65 3.83-12.48.77 3.58-2.05 6.69-4.94 9.22-8.17.57-.87 3-3.37.8-3.35-2.68 3.71-6.04 6.99-10.04 9.25-3.95 2.33-8.73 3.12-13.24 2.19-4.66-.97-9.43-3.73-11.06-8.41-.7-2.51-.91-5.26-.1-7.77.66-2.01 2.36-3.27 4.26-4.02-1.1 2.39-1.51 5.1-.92 7.68.75 3.69 3.94 6.63 7.65 7.19 4.86.73 9.97-.68 13.92-3.55 5.56-4.01 8.82-10.39 10.89-16.77.18-.48-.26-.9-.69-.86-.14.01-.28.08-.4.21-1.5 3.76-3.18 7.53-5.7 10.74-1.46 1.95-3.28 3.64-5.33 4.96-.35.1-.7.08-.99-.27-.56-2.39.28-4.84 1.01-7.11 3.21-8.34 7.19-16.55 13.07-23.36 1.38-1.72 3.23-3.02 4.55-4.79.15-.72-.06-.99-.41-1.02-.59-.05-1.58.57-1.99.91-.1.08-.19.16-.28.24-.19.08-.4.19-.48.25-.23-.51-.22-1.11-.02-1.63.87-1.71 1.87-3.38 3.1-4.85 2.1-2.51 4.41-3.84 7.23-4.7 1.77-.52 1.64-1.11-.15-.98h0c-1.4.21-3 .24-4.42.21-2.07-.08-4.31-.96-5.26-2.91-.59-1.27-.43-2.66.09-3.91.98 1.2 2.32 2.12 3.86 2.4 2.36.38 4.82-.11 6.96-1.14 3.91-1.95 6.59-5.68 10.59-7.48.91-.01 1.63-1.44.43-1.57-2.98.62-5.5 2.45-7.88 4.26-2.35 1.83-5.07 3.47-8.13 3.55-1.4.14-2.85-.25-3.89-1.24-.18-.11-.34-.28-.5-.47.9-1.67 1.89-3.3 3.06-4.79.28-.28.34-.75.1-1.08-.28-.44-.98-.47-1.3-.06-1.08 1.54-1.99 3.19-2.79 4.89-.34-.27-.72-.37-1.22-.04-1.72 1.83-2.69 4.55-1.88 7.01-.78 2.42-1.43 4.88-1.92 7.37-.04.17.01.36.12.5.27.39.94.28 1.07-.17.49-1.95 1.07-3.88 1.73-5.78 1 1.3 2.49 2.23 4.11 2.6-1.63 1.36-2.91 3.11-3.99 4.93-.66 1.21-1.53 2.4-1.58 3.83-.05.98.22 2.08.93 2.78-3.47 3.29-6.33 7.2-8.71 11.34-.38.43-.8.8-1.35.98-.99.12-1.31-1.14-1.56-1.89-.96-3.48-.09-7.14 1.06-10.47.47-1.41 1.03-2.79 1.38-4.23.01-.4-.4-.7-.77-.65-.85.48-1.03 1.67-1.56 2.47-1 1.99-1.75 4.12-3.19 5.85-1.15 1.48-2.77 2.77-4.7 2.87-1.02.07-2.12.08-3.02-.48.12-.33.39-.6.64-.89 4.91-4.37 7.21-10.85 8.6-17.11.17-.66-.72-1.1-1.14-.56-1.06 3.34-2.19 6.71-3.99 9.75-2.19 3.83-5.57 7.42-10.07 8.29-3.64.73-7.3-.36-10.51-2.12 3.96-1.1 7.76-3.1 10.15-6.53 1.63-2.23 2.14-4.99 2.3-7.69.2-3.61.94-7.29 3.05-10.3.42-.93 3.01-2.84.94-3.16-2.48 2.05-4.2 4.92-5.22 7.96-.23.44-.4.99-.96.99-.78-.21-1.32-.89-1.67-1.57-.85-1.7-.93-3.67-.75-5.52.13-.9.21-1.86.8-2.72.42-.52.76-.97 1.05-1.45.23-2.01-1.99-.38-2.6.21-3.48 2.73-8.78 3.14-12.36.38 4.65-3.39 8.97-8.64 10.25-14.31 1.01-4.51-1.49-15.48-8.11-16.4zm168.3-1.22c-.08.02-.16.05-.23.1-.27.16-.32.51-.23.79.2.64.66 1.15 1.11 1.62.5.53 1.07 1.01 1.42 1.66.2.34.15.78.45 1.06.29.26.78.14.94-.21.2-.62.09-1.3-.18-1.88-.45-.91-1.24-1.56-1.99-2.21-.21-.21-.48-.38-.62-.65-.14-.23-.41-.33-.66-.28zm-152.7-1.03c-.44-.05-.9.27-.94.75-.11 1.79-.72 3.5-1.4 5.14-.21.6-.54 1.14-.77 1.73-.21.84 1.06 1 1.27.22 1.12-2.18 2.23-4.45 2.53-6.92.04-.28-.09-.56-.3-.74-.12-.11-.26-.16-.41-.18zm165.8-2.38c-.35-.03-.66.25-.66.61-.02.64.74.68 1.2.76 1.21.27 2.41.89 3.12 1.94 1.08 1.6.95 3.77.05 5.41-.23.47-.58.86-.9 1.26-.41.46.17 1.2.72.95 1.59-1.16 2.51-3.13 2.52-5.09.05-1.86-.86-3.75-2.42-4.78-1.06-.72-2.35-1.03-3.62-1.06zm-170.8-1.42c-.35.07-.64.37-.66.73-.1 1.61-.52 3.18-1.01 4.71-.13.38-.4.88-.03 1.22.31.29.87.16 1.01-.24.75-1.76 1.41-3.59 1.67-5.49.06-.41-.21-.83-.62-.91-.12-.03-.24-.04-.35-.01zm157.9-2.96c-.23.05-.44.22-.48.47-.36.84-.39 1.84.06 2.65.57 1.03 1.65 1.61 2.64 2.16.71.41 1.51.82 1.92 1.58.26.38.17.93.53 1.25.33.3.9.08.96-.36.06-.72-.09-1.48-.5-2.09-.65-1.02-1.76-1.59-2.77-2.18-.64-.38-1.4-.78-1.64-1.54-.13-.42-.04-.84.02-1.26v0c.02-.16-.02-.31-.11-.44-.14-.22-.4-.28-.63-.23zm15.64-1.52c-1.38-.03-2.78.2-4.11.55l-.1.03-.09.05c-.6.37-.14 1.33.53 1.14 1.23-.17 2.48-.28 3.73-.19 1.42.09 2.94.45 3.92 1.55.93 1.07 1.03 2.59.85 3.93-.02.51-.33 1.03-.12 1.53.31.57 1.19.24 1.2-.37.57-1.67.74-3.6-.08-5.22-.65-1.3-1.89-2.23-3.27-2.62-.8-.24-1.63-.36-2.45-.38zm7.5-3.1c-.11-.03-.21-.02-.31.01-.5.12-.58.88-.15 1.13 1.18.57 2.16 1.47 2.99 2.48.49.56.87 1.21 1.35 1.78.35.41 1.13.04 1.05-.48-.22-.81-.63-1.56-1.11-2.25-.9-1.3-2.24-2.36-3.81-2.67zm86.9-6.6c-.36 0-.72.35-.63.74.32.82.94 1.49 1.6 2.06 1.85 1.53 4.2 2.39 6.57 2.67.92.1 1.86.15 2.78.02.56-.11.57-1.03.03-1.18-1.74-.16-3.49-.45-5.14-1.03-1.77-.65-3.56-1.51-4.73-3.04-.04-.05-.08-.09-.13-.12-.11-.09-.23-.12-.35-.12zm-300.5-.87c-.13.01-.25.05-.34.14-.71 1.05-1.19 2.24-1.64 3.42v0c-.12.3.07.63.34.76.36.21.74-.08.97-.35.74-.94 1.29-2.08 1.38-3.29.08-.41-.33-.72-.7-.69zm-11.46-.79c-.23-.06-.5.01-.65.23-1.27 2.12-2.56 4.31-4.48 5.9-1.34 1.12-2.98 1.79-4.65 2.24l-.1.04-.1.06c-.45.3-.24 1.05.28 1.11.72-.03 1.43-.2 2.13-.39 1.42-.41 2.74-1.14 3.86-2.11 1.59-1.4 2.75-3.21 3.65-5.11.18-.48.53-.94.54-1.46-.03-.27-.23-.45-.46-.5zm317-1.44v0c-.28-.01-.57.2-.64.48-.1.69.76.97 1.22 1.31 2.12 1.13 4.56 1.59 6.96 1.53 2.21-.05 4.49-.62 6.21-2.06.59-.56-.35-1.48-.91-.89-1.99 1.18-4.39 1.42-6.66 1.28-2.03-.15-4.11-.54-5.9-1.57-.09-.06-.18-.08-.28-.09zm-11.04-1.78c-1.39 0-5.42 2.15-7.19 3.16-11.44 6.56-19.97 18.74-21.94 32.08-2.08 14.01 2.21 28.46 9.97 40.14l1.38-.9c-7.43-11.05-11.62-24.67-10.06-38.02 1.57-13.44 10.14-25.82 21.33-32.23 1.93-1.11 6.71-3.18 6.75-4.2-.07-.02-.15-.03-.24-.03zm-101-.32c-.07.01-.14.04-.21.07-.43.21-.42.91.03 1.1.74.26 1.47.62 2.02 1.2.91.96 1.27 2.37 1.08 3.65-.15 1.07-.43 1.76-1.17 2.08-.82-.89-2.05-1.3-3.23-1.36-.1-.01-.2.01-.28.04-.42.13-.51.73-.22 1.02.27.22.65.25.96.39.75.27 1.52.69 1.87 1.44.39.84.3 1.79.27 2.69-.01.39-.14.79 0 1.17.16.46.88.48 1.11.07.23-.64.39-1.32.47-2 .09-.73.03-1.5-.21-2.19.84-.3 1.41-1.1 1.72-1.91.67-1.72.49-3.77-.54-5.32-.78-1.17-2.08-1.93-3.45-2.14-.07-.01-.14-.02-.22 0zm131.4-3.7c-.06.01-.11.02-.17.05-1.53.58-3.15.89-4.77 1.09-1.39.15-2.82.28-4.2.02-.17-.04-.35.02-.49.12-.39.27-.28.91.16 1.07 1.25.5 2.62.56 3.95.48 1.75-.12 3.5-.47 5.09-1.22.39-.25 1-.36 1.13-.87.12-.43-.29-.8-.69-.75zm-22.5-.7c-.11 0-.21.02-.3.07-1.97.56-4.06.94-6.1.58-.13-.04-.26-.01-.38.04-.41.16-.47.75-.16 1.03.65.4 1.42.57 2.18.64 1.64.12 3.33-.2 4.77-1 .32-.13.67-.41.64-.79 0-.34-.33-.56-.64-.56zm-82.81-1.35c-.22-.01-.44.11-.56.3-.15.21-.13.5.02.71.41.5.88.96 1.27 1.49.25.32.44.69.67 1.03.11.21.32.37.56.38.36.03.69-.3.68-.65-.09-1.42-1.11-2.69-2.42-3.2h0c-.07-.03-.14-.05-.22-.05zm-236.4-5.66c-.77-.01-1.54.06-2.31.22-5.25.89-9.15 5.49-10.4 10.49l1.69.97c.93-2.23 1.96-4.52 3.77-6.2 2.43-2.49 6.12-3.46 9.49-2.76 3.85.86 7.48 2.66 11.45 3.02 7.51.71 15.09 1.05 22.51 2.55 1.16-.03 4.46 1.78 3.86-.4-4.46-1.51-9.17-2.21-13.82-2.92-5.51-.92-11.21-.83-16.59-2.48-3.13-1.01-6.33-2.43-9.65-2.48zm314-3.31c-.19-.01-.4.04-.56.11-2.38 1.11-3.82 3.83-3.56 6.41-.01.5.67.7 1.01.42.39-.41.25-1.02.46-1.5.45-1.65 1.37-3.24 2.78-4.24.37-.12.55-.62.35-.95-.12-.17-.3-.24-.49-.25zm-211.9-.72c.53-.01 1.06.06 1.58.18-2.43 2.59-3.85 6.54-2.94 12.1.84 5.13 3.33 7.58 5.75 9.42 3.88 2.95 8.77 4.02 13.49 4.95 1.09.21 1.69-1.21.56-1.43-3.08-.6-6.15-1.43-8.96-2.85-2.94-1.49-5.07-4.24-5.07-4.24s2.04 1.11 3.25 1.47c11.55 3.32 23.76 2.23 35.57 1.22 14.73-1.26 30.29 3.84 40.28 15.03.34 1.9.51 3.8.06 5.62-5.92-8.19-15.69-12.98-25.55-14.67-16.67-2.86-33.08 4.17-49.73 2.22-7.45-.87-15.12-5.33-17.52-12.87-1.96-6.14 1.64-13.31 7.7-15.84.48-.2.99-.28 1.52-.29zm-61.61-1.86c-.28.04-.54.3-.56.59 0 .27.17.51.31.73.7 1 1.66 1.81 2.77 2.32.32.13.63.29.98.31.35.04.64-.29.64-.62.03-.29-.21-.5-.42-.64-1.12-.8-2.18-1.68-3.25-2.54l0 0c-.06-.05-.12-.08-.19-.1-.09-.04-.19-.05-.29-.04zm-21.18-.34c-1.09.45-2.05.73-3.27.94-.2.06-.37.22-.43.44-.09.34.1.69.44.78 1.62.07 2.97-.41 3.86-1.31.12-.18.16-.41.07-.62-.1-.25-.44-.33-.67-.23zm331.6-.69c-1.47.27-2.86.91-4.04 1.83-2.14 1.65-3.8 3.87-6.08 5.35-1.69 1.16-3.64 1.9-5.63 2.38-.88.29-.35 1.52.48 1.17 2.03-.29 4.01-.95 5.76-2.04 1.93-1.16 3.48-2.81 5.04-4.39 1.29-1.33 2.78-2.54 4.58-3.06.75-.09.66-1.31-.11-1.24zm-114.9-1.92c-.19-.02-.4.05-.53.2-.23.23-.22.64.01.87.94.89 1.85 1.82 2.65 2.84.25.28.44.61.7.88.21.25.61.24.85.03.24-.18.26-.51.15-.77-.64-1.73-1.97-3.22-3.65-3.98-.06-.03-.12-.05-.19-.06zm-60.1-2.03c.08.01.18.03.27.06 1.09 1.82 1.83 3.66 2.01 5.77.38 4.63-1.24 9.14-3.04 13.36-.64.66.32 1.8.97 1.01 1.89-3.94 3.7-7.99 3.91-12.38.13-2.58.46-4.59-.26-6.96l.86.31c1.26 1.84 1.73 3.3 1.93 5.45.42 4.67-.94 9.3-2.76 13.55-.64.66.32 1.8.97 1.01 1.89-3.94 3.16-7.74 3.76-12.38.3-2.36.82-4.01-.05-6.22 1 .67 1.58.86 2.39 2.3 2.87 5.1-.27 10.77-1.91 15.82-2.03 5.27-1.73 11.03-.45 16.44.13.81.31 1.64.49 2.47-3.47-3.58-7.4-6.37-11.71-8.59-.63-3.32-.76-7.2-.6-10.53.39-3.45 2.13-5.89 3.04-9.13 1.06-3.74 1.1-8.83-.68-10.94 0 0 .25-.49.83-.43zm175.8-.77c-3.14.05-6.24 1.1-8.46 3.09-.57.51.15 1.43.76.98h0c3.56-2.65 8.52-3.62 12.64-1.86.46.14 1.75.4 2 .1.35-.5-.92-1.08-1.42-1.29-1.73-.7-3.63-1.04-5.52-1.01zm-39.91-1.02v0c-.07-.01-.14 0-.21.02-.45.2-.8.57-1.18.87-1.8 1.58-3.25 3.6-3.98 5.89-.56 1.76-.62 3.69-.05 5.45.23.46.24 1.19.85 1.31.53.09.84-.54.63-.97-.44-1.51-.46-3.13-.06-4.65.71-2.67 2.42-4.96 4.38-6.85.4-.37.1-1.02-.38-1.06zm-85.9-.71c-.07.01-.15.03-.22.06-.48.19-.47.95.02 1.13 1.61.67 3.21 1.51 4.39 2.82.84.96 1.52 2.22 1.33 3.53-.07.53-.39 1.17-.99 1.17-.21.02-.4-.06-.58-.14-.3-.22-.62-.41-.96-.57-.15-.08-.32-.09-.48-.04-.47.13-.58.83-.17 1.09 1.29.85 2.25 2.17 2.69 3.65.31 1.12.48 2.36.07 3.48-.07.4-.49.63-.81.35-.67-.93-1.53-1.71-2.56-2.22-.1-.05-.2-.08-.31-.07-.51-.02-.8.69-.44 1.04.82.6 1.53 1.34 2.06 2.2.72 1.19 1.21 2.57 1.17 3.97-.08.22-.02.77-.28.73-.09-.02-.16-.07-.24-.12v0c-.81-1.04-1.82-1.95-2.87-2.74-.1-.08-.23-.13-.37-.13-.51-.05-.84.64-.49 1.01 1.22 1.19 2.41 2.46 3.21 3.98.59 1.14.97 2.55.45 3.78-.31.73-1.01 1.44-1.87 1.36-.09-.01-.16-.04-.23-.08-.9-1.24-.81-2.86-1.23-4.28-.25-1.02-1-1.98-2.08-2.17-.07-.02-.14-.03-.21-.03-.21.01-.4.14-.5.32-.36.65.42.92.87 1.12.43.38.53 1 .64 1.55.21 1.51.29 3.12 1.2 4.4.88 1.31 2.42 2.13 3.99 2.15-.66 1-1.57 1.85-2.76 2.13-1.58.34-3.12-.54-4.23-1.59-.31-.73-1.54-.4-1.29.4.25.4.63.73.97 1.06 1.21 1.14 2.87 1.89 4.55 1.7 1.93-.21 3.48-1.64 4.41-3.26.25-.5.61-.97.68-1.52.05-.64-.72-1-1.25-.72-.68.25-1.43.23-2.1 0 .83-.36 1.52-1.07 1.88-1.89.66-1.43.49-3.12-.16-4.52-.09-.2-.18-.38-.28-.57.43-.2.78-.59.94-1.04.32-.9.27-1.89.1-2.81-.12-.55-.29-1.09-.51-1.61.75-.2 1.28-.91 1.52-1.62.46-1.45.34-3.04-.18-4.46-.25-.73-.63-1.41-1.11-2.02.82-.3 1.43-1.11 1.63-1.95.39-1.59-.18-3.28-1.16-4.54-1.38-1.8-3.48-2.89-5.64-3.45-.07-.02-.14-.03-.22-.02zm-50.8-3.23c6.75.46 14.16 3.24 17.65 9.39 2.44 5.33-.69 11-2.32 16.09-3.21 9.33.32 18.99.01 28.5.24 4.78-3.34 8.86-7.75 10.19-8.26 2.08-16.93 1.4-25.31.5-6.28-.97-12.95-1.95-18.24-5.71-3.17-2.24.05-8.93 3.65-6.6 9.43 5.86 20.5 9.02 31.6 8.97 4.55-.05 10.28-.45 12.73-4.91 2.21-5.44-.5-11.18-1.23-16.65-1.09-4.69-.42-9.56 1.36-13.99 1.96-5.21 4.77-11.17 1.68-16.36-3.25-5.46-11.06-6.33-16.83-6.87-5.27-.49-10.3 1.17-14.86 3.65-.01-.01-.03-.01-.04-.02-.49-1.64.59-2.72 1.53-3.39 4.87-2.95 10.87-2.75 16.38-2.79zm-133.5-.88c-.36-.01-.73.32-.66.71.27.83.72 1.61 1.23 2.32 1.6 2.15 3.89 3.75 6.38 4.71.51.27 1.12-.29.88-.82-.27-.39-.78-.53-1.15-.82-2.42-1.5-4.71-3.35-6.2-5.81h0c-.04-.06-.09-.11-.14-.16-.1-.09-.22-.13-.34-.13zm288.1-.31c-.06 0-.11 0-.17.02-1.42.46-2.68 1.33-3.73 2.37-1.18 1.21-2.09 2.72-2.44 4.38-.03.14-.02.28.05.41.19.44.87.47 1.09.05.36-.8.79-1.57 1.3-2.29.96-1.35 2.21-2.48 3.59-3.4.28-.23.7-.33.85-.69.16-.38-.15-.82-.54-.85zm-330.4-1.06c-.28-.03-.57.09-.67.38-.12.74.05 1.52.39 2.18.91 1.66 2.63 2.68 4.37 3.3 2.73.95 5.85 1.01 8.51-.19.37-.21.77-.34 1.11-.57.64-.49-.02-1.51-.71-1.05-.95.45-1.97.72-3.01.84-2.6.3-5.33-.22-7.56-1.61-.93-.62-1.91-1.54-1.89-2.75l0 0c-.01-.32-.26-.51-.54-.54zm345.6-1.55c-1.62.09-3.65 1.86-3.99 3.45.2.33 1 .34 1.26.07 1.06-1.26 2.04-2.29 3.76-3.3-.31-.18-.66-.25-1.03-.23zm-15.39-2.82c-.58-.03-1.14.19-1.66.41-1.12.53-2.11 1.39-2.67 2.51-.15.29-.31.67-.1.97.21.32.72.39.98.09 1-1.17 2.25-2.1 3.61-2.8.08-.04.15-.1.2-.17.31-.33.08-.93-.36-1.01zm-331.5-2.58c-2.36 1.13-4.57 2.39-5.46 4.79-1.16 2.95.21 6.99 2.49 9.15 7.43 7.03 13.08 5.61 14.74 5.11l1.85-.56 3.89-1.42c2.36-2.03-1.66-1.13-2.65-.87-2.62.69-5.9.75-8.51.2-3.77-.77-7.54-2.68-9.41-6.26-1.44-2.9.59-5.25 2.69-7.42zm44.87-1.29c-1.23-.01-2.45.18-3.6.63-2.37.89-4.05 3.26-4.19 5.78-.21 3.03 1.14 5.9 2.79 8.35.25.36.73 1.04.86 1.2.89 1.08 2.03 1.92 3.19 2.69.55.36 1.26-.29.93-.87-.67-.86-1.43-1.64-2.13-2.48-1.28-1.79-2.29-3.8-2.87-5.93-.49-1.8-.54-3.97.79-5.44 1.33-1.44 3.43-1.76 5.29-1.7.84-.06 1.68.35 2.5.15.78-.27.83-1.49.07-1.82-1.17-.35-2.4-.56-3.63-.57zm160.5-1.27c-.29.05-.55.3-.49.7.07.76.17 1.53-.03 2.28-.58 2.27-2.31 4.07-4.24 5.29-2.24 1.41-4.86 2.73-7.52 2.36-.79-.11-1.79.86-.9 1.13 2.52.77 5.29-.05 7.63-1.18 2.57-1.23 4.96-3.2 6.04-5.91.53-1.34.59-2.82.21-4.2-.09-.39-.41-.53-.7-.48zm-191.8-1.43c-.62.02-1.23.07-1.83.15l0 0c-1.03.07-1.53 1.43-.77 2.13 1.49.8 3.38.1 5.01.6 3.74.43 7.19 2.83 8.66 6.32 4.27 10.05 11.98 18.42 21.21 24.15.7.76 3.5 2.06 2.59.04-4.14-2.69-7.12-5.21-10.41-8.89l.11-1.97s-5.67-4.5-7.9-8.63c-1.85-3.03-2.68-6.63-5.02-9.35-2.81-3.43-7.34-4.71-11.65-4.56zm138.5-14.29c-3.55-.01-7.04.62-10.58.96-1.2.12-2.28 1.46-.81 1.83 0 0 4.64-.27 6.49.59 2.5 1.18 5.35 2.99 6.56 5.41.81 1.62-.17 3.93-1.39 4.75-1.61 1.08-4.15 1.38-6.06 1.26.44-.48 1.05-1.08 1.51-1.54 1.99-1.99-.6-2.65-2.22-2.3-2.18.47-4.25 1.7-5.51 3.53-.52.96.68 1.32 1.27.5 1-1.4 2.75-1.93 4.51-2.03-.55 1.07-1.93 1.29-2.2 2.24-.44 1.57 2.11 1.19 3.14 1.27 2.56.2 6.17-.54 7.74-2.79 1.73-2.48 1.02-6.06-1.2-8.12-.25-.23-.46-.46-.64-.68.48-.08.96-.16 1.44-.18 3.21-.13 6.98 2.21 9.75 3.75.63.35 1.31-.52.81-.99-.5-.47-1.19-.72-1.8-1.03-2.89-1.48-6.84-3.65-10.1-3.23-.28.04-.59.05-.88.1-.04-.91.87-1.52 2.85-1.57 3.75-.11 8.52-.27 13.27 1.4 1 .35 2.19-.44 1.02-1.06-5.83-1.65-11.38-2.08-16.96-2.09h0zm29.45-.6c-.91.01-1.64.37-1.64 1.17 0 .52.65 1.05.65 1.05s.6-.46.73-.62c.31-.35.81-.46 1.04.07.58 1.32.39 2.48-.03 2.92-.43.45-1.01.64-1.31.18-.4-.62-.97-1.06-.97-1.06s-.75.34-.63 1.29c.21 1.72 1.67 2.62 3.51 2.62 1.28 0 2.53-.87 2.53-3.37 0-2.19-1.08-3.75-2.92-4.16v0c-.33-.07-.65-.11-.96-.1zm46.76-1.2c-1.24.13-2.49.4-3.62.94-1.88.84-3.22 2.63-3.65 4.63-.37 1.83-.57 3.85.31 5.57.6 1.12 1.27 2.27 1.32 3.58.25 1.99-.65 3.97-2.11 5.3-.98.38-.73 2.04.42 1.73.1-.06.19-.13.29-.2.24.07.47.15.69.27 1.03.53 1.71 1.53 2.25 2.53.1.25.33.46.62.45.4.01.71-.42.59-.8-.37-.9-.84-1.78-1.49-2.51-.4-.46-.89-.83-1.42-1.13.15-.18.31-.35.45-.54.49-.32 1.07-.52 1.66-.54.95-.05 1.93.38 2.49 1.16.18.28.57.38.85.2.32-.19.38-.67.14-.94-.51-.82-1.34-1.41-2.26-1.7-.6-.19-1.23-.24-1.86-.18.16-.48.27-.98.34-1.48.16-.15.33-.3.52-.42 1.02-.65 2.4-.73 3.45-.1.19.1.43.09.61-.02.35-.19.41-.72.11-.98-.52-.39-1.13-.64-1.76-.75-.98-.19-2.01-.04-2.91.37-.04-.36-.09-.73-.18-1.08 0-.02-.02-.05-.02-.07.73-.89 1.51-1.8 2.56-2.31.9-.44 1.94-.3 2.86-.01.34.07.67.32 1.02.2.45-.14.56-.79.18-1.07-.32-.19-.69-.29-1.05-.42-1.11-.38-2.36-.5-3.48-.06-1.08.42-1.96 1.18-2.76 2.01-.24-.45-.48-.9-.68-1.36.44-.98 1.04-1.89 1.84-2.61 1.45-1.36 3.53-1.97 5.48-1.68.34.05.77.16 1-.18.31-.37.02-.99-.46-1-1.59-.34-3.27-.23-4.78.37-1.4.55-2.6 1.52-3.52 2.7.01-1.31.25-2.64.9-3.78 1.06-1.79 3.19-2.51 5.14-2.81.74-.12.67-1.26-.08-1.29zm95.09-2.21c-2.47-.1-5.45 1.42-6.7 3.41 3.09.92 6.64 1.46 6.48 5.2-.19 4.43-6.59 5.91-8.58 8.45-1.29-1.03-3.06-.27-4.8 1.6-5.93 6.41-9.68 14.36-10.42 23.27-.11 1.32.77 6.79 1.85 8.4-3.29 2.35-6.46 4.85-9.51 7.5-13.47 11.66-23.49 28.56-23.09 46.69.3 13.72 5.82 27.92 13.01 39.55l1.48-1.28s-2.31-4.44-2.91-5.56c-5.91-11.05-10.22-23.77-9.4-36.48 1.2-18.48 13.1-34.09 27.11-45.45 1.47-1.19 7.88-5.68 7.88-5.68l-3.07-.71c-4.05-10.28 1.44-21.14 8.28-28.76 2.07-2.31 2.99-1.74 2.68-.85-.71 2.07-2.13 4.26-1.76 6.03 1.06-1.31 2.58-3.71 3.33-5.04 2.69-4.78 9.55-6.09 10-12.5.16-2.31-1.94-4.58-4.25-5.5 4.02-1.28 8.31 1.43 9.73 5.48.82 2.33.29 4.28.37 6.02.01.28.02.97.29 1.04.4.12 1.03-.66 1.02-1.08.31-1.32.76-3.61-.28-6.14 2.15-.83 5.45.61 4.9 5.18-.28 2.34-2.16 4.21-2.9 6.06-.01.55.81.8 1.13.38 2.26-3.29 5.74-6.72 9.93-6.98 4.01-.24 11.02-3.63 10.59-6.89 2.93.57 2.55 4.12 1.79 5.58-.33.63-1.18 1.45-1.67 1.95-2.62 2.64-6.08 3.35-8.85 5.77-.6.41.01 1.41.65 1.11.97-.71 2-1.35 3.07-1.89 2.46-1.23 5.08-2.34 7.04-4.32.33-.33.69-.66.97-1.05 2.36 1.41.05 5.53-1.93 5.42 3.28.1 8.27-1.88 14.1 1.28 1.51.82 2.4 1.59 1.89 2.27-3.77-.42-8.04.19-11.26.92-.52.22-.45 1.04.08 1.21.36.06.72-.07 1.07-.09 3.4-.46 7.25-.74 10.73-.33 3.02.36 14.83 4.13 11.88 6.01-.01 0-.02 0-.03 0-.33.02-1.22.05-1.34.06-2.47.03-4.88-.56-7.28-1.05-3.37-.69-6.84-.78-10.26-.14-.93.17-1.4 1.44-.32 1.4.82-.03 1.61-.34 2.43-.43 3.39-.36 6.72.53 9.98 1.33 2.24.55 4.1.82 7.24.87 6.86.09 13.34-4.81 12.34-9.9 6.01 4.05 1.4 11.62-3.99 14.36-3.45 1.75-7.24 2.3-9.52 2.09-3.37-.31-10.51-1.77-14.61-1.37-.71.04-.8 1.06-.15 1.27.69.04 1.38-.02 2.07.02 4.12.17 6.04.9 9.68 1.73 1.98 4.61-4.64 5.93-8.82 5.85-3.53-2.32-8.49-3.03-12.18-2.77-.48-.07-1.14.09-1.26.64-.08.46.39.77.8.73 4.86.1 8.66 1.03 12.09 3.44 2.04 2.35 6.41 4.47 9.75 4.56 0 .85-2.12 2.66-2.99 2.94-7.67 2.48-14.73.31-21.52-1.49-3.3-.9-6.76-.62-10.11-.23-.69 0-.77 1.1-.14 1.27 1.32 0 2.64-.11 3.96-.09 3.16-.05 5.88.98 8.49 1.61 2.07 3.32 6.27 4.53 9.77 5.72-3.14 5.09-8.27 2.96-12.1 1.38-2.65-1.99-6.32-3.47-9.46-3.39-.71.04-.64 1.1-.1 1.24 2.02.19 3.98.85 5.75 1.82.88.33 2.65 1.46 2.65 1.46-.14 1.97-3.31 2.8-6.46 2.08-1.67-.53-2.66-1.1-4.48-.76 3.62 2.6 5.33 6.65 3.23 8.42-.8-.37-1.44-1.64-1.92-1.63-1.93-1.91-4.58-3.23-6.75-4.06-.67-.15-1.04.72-.62 1.1 11.88 4.34 8.13 16.02-2.03 15.96 2.25-1.82 2.77-4.06 2.67-6.17-.24-4.89-5.56-6.08-9.68-5.03-6.8 1.36-14.2-2.99-13.58-12.08-3.78.37-1.76 7.63-.81 8.95 4.76 6.54 13.72 7.27 19.73 6.41 4.37 4.25-.89 8.13-4.4 8.69 10.5 5.69 18.88.01 18.58-8.08 3.56-.09 5.54-4.74 3.93-7.75 3.66.43 7.69-.86 7.23-3.12 6.54 1.66 14.38-1.21 14.84-6.68l-6.11-1.91c6.19 1.49 16.22-1.99 16.29-8.55-2.73.78-5.13.03-7.15-1.61 4.28-.19 8.76-2.66 7.71-7.29 4.01.3 8.56-.98 11.9-3.3 5.74-3.99 8.51-17.29-3.11-18.98 2.78 4.97-.73 8.73-6.37 9-3.3-3.87-7.7-5.31-11.9-5.93-1.57-5.43-8.73-6.29-14.2-6.15 1.21-2.68.09-5.18-2.12-5.3 1.96-1.92-.02-6.87-6.16-6.34-1.44 6.81-9.57 5.14-14.39 7.02-.78-2.53-3.37-6.71-6.96-5.97-.85-4.04-5.81-4.9-9.67-5.05zm-117.9-1.97c-.24-.04-.47.1-.6.29-.19.26-.11.64.13.83.47.32.94.64 1.36 1.02.37.31.67.7 1.06.99.32.27.86.07.98-.31.09-.33-.08-.65-.23-.93-.52-1.01-1.54-1.79-2.69-1.89zm19.71-1.23l-.01 0c-3.05-.02-5.65 1.12-7.89 3.24-1.72 1.62-3.07 3.77-3.62 6.1-.87-.46-1.95-.56-2.86-.14-.31.17-.69.33-.85.67-.23.45.28 1.01.75.88.36-.18.76-.34 1.17-.28.62.1 1.12.51 1.52.99 0 .32-.01.64.02.96-.13 2.29 1.87 1.25 2.01-1.12.2-3.35 1.8-5.53 3.85-7.29 2.6-2.22 5.86-2.72 9.05-1.65 4.29 1.44 8.17 4.87 9.28 9.36.15.6.21 1.54.21 1.94-.01 2.26-1.01 4.34-1.85 6.39-1.03 2.51-1.41 5.19-2.3 7.74-.94 2.68-2.85 5.48-5.94 5.81-2.52.27-6.17-2.15-7.82-1.52-.79.3-5.29 1.88-6.25 3.43-.74 1.21-.26 1.24.86 1.15 0 0 .82-.53 1.57-.13 1.09.7 1.98 1.18 2.58 2.32.52 1.04.96 2.2.87 3.38.04.41-.28.79-.69.55-.02 0-.03-.01-.05-.02-.92-.82-2.6-1.59-3.75-1.99-.1-.04-.21-.05-.32-.03-.5.05-.7.79-.3 1.09 1.05.6 2.09 1.26 2.93 2.15.69.74 1.29 1.62 1.46 2.63.04.37.11.83-.18 1.12-.22.08-.42-.01-.6-.13-.59-.73-1.51-1.14-2.44-1.12-.32.01-.64.06-.95.16-.49.07-.61.7-.31 1.04.58.45 1.44-.21 2.06.32.99.71 1.29 1.99 1.54 3.11.3 1.43.72 3.02 1.98 3.91.49.35 1.07.46 1.64.41-.04.08-.07.17-.11.25-.53 1.05-1.25 2.2-2.46 2.53-1.27.24-2.47-.54-3.35-1.39-.29-.76-1.63-.5-1.32.36.47.68 1.1 1.25 1.78 1.72 1.24.91 3.03 1.17 4.38.34 1.56-.93 2.41-2.65 3.05-4.29.34-.59.52-1.61-.38-1.78-.75-.04-1.32.85-2.11.59-.67-.29-.97-1.02-1.2-1.67-.31-.96-.52-1.98-.89-2.92.55-.12 1.05-.53 1.27-1.06.47-1.11.19-2.37-.32-3.4-.14-.26-.29-.51-.46-.75.68-.32 1.61-.95 1.69-1.67.13-1.47-.32-2.94-1.03-4.22-.63-1.14-1.07-2.13-2.18-2.83 1.49-.65 2.16-.95 3.72-.5 2.77.8 7.34 1.9 10.13.78 3.61-1.45 4.48-5.3 5.3-8.89.65-2.86 1.66-5.59 2.75-8.29.91-2.26 1.7-4.89 1.04-7.27-1.48-5.4-7.36-9.35-12.64-10.67-.99-.25-2.01-.4-3.02-.4zm-13.11-.62c-.12-.02-.24.01-.35.06-.31.15-.4.62-.16.87.47.46.96.88 1.44 1.31.19.16.37.34.58.48.19.13.46.12.64-.03.19-.14.26-.39.18-.61-.16-.47-.48-.88-.84-1.22-.42-.39-.93-.73-1.5-.85zm-8.7-3.1c-.13-.01-.26.02-.37.08-.38.18-.44.76-.11 1.02.55.35 1.15.59 1.71.92.51.28.98.63 1.45.98.28.18.53.47.89.45.41-.02.7-.49.54-.86-.34-.62-.83-1.14-1.39-1.57-.79-.58-1.74-.93-2.71-1.02zm-29.2-4.34c-1.31.02-2.73.4-3.89.99-1.87.96-3.93 3.08-3.98 5.61-.09 4.28 2.83 8.06 5.58 8.95 1.7 1.33 3.61 1.82 5.03.87 1.68-1.13-.07-2.69 1.09-3.4 1.94-.45 4.54-.12 6.18 1.13 2.6 1.98 4.79 4.61 7.45 6.5.41 1.15.63 2.41.25 3.59-.45 1.45-1.63 2.53-2.84 3.38-.29.25-.71.37-.9.71-.25.46.22 1.05.72.92.52-.22 1-.55 1.48-.85 1.47-.97 2.79-2.33 3.29-4.06.24-.79.29-1.62.23-2.43.45.19.91.35 1.4.47 2.77.52 5.79.21 8.32-1.08 1.92-.95 3.01-3.34 2.15-5.37.05-1.14-1.93-2.54-1.78-.7.78 1.41.74 3.5-.9 4.28-2.21 1.18-4.89 1.33-7.32.91-3.89-1.07-6.09-4.74-9.12-7.11-2.49-2.12-6.1-4.66-9.01-3.51-1.64.65-2.36 1.63-2.94 4.25-1.75.51-3.61-1.17-4.79-2.33s-2.1-4.31-1.26-6.49c.98-2.55 3.61-3.28 5.95-4.04.5-.16.61-.88.17-1.16-.19-.02-.37-.03-.56-.03zm4.89-6.44c-4.12.06-8.21.56-12.12 2.01-3.66 1.4-7.78 4.04-8.18 8.33-.07.78.1 1.81.1 1.81s-1.84.54-2.91.79c-6.62 1.54-13.35 3.55-19.27 7.19-2.44 1.63-5.34 3.55-5.87 6.61-.45 2.63.81 5.23 2.28 7.49.67 1.03 1.16 1.95.53 3.89-1.69 3.47-1.81 7.71-1.69 11.5.13 4.47 1.07 10.28 6.04 11.77 1.77.37 3.47.56 5.01.63 4 .18 8.04-.4 11.87-1.6l-3.02 10.87c2.36-1.14 5.48-1.07 5.06-7.55 4.72-5.72 13.52-8.12 18.78-4.48.61 1.96.85 3.05-.75 7.27-1.35 3.55-2.84 7.01-2.6 10.91.03 2.4-.02 4.8.28 7.17-3.15-1.41-6.46-2.57-9.93-3.55-8.4-2.38-22.37.42-33.07-.13-7.21-.37-14.09-.26-20.24-4.44-4.89-3.33-3.68-10.08-1.56-12.28 4.28-4.44-.1-5.02-3.43-4.76-9.19.72-14.42 11.45-12.39 19.04 2.08 7.77 9.48 12.48 16.03 14.3 13.82 3.83 33.62-1.22 47.9-1.52 10.85-.23 19.39 2.16 27.71 9.7 1.27 1.15 2.26 3.36 3.23 4.41-1.8 1.86-4.27 2.44-6.81 2.61.83-1.19 1.34-2.61 1.28-4.06-.06-.4.01-.85-.25-1.18-.31-.41-1.05-.18-1.12.31.01.62.01 1.26-.17 1.86-.37 1.29-1.29 2.31-2.33 3.13-.57 0-1.15 0-1.7-.01-10.66-.14-21.26-3.06-30.43-8.53-3.5-1.92-7.3 1.84-7.41 5.34-.14 1.31.21 2.44.84 3.41-2.68.75-4.97 2.86-6.74 3.98-2.5 1.56-4.46 3.87-7.5 3.13-2.23-.55-3.92-2.93-3.86-5.32 0-1.86-4.74-1.01-5.77-.37-2.24.85-3.84 2.97-4.25 5.3-.21.99-.23 2.06-.06 3.08-6.48-4.41-15.68-10.17-22.29-15.52-10.21-8.25-20.5-18.08-29.39-26.64-1.9-1.83-2.08-4.58-.98-6.48 1.17-2.02 5.15-2.57 6.54-6.05 2.47-6.02-.98-14.66-6.29-19.08l-1.79 1.74c1.1 1.21 2.1 2.52 2.89 3.96 1.81 3.3 3.3 8.4.04 11.28-3.38 1.93-5.96 5.56-5.76 9.57.26 4.78 4.34 7.87 7.19 11.23 15.65 15.67 34.66 30.74 49.36 42.33l2.96-2.29c2.95 1.91 6.7 1.66 9.99.93 1.02-.5.37-1.34-.5-1.3-2.52.14-5.26.23-7.52-1.08-1.88-.97-2.31-3.33-1.92-5.23.18-1.76 1.46-3.13 2.97-3.93.1.63.35 1.34.49 1.76 1.3 3.23 5 4.88 8.33 4.6 4.16-.41 7.55-3.13 10.85-5.45 1.37-.84 2.61-2.11 4.27-2.3.19.06.41.08.63.09.19.14.4.28.6.41-.05.23-.11.45-.19.66-.25.7-.74 1.28-1.31 1.76-.2.14-.38.36-.33.62.05.34.45.55.76.4.52-.3 1.01-.67 1.42-1.11.43-.45.75-1 .99-1.57.4.19.81.37 1.22.52.44.17.89.33 1.34.48-.07.37-.15.74-.28 1.09-.33.97-1.09 1.71-1.85 2.36-.2.18-.5.35-.48.66-.01.38.45.65.78.46.74-.49 1.48-1.02 2.07-1.69.61-.68.98-1.52 1.26-2.38 1.45.46 2.91.85 4.38 1.2-.73 1.61-1.92 2.96-3.26 4.1-.22.23-.6.37-.63.72-.05.4.42.72.78.53.55-.35 1.06-.75 1.56-1.16 1.27-1.07 2.4-2.35 3.14-3.84 1.13.24 2.27.45 3.42.63-.26.78-.52 1.55-.86 2.3-.49 1.12-1.26 2.09-2.12 2.95-.11.11-.16.25-.16.4-.01.4.51.66.83.42.54-.46 1.05-.94 1.51-1.48 1.09-1.26 1.75-2.81 2.39-4.34 1.12.16 2.24.29 3.36.41-.05.1-.11.19-.16.29-.68 1.46-1.02 3.05-1.2 4.64-.01.3-.13.66.08.92.24.32.8.22.92-.17.16-.94.38-1.87.69-2.77.35-.99.78-1.98 1.49-2.76 1.19.1 2.38.19 3.57.25-.54 1.53-.77 3.17-.53 4.78.02.18.13.34.28.42.33.19.79-.07.79-.45-.08-1.62.36-3.24 1.14-4.65 1.15.05 2.29.09 3.43.12-.09.26-.18.53-.25.79-.34 1.22-.34 2.52-.19 3.77.02.15.1.3.22.39.3.24.79.04.84-.33.02-.54.02-1.09.09-1.63.11-1.07.52-2.09 1.06-3.02 1.2-.02 2.4-.05 3.62-.1-.27 1.35-.27 2.76.08 4.1.05.21.23.37.44.4.34.07.68-.26.62-.61-.18-1.35.03-2.73.53-3.99 1.24-.09 2.46-.23 3.67-.45.24 1.13.3 2.3.14 3.44-.01.03-.01.07-.01.1-.01.35.39.62.72.49.23-.07.34-.3.38-.52.32-1.25.41-2.56.3-3.85 1.13-.29 2.23-.67 3.29-1.16.05.07.1.13.14.2.48.91.65 1.95.65 2.97-.03.24.02.53.26.66.28.19.71.02.8-.31.12-.65.15-1.31.11-1.96-.05-.79-.21-1.59-.55-2.3.36-.22.72-.45 1.06-.7.43-.29.82-.61 1.18-.95.1.06.21.1.31.17.9.61 1.6 1.46 2.18 2.37.08.14.23.23.38.25.35.07.69-.29.6-.64-.1-.32-.28-.61-.43-.91-.51-.91-1.16-1.78-1.97-2.44.6-.8 1.08-1.68 1.45-2.61.04 0 .07.01.11.01 1.19.19 2.24.87 3.13 1.65.2.17.39.42.68.38.37-.03.6-.48.41-.8-.29-.4-.65-.75-1-1.09-.81-.76-1.77-1.36-2.84-1.67.28-1.07.42-2.18.48-3.3.08 0 .17 0 .25.01 1.03.03 2.04.26 2.99.65.22.12.5.18.7.01.28-.2.28-.65 0-.85-.62-.39-1.29-.7-1.99-.95-.62-.22-1.27-.34-1.93-.44-.01-.49-.03-.97-.07-1.45-.02-.54-.07-1.09-.11-1.64.35-.05.71-.09 1.06-.1.99-.07 1.98.12 2.92.43.25.08.53.22.78.05.33-.19.33-.72 0-.91-.69-.34-1.41-.63-2.16-.82-.88-.23-1.79-.25-2.7-.24-.11-1.2-.24-2.4-.37-3.6.19.06.38.11.57.16 1.2.29 2.45.29 3.66.1.15-.01.3-.1.38-.23.22-.3.01-.79-.36-.83-.34-.01-.69.01-1.03-.01-1.2-.04-2.36-.42-3.42-.96-.11-1.02-.21-2.03-.3-3.05 1.68.49 3.82.75 5.44.46.15-.03.28-.11.36-.24.24-.33-.03-.84-.43-.83-.47.04-.94.05-1.4.01-1.28-.1-2.89-.56-4.11-1.18-.06-.94-.09-1.88-.1-2.82 2.17.92 3.97.97 6.33.73.36-.06.73-.05 1.07-.19.43-.19.32-.9-.13-.99-.38-.01-.75.05-1.13.05-2.1.04-4.24-.34-6.11-1.31.03-.83.1-1.67.2-2.49 2.02.69 4.21.81 6.33.62.85-.1 1.71-.17 2.53-.4.5-.09.46-.9-.01-1.02-.81.04-1.63.17-2.45.19-2.08.04-4.24-.15-6.15-1.04.23-1.22.56-2.43 1-3.63 2.8 1.03 5.9 1.27 8.81.6.32-.11.73-.09.95-.38.28-.35-.07-.92-.51-.84-2.89.64-5.97.28-8.68-.9.4-1.06.81-2.14 1.18-3.26 2.66 1.13 5.7 1.25 8.48.51.42-.01.94-.41.67-.86-.22-.44-.73-.23-1.1-.17-2.55.48-5.28.17-7.59-1.05.32-1.14.59-2.29.73-3.45.48.23.99.4 1.5.53 2.49.6 5.09.24 7.53-.4.54-.07.51-1-.03-1.04-1.11.15-2.22.35-3.35.4-1.86.11-3.81-.18-5.53-1.24.01-.82-.06-1.63-.21-2.43 1.08.35 2.25.45 3.38.45 2.26-.05 4.55-.5 6.56-1.57l0 0c.11-.06.19-.15.24-.25.21-.4-.23-.9-.65-.73-1.85.87-3.92 1.19-5.95 1.15-1.28-.06-2.62-.21-3.74-.87-.13-.09-.28-.17-.44-.23-.21-.51-.47-1-.77-1.49.58.08 1.16.12 1.73.11 3.45-.11 6.86-1.32 9.63-3.37.72-.15.34-1.43-.34-1.06-1.96 1.37-4.23 2.31-6.59 2.72-1.96.32-4.09.41-5.92-.49l-.07.12c-.6-.65-1.23-1.26-1.9-1.83 1.95.38 3.94.43 5.9-.01 4.17-.92 8.08-3.31 10.66-6.73 2.39-3.18 2.83-7.48 1.46-11.28-.44-1.2-1.96-1.62-1.59-.44.51 1.65 1.23 3.25 1.14 4.98-.24 4.47-3.57 8.1-7.36 10.18-3.8 2.09-8.45 2.6-12.49 1.02-3.17-1.24-6.27-2.85-8.89-5.06-3.91-3.29-5.39-8.48-6.05-13.36l-.01-.01c-.08-.64-1.06-.7-1.21-.06.29 3.56 1.11 7.16 2.83 10.33 1.24 2.27 3.07 4.03 5.13 5.51-1.2-.26-2.42-.44-3.64-.55-.05-.1-.13-.19-.23-.27-1.94-1.03-3.77-2.42-4.91-4.33-.47-.7-.71-1.49-.91-2.3-.61-1.25-1.52.25-.91 1.01.63 2.34 2.18 4.28 4.06 5.77-.16 0-.32 0-.48 0-.59.03-1.2.06-1.82.11-.09-.13-.2-.25-.36-.32-1.69-.87-3.1-2.4-3.54-4.28l0 0c-.03-.11-.09-.21-.18-.28-.66-.46-1.08.5-.78 1.02.36 1.58 1.29 2.97 2.49 4.05-.97.1-1.94.23-2.9.39-.03-.05-.07-.1-.12-.15-.81-.65-1.42-1.55-1.7-2.55-.1-.28-.06-.63-.3-.85-.28-.26-.8-.05-.83.33-.02 1.27.4 2.52 1.12 3.56-2.71.6-5.17 1.51-6.8 2.97-.87.88-1.6 2.2-1.78 3.4-.89 1.17-1.88 2.24-2.95 3.15-3.57 1.55-7.48 2.17-11.38 2.07-1.49-1.03-2.57-2.56-3.31-4.2-1.39-3.15-1.88-6.63-1.91-10.04 0-.75-1.13-.88-1.28-.14-.15 3.11.15 6.25 1.02 9.24.53 1.75 1.79 3.62 2.67 5-7.82-.52-7.34-17.33-3.9-22.37.77.29.86.9.61 1.68.74 1.68 1.93-.23 1.72-1.37-.67-3.64-3.59-4.24-4.58-6.89-.55-1.45-1.16-3.24-.41-4.69 1.42-2.75 3.78-4.34 6.43-5.74 5.81-3.07 12.23-5.26 18.8-5.67 2.5-.16 5.01.19 6.84-.39-.88-1.08-2.72-1.48-3.88-1.72-1.58-.83-.61-3.75-.4-4.28 2.73-3.95 7.78-5.21 12.27-5.86 10.15-.97 20.31.74 30.33 2.22 7.42 1.02 13.6 3.51 20.86.85.54-.06 2.97-1.48 3.73-1.79.85.94 1.6 2.81.58 4.14-2.49 2.09-6.39 1.18-8.97 1.68-.37.32-.18 1 .3 1.09.81.12 1.63.2 2.45.25 2.42.09 4.66.23 6.68-.34 4.94.18 10.41 7.7 14.49 11.36 1.63 1.46 4.03 1.76 5.94.82 1.54-.62 2.39-2.08 2.64-3.65 1.07 1.9 1.46 4.19.82 6.3-.39 1.55-1.63 2.91-3.29 3.02-1.58.3-2.99-.62-4.5-.81-1.71.35-.04 1.76.76 2.2 1.01.56 1.47 1.87 1.41 2.87-.06 1.02-.4 2.12-1.22 2.78-.78.4-1.17.1-1.77-.32-.46-.43-.9-.89-1.29-1.38-.06-.07-.12-.12-.2-.16-.47-.27-1.09.17-1 .71.27 1.42 1.02 2.27 1.94 3.21 1.26 1.24 2.78 2.3 3.64 3.89.23.49.54 1.09.28 1.63-.38.5-1.1.43-1.64.33-.5-.04-.95-.29-1.43-.39-.87-.34-1.78-.52-2.74-.48-.39.01-.7.42-.61.8.41.83 1.59.8 2.29 1.32.23.11.45.23.66.36 1.46.92 2.46 2.43 3.18 3.98.87 1.74 1.61 3.93 3.62 4.63 1.97.58 4.13-.23 5.47-1.75.92 2.57.31 5.71-1.82 7.51-1.59 1.34-3.88 1.9-5.88 1.3-1.98-.83-2.81-2.95-4.03-4.56-1.63-2.45-4.12-4.31-6.96-5.08-.62-.32-1.84-.28-1.48.71.42.54 1.22.5 1.79.83 2.38.9 4.22 2.8 5.44 4.99.46.79.92 1.63 1.43 2.42 1.29 2.63 2.47 5.34 3.08 8.21.14.67.24 1.49.23 2.09 0 .76-.04 1.53-.34 2.24-.33.56-1.11-.18-1.48-.41-1.59-1.35-2.65-3.2-3.63-5.02-.14-.83-1.5-.76-1.36.15.65 1.81 1.44 3.59 2.51 5.19.03.05.07.09.1.13 1.32 2.1 2.38 4.42 2.67 6.9.14 1.17.19 2.38-.11 3.53-.16.6-.69 1.4-1.35.86-.44-.25-.66-.69-.94-1.09-.91-1.79-1.77-3.66-3.44-4.87-.15-.13-.32-.18-.48-.15-.47.06-.83.68-.41 1.1 1.33 1.4 1.86 3.26 2.63 5.07.4.93.82 1.75 1.44 2.47 1.82 2.19 4.85 2.68 7.55 2.65 1.34.02 2.62-.47 3.66-1.27.01.33.02.67 0 1-.01 2.03-.67 4.33-2.58 5.35-2.02 1.08-4.49 1.4-6.7.78-4.12-1.15-7.19-4.79-8.36-8.82.13-.94-1.34-1.39-1.41-.31.57 2.8 1.84 5.5 3.79 7.61.82.88 1.77 1.67 2.79 2.33.02.03.02.05.04.08.87.78 1.6 1.3 2.37 2.18 1.42 1.5 2.29 3.51 2.38 5.57.14 1.56-.14 4.04-1.25 5.22-.39.43-.86.16-1.27-.25-.88-2.22-2.16-4.29-3.72-6.1-.18-.61-1.02-1.21-1.55-1.17-.31.03-.51.29-.38.92 1.79 2.82 3.63 5.72 4.26 9.05.79 3.53-.34 7.14.31 10.68.44 2.55 1.85 5.42 4.53 6.16 1.66.43 3.29-.11 4.7-1.03-.26 1.35-.63 2.68-1.27 3.91-1.18 2.46-4.02 4.41-6.8 3.71-3.1-1.07-5.25-4.02-6.17-7.07-1.01-4.38-1.78-8.98-4.33-12.78-.38-.59-1.33-.21-1.19.48 2.11 3.3 2.84 7.22 3.49 11.03.3 2.57 1.35 5.02 2.95 7.06 0 0 0 0 0 0 .27.44.58.88.6 1.42-.79 3.24-3.83 2.3-5.51.54-.68-.84-1.38-1.66-2.04-2.49-1.88-2.32-3.18-5.11-3.62-8.07-.06-.37-.38-.54-.68-.52-.3.02-.59.23-.61.6.31 3.07 1.41 6.05 3.14 8.61 1.81 2.67 4.03 5.19 4.82 8.4.47 2.05.59 4.4-.56 6.26-.64 1.21-1.98.28-2.54-.48-.75-1.01-1.54-2.13-2.22-3.02-2.55-3.26-5.2-7-4.9-11.35-.02-.81.76-3.06-.27-3-.15.01-.33.06-.56.18-.64 1.92-.68 4.03-.34 6.02.77 4.69 4.22 8.24 6.51 12.23 1.07 1.87 1.4 4.37 1.14 6.3-.28 2.03-1.93 3.54-2.49 5.44-.69 2.31-.58 4.89.34 7.11.45 1.11 1.82 2.13 2.87 2.63-.5.18-1.02.33-1.55.4-2.86.43-6.01-1.19-6.92-4.03-.14-.51-.29-1.01-.45-1.48-1.01-2.35-.91-4.95-1.16-7.45-.24-2.8-1-5.64-2.73-7.9-.16-.24-.4-.31-.62-.27-.37.06-.7.43-.53.87.46.77.96 1.53 1.26 2.38 1.29 3.12.91 6.56 1.23 9.84.23 3.06.79 5.39 1.45 8.5 0 0-2.93-.37-3.85-1.69-1.36-1.95-1.66-3.5-2.08-5.76-.6-2.71-.74-5.7-2.49-7.98-.12-.49-.6-.71-1-.68-.4.04-.72.33-.51.89.59.75.98 1.64 1.19 2.56.63 2.85.53 5.82 1.31 8.65.56 2.37 1.67 4.62 3.28 6.44-1.09.26-2.14.5-3.21.19-2.09-.6-4.34-2.36-4.79-4.6-.48-2.38-1.12-4.71-2.26-6.86-.13-.27-.37-.37-.61-.35-.4.04-.78.41-.58.88 1.49 4.15 1.88 8.64 1.59 13.02-.2 3.1-2.41 5.65-2.46 8.77-.06 2.57.11 5.31 1.21 7.67-1.76-.13-3.51-.61-4.89-1.74-2.79-2.24-3.72-6.01-3.75-9.45.08-2.89.04-5.76-.38-8.67-.16-1.09-1.46-2.05-1.49-.56.53 2.11.61 4.31.36 6.46-.38 2.67-.35 5.45.3 8.07.16.7.38 1.83-.55 2.04-1.53.31-2.87-.75-3.88-1.76-1.14-1.13-1.65-2.72-1.73-4.3-.01-.23-.08-.79-.08-.81-.03-1.33.2-2.64.46-3.94.61-3.01 1.36-6.21.35-9.23-.07-.2-.22-.36-.59-.44-.86.1-.56 1.14-.45 1.72.66 3.31-.86 6.51-1.44 9.73-.21 1.17-.25 2.36-.17 3.54.02.25.06.5.05.75-.01.34-.04.68-.14 1.01-.1.42-.08 1.63-.54 1.72-.55.09-1.29-1.07-1.49-1.54-.33-4.74-.55-9.78-2.08-12.91-.2-.81-1.48-.48-1.26.33 1.19 5.12 1.78 10.56.38 15.7-.78 3.19-2.4 4.63-4.31 7.17-1.2 1.6-1.84 4.88-1.79 7.47-.28-.34-.57-.7-.84-1.03-1.73-2.1-3.01-4.95-2.05-7.69 1.17-3.34 3.55-6.16 4.07-9.76.38-2.69.4-5.15-.35-7.72-.1-.33-.45-.99-.81-1.07-1.29 1.02-.04 3.15-.03 4.69.02 3.49-.93 6.86-2.79 9.75-1.77 2.75-2.95 6.28-1.6 9.49 1.61 3.84 5.85 6.54 6.61 10.75.92 5.12.55 8.54-4.66 11.66.64-3.04.97-6.28.18-9.3-.66-2.54-2.04-5.03-4.3-6.53-2.26-.14.3 2.2.78 3.02.94 1.6 2.97 5.8 1.41 5.71-3.63-.22-5.61-4.52-8.21-6.98-2.29-2.53-2.55-6.08-2.49-9.37.03-1.81.94-5.19.19-5.55-1.53-.1-1.74 3.87-1.9 5.67-.19 2.18-.1 4.49.48 6.64.1.55.28 1.12-.1 1.57-.86.2-1.66-.4-2.25-.95-4.05-4.5-3.65-10.49-2.36-15.65l0 0c.2-.71-.81-1.14-1.18-.5-1.05 2.67-1.78 5.52-1.73 8.41 0 .92.12 1.83.32 2.72.06.39.15.78-.17 1.07-.84.48-1.89.04-2.59-.51-1.44-1.22-2.11-3.1-2.43-4.91-.57-3.84.54-7.71 2.16-11.17.37-.8-.92-1.31-1.21-.48-1.85 3.69-3.11 7.87-2.55 12.03.35 2.23 1.2 4.55 2.99 6.02 1.27 1.04 3.25 1.55 4.71.61.54 1.18 1.22 2.28 2.04 3.28 1.12 1.3 2.81 2.45 4.6 2.1.41-.08.76-.28 1.05-.55.41.67.9 1.3 1.48 1.87 2.31 2.58 4.81 5.15 7.96 6.68.76.44 1.6 1.23 1.58 2.7-.01 1.8-.88 4.37-2.39 8.06 1.94-.53 6.59-4.72 8.1-6.07 2.95-2.65 3.28-7.02 2.73-10.72-.28-1.89-1.16-3.6-2.26-5.19-.43-3.62.12-6.65 2.02-9.16 2.4-3.17 4.2-3.19 5.04-7.68 1.78.73 3.03.34 3.67-.46.52.92.68.86 1.55 1.48 1.62 1.22 4.03 1.85 5.83.67.14-.09.27-.2.38-.31 1.54 2.84 4.7 4.61 7.92 4.56 1.11-.09 3.85-.68 3.94-.7-.63.56-1.27 1.11-1.93 1.63-.57.44.01 1.37.65 1.05.83-.58 1.61-1.24 2.38-1.9 3.18-2.79 6.17-5.81 8.86-9.07.57-.75 1.22-1.48 1.64-2.33.27-.79-.85-1.42-1.39-.79-1.2 1.86-2.62 3.57-4.09 5.23-1.93 2.14-3.93 4.24-6.09 6.15-.56-.94-1.45-2.54-1.84-3.82.63-.54 1.26-1.09 1.88-1.65 2.42-2.23 4.8-4.54 6.87-7.11.28-.43.78-.81.72-1.37-.05-.67-.98-.97-1.42-.46-.48.7-.97 1.38-1.52 2.02-2.09 2.51-4.39 4.85-6.78 7.07-.17-1.79-.27-3.64.22-5.38 1.69-1.62 2.62-3.39 4.13-5.28 2.52.58 7.22 1.08 9.01-2.35l-.02-.03c6.04.45 7.48.83 12.86-2.92.88-.62 4.65-4.09 2.77-5.8-1.19.84-4.55 1.58-4.93 0-2.84-5.14 4.9-5.71 3.54-12.49 2.39-1.97 4.91-7.43 3.97-12.28 1.84-.19 3.93-2.16 4.88-3.33 7.55-.01 11.31-6.11 10.85-13.62-.06-.97-1.88-4.07-2.45-2.73-2.21 5.21-5.9 2.48-6.05 1.33-.68-5.31 3.35-7.81.94-12.08 2.52-.5 4.77-7.59 3.09-12.16 4.79-1.63 7.46-7.87 6.12-12.83-.14-.75-1.29-2.56-2.27-2.09-1.65 1.87-3.55 2.19-5.19 1.88.5-1.37 1.66-7.61-.06-10.84 3.81 1.22 2.35-9.77 1.97-10.34 5.41-.56 7.89-7.26 7.08-12.07-.17-.98-1.3-3.82-2.29-4.17-1.16-.07-1.78 1.41-2.67 1.89-.86.62-2.21 1.06-3.15.38-1.33-1.92.39-3.37-.9-5.06 3.58-1.47-.27-7.3 1.24-8.58 1.12-.62 2.46-4.94 2.56-6.98.25.5 4.2-6.37.87-11.62-.71-1.12-2.2-3.2-3.44-3.74-1.93-.35-1.14 1.98-1.35 3.04.03 1.86-1.35 3.13-2.82 2.06-2.3-1.68-4.14-3.93-6-6.06-2.39-2.74-4.65-6.05-8.42-6.52.4-1.47.85-4.15-4.74-6.06-3.08 1.69-7.11 2.26-10.59 2.22-9.08-.14-13.28-2.51-22.3-3.27-4.06-.34-12.88-.71-17.01-.65zm-166.3 82.35c-.16 0-.32.08-.45.24-.93 1.64-1.89 3.26-3.07 4.73-.69.88-1.46 1.7-2.31 2.43-.43.26-.85.53-1.26.83-1.83 1.36-4.05 2.27-6.36 2.08-2.69-.02-6.01-.29-7.53-2.86-.72-.87-.47-2.79-1.56-2.95l-.97.32c-.47 1.63.17 2.76.98 4.19 4.68 5.11 12.07 5.78 17.24 2.46 5.54-3.56 9.75-3.24 14.57-.98-2.96 1.02-5.33 2.87-6.8 5.65-2.47 4.52-1.5 10.41 1.89 14.19 1.47 1.29 2.32-.79 1.25-1.75-2.44-3.6-2.88-8.72-.27-12.35 1.76-2.35 4.44-4.08 7.34-4.63 1.11-.36 2.36.14 3.4-.28.75-1.75-2.32-2.24-3.33-3.23-3.07-1.9-6.68-2.69-10.26-2.71-1.49-.11-2.98.04-4.42.41.97-1.5 1.78-3.1 2.5-4.72.37-.48-.1-1.08-.58-1.07z"/>
<g stroke="#000">
<path d="m513.3 66.82l-445.5 357.5" fill="none" stroke-linecap="square" stroke-width="3"/>
<path d="m155.4 324.4c-1-1.76-3-3.86-6.15-5.95-2.19-1.45-5.18-1.89-6.87.12-1.89 2.24-1.85 5.55 1.83 7.9 1.59 1.01 2.84 1.97 3.85 3.04 2.47 2.63 3.46 5.91 4.44 12.24 3.13-4.94 6.12-11.7 2.91-17.35zm-20.9-251.6c-.09.39-1.68 1.1-1.87 1.33-3.94 1.15-8.97-3.45-9.23-6.1-.15-2.12-8.32-8.77-8.32-8.77 12.89-1.87 20.14 9.99 19.43 13.54zm-46.36-6.9c1.87 2.09 1.78 5.31-.23 6.76-2.27 1.65-7.4 1.42-9.72-.78-.83-.79-1.89-1.69-3.08-2.6-2.44-1.84-6.72-2.8-9.82-3.42 6.99-6.24 19.38-3.85 22.85.03zm-21.52 39.5c1.05-.6 2.06-1.08 2.96-1.41 2.87-1.04 5.04-.11 5.94 2.13 1.06 2.65-.18 6.28-3.37 7.11-1.81.47-2.61 1.03-4.77 2.16-2.83 1.49-5.73 4.4-8.83 7.03-.84-8.66 2.75-14.9 8.06-17.02zm39.58 36.5c1.65-1.89 1.59-5.08-.03-7.01-1.61-1.92-6.18-3.53-7.93-.07-1.5 6.09-7.32 13.66-12.72 16.39 5 .27 13.64-1.26 17.17-5.3zm-14.05 129.5c.6.21 1.08.44 1.45.7 2.4 1.67.17 4.15-2.2 6.06-2.34 1.89-5.8 2.71-7.59 2.18-3.8-1.14-8.52 1.82-12.17 3.88 3.89-10.41 16.17-14.55 20.51-12.81zm-25.54 60.4c-2.02-5.11-.52-14.65 5.32-19.97 3.28-2.99 5.39-2.11 6.87.37 1.54 2.58 1.25 6.86-1.05 8.23-1.57.94-3.25 1.87-4.94 3.24-2.12 1.72-4.25 4.13-6.2 8.12m42.29 16.2c-.4 3.99.34 8.74 1.74 13.87-6.12-5.24-9.63-11.84-10.15-17.5-.2-2.24-.02-4.32.49-6.12.77-2.69 2.23-4.66 5.32-4.23 4.01.56 5.08 3.93 4.17 6.56-.67 1.93-1.27 4.46-1.57 7.42z" fill="#fcdd09" stroke-linecap="round" stroke-linejoin="round" stroke-miterlimit="10" stroke-width="2.3"/>
</g>
</svg>
