<?xml version="1.0" encoding="UTF-8" standalone="no"?>
<svg
   xmlns:dc="http://purl.org/dc/elements/1.1/"
   xmlns:cc="http://creativecommons.org/ns#"
   xmlns:rdf="http://www.w3.org/1999/02/22-rdf-syntax-ns#"
   xmlns:svg="http://www.w3.org/2000/svg"
   xmlns="http://www.w3.org/2000/svg"
   xmlns:sodipodi="http://sodipodi.sourceforge.net/DTD/sodipodi-0.dtd"
   xmlns:inkscape="http://www.inkscape.org/namespaces/inkscape"
   width="722.7832"
   viewBox="0 0 722.78839 747.2725"
   version="1.1"
   id="svg1278"
   sodipodi:docname="DEU_Landkreis_Schwandorf_COA.svg"
   inkscape:version="0.92.5 (2060ec1f9f, 2020-04-08)"
   height="747.27252">
  <metadata
     id="metadata1284">
    <rdf:RDF>
      <cc:Work
         rdf:about="">
        <dc:format>image/svg+xml</dc:format>
        <dc:type
           rdf:resource="http://purl.org/dc/dcmitype/StillImage" />
        <dc:title></dc:title>
      </cc:Work>
    </rdf:RDF>
  </metadata>
  <defs
     id="defs1282">
    <inkscape:path-effect
       effect="spiro"
       id="path-effect3019"
       is_visible="true" />
    <inkscape:path-effect
       effect="spiro"
       id="path-effect2977"
       is_visible="true" />
    <inkscape:path-effect
       effect="spiro"
       id="path-effect2931"
       is_visible="true" />
    <inkscape:path-effect
       effect="spiro"
       id="path-effect2732"
       is_visible="true" />
    <inkscape:path-effect
       effect="spiro"
       id="path-effect2931-7"
       is_visible="true" />
    <inkscape:path-effect
       effect="spiro"
       id="path-effect2977-0"
       is_visible="true" />
    <inkscape:path-effect
       effect="spiro"
       id="path-effect3019-4"
       is_visible="true" />
    <inkscape:path-effect
       effect="spiro"
       id="path-effect3019-0"
       is_visible="true" />
  </defs>
  <sodipodi:namedview
     pagecolor="#ffffff"
     bordercolor="#666666"
     borderopacity="1"
     objecttolerance="10"
     gridtolerance="10"
     guidetolerance="10"
     inkscape:pageopacity="0"
     inkscape:pageshadow="2"
     inkscape:window-width="1920"
     inkscape:window-height="1046"
     id="namedview1280"
     showgrid="false"
     inkscape:zoom="1.0611925"
     inkscape:cx="361.3916"
     inkscape:cy="373.63625"
     inkscape:window-x="-11"
     inkscape:window-y="-11"
     inkscape:window-maximized="1"
     inkscape:current-layer="svg1278"
     fit-margin-top="0"
     fit-margin-left="0"
     fit-margin-right="0"
     fit-margin-bottom="0"
     inkscape:snap-midpoints="true"
     inkscape:snap-smooth-nodes="true"
     inkscape:snap-global="false" />
  <path
     style="fill:#ffffff;stroke:none;stroke-width:11.00007915;stroke-linecap:butt;stroke-linejoin:miter;stroke-miterlimit:4;stroke-dasharray:none;stroke-opacity:1"
     d="m 6.0111904,5.5025587 c 0,0 8.6801796,97.5476513 12.5388996,146.3574013 7.06491,89.3667 10.51987,179.0042 19.43113,268.22123 2.79507,27.98343 3.45133,56.45833 10.66989,83.71492 7.1433,26.97249 17.44806,53.56204 31.9601,77.70482 18.3181,30.47449 40.69313,59.61653 68.38798,82.80295 33.38469,27.94992 71.66264,53.82875 114.51944,65.08033 62.90259,16.51433 132.84848,16.51433 195.75098,0 42.85685,-11.25158 81.13483,-37.13041 114.51943,-65.08033 27.69492,-23.18642 50.06997,-52.32846 68.38804,-82.80295 14.51204,-24.14278 24.81689,-50.73233 31.96019,-77.70482 7.21851,-27.25659 7.87486,-55.73149 10.6699,-83.71492 8.91115,-89.21703 12.3662,-178.85453 19.43112,-268.22123 3.85867,-48.80975 12.5389,-146.3574013 12.5389,-146.3574013 z"
     id="path1009-1-7-5-3-9"
     inkscape:connector-curvature="0"
     sodipodi:nodetypes="cssscsaascssscc" />
  <path
     inkscape:connector-curvature="0"
     style="fill:#000000;fill-opacity:1;stroke:#000000;stroke-width:8.00005741;stroke-linecap:square;stroke-miterlimit:4;stroke-dasharray:none;stroke-opacity:1;stroke-linejoin:round"
     d="M 402.87341,50.044547 V 93.775329 L 424.731,122.88491 H 617.03706 L 638.89464,93.775329 V 50.044547 H 585.45871 V 93.775329 H 547.60102 V 50.044547 h -53.43984 v 43.730782 h -37.8577 V 50.044547 Z m 21.42008,86.578743 c -1.37999,0 -2.4922,1.11026 -2.4922,2.49025 v 14.29307 c 0,1.37999 1.11221,2.49026 2.4922,2.49026 h 50.21326 c 1.37999,0 2.49024,-1.11027 2.49024,-2.49026 v -14.29307 c 0,-1.37999 -1.11025,-2.49025 -2.49024,-2.49025 z m 71.48489,0 c -1.37999,0 -2.49025,1.11026 -2.49025,2.49025 v 14.29307 c 0,1.37999 1.11026,2.49026 2.49025,2.49026 h 50.21325 c 1.37999,0 2.4922,-1.11027 2.4922,-2.49026 v -14.29307 c 0,-1.37999 -1.11221,-2.49025 -2.4922,-2.49025 z m 71.48684,0 c -1.37999,0 -2.49026,1.11026 -2.49026,2.49025 v 14.29307 c 0,1.37999 1.11027,2.49026 2.49026,2.49026 h 50.21325 c 1.37999,0 2.49025,-1.11027 2.49025,-2.49026 v -14.29307 c 0,-1.37999 -1.11026,-2.49025 -2.49025,-2.49025 z m -140.89359,33.75805 c -2.1435,0 -3.87112,1.33775 -3.87112,3.00002 v 17.21693 c 0,1.66228 1.72762,2.99807 3.87112,2.99807 h 77.99275 c 2.14348,0 3.86917,-1.33579 3.86917,-2.99807 v -17.21693 c 0,-1.66227 -1.72569,-3.00002 -3.86917,-3.00002 z m 111.034,0 c -2.14349,0 -3.86721,1.33775 -3.86721,3.00002 v 17.21693 c 0,1.66228 1.72372,2.99807 3.86721,2.99807 h 77.9947 c 2.14358,0 3.87112,-1.33579 3.87112,-2.99807 v -17.21693 c 0,-1.66227 -1.72754,-3.00002 -3.87112,-3.00002 z m -113.11214,39.86357 c -1.37999,0 -2.4922,1.23664 -2.4922,2.77346 v 15.91613 c 0,1.53682 1.11221,2.77345 2.4922,2.77345 h 50.21326 c 1.37999,0 2.49024,-1.23663 2.49024,-2.77345 v -15.91613 c 0,-1.53682 -1.11025,-2.77346 -2.49024,-2.77346 z m 71.48489,0 c -1.37999,0 -2.49025,1.23664 -2.49025,2.77346 v 15.91613 c 0,1.53682 1.11026,2.77345 2.49025,2.77345 h 50.21325 c 1.37999,0 2.4922,-1.23663 2.4922,-2.77345 v -15.91613 c 0,-1.53682 -1.11221,-2.77346 -2.4922,-2.77346 z m 71.48684,0 c -1.37999,0 -2.49026,1.23664 -2.49026,2.77346 v 15.91613 c 0,1.53682 1.11027,2.77345 2.49026,2.77345 h 50.21325 c 1.37999,0 2.49025,-1.23663 2.49025,-2.77345 v -15.91613 c 0,-1.53682 -1.11026,-2.77346 -2.49025,-2.77346 z m -144.93854,35.92018 c -0.75884,0 -1.3711,1.26193 -1.3711,2.83009 v 16.24231 c 0,1.56819 0.61226,2.8301 1.3711,2.8301 h 27.61153 c 0.75881,0 1.3672,-1.26191 1.3672,-2.8301 v -16.24231 c 0,-1.56816 -0.60839,-2.83009 -1.3672,-2.83009 z m 41.91827,0 c -1.28455,0 -2.32033,1.26192 -2.32033,2.83009 v 16.24231 c 0,1.56818 1.03578,2.8301 2.32033,2.8301 h 46.74057 c 1.28455,0 2.31642,-1.26192 2.31642,-2.8301 v -16.24231 c 0,-1.56817 -1.03187,-2.83009 -2.31642,-2.83009 z m 66.53954,0 c -1.28455,0 -2.31643,1.26192 -2.31643,2.83009 v 16.24231 c 0,1.56818 1.03188,2.8301 2.31643,2.8301 h 46.74056 c 1.28463,0 2.32034,-1.26192 2.32034,-2.8301 v -16.24231 c 0,-1.56817 -1.03571,-2.83009 -2.32034,-2.83009 z m 61.04927,0 c -0.75884,0 -1.37111,1.26193 -1.37111,2.83009 v 16.24231 c 0,1.56819 0.61227,2.8301 1.37111,2.8301 h 27.61153 c 0.75882,0 1.36719,-1.26191 1.36719,-2.8301 v -16.24231 c 0,-1.56816 -0.60837,-2.83009 -1.36719,-2.83009 z m -167.54027,37.23464 c -1.37999,0 -2.4922,1.48941 -2.4922,3.33987 v 19.16615 c 0,1.85047 1.11221,3.33792 2.4922,3.33792 h 50.21326 c 1.37999,0 2.49024,-1.48745 2.49024,-3.33792 V 286.7396 c 0,-1.85046 -1.11025,-3.33987 -2.49024,-3.33987 z m 71.48489,0 c -1.37999,0 -2.49025,1.48941 -2.49025,3.33987 v 19.16615 c 0,1.85047 1.11026,3.33792 2.49025,3.33792 h 50.21325 c 1.37999,0 2.4922,-1.48745 2.4922,-3.33792 V 286.7396 c 0,-1.85046 -1.11221,-3.33987 -2.4922,-3.33987 z m 71.48684,0 c -1.37999,0 -2.49026,1.48941 -2.49026,3.33987 v 19.16615 c 0,1.85047 1.11027,3.33792 2.49026,3.33792 h 50.21325 c 1.37999,0 2.49025,-1.48745 2.49025,-3.33792 V 286.7396 c 0,-1.85046 -1.11026,-3.33987 -2.49025,-3.33987 z M 463.1922,323.7008 c -1.30841,0 -2.36329,1.36302 -2.36329,3.05666 v 17.54115 c 0,1.69364 1.05488,3.05666 2.36329,3.05666 h 16.7052 c 0.35201,-1.77122 0.83539,-3.51599 1.48439,-5.20121 2.06315,-5.35726 5.53341,-10.03247 8.85749,-14.71299 0.89919,-1.26614 1.80578,-2.53629 2.78517,-3.74027 z m 90.07683,0 c 3.49626,3.49122 6.40919,7.56676 8.53717,12.02548 1.75479,3.67681 2.96423,7.60741 3.61526,11.62899 h 13.15634 c 1.30841,0 2.3633,-1.36302 2.3633,-3.05666 v -17.54115 c 0,-1.69364 -1.05489,-3.05666 -2.3633,-3.05666 z m -130.94235,0.87696 c -0.75884,0 -1.3711,1.26193 -1.3711,2.8301 v 16.24229 c 0,1.56821 0.61226,2.82815 1.3711,2.82815 h 27.61153 c 0.75881,0 1.3672,-1.25994 1.3672,-2.82815 v -16.24229 c 0,-1.56817 -0.60839,-2.8301 -1.3672,-2.8301 z m 169.50708,0 c -0.75884,0 -1.37111,1.26193 -1.37111,2.8301 v 16.24229 c 0,1.56821 0.61227,2.82815 1.37111,2.82815 h 27.61153 c 0.75882,0 1.36719,-1.25994 1.36719,-2.82815 v -16.24229 c 0,-1.56817 -0.60837,-2.8301 -1.36719,-2.8301 z M 421.92434,361.3749 c -1.37999,0 -2.49221,1.48744 -2.49221,3.33791 v 19.16616 c 0,1.85046 1.11222,3.33987 2.49221,3.33987 h 50.21325 c 1.37999,0 2.49025,-1.48941 2.49025,-3.33987 v -19.16616 c 0,-1.85047 -1.11026,-3.33791 -2.49025,-3.33791 z m 147.70613,0 c -1.37999,0 -2.49025,1.48744 -2.49025,3.33791 v 19.16616 c 0,1.85046 1.11026,3.33987 2.49025,3.33987 h 50.21325 c 1.37999,0 2.4922,-1.48941 2.4922,-3.33987 v -19.16616 c 0,-1.85047 -1.11221,-3.33791 -2.4922,-3.33791 z"
     id="path1258-0-2-4" />
  <path
     style="fill:#000000;stroke:none;stroke-width:10.99999905;stroke-linecap:butt;stroke-linejoin:miter;stroke-miterlimit:4;stroke-dasharray:none;stroke-opacity:1"
     d="M 17.03125 15.267578 C 17.03125 15.267578 25.442612 110.22922 29.181641 157.74414 C 36.027408 244.74013 39.374919 331.99933 48.009766 418.84961 C 50.718136 446.0907 51.354958 473.81023 58.349609 500.34375 C 65.271335 526.60072 75.25646 552.484 89.318359 575.98633 C 107.06825 605.6524 128.74819 634.02242 155.58398 656.59375 C 187.93313 683.80222 225.02529 708.99416 266.55273 719.94727 C 297.02908 727.98555 329.21001 732.00407 361.39258 732.00391 L 361.39258 15.267578 L 17.03125 15.267578 z "
     transform="matrix(1.0000072,0,0,1.0000072,0,-0.00269229)"
     id="path1009-1-7-5-3-9-7" />
  <path
     style="stroke-width:1"
     inkscape:connector-curvature="0"
     id="path1214-5"
     d="m 339.29126,413.70206 -32.24409,8.63881 4.83275,18.03662 a 131.01895,131.01895 0 0 0 -30.30277,17.4665 l -13.18514,-13.18514 -23.60524,23.60525 13.24131,13.24132 a 131.01895,131.01895 0 0 0 -17.56546,30.23181 l -17.99807,-4.82174 -8.64101,32.24405 18.08178,4.84488 a 131.01895,131.01895 0 0 0 -1.3189,17.47296 131.01895,131.01895 0 0 0 1.32321,17.46864 l -18.08619,4.84708 8.64101,32.24405 18.03442,-4.83276 a 131.01895,131.01895 0 0 0 17.46864,30.30283 l -13.18513,13.18514 23.60525,23.60525 13.24132,-13.24132 a 131.01895,131.01895 0 0 0 30.2318,17.56548 l -4.82174,17.99806 32.2441,8.6388 4.84267,-18.07957 a 131.01895,131.01895 0 0 0 17.47293,1.3189 131.01895,131.01895 0 0 0 17.47304,-1.32536 l 4.84486,18.08618 32.24405,-8.63879 -4.83274,-18.03662 a 131.01895,131.01895 0 0 0 30.3028,-17.46651 l 13.18514,13.18514 23.60525,-23.60524 -13.24134,-13.24132 a 131.01895,131.01895 0 0 0 17.56548,-30.23183 l 17.99805,4.82175 8.63882,-32.24405 -18.0796,-4.84488 a 131.01895,131.01895 0 0 0 1.31886,-17.47079 131.01895,131.01895 0 0 0 -1.32315,-17.47296 l 18.084,-4.84487 -8.63882,-32.24405 -18.03661,4.83275 a 131.01895,131.01895 0 0 0 -17.46655,-30.30282 l 13.18515,-13.18514 -23.60524,-23.60525 -13.24133,13.24132 a 131.01895,131.01895 0 0 0 -30.23185,-17.56548 l 4.82172,-17.99806 -32.24405,-8.63881 -4.84486,18.07958 a 131.01895,131.01895 0 0 0 -17.47292,-1.31892 131.01895,131.01895 0 0 0 -17.47085,1.32322 l -4.84487,-18.08399 m 22.31616,52.00146 a 95.777645,95.777645 0 0 1 95.77749,95.77746 95.777645,95.777645 0 0 1 -95.77749,95.7796 95.777645,95.777645 0 0 1 -95.77746,-95.7796 95.777645,95.777645 0 0 1 95.77746,-95.77746" />
  <path
     style="fill:#ffdd00;stroke-width:1;fill-opacity:1"
     d="m 339.29126,413.70206 -32.24409,8.63881 4.83275,18.03662 a 131.01895,131.01895 0 0 0 -30.30277,17.4665 l -13.18514,-13.18514 -23.60524,23.60525 13.24131,13.24132 a 131.01895,131.01895 0 0 0 -17.56546,30.23181 l -17.99807,-4.82174 -8.64101,32.24405 18.08178,4.84488 a 131.01895,131.01895 0 0 0 -1.3189,17.47296 131.01895,131.01895 0 0 0 1.32321,17.46864 l -18.08619,4.84708 8.64101,32.24405 18.03442,-4.83276 a 131.01895,131.01895 0 0 0 17.46864,30.30283 l -13.18513,13.18514 23.60525,23.60525 13.24132,-13.24132 a 131.01895,131.01895 0 0 0 30.2318,17.56548 l -4.82174,17.99806 32.2441,8.6388 4.84267,-18.07957 a 131.01895,131.01895 0 0 0 17.47293,1.3189 v -35.24043 a 95.777645,95.777645 0 0 1 -95.77747,-95.7796 95.777645,95.777645 0 0 1 95.77747,-95.77746 v -35.24042 a 131.01895,131.01895 0 0 0 -17.47073,1.32321 l -4.84487,-18.08399"
     id="path1218-4"
     inkscape:connector-curvature="0" />
  <path
     style="fill:#009bdf;stroke:#000000;stroke-width:5.61295986;fill-opacity:1"
     d="M 359.71289 519.98438 C 306.12774 519.98438 259.22438 542.43945 205.64258 542.43945 C 152.65176 542.43945 106.21136 520.49912 53.363281 520.01172 C 60.119114 541.3654 69.020207 562.21071 80.611328 581.49414 C 84.137634 587.3606 87.818299 593.17544 91.654297 598.91016 C 129.61761 605.2686 165.77656 617.6582 205.65234 617.6582 C 259.23746 617.6582 306.13886 595.20508 359.7207 595.20508 C 413.30581 595.20508 460.17672 617.6582 513.76953 617.6582 C 554.97052 617.6582 592.19679 604.39939 631.5625 598.26562 C 635.24303 592.74022 638.77792 587.14043 642.17188 581.49414 C 653.76512 562.20717 662.66752 541.3578 669.42383 520 C 668.88737 519.99321 668.35122 519.98438 667.8125 519.98438 C 614.22738 519.98438 567.35649 542.43945 513.76367 542.43945 C 460.17856 542.43945 413.30962 519.98438 359.7168 519.98438 L 359.71289 519.98438 z "
     transform="matrix(1.0000072,0,0,1.0000072,0,-0.00269229)"
     id="path1222-1" />
  <path
     style="fill:#ffffff;stroke:#000000;stroke-width:5.61295986"
     d="M 359.71289 519.98438 C 306.12774 519.98438 259.22438 542.43945 205.64258 542.43945 C 152.65176 542.43945 106.21136 520.49912 53.363281 520.01172 C 53.393631 520.10765 53.426595 520.20292 53.457031 520.29883 C 54.204372 522.65378 54.97896 525.0027 55.779297 527.34375 C 55.86653 527.59886 55.95119 527.85445 56.039062 528.10938 C 56.349023 529.00879 56.666407 529.90571 56.984375 530.80273 C 57.192226 531.38896 57.400022 531.9754 57.611328 532.56055 C 57.944593 533.48368 58.283077 534.40587 58.625 535.32617 C 58.811071 535.82684 59.000796 536.32638 59.189453 536.82617 C 59.542728 537.76236 59.895399 538.69789 60.257812 539.63086 C 60.468791 540.17381 60.686289 540.71405 60.900391 541.25586 C 61.496412 542.76467 62.106061 544.26815 62.726562 545.76758 C 63.024537 546.48737 63.319359 547.20829 63.623047 547.92578 C 63.929854 548.65091 64.243954 549.37301 64.556641 550.0957 C 64.879504 550.84164 65.204024 551.58683 65.533203 552.33008 C 65.846376 553.03744 66.161531 553.74438 66.480469 554.44922 C 66.85363 555.27359 67.234122 556.09523 67.615234 556.91602 C 67.901839 557.53347 68.185422 558.15222 68.476562 558.76758 C 69.038464 559.95485 69.610513 561.13726 70.189453 562.31641 C 70.294564 562.53049 70.394323 562.74713 70.5 562.96094 C 70.504901 562.97086 70.510723 562.98032 70.515625 562.99023 C 70.57279 563.10586 70.632123 563.2204 70.689453 563.33594 C 71.330839 564.62854 71.984196 565.91514 72.646484 567.19727 C 72.912529 567.71242 73.18367 568.22488 73.453125 568.73828 C 73.934435 569.65514 74.419855 570.56937 74.912109 571.48047 C 75.225063 572.05981 75.540002 572.6379 75.857422 573.21484 C 76.361067 574.13014 76.871762 575.04208 77.386719 575.95117 C 77.640733 576.39965 77.891646 576.84995 78.148438 577.29688 C 78.956601 578.70332 79.775447 580.10354 80.611328 581.49414 C 81.631743 583.19173 82.669033 584.88374 83.714844 586.57227 C 84.128101 587.23909 84.547544 587.90315 84.964844 588.56836 C 85.541214 589.4878 86.12099 590.40608 86.705078 591.32227 C 87.283965 592.22963 87.864697 593.13512 88.451172 594.03906 C 88.947975 594.80525 89.450787 595.56849 89.953125 596.33203 C 90.519028 597.19187 91.081469 598.05379 91.654297 598.91016 C 129.61761 605.2686 165.77656 617.6582 205.65234 617.6582 C 259.23747 617.6582 306.13886 595.20508 359.7207 595.20508 C 360.35302 595.20508 360.98206 595.22302 361.61328 595.22852 L 361.61328 520.00977 C 360.98096 520.00277 360.35132 519.98828 359.7168 519.98828 L 359.71289 519.98438 z "
     transform="matrix(1.0000072,0,0,1.0000072,0,-0.00269229)"
     id="path1224-2" />
  <path
     style="fill-rule:evenodd;stroke-width:1"
     d="m 361.3785,570.83536 c -6.73964,0.18065 -13.46935,0.63562 -20.16052,1.34285 -8.7093,0.91985 -17.2358,3.13518 -25.80189,4.95723 -6.60635,1.40566 -19.73196,4.60912 -19.73196,4.60912 0,0 14.10495,-1.1688 21.1288,-2.05448 8.16952,-1.03112 16.20689,-3.07459 24.41166,-3.79505 6.69778,-0.58825 13.42418,-0.97822 20.15391,-1.15117 6.72972,0.17295 13.45613,0.56292 20.15391,1.15117 8.20478,0.72046 16.24209,2.76393 24.41163,3.79505 7.02383,0.88568 21.12883,2.05448 21.12883,2.05448 0,0 -13.12566,-3.20346 -19.732,-4.60912 -8.5661,-1.82205 -17.09254,-4.03738 -25.80185,-4.95723 -6.69117,-0.70723 -13.42088,-1.1611 -20.16052,-1.34285"
     id="path1228-5"
     inkscape:connector-curvature="0" />
  <path
     style="fill-rule:evenodd;stroke-width:1"
     d="m 361.3785,557.93553 c -5.42431,0.18067 -10.84202,0.63563 -16.22778,1.34286 -7.01063,0.91984 -13.87364,3.13518 -20.76865,4.95723 -5.31746,1.40566 -15.88297,4.60913 -15.88297,4.60913 0,0 11.35316,-1.1688 17.0077,-2.05451 6.57555,-1.03109 13.0464,-3.07458 19.65053,-3.79503 5.39127,-0.58825 10.80567,-0.97823 16.22338,-1.15119 5.4177,0.17296 10.831,0.56294 16.22336,1.15119 6.60415,0.72045 13.07389,2.76394 19.65049,3.79503 5.65344,0.88571 17.00771,2.05451 17.00771,2.05451 0,0 -10.56553,-3.20347 -15.88297,-4.60913 -6.89498,-1.82205 -13.75908,-4.03739 -20.76862,-4.95723 -5.38575,-0.70723 -10.80345,-1.16109 -16.22777,-1.34286"
     id="path1230-9"
     inkscape:connector-curvature="0" />
  <path
     style="fill-rule:evenodd;stroke-width:1"
     d="m 80.391468,545.0357 c -4.216954,0.18066 -8.428399,0.63564 -12.614509,1.34287 -2.389386,0.40317 -4.754538,1.06305 -7.110875,1.82205 0.389969,1.07297 0.800867,2.13823 1.211768,3.20347 1.960861,-0.53757 3.922824,-1.0322 5.903513,-1.3098 4.191618,-0.58827 8.398657,-0.97823 12.610103,-1.15118 4.211445,0.17295 8.421788,0.56291 12.612304,1.15118 5.13349,0.72045 10.162328,2.76392 15.273788,3.79504 4.39541,0.88569 13.21929,2.05448 13.21929,2.05448 0,0 -8.21248,-3.20347 -12.34572,-4.60912 -5.36042,-1.82206 -10.695504,-4.03738 -16.145155,-4.95722 -4.18721,-0.70724 -8.397554,-1.16111 -12.614507,-1.34287 m 280.766712,0 c -4.21695,0.18066 -8.4284,0.63563 -12.61452,1.34287 -5.44964,0.91984 -10.78363,3.13516 -16.14294,4.95722 -4.13323,1.40565 -12.34796,4.60912 -12.34796,4.60912 0,0 8.82392,-1.16879 13.21932,-2.05448 5.11147,-1.03112 10.14031,-3.07459 15.27379,-3.79504 4.19162,-0.58827 8.39977,-0.97823 12.61011,-1.15118 4.21143,0.17295 8.42179,0.56291 12.6123,1.15118 5.13349,0.72045 10.16232,2.76392 15.27379,3.79504 4.39542,0.88569 13.21928,2.05448 13.21928,2.05448 0,0 -8.21247,-3.20347 -12.34572,-4.60912 -5.36041,-1.82206 -10.6955,-4.03738 -16.14514,-4.95722 -4.18721,-0.70724 -8.39757,-1.16111 -12.61451,-1.34287 m 281.21836,0 c -4.21695,0.18066 -8.42841,0.63563 -12.61451,1.34287 -5.44965,0.91984 -10.78363,3.13516 -16.14295,4.95722 -4.13324,1.40565 -12.34792,4.60912 -12.34792,4.60912 0,0 8.82388,-1.16879 13.21929,-2.05448 5.11146,-1.03112 10.14029,-3.07459 15.27379,-3.79504 4.1916,-0.58827 8.39975,-0.97823 12.6101,-1.15118 4.21143,0.17295 8.42178,0.56291 12.6123,1.15118 1.98509,0.27871 3.95477,0.77553 5.91894,1.31421 0.4109,-1.06525 0.82179,-2.1316 1.21177,-3.20348 -2.36185,-0.7612 -4.73361,-1.42217 -7.1285,-1.82645 -4.18723,-0.70723 -8.39756,-1.16111 -12.61451,-1.34287 M 80.398077,557.93884 c -5.115866,0.17075 -10.224019,0.59376 -15.306836,1.2327 0.521059,1.19303 1.042121,2.38718 1.577502,3.57581 4.567265,-0.44505 9.145545,-0.75461 13.729334,-0.90112 5.417706,0.17295 10.831004,0.56293 16.223373,1.15119 6.60414,0.72044 13.07388,2.76393 19.65047,3.79504 5.65345,0.88569 17.00772,2.05449 17.00772,2.05449 0,0 -10.56551,-3.20347 -15.88297,-4.60912 -6.89496,-1.82206 -13.75908,-4.03739 -20.769712,-4.95724 -5.385759,-0.70723 -10.804565,-1.16109 -16.228881,-1.34286 m 561.974063,0 c -5.42433,0.18067 -10.84092,0.63563 -16.22668,1.34286 -7.01063,0.91985 -13.87365,3.13518 -20.76971,4.95724 -5.31746,1.40565 -15.88299,4.60912 -15.88299,4.60912 0,0 11.35208,-1.1688 17.00662,-2.05449 6.57551,-1.03111 13.04635,-3.0746 19.65048,-3.79504 5.39127,-0.58826 10.80566,-0.97824 16.22338,-1.15119 4.5893,0.14651 9.17529,0.45718 13.74806,0.90333 0.53428,-1.18864 1.05423,-2.38279 1.5753,-3.57582 -5.08834,-0.64004 -10.20199,-1.06415 -15.32336,-1.2349 M 80.399179,570.84197 c -3.250844,0.087 -6.497282,0.24124 -9.740414,0.45385 0.606986,1.25803 1.224988,2.51167 1.848497,3.7631 2.629537,-0.1333 5.260177,-0.24236 7.891917,-0.30955 6.72972,0.17295 13.456134,0.56292 20.153911,1.15117 8.20477,0.72046 16.2421,2.76393 24.41162,3.79504 7.02385,0.88569 21.12883,2.05449 21.12883,2.05449 0,0 -13.12565,-3.20346 -19.73199,-4.60912 -8.5661,-1.82205 -17.09254,-4.03738 -25.80185,-4.95723 -6.691167,-0.70723 -13.420886,-1.1611 -20.160521,-1.34286 m 561.974061,0 c -6.73965,0.18066 -13.46935,0.63563 -20.16052,1.34286 -8.70931,0.91985 -17.23576,3.13518 -25.80185,4.95723 -6.60634,1.40566 -19.73199,4.60912 -19.73199,4.60912 0,0 14.10498,-1.1688 21.12883,-2.05449 8.16952,-1.03111 16.20684,-3.07458 24.41162,-3.79504 6.69777,-0.58825 13.42418,-0.97822 20.15391,-1.15117 2.63724,0.0683 5.27449,0.17846 7.90954,0.31175 0.6235,-1.25253 1.24041,-2.50727 1.8485,-3.7653 -3.24754,-0.21261 -6.50169,-0.36683 -9.75694,-0.45385"
     id="path1232-2"
     inkscape:connector-curvature="0" />
  <path
     style="fill:none;stroke:#000000;stroke-width:11.00007915;stroke-linecap:butt;stroke-linejoin:miter;stroke-miterlimit:4;stroke-dasharray:none;stroke-opacity:1"
     d="m 6.0111872,5.4973465 c 0,0 8.6801798,97.5476535 12.5388998,146.3574035 7.06491,89.3667 10.51987,179.0042 19.43113,268.22123 2.79507,27.98343 3.45133,56.45833 10.66989,83.71492 7.1433,26.97249 17.44806,53.56204 31.960102,77.70482 18.3181,30.47449 40.693121,59.61653 68.387971,82.80296 33.38469,27.94991 71.66264,53.82874 114.51944,65.08032 62.90259,16.51433 132.84849,16.51433 195.75098,0 42.85686,-11.25158 81.13483,-37.13041 114.51943,-65.08032 27.69492,-23.18643 50.06997,-52.32847 68.38804,-82.80296 14.51205,-24.14278 24.81689,-50.73233 31.96019,-77.70482 7.21851,-27.25659 7.87487,-55.73149 10.66991,-83.71492 8.91114,-89.21703 12.3662,-178.85453 19.43112,-268.22123 3.85866,-48.80975 12.5389,-146.3574035 12.5389,-146.3574035 z"
     id="path1009-1-7-5-3"
     inkscape:connector-curvature="0"
     sodipodi:nodetypes="cssscsaascssscc" />
  <path
     style="fill:none;stroke:#000000;stroke-width:8.00005722;stroke-linecap:round;stroke-linejoin:miter;stroke-miterlimit:4;stroke-dasharray:none;stroke-opacity:1"
     d="M 361.3942,5.4750768 V 740.63183"
     id="path2156"
     inkscape:connector-curvature="0" />
  <path
     inkscape:connector-curvature="0"
     style="fill:#ed1c24;stroke:none;stroke-width:0.70000499;stroke-linecap:square;stroke-miterlimit:4;stroke-dasharray:none;stroke-opacity:1;fill-opacity:1"
     d="M 402.87341,50.044547 V 93.775328 L 424.731,122.88491 H 617.03706 L 638.89464,93.775328 V 50.044547 H 585.45871 V 93.775328 H 547.60102 V 50.044547 h -53.43984 v 43.730781 h -37.8577 V 50.044547 Z m 21.42008,86.578743 c -1.37999,0 -2.4922,1.11026 -2.4922,2.49025 v 14.29307 c 0,1.37999 1.11221,2.49026 2.4922,2.49026 h 50.21326 c 1.37999,0 2.49024,-1.11027 2.49024,-2.49026 v -14.29307 c 0,-1.37999 -1.11025,-2.49025 -2.49024,-2.49025 z m 71.48489,0 c -1.37999,0 -2.49025,1.11026 -2.49025,2.49025 v 14.29307 c 0,1.37999 1.11026,2.49026 2.49025,2.49026 h 50.21325 c 1.37999,0 2.49221,-1.11027 2.49221,-2.49026 v -14.29307 c 0,-1.37999 -1.11222,-2.49025 -2.49221,-2.49025 z m 71.48684,0 c -1.37999,0 -2.49026,1.11026 -2.49026,2.49025 v 14.29307 c 0,1.37999 1.11027,2.49026 2.49026,2.49026 h 50.21325 c 1.37999,0 2.49025,-1.11027 2.49025,-2.49026 v -14.29307 c 0,-1.37999 -1.11026,-2.49025 -2.49025,-2.49025 z m -140.89359,33.75805 c -2.1435,0 -3.87112,1.33775 -3.87112,3.00002 v 17.21693 c 0,1.66228 1.72762,2.99807 3.87112,2.99807 h 77.99275 c 2.14348,0 3.86917,-1.33579 3.86917,-2.99807 v -17.21693 c 0,-1.66227 -1.72569,-3.00002 -3.86917,-3.00002 z m 111.034,0 c -2.14349,0 -3.86721,1.33775 -3.86721,3.00002 v 17.21693 c 0,1.66228 1.72372,2.99807 3.86721,2.99807 h 77.9947 c 2.14358,0 3.87112,-1.33579 3.87112,-2.99807 v -17.21693 c 0,-1.66227 -1.72754,-3.00002 -3.87112,-3.00002 z m -113.11214,39.86357 c -1.37999,0 -2.4922,1.23664 -2.4922,2.77346 v 15.91613 c 0,1.53682 1.11221,2.77345 2.4922,2.77345 h 50.21326 c 1.37999,0 2.49024,-1.23663 2.49024,-2.77345 v -15.91613 c 0,-1.53682 -1.11025,-2.77346 -2.49024,-2.77346 z m 71.48489,0 c -1.37999,0 -2.49025,1.23664 -2.49025,2.77346 v 15.91613 c 0,1.53682 1.11026,2.77345 2.49025,2.77345 h 50.21325 c 1.37999,0 2.49221,-1.23663 2.49221,-2.77345 v -15.91613 c 0,-1.53682 -1.11222,-2.77346 -2.49221,-2.77346 z m 71.48684,0 c -1.37999,0 -2.49026,1.23664 -2.49026,2.77346 v 15.91613 c 0,1.53682 1.11027,2.77345 2.49026,2.77345 h 50.21325 c 1.37999,0 2.49025,-1.23663 2.49025,-2.77345 v -15.91613 c 0,-1.53682 -1.11026,-2.77346 -2.49025,-2.77346 z m -144.93854,35.92018 c -0.75884,0 -1.3711,1.26193 -1.3711,2.83009 v 16.24231 c 0,1.56819 0.61226,2.8301 1.3711,2.8301 h 27.61153 c 0.75881,0 1.3672,-1.26191 1.3672,-2.8301 v -16.24231 c 0,-1.56816 -0.60839,-2.83009 -1.3672,-2.83009 z m 41.91827,0 c -1.28455,0 -2.32033,1.26192 -2.32033,2.83009 v 16.24231 c 0,1.56818 1.03578,2.8301 2.32033,2.8301 h 46.74057 c 1.28455,0 2.31642,-1.26192 2.31642,-2.8301 v -16.24231 c 0,-1.56817 -1.03187,-2.83009 -2.31642,-2.83009 z m 66.53954,0 c -1.28455,0 -2.31643,1.26192 -2.31643,2.83009 v 16.24231 c 0,1.56818 1.03188,2.8301 2.31643,2.8301 h 46.74056 c 1.28463,0 2.32034,-1.26192 2.32034,-2.8301 v -16.24231 c 0,-1.56817 -1.03571,-2.83009 -2.32034,-2.83009 z m 61.04927,0 c -0.75884,0 -1.37111,1.26193 -1.37111,2.83009 v 16.24231 c 0,1.56819 0.61227,2.8301 1.37111,2.8301 h 27.61153 c 0.75882,0 1.36719,-1.26191 1.36719,-2.8301 v -16.24231 c 0,-1.56816 -0.60837,-2.83009 -1.36719,-2.83009 z m -167.54027,37.23464 c -1.37999,0 -2.4922,1.48941 -2.4922,3.33987 v 19.16615 c 0,1.85047 1.11221,3.33792 2.4922,3.33792 h 50.21326 c 1.37999,0 2.49024,-1.48745 2.49024,-3.33792 V 286.7396 c 0,-1.85046 -1.11025,-3.33987 -2.49024,-3.33987 z m 71.48489,0 c -1.37999,0 -2.49025,1.48941 -2.49025,3.33987 v 19.16615 c 0,1.85047 1.11026,3.33792 2.49025,3.33792 h 50.21325 c 1.37999,0 2.49221,-1.48745 2.49221,-3.33792 V 286.7396 c 0,-1.85046 -1.11222,-3.33987 -2.49221,-3.33987 z m 71.48684,0 c -1.37999,0 -2.49026,1.48941 -2.49026,3.33987 v 19.16615 c 0,1.85047 1.11027,3.33792 2.49026,3.33792 h 50.21325 c 1.37999,0 2.49025,-1.48745 2.49025,-3.33792 V 286.7396 c 0,-1.85046 -1.11026,-3.33987 -2.49025,-3.33987 z M 463.1922,323.7008 c -1.30841,0 -2.36329,1.36302 -2.36329,3.05666 v 17.54115 c 0,1.69364 1.05488,3.05666 2.36329,3.05666 h 16.7052 c 0.35201,-1.77122 0.83539,-3.51599 1.48439,-5.20121 2.06315,-5.35726 5.53341,-10.03247 8.85749,-14.71299 0.89919,-1.26614 1.80578,-2.53629 2.78517,-3.74027 z m 90.07683,0 c 3.49626,3.49122 6.40919,7.56676 8.53717,12.02548 1.75479,3.67681 2.96423,7.60741 3.61526,11.62899 h 13.15634 c 1.30841,0 2.3633,-1.36302 2.3633,-3.05666 v -17.54115 c 0,-1.69364 -1.05489,-3.05666 -2.3633,-3.05666 z m -130.94235,0.87696 c -0.75884,0 -1.3711,1.26193 -1.3711,2.8301 v 16.2423 c 0,1.5682 0.61226,2.82815 1.3711,2.82815 h 27.61153 c 0.75881,0 1.3672,-1.25995 1.3672,-2.82815 v -16.2423 c 0,-1.56817 -0.60839,-2.8301 -1.3672,-2.8301 z m 169.50708,0 c -0.75884,0 -1.37111,1.26193 -1.37111,2.8301 v 16.2423 c 0,1.5682 0.61227,2.82815 1.37111,2.82815 h 27.61153 c 0.75882,0 1.36719,-1.25995 1.36719,-2.82815 v -16.2423 c 0,-1.56817 -0.60837,-2.8301 -1.36719,-2.8301 z M 421.92434,361.3749 c -1.37999,0 -2.49221,1.48744 -2.49221,3.33791 v 19.16616 c 0,1.85046 1.11222,3.33987 2.49221,3.33987 h 50.21325 c 1.37999,0 2.49025,-1.48941 2.49025,-3.33987 v -19.16616 c 0,-1.85047 -1.11026,-3.33791 -2.49025,-3.33791 z m 147.70613,0 c -1.37999,0 -2.49025,1.48744 -2.49025,3.33791 v 19.16616 c 0,1.85046 1.11026,3.33987 2.49025,3.33987 h 50.21325 c 1.37999,0 2.49221,-1.48941 2.49221,-3.33987 v -19.16616 c 0,-1.85047 -1.11222,-3.33791 -2.49221,-3.33791 z"
     id="path1258-0-2" />
  <path
     style="opacity:1;fill:#000000;fill-opacity:1;fill-rule:evenodd;stroke:none;stroke-width:0.70000511;stroke-linecap:round;stroke-linejoin:round;stroke-miterlimit:4;stroke-dasharray:none;stroke-dashoffset:0;stroke-opacity:1;paint-order:normal"
     d="m 442.09829,150.74253 v 42.89876 h 27.41428 v -42.89876 z m 130.15916,0 v 42.89876 h 27.4123 v -42.89876 z m -65.08055,77.1529 v 42.8968 h 27.41231 v -42.8968 z"
     id="rect2701-2"
     inkscape:connector-curvature="0" />
  <path
     inkscape:connector-curvature="0"
     style="opacity:1;fill:#000000;fill-opacity:1;fill-rule:evenodd;stroke:#000000;stroke-width:5.00003576;stroke-linecap:round;stroke-linejoin:round;stroke-miterlimit:4;stroke-dasharray:none;stroke-dashoffset:0;stroke-opacity:1;paint-order:normal"
     d="m 523.78639,305.91892 c -27.58918,6e-4 -49.95416,24.93122 -49.95348,55.68399 v 27.11594 h 10.75203 v -28.00267 c -4.6e-4,-25.30262 17.55075,-45.81474 39.20145,-45.81477 21.6507,2e-5 39.20192,20.51215 39.20146,45.81477 v 28.00267 h 10.75203 v -27.11594 c 6.8e-4,-30.75278 -22.36431,-55.6834 -49.95349,-55.68399 z"
     id="rect2664-9-1-1"
     sodipodi:nodetypes="ccccccccccc" />
  <path
     style="fill:#ffdd00;fill-opacity:1;fill-rule:evenodd;stroke-width:0.99999285"
     d="M 269.9707 41.931641 C 268.15672 42.01664 266.17457 42.784174 264.39258 43.076172 C 263.50558 43.221171 262.3592 43.073677 261.7832 43.763672 C 259.92822 45.982656 261.02366 49.52113 261.09766 52.412109 C 261.16966 55.227089 261.36232 58.098129 262.19531 60.787109 C 263.09131 63.680089 266.31445 68.888672 266.31445 68.888672 C 266.31445 68.888672 263.13359 70.645885 262.05859 72.046875 C 259.63261 75.208852 259.50605 79.630041 257.66406 83.166016 C 254.44409 89.345971 250.84878 95.473551 246.13281 100.60352 C 241.63384 105.49648 236.64042 110.462 230.48047 112.95898 C 228.81748 113.63298 225.12695 113.50977 225.12695 113.50977 C 225.12695 113.50977 226.03189 118.24745 226.08789 120.64844 C 226.18689 124.86941 226.27227 129.24461 224.98828 133.26758 C 223.42229 138.17554 220.93504 143.08768 217.16406 146.59766 C 213.76309 149.76263 204.66992 152.77539 204.66992 152.77539 C 204.66992 152.77539 214.96402 144.5153 218.125 138.90234 C 220.69998 134.32938 221.43647 128.87388 222.10547 123.66992 C 222.63046 119.58495 222.10547 111.31445 222.10547 111.31445 C 222.10547 111.31445 221.2797 114.94398 220.5957 116.66797 C 219.20771 120.16894 217.72389 123.74752 215.37891 126.6875 C 211.51993 131.53947 206.76624 135.9686 201.23828 138.76758 C 197.12831 140.84856 192.39017 141.88783 187.7832 141.92383 C 184.13023 141.95283 177.07617 139.58984 177.07617 139.58984 C 177.07617 139.58984 186.847 138.15196 190.66797 135.33398 C 192.67795 133.85 194.92383 129.15625 194.92383 129.15625 C 194.92383 129.15625 189.22209 129.55225 186.41211 129.15625 C 183.30013 128.71725 180.1515 127.97582 177.35352 126.54883 C 174.76753 125.23084 170.48828 121.19336 170.48828 121.19336 C 170.48828 121.19336 177.39846 121.23841 180.64844 120.23242 C 183.89741 119.22243 187.39228 117.901 189.57227 115.29102 C 191.49225 112.99203 192.45508 106.7793 192.45508 106.7793 C 192.45508 106.7793 187.95906 109.46422 185.45508 110.07422 C 183.0971 110.64821 180.46167 109.52366 178.17969 110.34766 C 176.0617 111.11265 174.9212 113.6478 172.82422 114.4668 C 170.42724 115.40279 167.7037 115.3303 165.13672 115.1543 C 163.16873 115.0183 161.05608 114.85116 159.37109 113.82617 C 157.8841 112.92118 156.67323 111.44474 155.99023 109.84375 C 154.68624 106.78277 154.33557 103.17904 154.97656 99.914062 C 155.42656 97.624079 156.79849 95.547315 158.27148 93.736328 C 160.07647 91.518344 162.17735 89.231134 164.86133 88.244141 C 168.4813 86.91215 172.78767 86.863009 176.43164 88.125 C 177.80363 88.599997 178.42418 90.472518 179.82617 90.853516 C 181.03216 91.180513 182.53521 91.056682 183.5332 90.304688 C 186.18318 88.308702 186.55335 84.371118 187.65234 81.244141 C 188.26434 79.506153 189.42739 77.689612 189.02539 75.890625 C 188.64939 74.209637 187.25346 72.713197 185.73047 71.908203 C 183.12949 70.533213 179.61934 72.307929 176.94336 71.085938 C 172.85139 69.215951 170.73329 64.52898 167.19531 61.75 C 164.71933 59.805014 162.2924 57.410917 159.23242 56.669922 C 156.82044 56.084926 154.19234 56.631427 151.81836 57.357422 C 144.59441 59.565406 138.33336 64.216216 131.94141 68.242188 C 126.26145 71.820162 119.87186 74.831131 115.58789 79.996094 C 114.6159 81.167085 113.09044 82.71487 113.64844 84.130859 C 114.10143 85.276851 117.08398 85.501953 117.08398 85.501953 C 117.08398 85.501953 115.62927 89.747094 115.57227 91.955078 C 115.45227 96.603045 118.24592 101.03363 118.04492 105.68359 C 117.94692 107.95758 116.25977 112.27344 116.25977 112.27344 C 116.25977 112.27344 117.94475 111.22423 118.59375 110.49023 C 119.61274 109.33824 120.02774 107.75776 120.92773 106.50977 C 121.78073 105.32577 122.42456 103.66989 123.81055 103.21289 C 125.23454 102.74389 128.20508 104.17578 128.20508 104.17578 C 128.20508 104.17578 126.19531 105.14427 125.32031 105.82227 C 123.70932 107.07226 122.07545 108.44386 121.06445 110.21484 C 119.18147 113.51182 118.05492 117.40225 118.04492 121.19922 C 118.04492 127.31617 122.78061 132.79125 122.84961 138.9082 C 122.90061 143.48117 119.55469 152.22656 119.55469 152.22656 C 119.55469 152.22656 126.91635 144.17715 128.40234 139.11719 C 129.23434 136.28421 127.39208 133.09675 128.20508 130.25977 C 128.89407 127.84278 132.32422 123.94531 132.32422 123.94531 C 132.32422 123.94531 131.12589 139.03566 131.08789 146.59961 C 131.05689 152.78356 132.7771 159.00986 131.91211 165.13281 C 131.31111 169.38878 130.23095 173.81159 127.79297 177.35156 C 125.30299 180.96554 121.39179 183.46258 117.63281 185.72656 C 114.57483 187.56855 107.74805 189.8457 107.74805 189.8457 C 107.74805 189.8457 113.39062 194.65134 116.80859 194.65234 C 121.20956 194.65434 125.64254 191.83863 128.47852 188.47266 C 131.98449 184.31169 131.10761 177.81795 133.55859 172.95898 C 134.69659 170.703 135.65614 167.83524 137.95312 166.78125 C 140.20911 165.74626 143.42125 165.92381 145.36523 167.4668 C 147.06622 168.81579 147.42578 173.64648 147.42578 173.64648 C 147.42578 173.64648 144.08758 170.35789 141.93359 170.21289 C 140.3806 170.10789 138.70973 170.96877 137.67773 172.13477 C 132.59177 177.87772 131.86849 186.50262 130.8125 194.10156 C 130.3395 197.50254 131.86289 201.05346 131.08789 204.39844 C 130.57589 206.61242 129.36568 208.67947 127.92969 210.43945 C 125.09271 213.91843 117.49609 218.95312 117.49609 218.95312 C 117.49609 218.95312 125.35501 219.98885 128.83398 218.50586 C 131.54396 217.34987 132.99228 214.32603 135.19727 212.37305 C 136.66326 211.07506 138.59182 210.24196 139.75781 208.66797 C 142.49379 204.972 144.95508 195.88672 144.95508 195.88672 C 144.95508 195.88672 147.84106 198.45509 149.62305 198.49609 C 151.97603 198.55009 155.9375 195.33789 155.9375 195.33789 C 155.9375 195.33789 156.45161 199.72875 156.34961 201.92773 C 156.21261 204.88871 156.19655 208.01286 154.97656 210.71484 C 153.85957 213.18783 149.77344 216.97266 149.77344 216.97266 C 149.77344 216.97266 153.45712 216.7774 155.03711 215.94141 C 157.57209 214.59942 159.21836 210.83357 161.15234 209.89258 C 163.00433 208.99158 165.30605 210.26558 167.33203 209.89258 C 169.98201 209.40358 172.64683 208.5118 174.88281 207.00781 C 177.99879 204.91083 182.57227 198.77148 182.57227 198.77148 C 182.57227 198.77148 182.58683 203.54813 182.29883 205.91211 C 181.99883 208.37109 181.7921 210.92252 180.78711 213.1875 C 178.74112 217.79747 171.86328 225.4082 171.86328 225.4082 C 171.86328 225.4082 177.6993 222.88071 180.23828 221.01172 C 183.41826 218.67174 186.0103 215.6047 188.61328 212.63672 C 190.24927 210.77173 193.14453 206.73438 193.14453 206.73438 C 193.14453 206.73438 198.19988 212.09651 199.04688 215.52148 C 199.97487 219.27446 198.91049 223.34576 197.8125 227.05273 C 196.77751 230.54571 192.86914 236.80078 192.86914 236.80078 C 192.86914 236.80078 197.83516 234.77574 199.86914 233.09375 C 203.53211 230.06377 206.94894 226.35158 208.79492 221.97461 C 210.18891 218.67363 210.11523 211.30664 210.11523 211.30664 C 210.11523 211.30664 221.97917 216.87495 228.32812 216.87695 C 232.3211 216.87695 236.34823 215.41084 239.7832 213.38086 C 243.36918 211.26287 248.74609 204.67578 248.74609 204.67578 C 248.74609 204.67578 244.11945 207.10032 241.60547 207.69531 C 237.5445 208.65931 233.17625 209.46957 229.11328 208.51758 C 224.57231 207.45359 219.9137 205.14426 217.01172 201.48828 C 214.64874 198.5153 213.87206 194.39158 213.66406 190.59961 C 213.43106 186.34164 216.06836 178.03516 216.06836 178.03516 C 216.06836 178.03516 225.42908 187.46915 231.58203 188.74414 C 236.65299 189.79413 242.3843 188.39159 246.82227 185.72461 C 252.28623 182.43963 258.90234 170.89844 258.90234 170.89844 C 258.90234 170.89844 250.34723 176.60573 245.44727 177.76172 C 240.1463 179.01271 234.09934 179.80403 229.10938 177.62305 C 224.21441 175.48406 219.90394 170.99109 218.12695 165.95312 C 216.93596 162.57715 218.94922 155.24414 218.94922 155.24414 C 218.94922 155.24414 220.37043 161.87977 222.10742 164.71875 C 224.05041 167.89273 229.93359 172.68164 229.93359 172.68164 C 229.93359 172.68164 231.21992 163.17981 233.50391 159.08984 C 236.18689 154.28588 239.75447 149.10247 244.89844 147.14648 C 248.03142 145.95449 254.91797 147.96875 254.91797 147.96875 C 254.91797 147.96875 255.30897 140.6263 254.91797 136.98633 C 254.45797 132.70236 252.17383 124.35547 252.17383 124.35547 C 252.17383 124.35547 256.43258 125.29135 258.35156 126.27734 C 260.24055 127.24834 263.43164 130.12109 263.43164 130.12109 C 263.43164 130.12109 264.19006 123.94962 263.66406 120.93164 C 263.15007 117.97866 260.41016 112.54688 260.41016 112.54688 C 260.41016 112.54688 265.24529 114.7987 266.86328 116.80469 C 268.37327 118.67667 269.47266 123.5332 269.47266 123.5332 C 269.47266 123.5332 271.83197 117.94551 271.66797 115.01953 C 271.48997 111.84555 268.87253 109.23231 268.26953 106.11133 C 267.62154 102.76035 265.91986 98.507028 268.08984 95.873047 C 269.08784 94.662056 271.41857 94.185741 272.72656 95.052734 C 274.66155 96.335725 274.27734 101.83984 274.27734 101.83984 C 274.27734 101.83984 275.99405 98.025205 276.74805 96.074219 C 277.70804 93.590237 277.64843 90.566423 279.35742 88.523438 C 281.34241 86.150455 284.36705 84.209186 287.45703 83.992188 C 290.49198 83.778189 292.95272 87.674107 295.9707 87.287109 C 298.37669 86.978112 301.24005 85.373233 301.87305 83.03125 C 302.46104 80.855266 299.12695 79.107499 299.12695 76.853516 C 299.12695 75.501525 300.78539 74.498475 300.77539 73.146484 C 300.76539 71.836494 300.39594 69.90017 299.12695 69.576172 C 297.41497 69.139175 296.17108 71.538384 294.87109 72.734375 C 293.7491 73.766368 293.37555 76.126016 291.85156 76.166016 C 289.23061 76.233015 287.31337 72.979092 286.35938 70.537109 C 285.75938 69.00212 285.8971 67.130692 286.49609 65.595703 C 287.50909 62.996722 290.33129 61.523281 291.98828 59.279297 C 293.17227 57.675308 294.69249 56.140205 295.14648 54.199219 C 295.47148 52.811229 295.64837 51.036352 294.73438 49.943359 C 293.75838 48.776368 291.76483 49.241981 290.33984 48.708984 C 289.43885 48.371987 288.67742 47.297611 287.73242 47.474609 C 286.49143 47.705608 285.65104 49.074711 285.12305 50.220703 C 283.83206 53.020683 285.5401 56.658035 284.16211 59.416016 C 282.99012 61.762999 280.86947 63.897491 278.39648 64.771484 C 277.14249 65.214481 275.58205 65.131089 274.41406 64.496094 C 273.20807 63.840098 272.48836 62.461163 271.94336 61.201172 C 270.78137 58.515191 269.8076 55.413667 270.43359 52.554688 C 270.93359 50.272704 274.17111 49.10914 274.41211 46.785156 C 274.57111 45.255167 273.9369 43.338291 272.62891 42.529297 C 272.04391 42.167299 271.40437 41.994359 270.73438 41.943359 C 270.48338 41.92436 270.22775 41.92136 269.96875 41.943359 L 269.9707 41.931641 z M 42.015625 54.072266 C 42.015625 54.072266 42.013785 54.115849 42.013672 54.117188 C 42.013834 54.11662 42.021484 54.085938 42.021484 54.085938 L 42.015625 54.072266 z M 42.013672 54.117188 C 41.986991 54.210606 39.780863 61.933942 39.300781 65.931641 C 38.15079 75.507572 37.879117 85.27435 38.912109 94.863281 C 39.311107 98.562255 39.805512 102.39335 41.4375 105.73633 C 42.972489 108.87931 44.897085 112.35268 48.039062 113.88867 C 51.059041 115.36766 58.138672 114.08203 58.138672 114.08203 C 58.138672 114.08203 63.052607 118.14661 64.933594 120.68359 C 70.313555 127.93754 74.515302 136.18973 77.363281 144.76367 C 79.101269 149.99363 79.774033 155.57126 80.082031 161.07422 C 80.354029 165.92718 80.120682 170.84671 79.304688 175.63867 C 78.294695 181.55463 77.258885 187.71705 74.253906 192.91602 C 73.176914 194.779 71.934047 197.74517 69.789062 197.57617 C 67.789077 197.41817 67.096557 194.48903 66.351562 192.62305 C 65.199571 189.73507 65.692588 186.41832 64.933594 183.40234 C 64.1296 180.20637 63.984796 176.39201 61.632812 174.08203 C 60.171823 172.64804 57.73558 171.45258 55.808594 172.14258 C 53.864608 172.83857 52.80881 175.34178 52.507812 177.38477 C 51.981816 180.97374 54.135931 184.47716 55.419922 187.86914 C 59.242894 197.96907 67.101768 206.48831 69.59375 216.99023 C 70.758742 221.9022 72.143046 227.66694 69.789062 232.12891 C 69.136067 233.3679 67.692959 234.47898 66.292969 234.45898 C 63.832986 234.42298 61.745427 232.16244 60.273438 230.18945 C 57.864455 226.95648 57.382712 222.64135 56.386719 218.73438 C 55.267727 214.34241 54.056641 205.33789 54.056641 205.33789 C 54.056641 205.33789 48.449095 217.63992 48.621094 224.17188 C 48.799092 230.88283 50.926687 238.03921 55.222656 243.20117 C 56.984644 245.31716 59.745222 247.97929 62.408203 247.2793 C 64.598187 246.7033 65.902344 241.45312 65.902344 241.45312 C 65.902344 241.45312 63.527255 252.46307 64.15625 257.95703 C 65.146243 266.59897 67.945253 275.33029 72.699219 282.61523 C 77.379185 289.78718 84.403254 295.34588 91.533203 300.08984 C 99.226148 305.20781 109.95053 305.31492 116.77148 311.54688 C 120.83746 315.26185 124.92773 325.91406 124.92773 325.91406 C 124.92773 325.91406 127.05898 335.22817 126.45898 339.86914 C 125.38999 348.13908 121.09997 355.70366 117.5 363.22461 C 115.21002 368.00958 111.62698 372.12441 109.5 376.98438 C 107.75501 380.97135 105.56016 385.11192 105.66016 389.46289 C 105.76216 393.88086 110.14062 401.94141 110.14062 401.94141 C 110.14062 401.94141 104.40893 403.26418 101.50195 403.70117 C 97.156984 404.35417 92.774828 405.07042 88.380859 404.98242 C 85.258882 404.92042 79.101562 403.70117 79.101562 403.70117 C 79.101562 403.70117 85.985812 410.2895 90.300781 412.02148 C 93.492758 413.30248 97.102087 413.43178 100.53906 413.30078 C 104.29104 413.15878 111.58008 411.06055 111.58008 411.06055 C 111.58008 411.06055 111.62809 415.55395 110.62109 417.46094 C 108.71911 421.06491 101.66211 425.77734 101.66211 425.77734 C 101.66211 425.77734 108.95073 425.72783 112.2207 424.33984 C 115.47068 422.95985 120.53906 417.7793 120.53906 417.7793 C 120.53906 417.7793 120.75302 424.5536 119.58203 427.64258 C 118.35904 430.86855 113.5 436.01758 113.5 436.01758 C 113.5 436.01758 120.86109 437.32656 124.53906 436.97656 C 129.00903 436.55057 137.49805 433.29688 137.49805 433.29688 C 137.49805 433.29688 138.22956 437.99891 137.97656 440.33789 C 137.54557 444.31386 134.61719 451.85742 134.61719 451.85742 C 134.61719 451.85742 140.2762 449.34094 142.61719 447.37695 C 145.78116 444.72097 150.45508 437.7793 150.45508 437.7793 C 150.45508 437.7793 153.01666 444.82898 156.05664 446.41797 C 160.64161 448.81895 166.57621 444.59951 171.57617 445.9375 C 174.90715 446.82849 177.94802 448.92797 180.375 451.37695 C 182.04199 453.05994 182.2527 455.91904 184.05469 457.45703 C 186.46767 459.51702 189.96316 462.31591 192.86914 461.04492 C 194.10413 460.50493 193.55097 458.38576 194.29297 457.25977 C 195.55396 455.34578 198.87396 454.75708 199.25195 452.49609 C 199.61795 450.30811 198.18888 447.58612 196.21289 446.57812 C 194.3389 445.62113 192.01559 448.04811 189.97461 447.53711 C 188.16362 447.08411 185.98314 445.97872 185.49414 444.17773 C 185.02414 442.44775 185.94223 439.95974 187.57422 439.21875 C 189.7242 438.24276 191.93299 441.51903 194.29297 441.45703 C 195.89696 441.41503 197.96144 441.08126 198.77344 439.69727 C 199.78343 437.98028 197.93566 435.77028 197.97266 433.7793 C 198.02466 430.96532 201.1871 427.64297 199.41211 425.45898 C 198.43612 424.25799 196.18843 424.67183 194.77344 425.29883 C 193.11245 426.03482 192.66894 428.31899 191.25195 429.45898 C 189.37297 430.96597 187.2435 432.53936 184.85352 432.81836 C 182.72053 433.06736 180.26722 432.58974 178.61523 431.21875 C 177.25624 430.09176 176.446 428.18391 176.375 426.41992 C 176.294 424.43094 177.17109 422.34035 178.45508 420.81836 C 179.96507 419.02837 182.25917 417.84782 184.53516 417.29883 C 187.54513 416.57283 190.89352 418.81429 193.8125 417.7793 C 195.16449 417.3003 196.09973 416.00643 197.01172 414.89844 C 197.80271 413.93844 198.90464 412.94221 198.93164 411.69922 C 198.96364 410.24423 197.38651 409.21437 196.85352 407.85938 C 196.30852 406.47538 196.94141 404.40701 195.73242 403.54102 C 194.55843 402.70002 192.71205 403.22038 191.41406 403.85938 C 189.11108 404.99737 188.18791 407.87915 186.29492 409.61914 C 184.18794 411.55113 182.12804 413.83929 179.41406 414.73828 C 176.88308 415.57628 173.98 415.47128 171.41602 414.73828 C 168.21504 413.82329 166.16948 408.65799 162.9375 409.45898 C 161.49951 409.81498 162.14226 412.97183 160.69727 413.29883 C 157.92729 413.92482 155.57724 410.59298 153.65625 408.5 C 151.00927 405.61502 148.05148 402.17274 147.89648 398.25977 C 147.42949 386.45885 158.05542 376.92953 162.77539 366.09961 C 166.99036 356.43168 172.68845 347.16324 174.77344 336.82031 C 175.93343 331.07035 175.49159 325.06066 174.93359 319.2207 C 174.4986 314.67074 172.15489 310.35317 172.21289 305.7832 C 172.30389 298.61725 173.7897 291.22517 177.01367 284.82422 C 180.96064 276.98727 187.83586 270.94208 194.13281 264.82812 C 199.73577 259.38516 207.29013 256.04333 212.37109 250.10938 C 217.98105 243.55742 225.33008 227.71094 225.33008 227.71094 C 225.33008 227.71094 230.3799 237.16557 230.12891 242.26953 C 229.94591 245.9415 225.65039 252.34961 225.65039 252.34961 C 225.65039 252.34961 232.12187 251.14001 235.08984 249.79102 C 238.24082 248.36003 243.72852 244.03125 243.72852 244.03125 C 243.72852 244.03125 244.58367 248.62002 243.88867 250.75 C 242.99168 253.49798 238.60938 257.62891 238.60938 257.62891 C 238.60938 257.62891 245.15405 256.23115 248.20703 254.91016 C 251.34601 253.55217 254.52988 251.99084 257.00586 249.63086 C 259.09284 247.64087 261.80664 242.43164 261.80664 242.43164 C 261.80664 242.43164 263.12109 244.46787 263.24609 245.63086 C 263.46909 247.68984 261.9668 251.71094 261.9668 251.71094 C 261.9668 251.71094 266.52509 250.90569 268.20508 249.4707 C 269.63907 248.24571 269.39479 245.61171 270.92578 244.51172 C 273.87276 242.39273 278.03556 242.1978 281.64453 242.5918 C 284.40151 242.89279 287.47328 243.72503 289.32227 245.79102 C 291.10022 247.778 289.57251 251.69572 291.5625 253.4707 C 293.21849 254.94669 296.19306 255.68484 298.12305 254.58984 C 299.66504 253.71485 299.25502 251.21985 300.04102 249.63086 C 300.90101 247.89287 303.57903 246.54586 303.08203 244.67188 C 302.45804 242.31889 298.42758 242.85033 296.68359 241.15234 C 295.3986 239.90235 294.12589 238.29771 293.96289 236.51172 C 293.79289 234.64673 294.67277 232.66041 295.88477 231.23242 C 296.51776 230.48643 297.48137 229.97397 298.44336 229.79297 C 301.08934 229.29297 304.04538 232.1371 306.44336 230.91211 C 308.27035 229.97812 309.02627 227.50264 309.32227 225.47266 C 309.63626 223.31967 308.23197 221.24316 308.04297 219.07617 C 307.85597 216.93119 309.67635 214.17918 308.19336 212.61719 C 307.38737 211.76819 305.74659 212.02758 304.68359 212.51758 C 302.13461 213.69357 302.02728 218.07618 299.4043 219.07617 C 297.58531 219.76917 295.19452 219.29223 293.64453 218.11523 C 292.23854 217.04724 291.2913 215.07839 291.4043 213.31641 C 291.6013 210.23043 294.33025 207.80555 296.36523 205.47656 C 297.51123 204.16557 299.29329 203.49018 300.36328 202.11719 C 301.56527 200.5742 303.40282 198.73388 302.92383 196.83789 C 302.52083 195.2449 300.11982 195.08598 298.92383 193.95898 C 297.57184 192.68499 297.23928 189.92867 295.4043 189.63867 C 293.27131 189.30267 291.13684 191.34422 289.96484 193.1582 C 287.65289 196.73718 289.84188 201.9329 288.04492 205.79688 C 285.86194 210.49084 282.25561 214.82853 277.80664 217.47852 C 273.85967 219.8265 268.95515 220.70562 264.36719 220.51562 C 261.34721 220.39063 258.0795 219.69186 255.72852 217.79688 C 254.05453 216.44788 252.81129 214.32925 252.5293 212.19727 C 252.2253 209.90228 254.29102 205.47656 254.29102 205.47656 C 254.29102 205.47656 250.74486 206.95712 249.17188 208.03711 C 245.7799 210.36609 243.55971 214.20348 240.05273 216.35547 C 237.86675 217.69746 235.3765 218.61518 232.85352 219.07617 C 228.44655 219.88117 223.77303 220.10516 219.41406 219.07617 C 216.86108 218.47318 212.375 215.55664 212.375 215.55664 C 212.375 215.55664 211.87307 221.9118 210.45508 224.67578 C 208.14609 229.17575 204.35977 232.97502 200.2168 235.875 C 196.43582 238.52098 187.41797 241.1543 187.41797 241.1543 C 187.41797 241.1543 191.53659 233.96525 193.01758 230.11328 C 193.96857 227.6383 195.14766 225.08357 195.09766 222.43359 C 195.03366 219.02662 192.05664 212.67383 192.05664 212.67383 C 192.05664 212.67383 189.1688 217.11608 187.25781 218.91406 C 182.89584 223.02003 177.93287 226.74716 172.37891 228.99414 C 169.21693 230.27213 162.29883 230.75391 162.29883 230.75391 C 162.29883 230.75391 166.78944 225.94751 168.85742 223.39453 C 171.5224 220.10355 174.47097 216.93722 176.37695 213.15625 C 177.43195 211.06227 178.45703 206.4375 178.45703 206.4375 C 178.45703 206.4375 172.94486 212.16153 169.33789 213.47852 C 166.98091 214.33851 164.05434 212.65888 161.81836 213.79688 C 159.45038 215.00187 159.18736 218.75617 156.85938 220.03516 C 154.65039 221.24915 151.76283 221.53393 149.33984 220.83594 C 147.18686 220.21494 144.06055 216.67578 144.06055 216.67578 C 144.06055 216.67578 148.36732 214.50677 149.82031 212.67578 C 151.7093 210.2938 152.60969 207.18424 153.17969 204.19727 C 153.40969 202.99227 153.17969 200.51758 153.17969 200.51758 C 153.17969 200.51758 150.45736 202.60966 148.85938 202.59766 C 147.66738 202.58866 145.66016 200.99805 145.66016 200.99805 C 145.66016 200.99805 144.04561 207.97004 142.14062 210.91602 C 140.21564 213.89399 135.90393 215.03741 134.46094 218.27539 C 133.07195 221.39437 133.95858 225.1047 134.14258 228.51367 C 134.68157 238.5136 140.00577 248.4006 138.30078 258.26953 C 136.77979 267.07147 125.90234 282.02539 125.90234 282.02539 C 125.90234 282.02539 118.50885 291.48845 113.08789 292.89844 C 108.23593 294.16043 102.756 292.34631 98.332031 289.98633 C 90.499087 285.80736 83.659017 278.99529 79.498047 271.15234 C 75.327077 263.2924 74.213267 253.8373 74.447266 244.94336 C 75.004262 224.01051 88.415899 204.88346 89.587891 183.97461 C 90.394885 169.63571 87.917003 155.06467 83.957031 141.25977 C 82.408042 135.8588 79.739777 130.80689 76.966797 125.91992 C 74.325816 121.26696 67.841797 112.7168 67.841797 112.7168 C 67.841797 112.7168 70.586233 105.03728 70.365234 101.07031 C 69.948237 93.570365 64.700677 87.069885 63.179688 79.710938 C 62.390693 75.894965 62.208984 68.0625 62.208984 68.0625 C 62.208984 68.0625 56.806809 82.580414 56.382812 90.193359 C 56.135814 94.634328 58.324219 103.39453 58.324219 103.39453 C 58.324219 103.39453 52.887612 101.14072 51.140625 98.927734 C 48.98464 96.196754 48.41384 92.458319 47.839844 89.027344 C 46.750852 82.51639 50.142466 75.332659 47.646484 69.220703 C 46.763491 67.059719 43.747962 66.30486 42.792969 64.171875 C 41.426503 61.122081 42.002215 54.25239 42.013672 54.117188 z M 155.09766 63.322266 C 157.06684 63.421122 158.93955 64.261739 160.55469 65.392578 C 161.83157 66.286587 162.97595 67.368045 163.94141 68.591797 C 161.37022 68.380888 158.77546 68.476772 156.22656 68.875 C 154.43506 69.154895 152.6654 69.583724 150.95703 70.191406 C 149.35483 70.761322 147.80779 71.487052 146.3457 72.355469 C 146.22724 70.066863 147.05885 67.743636 148.60352 66.050781 C 150.23835 64.259111 152.67527 63.200657 155.09766 63.322266 z M 261.44531 95.605469 C 261.44531 95.605469 261.77364 96.944411 262.05664 97.566406 C 262.35464 98.220402 262.71255 98.863488 263.18555 99.396484 C 263.69754 99.97348 264.98828 100.82617 264.98828 100.82617 C 264.98828 100.82617 263.09706 100.37951 262.41406 99.728516 C 261.94507 99.281519 261.70497 98.604792 261.54297 97.966797 C 261.34897 97.204802 261.41331 95.738468 261.44531 95.605469 z M 255.80859 104.64453 C 255.80859 104.64453 256.13888 105.98347 256.42188 106.60547 C 256.71987 107.25946 257.07583 107.90255 257.54883 108.43555 C 258.06082 109.01254 259.35352 109.86719 259.35352 109.86719 C 259.35352 109.86719 257.45839 109.41857 256.77539 108.76758 C 256.30639 108.32058 256.06825 107.64385 255.90625 107.00586 C 255.71225 106.24386 255.77659 104.77753 255.80859 104.64453 z M 247.73828 111.61914 C 247.73828 111.61914 248.29158 113.82848 248.76758 114.85547 C 249.26857 115.93546 249.87197 116.99796 250.66797 117.87695 C 251.52996 118.82995 253.70703 120.23633 253.70703 120.23633 C 253.70703 120.23633 250.51523 119.49882 249.36523 118.42383 C 248.57424 117.68583 248.17339 116.56666 247.90039 115.51367 C 247.5747 114.25685 247.68423 111.84201 247.73828 111.61914 z M 240.45703 120.85156 C 240.45683 120.85237 240.45723 120.85852 240.45703 120.85938 C 240.45971 120.87 241.19238 123.77543 241.82422 125.12695 C 242.49021 126.55194 243.28966 127.95034 244.34766 129.11133 C 245.49365 130.36832 248.38672 132.22656 248.38672 132.22656 C 248.38672 132.22656 244.14813 131.25393 242.61914 129.83594 C 241.56915 128.86194 241.03487 127.38508 240.67188 125.99609 C 240.23909 124.34075 240.38482 121.16473 240.45703 120.85938 C 240.45703 120.85936 240.45508 120.85352 240.45508 120.85352 L 240.45703 120.85156 z M 235.62891 129.14062 C 235.6287 129.14144 235.62911 129.14758 235.62891 129.14844 C 235.63159 129.15906 236.36621 132.0645 236.99805 133.41602 C 237.66404 134.84101 238.46349 136.2394 239.52148 137.40039 C 240.66748 138.65738 243.56055 140.51562 243.56055 140.51562 C 243.56055 140.51562 239.32196 139.54299 237.79297 138.125 C 236.74298 137.15101 236.2087 135.67415 235.8457 134.28516 C 235.41292 132.62981 235.55671 129.45379 235.62891 129.14844 C 235.6289 129.14842 235.62695 129.14258 235.62695 129.14258 L 235.62891 129.14062 z M 227.21289 135.25977 C 227.21269 135.26058 227.2131 135.26673 227.21289 135.26758 C 227.21476 135.27497 228.14222 138.9364 228.94141 140.63867 C 229.7834 142.43066 230.79192 144.18845 232.12891 145.64844 C 233.5769 147.22943 237.23242 149.56641 237.23242 149.56641 C 237.23242 149.56641 231.8763 148.34363 229.94531 146.55664 C 228.61832 145.33165 227.94532 143.4755 227.48633 141.72852 C 226.93955 139.64618 227.1207 135.64796 227.21289 135.26758 C 227.21289 135.26757 227.21094 135.26367 227.21094 135.26367 L 227.21289 135.25977 z M 152.73242 138.61719 C 152.73242 138.61719 158.27237 141.1935 159.81836 143.64648 C 161.95934 147.03746 161.88086 155.50195 161.88086 155.50195 C 161.88086 155.50195 164.75054 152.4509 166.51953 151.37891 C 169.30951 149.68792 176.31101 147.51244 175.66602 147.89844 C 175.02202 148.28543 169.1457 152.4123 166.26172 155.11328 C 162.88574 158.27526 159.69522 161.71081 157.11523 165.55078 C 155.77624 167.54377 153.89453 171.99219 153.89453 171.99219 C 153.89453 171.99219 153.58135 165.4142 154.15234 162.19922 C 154.85734 158.22825 158.19258 154.76239 158.01758 150.73242 C 157.82758 146.33245 152.73438 138.62305 152.73438 138.62305 L 152.73242 138.61719 z M 222.42578 144.30078 C 222.42558 144.30159 222.42598 144.30774 222.42578 144.30859 C 222.42846 144.31921 223.16308 147.2266 223.79492 148.57812 C 224.46092 150.00311 225.25841 151.39956 226.31641 152.56055 C 227.4624 153.81754 230.35742 155.67578 230.35742 155.67578 C 230.35742 155.67578 226.11883 154.70119 224.58984 153.2832 C 223.53985 152.30921 223.00558 150.8343 222.64258 149.44531 C 222.2098 147.78997 222.35358 144.61395 222.42578 144.30859 C 222.42578 144.30857 222.42383 144.30273 222.42383 144.30273 L 222.42578 144.30078 z M 186.48828 147.89844 C 186.87528 148.28543 186.68577 154.21076 187.25977 157.30273 C 187.92676 160.89171 190.01246 164.24412 190.93945 167.74609 C 191.45045 166.4761 191.90811 165.18699 192.28711 163.875 C 193.2711 160.46602 193.57422 153.31055 193.57422 153.31055 C 193.57422 153.31055 197.39487 162.24192 196.79688 166.83789 C 196.02388 172.78285 192.43294 178.34858 188.29297 182.68555 C 184.94099 186.19652 175.02193 190.8022 175.79492 190.1582 C 176.56792 189.51421 182.78877 181.95922 185.84375 177.53125 C 186.33175 176.82326 186.97516 176.15249 187.16016 175.3125 C 187.81815 172.32852 186.87246 169.18034 186.23047 166.19336 C 185.37447 162.21039 181.89724 158.64563 182.36523 154.59766 C 182.66623 151.99267 186.48828 147.89844 186.48828 147.89844 z M 201.68945 176.50195 L 201.69141 176.50195 C 201.69141 176.50195 200.20048 181.52349 200.14648 184.10547 C 200.10048 186.27945 200.38279 188.52094 201.17578 190.54492 C 201.85378 192.27491 202.57654 194.41855 204.26953 195.18555 C 206.04552 195.98954 210.06641 194.41211 210.06641 194.41211 C 210.06641 194.41211 206.66142 198.14944 204.39844 198.14844 C 201.98045 198.14844 199.61788 196.20828 198.33789 194.1543 C 196.5099 191.21332 196.29483 187.22763 197.04883 183.84766 C 197.67882 181.02168 201.68945 176.50195 201.68945 176.50195 z M 238.49414 219.31641 C 238.49914 219.32541 238.50195 219.35525 238.50195 219.40625 C 238.50195 220.22224 239.6246 224.16327 238.97461 226.40625 C 238.34861 228.56923 236.83517 230.57267 234.99219 231.84766 C 233.4542 232.91265 229.5957 233.34375 229.5957 233.34375 C 229.5957 233.34375 232.14888 231.87012 233.17188 230.82812 C 234.74286 229.22814 236.01823 227.29599 236.94922 225.25 C 237.73108 223.53251 238.41053 219.1946 238.49414 219.31641 z M 246.66211 221.3125 L 246.66602 221.3125 C 246.66545 221.31156 246.66272 221.32094 246.66211 221.32031 C 246.66913 221.33487 246.67383 221.36901 246.67383 221.43555 C 246.67383 222.56854 248.24593 228.04213 247.33594 231.16211 C 246.45994 234.16209 244.34265 236.94286 241.76367 238.71484 C 239.61069 240.19383 234.20898 240.79297 234.20898 240.79297 C 234.20898 240.79297 237.78376 238.74482 239.21875 237.29883 C 241.41773 235.07784 243.20287 232.39662 244.50586 229.55664 C 245.59639 227.18155 246.54041 221.19479 246.66211 221.32031 C 246.66164 221.31933 246.66261 221.31326 246.66211 221.3125 z M 255.51172 226.74414 L 255.51953 226.74414 C 255.52653 226.75514 255.51953 226.79052 255.51953 226.85352 C 255.51953 227.86351 256.91146 232.72411 256.10547 235.49609 C 255.32847 238.16507 253.45395 240.635 251.16797 242.20898 C 249.25998 243.52297 244.4707 244.05469 244.4707 244.05469 C 244.4707 244.05469 247.64117 242.23616 248.91016 240.95117 C 250.85914 238.97719 252.43971 236.59429 253.5957 234.07031 C 254.5667 231.94833 255.41072 226.57714 255.51172 226.74414 z M 146.67383 229.05273 C 146.67383 229.05273 146.67578 229.06248 146.67578 229.0625 C 146.68858 229.07975 150.5563 234.29078 153.34766 235.73438 C 156.39563 237.31136 163.49609 237.4707 163.49609 237.4707 C 163.49609 237.4707 162.91289 239.05405 162.96289 239.87305 C 163.05189 241.33404 164.43164 244.01367 164.43164 244.01367 C 164.43164 244.01367 160.34586 243.28892 158.42188 242.54492 C 156.24789 241.70493 152.2793 239.20703 152.2793 239.20703 C 152.2793 239.20703 153.51629 246.98067 152.2793 250.55664 C 150.98431 254.30161 144.93555 259.9043 144.93555 259.9043 C 144.93555 259.9043 148.54104 254.56617 149.20703 251.49219 C 150.08502 247.44322 149.17082 243.18624 148.67383 239.07227 C 148.26636 235.69668 146.6799 229.07969 146.67578 229.0625 C 146.67576 229.06247 146.67188 229.05664 146.67188 229.05664 L 146.67383 229.05273 z M 277.30273 229.33203 C 277.31173 229.30603 277.31641 229.31142 277.31641 229.35742 C 277.31641 229.72842 277.80844 231.51807 277.52344 232.53906 C 277.24944 233.52206 276.58534 234.42977 275.77734 235.00977 C 275.10335 235.49376 273.41211 235.68945 273.41211 235.68945 C 273.41211 235.68945 274.53052 235.01987 274.97852 234.54688 C 275.66751 233.81988 276.22872 232.94267 276.63672 232.01367 C 276.95672 231.28468 277.23773 229.51503 277.30273 229.33203 z M 267.0332 229.60352 C 267.04512 229.57169 267.05273 229.57635 267.05273 229.63867 C 267.05273 230.16067 267.76056 232.6802 267.35156 234.11719 C 266.95757 235.50018 266.00569 236.77971 264.8457 237.5957 C 263.87771 238.2767 261.44922 238.55273 261.44922 238.55273 C 261.44922 238.55273 263.05622 237.61031 263.69922 236.94531 C 264.68721 235.92232 265.49018 234.68885 266.07617 233.38086 C 266.53617 232.35487 266.9402 229.86051 267.0332 229.60352 z M 174.70703 235.60352 C 174.71039 235.60711 177.91611 239.03973 179.74414 240.50195 C 181.70213 242.06894 183.75403 243.59934 186.04102 244.61133 C 189.11599 245.97032 195.80078 247.13867 195.80078 247.13867 C 195.80078 247.13867 188.82129 248.01546 185.57031 246.98047 C 182.90633 246.13247 180.56056 244.28422 178.64258 242.24023 C 176.88783 240.36664 174.71257 235.61562 174.70703 235.60352 z M 170.49023 245.87109 L 170.49414 245.87109 C 170.49414 245.87109 170.49802 245.87884 170.49805 245.87891 C 170.51142 245.89322 173.56343 249.15876 175.30859 250.55469 C 177.18158 252.05168 179.14091 253.51443 181.33789 254.48242 C 184.27987 255.78041 190.67578 256.89844 190.67578 256.89844 C 190.67578 256.89844 183.9977 257.73704 180.88672 256.74805 C 178.33774 255.93805 176.09075 254.16783 174.25977 252.21484 C 172.58325 250.42663 170.5091 245.90302 170.49805 245.87891 C 170.49802 245.87887 170.49023 245.87109 170.49023 245.87109 z M 167.76953 253.89258 C 167.77289 253.89616 170.49198 256.79798 172.04102 258.0332 C 173.702 259.35719 175.43883 260.65087 177.38281 261.50586 C 179.99179 262.65385 185.66211 263.64062 185.66211 263.64062 C 185.66211 263.64062 179.7414 264.38181 176.98242 263.50781 C 174.72244 262.79182 172.72946 261.22903 171.10547 259.49805 C 169.61773 257.91545 167.7751 253.9047 167.76953 253.89258 z M 164.41992 264.56641 C 164.41992 264.56641 166.45143 266.71005 167.60742 267.62305 C 168.84541 268.60004 170.13795 269.55355 171.58594 270.18555 C 173.52992 271.03354 177.75781 271.76367 177.75781 271.76367 C 177.75781 271.76367 173.34505 272.31201 171.28906 271.66602 C 169.60507 271.13702 168.11819 269.98202 166.9082 268.70703 C 165.79721 267.53704 164.41992 264.56641 164.41992 264.56641 z M 161.32617 276.60742 C 161.32956 276.61097 162.97313 278.33026 163.91016 279.0625 C 164.91015 279.84749 165.96563 280.617 167.14062 281.125 C 168.71861 281.806 172.15039 282.39258 172.15039 282.39258 C 172.15039 282.39258 168.56938 282.8315 166.90039 282.3125 C 165.5334 281.8875 164.3287 280.96054 163.3457 279.93555 C 162.44371 278.99455 161.32617 276.60742 161.32617 276.60742 z M 152.55859 276.73828 L 152.5625 276.73828 C 152.5625 276.73828 147.49031 280.04903 145.11133 281.91602 C 140.95836 285.17399 136.92016 288.61151 133.24219 292.39648 C 131.1802 294.51847 127.55859 299.2168 127.55859 299.2168 C 127.55859 299.2168 130.22548 293.27684 132.23047 290.75586 C 135.32845 286.85989 139.15887 283.47332 143.33984 280.77734 C 146.15982 278.96036 152.55859 276.73828 152.55859 276.73828 z M 229.08789 283.8457 C 226.70691 283.8107 224.29198 284.10125 222 284.53125 C 211.03208 286.58424 201.89019 294.34776 191.32227 297.92773 C 186.9663 299.40372 177.92578 301.22852 177.92578 301.22852 C 177.92578 301.22852 181.83664 304.09994 184.14062 304.33594 C 190.66858 305.00493 196.74997 300.65515 203.16992 299.28516 C 208.29989 298.19016 213.46616 297.05676 218.70312 296.75977 C 221.42011 296.60577 224.76144 295.41245 226.85742 297.14844 C 229.2144 299.10142 228.99414 306.08008 228.99414 306.08008 C 228.99414 306.08008 225.00787 302.81226 222.58789 302.19727 C 218.63092 301.19727 214.38244 302.1133 210.35547 302.7793 C 205.04051 303.65729 199.57823 304.71511 194.82227 307.24609 C 192.51028 308.47608 188.80273 312.29688 188.80273 312.29688 C 188.80273 312.29688 193.07231 314.53895 195.4043 314.62695 C 200.36226 314.81395 204.81152 310.83214 209.77148 310.74414 C 212.62846 310.69314 215.83111 310.97356 218.12109 312.68555 C 220.44108 314.42253 222.39258 320.25781 222.39258 320.25781 C 222.39258 320.25781 217.40326 315.66762 214.23828 315.01562 C 208.45432 313.82463 202.58263 316.91974 196.76367 317.92773 C 193.5237 318.48973 189.84267 317.93279 187.05469 319.67578 C 185.2877 320.78077 183.36523 324.72461 183.36523 324.72461 C 183.36523 324.72461 189.38521 322.84253 192.49219 322.39453 C 196.01816 321.88653 199.62995 321.60786 203.16992 322.00586 C 206.1649 322.34286 209.51222 322.50795 211.9082 324.33594 C 214.05319 325.97193 215.98633 331.32617 215.98633 331.32617 C 215.98633 331.32617 210.51502 327.01098 207.24805 326.08398 C 202.26708 324.67099 196.84881 325.21768 191.71484 325.88867 C 188.84986 326.26267 186.22821 327.82675 183.36523 328.21875 C 181.69825 328.44675 178.31641 328.21875 178.31641 328.21875 C 178.31641 328.21875 178.64444 329.66247 178.89844 330.35547 C 179.26743 331.36546 180.25586 333.26758 180.25586 333.26758 C 180.25586 333.26758 185.56518 330.77619 188.41016 330.74219 C 192.91712 330.68819 197.95895 331.54466 201.41992 334.43164 C 204.5759 337.06462 206.36543 341.41998 206.85742 345.50195 C 207.32542 349.38393 206.05497 353.44606 204.33398 356.95703 C 202.334 361.042 199.16168 364.61743 195.5957 367.44141 C 192.53273 369.86739 185.11133 372.68164 185.11133 372.68164 C 185.11133 372.68164 193.74713 374.54269 198.12109 374.42969 C 201.28107 374.34769 204.63347 374.13563 207.43945 372.68164 C 212.96641 369.81866 217.72191 365.06184 220.83789 359.67188 C 222.94388 356.0299 223.94336 347.44141 223.94336 347.44141 C 223.94336 347.44141 224.08094 357.43967 222.00195 361.80664 C 219.40197 367.2626 214.38814 371.35279 209.57617 375.00977 C 205.0352 378.46074 194.43555 382.9707 194.43555 382.9707 C 194.43555 382.9707 200.7456 386.11612 204.14258 386.07812 C 208.31755 386.03213 212.28431 383.92899 215.98828 382 C 219.89225 379.96701 222.43405 375.44537 226.66602 374.23438 C 229.286 373.48438 234.82031 374.81641 234.82031 374.81641 C 234.82031 374.81641 226.42462 379.2744 225.89062 383.35938 C 224.90863 390.87632 236.68838 395.26644 237.73438 402.77539 C 237.90137 403.97338 237.42967 405.26249 236.76367 406.27148 C 235.39368 408.34647 230.9375 410.92969 230.9375 410.92969 C 230.9375 410.92969 238.16657 412.1677 241.81055 412.0957 C 245.80052 412.0167 250.02732 412.01364 253.6543 410.34766 C 255.82828 409.34866 256.92419 406.68757 259.07617 405.64258 C 260.85916 404.77658 263.09603 403.74244 264.91602 404.52344 C 265.90601 404.94743 266.66406 406.1652 266.66406 407.24219 C 266.66406 409.39617 263.16992 412.67773 263.16992 412.67773 C 263.16992 412.67773 268.47256 410.1756 270.93555 408.59961 C 275.67851 405.56463 280.38806 402.32852 284.33203 398.31055 C 288.222 394.34758 290.04441 388.55804 294.23438 384.91406 C 296.17936 383.22307 298.45427 381.19561 301.03125 381.22461 C 302.59624 381.24161 303.82843 382.65269 305.10742 383.55469 C 307.5464 385.27368 308.98132 388.78186 311.9043 389.38086 C 314.23032 389.85786 316.99723 388.90013 318.69922 387.24414 C 320.12221 385.86015 320.50763 383.59427 320.64062 381.61328 C 320.81862 378.9793 321.09492 375.56169 319.08594 373.8457 C 317.80395 372.75371 315.5811 372.97835 314.03711 373.65234 C 311.85009 374.60734 311.56094 378.12585 309.37695 379.08984 C 307.48097 379.92584 305.06605 379.71848 303.16406 378.89648 C 300.98008 377.95149 298.64428 376.16769 298.11328 373.8457 C 297.55029 371.37072 299.11273 368.69209 300.63672 366.66211 C 301.97371 364.88112 303.94328 363.43334 306.07227 362.77734 C 308.85625 361.91935 312.47652 364.71564 314.81055 362.97266 C 315.99354 362.08966 316.39561 360.11516 315.97461 358.70117 C 315.53061 357.20718 313.23346 356.95774 312.48047 355.59375 C 311.33848 353.52576 312.7014 350.51846 311.31641 348.60547 C 310.41641 347.36248 308.76127 346.28175 307.23828 346.46875 C 305.69129 346.65875 304.53618 348.23323 303.74219 349.57422 C 302.5582 351.5742 303.42444 354.40311 302.18945 356.37109 C 300.42747 359.17907 297.6808 361.96399 294.42383 362.58398 C 292.69384 362.91298 290.53301 362.35624 289.37305 361.03125 C 287.55906 358.95726 287.49563 355.58098 288.01562 352.875 C 288.48662 350.42202 290.42945 348.48874 291.89844 346.46875 C 293.00443 344.94676 295.32794 344.06221 295.58594 342.19922 C 295.73294 341.13823 295.01251 340.0171 294.22852 339.28711 C 292.50453 337.68212 289.83995 337.56471 287.625 336.76172 C 285.50702 335.99372 283.25541 333.57637 281.23242 334.56836 C 278.69744 335.81135 278.16596 339.78391 278.50195 342.58789 C 278.90295 345.93887 284.03445 347.75688 283.93945 351.13086 C 283.81045 355.67283 279.35049 359.15119 275.97852 362.20117 C 272.32154 365.50615 266.39904 365.8621 263.16406 369.58008 C 260.78108 372.31806 259.08594 379.67969 259.08594 379.67969 C 259.08594 379.67969 252.88705 372.43222 252.87305 368.03125 C 252.87305 365.10727 257.26822 363.17065 256.94922 360.26367 C 256.29422 354.28271 246.81677 352.30243 245.30078 346.48047 C 242.9898 337.61253 250.67697 328.65512 250.54297 319.49219 C 250.40997 310.33925 249.1774 300.58021 244.52344 292.69727 C 242.58945 289.42029 239.51344 286.54799 235.98047 285.125 C 233.81748 284.25301 231.46987 283.89242 229.08789 283.85742 L 229.08789 283.8457 z M 160.3125 288.48828 C 160.31933 288.49529 161.48721 289.69453 162.15625 290.20703 C 162.87424 290.75703 163.62385 291.29539 164.46484 291.65039 C 165.59284 292.12739 168.04492 292.53906 168.04492 292.53906 C 168.04492 292.53906 165.48596 292.84837 164.29297 292.48438 C 163.31598 292.18638 162.45395 291.53635 161.75195 290.81836 C 161.10931 290.16075 160.31585 288.49531 160.3125 288.48828 z M 159.4082 296.83008 C 159.4082 296.83008 160.2245 297.64228 160.6875 297.98828 C 161.1845 298.35928 161.70121 298.72094 162.2832 298.96094 C 163.0632 299.28194 164.75977 299.55859 164.75977 299.55859 C 164.75977 299.55859 162.98906 299.76648 162.16406 299.52148 C 161.48807 299.32049 160.8942 298.88339 160.4082 298.40039 C 159.96221 297.95639 159.4082 296.83008 159.4082 296.83008 z M 233.89648 299.86133 C 233.89648 299.86133 234.87022 304.05209 235.57422 306.08008 C 236.66921 309.23506 239.77758 311.96009 239.51758 315.28906 C 239.35958 317.30905 237.09906 318.57565 236.28906 320.43164 C 235.61207 321.98263 234.97461 325.33398 234.97461 325.33398 C 234.97461 325.33398 234.1581 321.00894 234.49609 318.87695 C 234.76009 317.21697 236.4212 315.89288 236.4082 314.21289 C 236.3872 311.48091 233.58868 309.37871 233.17969 306.67773 C 232.83869 304.41875 233.89648 299.86133 233.89648 299.86133 z M 177.08203 303.17578 C 177.07685 303.18805 175.48034 306.9727 175.44141 308.98242 C 175.36841 312.75039 177.4258 316.26368 178.0918 319.97266 C 178.40679 321.72564 178.72461 325.2793 178.72461 325.2793 C 178.72461 325.2793 182.03449 323.36018 183.14648 321.86719 C 184.76247 319.6962 186.42478 316.96709 186.05078 314.28711 C 185.75978 312.20212 183.71971 310.75232 182.26172 309.23633 C 181.24573 308.17834 179.78556 307.58702 178.85156 306.45703 C 178.05957 305.49804 177.08203 303.17578 177.08203 303.17578 z M 134.00195 315.03516 C 133.66676 317.24642 134.23448 319.51672 134.63477 321.7168 C 135.43776 326.13677 138.42892 330.23659 138.16992 334.72656 C 137.97392 338.12054 135.25281 340.91029 134.38281 344.19727 C 133.43682 347.77124 132.86523 355.18164 132.86523 355.18164 C 132.86523 355.18164 131.06052 347.23243 131.72852 343.31445 C 132.25051 340.25148 135.33558 337.94549 135.64258 334.85352 C 136.05358 330.71855 132.88928 326.88139 132.73828 322.73242 C 132.64442 320.13616 133.99808 315.55111 134.00195 315.03516 z M 164.68555 319.82812 L 164.6875 319.82812 C 164.6875 319.82812 168.44865 330.58123 168.09766 336.11719 C 167.72266 342.02915 165.38809 347.86515 162.28711 352.91211 C 159.46713 357.50308 151.05078 364.5293 151.05078 364.5293 C 151.05078 364.5293 157.92564 356.59131 160.14062 351.90234 C 162.59761 346.70538 163.79455 340.93133 164.56055 335.23438 C 165.24554 330.14441 164.68555 319.82812 164.68555 319.82812 z M 219.42773 333.23828 L 219.42969 333.23828 C 219.42969 333.23828 219.42579 333.24997 219.42578 333.25 C 219.4206 333.27035 217.4784 340.88889 216.55664 344.71875 C 215.39765 349.53272 216.13696 355.19648 213.20898 359.18945 C 210.609 362.73443 204.61964 365.31072 201.84766 365.88672 C 201.84766 365.88672 208.72352 360.55494 210.9375 356.91797 C 213.10548 353.35199 213.23654 348.88796 214.64453 344.95898 C 216.06568 340.99216 219.41709 333.27004 219.42578 333.25 C 219.42579 333.24997 219.42773 333.23828 219.42773 333.23828 z M 237.60938 339.45703 C 237.60938 339.45703 238.23483 343.51651 238.92383 345.4375 C 240.31482 349.31347 245.20492 352.37453 244.54492 356.4375 C 244.03393 359.58148 237.72852 363.13281 237.72852 363.13281 C 237.72852 363.13281 241.05498 357.01348 240.95898 353.6875 C 240.89798 351.57852 239.49245 349.72116 238.56445 347.82617 C 237.89746 346.46218 236.47092 345.38785 236.29492 343.88086 C 236.11607 342.35414 237.6069 339.46184 237.60938 339.45703 z M 89.011719 351.54492 C 89.011719 351.54492 89.236812 362.1608 91.341797 366.88477 C 93.250783 371.16873 96.159467 375.50383 100.27344 377.75781 C 101.70243 378.54081 105.12891 378.33984 105.12891 378.33984 C 105.12891 378.33984 106.215 376.34773 106.875 375.42773 C 107.86499 374.04774 110.17578 371.54492 110.17578 371.54492 C 110.17578 371.54492 104.64614 370.10349 102.41016 368.4375 C 96.647198 364.14353 89.011719 351.54492 89.011719 351.54492 z M 121.25195 370.46484 C 121.25195 370.46484 118.18293 374.71722 117.33594 377.1582 C 116.23595 380.33018 115.80431 383.77784 115.94531 387.13281 C 116.04131 389.4178 117.46289 393.82617 117.46289 393.82617 C 117.46289 393.82617 113.44296 388.96707 112.91797 385.99609 C 112.31797 382.63112 112.96756 378.84851 114.68555 375.89453 C 116.11254 373.43955 121.25195 370.46484 121.25195 370.46484 z M 76.582031 375.42578 L 76.582031 375.42773 C 76.582031 375.42773 81.573375 386.41193 85.902344 390.37891 C 89.16732 393.37088 93.660123 394.68945 97.746094 396.39844 C 100.01208 397.34543 104.73438 398.72656 104.73438 398.72656 C 104.73438 398.72656 101.53322 391.7268 101.82422 388.04883 C 101.99822 385.85384 104.54102 382.0293 104.54102 382.0293 C 104.54102 382.0293 97.470616 383.05264 94.056641 382.80664 C 90.504666 382.55164 87.548586 382.04055 84.349609 380.47656 C 81.575629 379.12057 76.582031 375.42578 76.582031 375.42578 z M 282.55078 378.54102 C 282.62278 378.72501 283.34186 379.72422 283.38086 380.44922 C 283.41786 381.12921 283.17068 381.85847 282.80469 382.35547 C 282.50169 382.76847 281.5957 383.06836 281.5957 383.06836 C 281.5957 383.06836 282.05156 382.42564 282.22656 382.05664 C 282.47256 381.54064 282.74669 381.00134 282.80469 380.40234 C 282.86569 379.77735 282.47878 378.35702 282.55078 378.54102 z M 274.72266 383.21289 C 274.83366 383.46989 275.93414 384.86687 275.99414 385.88086 C 276.05114 386.83185 275.66942 387.85088 275.10742 388.54688 C 274.64143 389.12387 273.25391 389.54492 273.25391 389.54492 C 273.25391 389.54492 273.95561 388.6439 274.22461 388.12891 C 274.60161 387.40691 275.01938 386.6544 275.10938 385.81641 C 275.20337 384.94241 274.61166 382.95589 274.72266 383.21289 z M 244.65234 384.49219 C 244.65834 384.49019 244.67327 384.50964 244.69727 384.55664 C 245.07526 385.31164 248.83502 389.41455 249.04102 392.39453 C 249.23401 395.18751 247.93447 398.18748 246.02148 400.23047 C 244.4335 401.92646 239.69531 403.16016 239.69531 403.16016 C 239.69531 403.16016 242.08201 400.51885 243 399.00586 C 244.28599 396.88487 245.71553 394.66801 246.01953 392.20703 C 246.31853 389.80005 244.56134 384.52019 244.65234 384.49219 z M 265.50977 386.73438 C 265.70555 387.15014 267.6382 389.39429 267.74414 391.02539 C 267.84314 392.55538 267.17445 394.19741 266.18945 395.31641 C 265.37246 396.2454 262.93555 396.92188 262.93555 396.92188 C 262.93555 396.92188 264.16277 395.47448 264.63477 394.64648 C 265.29576 393.48549 266.03145 392.27182 266.18945 390.92383 C 266.35345 389.51784 265.31577 386.32038 265.50977 386.73438 z M 256.52734 389.7168 C 256.53134 389.7168 256.54064 389.72872 256.55664 389.76172 C 256.80964 390.28471 259.32489 393.12356 259.46289 395.18555 C 259.59189 397.11853 258.7204 399.19539 257.44141 400.60938 C 256.37841 401.78337 253.21094 402.63672 253.21094 402.63672 C 253.21094 402.63672 254.80788 400.80871 255.42188 399.76172 C 256.28187 398.29373 257.23841 396.76163 257.44141 395.05664 C 257.6414 393.39065 256.46634 389.7368 256.52734 389.7168 z M 114.39844 402.68945 C 114.39844 402.68945 117.89292 404.43314 119.75391 404.99414 C 121.2539 405.44614 122.81392 405.76313 124.37891 405.82812 C 126.81789 405.93012 131.66992 405.13086 131.66992 405.13086 C 131.66992 405.13086 126.49656 407.19569 123.76758 407.30469 C 122.25959 407.36569 120.69926 407.07403 119.32227 406.45703 C 117.43628 405.61304 114.39844 402.68945 114.39844 402.68945 z M 133.85547 410.95898 L 133.85547 410.96094 C 133.85547 410.96094 129.51643 414.45048 126.93945 415.35547 C 125.51546 415.85647 123.93944 416.03461 122.43945 415.84961 C 120.38847 415.59561 116.62891 413.69141 116.62891 413.69141 C 116.62891 413.69141 120.47984 414.33422 122.42383 414.32422 C 123.98982 414.31622 125.57485 414.16067 127.08984 413.76367 C 129.45183 413.14468 133.85547 410.95898 133.85547 410.95898 z M 138.55664 415.66797 L 138.55859 415.66797 C 138.55859 415.66797 136.00466 420.61534 134.01367 422.48633 C 132.91468 423.51932 131.54165 424.32377 130.09766 424.75977 C 128.11967 425.35776 123.9082 425.13867 123.9082 425.13867 C 123.9082 425.13867 127.69381 424.16709 129.4668 423.37109 C 130.89579 422.7291 132.28187 421.9467 133.50586 420.9707 C 135.41485 419.44971 138.55664 415.66797 138.55664 415.66797 z M 147.71875 416.85742 C 147.71875 416.85742 146.08883 422.18292 144.46484 424.37891 C 143.56785 425.5929 142.36252 426.62841 141.01953 427.31641 C 139.18054 428.2584 134.99805 428.79688 134.99805 428.79688 C 134.99805 428.79688 138.54645 427.16445 140.14844 426.06445 C 141.43943 425.17746 142.66432 424.16046 143.69531 422.98047 C 145.3023 421.14248 147.7168 416.85938 147.7168 416.85938 L 147.71875 416.85742 z M 156.56641 424.38477 C 156.56641 424.38477 155.46704 427.96732 154.37305 429.44531 C 153.76905 430.26231 152.95773 430.95693 152.05273 431.41992 C 150.81374 432.05392 147.99609 432.41602 147.99609 432.41602 C 147.99609 432.41602 150.3868 431.31617 151.4668 430.57617 C 152.33679 429.97918 153.16047 429.29495 153.85547 428.50195 C 154.93846 427.26496 156.56641 424.38477 156.56641 424.38477 z M 162.65625 430.75391 C 162.65625 430.75391 161.90143 433.21548 161.14844 434.23047 C 160.73244 434.79146 160.17378 435.26894 159.55078 435.58594 C 158.69779 436.02093 156.75977 436.26953 156.75977 436.26953 C 156.75977 436.26953 158.40544 435.51681 159.14844 435.00781 C 159.74743 434.59782 160.31497 434.12703 160.79297 433.58203 C 161.53796 432.73304 162.65625 430.75391 162.65625 430.75391 z "
     transform="matrix(1.0000072,0,0,1.0000072,0,-0.00269229)"
     id="path1216-7" />
  <path
     d="m 162.50299,19.318471 -0.002,0.006 0.004,-0.004 -0.002,-0.002 m -0.002,0.006 c -0.014,0.009 -6,3.855 -7.887,6.758 -1.186,1.828 -1.865,6.266 -1.865,6.266 0,0 -2.221,-0.639 -3.543,-0.646 a 4.885077,4.885077 0 0 0 -0.64648,-1.75781 4.885077,4.885077 0 0 0 -6.71289,-1.63477 4.885077,4.885077 0 0 0 -1.63477,6.71289 4.885077,4.885077 0 0 0 6.71289,1.63281 4.885077,4.885077 0 0 0 1.13282,-0.95312 c 0.347,0.233 0.672,0.464 0.928,0.682 1.314,1.121 2.872,2.319 3.303,3.992 0.428,1.662998 0.348,3.947998 -0.959,5.060998 -2.238,1.903 -6.192,-1.101 -8.811,0.23 -2.85,1.449 -2.936,6.281 -5.85,7.598 -1.627,0.735 -4.137,0.964 -5.344,-0.35 -1.731,-1.884 0.011,-5.03 0.133,-7.662 a 4.885077,4.885077 0 0 0 2.90625,-0.69336 4.885077,4.885077 0 0 0 1.63672,-6.710938 4.885077,4.885077 0 0 0 -6.71289,-1.63281 4.885077,4.885077 0 0 0 -2.32618,3.8086 c -0.031,0 -0.069,0 -0.098,-0.002 -1.711,-0.12 -3.375,-0.704 -4.965,-1.346 -0.566,-0.228 -1.213,-0.532 -1.887,-0.863 a 6.981878,6.981878 0 0 0 -0.80468,-5.33008 6.981878,6.981878 0 0 0 -9.5918,-2.33398 6.981878,6.981878 0 0 0 -2.33594,9.59179 6.981878,6.981878 0 0 0 4.36328,3.160158 c -0.015,0.752 -0.044,1.47 -0.102,2.078 -0.161,1.707 -0.407,3.454 -1.086,5.03 -0.012,0.027 -0.031,0.06 -0.045,0.088 a 4.885077,4.885077 0 0 0 -4.44922,0.31445 4.885077,4.885077 0 0 0 -1.63672,6.71289 4.885077,4.885077 0 0 0 6.7129,1.63281 4.885077,4.885077 0 0 0 1.95117,-2.26367 c 2.393,1.101 5.988,0.998 6.861,3.402 0.612,1.676 -0.743,3.799 -2.143,4.908 -2.508,1.982 -6.843,-0.16 -9.439,1.705 -2.385,1.714 -1.538,6.606 -4.256,7.719 -1.589,0.65 -3.654,-0.329 -4.934,-1.473 -1.288,-1.151 -1.633,-3.087 -2.025,-4.77 -0.076,-0.327 -0.134,-0.722 -0.182,-1.137 a 4.885077,4.885077 0 0 0 1.36914,-0.57031 4.885077,4.885077 0 0 0 1.63281,-6.71094 4.885077,4.885077 0 0 0 -6.71289,-1.63281 4.885077,4.885077 0 0 0 -1.63281,6.71289 4.885077,4.885077 0 0 0 1.26367,1.38086 c -0.601,1.178 -1.057,3.445 -1.057,3.445 0,0 -4.252,-1.437 -6.42,-1.225 -3.447,0.339 -9.631,3.898 -9.631,3.898 0,0 7.79,-0.113 11.563,0.713 2.641,0.578 5.158,1.699 7.566,2.928 4.333,2.212 12.25,7.934 12.25,7.934 0,0 8.822,-7.113 13.398,-10.445 3.546,-2.581 10.891,-7.391 10.891,-7.391 0,0 7.647,-4.311 11.57,-6.275 5.064,-2.535 15.436,-7.1 15.436,-7.1 0,0 -1.443,-9.66 -1.416,-14.524998 0.015,-2.704 0.176,-5.453 0.877,-8.06 1,-3.726 4.673,-10.577 4.682,-10.594 m 112.95,10.916 v 0.006 c -1.58,0.012 -4.963,0.126 -6.734,0.836 -1.694,0.68 -3.206,1.907 -4.35,3.33 -0.64,0.796 -1.366,1.757 -1.293,2.771 0.068,0.956 0.786,1.855 1.572,2.404 1.039,0.72 2.591,1.444 3.701,0.834 1.205,-0.663 0.711,-2.69 1.389,-3.887 0.766,-1.354 1.835,-2.534 2.961,-3.607 1.085,-1.034 3.607,-2.684 3.607,-2.684 0,0 -0.326,-0.007 -0.854,-0.004 m 26.70499,6.324 v 0.004 c -1.58,0.012 -4.963,0.126 -6.734,0.836 -1.694,0.68 -3.205,1.909 -4.348,3.332 -0.64,0.796 -1.368,1.754998 -1.295,2.769998 0.068,0.956 0.786,1.857 1.572,2.406 1.039,0.72 2.593,1.442 3.703,0.832 1.205,-0.663 0.711,-2.69 1.389,-3.887 0.766,-1.353998 1.833,-2.533998 2.959,-3.606998 1.085,-1.034 3.609,-2.682 3.609,-2.682 0,0 -0.326,-0.007 -0.854,-0.004 m 11.238,29.679998 c 0,0 -1.543,2.588 -2.531,3.715 -1.026,1.169 -2.162,2.286 -3.482,3.107 -1.168,0.727 -3.212,0.316 -3.824,1.547 -0.564,1.134 0.222,2.658 0.984,3.666 0.581,0.763 1.511,1.442 2.469,1.471 1.017,0.031 1.944,-0.734 2.713,-1.406 1.375,-1.201 2.539,-2.761 3.148,-4.482 0.636,-1.799 0.612,-5.185 0.559,-6.764 l 0.01,-0.002 c -0.019,-0.527 -0.041,-0.852 -0.041,-0.852 m -1.658,116.370001 v 0.006 c -1.58,0.012 -4.963,0.126 -6.734,0.836 -1.694,0.68 -3.206,1.909 -4.35,3.332 -0.64,0.796 -1.366,1.755 -1.293,2.77 0.068,0.956 0.786,1.855 1.572,2.404 1.039,0.72 2.593,1.444 3.703,0.834 1.205,-0.663 0.711,-2.69 1.389,-3.887 0.766,-1.354 1.833,-2.534 2.959,-3.607 1.085,-1.034 3.607,-2.684 3.607,-2.684 0,0 -0.324,-0.007 -0.852,-0.004 m 3.34604,32.906 c -1.021,0.036 -2.22304,0.113 -2.94304,0.832 -0.679,0.676 -0.89,1.807 -0.791,2.762 0.134,1.257 0.602,2.907 1.789,3.348 1.28904,0.479 2.50104,-1.221 3.85004,-1.49 1.525,-0.305 3.116,-0.27 4.664,-0.119 1.492,0.145 4.389,0.979 4.389,0.979 0,0 -0.208,-0.251 -0.555,-0.648 v 0.002 c -1.042,-1.188 -3.34,-3.675 -5.04,-4.551 -1.622,-0.838 -3.539,-1.178 -5.363,-1.113 m -9.53504,32.852 c -0.159,-0.012 -0.319,0.002 -0.484,0.051 -1.215,0.359 -1.794,1.972 -2.01,3.217 -0.163,0.946 -0.029,2.089 0.602,2.811 0.67,0.766 1.863,0.924 2.879,1.029 1.815,0.189 3.752,-0.019 5.428,-0.744 1.751,-0.759 4.21204,-3.081 5.33204,-4.195 l 0.01,0.002 c 0.373,-0.372 0.598,-0.609 0.598,-0.609 0,0 -2.947,0.633 -4.44504,0.676 -1.554,0.045 -3.145,-0.027 -4.646,-0.436 -1.161,-0.316 -2.143,-1.717 -3.254,-1.801 m -6.553,74.2 v 0.004 c -1.58,0.012 -4.963,0.128 -6.734,0.838 -1.694,0.68 -3.20499,1.907 -4.34799,3.33 -0.64,0.796 -1.368,1.755 -1.295,2.77 0.068,0.956 0.786,1.857 1.572,2.406 1.039,0.72 2.59299,1.442 3.70299,0.832 1.205,-0.663 0.711,-2.69 1.389,-3.887 0.766,-1.354 1.833,-2.533 2.959,-3.605 1.085,-1.034 3.609,-2.684 3.609,-2.684 0,0 -0.326,-0.007 -0.854,-0.004 m 25.29104,17.434 c 0,0 -1.667,2.512 -2.709,3.59 -1.081,1.118 -2.268,2.177 -3.627,2.934 -1.201,0.669 -3.225,0.161 -3.896,1.361 -0.61804,1.106 0.094,2.663 0.807,3.707 0.544,0.791 1.439,1.515 2.395,1.59 1.014,0.08 1.979,-0.641 2.779,-1.275 1.431,-1.133 2.67,-2.635 3.361,-4.324 0.723,-1.766 0.862,-5.149 0.885,-6.729 v 0 c 0.01,-0.527 0,-0.854 0,-0.854 m 10.568,30 c 0,0 -2.383,1.849 -3.715,2.537 -1.381,0.714 -2.843,1.338 -4.373,1.621 -1.352,0.25 -3.107,-0.878 -4.127,0.045 -0.939,0.85 -0.762,2.557 -0.42,3.773 0.263,0.923 0.879,1.893 1.76,2.27 0.936,0.4 2.08,0.025 3.041,-0.32 1.718,-0.617 3.371,-1.643 4.566,-3.02 1.249,-1.443 2.46,-4.604 2.986,-6.094 h 0.01 c 0.175,-0.497 0.275,-0.809 0.275,-0.809 m -129.74003,33.17 c -0.928,-0.006 -1.859,0.102 -2.748,0.307 -0.995,0.228 -2.161,0.531 -2.732,1.373 -0.538,0.793 -0.533,1.943 -0.256,2.861 0.369,1.209 1.141,2.741 2.391,2.949 1.357,0.226 2.225,-1.672 3.498,-2.191 1.44,-0.588 3.01,-0.851 4.557,-0.996 1.492,-0.14 4.494,0.129 4.494,0.129 0,0 -0.25,-0.207 -0.666,-0.531 l -0.004,0.002 c -1.248,-0.969 -3.975,-2.976 -5.805,-3.516 -0.876,-0.258 -1.801,-0.38 -2.729,-0.387 m 9.516,22.13 c 0,0 -2.502,1.681 -3.877,2.277 -1.427,0.619 -2.927,1.143 -4.473,1.322 -1.366,0.158 -3.041,-1.086 -4.121,-0.234 -0.994,0.785 -0.935,2.497 -0.676,3.734 0.2,0.939 0.75,1.95 1.604,2.385 0.906,0.462 2.074,0.166 3.057,-0.113 1.756,-0.499 3.474,-1.411 4.76,-2.707 1.344,-1.355 2.766,-4.426 3.393,-5.877 h 0.006 c 0.208,-0.484 0.328,-0.787 0.328,-0.787 m -16.15,30.377 c -0.159,-0.005 -0.32,0.017 -0.482,0.072 -1.198,0.411 -1.709,2.046 -1.875,3.299 -0.123,0.952 0.062,2.09 0.723,2.783 0.702,0.737 1.901,0.842 2.92,0.904 1.822,0.112 3.746,-0.18 5.389,-0.977 1.717,-0.833 4.079,-3.257 5.15,-4.418 l 0.004,0.002 c 0.357,-0.388 0.572,-0.635 0.572,-0.635 0,0 -2.919,0.758 -4.414,0.865 -1.551,0.111 -3.141,0.105 -4.658,-0.238 -1.174,-0.266 -2.215,-1.621 -3.328,-1.658"
     id="path1270-1"
     inkscape:connector-curvature="0"
     style="fill:#ed1c24;fill-rule:evenodd;fill-opacity:1" />
  <path
     transform="translate(742.9343,12.267977)"
     style="fill:#ed1c24;fill-opacity:1;stroke:#000000;stroke-width:1.00000715px;stroke-linecap:butt;stroke-linejoin:miter;stroke-opacity:1"
     d="m -577.52155,92.995499 c 5.93999,-1.421854 11.64261,-3.830243 16.80359,-7.096663 4.48326,-2.837489 8.54188,-6.305219 12.3172,-10.033213 3.49769,-3.453842 6.85728,-7.298084 8.32022,-11.990913 0.34489,-1.106333 0.57897,-2.245433 0.94139,-3.346146 0.36242,-1.100713 0.86664,-2.180123 1.66888,-3.01638 0.8915,-0.929302 2.1296,-1.511051 3.41153,-1.633683 1.28193,-0.122631 2.5981,0.209072 3.68513,0.899546 1.53452,0.974719 2.57162,2.624353 3.01617,4.387078 0.44454,1.762725 0.33384,3.631148 -0.0796,5.401422 -0.89001,3.810666 -3.15128,7.207329 -5.9779,9.913527 -2.82663,2.706197 -6.2058,4.770039 -9.6837,6.563783 -5.2046,2.684302 -10.69062,4.81038 -16.31417,6.444096 -5.91255,1.717673 -11.98243,2.893371 -18.10872,3.507546 z"
     id="path2975-2"
     inkscape:connector-curvature="0"
     inkscape:path-effect="#path-effect2977-0"
     inkscape:original-d="m -577.52155,92.995499 c 0,0 11.59348,-3.962337 16.80359,-7.096663 4.53766,-2.729789 8.71955,-6.14747 12.3172,-10.033213 3.30515,-3.569814 5.99656,-7.716787 8.32022,-11.990913 1.09492,-2.013994 0.77468,-4.989335 2.61027,-6.362526 1.90428,-1.424583 5.11806,-2.053562 7.09666,-0.734137 2.83414,1.889943 3.72735,6.475064 2.93655,9.7885 -1.75912,7.37064 -9.37973,12.239506 -15.6616,16.47731 -4.84709,3.269892 -10.70106,4.807168 -16.31417,6.444096 -5.90256,1.721339 -18.10872,3.507546 -18.10872,3.507546 z"
     sodipodi:nodetypes="caaaaaaaac" />
  <path
     inkscape:connector-curvature="0"
     style="fill:#ffffff;stroke:none;stroke-width:0.20000145;stroke-linecap:butt;stroke-linejoin:miter;stroke-miterlimit:4;stroke-dasharray:none;stroke-opacity:1"
     d="m 174.48349,87.691669 c -0.51781,-0.02538 -1.04277,0.106568 -1.48439,0.378909 0.35553,0.517797 0.62647,1.093294 0.79884,1.697278 0.2961,1.037527 0.2961,2.157808 0,3.195336 0.54417,-0.53244 1.01634,-1.140351 1.39845,-1.798841 0.48334,-0.832955 0.82222,-1.748487 0.99805,-2.695333 -0.32577,-0.336302 -0.74614,-0.581197 -1.19922,-0.699224 -0.16736,-0.04359 -0.33912,-0.06967 -0.51173,-0.07813 z m -6.59379,1.091804 c -0.51782,-0.02538 -1.04278,0.104615 -1.48439,0.376956 0.35552,0.517798 0.62646,1.093295 0.79883,1.697278 0.2961,1.037528 0.2961,2.157809 0,3.195336 0.54418,-0.532439 1.01439,-1.138397 1.39649,-1.796888 0.48336,-0.832954 0.82222,-1.748486 0.99806,-2.695332 -0.32576,-0.336303 -0.74419,-0.581197 -1.19727,-0.699224 -0.16736,-0.04359 -0.33912,-0.06967 -0.51172,-0.07813 z m -5.97076,2.326189 c -0.51781,-0.02538 -1.04276,0.106568 -1.48438,0.378909 0.35553,0.517798 0.62646,1.093295 0.79884,1.697278 0.2961,1.037528 0.2961,2.157809 0,3.195335 0.54417,-0.532439 1.01634,-1.140349 1.39844,-1.798841 0.48335,-0.832954 0.82221,-1.748485 0.99806,-2.695331 -0.32577,-0.336304 -0.74614,-0.581197 -1.19923,-0.699224 -0.16736,-0.04359 -0.33912,-0.06967 -0.51173,-0.07813 z"
     id="path3017" />
</svg>
