<svg xmlns="http://www.w3.org/2000/svg" xml:space="preserve" width="500" height="590"><defs><clipPath id="ay" clipPathUnits="userSpaceOnUse"><path d="M-9-9h860v614H-9Z" style="clip-rule:evenodd"/></clipPath><clipPath id="ax" clipPathUnits="userSpaceOnUse"><path d="M-9-9h860v614H-9Z" style="clip-rule:evenodd"/></clipPath><clipPath id="b" clipPathUnits="userSpaceOnUse"><path d="M-9-9h860v614H-9Z" style="clip-rule:evenodd"/></clipPath><clipPath id="c" clipPathUnits="userSpaceOnUse"><path d="M-9-9h860v614H-9Z" style="clip-rule:evenodd"/></clipPath><clipPath id="d" clipPathUnits="userSpaceOnUse"><path d="M-9-9h860v614H-9Z" style="clip-rule:evenodd"/></clipPath><clipPath id="e" clipPathUnits="userSpaceOnUse"><path d="M-9-9h860v614H-9Z" style="clip-rule:evenodd"/></clipPath><clipPath id="f" clipPathUnits="userSpaceOnUse"><path d="M-9-9h860v614H-9Z" style="clip-rule:evenodd"/></clipPath><clipPath id="g" clipPathUnits="userSpaceOnUse"><path d="M-9-9h860v614H-9Z" style="clip-rule:evenodd"/></clipPath><clipPath id="h" clipPathUnits="userSpaceOnUse"><path d="M-9-9h860v614H-9Z" style="clip-rule:evenodd"/></clipPath><clipPath id="i" clipPathUnits="userSpaceOnUse"><path d="M-9-9h860v614H-9Z" style="clip-rule:evenodd"/></clipPath><clipPath id="j" clipPathUnits="userSpaceOnUse"><path d="M-9-9h860v614H-9Z" style="clip-rule:evenodd"/></clipPath><clipPath id="k" clipPathUnits="userSpaceOnUse"><path d="M-9-9h860v614H-9Z" style="clip-rule:evenodd"/></clipPath><clipPath id="l" clipPathUnits="userSpaceOnUse"><path d="M-9-9h860v614H-9Z" style="clip-rule:evenodd"/></clipPath><clipPath id="m" clipPathUnits="userSpaceOnUse"><path d="M-9-9h860v614H-9Z" style="clip-rule:evenodd"/></clipPath><clipPath id="n" clipPathUnits="userSpaceOnUse"><path d="M-9-9h860v614H-9Z" style="clip-rule:evenodd"/></clipPath><clipPath id="o" clipPathUnits="userSpaceOnUse"><path d="M-9-9h860v614H-9Z" style="clip-rule:evenodd"/></clipPath><clipPath id="p" clipPathUnits="userSpaceOnUse"><path d="M-9-9h860v614H-9Z" style="clip-rule:evenodd"/></clipPath><clipPath id="q" clipPathUnits="userSpaceOnUse"><path d="M-9-9h860v614H-9Z" style="clip-rule:evenodd"/></clipPath><clipPath id="r" clipPathUnits="userSpaceOnUse"><path d="M-9-9h860v614H-9Z" style="clip-rule:evenodd"/></clipPath><clipPath id="s" clipPathUnits="userSpaceOnUse"><path d="M-9-9h860v614H-9Z" style="clip-rule:evenodd"/></clipPath><clipPath id="t" clipPathUnits="userSpaceOnUse"><path d="M-9-9h860v614H-9Z" style="clip-rule:evenodd"/></clipPath><clipPath id="u" clipPathUnits="userSpaceOnUse"><path d="M-9-9h860v614H-9Z" style="clip-rule:evenodd"/></clipPath><clipPath id="v" clipPathUnits="userSpaceOnUse"><path d="M-9-9h860v614H-9Z" style="clip-rule:evenodd"/></clipPath><clipPath id="w" clipPathUnits="userSpaceOnUse"><path d="M-9-9h860v614H-9Z" style="clip-rule:evenodd"/></clipPath><clipPath id="x" clipPathUnits="userSpaceOnUse"><path d="M-9-9h860v614H-9Z" style="clip-rule:evenodd"/></clipPath><clipPath id="y" clipPathUnits="userSpaceOnUse"><path d="M-9-9h860v614H-9Z" style="clip-rule:evenodd"/></clipPath><clipPath id="z" clipPathUnits="userSpaceOnUse"><path d="M-9-9h860v614H-9Z" style="clip-rule:evenodd"/></clipPath><clipPath id="A" clipPathUnits="userSpaceOnUse"><path d="M-9-9h860v614H-9Z" style="clip-rule:evenodd"/></clipPath><clipPath id="B" clipPathUnits="userSpaceOnUse"><path d="M-9-9h860v614H-9Z" style="clip-rule:evenodd"/></clipPath><clipPath id="C" clipPathUnits="userSpaceOnUse"><path d="M-9-9h860v614H-9Z" style="clip-rule:evenodd"/></clipPath><clipPath id="D" clipPathUnits="userSpaceOnUse"><path d="M-9-9h860v614H-9Z" style="clip-rule:evenodd"/></clipPath><clipPath id="E" clipPathUnits="userSpaceOnUse"><path d="M-9-9h860v614H-9Z" style="clip-rule:evenodd"/></clipPath><clipPath id="F" clipPathUnits="userSpaceOnUse"><path d="M-9-9h860v614H-9Z" style="clip-rule:evenodd"/></clipPath><clipPath id="G" clipPathUnits="userSpaceOnUse"><path d="M-9-9h860v614H-9Z" style="clip-rule:evenodd"/></clipPath><clipPath id="H" clipPathUnits="userSpaceOnUse"><path d="M-9-9h860v614H-9Z" style="clip-rule:evenodd"/></clipPath><clipPath id="I" clipPathUnits="userSpaceOnUse"><path d="M-9-9h860v614H-9Z" style="clip-rule:evenodd"/></clipPath><clipPath id="J" clipPathUnits="userSpaceOnUse"><path d="M-9-9h860v614H-9Z" style="clip-rule:evenodd"/></clipPath><clipPath id="K" clipPathUnits="userSpaceOnUse"><path d="M-9-9h860v614H-9Z" style="clip-rule:evenodd"/></clipPath><clipPath id="L" clipPathUnits="userSpaceOnUse"><path d="M-9-9h860v614H-9Z" style="clip-rule:evenodd"/></clipPath><clipPath id="M" clipPathUnits="userSpaceOnUse"><path d="M-9-9h860v614H-9Z" style="clip-rule:evenodd"/></clipPath><clipPath id="N" clipPathUnits="userSpaceOnUse"><path d="M-9-9h860v614H-9Z" style="clip-rule:evenodd"/></clipPath><clipPath id="O" clipPathUnits="userSpaceOnUse"><path d="M-9-9h860v614H-9Z" style="clip-rule:evenodd"/></clipPath><clipPath id="P" clipPathUnits="userSpaceOnUse"><path d="M-9-9h860v614H-9Z" style="clip-rule:evenodd"/></clipPath><clipPath id="Q" clipPathUnits="userSpaceOnUse"><path d="M-9-9h860v614H-9Z" style="clip-rule:evenodd"/></clipPath><clipPath id="R" clipPathUnits="userSpaceOnUse"><path d="M-9-9h860v614H-9Z" style="clip-rule:evenodd"/></clipPath><clipPath id="S" clipPathUnits="userSpaceOnUse"><path d="M-9-9h860v614H-9Z" style="clip-rule:evenodd"/></clipPath><clipPath id="T" clipPathUnits="userSpaceOnUse"><path d="M-9-9h860v614H-9Z" style="clip-rule:evenodd"/></clipPath><clipPath id="U" clipPathUnits="userSpaceOnUse"><path d="M-9-9h860v614H-9Z" style="clip-rule:evenodd"/></clipPath><clipPath id="V" clipPathUnits="userSpaceOnUse"><path d="M-9-9h860v614H-9Z" style="clip-rule:evenodd"/></clipPath><clipPath id="W" clipPathUnits="userSpaceOnUse"><path d="M-9-9h860v614H-9Z" style="clip-rule:evenodd"/></clipPath><clipPath id="X" clipPathUnits="userSpaceOnUse"><path d="M-9-9h860v614H-9Z" style="clip-rule:evenodd"/></clipPath><clipPath id="Y" clipPathUnits="userSpaceOnUse"><path d="M-9-9h860v614H-9Z" style="clip-rule:evenodd"/></clipPath><clipPath id="Z" clipPathUnits="userSpaceOnUse"><path d="M-9-9h860v614H-9Z" style="clip-rule:evenodd"/></clipPath><clipPath id="aa" clipPathUnits="userSpaceOnUse"><path d="M-9-9h860v614H-9Z" style="clip-rule:evenodd"/></clipPath><clipPath id="ab" clipPathUnits="userSpaceOnUse"><path d="M-9-9h860v614H-9Z" style="clip-rule:evenodd"/></clipPath><clipPath id="ac" clipPathUnits="userSpaceOnUse"><path d="M-9-9h860v614H-9Z" style="clip-rule:evenodd"/></clipPath><clipPath id="ad" clipPathUnits="userSpaceOnUse"><path d="M-9-9h860v614H-9Z" style="clip-rule:evenodd"/></clipPath><clipPath id="ae" clipPathUnits="userSpaceOnUse"><path d="M-9-9h860v614H-9Z" style="clip-rule:evenodd"/></clipPath><clipPath id="af" clipPathUnits="userSpaceOnUse"><path d="M-9-9h860v614H-9Z" style="clip-rule:evenodd"/></clipPath><clipPath id="ag" clipPathUnits="userSpaceOnUse"><path d="M-9-9h860v614H-9Z" style="clip-rule:evenodd"/></clipPath><clipPath id="ah" clipPathUnits="userSpaceOnUse"><path d="M-9-9h860v614H-9Z" style="clip-rule:evenodd"/></clipPath><clipPath id="ai" clipPathUnits="userSpaceOnUse"><path d="M-9-9h860v614H-9Z" style="clip-rule:evenodd"/></clipPath><clipPath id="aj" clipPathUnits="userSpaceOnUse"><path d="M-9-9h860v614H-9Z" style="clip-rule:evenodd"/></clipPath><clipPath id="ak" clipPathUnits="userSpaceOnUse"><path d="M-9-9h860v614H-9Z" style="clip-rule:evenodd"/></clipPath><clipPath id="al" clipPathUnits="userSpaceOnUse"><path d="M-9-9h860v614H-9Z" style="clip-rule:evenodd"/></clipPath><clipPath id="am" clipPathUnits="userSpaceOnUse"><path d="M-9-9h860v614H-9Z" style="clip-rule:evenodd"/></clipPath><clipPath id="an" clipPathUnits="userSpaceOnUse"><path d="M-9-9h860v614H-9Z" style="clip-rule:evenodd"/></clipPath><clipPath id="ao" clipPathUnits="userSpaceOnUse"><path d="M-9-9h860v614H-9Z" style="clip-rule:evenodd"/></clipPath><clipPath id="ap" clipPathUnits="userSpaceOnUse"><path d="M-9-9h860v614H-9Z" style="clip-rule:evenodd"/></clipPath><clipPath id="aq" clipPathUnits="userSpaceOnUse"><path d="M-9-9h860v614H-9Z" style="clip-rule:evenodd"/></clipPath><clipPath id="ar" clipPathUnits="userSpaceOnUse"><path d="M-9-9h860v614H-9Z" style="clip-rule:evenodd"/></clipPath><clipPath id="as" clipPathUnits="userSpaceOnUse"><path d="M-9-9h860v614H-9Z" style="clip-rule:evenodd"/></clipPath><clipPath id="at" clipPathUnits="userSpaceOnUse"><path d="M-9-9h860v614H-9Z" style="clip-rule:evenodd"/></clipPath><clipPath id="au" clipPathUnits="userSpaceOnUse"><path d="M-9-9h860v614H-9Z" style="clip-rule:evenodd"/></clipPath><clipPath id="av" clipPathUnits="userSpaceOnUse"><path d="M-9-9h860v614H-9Z" style="clip-rule:evenodd"/></clipPath><clipPath id="aw" clipPathUnits="userSpaceOnUse"><path d="M-9-9h860v614H-9Z" style="clip-rule:evenodd"/></clipPath><clipPath id="a" clipPathUnits="userSpaceOnUse"><path d="M-9-9h859.89v613.276H-9Z"/></clipPath><clipPath id="az" clipPathUnits="userSpaceOnUse"><path d="M-9-9h860v614H-9Z" style="clip-rule:evenodd"/></clipPath><clipPath id="aA" clipPathUnits="userSpaceOnUse"><path d="M-9-9h860v614H-9Z" style="clip-rule:evenodd"/></clipPath><clipPath id="aB" clipPathUnits="userSpaceOnUse"><path d="M-9-9h860v614H-9Z" style="clip-rule:evenodd"/></clipPath><clipPath id="aC" clipPathUnits="userSpaceOnUse"><path d="M-9-9h860v614H-9Z" style="clip-rule:evenodd"/></clipPath><clipPath id="aD" clipPathUnits="userSpaceOnUse"><path d="M-9-9h860v614H-9Z" style="clip-rule:evenodd"/></clipPath><clipPath id="aE" clipPathUnits="userSpaceOnUse"><path d="M-9-9h860v614H-9Z" style="clip-rule:evenodd"/></clipPath><clipPath id="aF" clipPathUnits="userSpaceOnUse"><path d="M-9-9h860v614H-9Z" style="clip-rule:evenodd"/></clipPath><clipPath id="aG" clipPathUnits="userSpaceOnUse"><path d="M-9-9h860v614H-9Z" style="clip-rule:evenodd"/></clipPath><clipPath id="aH" clipPathUnits="userSpaceOnUse"><path d="M-9-9h860v614H-9Z" style="clip-rule:evenodd"/></clipPath><clipPath id="aI" clipPathUnits="userSpaceOnUse"><path d="M-9-9h860v614H-9Z" style="clip-rule:evenodd"/></clipPath><clipPath id="aJ" clipPathUnits="userSpaceOnUse"><path d="M-9-9h860v614H-9Z" style="clip-rule:evenodd"/></clipPath><clipPath id="aK" clipPathUnits="userSpaceOnUse"><path d="M-9-9h860v614H-9Z" style="clip-rule:evenodd"/></clipPath><clipPath id="aL" clipPathUnits="userSpaceOnUse"><path d="M-9-9h860v614H-9Z" style="clip-rule:evenodd"/></clipPath><clipPath id="aM" clipPathUnits="userSpaceOnUse"><path d="M-9-9h860v614H-9Z" style="clip-rule:evenodd"/></clipPath><clipPath id="aN" clipPathUnits="userSpaceOnUse"><path d="M-9-9h860v614H-9Z" style="clip-rule:evenodd"/></clipPath><clipPath id="aO" clipPathUnits="userSpaceOnUse"><path d="M-9-9h860v614H-9Z" style="clip-rule:evenodd"/></clipPath><clipPath id="aP" clipPathUnits="userSpaceOnUse"><path d="M-9-9h860v614H-9Z" style="clip-rule:evenodd"/></clipPath><clipPath id="aQ" clipPathUnits="userSpaceOnUse"><path d="M-9-9h860v614H-9Z" style="clip-rule:evenodd"/></clipPath><clipPath id="aR" clipPathUnits="userSpaceOnUse"><path d="M-9-9h860v614H-9Z" style="clip-rule:evenodd"/></clipPath><clipPath id="aS" clipPathUnits="userSpaceOnUse"><path d="M-9-9h860v614H-9Z" style="clip-rule:evenodd"/></clipPath><clipPath id="aT" clipPathUnits="userSpaceOnUse"><path d="M-9-9h860v614H-9Z" style="clip-rule:evenodd"/></clipPath><clipPath id="aU" clipPathUnits="userSpaceOnUse"><path d="M-9-9h860v614H-9Z" style="clip-rule:evenodd"/></clipPath><clipPath id="aV" clipPathUnits="userSpaceOnUse"><path d="M-9-9h860v614H-9Z" style="clip-rule:evenodd"/></clipPath><clipPath id="aW" clipPathUnits="userSpaceOnUse"><path d="M-9-9h860v614H-9Z" style="clip-rule:evenodd"/></clipPath><clipPath id="aX" clipPathUnits="userSpaceOnUse"><path d="M-9-9h860v614H-9Z" style="clip-rule:evenodd"/></clipPath><clipPath id="aY" clipPathUnits="userSpaceOnUse"><path d="M-9-9h860v614H-9Z" style="clip-rule:evenodd"/></clipPath><clipPath id="aZ" clipPathUnits="userSpaceOnUse"><path d="M-9-9h860v614H-9Z" style="clip-rule:evenodd"/></clipPath><clipPath id="ba" clipPathUnits="userSpaceOnUse"><path d="M-9-9h860v614H-9Z" style="clip-rule:evenodd"/></clipPath><clipPath id="bb" clipPathUnits="userSpaceOnUse"><path d="M-9-9h860v614H-9Z" style="clip-rule:evenodd"/></clipPath><clipPath id="bc" clipPathUnits="userSpaceOnUse"><path d="M-9-9h860v614H-9Z" style="clip-rule:evenodd"/></clipPath><clipPath id="bd" clipPathUnits="userSpaceOnUse"><path d="M-9-9h860v614H-9Z" style="clip-rule:evenodd"/></clipPath><clipPath id="be" clipPathUnits="userSpaceOnUse"><path d="M-9-9h860v614H-9Z" style="clip-rule:evenodd"/></clipPath><clipPath id="bf" clipPathUnits="userSpaceOnUse"><path d="M-9-9h860v614H-9Z" style="clip-rule:evenodd"/></clipPath><clipPath id="bg" clipPathUnits="userSpaceOnUse"><path d="M-9-9h860v614H-9Z" style="clip-rule:evenodd"/></clipPath><clipPath id="bh" clipPathUnits="userSpaceOnUse"><path d="M-9-9h860v614H-9Z" style="clip-rule:evenodd"/></clipPath><clipPath id="bi" clipPathUnits="userSpaceOnUse"><path d="M-9-9h860v614H-9Z" style="clip-rule:evenodd"/></clipPath><clipPath id="bj" clipPathUnits="userSpaceOnUse"><path d="M-9-9h860v614H-9Z" style="clip-rule:evenodd"/></clipPath><clipPath id="bk" clipPathUnits="userSpaceOnUse"><path d="M-9-9h860v614H-9Z" style="clip-rule:evenodd"/></clipPath><clipPath id="bl" clipPathUnits="userSpaceOnUse"><path d="M-9-9h860v614H-9Z" style="clip-rule:evenodd"/></clipPath><clipPath id="bm" clipPathUnits="userSpaceOnUse"><path d="M-9-9h860v614H-9Z" style="clip-rule:evenodd"/></clipPath><clipPath id="bn" clipPathUnits="userSpaceOnUse"><path d="M-9-9h860v614H-9Z" style="clip-rule:evenodd"/></clipPath><clipPath id="bo" clipPathUnits="userSpaceOnUse"><path d="M-9-9h860v614H-9Z" style="clip-rule:evenodd"/></clipPath><clipPath id="bp" clipPathUnits="userSpaceOnUse"><path d="M-9-9h860v614H-9Z" style="clip-rule:evenodd"/></clipPath><clipPath id="bq" clipPathUnits="userSpaceOnUse"><path d="M-9-9h860v614H-9Z" style="clip-rule:evenodd"/></clipPath><clipPath id="br" clipPathUnits="userSpaceOnUse"><path d="M-9-9h860v614H-9Z" style="clip-rule:evenodd"/></clipPath><clipPath id="bs" clipPathUnits="userSpaceOnUse"><path d="M-9-9h860v614H-9Z" style="clip-rule:evenodd"/></clipPath><clipPath id="bt" clipPathUnits="userSpaceOnUse"><path d="M-9-9h860v614H-9Z" style="clip-rule:evenodd"/></clipPath><clipPath id="bu" clipPathUnits="userSpaceOnUse"><path d="M-9-9h860v614H-9Z" style="clip-rule:evenodd"/></clipPath><clipPath id="bv" clipPathUnits="userSpaceOnUse"><path d="M-9-9h860v614H-9Z" style="clip-rule:evenodd"/></clipPath><clipPath id="bw" clipPathUnits="userSpaceOnUse"><path d="M-9-9h860v614H-9Z" style="clip-rule:evenodd"/></clipPath><clipPath id="bx" clipPathUnits="userSpaceOnUse"><path d="M-9-9h860v614H-9Z" style="clip-rule:evenodd"/></clipPath><clipPath id="by" clipPathUnits="userSpaceOnUse"><path d="M-9-9h860v614H-9Z" style="clip-rule:evenodd"/></clipPath><clipPath id="bz" clipPathUnits="userSpaceOnUse"><path d="M-9-9h860v614H-9Z" style="clip-rule:evenodd"/></clipPath><clipPath id="bA" clipPathUnits="userSpaceOnUse"><path d="M-9-9h860v614H-9Z" style="clip-rule:evenodd"/></clipPath><clipPath id="bB" clipPathUnits="userSpaceOnUse"><path d="M-9-9h860v614H-9Z" style="clip-rule:evenodd"/></clipPath><clipPath id="bC" clipPathUnits="userSpaceOnUse"><path d="M-9-9h860v614H-9Z" style="clip-rule:evenodd"/></clipPath><clipPath id="bD" clipPathUnits="userSpaceOnUse"><path d="M-9-9h860v614H-9Z" style="clip-rule:evenodd"/></clipPath><clipPath id="bE" clipPathUnits="userSpaceOnUse"><path d="M-9-9h860v614H-9Z" style="clip-rule:evenodd"/></clipPath><clipPath id="bF" clipPathUnits="userSpaceOnUse"><path d="M-9-9h860v614H-9Z" style="clip-rule:evenodd"/></clipPath><clipPath id="bG" clipPathUnits="userSpaceOnUse"><path d="M-9-9h860v614H-9Z" style="clip-rule:evenodd"/></clipPath><clipPath id="bH" clipPathUnits="userSpaceOnUse"><path d="M-9-9h860v614H-9Z" style="clip-rule:evenodd"/></clipPath><clipPath id="bI" clipPathUnits="userSpaceOnUse"><path d="M-9-9h860v614H-9Z" style="clip-rule:evenodd"/></clipPath><clipPath id="bJ" clipPathUnits="userSpaceOnUse"><path d="M-9-9h860v614H-9Z" style="clip-rule:evenodd"/></clipPath><clipPath id="bK" clipPathUnits="userSpaceOnUse"><path d="M-9-9h860v614H-9Z" style="clip-rule:evenodd"/></clipPath><clipPath id="bL" clipPathUnits="userSpaceOnUse"><path d="M-9-9h860v614H-9Z" style="clip-rule:evenodd"/></clipPath><clipPath id="bM" clipPathUnits="userSpaceOnUse"><path d="M-9-9h860v614H-9Z" style="clip-rule:evenodd"/></clipPath><clipPath id="bN" clipPathUnits="userSpaceOnUse"><path d="M-9-9h860v614H-9Z" style="clip-rule:evenodd"/></clipPath><clipPath id="bO" clipPathUnits="userSpaceOnUse"><path d="M-9-9h860v614H-9Z" style="clip-rule:evenodd"/></clipPath><clipPath id="bP" clipPathUnits="userSpaceOnUse"><path d="M-9-9h860v614H-9Z" style="clip-rule:evenodd"/></clipPath><clipPath id="bQ" clipPathUnits="userSpaceOnUse"><path d="M-9-9h860v614H-9Z" style="clip-rule:evenodd"/></clipPath><clipPath id="bR" clipPathUnits="userSpaceOnUse"><path d="M-9-9h860v614H-9Z" style="clip-rule:evenodd"/></clipPath><clipPath id="bS" clipPathUnits="userSpaceOnUse"><path d="M-9-9h860v614H-9Z" style="clip-rule:evenodd"/></clipPath><clipPath id="bT" clipPathUnits="userSpaceOnUse"><path d="M-9-9h860v614H-9Z" style="clip-rule:evenodd"/></clipPath><clipPath id="bU" clipPathUnits="userSpaceOnUse"><path d="M-9-9h860v614H-9Z" style="clip-rule:evenodd"/></clipPath><clipPath id="bV" clipPathUnits="userSpaceOnUse"><path d="M-9-9h860v614H-9Z" style="clip-rule:evenodd"/></clipPath></defs><g clip-path="url(#a)" transform="matrix(1.94016 0 0 -1.94016 -158.902 889.097)"><g clip-path="url(#b)" transform="translate(-210.582 -34.131)"><path d="M0 0c-75.461-.035-127.179 63.706-127.185 127.903l-.015 174.086 255.118-.074-.031-174.618C127.877 63.432 75.461.035 0 0" style="fill:#2b2b2a;fill-opacity:1;fill-rule:evenodd;stroke:none" transform="translate(420.586 189.163)"/></g><g clip-path="url(#c)" transform="translate(-210.582 -34.131)"><path d="m0 0 .023 104.113 243.277-.201L243.285 0Z" style="fill:#da121a;fill-opacity:1;fill-rule:evenodd;stroke:none" transform="translate(299.09 381.675)"/></g><g clip-path="url(#d)" transform="translate(-210.582 -34.131)"><path d="M0 0c-4.233 12.528-6.346 25.104-6.343 36.638l.014 64.474h243.284l-.008-64.626c-.002-11.438-2.215-23.97-6.601-36.486Z" style="fill:#fcdd09;fill-opacity:1;fill-rule:evenodd;stroke:none" transform="translate(305.418 278.331)"/></g><g clip-path="url(#e)" transform="translate(-210.582 -34.131)"><path d="M0 0c-61.233.025-98.941 39.963-113.683 81.113h228.761C99.845 40.093 61.196-.026 0 0" style="fill:#da121a;fill-opacity:1;fill-rule:evenodd;stroke:none" transform="translate(419.88 194.986)"/></g><g clip-path="url(#f)" transform="translate(-210.582 -34.131)"><path d="M0 0c20.995 0 38.015-17.021 38.015-38.015S20.995-76.029 0-76.029c-20.994 0-38.014 17.02-38.014 38.014C-38.014-17.021-20.994 0 0 0Zm0-11.004c14.918 0 27.011-12.094 27.011-27.011 0-14.916-12.093-27.01-27.011-27.01-14.917 0-27.01 12.094-27.01 27.01 0 14.917 12.093 27.011 27.01 27.011" style="fill:#2b2b2a;fill-opacity:1;fill-rule:evenodd;stroke:none" transform="translate(420.945 273.922)"/></g><g clip-path="url(#g)" transform="translate(-210.582 -34.131)"><path d="M0 0c-.043-2.783-4.061-6.78-1.12-11.087-1.115-1.717-.974-3.983.63-4.75 1.072-.51 2.204-.596 3.32-.599 5.605-.016 5.213 3.419 3.837 5.343 1.409.898 1.227 3.902.985 5.297-.485 2.8-1.917 5.533-1.813 5.851 1.713-.142 4.122 2.354 1.225 5.361-1.863.231-5.149.273-8.409.004C-2.501 5.275-3.762.32 0 0" style="fill:#2b2b2a;fill-opacity:1;fill-rule:evenodd;stroke:none" transform="translate(418.137 258.743)"/></g><g clip-path="url(#h)" transform="translate(-210.582 -34.131)"><path d="M0 0c-.21-1.967-.538-2.653-1.307-4.909l-.116-.34c-.423-1.259-1.183-3.56-.124-4.72.776-.376 1.385-.211 2.343-.209.884.014 1.639-.126 2.071.198.995.747.74 2.892.195 5.093C2.599-3.017 1.841-1.96 1.631.017 1.24.087.492.132 0 0" style="fill:#fff;fill-opacity:1;fill-rule:evenodd;stroke:none" transform="translate(420.165 258.758)"/></g><g clip-path="url(#i)" transform="translate(-210.582 -34.131)"><path d="M0 0c.789.007 5.257.016 5.46.027.949.044 1.236 2.552-.114 2.607-.802.033-4.046-.031-5.447.006C-1.516 2.677-1.431-.013 0 0" style="fill:#fff;fill-opacity:1;fill-rule:evenodd;stroke:none" transform="translate(418.144 260.195)"/></g><g clip-path="url(#j)" transform="translate(-210.582 -34.131)"><path d="M0 0c.867.015 1.572.023 2.131.278.804.366 1.166 1.467.182 2.5-.269.343-1.91.315-2.323.306-.577-.012-1.459.095-2.153-.171-.647-.246-1.403-1.974.114-2.616C-1.353.004-.868-.014 0 0" style="fill:#fff;fill-opacity:1;fill-rule:evenodd;stroke:none" transform="translate(420.965 243.968)"/></g><g clip-path="url(#k)" transform="translate(-210.582 -34.131)"><path d="M0 0c2.389-1.43 3.842-6.907 9.042-6.514.929-1.824 2.962-2.836 4.428-1.829.979.673 1.619 1.609 2.18 2.575C18.466-.922 15.295.457 12.94.227c-.072 1.669-2.765 3.013-4.094 3.502-2.667.98-5.751 1.106-5.974 1.355.979 1.413.023 4.746-4.029 3.741-1.132-1.498-2.812-4.322-4.209-7.28C-5.818.471-2.157-3.099 0 0" style="fill:#2b2b2a;fill-opacity:1;fill-rule:evenodd;stroke:none" transform="translate(399.783 244.895)"/></g><g clip-path="url(#l)" transform="translate(-210.582 -34.131)"><path d="M0 0c1.599-1.166 2.029-1.794 3.597-3.587l.237-.27c.879-.996 2.492-2.804 4.026-2.467.713.484.875 1.094 1.352 1.924.43.773.929 1.357.864 1.893C9.927-1.272 7.942-.42 5.764.208 3.912.742 2.617.614.801 1.421.544 1.117.132.492 0 0" style="fill:#fff;fill-opacity:1;fill-rule:evenodd;stroke:none" transform="translate(400.784 246.658)"/></g><g clip-path="url(#m)" transform="translate(-210.582 -34.131)"><path d="M0 0c.388.687 2.614 4.562 2.707 4.742.435.845-1.592 2.347-2.316 1.206-.429-.678-1.996-3.52-2.728-4.715C-3.078.026-.704-1.245 0 0" style="fill:#fff;fill-opacity:1;fill-rule:evenodd;stroke:none" transform="translate(398.53 245.626)"/></g><g clip-path="url(#n)" transform="translate(-210.582 -34.131)"><path d="M0 0c.421.758.766 1.373.825 1.985.085.879-.687 1.743-2.074 1.406-.432-.061-1.228-1.496-1.427-1.857-.278-.507-.811-1.217-.929-1.951-.11-.683 1.01-2.203 2.323-1.209C-.68-1.171-.422-.759 0 0" style="fill:#fff;fill-opacity:1;fill-rule:evenodd;stroke:none" transform="translate(413.993 239.956)"/></g><g clip-path="url(#o)" transform="translate(-210.582 -34.131)"><path d="M0 0c2.432 1.354 7.903-.127 10.162 4.573 2.045-.106 3.937 1.148 3.798 2.921-.093 1.183-.584 2.207-1.14 3.175-2.789 4.862-5.568 2.805-6.546.652-1.483.77-3.993-.889-5.08-1.795-2.183-1.821-3.833-4.428-4.161-4.497-.734 1.554-4.099 2.392-5.255-1.619.732-1.729 2.338-4.596 4.201-7.285C-3.318-4.804 1.605-3.418 0 0" style="fill:#2b2b2a;fill-opacity:1;fill-rule:evenodd;stroke:none" transform="translate(402.6 222.075)"/></g><g clip-path="url(#p)" transform="translate(-210.582 -34.131)"><path d="M0 0c1.809.802 2.567.86 4.905 1.322l.352.07c1.302.263 3.675.756 4.149 2.253-.062.86-.509 1.305-.99 2.133-.454.76-.71 1.483-1.207 1.695-1.144.488-2.874-.805-4.507-2.377C1.313 3.759.776 2.574-.831 1.404-.696 1.031-.36.361 0 0" style="fill:#fff;fill-opacity:1;fill-rule:evenodd;stroke:none" transform="translate(401.573 223.824)"/></g><g clip-path="url(#q)" transform="translate(-210.582 -34.131)"><path d="M0 0c-.401.679-2.644 4.545-2.754 4.715-.512.8-2.828-.205-2.2-1.402.371-.712 2.048-3.488 2.718-4.72C-1.561-2.652.727-1.232 0 0" style="fill:#fff;fill-opacity:1;fill-rule:evenodd;stroke:none" transform="translate(401.339 221.355)"/></g><g clip-path="url(#r)" transform="translate(-210.582 -34.131)"><path d="M0 0c-.446.744-.806 1.351-1.306 1.707-.719.514-1.853.277-2.255-1.092-.163-.406.681-1.812.894-2.165.3-.494.649-1.311 1.226-1.78.536-.436 2.412-.226 2.208 1.407C.674-1.174.447-.744 0 0" style="fill:#fff;fill-opacity:1;fill-rule:evenodd;stroke:none" transform="translate(413.981 231.91)"/></g><g clip-path="url(#s)" transform="translate(-210.582 -34.131)"><path d="M0 0c.044 2.783 4.061 6.781 1.121 11.087 1.115 1.717.974 3.984-.63 4.75-1.072.511-2.204.597-3.32.6-5.605.016-5.213-3.419-3.837-5.344-1.409-.898-1.227-3.902-.986-5.297.485-2.8 1.918-5.532 1.814-5.851-1.714.142-4.122-2.354-1.225-5.36 1.863-.231 5.148-.274 8.409-.005C2.502-5.275 3.763-.319 0 0" style="fill:#2b2b2a;fill-opacity:1;fill-rule:evenodd;stroke:none" transform="translate(423.769 213.104)"/></g><g clip-path="url(#t)" transform="translate(-210.582 -34.131)"><path d="M0 0c.21 1.967.539 2.653 1.308 4.909l.115.34c.423 1.258 1.183 3.559.124 4.72-.776.376-1.385.211-2.342.209-.886-.014-1.64.125-2.072-.199-.995-.746-.74-2.891-.195-5.092.464-1.87 1.222-2.928 1.431-4.904C-1.24-.088-.492-.131 0 0" style="fill:#fff;fill-opacity:1;fill-rule:evenodd;stroke:none" transform="translate(421.742 213.09)"/></g><g clip-path="url(#u)" transform="translate(-210.582 -34.131)"><path d="M0 0c-.789-.008-5.257-.017-5.46-.027-.949-.044-1.237-2.551.114-2.607.802-.033 4.046.031 5.446-.007C1.516-2.677 1.431.014 0 0" style="fill:#fff;fill-opacity:1;fill-rule:evenodd;stroke:none" transform="translate(423.763 211.652)"/></g><g clip-path="url(#v)" transform="translate(-210.582 -34.131)"><path d="M0 0c-.867-.014-1.573-.023-2.131-.278-.804-.366-1.167-1.466-.182-2.499.269-.344 1.91-.316 2.323-.307.577.012 1.459-.095 2.153.171.646.246 1.403 1.975-.115 2.616C1.354-.004.867.015 0 0" style="fill:#fff;fill-opacity:1;fill-rule:evenodd;stroke:none" transform="translate(420.942 227.88)"/></g><g clip-path="url(#w)" transform="translate(-210.582 -34.131)"><path d="M0 0c-2.388 1.43-3.841 6.908-9.041 6.515-.93 1.823-2.963 2.834-4.428 1.828-.979-.673-1.619-1.61-2.181-2.576-2.815-4.846.355-6.224 2.71-5.994.073-1.669 2.766-3.014 4.094-3.502 2.668-.98 5.751-1.106 5.974-1.355-.979-1.412-.022-4.747 4.03-3.741C2.29-7.327 3.97-4.503 5.367-1.545 5.819-.471 2.158 3.099 0 0" style="fill:#2b2b2a;fill-opacity:1;fill-rule:evenodd;stroke:none" transform="translate(442.124 226.952)"/></g><g clip-path="url(#x)" transform="translate(-210.582 -34.131)"><path d="M0 0c-1.599 1.166-2.029 1.794-3.598 3.587l-.236.27c-.879.996-2.492 2.804-4.026 2.467-.714-.484-.875-1.093-1.352-1.924-.431-.773-.929-1.357-.864-1.892.149-1.236 2.134-2.087 4.312-2.716C-3.912-.742-2.617-.614-.8-1.421c.256.304.667.929.8 1.421" style="fill:#fff;fill-opacity:1;fill-rule:evenodd;stroke:none" transform="translate(441.123 225.189)"/></g><g clip-path="url(#y)" transform="translate(-210.582 -34.131)"><path d="M0 0c-.388-.687-2.614-4.562-2.707-4.742-.436-.844 1.592-2.347 2.316-1.205.429.677 1.996 3.519 2.728 4.714C3.077-.026.704 1.246 0 0" style="fill:#fff;fill-opacity:1;fill-rule:evenodd;stroke:none" transform="translate(443.377 226.22)"/></g><g clip-path="url(#z)" transform="translate(-210.582 -34.131)"><path d="M0 0c-.421-.759-.767-1.373-.825-1.985-.085-.879.687-1.743 2.074-1.406.432.061 1.228 1.495 1.427 1.857.278.506.811 1.217.929 1.951.11.683-1.01 2.202-2.323 1.208C.68 1.17.421.759 0 0" style="fill:#fff;fill-opacity:1;fill-rule:evenodd;stroke:none" transform="translate(427.915 231.892)"/></g><g clip-path="url(#A)" transform="translate(-210.582 -34.131)"><path d="M0 0c-2.433-1.354-7.902.127-10.162-4.573-2.044.107-3.937-1.148-3.798-2.92.093-1.184.584-2.208 1.14-3.176 2.789-4.862 5.568-2.805 6.547-.651 1.482-.771 3.992.888 5.079 1.795C.989-7.705 2.64-5.098 2.967-5.029c.734-1.554 4.099-2.392 5.255 1.619-.732 1.73-2.338 4.596-4.201 7.285C3.318 4.804-1.605 3.418 0 0" style="fill:#2b2b2a;fill-opacity:1;fill-rule:evenodd;stroke:none" transform="translate(439.308 249.772)"/></g><g clip-path="url(#B)" transform="translate(-210.582 -34.131)"><path d="M0 0c-1.809-.802-2.567-.86-4.905-1.322a27.218 27.218 0 0 1-.352-.07c-1.302-.263-3.675-.755-4.149-2.253.062-.86.509-1.304.989-2.133.455-.76.711-1.483 1.208-1.694 1.144-.489 2.875.804 4.507 2.377C-1.314-3.758-.777-2.574.831-1.403.695-1.03.36-.36 0 0" style="fill:#fff;fill-opacity:1;fill-rule:evenodd;stroke:none" transform="translate(440.335 248.023)"/></g><g clip-path="url(#C)" transform="translate(-210.582 -34.131)"><path d="M0 0c.4-.679 2.643-4.545 2.753-4.715.513-.8 2.829.205 2.201 1.402-.372.711-2.049 3.488-2.718 4.72C1.561 2.652-.727 1.232 0 0" style="fill:#fff;fill-opacity:1;fill-rule:evenodd;stroke:none" transform="translate(440.569 250.492)"/></g><g clip-path="url(#D)" transform="translate(-210.582 -34.131)"><path d="M0 0c.446-.745.806-1.351 1.307-1.708.719-.513 1.853-.277 2.255 1.093.163.404-.682 1.812-.896 2.165-.299.493-.648 1.31-1.224 1.78-.536.436-2.412.226-2.209-1.408C-.673 1.173-.447.743 0 0" style="fill:#fff;fill-opacity:1;fill-rule:evenodd;stroke:none" transform="translate(427.926 239.937)"/></g><g clip-path="url(#E)" transform="translate(-210.582 -34.131)"><path d="M0 0c1.12-.353 2.763 1.661 1.515 2.193-.043.018-1.454.463-1.724-.162C-.449 1.477-.357.447 0 0" style="fill:#2b2b2a;fill-opacity:1;fill-rule:evenodd;stroke:none" transform="translate(420.062 265.964)"/></g><g clip-path="url(#F)" transform="translate(-210.582 -34.131)"><path d="M0 0a8.002 8.002 0 0 0 8.003-8.003A8.003 8.003 0 1 0 0 0Zm0-5.502a2.502 2.502 0 1 0 0-5.003 2.502 2.502 0 0 0 0 5.003" style="fill:#2b2b2a;fill-opacity:1;fill-rule:evenodd;stroke:none" transform="translate(420.945 243.91)"/></g><g clip-path="url(#G)" transform="translate(-210.582 -34.131)"><path d="M0 0c18.784 0 34.013-15.229 34.013-34.013 0-18.785-15.229-34.013-34.013-34.013-18.783 0-34.012 15.228-34.012 34.013C-34.012-15.229-18.783 0 0 0Zm0-5.503c15.746 0 28.512-12.765 28.512-28.51 0-15.746-12.766-28.511-28.512-28.511-15.745 0-28.511 12.765-28.511 28.511 0 15.745 12.766 28.51 28.511 28.51" style="fill:#fff;fill-opacity:1;fill-rule:evenodd;stroke:none" transform="translate(420.945 269.92)"/></g><g clip-path="url(#H)" transform="translate(-210.582 -34.131)"><path d="M0 0c20.166 0 36.515-16.348 36.515-36.514 0-20.165-16.349-36.514-36.515-36.514-20.165 0-36.514 16.349-36.514 36.514C-36.514-16.348-20.165 0 0 0Zm0-1c19.613 0 35.514-15.901 35.514-35.514 0-19.612-15.901-35.513-35.514-35.513-19.613 0-35.513 15.901-35.513 35.513C-35.513-16.901-19.613-1 0-1" style="fill:#fff;fill-opacity:1;fill-rule:evenodd;stroke:none" transform="translate(420.945 272.421)"/></g><g clip-path="url(#I)" transform="translate(-210.582 -34.131)"><path d="M0 0a4 4 0 1 0 0-8.003A4 4 0 1 0 0 0Zm0 2.301a6.302 6.302 0 1 0 .002-12.604A6.302 6.302 0 0 0 0 2.3" style="fill:#fff;fill-opacity:1;fill-rule:evenodd;stroke:none" transform="translate(420.945 239.91)"/></g><g clip-path="url(#J)" transform="translate(-210.582 -34.131)"><path d="M0 0a1.125 1.125 0 1 1 0 2.25A1.125 1.125 0 0 1 0 0" style="fill:#2b2b2a;fill-opacity:1;fill-rule:evenodd;stroke:none" transform="translate(420.872 266)"/></g><g clip-path="url(#K)" transform="translate(-210.582 -34.131)"><path d="M0 0a1.124 1.124 0 1 1-1.947 1.125A1.124 1.124 0 0 1 0 0" style="fill:#2b2b2a;fill-opacity:1;fill-rule:evenodd;stroke:none" transform="translate(394.848 250.89)"/></g><g clip-path="url(#L)" transform="translate(-210.582 -34.131)"><path d="M0 0a1.125 1.125 0 1 1-1.948-1.125A1.125 1.125 0 0 1 0 0" style="fill:#2b2b2a;fill-opacity:1;fill-rule:evenodd;stroke:none" transform="translate(394.922 220.798)"/></g><g clip-path="url(#M)" transform="translate(-210.582 -34.131)"><path d="M0 0a1.125 1.125 0 1 1 .002-2.25A1.125 1.125 0 0 1 0 0" style="fill:#2b2b2a;fill-opacity:1;fill-rule:evenodd;stroke:none" transform="translate(421.019 205.815)"/></g><g clip-path="url(#N)" transform="translate(-210.582 -34.131)"><path d="M0 0a1.126 1.126 0 0 1 1.948-1.125A1.125 1.125 0 0 1 0 0" style="fill:#2b2b2a;fill-opacity:1;fill-rule:evenodd;stroke:none" transform="translate(447.043 220.926)"/></g><g clip-path="url(#O)" transform="translate(-210.582 -34.131)"><path d="M0 0a1.126 1.126 0 1 1 1.946 1.125A1.126 1.126 0 0 1 0 0" style="fill:#2b2b2a;fill-opacity:1;fill-rule:evenodd;stroke:none" transform="translate(446.97 251.018)"/></g><g clip-path="url(#P)" transform="translate(-210.582 -34.131)"><path d="M0 0c6.607-3.906 16.988-9.587 20.514.421 2.639 3.48 13.357 6.617 12.543 1.363-5.063-2.281 2.783-9.245-5.753-9.532-.056-6.485 10.574 5.877 14.099-1.07 6.578-1.138 6.642-9.685-.807-6.36-.687-6.948-13.842 1.007-5.512-4.05 2.231-2.232.986-6.267 2.54-9.1-6.85-1.33-12.738 1.652-17.062 6.406-5.127-2.717 3.665-9.602-4.899-7.341-6.493 2.166-12.7 12.67-18.773 7.997-4.112-4.437-5.26 10.91-8.943 1.727-4.33-.359-5.295 10.14-8.066 2.329-5.93 2.048-7.53 9.536-15.238 9.56-6.25-.52-8.158 11.683-12.178 2.917C-52.8-2.536-49.94 8.383-56.717 1.07c-3.924.435-1.253 9.091-7.528 5.064-9.118-2.843-18.972-2.849-27.767 1.086-4.044 1.264-10.837 5.628-4.93-.967 3.369-7.806 10.068.08 13.738-4.633 5.23 5.195 4.4-6.064 10.86-4.887-.016-2.396-2.656-3.843 2.1-5.56 6.913-4.736 13.654 2.782 21.341 1.483 6.644-1.75 4.219-6.633-1.265-6.056-1.338-2.313 7.141.044 7.012-4.374 5.897-2.82 3.228-8.925-2.466-4.834-2.006-1.018-4.977-3.243-7.476-1.288-1.935-2.397-.124-10.787-5.778-5.065-7.302-4.056-9.061 10.396-14.488 3.166 2.229-10.153-12.317-.407-11.827 4.751.84 5.95-4.324-6.506-6.646 1.067-3.653-5.853-6.383 3.21-11.84.306 2.079 7.352-11.086-4.971-12.877 3.67 12.493 4.216-6.547 11.165-6.742 18.322-6.132-.992-6.47-8.214-2.468-9.634-.882-4.753-11.265.997-4.52-5-3.363-7.06-10.804 5.415-16.023 2.935 1.863 8.943-8.565 6.81-14.446 8.767-6.4-4.932.291-15.46 6.723-8.531 4.7 1.568 16.902-5.3 10.16-7.85-10.277 3.22 4.761-10.529-3.72-10.505-3.157 5.382-10.864 3.099-9.532-3.316-4.557 2.33-9.942 2.864-13.657 6.325-4.413 1.727-2.727-5.75-7.83-2.215-3.188 4.399-5.22 12.371 2.647 12.993-.169 4.97-10.729 10.234-6.816 13.458 8.132-4.991-8.652 9.427-.555 6.615 5.03-2.63-7.306 8.219.443 8.566 3.926-5.323 4.555-2.553 2.897 2.462.1 6.272 5.833 8.888 6.731 1.38 6.994-8.264 16.88.796 25.663-.48 8.705 3.83-7.107 5.982-10.598 3.803-4.742-1.47-12.38.937-11.287 4.578-3.796.615-11.03-1.284-5.907 3.86 2.166 3.349-14.432 9.915-6.34 13.806 5.927-5.278 6.876 1.962.821 3.153-1.712 8.128 11.158 1.492 14.229 6.387 8.709.32 14.164 8.671 23.167 6.681 2.647-1.06-8.126-6.632-1.6-4.667 2.812 3.657 18.673 5.343 14.351.153-5.013-.184-8.531-5.851-1.587-1.806 3.697 2.693 14.466-1.216 5.15-2.847-4.052-4.768 14.772-4.857 14.87 1.8 3.535 2.758 9.427 4.543 5.767 9.904 3.417 6.145 9.54-.892 11.455-1.402 4.529 4.644 19.251 1.806 15.087-5.195-3.49 2.982-13.64-3.165-5.016-2.785 7.339-3.692-5.598-7.112-8.339-10.734-9.343-3.338-18.726-.023-28.457-2.293-10.622.168-20.588 4.714-31.072 5.547-7.759 2.468-19.248-7.644-9.059-12.883 8.212-3.63 17.951-.401 25.879-5.149 8.673.354 18.738 3.246 28.103.636 9.772-1.605 19.454.143 29.02 1.945 6.033-2.124 14.362 7.318 4.28 7.157-3.857 3.45 12.834 8.526 1.824 10.027-2.874 4.011 10.452 5.7 5.657 12.138.516 6.568 7.906 5.336 11.916 7.121 8.227-5.078 18.693-2.835 27.6-6.438 7.048 1.298 11.569-2.866 8.212-9.308-1.877-3.58-9.83-9.822-.597-8.442 6.51-1.708 13.127 13.028 13.164.125-3.153-10.077-19.504.47-17.009-11.063-1.026-7.223-17.888 3.96-7.725-3.545 8.103-5.272 14.318 4.499 21.318 7.146 5.45 3.91 11.54 6.576 17.978 8.394 6.549 2.624 3.74 7.433.348 10.754.908 3.186-.493 13.04 5.267 9.948 1.18-5.132 7.815-4.211 7.331-10.31 4.007 1.766 6.517 8.828 12.564 9.619 7.478 1.906 9.41-2.26 3.008-5.73 6.82-4.798-10.473-9.505-1.203-8.221 5.956 3.953 11.117-3.459 13.12-7.912-2.158-4.54-7.817 2.129-10.744-3.094-3.282 1.769-11.075 2.405-3.469.054.85-3.053 1.756-5.049 4.811-6.824-4.548-4.257-11.7-1.702-16.061.082-7.083.565-.82-9.365-8.911-5.82-6.166 3.24-2.62-.878-1.814-3.542-5.39-1.746-11.62-.16-8.834-5.662-4.936-.91-14.826-3.554-4.43-3.073 10.854 1.987-3.324-6.74-3.723-8.259C-3.175 4.282-1.757 1.995 0 0Zm-34.674 43.041c5.59-1.31 11.022 5.05 2.873 5.247-1.95-.672-2.422-3.489-2.873-5.247Z" style="fill:#2b2b2a;fill-opacity:1;fill-rule:evenodd;stroke:none" transform="translate(489.562 415.027)"/></g><g clip-path="url(#Q)" transform="translate(-210.582 -34.131)"><path d="m0 0 .056.051C.052.048-.018.017 0 0" style="fill:#2b2b2a;fill-opacity:1;fill-rule:evenodd;stroke:none" transform="translate(462.191 452.192)"/></g><g clip-path="url(#R)" transform="translate(-210.582 -34.131)"><path d="M0 0c.443 0 .018-.212 0-.103l-.003.014c0 .005-.4.089.003.089" style="fill:#ffcd00;fill-opacity:1;fill-rule:evenodd;stroke:none" transform="translate(492.663 436.19)"/></g><g clip-path="url(#S)" transform="translate(-210.582 -34.131)"><path d="M0 0c-5.074-2.303-12.709.567-6.533 5.92 1.413 3.022-12.12-2.25-7.704 3.45 4.104 2.69 7.006 9.08-.21 6.723-5.279 5.645-15.798-1.647-23.867-.525-8.316.201-16.49 1.888-24.816 1.679-7.696-.542-13.34-5.036-19.8.535-8.053 3.07-18.617-1.059-24.982 6.226-7.059 9.345 6.419 16.258 14.537 14.872 12.54-.993 24.338-7.999 37.176-5.765 5.294 1.153 13.42 4.839 17.015 4.055-2.536-2.213-11.478-3.329-3.437-4.17 5.396-.5 15.8 5.954 15.717 8.908-3.8 2.16-11.88-6.17-6.228.369 1.314 4.857 7.752 6.828 10.313 7.25-5.52 4.584-13.453.577-17.145-4.546-8.958-7.013 7.124 9.714-4.307 8.366-1.437-2.023 2.895-8.649-3.637-9.564-4.368-2.62-3.206-8.607-10.3-7.652-4.57-.678-16.645.144-15.597 3.762 5.425 1.063 6.31 4.795.34 2.052-3.406-4.232-17.117-1.414-6.786 1.101 2.447 1.794 9.737 5.561 2.366 4.295-4.396-.91-12.13-7.955-14.305-4.162 1.326.96 7.573 8.514.865 5.038-2.335-1.184-6.272-3.204-2.963-4.973-7.128 1.784-15.186-1.602-19.1-7.26 2.306 6.15-11.861 4.243-3.701 1.287 1.95-4.351 3.72-12.78-2.553-6.886-7.184 3.008 3.335-7.052 6.632-7.895 2.147-2.233-5.918-5.47 1.235-4.374 3.24-.25 16.544-1.549 6.831-2.199-8.003-2.557 6.886-3.532 9.421-1.437 3.202 2.207 13.829-2.494 11.675-.521-4.22 1.771-11.761 2.942-3.032 2.154 4.983-.134 11.509-4.921 4.122-7.712-6.27-6.833-16.187-1.021-23.385-6.783-5.933-1.137-10.712 8.729-11.68 8.384-3.038-3.412 6.31-13.248-2.285-10.587-3.132 3.299-6.153 3.07-2.348-1.087 6.689-2.09 1.567-4.843-.606-5.41 3.82-1.079 8.534-6.823 1.435-6.025 4.68-4.308 11.445-13.06 2.105-15.093 1.022-1.28 9.196-7.12 7.335-.293 2.764 1.225 4.803-13.302 8.232-4.384 10.017-.454-2.624 3.643-2.557 7.237 5.253-1.925 12.3-11.598 16.18-3.267-3.053.737-11.971 3.914-3.184 3.108 6.4.414-1.103 8.297-3.879 2.423-8.5-4.813-12.916 12.316-4.574 15.113 6.294-.053 13.106-3.958 19.307-3.1-4.043.139-3.377-10.41-.278-4.44 1.683 8.858 2.543-11.672 8.832-6.182-4.374 3.329-1.316 13.822 1.393 5.304 5.211-3.313.083 4.678-.007 6.517-7.438.982 7.112 2.588 8.07 6.518 4.545 5.279 11.215 10.036 18.565 8.069 8.142-1.247 15.11-6.216 23.292-7.44C-15.11-5.157-7.465-1.423 0 0Z" style="fill:#fcdd09;fill-opacity:1;fill-rule:evenodd;stroke:none" transform="translate(430.407 425.27)"/></g><g clip-path="url(#T)" transform="translate(-210.582 -34.131)"><path d="M0 0c5.222 1.821 12.952-.336 9.88 6.755 2.68 3.892 11.373-2.745 8.146 4.598.77 6.82 9.48-3.382 8.25 3.7 4.164.79 2.058 5.139 4.297 5.486 2.115-1.074 4.362 2.978 4.569-2.013 2.063-5.378 8.908 4.511 2.45 5.208-1.102 3.526 7.488 5.361 9.382 1.391.838 1.5 5.7 10.054-.639 7.159-5.337-4.651-10.666 1.748-4.813 5.391 6.609-.618 2.666 3.093-1.658 2.973-3.423 4.856-5.156-10.73-11.297-4.148-.41 5.844-3.772 3.762-7.481 1.678 8.43-6.43-2.393-15.052-9.708-15.396-7.34-3.806-15.354-6.957-21.792-12.266-2.814-9.12 8.966-.45 10.446-2.831C1.6 4.725-4.645-.007 0 0Z" style="fill:#fcdd09;fill-opacity:1;fill-rule:evenodd;stroke:none" transform="translate(479.395 431.462)"/></g><g clip-path="url(#U)" transform="translate(-210.582 -34.131)"><path d="M0 0c-5.314-1.722-11.48 5.76-10.076-2.799-5.095-1.374-9.689 8.444-11.114.234-4.124-5.871-9.568 10.009-10.32.43.477-4.167 12.048-3.514 12.019-10.525 5.375 2.921 5.06 6.849 11.96 5.352 3.352-1.757-7.442-.077-3.802-4.392-1.14-7.284 10.355 5.4 8.097-3.38-.031-5.46 5.19 1.68 8.643-2.152 3.566-1.407 5.872 9.714 5.188 2.078-.727-6 3.686-7.62 7.486-4.228 5.422-2.644-1.451 8.598 3.56 2.687 2.376-3.06 9.15-1.736 8.374-7.31 1.075 3.473 9.498 4.951 1.885 7.012-4.291 1.881-4.3 5.287.247 3.014 2.966 2.115 9.66-4.587 7.488 1.857 3.03 11.07-8.494-2.998-12.808 3.856-2.153 5.928 5.757 2.133 5.281 6.944C26.7.914 24.032.335 21.753-4.888 14.684-8.184 6.436-2.747 0 0Z" style="fill:#fcdd09;fill-opacity:1;fill-rule:evenodd;stroke:none" transform="translate(486.547 413.633)"/></g><g clip-path="url(#V)" transform="translate(-210.582 -34.131)"><path d="M0 0c-3.769.466-15.451 4.614-14.297 5.977C-9.073 5.647-4.897 1.635 0 0Z" style="fill:#2b2b2a;fill-opacity:1;fill-rule:evenodd;stroke:none" transform="translate(494.555 407.688)"/></g><g clip-path="url(#W)" transform="translate(-210.582 -34.131)"><path d="M0 0c4.935 5.627 13.921 3.058 19.474 7.952C15.924 1.096 6.909 3.366 1.162.33Z" style="fill:#2b2b2a;fill-opacity:1;fill-rule:evenodd;stroke:none" transform="translate(343.047 415.102)"/></g><g clip-path="url(#X)" transform="translate(-210.582 -34.131)"><path d="M0 0c-.653-.585-.64-.431-1.526-.289-.63.1-1.191.074-1.881.181-3.842.598-6.044-3.329-8.696-3.194.029.86 5.026 5.496 6.994 5.394 1.624-.084 1.924.121 2.312.078C-2.722 2.162.023 1.073 0 0" style="fill:#ffcd00;fill-opacity:1;fill-rule:evenodd;stroke:none" transform="translate(381.202 424.477)"/></g><g clip-path="url(#Y)" transform="translate(-210.582 -34.131)"><path d="M0 0c-1.293-3.433-9.579 2.627-8.758-4.675-.502-8.01-3.36 11.541 4.389 4.964C-2.969-.484-1.444.472 0 0Z" style="fill:#2b2b2a;fill-opacity:1;fill-rule:evenodd;stroke:none" transform="translate(325.697 424.669)"/></g><g clip-path="url(#Z)" transform="translate(-210.582 -34.131)"><path d="M0 0c-3.958-3.863-7.065-9.461-13.186-9.953-6.326-1.561 5.216 2.463 6.68 4.733C-4.38-3.79-2.905.433 0 0Z" style="fill:#2b2b2a;fill-opacity:1;fill-rule:evenodd;stroke:none" transform="translate(399.223 473.7)"/></g><g clip-path="url(#aa)" transform="translate(-210.582 -34.131)"><path d="M0 0c-4.95-1.301-2.242-12.81-4.021-10.424C-6.147-7.149-4.181 2.22 0 0Z" style="fill:#2b2b2a;fill-opacity:1;fill-rule:evenodd;stroke:none" transform="translate(325.987 417.06)"/></g><g clip-path="url(#ab)" transform="translate(-210.582 -34.131)"><path d="M0 0c-2.712-1.161-10.814-2.455-10.683 1.436C-7.351-.542-2.881 1.416 0 0Z" style="fill:#2b2b2a;fill-opacity:1;fill-rule:evenodd;stroke:none" transform="translate(475.264 408.346)"/></g><g clip-path="url(#ac)" transform="translate(-210.582 -34.131)"><path d="M0 0c.21-3.942-10.905-7.93-8.579-4.924C-4.947-4.797-3.247.255 0 0Z" style="fill:#2b2b2a;fill-opacity:1;fill-rule:evenodd;stroke:none" transform="translate(351.612 433.733)"/></g><g clip-path="url(#ad)" transform="translate(-210.582 -34.131)"><path d="M0 0c-3.184 4.884 6.693 13.586 7.238 9.74C2.01 8.642.748 4.23 0 0Z" style="fill:#2b2b2a;fill-opacity:1;fill-rule:evenodd;stroke:none" transform="translate(319.079 453.649)"/></g><g clip-path="url(#ae)" transform="translate(-210.582 -34.131)"><path d="M0 0c-.614 2.229 7.573 8.583 6.945 7.419C4.987 5.139 3.288.265 0 0Z" style="fill:#2b2b2a;fill-opacity:1;fill-rule:evenodd;stroke:none" transform="translate(482.22 436.059)"/></g><g clip-path="url(#af)" transform="translate(-210.582 -34.131)"><path d="M0 0c2.562 1.797 10.69 4.906 4.169 1.412C.654.197-7.678-6.392-8.42-3.713-5.684-2.323-2.706-1.453 0 0Z" style="fill:#2b2b2a;fill-opacity:1;fill-rule:evenodd;stroke:none" transform="translate(477.759 444.59)"/></g><g clip-path="url(#ag)" transform="translate(-210.582 -34.131)"><path d="M0 0c-5.251-2.529-10.808 11.307-4.448 2.636C-3.337.985-.77 1.976 0 0Z" style="fill:#2b2b2a;fill-opacity:1;fill-rule:evenodd;stroke:none" transform="translate(414.578 422.708)"/></g><g clip-path="url(#ah)" transform="translate(-210.582 -34.131)"><path d="M0 0c-1.545-3-14.27-3.426-5.584-1.154C-3.818-1.16-1.522.796 0 0Z" style="fill:#2b2b2a;fill-opacity:1;fill-rule:evenodd;stroke:none" transform="translate(413.61 442.008)"/></g><g clip-path="url(#ai)" transform="translate(-210.582 -34.131)"><path d="M0 0c-1.831-1.192-13.644-7.36-6.774-2.611C-4.764-1.466-2.454.697 0 0Z" style="fill:#2b2b2a;fill-opacity:1;fill-rule:evenodd;stroke:none" transform="translate(378.064 432.042)"/></g><g clip-path="url(#aj)" transform="translate(-210.582 -34.131)"><path d="M0 0c.807 2.014 8.012 10.068 4.199 3.453C3.163 2.025 1.816.358 0 0Z" style="fill:#2b2b2a;fill-opacity:1;fill-rule:evenodd;stroke:none" transform="translate(489.227 440.107)"/></g><g clip-path="url(#ak)" transform="translate(-210.582 -34.131)"><path d="M0 0c-2.954-4.691-10.838 9.388-4.716 2.277C-3.473.957-1.669.504 0 0Z" style="fill:#2b2b2a;fill-opacity:1;fill-rule:evenodd;stroke:none" transform="translate(418.853 424.407)"/></g><g clip-path="url(#al)" transform="translate(-210.582 -34.131)"><path d="M0 0c-4.715-1.522-8.573 12.066-4.307 4.091C-3.57 1.99-.879 1.8 0 0Z" style="fill:#2b2b2a;fill-opacity:1;fill-rule:evenodd;stroke:none" transform="translate(408.398 422.88)"/></g><g clip-path="url(#am)" transform="translate(-210.582 -34.131)"><path d="M0 0c-4.606.392-6.577 12.525-2.873 3.57C-2.607 1.687.262 1.953 0 0Z" style="fill:#2b2b2a;fill-opacity:1;fill-rule:evenodd;stroke:none" transform="translate(401.844 424.61)"/></g><g clip-path="url(#an)" transform="translate(-210.582 -34.131)"><path d="M0 0c.167 3.094 8.195 9.063 2.876 2.649C1.746 2.054 1.578-.534 0 0Z" style="fill:#2b2b2a;fill-opacity:1;fill-rule:evenodd;stroke:none" transform="translate(495.969 443.737)"/></g><g clip-path="url(#ao)" transform="translate(-210.582 -34.131)"><path d="M0 0c-4.064 1.158-3.258 9.767-1.267 3.26C-.942 2.136-.321 1.127 0 0Z" style="fill:#2b2b2a;fill-opacity:1;fill-rule:evenodd;stroke:none" transform="translate(316.596 413.389)"/></g><g clip-path="url(#ap)" transform="translate(-210.582 -34.131)"><path d="M0 0c2.055 3.128 9.29-.575 2.378-.511l-.881.08Z" style="fill:#2b2b2a;fill-opacity:1;fill-rule:evenodd;stroke:none" transform="translate(479.725 403.333)"/></g><g clip-path="url(#aq)" transform="translate(-210.582 -34.131)"><path d="M0 0c-2.882 1.257-5.609 9.996-1.694 3.563C-1.142 2.372-.294 1.3 0 0Z" style="fill:#2b2b2a;fill-opacity:1;fill-rule:evenodd;stroke:none" transform="translate(317.533 406.993)"/></g><g clip-path="url(#ar)" transform="translate(-210.582 -34.131)"><path d="M0 0c3.813 1.07 8.03-.866 1.73-1.213C1.086-1.253-.361-.982 0 0Z" style="fill:#2b2b2a;fill-opacity:1;fill-rule:evenodd;stroke:none" transform="translate(484.92 401.679)"/></g><g clip-path="url(#as)" transform="translate(-210.582 -34.131)"><path d="M0 0c2.31 2.918 6.943.193 1.645-.394l-.918.096z" style="fill:#2b2b2a;fill-opacity:1;fill-rule:evenodd;stroke:none" transform="translate(490.4 399.358)"/></g><g clip-path="url(#at)" transform="translate(-210.582 -34.131)"><path d="M0 0c1.2 4.313 6.978 4.787 1.156.781L.71.203Z" style="fill:#2b2b2a;fill-opacity:1;fill-rule:evenodd;stroke:none" transform="translate(502.335 448.23)"/></g><g clip-path="url(#au)" transform="translate(-210.582 -34.131)"><path d="M0 0c1.972 2.456 8.96 6.835 3.411 2.005C2.234 1.445 1.361.044 0 0Z" style="fill:#2b2b2a;fill-opacity:1;fill-rule:evenodd;stroke:none" transform="translate(394.542 461.082)"/></g><g clip-path="url(#av)" transform="translate(-210.582 -34.131)"><path d="M0 0c-2.768-.22-4.697 7.742-1.593 2.278C-1.464 1.271.513 1.241 0 0Z" style="fill:#2b2b2a;fill-opacity:1;fill-rule:evenodd;stroke:none" transform="translate(396.104 426.797)"/></g><g clip-path="url(#aw)" transform="translate(-210.582 -34.131)"><path d="M0 0c-2.54.578-4.84 7.669-1.498 2.594l.838-1.28Z" style="fill:#2b2b2a;fill-opacity:1;fill-rule:evenodd;stroke:none" transform="translate(320.015 401.1)"/></g><g clip-path="url(#ax)" transform="translate(-210.582 -34.131)"><path d="M0 0c-2.53 3.891 1.4 5.87 0 0Z" style="fill:#2b2b2a;fill-opacity:1;fill-rule:evenodd;stroke:none" transform="translate(388.41 473.053)"/></g><g clip-path="url(#ay)" transform="translate(-210.582 -34.131)"><path d="M0 0c-3.15 1.7-8.326 7.322-2.183 2.925C-.275 2.649-.361 1.642 0 0Z" style="fill:#2b2b2a;fill-opacity:1;fill-rule:evenodd;stroke:none" transform="translate(421.175 424.46)"/></g><g clip-path="url(#az)" transform="translate(-210.582 -34.131)"><path d="M0 0c-.018-.018-.055.076-.055.051h-.001C-.052.048.019.016 0 0" style="fill:#2b2b2a;fill-opacity:1;fill-rule:evenodd;stroke:none" transform="translate(371.51 414.238)"/></g><g clip-path="url(#aA)" transform="translate(-210.582 -34.131)"><path d="m0 0-.055.051C-.051.048.019.017 0 0" style="fill:#2b2b2a;fill-opacity:1;fill-rule:evenodd;stroke:none" transform="translate(444.163 394.36)"/></g><g clip-path="url(#aB)" transform="translate(-210.582 -34.131)"><path d="M0 0c.489-3.95-7.844-4.208-.003-4.145 3.114.955 8.42 6.254 5.315-.378-2.688-3.718 11.095 2.305 4.565-2.81-3.908.889-8.347-.345-1.607-1.627 6.888-3.882 14.407-6.841 21.487-2.405 8.83-4.133-9.747-5.476-1.009-6.547 4.237-1.008 14.51 3.272 8.688-4.411-3.249-2.219-12.563 3.668-15.092 2.598 3.859-2.54 10.101-3.964 2.623-6.549-3.98-6.801-1.832 7.483-7.25 2.884-3.325 1.266-9.98 8.922-5.488 1.174 1.84-3.728-6.779.193-7.662-3.339-2.42 2.96 3.326 11.311-4.013 7.745-3.39-3.538-4.693-4.535-3.362.697-4.158 1.058-7.66-9.111-5.997-.044.6 5.604-8.096-7.445-6.57.89-1.804 10.079-4.21-4.246-10.653-2.229 6.152 3.136 1.175 9.743-3.033 12.536-3.368 1.5-7.815 12.486-1.482 6.209 3.477-7.615 10.985-10.35 17.735-13.456 3.818-.409 14.79-4.73 14.382-2.721-7.635 1.16-14.432 5.28-21.853 7.188-3.565 2.54-11.403 9.821-8.763 12.949 3.278-1.09 8.314-11.588 8.388-8.368-2.154 3.136-10.916 13.736-1.928 7.766 1.643-3.115 12.89-12.07 5.682-4.79-2.193 2.8-9.542 10.492-1.153 6.471 1.342-3.236 13.697-12.854 6.732-5.702-1.554 3.207-10.732 10.012-7.648 10.569C-12.64 6.102-9.453-4.199 0 0Z" style="fill:#fcdd09;fill-opacity:1;fill-rule:evenodd;stroke:none" transform="translate(403.603 416.264)"/></g><g clip-path="url(#aC)" transform="translate(-210.582 -34.131)"><path d="M0 0c-2.336-2.345-13.539-7.107-3.663-6.17 9.45 1.941-14.828-11.62-3.079-9.935 7.456 4.171-2.331-8.563-4.339-10.514 4.073-.782 10.85 7.14 6.754-.69-2.925-4.672-8.011-12.649.476-7.091 8.523 8.095-.998-7.823.714-9.137 4.904.083 11.4 9.9 8.651-.065-2.998-5.276 1.299-10.852 3.629-3.259 4.718 9.926.14-14.961 6.938-8.126 1.359 3.131 5.179 13.098 3.954 4.636-1.983-6.549 6.4-13.06 6.353-3.035-.504 13.35 6.383-10.93 10.252-2.579.027 3.205-1.773 11.245 1.745 4.036 3.23-5.946 13.215-6.461 6.84 1.575-2.387 6.92 5.408-5.735 9.102-4.395 11.797-1.82-8.495 9.197-2.831 8.963 5.016-.97 15.288 5.229 5.228 3.013-3.469 1.933-16.103 2.1-8.118 6.517 5.08 8.094-5.585-.73-9.53 2.227-8.089-3.302 5.18 7.525-3.175 4.027-7.981-.508-12.242 8.662-20.591 6.55-5.885 1.042-5.595 8.122-.872 2.656 5.72-3.075 12.86.67 18.486-2.54 6.176.269 2.131 9.545-3.358 5.48-10.27-4.582-11.496 9.687-3.262 12.561 4.957.75 15.067-3.773 13.7 4.568-5.248.674-2.446 2.658.093 3.718-6.41 1.22-12.984.83-18.887 3.818-5.453-.731-16.882 4.542-14.788-4.037C4.832 8.976-9.253 11.907 0 0Z" style="fill:#fcdd09;fill-opacity:1;fill-rule:evenodd;stroke:none" transform="translate(427.956 470.168)"/></g><g clip-path="url(#aD)" transform="translate(-210.582 -34.131)"><path d="M0 0c4.148 3.457 3.861-5.923 8.976-1.094 1.158 1.535 7.153-.03 2.186 2.64C8.555 6.284 2.243 2.846 0 0Z" style="fill:#2b2b2a;fill-opacity:1;fill-rule:evenodd;stroke:none" transform="translate(439.347 471.378)"/></g><g clip-path="url(#aE)" transform="translate(-210.582 -34.131)"><path d="M0 0c.988-2.076 8.43-5.241 1.188-4.896C-5.659-.167.031-8.826 4.655-6.759 15.461-10.223 3.42 1.794 0 0Z" style="fill:#2b2b2a;fill-opacity:1;fill-rule:evenodd;stroke:none" transform="translate(459.868 433.593)"/></g><g clip-path="url(#aF)" transform="translate(-210.582 -34.131)"><path d="M0 0c-3.863-.07-8.207 6.423-8.775 5.922C-8.75 1.53 3.564-7.195 1.504 1.853 2.588 6.585-7.272 11.02-1.19 4.777-.653 3.229-.043 1.66 0 0Z" style="fill:#2b2b2a;fill-opacity:1;fill-rule:evenodd;stroke:none" transform="translate(452.828 426.782)"/></g><g clip-path="url(#aG)" transform="translate(-210.582 -34.131)"><path d="M0 0c.713-9.01-4.412.681-5.019 1.106C-5.64-3.546.954-10.818 1.434-2.398 3.057 1.087-2.74 5.7 0 0Z" style="fill:#2b2b2a;fill-opacity:1;fill-rule:evenodd;stroke:none" transform="translate(440.658 440.091)"/></g><g clip-path="url(#aH)" transform="translate(-210.582 -34.131)"><path d="M0 0c-2.876 1.839 2.428 12.35-1.398 5.65C-3.9 1.44-.874-4.952 2.39 1.239c2.492 2.283 2.723 11.482.535 3.919A25.583 25.583 0 0 0 0 0Z" style="fill:#2b2b2a;fill-opacity:1;fill-rule:evenodd;stroke:none" transform="translate(430.985 444.097)"/></g><g clip-path="url(#aI)" transform="translate(-210.582 -34.131)"><path d="M0 0c-.245-.749 1.842-2.167 2.411-2.471.891-.476.061-.025 1.054-1.448.71-1.019 1.152-.798 1.249-1.612-1.163 0-2.132.35-2.983.561l-1.062.191c-1.201.321-2.258 1.368-3.446 1.667C-2.32-4.867-1.14-5.591.664-6.158c.813-.255 1.654-.715 2.483-.686 3.81.135 2.958.081 2.691 1.305-.418 1.925-.743 1.731-1.908 3.087-.843.981-.361.86-1.646 1.592C1.465-.393 1.1.58 0 0" style="fill:#2b2b2a;fill-opacity:1;fill-rule:evenodd;stroke:none" transform="translate(449.426 443.721)"/></g><g clip-path="url(#aJ)" transform="translate(-210.582 -34.131)"><path d="M0 0c2.101 3.085 1.38 7.682 0 2.074C-6.77-5.88 10.237 1.01 6.41 5.599 4.963 2.901 3.724-.017 0 0Z" style="fill:#2b2b2a;fill-opacity:1;fill-rule:evenodd;stroke:none" transform="translate(427.924 455.994)"/></g><g clip-path="url(#aK)" transform="translate(-210.582 -34.131)"><path d="M0 0c-2.265-2.488-7.735-2.456-2.76 1.276-2.743 2.51-6.94-7.483.206-4.456C-1.082-3.188.172-1.353 0 0Z" style="fill:#2b2b2a;fill-opacity:1;fill-rule:evenodd;stroke:none" transform="translate(435.183 467.016)"/></g><g clip-path="url(#aL)" transform="translate(-210.582 -34.131)"><path d="M0 0c-3.09 1.744.382 10.54-3.541 4.88C-4.461 2.9-2.613-1.67 0 0Z" style="fill:#2b2b2a;fill-opacity:1;fill-rule:evenodd;stroke:none" transform="translate(445.103 458.632)"/></g><g clip-path="url(#aM)" transform="translate(-210.582 -34.131)"><path d="M0 0c-.016-6.276 7.417-.684 1.775.668L.91.49Z" style="fill:#2b2b2a;fill-opacity:1;fill-rule:evenodd;stroke:none" transform="translate(427.346 475.195)"/></g><g clip-path="url(#aN)" transform="translate(-210.582 -34.131)"><path d="M0 0c2.755.755-6.137 8.542-2.677 1.85L-1.395.798Z" style="fill:#2b2b2a;fill-opacity:1;fill-rule:evenodd;stroke:none" transform="translate(441.594 456.167)"/></g><g clip-path="url(#aO)" transform="translate(-210.582 -34.131)"><path d="M0 0c5.155-4.584 4.493 2.097.031 1.007Z" style="fill:#2b2b2a;fill-opacity:1;fill-rule:evenodd;stroke:none" transform="translate(437.474 454.439)"/></g><g clip-path="url(#aP)" transform="translate(-210.582 -34.131)"><path d="M0 0c.084-.612.239-1.272.708-1.71.433-.402 1.063-.47 1.628-.425.582.037 1.188.181 1.631.582.46.394.712 1.066.497 1.65a1.38 1.38 0 0 1-.655.738c-.02-.34.042-.677.082-1.013.023-.287-.242-.465-.438-.624-.2-.152-.406-.295-.612-.438-.402.11-.813.184-1.23.2-.118.017-.288-.03-.282.134L.883.83C.599.598.401.276.094.069A4.754 4.754 0 0 0 0 0Z" style="fill:#fcdd09;fill-opacity:1;fill-rule:evenodd;stroke:none" transform="translate(443.637 472.603)"/></g><g clip-path="url(#aQ)" transform="translate(-210.582 -34.131)"><path d="M0 0c-.036.02-.095.087-.112.051-.018-.035-.092.037-.116.04l-.261.018c-.002 0-.739-.134-.779-.144-.797-.204-2.274-1.337-3.398.396-.787-.184-.435-.034-1.327-.015.046-.39.037-.306.314-.748.848-1.357 2.665-1.399 4.143-.428C-.505-.153-.291-.986 0 0" style="fill:#2b2b2a;fill-opacity:1;fill-rule:evenodd;stroke:none" transform="translate(448.148 468.44)"/></g><g clip-path="url(#aR)" transform="translate(-210.582 -34.131)"><path d="M0 0c.893-.275 2.741-.371 2.889.765C2.786.839-.713 1.961 0 0" style="fill:#ffcd00;fill-opacity:1;fill-rule:evenodd;stroke:none" transform="translate(431.98 479.616)"/></g><g clip-path="url(#aS)" transform="translate(-210.582 -34.131)"><path d="m0 0 .71-.024.027.656-.712.024Z" style="fill:#fff;fill-opacity:1;fill-rule:evenodd;stroke:none" transform="translate(445.532 473.137)"/></g><g clip-path="url(#aT)" transform="translate(-210.582 -34.131)"><path d="M0 0c.019-.016.056.076.056.052C.052.048-.018.018 0 0" style="fill:#2b2b2a;fill-opacity:1;fill-rule:evenodd;stroke:none" transform="translate(447.21 441.128)"/></g><g clip-path="url(#aU)" transform="translate(-210.582 -34.131)"><path d="m0 0 .056.052C.052.048-.019.017 0 0" style="fill:#2b2b2a;fill-opacity:1;fill-rule:evenodd;stroke:none" transform="translate(420.996 464.291)"/></g><g clip-path="url(#aV)" transform="translate(-210.582 -34.131)"><path d="M0 0c2.084.167 1.92 1.697 2.692 4.602.235.883.606 1.016.679 1.794-.885-.421-1.497.258-2.417-2.437C.666 3.114.001.837 0 0" style="fill:#e31f25;fill-opacity:1;fill-rule:evenodd;stroke:none" transform="translate(451.143 456.513)"/></g><g clip-path="url(#aW)" transform="translate(-210.582 -34.131)"><path d="M0 0c-.113-1.355-.406-2.327.017-2.864 1.114.179.759 1.319 2.011 3.067-.243-.005-.324-.031-.519-.048C.778.091.389.216 0 0" style="fill:#fff;fill-opacity:1;fill-rule:evenodd;stroke:none" transform="translate(463.16 462.36)"/></g><g clip-path="url(#aX)" transform="translate(-210.582 -34.131)"><path d="M0 0c6.49 1.179 14.015 1.808 21.007.436 4.52-1.488 10.193 6.116 6.584 7.28C24.254.533 14.888 2.399 8.43 2.941 5.575 3.689 1.465 2.737 0 0Zm52.145 20.6c-3.612-8.93-8.734 10.004 0 0zm22.721 2.449c-2.198-2.607-8.74-5.285-3.977-.304 1.227.362 2.776 1.208 3.977.304zm8.191-19.315c-4.495-.795-7.626 4.853-1.637 2.949a3.604 3.604 0 0 0 1.637-2.949ZM72.416-6.84c-6.59-2.384-4.417 6.418 0 0zm-4.088-29.73c-1.415-4.371-8.725-2.623-3.074.072.973-.71 2.37 1.383 3.074-.072zm13.606-16.219c-3.478-1.615-8.804 2.878-3.303 3.357.96-1.137 3.548-1.435 3.303-3.357zm-8.892-13.572c-7.194-1.933-3.527 8.328-.664 1.74l.565-.957zm-17.479-.632c-6.2-.438-4.053 8.815-1.12 2.684-.054-1.095 1.072-1.63 1.12-2.684zM-9.414-49.881c-4.359-3.527-8.987 2.818-1.929 1.351.718-.21 1.762-.456 1.929-1.351zm5.244-11.235c-7.695-.709-4.233 7.354 0 0zm-14.355-6.282c-8.697 1.251 1.283 7.426 0 0zm-19.539 2.652c1.46-7.634-6.338 2.608-.836 1.01zm-67.908 9.966c-4.803-1.462-6.73 6.017-1.175 2.837.487-.848 1.284-1.767 1.175-2.837zm-3.434-10.139c-7.879 4.706 3.064 6.758 0 0zm-11.733 1.788c4.563-10.804-10.079 1.985 0 0zm-16.153 2.203c-.387-5.98-4.53-4.113-3.65.967 1.301-.076 2.828.435 3.65-.967z" style="fill:#4d87ca;fill-opacity:1;fill-rule:evenodd;stroke:none" transform="translate(451.892 454.266)"/></g><g clip-path="url(#aY)" transform="translate(-210.582 -34.131)"><path d="M0 0c2.9-1.365 4.145-6.264 7.115-1.037 3.606-7.504 5.357 4.608 10.29.078 3.32-.95-.64 7.045 4.218 2.087 4.759-3.974 15.47 1.678 5.502 4.549 1.433 6.15 10.052 8.775 11.449 15.585 6.13-.995 6.47-8.214 2.469-9.634.88-4.754 11.264.996 4.52-5.001 3.359-7.061 10.803 5.414 16.022 2.935-1.861 8.941 8.565 6.81 14.446 8.767 6.402-4.932-.292-15.46-6.724-8.531-4.7 1.568-16.901-5.301-10.159-7.85 10.201 2.982-4.427-9.65 3.475-10.64 3.255 5.379 11.12 3.584 9.761-3.184 4.189 3.126 9.742 1.366 13.003 6.691 2.485-1.52 4.923.724 4.988-3.535 7 .514 9.632 13.78.794 14.059.778 4.177 14.305 15.467 3.768 12.465 6.828 3.03 5.746 10.239 2.326 7.828 5.663 1.84 2.573 13.044-1.63 5.542-3.509-1.404 2.578 8.931-2.975 11.15-3.65 1.095-4.713-10.675-11.956-8.45-6.489 3.357-14.594 1.314-20.855 4.951 5.272 7.352 17.637-1.894 24.791 4.043-3.842 6.515 13.6-.723 6.031 6.604-2.165 3.352 14.431 9.914 6.34 13.806-5.927-5.277-6.876 1.963-.821 3.153.93 8.347-12.273 1.438-16.073 7.007-8.096.083-13.482 9.064-22.001 5.71 1.542-1.548 7.722-7.342 1.078-3.575-3.099 2.78-15.957 4.522-13.763-.336 4.907-.166 9.662-6.166 2.199-2.058-3.697 2.695-14.466-1.217-5.151-2.846 4.054-4.77-14.771-4.857-14.87 1.799-3.532 2.76-9.428 4.542-5.766 9.904-3.416 6.146-9.54-.89-11.454-1.401-4.53 4.643-19.252 1.806-15.089-5.196C-1.21 78.42 8.94 72.275.315 72.654c-7.34-3.638 5.539-7.063 8.229-10.662 9.085-3.568 18.308.055 27.791-2.334 11.41-.416 21.945 5.337 33.234 5.552 7.38 1.75 17.101-7.84 8.034-12.757-8.159-3.89-18.077-.232-25.934-5.297-7.571-.48-16.008 3.406-24.17 1.11-10.992-1.282-22.422-1.975-32.978 1.991-.645 3.333-9.39 6.357-3.991 11.61 6.346 4.168-7.465 7.658-.84 12.644.767 6.372-5.87 12.647-10.475 5.348-.376 8.796-6.413-.782-7.656 1.74-1.783 8.131-5.82-4.684-8.513 3.416-2.441-3.093-2.817-4.306-5.366-.834-3.651-2.345-4.735-7.73-7.446-1.282-6.756 3.104-10.958-11.79-4.351-14.102-.696-3.914-6.881-6.437-.716-9.161-5.722-.83-4.914-6.868.92-7.419-2.187-3.008-8.809 3.01-7.889-3.618-7.567 1.403-13.7 7.624-20.765 10.876-5.753 1.846-20.566 6.636-10.392 13.301-.101 3.422.691 14.097-5.126 10.853-1.34-4.86-7.653-4.471-7.438-10.294-3.78 2.314-6.44 8.795-12.365 9.711-7.476 1.906-9.409-2.256-3.013-5.73-6.806-4.804 10.476-9.502 1.208-8.22-5.957 3.953-11.115-3.46-13.12-7.912 2.16-4.545 7.815 2.125 10.743-3.094 3.283 1.765 11.076 2.407 3.47.052-1.024-2.91-1.375-5.096-4.8-6.63 5.896-7.491 15.466 4.029 20.415-2.58-4.598-8.917 15.511 2.51 5.784-6.049 2.074-3.909 15.518-.458 5.772-4.414-6.878.861-8.473-14.45-1.808-8.9 2.642 3.354 17.557.062 8.83-3.686-1.962-5.102-.968-9.711-8.008-10.823-9.594-6.287-11.424 6.128-19.26 8.382-5.457 1.18-8.853-2.186-3.486-5.638-7.241-4.325 10.22-8.77.423-8.554-4.695 7.1-19.69-1.018-15.058-5.783 5.265 2.036 7.818-6.524 13.324-1.219-5.032-2.568-4.952-6.959-5.862-11.647 7.171-1.137 12.286 2.032 17.049 6.416 5.266-2.471-3.574-9.235 4.311-7.449 7.137 2.462 10.663 9.785 18.538 9.7 3.355-8.934 6.34 9.863 9.767.132 4.332-.358 5.294 10.14 8.067 2.329 5.826 2.12 8.728 10.993 16.452 6.718 6.063-.868 4.336 2.913 4.64 4.594 4.676 3.755 8.81-.05 10.717 6.367 3.16 5.137 7.273-4.719 9.278 2.87 3.05.203 8.138-3.742 8.912 1.364 10.137-2.535 20.492 1.69 29.583 5.744-2.455-6.327-8.52-10.007-14.004-6.951-2.514-3.782-7.918 2.658-8.096-5.027-4.396.05-7.332-2.993-3.957-5.085-4.378-3.527-10.326-6.092-14.947-1.487-4.323.17-15.626 2.409-13.544-4.483 4.313.356 8.21-2.87 1.146-1.998-3.543-1.229-11.098-12.31-2.12-8.299 3.58 2.158 4.922-5.108 8.709-.55 2.327-2.521.076-11.292 5.987-5.526 5.96-2.265 7.614 3.578 11.754 5.827 4.27-2.445 1.06-11.017 7.759-6.036C-3.433-6.975 2.724-6.122 0 0Z" style="fill:#2b2b2a;fill-opacity:1;fill-rule:evenodd;stroke:none" transform="translate(437.05 291.713)"/></g><g clip-path="url(#aZ)" transform="translate(-210.582 -34.131)"><path d="M0 0c5.35 2.483 17.212 7.978 17.287 10.462C8.365 9.886 3.871.771-5.676.522c-6.488-3.221-9.537 2.725-12.453 5.842-3.806-.3-9.56-4.036-2.586-4.561 6.55-3.402-4.55-9.68-8.527-3.765-5.013 2.9-.823-4.382-3.137-7.042 3.877.666 7.948 1.402 12.082 1.626-1.342-4.616-11.908-5.188-3.467-8.047 2.556-6.833 1.394 3.98 6.159 2.291 3.02-.169 7.208 7.817 5.831 1.531-2.614-3.522 5.208-.973 6.547-4.142 4.284 2 1.374 14.933 4.505 5.811 2.428-4.237 8.523 2.84 11.037-2.008 1.497 2.953-.608 8.95 5.483 5.11 4.543-5.568 6.078 8.046-.696 4.517-.569 1.72 8.477 1.779 7.874-1.217 3.33-3.675 5.345-3.6 6.694 1.381 5.832.674 5.62 2.484 4.886 7.568-1.938.378-17.08-7.252-15.16 1.832 4.405.095 10.638 8.536 3.58 3.415C16.206 5.749 8.09 1.499 0 0Zm-26.371 61.537c5.674-3.502.694-10.16-4.655-5.507-6.543 3.185-1.5-5.536-.791-7.127 2.306 5.505 15.772-.014 6.501-3.754 1.366-6.837 5.536-3.24 7.21.009 1.314-2.829 5.572 1.094 3.378-3.816 4.924-1.857 2.946-8.125 8.869-3.57 6.282-.249-1.252-10.185 6.901-5.884 6.36 1.329 1.219-7.307 8.679-5.07 5.99-2.175 2.624 1.187 4.291 4.671 5.272-3.082 13.667.77 4.354 3.412-2.957 2.458-13.355 7.463-4.437 3.546 2.902-2.395 14.429-7.405 13.54-4.145-6.483 2.536-12.712 5.3-18.421 9.456-6.126 4.67-20.631 4.477-17.578 15.529 7.539 2.688-5.44 7.713-3.906 3.007-3.026-8.11-9.557 1.352-11.175 3.477-1.455-2.71-11.177-2.841-3.74-4.41zm81.798 4.291c-1.184 5.943-3.845 4.964-6.725.879-1.327 9.073-6.114-7.393-9.447 1.429-4.8 4.762-8.039-10.73-.852-10.071.733-3.794-8.31-8.198-1.239-7.153.7 3.116 5.809 10.59 3.175 3.953.718-4.892-6.814-9.669-5.602-11.409 8.835 1.285-1.19-8.075-4.752-5.446 1.352-2.57 10.94-2.674 3.25-5.086-5.218-3.015-13.308-4.373-17.582-5.192 2.867-2.487 10.585-2.464 2.925-4.058-7.24-.285-15.044 3.679-22.106.214-3.842-2.359-3.038-7.548.604-2.272 7.97.74 15.316-5.058 23.569-2.79 3.241 1.134 8.705 3.867 2.654-.225-5.893-2.815-15.716-.057-17.873-8.398-.232-7.772 4.444 4.155 9.489 1.883 6.405.757 14.324 1.093 17.074 8.149 1.831 3.2 9.471 7.296 2.955 1.536C32.506 15.699 25.63 8.738 22.64 5.314c8.727-1.545 17.415 8.633 21.338 12.016-1.355-5.96-13.952-12.384-5.01-18.206 7.083-2.996.032 7.88 6.785 9.979 3.325 1.5 7.935 14.716 6.473 4.982-2.603-3.104-.059-12.29 2.672-5.148 4.294 2.014 3.963 12.588 8.202 11.1-5.88-3.619.917-15.786 1.292-5.357 1.564 4.128 7.199 11.716 3.912 3.165-3.147-4.161 6.214-10.063 2.888-3.115 3.605 4.095 3.645 8.959 1.606 13.153 4.56-1.934 12.285 1.32 4.849 4.502-4.533 4.389.781 4.07 3.029 6.04-4.237 2.605-7.678 13.593-1.265 13.417-4.78 3.837-4.365 9.5-2.756 14.208-1.346 9.7-10.02-5.947-11.1 3.941-3.657-3.754-5.709-3.649-6.977 1.685-2.575-1.11-1.012-5.089-3.151-5.848Zm35.969-57.2c-1.017-3.627 7.498-3.776 1.1-4.352-3.644-.256-9.455 7.318-6.412-.171 2.685-3.718-11.095 2.303-4.564-2.81 3.909.888 8.345-.345 1.605-1.627-6.887-3.883-14.407-6.84-21.486-2.405-8.729-4.032 9.552-5.66 1.009-6.548-4.237-1.007-14.51 3.274-8.688-4.41 3.25-2.219 12.563 3.668 15.093 2.598-3.86-2.54-10.102-3.964-2.623-6.55 3.696-6.803 2.095 7.525 7.248 2.885 3.326 1.267 9.98 8.922 5.488 1.174-1.838-3.727 6.782.192 7.663-3.339 2.42 2.96-3.326 11.311 4.013 7.744 3.39-3.537 4.692-4.534 3.362.698 4.158 1.058 7.66-9.112 5.997-.044-.6 5.604 8.096-7.444 6.569.889 1.81 10.074 4.213-4.244 10.654-2.228-6.153 3.137-1.172 9.746 3.036 12.539 3.367 1.501 7.811 12.482 1.48 6.206-3.478-7.616-10.986-10.35-17.736-13.456-3.819-.408-14.788-4.73-14.382-2.722 7.635 1.158 14.431 5.281 21.854 7.189 3.864 2.512 10.912 9.832 8.743 12.917-3.4-1.242-8.037-11.275-8.369-8.337 2.154 3.137 10.916 13.737 1.928 7.767-1.644-3.114-12.889-12.072-5.681-4.79 2.192 2.8 9.541 10.491 1.152 6.47-1.343-3.236-13.698-12.853-6.732-5.7 1.555 3.205 10.733 10.014 7.648 10.567-6.33-4.052-9.516-14.353-18.969-10.154Zm16.636 52.56c-5.732 1.175-14.398 13.835-21.318 5.174 5.846 2.497 13.011-8.168 11.78-9.374-2.963 4.75-12.817 2.296-4.27-.98 3.503-4.052 13.387-7.67 15.905-3.86-3.96-.086-10.749 4.797-2.938 2.066 7.723-1.407 15.201-5.215 23.423-3.658 12.33 1.67 24.658 9.092 37.188 4.255 9.461-2.635 6.751-16.513-2.419-17.077-8.38-2.03-18.453.656-25.115-6.29-7.509 4.242-16.489 3.455-24.694 2.918-10.638-2.228-21.599-.836-32.064 1.503-9.695.197 14.403-5.551 2.892-3.77-3.102.74-9.814 2.487-3.35-.1 2.997-6.25-9.573-4.896-6.701-11.672 9.858 5.147-8.106-4.927.956-5.945 8.315-1.736 16.396 2.083 24.02 4.886 7.24 3.75 17.3 4.996 23.397-1.494 3.415-5.037 11.404-7.989 14.543-10.294-4.318 1.666-4.331-6.847-4.385-7.406 3.384.486 4.855 8.54 5.689 1.38-1.093-3.848-4.102-9.453 2.26-4.827 3.23 2.146 2.414 12.964 4.58 4.346 3.322-4.278 2.942 5.638-.617 5.225 7.31-2.178 17.904 8.126 23.173-.574 3.594-8.115-5.475-16.93-12.097-9.336-6.338-1.666-.342-6.996 3.997-4.364-1.881-3.137-10.92-1.41-4.847-6.53 4.374-1.695 11.122 7.186 13.85 5.735-2.501-3.068-11.799-6.986-2.884-6.347 3.541-8.94 5.523 5.27 8.325 4.36-2.88-8.188 13.781 1.625 4.011 1.98-8.52 4.167 12.429 13.956 1.445 13.985.032 4.178 10.37 6.206 1.608 6.672-2.033 2.818 8.66 6.774 4.007 7.343-5.84-6.283-8.86-.19-4.886 4.889.515 5.042-1.774 5.34-2.793.553-4.78-7.492-13.026-4.568-19.505-1.823-5.664-2.595-17.995 2.87-15.992 8.346 3.182 3.334 18.163 3.55 6.553 1.582-6.477-2.733-2.154-1.711 2.4-.35 6.463 1.054 12.837-3.126 19.13-.525-.998 2.65-12.201 1.636-3.925 3.144 3.674.676 16.345-.45 7.67 3.598 2.233 3.29 12.326 7.685 9.677 10.427-4.026-2.332-8.525-5.704-5.819 1.751-1.731 4.338 9.24 6.592 1.05 7.012-4.486.544-2.85-7.48-5.583-1.454-3.658 4.884-13.984 4.82-16.318 5.449 3.538 2.788-12.742 7.945-4.593 1.741 5.995-6.133-5.258-3.56-8.62.105-3.37 2.384-11.603 1.838-3.757-1.188 2.087-2.862 11.217-3.851 3.103-5.035-3.043-1.402-12.763 5.898-11.513 2.069 5.685-1.773 6.484-3.688.288-5.01-8.179-2.003-18.508-1.685-21.11 6.567-5.579 1.001-5.352 6.411-3.633 9.733-7.435 2.092-5.962-7.653-1.174-9.511zM44.144 3.21c6.102-1.27 7.012 8.67 1.737 2.836-.801-.584-2.294-1.553-1.737-2.836Zm69.205 13.583c3.457 2.071 11.794-4.666 11.274-2.083-2.537 3.11-8.397 6.79-11.274 2.083z" style="fill:#4d87ca;fill-opacity:1;fill-rule:evenodd;stroke:none" transform="translate(347.34 303.31)"/></g><g clip-path="url(#ba)" transform="translate(-210.582 -34.131)"><path d="M0 0c-2.309-3.02 7.393-8.872-.558-10.253-5.234-2.286-6.516 9.239-6.234 1.369 1.824-2.386 9.37-9.527 2.732-7.815-1.95 2.41-3.617 7.02-2.667 1.014-1.508-2.76-6.39-8.265-.656-3.747 6.205 5.522 5.347-5.88 11.688-4.339 4.455.567 6.6 8.364 8.766 1.063 1.264-7.705 5.67 1.102 2.613.938-3.32-1.416-3.21 5.408-1.04 7.97 1.067 2.638 2.774 10.51-.167 10.148 1.74-4.053-1.16-14.78-4.58-12.563 2.324 1.995 5.178 12.852 2.22 9.978-1.129-9.679-13.518.17-4.37 3.86 2 3.985-1.028 4.286-1.502.58C4.145-3.159 1.136-2.035 0 0Z" style="fill:#2b2b2a;fill-opacity:1;fill-rule:evenodd;stroke:none" transform="translate(399.212 355.86)"/></g><g clip-path="url(#bb)" transform="translate(-210.582 -34.131)"><path d="M0 0c.903-.288 4.697-6.81 8.223-1.714.4-7.42 3.581 7.109-3.064 4.648C3.485 4.49-3.567 1.518 0 0Z" style="fill:#2b2b2a;fill-opacity:1;fill-rule:evenodd;stroke:none" transform="translate(391.189 362.224)"/></g><g clip-path="url(#bc)" transform="translate(-210.582 -34.131)"><path d="M0 0c.902 1.74 6.732-1.867 7.832 2.879 5.624-1.12-6.182 6.581-8.242.807C-1.56 2.995-2.766-1.706 0 0Z" style="fill:#2b2b2a;fill-opacity:1;fill-rule:evenodd;stroke:none" transform="translate(408.181 359.157)"/></g><g clip-path="url(#bd)" transform="translate(-210.582 -34.131)"><path d="M0 0c3.845-.668 14.318 6.562 9.753 9.057C9.119 5.389-.327-1.129 4.301 5.781c1.732 2.473 4.484 8.57.23 3.714C2.409 6.603 2.215 2.868 0 0Z" style="fill:#2b2b2a;fill-opacity:1;fill-rule:evenodd;stroke:none" transform="translate(388.022 322.368)"/></g><g clip-path="url(#be)" transform="translate(-210.582 -34.131)"><path d="M0 0c4.088-.752 9.626-2.728 12.636 1.578.74 1.293-10.183-3.312-9.462.676 2.16 1.165 10.257 3.193 8.307 4.902C8.057 3.933.919 5.773 0 0Z" style="fill:#2b2b2a;fill-opacity:1;fill-rule:evenodd;stroke:none" transform="translate(372.865 328.398)"/></g><g clip-path="url(#bf)" transform="translate(-210.582 -34.131)"><path d="M0 0c-2.149 1.03-4.885 11.029-3.744 2.376C-2.406-.692.946-6.28 1.02.505c.23 2.71-.024 13.43-2.72 10.036C-1.111 7.013-.505 3.467 0 0Z" style="fill:#2b2b2a;fill-opacity:1;fill-rule:evenodd;stroke:none" transform="translate(419.822 340.46)"/></g><g clip-path="url(#bg)" transform="translate(-210.582 -34.131)"><path d="M0 0c1.463-4.453-3.143-11.142-2.702-2.651-3.728 3.54-.51-13.062 3.198-4.84C1.298-6.013 3.54 2.686 0 0Z" style="fill:#2b2b2a;fill-opacity:1;fill-rule:evenodd;stroke:none" transform="translate(406.763 332.117)"/></g><g clip-path="url(#bh)" transform="translate(-210.582 -34.131)"><path d="M0 0c-4.933 5.628-13.92 3.058-19.474 7.952C-15.923 1.097-6.909 3.366-1.162.33Z" style="fill:#2b2b2a;fill-opacity:1;fill-rule:evenodd;stroke:none" transform="translate(498.844 310.727)"/></g><g clip-path="url(#bi)" transform="translate(-210.582 -34.131)"><path d="M0 0c2.863-3.773 10.096 4.317 2.83.505-.208 1.23 4.92 10.791 3.274 12.54C2.583 9.4 5.224 2.912 0 0Z" style="fill:#2b2b2a;fill-opacity:1;fill-rule:evenodd;stroke:none" transform="translate(385.388 340.861)"/></g><g clip-path="url(#bj)" transform="translate(-210.582 -34.131)"><path d="M0 0c1.297-3.431 9.578 2.626 8.758-4.674.502-8.01 3.358 11.543-4.39 4.963C2.968-.483 1.444.471 0 0Z" style="fill:#2b2b2a;fill-opacity:1;fill-rule:evenodd;stroke:none" transform="translate(516.194 320.294)"/></g><g clip-path="url(#bk)" transform="translate(-210.582 -34.131)"><path d="M0 0c3.881-3.704 6.745-9.13 12.607-9.788 7.611-1.871-5.96 2.655-7.105 5.634C3.886-2.902 2.402.604 0 0Z" style="fill:#2b2b2a;fill-opacity:1;fill-rule:evenodd;stroke:none" transform="translate(442.694 369.28)"/></g><g clip-path="url(#bl)" transform="translate(-210.582 -34.131)"><path d="M0 0c4.95-1.302 2.243-12.813 4.02-10.424C6.147-7.15 4.18 2.218 0 0Z" style="fill:#2b2b2a;fill-opacity:1;fill-rule:evenodd;stroke:none" transform="translate(515.904 312.685)"/></g><g clip-path="url(#bm)" transform="translate(-210.582 -34.131)"><path d="M0 0c3.393-1.236 11.74-2.439 12.17 1.888C8.306-.186 3.453 1.138 0 0Z" style="fill:#2b2b2a;fill-opacity:1;fill-rule:evenodd;stroke:none" transform="translate(366.627 303.971)"/></g><g clip-path="url(#bn)" transform="translate(-210.582 -34.131)"><path d="M0 0c-.21-3.942 10.906-7.931 8.579-4.925C4.947-4.797 3.247.255 0 0Z" style="fill:#2b2b2a;fill-opacity:1;fill-rule:evenodd;stroke:none" transform="translate(490.278 329.359)"/></g><g clip-path="url(#bo)" transform="translate(-210.582 -34.131)"><path d="M0 0c3.185 4.883-6.692 13.585-7.238 9.74C-2.01 8.643-.748 4.228 0 0Z" style="fill:#2b2b2a;fill-opacity:1;fill-rule:evenodd;stroke:none" transform="translate(522.812 349.275)"/></g><g clip-path="url(#bp)" transform="translate(-210.582 -34.131)"><path d="M0 0c2.956-4.214 5.219-1.324 3.132 2.672C1.103 4.29.172 1.525 0 0Z" style="fill:#2b2b2a;fill-opacity:1;fill-rule:evenodd;stroke:none" transform="translate(417.95 367.425)"/></g><g clip-path="url(#bq)" transform="translate(-210.582 -34.131)"><path d="M0 0c.614 2.23-7.572 8.583-6.944 7.419C-4.986 5.14-3.287.266 0 0Z" style="fill:#2b2b2a;fill-opacity:1;fill-rule:evenodd;stroke:none" transform="translate(359.67 331.684)"/></g><g clip-path="url(#br)" transform="translate(-210.582 -34.131)"><path d="M0 0c.388-5.98 4.53-4.114 3.65.967C2.349.891.822 1.402 0 0Zm-16.151-2.202c-4.568-10.806 10.079 1.983 0 0zm-11.733-1.789c7.876 4.71-3.067 6.756 0 0zm-3.436 10.14c4.804-1.465 6.731 6.018 1.175 2.837-.486-.849-1.284-1.767-1.175-2.837zm-67.908-9.966c-1.43-7.634 6.345 2.667.83 1.003zm-19.538-2.653c8.698 1.25-1.29 7.433 0 0zm-14.355 6.282c7.696-.708 4.234 7.355 0 0zm5.227 11.221c3.192-3.125 9.502 1.739 2.898 1.503-.893-.235-2.653-.215-2.898-1.503zm-64.96-17.098c6.199-.44 4.055 8.817 1.12 2.684.055-1.095-1.071-1.63-1.12-2.684zm-17.479.633c7.194-1.935 3.527 8.328.664 1.74l-.565-.958zm-8.892 13.571c3.478-1.616 8.803 2.878 3.304 3.357-.96-1.138-3.549-1.435-3.304-3.357zm13.605 16.219c1.417-4.37 8.726-2.624 3.075.073-.974-.71-2.37 1.381-3.075-.073zm-4.087 29.731c6.586-2.386 4.421 6.418 0 0zm-10.642 10.574c4.495-.795 7.627 4.852 1.638 2.948a3.605 3.605 0 0 1-1.638-2.948zm8.191 19.315c2.198-2.608 8.742-5.285 3.977-.304-1.227.362-2.776 1.208-3.977.304zm22.722-2.45c3.606-8.922 8.806 9.987 0 0zm64.741-32.625c1.035 7.568-4.21 6.129-3.13-.145-.955-5.745 9.471-4.746 7.446 1.121 1.645 6.694-5.607 7.02-4.316-.976z" style="fill:#da121a;fill-opacity:1;fill-rule:evenodd;stroke:none" transform="translate(527.29 288.963)"/></g><g clip-path="url(#bs)" transform="translate(-210.582 -34.131)"><path d="M0 0c4.749-2.382-1.28 4.003 2.951 4.223C2.185 7.933-2.765 2.184 0 0Z" style="fill:#2b2b2a;fill-opacity:1;fill-rule:evenodd;stroke:none" transform="translate(384.09 362.614)"/></g><g clip-path="url(#bt)" transform="translate(-210.582 -34.131)"><path d="M0 0c5.252-2.527 10.807 11.309 4.448 2.636C3.336.986.77 1.976 0 0Z" style="fill:#2b2b2a;fill-opacity:1;fill-rule:evenodd;stroke:none" transform="translate(427.313 318.333)"/></g><g clip-path="url(#bu)" transform="translate(-210.582 -34.131)"><path d="M0 0c.913 2.2 5.338 9.79.659 5.32C.039 3.837-.994 1.463 0 0Z" style="fill:#2b2b2a;fill-opacity:1;fill-rule:evenodd;stroke:none" transform="translate(388.005 350.643)"/></g><g clip-path="url(#bv)" transform="translate(-210.582 -34.131)"><path d="M0 0c3.88 3.442-4.538 10.401-.935 4.006C-.176 2.774-.788 1.211 0 0Z" style="fill:#2b2b2a;fill-opacity:1;fill-rule:evenodd;stroke:none" transform="translate(420.01 353.912)"/></g><g clip-path="url(#bw)" transform="translate(-210.582 -34.131)"><path d="M0 0c1.83-1.19 13.641-7.359 6.773-2.61C4.763-1.467 2.453.696 0 0Z" style="fill:#2b2b2a;fill-opacity:1;fill-rule:evenodd;stroke:none" transform="translate(463.827 327.667)"/></g><g clip-path="url(#bx)" transform="translate(-210.582 -34.131)"><path d="M0 0c-.806 2.015-8.011 10.07-4.198 3.453C-3.162 2.026-1.816.36 0 0Z" style="fill:#2b2b2a;fill-opacity:1;fill-rule:evenodd;stroke:none" transform="translate(352.663 335.732)"/></g><g clip-path="url(#by)" transform="translate(-210.582 -34.131)"><path d="M0 0c2.771-4.298 10.391 8.081 3.904 1.582C2.739.751 1.341.417 0 0Z" style="fill:#2b2b2a;fill-opacity:1;fill-rule:evenodd;stroke:none" transform="translate(423.038 320.032)"/></g><g clip-path="url(#bz)" transform="translate(-210.582 -34.131)"><path d="M0 0c4.714-1.521 8.573 12.065 4.307 4.091C3.57 1.99.879 1.8 0 0Z" style="fill:#2b2b2a;fill-opacity:1;fill-rule:evenodd;stroke:none" transform="translate(433.492 318.506)"/></g><g clip-path="url(#bA)" transform="translate(-210.582 -34.131)"><path d="M0 0c4.528 1.44 2.692 9.901 1.193 2.874L.564 1.391Z" style="fill:#2b2b2a;fill-opacity:1;fill-rule:evenodd;stroke:none" transform="translate(525.246 309)"/></g><g clip-path="url(#bB)" transform="translate(-210.582 -34.131)"><path d="M0 0c4.606.39 6.577 12.526 2.874 3.57C2.608 1.687-.262 1.953 0 0Z" style="fill:#2b2b2a;fill-opacity:1;fill-rule:evenodd;stroke:none" transform="translate(440.046 320.235)"/></g><g clip-path="url(#bC)" transform="translate(-210.582 -34.131)"><path d="M0 0c-.168 3.093-8.194 9.064-2.877 2.649C-1.745 2.054-1.578-.534 0 0Z" style="fill:#2b2b2a;fill-opacity:1;fill-rule:evenodd;stroke:none" transform="translate(345.922 339.363)"/></g><g clip-path="url(#bD)" transform="translate(-210.582 -34.131)"><path d="M0 0c-2.055 3.129-9.289-.576-2.377-.512l.881.081Z" style="fill:#2b2b2a;fill-opacity:1;fill-rule:evenodd;stroke:none" transform="translate(362.165 298.959)"/></g><g clip-path="url(#bE)" transform="translate(-210.582 -34.131)"><path d="M0 0c-.967.02-.236-1.425-1.31-1.319-.85-.189-1.844.157-2.374.843-.028.57-.077 1.75-.938 1.128-.62-.715.073-1.737.571-2.324.778-.929 2.27-.991 3.252-.37.544.469.992 1.194.905 1.936l-.03.018z" style="fill:#ffcd00;fill-opacity:1;fill-rule:evenodd;stroke:none" transform="translate(398.101 362.585)"/></g><g clip-path="url(#bF)" transform="translate(-210.582 -34.131)"><path d="M0 0c-.94.102-.57-1.185-1.443-1.376-.66-.55-1.553-.346-2.203.11-.692.253-.55 1.202-.694 1.811-.306.146-1.268-.697-.848-1.318.074-.915.805-1.702 1.728-1.793 1.218-.184 2.454.4 3.263 1.289C.048-.902-.014-.426 0 0Z" style="fill:#ffcd00;fill-opacity:1;fill-rule:evenodd;stroke:none" transform="translate(414.767 362.757)"/></g><g clip-path="url(#bG)" transform="translate(-210.582 -34.131)"><path d="M0 0c2.882 1.257 5.609 9.996 1.695 3.562C1.142 2.372.295 1.301 0 0Z" style="fill:#2b2b2a;fill-opacity:1;fill-rule:evenodd;stroke:none" transform="translate(524.358 302.619)"/></g><g clip-path="url(#bH)" transform="translate(-210.582 -34.131)"><path d="M0 0c-.153-.371.482-1.524.598-2.259C.78-3.408.159-4.11.61-5.013c.899.225.752.472.808 1.066.058.619 1.142 1.433.079 3.383C1.309-.22 1.06.12.579.147-.353.201.317.159 0 0" style="fill:#2b2b2a;fill-opacity:1;fill-rule:evenodd;stroke:none" transform="translate(415.655 355.497)"/></g><g clip-path="url(#bI)" transform="translate(-210.582 -34.131)"><path d="M0 0c-3.813 1.07-8.03-.865-1.73-1.213C-1.086-1.253.36-.982 0 0Z" style="fill:#2b2b2a;fill-opacity:1;fill-rule:evenodd;stroke:none" transform="translate(356.97 297.304)"/></g><g clip-path="url(#bJ)" transform="translate(-210.582 -34.131)"><path d="M0 0c-2.31 2.918-6.944.193-1.645-.394l.918.096z" style="fill:#2b2b2a;fill-opacity:1;fill-rule:evenodd;stroke:none" transform="translate(351.491 294.983)"/></g><g clip-path="url(#bK)" transform="translate(-210.582 -34.131)"><path d="M0 0c-1.202 4.313-6.977 4.787-1.156.78L-.71.203Z" style="fill:#2b2b2a;fill-opacity:1;fill-rule:evenodd;stroke:none" transform="translate(339.555 343.857)"/></g><g clip-path="url(#bL)" transform="translate(-210.582 -34.131)"><path d="M0 0c-1.97 2.457-8.961 6.835-3.41 2.005C-2.235 1.445-1.36.045 0 0Z" style="fill:#2b2b2a;fill-opacity:1;fill-rule:evenodd;stroke:none" transform="translate(447.349 356.707)"/></g><g clip-path="url(#bM)" transform="translate(-210.582 -34.131)"><path d="M0 0c2.77-.221 4.698 7.743 1.593 2.278C1.465 1.271-.512 1.24 0 0Z" style="fill:#2b2b2a;fill-opacity:1;fill-rule:evenodd;stroke:none" transform="translate(445.787 322.423)"/></g><g clip-path="url(#bN)" transform="translate(-210.582 -34.131)"><path d="M0 0c2.474.54 4.876 7.683 1.498 2.593L.659 1.315Z" style="fill:#2b2b2a;fill-opacity:1;fill-rule:evenodd;stroke:none" transform="translate(521.876 296.726)"/></g><g clip-path="url(#bO)" transform="translate(-210.582 -34.131)"><path d="M0 0c2.53 3.892-1.4 5.87 0 0Z" style="fill:#2b2b2a;fill-opacity:1;fill-rule:evenodd;stroke:none" transform="translate(453.48 368.679)"/></g><g clip-path="url(#bP)" transform="translate(-210.582 -34.131)"><path d="M0 0c-.091-.871.102-.759.327-.992.706.179.922.716.936 1.382C.69.375.406.335 0 0" style="fill:#e31f25;fill-opacity:1;fill-rule:evenodd;stroke:none" transform="translate(408.448 343.526)"/></g><g clip-path="url(#bQ)" transform="translate(-210.582 -34.131)"><path d="M0 0c.725.007.678-.038.685.632C.114.622-.036.565 0 0" style="fill:#fff;fill-opacity:1;fill-rule:evenodd;stroke:none" transform="translate(395.7 362.96)"/></g><g clip-path="url(#bR)" transform="translate(-210.582 -34.131)"><path d="m0 0 .428.355c-.452.498-.131.33-.77.336C-.332.13-.527.382 0 0" style="fill:#fff;fill-opacity:1;fill-rule:evenodd;stroke:none" transform="translate(411.584 362.901)"/></g><g clip-path="url(#bS)" transform="translate(-210.582 -34.131)"><path d="M0 0c0-.402.231-.026.116 0C.114 0 0 .446 0 0" style="fill:#2b2b2a;fill-opacity:1;fill-rule:evenodd;stroke:none" transform="translate(406.34 341.15)"/></g><g clip-path="url(#bT)" transform="translate(-210.582 -34.131)"><path d="M0 0c.018-.017.055.076.056.052C.052.048-.019.017 0 0" style="fill:#2b2b2a;fill-opacity:1;fill-rule:evenodd;stroke:none" transform="translate(399.038 332.508)"/></g><g clip-path="url(#bU)" transform="translate(-210.582 -34.131)"><path d="M0 0c.018-.017.055.076.055.052C.051.048-.019.017 0 0" style="fill:#2b2b2a;fill-opacity:1;fill-rule:evenodd;stroke:none" transform="translate(470.381 309.863)"/></g><g clip-path="url(#bV)" transform="translate(-210.582 -34.131)"><path d="m0 0 .056.052C.052.048-.018.017 0 0" style="fill:#2b2b2a;fill-opacity:1;fill-rule:evenodd;stroke:none" transform="translate(397.727 289.985)"/></g><path d="M0 0h249.735v-1.913H0Z" style="fill:#2b2b2a;fill-opacity:1;fill-rule:evenodd;stroke:none" transform="translate(85.677 347.385)"/></g></svg>