<?xml version="1.0" encoding="utf-8"?>
<!-- Generator: Adobe Illustrator 19.2.1, SVG Export Plug-In . SVG Version: 6.00 Build 0)  -->
<svg version="1.1" id="Layer_1" xmlns="http://www.w3.org/2000/svg" xmlns:xlink="http://www.w3.org/1999/xlink" x="0px" y="0px"
	 viewBox="0 0 408.1 488.1" style="enable-background:new 0 0 408.1 488.1;" xml:space="preserve">
<style type="text/css">
	.st0{fill:#FDC406;}
	.st1{fill:#204798;}
	.st2{fill:none;stroke:#000000;stroke-width:8;}
	.st3{fill:#D21317;}
	.st4{fill:#FFFFFF;}
	.st5{fill:#363497;}
	.st6{fill:none;stroke:#000000;stroke-width:2;stroke-linecap:square;}
</style>
<g>
	<rect x="4" y="4.1" class="st0" width="400" height="222.6"/>
	<path class="st1" d="M4,226.7v57.4c0,110.5,89.5,200,200,200s200-89.5,200-200v-57.4H4z"/>
	<path class="st2" d="M4,4.1v280c0,110.5,89.5,200,200,200s200-89.5,200-200V4.1H4z"/>
</g>
<g>
	<path d="M258.8,268.9c0,0-14,5.4-21.3,7c-6.1,1.3-12.5,2.3-18.7,1.8c-7.7-0.6-14.9-4.4-22.5-5.7c-9.1-1.6-18.4-2.8-27.6-2.5
		c-7.6,0.2-15.4,0.7-22.5,3.2c-2.4,0.8-4.8,2.1-6.7,3.8c-1.3,1.2-2.4,2.7-2.9,4.4c-0.2,0.8,0,2.5,0,2.5s-4.1,0.6-6,1.3
		c-3.3,1.3-6.6,3-9.3,5.4c-4.2,3.8-7.8,8.5-10,13.8c-1.6,4-2.2,8.5-2,12.8c0.2,4.4,1.2,8.9,3.3,12.8c2.4,4.6,6.3,8.2,10.2,11.6
		c2.6,2.3,8.7,5.9,8.7,5.9s-1.2-5.3-1-8c0.4-3.7,1.1-7.6,3.4-10.5c1.7-2.1,4.2-4.1,6.9-4.1c3.7,0,6.5,3.7,9.5,5.9
		c3.8,2.8,7,6.3,10.7,9.2c3.1,2.4,6.1,5.3,9.7,6.8c1.8,0.8,3.9,0.6,5.8,1.1c2.5,0.6,5.2,1.2,7.5,2.3c2.2,1.1,4.3,2.5,6,4.3
		c1.4,1.5,3.2,5.3,3.2,5.3s-7.8-4.4-12-5.8c-10.2-3.3-20.9-5.6-31.6-5.8c-7-0.1-14,1.2-20.7,3.2c-5.4,1.6-10.1,5.3-15.4,7.1
		c-2.4,0.8-4.9,1.4-7.4,1.4c-1.9,0-4-0.3-5.7-1.2c-3.1-1.5-7.7-6.8-7.7-6.8s-0.7,3.3-0.7,4.9c0.1,2.5,0.4,5.1,1.4,7.4
		c1.2,2.8,2.9,5.6,5.4,7.3c2.7,1.8,6.2,2.4,9.5,2.6c3.7,0.2,7.5-0.7,11-1.9c6.7-2.3,12.1-7.4,18.5-10.1c3.7-1.6,7.6-2.8,11.6-3.5
		c3-0.6,6.2-0.7,9.3-0.6c2.7,0.1,5.4,0.5,8,1.1c4.7,1,13.9,4.3,13.9,4.3s-10.9-0.9-16.4-0.6c-5.3,0.3-10.9,0.3-15.9,2.3
		c-4.3,1.7-8.4,4.4-11.5,7.7c-1.6,1.7-2.9,3.9-3.5,6.2c-0.5,1.9-0.2,6-0.2,6s3.3-2.4,5.2-3.2c3.4-1.4,7.1-2.1,10.7-2.7
		c5-0.7,10-1.1,15.1-0.8c4,0.3,8.1,0.7,11.8,2.2c1.3,0.5,2.8,1,3.4,2.2c0.6,1.2,0,2.6-0.4,3.9c-1.3,4.4-3.8,8.5-6.3,12.3
		c-4.8,7.2-10.3,14.1-16.9,19.7c-4.8,4.1-10.2,7.9-16.2,10.1c-4,1.5-8.3,1.7-12.6,2c-2.9,0.2-8.8-0.4-8.8-0.4s4.3,4.5,6.7,6.5
		c3.3,2.7,6.9,5.3,10.7,7.3c2.9,1.5,5.9,2.9,9,3.4c5.6,1,11.5,0.7,17.1-0.4c4.5-0.8,8.8-2.8,13-4.7c2.1-1,6-3.4,6-3.4s-1,4.9-2.2,7
		c-2.2,4-5.3,7.6-9.1,10.2c-3.3,2.3-11.2,4.2-11.2,4.2s3.8,3.5,6.1,4.5c5.2,2,11,2.3,16.6,1.9c3.4-0.3,6.8-1.3,9.9-2.8
		c3.5-1.7,6.6-4.2,9.3-7c2.7-2.8,4.7-6.1,6.6-9.5c0.8-1.4,1.9-4.3,1.9-4.3s0.6,4.8,1.4,7c1.5,3.9,3.7,7.6,6.3,10.9
		c2.5,3.2,5.4,6.5,8.9,8.6c2.8,1.7,6.1,2.6,9.4,3.1c3.7,0.5,7.5,0.1,11.1-0.8c2.9-0.7,8.1-3.6,8.1-3.6s-3.2-3-4.5-4.8
		c-2.8-3.8-5.6-7.9-7-12.4c-0.9-2.8-1.1-8.7-1.1-8.7s4.1,5.5,6.8,7.5c3.5,2.7,7.5,4.8,11.7,6c4.6,1.3,9.5,1.5,14.3,1.4
		c5.2-0.1,10.4-0.8,15.3-2.2c4.6-1.3,9.1-3.2,13.2-5.6c4.5-2.6,12.5-9.4,12.5-9.4s-7.3,1.5-11,1.8c-3.4,0.3-6.9,0.6-10.2,0
		c-4.1-0.7-8.3-1.9-11.6-4.3c-3.2-2.3-5.8-5.6-7.4-9.2c-0.8-1.7-1-5.5-1-5.5s7.6-0.6,11.3-1.6c5.1-1.5,10.1-3.6,14.6-6.4
		c4.6-2.9,12.3-10.5,12.3-10.5s-6.2,0-9.3-0.4c-7-0.8-14.2-1.7-20.9-4c-3.3-1.1-6.5-2.5-9.2-4.7c-3-2.4-5.7-5.4-7.3-8.9
		c-1.5-3.4-1.8-11-1.8-11s5.8,1.1,8.8,1.1c4.2-0.1,8.6-0.5,12.6-2c3.9-1.4,7.5-3.7,10.7-6.4c3.3-2.8,5.8-6.4,8.2-10.1
		c1.8-2.8,4.6-8.9,4.6-8.9s-5.1,2.3-7.9,3.1c-2.9,0.8-6,1.5-9,1.4c-4-0.1-8.1-0.8-11.6-2.7c-3.9-2-7.2-5.3-10-8.8
		c-5.9-7.4-8.1-17.3-13.5-25.1c-1.2-1.7-4-4.7-4-4.7s5.8-0.2,8.5-1c2.2-0.6,4.5-1.4,6.4-2.8c3.9-2.9,6.9-7,9.5-11.2
		c2.5-4,4.2-8.6,5.8-13.1c1.8-5,4.3-15.4,4.3-15.4s-4.1,4.6-6.6,6.3c-4.6,3.3-9.8,5.8-15.2,7.9c-3.8,1.4-7.7,2.4-11.7,3.1
		c-2.5,0.4-7.5,0.4-7.5,0.4s4.7-2.8,6.6-4.7c2.3-2.4,4.3-5.2,5.6-8.2C258.4,271.9,258.7,268.9,258.8,268.9"/>
	<g>
		<path class="st3" d="M108.9,373.8c-0.7,0-1.5,0-2.1-0.1c-3.1-0.3-6-1.4-8.1-3.1c-1.9-1.5-3.5-3.7-4.8-6.8c-1-2.4-1.4-7-1.5-7.6
			l3.7-1.2c0.8,1.3,2.4,3.4,3.3,3.9c1.6,1,3.5,1.6,5.2,1.6c0.1,0,0.2,0,0.3,0c5.9-0.2,11.2-2.9,16.9-5.7c4.3-2.1,8.7-4.3,13.5-5.5
			c3.8-0.9,7.9-1.4,12.6-1.5c1.2,0,2.3,0,3.5,0c5.6,0,10.2,0.4,14.4,1.3c7.8,1.6,15.2,4.3,22.2,8c3.2,1.7,8.6,6.1,8.8,6.3l0.3,0.3
			l1.8,3.6l-3.6-0.3c-0.2,0-6.1-0.5-9-1.3c-2.2-0.5-4.2-1.4-6.2-2.2c-1.4-0.6-2.7-1.1-4-1.6l-0.4-0.1c-2.6-0.9-5.4-1.8-8.1-2.4
			c-3.6-0.8-7.9-1.6-12-1.6l-0.2,0c-5,0-9.2,0.6-12.8,1.8c-4.1,1.3-7.7,3.6-11.6,6.1c-3.9,2.5-7.9,5-12.4,6.5
			C114.9,373.2,111.8,373.8,108.9,373.8z"/>
		<path d="M151.4,349.6c4.7,0,9.4,0.3,14,1.3c7.5,1.6,14.9,4.2,21.7,7.8c3.1,1.6,8.4,6,8.4,6l0,0c0,0-5.9-0.5-8.7-1.2
			c-3.5-0.9-6.7-2.6-10-3.8c-2.9-1-5.7-1.9-8.7-2.5c-4.1-0.8-8.2-1.6-12.4-1.6c-0.1,0-0.1,0-0.2,0c-4.5,0-9.1,0.5-13.4,1.9
			c-8.6,2.8-15.4,9.8-24,12.6c-2.9,1-6.1,1.7-9.2,1.7c-0.6,0-1.3,0-1.9-0.1c-2.5-0.3-5.1-1.1-7.1-2.7c-1.9-1.5-3.2-3.8-4.2-6
			c-0.9-2.2-1.3-7-1.3-7s2.2,3.5,3.9,4.6c1.8,1.2,4.1,1.9,6.3,1.9c0.1,0,0.3,0,0.4,0c10.9-0.4,20.2-8.7,30.8-11.2
			c4-1,8.1-1.4,12.2-1.5C149.1,349.7,150.2,349.6,151.4,349.6 M151.4,345.6c-1.1,0-2.3,0-3.5,0c-4.8,0.1-9.1,0.6-13,1.6
			c-5,1.2-9.5,3.4-13.9,5.6c-5.5,2.7-10.7,5.3-16.1,5.5c-0.1,0-0.2,0-0.2,0c-1.4,0-2.9-0.5-4.2-1.3c-0.5-0.4-1.8-1.9-2.7-3.3
			l-7.4,2.5c0.1,0.9,0.5,5.5,1.6,8.2c1.4,3.4,3.2,5.9,5.4,7.6c3.1,2.4,6.7,3.2,9.1,3.5c0.8,0.1,1.6,0.1,2.4,0.1
			c3.1,0,6.4-0.6,10.4-1.9c4.8-1.5,8.9-4.2,12.9-6.7c3.7-2.4,7.3-4.6,11.1-5.9c3.4-1.1,7.4-1.7,12.2-1.7l0.2,0c3.9,0,8,0.8,11.6,1.5
			c2.6,0.5,5.2,1.4,7.9,2.3l0.4,0.1c1.3,0.4,2.5,1,3.9,1.5c2,0.9,4.1,1.7,6.4,2.3c3.1,0.8,8.7,1.3,9.4,1.3l7.7,0.6l-4-6.7l-0.4-0.6
			l-0.5-0.4c-0.6-0.5-5.8-4.7-9.1-6.5c-7.1-3.7-14.8-6.5-22.7-8.1C161.8,346.1,157.1,345.6,151.4,345.6L151.4,345.6z"/>
	</g>
	<g>
		<g>
			<g>
				<polygon class="st0" points="256.2,271.5 256.2,271.5 256.2,271.5 				"/>
			</g>
			<g>
				<path class="st0" d="M177.5,300c-0.7-0.3-1.6-0.3-2.1,0.1c-0.8,0.6-0.6,1.9-1.1,2.8c-0.4,0.8-0.8,1.6-1.5,2.1
					c-0.9,0.6-2,0.8-3,0.7c-0.6,0-1.9-0.5-1.9-0.5s1.6-0.7,2.1-1.3c0.6-0.6,1.1-1.4,1.3-2.2c0.1-0.9,0-1.9-0.5-2.5
					c-0.7-0.9-1.9-1.3-2.9-1.5c-0.3,0-0.5-0.1-0.8-0.1l0,0c-0.8,0-1.6,0.1-2.3,0.5c-0.9,0.4-1.7,1.1-2.1,1.9
					c-0.5,0.9-0.8,2.1-0.7,3.1c0.1,0.9,0.5,1.9,0.9,2.7c0.6,1,1.3,1.8,2.2,2.5c1.4,1.1,3.1,1.9,4.9,2.3c1.1,0.2,2.3,0.2,3.3-0.1
					c1-0.3,1.9-0.8,2.7-1.4c1.1-0.9,2.1-1.9,2.8-3.1c0.4-0.7,0.6-1.4,0.7-2.1c0-0.8-0.1-1.6-0.4-2.3
					C178.7,300.9,178.2,300.3,177.5,300z"/>
			</g>
			<g>
				<path class="st0" d="M250.3,274.7c-5.1,2.1-10.5,3.7-16,4.6c-4.9,0.8-14.8,0.9-14.8,0.9s5.3,1.8,7.9,2.9c1.7,0.7,3.2,2.1,5,2.5
					c2.3,0.6,4.7,0.5,7.1,0.2c1-0.1,1.9-0.4,2.8-0.8c3.2-1.6,6.1-3.8,8.7-6.4c2.1-2.1,5.3-7.2,5.3-7.2
					C256.1,271.6,252.3,273.8,250.3,274.7z"/>
			</g>
		</g>
		<g>
			<path class="st0" d="M293.6,444.6c-5.7-0.5-12-0.9-16.6-4.3c-3.7-2.8-5.4-7.8-7.1-12.1c-1.2-2.9-2.2-9.1-2.2-9.1s4.3,0.3,6.4,0.2
				c3-0.2,6.1-0.4,9.1-1.2c4.2-1.1,8.4-2.6,12-5c2.5-1.6,6.5-6.1,6.5-6.1s-8.3-0.7-12.3-1.7c-6.4-1.5-13.3-2.8-18.7-6.5
				c-3.6-2.5-6.5-6.1-8.5-10c-1.2-2.3-1.5-4.9-1.9-7.4c-0.8-4.1-1.6-12.4-1.6-12.4s2.7,2.1,4.4,2.7c2.8,1,5.8,1.1,8.7,1
				c3.5-0.1,7.1-0.5,10.4-1.8c4.2-1.5,8.2-3.8,11.5-6.8c2.9-2.6,6.9-9.3,6.9-9.3s-3,1.1-4.5,1.5c-2,0.4-4.1,0.8-6.1,0.7
				c-4.2-0.2-8.7-0.5-12.3-2.6c-4.9-2.7-8.1-7.7-11.5-12.1c-5.1-6.8-8.4-14.8-13.1-21.8c-1.9-2.9-3.3-6.4-6.2-8.4
				c-2-1.4-4.7-1.1-7-1.9c-2-0.7-5.8-2.6-5.8-2.6s5,1.6,7.6,1.9c4.7,0.4,9.4,0.1,14-0.9c2.6-0.6,5.1-1.7,7.3-3.1
				c3-1.8,5.7-4.2,8.1-6.9c2.4-2.7,4.1-6,5.7-9.2c1.6-3.1,2.8-6.4,4.2-9.6c0.6-1.5,1.9-4.4,1.9-4.4s-3.9,3.4-6,4.7
				c-4.6,2.9-9.4,5.5-14.6,7c-4.9,1.4-10.1,1.8-15.3,1.9c-3.2,0.1-6.4-0.9-9.6-0.8c-3.7,0.1-7.4,0.6-11,1.5
				c-1.6,0.4-4.7,1.8-4.7,1.8s2.5-2.5,4-3.3c1.2-0.6,4-1,4-1s-2.9-1.6-4.4-2.2c-6.2-2.6-12.6-5-19.1-6.8c-5.5-1.5-11.1-2.3-16.8-3.1
				c-6.5-0.9-13.1-1.7-19.6-1.7l0,0c-6.2,0-12.5,0.1-18.5,1.6c-2.2,0.5-4.3,1.4-6.2,2.6c-1.5,1-2.8,2.2-3.8,3.6
				c-0.8,1.3-1.5,2.7-1.6,4.3c-0.1,1.6,1.3,4.7,1.3,4.7s-2.1-3.1-3.8-3.7c-0.7-0.2-1.4,0-2.1,0.2c-5.6,2.2-11,5.8-14.7,10.5
				c-4,5.1-6.9,11.6-7.4,18.2c-0.3,4.2,1.2,8.4,3,12.2c1.8,3.8,4.7,7.2,7.6,10.2c1.4,1.4,4.8,3.7,4.8,3.7s-0.7-3.2-0.6-4.9
				c0.2-3,0.8-6.1,2.2-8.8c1.1-2,2.7-4,4.8-5.1c1.8-1,4-1.3,6.1-1.2c2,0.1,3.9,1,5.6,1.9c8.7,4.8,14.9,13.4,23.4,18.5
				c2.2,1.3,4.6,2.1,7,3c3.6,1.4,7.7,1.9,11,3.9c3.1,1.9,5.7,4.7,7.8,7.6c1.2,1.8,2.1,3.8,2.7,5.9c0.4,1.3,0.4,2.8,0.4,4.2
				c0,1.1-0.6,3.2-0.6,3.2s-5.6-1.7-8.5-2.2c-7.2-1.4-14.6-2.8-21.9-2.6c-6.1,0.2-12.4,0.7-18,3.1c-3.9,1.6-7.5,4.3-10.3,7.5
				c-1,1.1-2.1,3.8-2.1,3.8s3-1.7,4.6-2.2c4.8-1.4,9.8-1.6,14.8-1.8c8.7-0.2,17.5,0.5,26.2,1.7c4.3,0.6,8.5,2.3,12.9,2.8
				c1.9,0.2,3.9,0.5,5.8,0c1.3-0.3,2.7-0.7,3.5-1.8c1.4-1.7,1.6-4.1,1.7-6.3c0.1-3.1-0.8-6.2-1.9-9.1c-2.2-5.9-5.4-11.3-9.1-16.4
				c-5-7-12.3-12.2-17.5-19.2c-1.4-1.8-2.9-3.7-3.6-5.9c-0.5-1.5-0.6-4.6-0.6-4.6s-2.6-0.1-3.8-0.4c-1.5-0.4-3.1-0.8-4.4-1.7
				c-1.3-0.8-3.2-3.2-3.2-3.2s4,2.5,6.2,3.3c0.9,0.3,1.9,0.5,2.9,0.6c0.8,0,1.7,0.2,2.4-0.2c0.3-0.2,0.7-0.6,0.6-0.9
				c0-0.4-0.5-0.8-0.8-0.9c-0.8-0.4-1.8,0.2-2.7,0.1c-1.8-0.2-3.7-0.6-5.3-1.5c-1.7-0.9-3.2-2.2-4.3-3.8c-0.9-1.4,0-4.2-1.6-4.8
				c-0.7-0.3-1.6,0.5-1.9,1.2c-0.3,0.6,0.1,1.3,0.4,1.9c0.3,0.7,1.1,1.2,1.3,1.9c0.2,0.6,0,2,0,2s-0.6-1.5-1.1-2.1
				c-0.5-0.5-1.4-0.6-1.8-1.2c-0.5-1,0-3.4,0-3.4s-2.8,0.3-4.1-0.1c-2.1-0.6-4.3-1.6-5.8-3.2c-1.9-2-3.7-7.4-3.7-7.4
				s2.8,4.1,4.8,5.3c1.4,0.8,3.1,1.1,4.6,1c5-0.2,9.4-4.1,14.4-4.4c4.9-0.3,9.6,2.4,14.5,2.6c2.7,0.1,5.3-0.5,8-0.9
				c2.3-0.4,6.9-1.6,6.9-1.6s-4.7,2.8-7.1,3.9c-1.2,0.5-2.9,0.3-3.8,1.3c-1.2,1.3-0.2,2.8-0.8,4.1c-0.7,1.7-3,4.6-3,4.6
				s1.4-3.8,1.7-5.7c0.1-0.7,0.5-1.7,0-2.2c-0.5-0.5-1.7-0.4-2.2,0.1c-1,1,0.3,2.8,0,4.1c-0.3,1.4-0.9,2.7-1.7,3.8
				c-0.9,1.4-3.5,3.5-3.5,3.5s0.9,5.2,1.9,7.6c1.5,3.2,3.8,5.9,6,8.7c3.9,4.9,8.9,8.8,12.6,13.8c2.9,3.9,5.1,8.3,7.2,12.7
				c1.5,3.1,3,6.2,4,9.4c0.6,2.2,1.1,4.5,1.1,6.9c0,2.7,0,5.6-1.3,8c-0.5,1-1.5,1.8-2.5,2.3c-1.3,0.7-2.9,1.1-4.4,1.2
				c-2.6,0.2-5.3-0.2-7.9-0.7c-3.5-0.7-10.3-3.1-10.3-3.1s-0.7,10-2.1,14.7c-1.2,4.3-3,8.4-5.5,12.1c-4.6,6.9-10.3,13.2-16.8,18.4
				c-3.8,3.1-8.2,5.6-12.8,7.3c-4.4,1.6-9.1,2.6-13.8,2.6c-2.3,0-6.9-1.2-6.9-1.2s4.9,4.5,7.8,6c6.1,3.1,12.9,5.7,19.8,5.9
				c6,0.2,11.9-2,17.5-4.2c5.7-2.2,16-9.1,16-9.1s-1.2,7.7-2.8,11.3c-2.2,5-4.9,10-9,13.7c-2.8,2.5-9.9,5.1-9.9,5.1s4.9,1.5,7.5,1.8
				c3.5,0.4,7.1,0.8,10.6,0c3.9-0.9,7.6-2.6,10.7-5c4.6-3.4,8.3-8.1,11.5-12.9c2.2-3.3,5.3-10.6,5.3-10.6s1.5,8.5,3.1,12.4
				c2.3,5.3,5.2,10.5,9.3,14.7c2.2,2.3,5,4.2,8,5.5c3.3,1.4,7,1.8,10.6,1.9c1.8,0.1,3.6-0.1,5.4-0.4c1.7-0.3,5-1.6,5-1.6
				s-2.7-1.3-3.8-2.3c-2.8-2.6-5.1-5.9-6.6-9.4c-1.4-3.5-1.9-7.3-2-11.1c-0.1-3.2,1.1-9.5,1.1-9.5s3.5,5.1,5.8,7.2
				c4.1,3.8,8.8,7.3,14,9.4c4.2,1.7,8.8,2.3,13.3,2.3c4.4,0.1,8.8-0.7,13-1.9c3.8-1.1,7.5-2.7,11-4.7c1.7-1,4.7-3.4,4.7-3.4
				S296.2,444.8,293.6,444.6z M144.5,301.7c1.5,2.1,3.8,6.6,3.8,6.6s-3.5-3.9-5.7-5.2c-1.1-0.7-2.8-0.5-3.8-1.4
				c-0.6-0.6-1.2-1.5-1.1-2.3c0.1-0.7,0.7-1.4,1.4-1.6c0.1,0,0.3,0,0.4,0v0c0.9,0,1.8,0.7,2.6,1.3
				C143,299.7,143.8,300.7,144.5,301.7z M184.4,415.3c-0.7,3.5-4.2,5.9-6.9,8.2c-4.7,4.1-10.2,7.6-16,10c-4.5,1.8-9.3,2.8-14.1,3.1
				c-2.5,0.2-7.4-0.7-7.4-0.7s4.3,0,6.3-0.4c4.6-0.9,9.1-2.3,13.2-4.5c5.2-2.8,9.6-6.9,14.1-10.8c2.9-2.5,4.6-6.9,8.2-7.8
				c0.1,0,0.3-0.1,0.4,0l0,0c0.5,0,0.9,0.2,1.2,0.5C184.2,413.5,184.6,414.5,184.4,415.3z M265.1,404.8c4.4,2.6,9.7,3.9,14.8,4.4
				c4.5,0.4,13.4-1.2,13.4-1.2s-5.7,2.8-8.8,3.6c-3.1,0.8-6.4,1.2-9.7,0.9c-4.2-0.3-8.8-0.9-12.4-3.2c-3.1-2-5.8-5-7-8.5
				c-0.3-0.8-0.3-1.7,0.1-2.4c0.3-0.6,1-1.2,1.7-1.2l0,0c0.1,0,0.2,0,0.3,0C261.1,397.6,262,403,265.1,404.8z M255.6,353.2
				c0.5-0.4,1.2-0.5,1.9-0.5c0.4,0,0.8,0.1,1.2,0.2c3.1,0.9,4.8,4.4,7.6,6c2,1.1,4.2,1.9,6.5,2.5c2.5,0.6,5.1,0.8,7.7,0.6
				c3.6-0.2,10.6-2.1,10.6-2.1s-4.1,3.4-6.5,4.4c-2.8,1.1-5.9,1.5-8.8,1.4c-5-0.2-10.3-0.9-14.7-3.2c-2.7-1.4-6.2-3.3-6.8-6.4
				C254.1,355,254.8,353.8,255.6,353.2z M222.4,294.7c1.4-1.2,3.3-1.8,5.1-2.2c3.8-1,7.7-0.8,11.6-1c5.5-0.3,16.6-0.4,16.6-0.4l0,0
				c0,0-8.8,1.8-13.3,2.6c-3.1,0.5-6.4,0.3-9.4,1.4c-0.8,0.3-2.2,1.3-2.2,1.3s1.4,1,2.2,1.2c2.9,0.9,6.1,0.7,9.1,0.7
				c3.6-0.1,10.8-1.2,10.8-1.2s-4.7,2.5-7.2,3.1c-3.1,0.7-6.3,0.8-9.4,0.6c-2.6-0.2-5-1.5-7.6-1.6c-0.9,0-1.9-0.1-2.6,0.3
				c-0.4,0.3-0.8,0.7-0.9,1.2c0,0.9,1.4,2.4,1.4,2.4s-3.3-0.8-4.5-2c-0.9-0.8-1.6-2.1-1.5-3.3C220.7,296.6,221.5,295.5,222.4,294.7z
				 M198.9,442.5c-2.5,4.1-5.6,8-9.4,10.9c-3.9,3-13.3,6.6-13.3,6.6s4-2.4,5.8-3.9c3.7-3.2,7.2-6.8,9.8-10.9c2.6-4,2.3-9.8,5.7-13.1
				c0.7-0.6,1.6-1.3,2.5-1.4c0.1,0,0.3,0,0.4,0c0.1,0,0.3,0.1,0.4,0.1c1,0.4,1.3,1.9,1.3,3C202.3,437,200.5,439.9,198.9,442.5z
				 M212.4,379.8c-0.7,1.8-1.9,3.4-3.4,4.6c-0.9,0.8-2.1,1.3-3.2,1.5c-1.3,0.3-2.7,0.2-4-0.2c-1.1-0.3-3-1.7-3-1.7s2.2,0.5,3.3,0.5
				c1.4,0,3-0.1,4.2-0.8c1.9-1.1,3.2-3,4.1-5c0.9-1.9,1-4.2,1-6.3c0-3.4-0.7-6.8-1.7-10.1c-0.8-2.6-3.5-7.5-3.5-7.5l0,0
				c0,0,3.5,4,4.6,6.4c1.6,3.6,2.5,7.5,2.6,11.5C213.6,375,213.3,377.5,212.4,379.8z M241.7,465.8c0,0-9.4-4.6-13.2-8.1
				c-2.5-2.4-4.4-5.3-5.9-8.5c-1.4-3-2.1-6.3-2.5-9.6c-0.4-2.7-0.7-5.5-0.1-8.1c0.2-0.9,0.6-1.9,1.2-2.6c0.6-0.6,1.4-1.2,2.3-1.2
				c1.3,0,2.6,0.9,3.3,2c3.1,5.3-0.9,12.4,0.6,18.4c0.8,3.1,2.7,5.7,4.4,8.4c1,1.6,2,3.2,3.3,4.5C237.1,463,241.7,465.8,241.7,465.8
				z M247.8,344.9c-0.2,0.6-1,1.1-1.7,1.1c-1.5,0.1-2.8-0.5-4.1-1.3c0.3,0.5,0.7,1.1,0.9,1.7c1.2,2.6,2.1,5.4,2.1,8.2
				c0,1.2,0,2.6-0.8,3.4c-0.6,0.6-1.7,0.7-2.5,0.6c-1.6-0.2-3-1-4.2-2c0.9,2.4,1.5,4.9,1.6,7.5c0.1,2.2,0.1,4.7-1.1,6.5
				c-0.8,1.2-2.1,2.1-3.5,2.3c-1.1,0.2-2.2-0.2-3.3-0.7c0.5,1,0.8,2.1,0.7,3.1c-0.2,1.4-1.1,2.9-2.3,3.7c-2,1.3-4.7,1-7,0.9
				c-2.2-0.1-6.3-1.5-6.3-1.5s3.2,0.3,4.8,0.1c1.7-0.2,3.5-0.4,4.8-1.5c1.4-1.2,2.1-3.2,2.2-5.1c0.1-2-2-5.6-2-5.6s3.4,2.9,5.5,3
				c1.2,0,2.5-0.6,3.2-1.5c1.3-1.8,1.1-4.3,1.1-6.5c-0.1-3.4-2.1-10.1-2.1-10.1s3,3.5,5,3.2c1.2-0.2,2-1.6,2.3-2.7
				c0.6-3.2-1.8-6.2-3.2-9.2c-0.6-1.3-1.6-3.2-2.6-4.8c-1-1.6-1.7-2.9-1.7-2.9s4.6,4.6,7.5,5.5c0.8,0.2,1.9,0.4,2.5-0.1
				c0.5-0.4,0.4-1.2,0.3-1.8c-0.5-2.8-2.7-5-4.2-7.4c-1.6-2.6-5.1-7.7-5.1-7.7l0,0c0,0,4.1,3.9,5.9,6.1c2,2.4,4.1,4.8,5.4,7.6
				C247,339.3,248.8,342.3,247.8,344.9z M277.1,446.4c-5.3-0.3-10.9-0.9-15.5-3.5c-4.9-2.8-8.8-7.3-11.5-12.2
				c-1-1.8-1.6-3.9-1.5-5.9c0.1-1.1,0.4-2.5,1.3-3.2c0.7-0.5,1.5-0.8,2.4-0.8l0,0c0.5,0,1,0.1,1.5,0.3c1.6,0.6,2.3,2.5,3.2,4
				c2.3,3.7,2.6,8.6,5.4,11.9c2.2,2.5,5.3,4.2,8.3,5.5c4.4,1.8,14,3,14,3S279.6,446.5,277.1,446.4z"/>
		</g>
	</g>
</g>
<g>
	<path d="M12.2,155.9c1-2.9,4.1-4.4,7-3.4c1,0.4,1.9,1,2.6,1.9c0.5-0.7,1-1.4,1.6-2c0.9-1,1.9-1.9,2.9-2.8c-0.3-0.1-0.6-0.1-0.8-0.2
		c-2.9-1-4.4-4.1-3.4-7c1-2.9,4.1-4.4,7-3.4c2.8,1,4.3,4,3.4,6.8c1.1-0.5,2.1-0.9,3.2-1.2c1-0.3,2-0.6,3.1-0.8
		c-1.7-1.5-2.3-3.8-1.6-5.9c1-2.9,4.1-4.4,7-3.4c2.9,1,4.4,4.1,3.4,7c-0.2,0.7-0.6,1.3-1.1,1.9c1.2,0.1,2.5,0.2,3.7,0.4
		c1.1,0.2,2.2,0.5,3.3,0.8c-0.6-1.3-0.6-2.7-0.2-4.1c1-2.9,4.1-4.4,7-3.4c2.9,1,4.4,4.1,3.4,7c-0.5,1.5-1.7,2.7-3.1,3.3
		c1.3,0.7,2.5,1.5,3.7,2.3c0.8,0.6,1.6,1.2,2.3,1.9c0-0.4,0.1-0.8,0.3-1.2c1-2.9,4.1-4.4,7-3.4c2.9,1,4.4,4.1,3.4,7
		c-0.8,2.3-3.1,3.8-5.5,3.7c0.3,0.5,0.6,1,0.9,1.6c0.7,1.4,1.1,3,1.3,4.6c1.5-1.6,3.8-2.1,5.8-1.4c2.9,1,4.4,4.1,3.4,7
		c-1,2.9-4.1,4.4-7,3.4c-1-0.3-1.8-0.9-2.5-1.7c-0.4,1.7-0.8,3.3-1.7,4.7c-1.6,2.7-3.6,5.3-6.3,7c-3.8,2.4-8.5,3.5-13,3.6
		c-3.1,0.1-7.3-0.9-10.2-2c-2.5-1-3.9-1.9-5.7-4c-2-2.4-3.3-5.5-3.4-8.6c-0.1-3,1.1-6.1,2.7-8.7c1.2-1.9,2.8-3.5,4.8-4.5
		c2.5-1.2,5.5-1.4,8.3-1.3c2.3,0.1,4.6,0.9,6.7,1.9c1.2,0.6,3.1,2.2,3.1,2.2s-1.3-2-2.2-2.9c-1.1-1.1-2.4-2-3.8-2.6
		c-2.2-0.9-4.7-1.5-7.2-1.3c-3.3,0.2-6.7,1.2-9.5,3c-2,1.4-3.6,3.5-4.7,5.6c-1.4,2.9-2.4,6.2-2.2,9.4c0.2,3.5,1.4,7.1,3.4,10
		c1.7,2.5,4.2,4.4,6.9,5.7c3.1,1.5,6.8,2.2,10.3,2.3c3,0.1,5.9-0.5,8.8-1.4c3-1,5.8-2.6,8.5-4.2c2.9-1.7,5.4-4.1,8.4-5.5
		c2-1,4.2-1.9,6.5-2c1.5-0.1,3,0.4,4.4,0.8c3,0.9,7.7,3.1,10.4,4.5c1.2-1.2,2.4-1.7,3.3-1.4c1.2,0.4,1.9,2.2,1.8,4.9
		c2.7-4.4,6-6.6,8.5-5.7c2.6,0.9,3.8,5.2,3,10.6c1.7-2.5,3.5-3.8,4.9-3.3c1,0.3,1.6,1.5,1.8,3.3c0.7,0,1.4,0.1,2.1,0.4L396.9,288
		c3.6,1.3,5.4,5.1,4.2,8.7l-0.4,1.1c-1.3,3.6-5.1,5.4-8.7,4.2l-274.5-96.2c-0.7-0.2-1.3-0.6-1.9-1c-1.3,1.3-2.5,1.8-3.5,1.5
		c-1.4-0.5-2-2.6-1.8-5.7c-2.7,4.8-6.3,7.3-8.9,6.4c-2.5-0.9-3.7-4.7-3.1-9.8c-1.6,2.1-3.2,3.1-4.5,2.7c-1.4-0.5-2.1-2.8-1.7-6
		c-0.7-0.5-1.5-0.9-2.1-1.2c-1.8-0.9-3.7-2-5.7-2.2c-1.5-0.2-3.1,0.1-4.6,0.7c-0.6,0.2-1.1,0.6-1.6,1c0.1,0,0.2,0.1,0.3,0.1
		c2.9,1,4.4,4.1,3.4,7c-1,2.9-4.1,4.4-7,3.4c-2.3-0.8-3.8-3.1-3.7-5.6c-0.8,0.5-1.7,1-2.6,1.3c-1.2,0.5-2.5,1-3.8,1.4
		c2.1,1.4,3,4,2.2,6.4c-1,2.9-4.1,4.4-7,3.4c-2.9-1-4.4-4.1-3.4-7c0.1-0.3,0.3-0.7,0.4-1c-0.7,0.1-1.4,0.2-2.2,0.2
		c-1.5,0.1-3.1,0.2-4.6,0.2c1.1,1.5,1.4,3.4,0.8,5.1c-1,2.9-4.1,4.4-7,3.4c-2.9-1-4.4-4.1-3.4-7c0.3-0.9,0.8-1.6,1.5-2.3
		c-1.3-0.2-2.5-0.5-3.7-0.9c-1.2-0.4-2.3-0.8-3.5-1.3c0.2,0.9,0.1,1.9-0.2,2.8c-1,2.9-4.1,4.4-7,3.4c-2.9-1-4.4-4.1-3.4-7
		c0.6-1.6,1.8-2.8,3.4-3.4c-0.6-0.5-1.3-1-1.8-1.5c-0.9-0.9-1.9-1.8-2.7-2.7c0,0.2-0.1,0.4-0.2,0.7c-1,2.9-4.1,4.4-7,3.4
		c-2.9-1-4.4-4.1-3.4-7c0.9-2.5,3.4-4,6-3.6c-0.4-0.8-0.7-1.6-1-2.5c-0.4-1.2-0.7-2.5-0.9-3.8c-1.5,1.5-3.7,2-5.7,1.3
		c-2.9-1-4.4-4.1-3.4-7c1-2.9,4.1-4.4,7-3.4c0.7,0.3,1.4,0.7,1.9,1.2c0.1-1.4,0.4-2.8,0.6-4.1c0.2-0.8,0.4-1.6,0.6-2.5
		c-0.7,0.1-1.5,0-2.2-0.3C12.7,161.9,11.2,158.8,12.2,155.9"/>
	<path class="st0" d="M14.1,156.3c0.7-2.1,3-3.1,5-2.4c2.1,0.7,3.1,3,2.4,5c-0.7,2.1-3,3.1-5,2.4C14.5,160.6,13.4,158.4,14.1,156.3
		 M9.4,172.1c0.7-2.1,3-3.1,5-2.4c2.1,0.7,3.1,3,2.4,5c-0.7,2.1-3,3.1-5,2.4C9.8,176.4,8.7,174.2,9.4,172.1 M23.9,143.7
		c0.7-2.1,3-3.1,5-2.4c2.1,0.7,3.1,3,2.4,5c-0.7,2.1-3,3.1-5,2.4C24.3,148,23.2,145.8,23.9,143.7 M21.2,162.4
		c1.2-3.4,3.2-6.6,5.7-9.2c2.4-2.6,5.6-4.4,8.9-5.7c2.9-1.2,6-1.9,9.1-1.8c4.5,0.1,9,1.2,13.1,3.1c3.3,1.5,6.5,3.6,8.9,6.3
		c2.1,2.3,3.7,5.1,4.5,8.1c0.7,2.7,1,5.7,0.3,8.4c-0.8,2.7-1.9,5-3.6,7c-1.5,1.8-3.4,3.4-5.5,4.3c-3.4,1.4-7.3,1.6-10.9,1.2
		c-3.4-0.3-7.1-1-9.8-3.2c-2.6-2.2-4.7-5.7-4.9-9.1c-0.1-2.4,0.6-4.7,1.8-6.7c1.2-1.9,2.9-3.7,5-4.6c2.9-1.2,6.3-1.2,9.3-0.4
		c1.9,0.5,3.7,1.5,5,3c1.3,1.5,2.3,3.6,2.1,5.6c-0.1,1.8-1.2,3.4-2.5,4.6c-1,0.9-2.3,1.4-3.6,1.5c-1.3,0.2-2.9,0.1-4-0.7
		c-0.4-0.3-0.7-1-0.6-1.5c0-0.6,0.5-1.1,1-1.6c0.6-0.6,1.6-0.8,2.1-1.6c0.3-0.6,0.6-1.4,0.3-2.1c-0.4-0.9-1.5-1.5-2.4-1.7
		c-2-0.3-4.4,0.6-5.8,2.1c-1.2,1.3-1.9,3.3-1.5,5c0.3,1.3,1.7,2.3,2.9,2.9c2.7,1.4,6,2.1,9,1.6c2.3-0.3,4.6-1.4,6.1-3.1
		c1.6-1.8,2.3-4.3,2.4-6.7c0.1-2.7-0.7-5.4-2.2-7.7c-1.7-2.6-4.2-4.7-7-6c-2.8-1.3-6-1.7-9-1.4c-3.8,0.4-7.6,1.7-10.7,3.9
		c-2.8,2-5,5-6.4,8.1c-1.3,2.7-1.9,5.7-1.9,8.7c0,2.8,0.6,5.7,2,8.1c1.7,2.9,4.5,5.2,7.4,7c4,2.5,8.6,4.5,13.3,4.9
		c4.5,0.4,9-0.8,13.2-2.3c3.3-1.1,6.3-3.2,9.3-4.9c2.3-1.4,4.4-3.2,6.8-4.4c1.6-0.8,3.3-1.9,5.2-1.9c2.5,0,4.8,1.5,7.2,2.4
		c1.8,0.7,5.3,2.1,5.3,2.1s-1.6,2.4-2.1,3.8c-0.6,1.5-1.1,4.7-1.1,4.7s-4.5-2.6-6.9-3.3c-1.3-0.4-2.7-0.8-4-0.5
		c-1.7,0.3-3,1.7-4.5,2.6c-2.6,1.6-5,3.5-7.8,4.8c-2.5,1.1-5.2,2-7.9,2.5c-5.1,1-10.4,1.8-15.5,1.1c-4.6-0.6-9.1-2.5-13.2-4.7
		c-2.7-1.5-5.3-3.3-7.4-5.5c-2.3-2.5-4.6-5.3-5.5-8.6c-1.5-5.5-0.8-11.7,0.8-17.2C20.8,163.4,21,162.9,21.2,162.4 M14.2,188.2
		c0.7-2.1,3-3.1,5-2.4c2.1,0.7,3.1,3,2.4,5s-3,3.1-5,2.4C14.5,192.5,13.5,190.2,14.2,188.2 M38.8,138.9c0.7-2.1,3-3.1,5-2.4
		c2.1,0.7,3.1,3,2.4,5c-0.7,2.1-3,3.1-5,2.4C39.2,143.2,38.1,141,38.8,138.9 M25.8,198.5c0.7-2.1,3-3.1,5-2.4c2.1,0.7,3.1,3,2.4,5
		c-0.7,2.1-3,3.1-5,2.4C26.2,202.8,25.1,200.5,25.8,198.5 M54.9,141.3c0.7-2.1,3-3.1,5-2.4c2.1,0.7,3.1,3,2.4,5
		c-0.7,2.1-3,3.1-5,2.4C55.2,145.6,54.2,143.4,54.9,141.3 M42.1,203.8c0.7-2.1,3-3.1,5-2.4c2.1,0.7,3.1,3,2.4,5
		c-0.7,2.1-3,3.1-5,2.4C42.4,208.1,41.4,205.8,42.1,203.8 M68.5,151.3c0.7-2.1,3-3.1,5-2.4c2.1,0.7,3.1,3,2.4,5
		c-0.7,2.1-3,3.1-5,2.4C68.9,155.6,67.8,153.4,68.5,151.3 M58.4,203.1c0.7-2.1,3-3.1,5-2.4c2.1,0.7,3.1,3,2.4,5
		c-0.7,2.1-3,3.1-5,2.4C58.8,207.4,57.7,205.2,58.4,203.1 M73.8,166.5c0.7-2.1,3-3.1,5-2.4c2.1,0.7,3.1,3,2.4,5
		c-0.7,2.1-3,3.1-5,2.4C74.2,170.8,73.1,168.6,73.8,166.5 M73,196.8c0.7-2.1,3-3.1,5-2.4c2.1,0.7,3.1,3,2.4,5c-0.7,2.1-3,3.1-5,2.4
		C73.4,201.1,72.3,198.8,73,196.8 M94.5,189.9c1.4-3.9,3.6-6.8,4.9-6.3c1.3,0.5,1.3,4-0.1,8c-1.4,3.9-3.6,6.8-4.9,6.3
		C93.1,197.5,93.1,193.9,94.5,189.9 M101.8,192.5c2.1-5.9,5.6-10,7.9-9.1c2.3,0.8,2.5,6.2,0.5,12.1c-2.1,5.9-5.6,10-7.9,9.1
		C100,203.8,99.7,198.3,101.8,192.5 M112.5,196.2c1.4-4.1,3.7-7,5.1-6.5c1.4,0.5,1.4,4.2-0.1,8.3c-1.4,4.1-3.7,7-5.1,6.5
		C111,204,111.1,200.3,112.5,196.2 M120.8,193.5c0.3,0.1,0.6,0.2,1,0.3l272.7,95.5c3.6,1.3,5.7,4.5,4.7,7.4s-4.7,4.1-8.2,2.9
		L118.2,204c-0.3-0.1-0.6-0.2-0.9-0.4c0.9-1.2,1.8-2.9,2.5-4.8C120.4,196.9,120.7,195,120.8,193.5"/>
	<path class="st3" d="M42.7,136.3c-1.7-0.1-3.3,1-3.9,2.6c-0.7,2.1,0.4,4.3,2.4,5c2.1,0.7,4.3-0.4,5-2.4c0.7-2.1-0.4-4.3-2.4-5
		C43.4,136.4,43.1,136.3,42.7,136.3 M58.7,138.7c-1.7-0.1-3.3,1-3.9,2.6c-0.7,2.1,0.4,4.3,2.4,5c2.1,0.7,4.3-0.4,5-2.4
		c0.7-2.1-0.4-4.3-2.4-5C59.5,138.8,59.1,138.7,58.7,138.7 M27.8,141.1c-1.7-0.1-3.3,1-3.9,2.6c-0.7,2.1,0.4,4.3,2.4,5
		c2.1,0.7,4.3-0.4,5-2.4c0.7-2.1-0.4-4.3-2.4-5C28.6,141.2,28.2,141.1,27.8,141.1 M44.9,145.7c-3.1-0.1-6.2,0.7-9.1,1.8
		c-3.3,1.3-6.5,3.2-8.9,5.7c-2.5,2.6-4.5,5.8-5.7,9.2c-0.2,0.5-0.3,1-0.5,1.5c-1.6,5.5-2.2,11.6-0.8,17.2c0.9,3.3,3.1,6.1,5.4,8.6
		c2.1,2.3,4.7,4.1,7.4,5.5c4.1,2.2,8.6,4.1,13.2,4.7c5.1,0.7,10.4-0.1,15.5-1.1c2.7-0.5,5.4-1.3,7.9-2.5c2.8-1.3,5.2-3.2,7.8-4.8
		c1.5-0.9,2.8-2.3,4.5-2.6c1.3-0.3,2.7,0.1,4,0.5c2.4,0.7,6.9,3.3,6.9,3.3s0.5-3.2,1.1-4.7c0.5-1.3,2.1-3.8,2.1-3.8
		s-3.5-1.5-5.3-2.1c-2.4-0.9-4.7-2.4-7.2-2.4c-1.8,0-3.5,1.1-5.2,1.9c-2.4,1.2-4.5,3-6.8,4.4c-3,1.8-6,3.8-9.3,4.9
		c-4.2,1.4-8.8,2.7-13.2,2.3c-4.7-0.4-9.3-2.4-13.3-4.9c-2.9-1.8-5.7-4-7.4-7c-1.4-2.4-2-5.3-2-8.1c0-3,0.6-6,1.9-8.7
		c1.5-3.1,3.6-6.1,6.4-8.1c3.1-2.2,6.9-3.5,10.7-3.9c3-0.3,6.2,0.1,9,1.4c2.8,1.3,5.3,3.4,7,6c1.4,2.2,2.3,5,2.2,7.7
		c-0.1,2.4-0.8,4.9-2.4,6.7c-1.5,1.7-3.9,2.8-6.1,3.1c-3,0.4-6.3-0.2-9-1.6c-1.2-0.6-2.6-1.6-2.9-2.9c-0.4-1.7,0.3-3.7,1.5-5
		c1.4-1.5,3.8-2.3,5.8-2.1c1,0.1,2,0.8,2.4,1.6c0.3,0.6,0.1,1.5-0.3,2.1c-0.4,0.8-1.5,0.9-2.1,1.6c-0.4,0.5-0.9,1-1,1.6
		c0,0.5,0.2,1.2,0.6,1.5c1.1,0.8,2.7,0.9,4,0.7c1.3-0.1,2.6-0.6,3.6-1.5c1.3-1.2,2.4-2.9,2.5-4.6c0.1-2-0.9-4.1-2.1-5.6
		c-1.2-1.5-3.1-2.5-5-3c-3-0.8-6.5-0.8-9.3,0.4c-2.1,0.9-3.8,2.7-5,4.6c-1.2,2-1.9,4.4-1.8,6.7c0.2,3.4,2.2,6.9,4.9,9.1
		c2.6,2.2,6.4,2.8,9.8,3.2c3.7,0.4,7.5,0.1,10.9-1.2c2.2-0.9,4-2.5,5.5-4.3c1.7-2,2.8-4.3,3.6-7c0.8-2.7,0.5-5.7-0.3-8.4
		c-0.8-3-2.4-5.8-4.5-8.1c-2.4-2.7-5.6-4.8-8.9-6.3C53.9,146.9,49.4,145.8,44.9,145.7 M72.4,148.7c-1.7-0.1-3.3,1-3.9,2.6
		c-0.7,2.1,0.4,4.3,2.4,5c2.1,0.7,4.3-0.4,5-2.4c0.7-2.1-0.4-4.3-2.4-5C73.1,148.8,72.7,148.7,72.4,148.7L72.4,148.7z M18,153.7
		c-1.7-0.1-3.3,1-3.9,2.6c-0.7,2.1,0.4,4.3,2.4,5c2.1,0.7,4.3-0.4,5-2.4c0.7-2.1-0.4-4.3-2.4-5C18.7,153.8,18.4,153.7,18,153.7
		 M77.7,163.9c-1.7-0.1-3.3,1-3.9,2.6c-0.7,2.1,0.4,4.3,2.4,5c2.1,0.7,4.3-0.4,5-2.4c0.7-2.1-0.4-4.3-2.4-5
		C78.4,163.9,78.1,163.9,77.7,163.9 M13.3,169.5c-1.7-0.1-3.3,1-3.9,2.6c-0.7,2.1,0.4,4.3,2.4,5c2.1,0.7,4.3-0.4,5-2.4
		s-0.4-4.3-2.4-5C14,169.6,13.6,169.5,13.3,169.5 M109.3,183.2c-2.3-0.2-5.6,3.7-7.5,9.2c-2.1,5.9-1.8,11.3,0.5,12.1
		c2.3,0.8,5.9-3.3,7.9-9.1c2.1-5.9,1.8-11.3-0.5-12.1C109.6,183.3,109.4,183.2,109.3,183.2 M99.2,183.5c-1.3-0.1-3.3,2.7-4.6,6.4
		c-1.4,3.9-1.4,7.5-0.1,8c1.3,0.5,3.5-2.4,4.9-6.3c1.4-3.9,1.4-7.5,0.1-8C99.3,183.6,99.2,183.6,99.2,183.5 M18,185.6
		c-1.7-0.1-3.3,1-3.9,2.6c-0.7,2.1,0.4,4.3,2.4,5c2.1,0.7,4.3-0.4,5-2.4c0.7-2.1-0.4-4.3-2.4-5C18.8,185.6,18.4,185.6,18,185.6
		 M117.3,189.7c-1.4-0.1-3.5,2.7-4.8,6.6c-1.4,4.1-1.5,7.8-0.1,8.3c1.4,0.5,3.7-2.4,5.1-6.5c1.4-4.1,1.5-7.8,0.1-8.3
		C117.5,189.7,117.4,189.7,117.3,189.7 M120.8,193.4c0,1.5-0.4,3.4-1.1,5.3c-0.7,1.9-1.5,3.6-2.5,4.8c0.3,0.1,0.6,0.3,0.9,0.4
		l67.6,23.7h32.8l-96.8-33.9C121.4,193.6,121.1,193.5,120.8,193.4 M76.9,194.1c-1.7-0.1-3.3,1-3.9,2.6c-0.7,2.1,0.4,4.3,2.4,5
		c2.1,0.7,4.3-0.4,5-2.4c0.7-2.1-0.4-4.3-2.4-5C77.7,194.2,77.3,194.1,76.9,194.1 M29.7,195.8c-1.7-0.1-3.3,1-3.9,2.6
		c-0.7,2.1,0.4,4.3,2.4,5c2.1,0.7,4.3-0.4,5-2.4c0.7-2.1-0.4-4.3-2.4-5C30.4,195.9,30,195.9,29.7,195.8z M62.3,200.5
		c-1.7-0.1-3.3,1-3.9,2.6c-0.7,2.1,0.4,4.3,2.4,5c2.1,0.7,4.3-0.4,5-2.4c0.7-2.1-0.4-4.3-2.4-5C63,200.6,62.6,200.5,62.3,200.5
		 M45.9,201.1c-1.7-0.1-3.3,1-3.9,2.6c-0.7,2.1,0.4,4.3,2.4,5c2.1,0.7,4.3-0.4,5-2.4c0.7-2.1-0.4-4.3-2.4-5
		C46.7,201.2,46.3,201.2,45.9,201.1"/>
	<path d="M395.5,155.9c-1-2.9-4.1-4.4-7-3.4c-1,0.4-1.9,1-2.6,1.9c-0.5-0.7-1-1.4-1.6-2c-0.9-1-1.9-1.9-2.9-2.8
		c0.3-0.1,0.6-0.1,0.8-0.2c2.9-1,4.4-4.1,3.4-7c-1-2.9-4.1-4.4-7-3.4c-2.8,1-4.3,4-3.4,6.8c-1.1-0.5-2.1-0.9-3.2-1.2
		c-1-0.3-2-0.6-3.1-0.8c1.7-1.5,2.3-3.8,1.6-5.9c-1-2.9-4.1-4.4-7-3.4c-2.9,1-4.4,4.1-3.4,7c0.2,0.7,0.6,1.3,1.1,1.9
		c-1.2,0.1-2.5,0.2-3.7,0.4c-1.1,0.2-2.2,0.5-3.3,0.8c0.6-1.3,0.6-2.7,0.2-4.1c-1-2.9-4.1-4.4-7-3.4c-2.9,1-4.4,4.1-3.4,7
		c0.5,1.5,1.7,2.7,3.1,3.3c-1.3,0.7-2.5,1.5-3.7,2.3c-0.8,0.6-1.6,1.2-2.3,1.9c0-0.4-0.1-0.8-0.3-1.2c-1-2.9-4.1-4.4-7-3.4
		c-2.9,1-4.4,4.1-3.4,7c0.8,2.3,3.1,3.8,5.5,3.7c-0.3,0.5-0.6,1-0.9,1.6c-0.7,1.4-1.1,3-1.3,4.6c-1.5-1.6-3.8-2.1-5.8-1.4
		c-2.9,1-4.4,4.1-3.4,7c1,2.9,4.1,4.4,7,3.4c1-0.3,1.8-0.9,2.5-1.7c0.4,1.7,0.8,3.3,1.7,4.7c1.6,2.7,3.6,5.3,6.3,7
		c3.8,2.4,8.5,3.5,13,3.6c3.1,0.1,7.3-0.9,10.2-2c2.5-1,3.9-1.9,5.7-4c2-2.4,3.3-5.5,3.4-8.6c0.1-3-1.1-6.1-2.7-8.7
		c-1.2-1.9-2.8-3.5-4.8-4.5c-2.5-1.2-5.5-1.4-8.3-1.3c-2.3,0.1-4.6,0.9-6.7,1.9c-1.2,0.6-3.1,2.2-3.1,2.2s1.3-2,2.2-2.9
		c1.1-1.1,2.4-2,3.8-2.6c2.2-0.9,4.7-1.5,7.2-1.3c3.3,0.2,6.7,1.2,9.5,3c2,1.4,3.6,3.5,4.7,5.6c1.4,2.9,2.4,6.2,2.2,9.4
		c-0.2,3.5-1.4,7.1-3.4,10c-1.7,2.5-4.2,4.4-6.9,5.7c-3.1,1.5-6.8,2.2-10.3,2.3c-3,0.1-5.9-0.5-8.8-1.4c-3-1-5.8-2.6-8.5-4.2
		c-2.9-1.7-5.4-4.1-8.4-5.5c-2-1-4.2-1.9-6.5-2c-1.5-0.1-3,0.4-4.4,0.8c-3,0.9-7.7,3.1-10.4,4.5c-1.2-1.2-2.4-1.7-3.3-1.4
		c-1.2,0.4-1.9,2.2-1.8,4.9c-2.7-4.4-6-6.6-8.5-5.7c-2.6,0.9-3.8,5.2-3,10.6c-1.7-2.5-3.5-3.8-4.9-3.3c-1,0.3-1.6,1.5-1.8,3.3
		c-0.7,0-1.4,0.1-2.1,0.4L10.8,288c-3.6,1.3-5.4,5.1-4.2,8.7l0.4,1.1c1.3,3.6,5.1,5.4,8.7,4.2l274.5-96.2c0.7-0.2,1.3-0.6,1.9-1
		c1.3,1.3,2.5,1.8,3.5,1.5c1.4-0.5,2-2.6,1.8-5.7c2.7,4.8,6.3,7.3,8.9,6.4c2.5-0.9,3.7-4.7,3.1-9.8c1.6,2.1,3.2,3.1,4.5,2.7
		c1.4-0.5,2.1-2.8,1.7-6c0.7-0.5,1.5-0.9,2.1-1.2c1.8-0.9,3.7-2,5.7-2.2c1.5-0.2,3.1,0.1,4.6,0.7c0.6,0.2,1.1,0.6,1.6,1
		c-0.1,0-0.2,0.1-0.3,0.1c-2.9,1-4.4,4.1-3.4,7c1,2.9,4.1,4.4,7,3.4c2.3-0.8,3.8-3.1,3.7-5.6c0.8,0.5,1.7,1,2.6,1.3
		c1.2,0.5,2.5,1,3.8,1.4c-2.1,1.4-3,4-2.2,6.4c1,2.9,4.1,4.4,7,3.4c2.9-1,4.4-4.1,3.4-7c-0.1-0.3-0.3-0.7-0.4-1
		c0.7,0.1,1.4,0.2,2.2,0.2c1.5,0.1,3.1,0.2,4.6,0.2c-1.1,1.5-1.4,3.4-0.8,5.1c1,2.9,4.1,4.4,7,3.4c2.9-1,4.4-4.1,3.4-7
		c-0.3-0.9-0.8-1.6-1.5-2.3c1.3-0.2,2.5-0.5,3.7-0.9c1.2-0.4,2.3-0.8,3.5-1.3c-0.2,0.9-0.1,1.9,0.2,2.8c1,2.9,4.1,4.4,7,3.4
		c2.9-1,4.4-4.1,3.4-7c-0.6-1.6-1.8-2.8-3.4-3.4c0.6-0.5,1.3-1,1.8-1.5c0.9-0.9,1.9-1.8,2.7-2.7c0,0.2,0.1,0.4,0.2,0.7
		c1,2.9,4.1,4.4,7,3.4c2.9-1,4.4-4.1,3.4-7c-0.9-2.5-3.4-4-6-3.6c0.4-0.8,0.7-1.6,1-2.5c0.4-1.2,0.7-2.5,0.9-3.8
		c1.5,1.5,3.7,2,5.7,1.3c2.9-1,4.4-4.1,3.4-7c-1-2.9-4.1-4.4-7-3.4c-0.7,0.3-1.4,0.7-1.9,1.2c-0.1-1.4-0.4-2.8-0.6-4.1
		c-0.2-0.8-0.4-1.6-0.6-2.5c0.7,0.1,1.5,0,2.2-0.3C395,161.9,396.5,158.8,395.5,155.9"/>
	<path class="st0" d="M393.6,156.3c-0.7-2.1-3-3.1-5-2.4c-2.1,0.7-3.1,3-2.4,5c0.7,2.1,3,3.1,5,2.4
		C393.2,160.6,394.3,158.4,393.6,156.3 M398.3,172.1c-0.7-2.1-3-3.1-5-2.4c-2.1,0.7-3.1,3-2.4,5c0.7,2.1,3,3.1,5,2.4
		C397.9,176.4,399,174.2,398.3,172.1 M383.8,143.7c-0.7-2.1-3-3.1-5-2.4c-2.1,0.7-3.1,3-2.4,5c0.7,2.1,3,3.1,5,2.4
		C383.4,148,384.5,145.8,383.8,143.7 M386.5,162.4c-1.2-3.4-3.2-6.6-5.7-9.2c-2.4-2.6-5.6-4.4-8.9-5.7c-2.9-1.2-6-1.9-9.1-1.8
		c-4.5,0.1-9,1.2-13.1,3.1c-3.3,1.5-6.5,3.6-8.9,6.3c-2.1,2.3-3.7,5.1-4.5,8.1c-0.7,2.7-1,5.7-0.3,8.4c0.8,2.7,1.9,5,3.6,7
		c1.5,1.8,3.4,3.4,5.5,4.3c3.4,1.4,7.3,1.6,10.9,1.2c3.4-0.3,7.1-1,9.8-3.2c2.6-2.2,4.7-5.7,4.9-9.1c0.1-2.4-0.6-4.7-1.8-6.7
		c-1.2-1.9-2.9-3.7-5-4.6c-2.9-1.2-6.3-1.2-9.3-0.4c-1.9,0.5-3.7,1.5-5,3c-1.3,1.5-2.3,3.6-2.1,5.6c0.1,1.8,1.2,3.4,2.5,4.6
		c1,0.9,2.3,1.4,3.6,1.5c1.3,0.2,2.9,0.1,4-0.7c0.4-0.3,0.7-1,0.6-1.5c0-0.6-0.5-1.1-1-1.6c-0.6-0.6-1.6-0.8-2.1-1.6
		c-0.3-0.6-0.6-1.4-0.3-2.1c0.4-0.9,1.5-1.5,2.4-1.7c2-0.3,4.4,0.6,5.8,2.1c1.2,1.3,1.9,3.3,1.5,5c-0.3,1.3-1.7,2.3-2.9,2.9
		c-2.7,1.4-6,2.1-9,1.6c-2.3-0.3-4.6-1.4-6.1-3.1c-1.6-1.8-2.3-4.3-2.4-6.7c-0.1-2.7,0.7-5.4,2.2-7.7c1.7-2.6,4.2-4.7,7-6
		c2.8-1.3,6-1.7,9-1.4c3.8,0.4,7.6,1.7,10.7,3.9c2.8,2,5,5,6.4,8.1c1.3,2.7,1.9,5.7,1.9,8.7c0,2.8-0.6,5.7-2,8.1
		c-1.7,2.9-4.5,5.2-7.4,7c-4,2.5-8.6,4.5-13.3,4.9c-4.5,0.4-9-0.8-13.2-2.3c-3.3-1.1-6.3-3.2-9.3-4.9c-2.3-1.4-4.4-3.2-6.8-4.4
		c-1.6-0.8-3.3-1.9-5.2-1.9c-2.5,0-4.8,1.5-7.2,2.4c-1.8,0.7-5.3,2.1-5.3,2.1s1.6,2.4,2.1,3.8c0.6,1.5,1.1,4.7,1.1,4.7
		s4.5-2.6,6.9-3.3c1.3-0.4,2.7-0.8,4-0.5c1.7,0.3,3,1.7,4.5,2.6c2.6,1.6,5,3.5,7.8,4.8c2.5,1.1,5.2,2,7.9,2.5
		c5.1,1,10.4,1.8,15.5,1.1c4.6-0.6,9.1-2.5,13.2-4.7c2.7-1.5,5.3-3.3,7.4-5.5c2.3-2.5,4.6-5.3,5.5-8.6c1.5-5.5,0.8-11.7-0.8-17.2
		C386.9,163.4,386.7,162.9,386.5,162.4 M393.5,188.2c-0.7-2.1-3-3.1-5-2.4c-2.1,0.7-3.1,3-2.4,5s3,3.1,5,2.4
		C393.2,192.5,394.2,190.2,393.5,188.2 M368.9,138.9c-0.7-2.1-3-3.1-5-2.4c-2.1,0.7-3.1,3-2.4,5c0.7,2.1,3,3.1,5,2.4
		C368.5,143.2,369.6,141,368.9,138.9 M381.9,198.5c-0.7-2.1-3-3.1-5-2.4c-2.1,0.7-3.1,3-2.4,5c0.7,2.1,3,3.1,5,2.4
		C381.5,202.8,382.6,200.5,381.9,198.5 M352.8,141.3c-0.7-2.1-3-3.1-5-2.4c-2.1,0.7-3.1,3-2.4,5c0.7,2.1,3,3.1,5,2.4
		C352.5,145.6,353.5,143.4,352.8,141.3 M365.6,203.8c-0.7-2.1-3-3.1-5-2.4c-2.1,0.7-3.1,3-2.4,5c0.7,2.1,3,3.1,5,2.4
		C365.3,208.1,366.3,205.8,365.6,203.8 M339.2,151.3c-0.7-2.1-3-3.1-5-2.4c-2.1,0.7-3.1,3-2.4,5c0.7,2.1,3,3.1,5,2.4
		C338.8,155.6,339.9,153.4,339.2,151.3 M349.3,203.1c-0.7-2.1-3-3.1-5-2.4c-2.1,0.7-3.1,3-2.4,5c0.7,2.1,3,3.1,5,2.4
		C348.9,207.4,350,205.2,349.3,203.1 M333.9,166.5c-0.7-2.1-3-3.1-5-2.4c-2.1,0.7-3.1,3-2.4,5c0.7,2.1,3,3.1,5,2.4
		C333.5,170.8,334.6,168.6,333.9,166.5 M334.7,196.8c-0.7-2.1-3-3.1-5-2.4c-2.1,0.7-3.1,3-2.4,5c0.7,2.1,3,3.1,5,2.4
		C334.3,201.1,335.4,198.8,334.7,196.8 M313.2,189.9c-1.4-3.9-3.6-6.8-4.9-6.3c-1.3,0.5-1.3,4,0.1,8c1.4,3.9,3.6,6.8,4.9,6.3
		C314.6,197.5,314.6,193.9,313.2,189.9 M305.9,192.5c-2.1-5.9-5.6-10-7.9-9.1c-2.3,0.8-2.5,6.2-0.5,12.1c2.1,5.9,5.6,10,7.9,9.1
		C307.7,203.8,308,198.3,305.9,192.5 M295.2,196.2c-1.4-4.1-3.7-7-5.1-6.5c-1.4,0.5-1.4,4.2,0.1,8.3c1.4,4.1,3.7,7,5.1,6.5
		C296.7,204,296.6,200.3,295.2,196.2 M286.9,193.5c-0.3,0.1-0.6,0.2-1,0.3L13.3,289.2c-3.6,1.3-5.7,4.5-4.7,7.4s4.7,4.1,8.2,2.9
		L289.5,204c0.3-0.1,0.6-0.2,0.9-0.4c-0.9-1.2-1.8-2.9-2.5-4.8C287.3,196.9,287,195,286.9,193.5"/>
	<path class="st3" d="M365,136.3c-0.4,0-0.8,0.1-1.2,0.2c-2.1,0.7-3.1,3-2.4,5c0.7,2.1,3,3.1,5,2.4c2.1-0.7,3.1-3,2.4-5
		C368.3,137.3,366.7,136.2,365,136.3 M349,138.7c-0.4,0-0.8,0.1-1.2,0.2c-2.1,0.7-3.1,3-2.4,5c0.7,2.1,3,3.1,5,2.4
		c2.1-0.7,3.1-3,2.4-5C352.2,139.7,350.6,138.6,349,138.7 M379.9,141.1c-0.4,0-0.8,0.1-1.2,0.2c-2.1,0.7-3.1,3-2.4,5
		c0.7,2.1,3,3.1,5,2.4c2.1-0.7,3.1-3,2.4-5C383.2,142.1,381.6,141,379.9,141.1 M362.8,145.7c-4.5,0.1-9,1.2-13.1,3.1
		c-3.3,1.5-6.5,3.6-8.9,6.3c-2.1,2.3-3.7,5.1-4.5,8.1c-0.7,2.7-1,5.7-0.3,8.4c0.8,2.7,1.9,5,3.6,7c1.5,1.8,3.4,3.4,5.5,4.3
		c3.4,1.4,7.3,1.6,10.9,1.2c3.4-0.3,7.1-1,9.8-3.2c2.6-2.2,4.7-5.7,4.9-9.1c0.1-2.4-0.6-4.7-1.8-6.7c-1.2-1.9-2.9-3.7-5-4.6
		c-2.9-1.2-6.3-1.2-9.3-0.4c-1.9,0.5-3.7,1.5-5,3c-1.3,1.5-2.3,3.6-2.1,5.6c0.1,1.8,1.2,3.4,2.5,4.6c1,0.9,2.3,1.4,3.6,1.5
		c1.3,0.2,2.9,0.1,4-0.7c0.4-0.3,0.7-1,0.6-1.5c0-0.6-0.5-1.1-1-1.6c-0.6-0.6-1.6-0.8-2.1-1.6c-0.3-0.6-0.6-1.4-0.3-2.1
		c0.4-0.9,1.5-1.5,2.4-1.6c2-0.3,4.4,0.6,5.8,2.1c1.2,1.3,1.9,3.3,1.5,5c-0.3,1.3-1.7,2.3-2.9,2.9c-2.7,1.4-6,2.1-9,1.6
		c-2.3-0.3-4.6-1.4-6.1-3.1c-1.6-1.8-2.3-4.3-2.4-6.7c-0.1-2.7,0.7-5.4,2.2-7.7c1.7-2.6,4.2-4.7,7-6c2.8-1.3,6-1.7,9-1.4
		c3.8,0.4,7.6,1.7,10.7,3.9c2.8,2,5,5,6.4,8.1c1.3,2.7,1.9,5.7,1.9,8.7c0,2.8-0.6,5.7-2,8.1c-1.7,2.9-4.5,5.2-7.4,7
		c-4,2.5-8.6,4.5-13.3,4.9c-4.5,0.4-9-0.8-13.2-2.3c-3.3-1.1-6.3-3.2-9.3-4.9c-2.3-1.4-4.4-3.2-6.8-4.4c-1.6-0.8-3.3-1.9-5.2-1.9
		c-2.5,0-4.8,1.5-7.2,2.4c-1.8,0.7-5.3,2.1-5.3,2.1s1.6,2.4,2.1,3.8c0.6,1.5,1.1,4.7,1.1,4.7s4.5-2.6,6.9-3.3c1.3-0.4,2.7-0.8,4-0.5
		c1.7,0.3,3,1.7,4.5,2.6c2.6,1.6,5,3.5,7.8,4.8c2.5,1.1,5.2,2,7.9,2.5c5.1,1,10.4,1.8,15.5,1.1c4.6-0.6,9.1-2.5,13.2-4.7
		c2.7-1.5,5.3-3.3,7.4-5.5c2.3-2.5,4.6-5.3,5.4-8.6c1.5-5.5,0.8-11.7-0.8-17.2c-0.1-0.5-0.3-1-0.5-1.5c-1.2-3.4-3.2-6.6-5.7-9.2
		c-2.4-2.6-5.6-4.4-8.9-5.7C369.1,146.4,365.9,145.7,362.8,145.7 M335.3,148.7c-0.4,0-0.8,0.1-1.2,0.2c-2.1,0.7-3.1,3-2.4,5
		c0.7,2.1,3,3.1,5,2.4c2.1-0.7,3.1-3,2.4-5C338.6,149.7,337,148.6,335.3,148.7 M389.7,153.7c-0.4,0-0.8,0.1-1.2,0.2
		c-2.1,0.7-3.1,3-2.4,5c0.7,2.1,3,3.1,5,2.4c2.1-0.7,3.1-3,2.4-5C393,154.7,391.4,153.6,389.7,153.7 M330,163.9
		c-0.4,0-0.8,0.1-1.2,0.2c-2.1,0.7-3.1,3-2.4,5c0.7,2.1,3,3.1,5,2.4c2.1-0.7,3.1-3,2.4-5C333.3,164.8,331.7,163.8,330,163.9
		 M394.4,169.5c-0.4,0-0.8,0.1-1.2,0.2c-2.1,0.7-3.1,3-2.4,5c0.7,2.1,3,3.1,5,2.4s3.1-3,2.4-5C397.7,170.4,396.1,169.4,394.4,169.5
		 M298.4,183.2c-0.2,0-0.3,0-0.4,0.1c-2.3,0.8-2.5,6.2-0.5,12.1c2.1,5.9,5.6,10,7.9,9.1c2.3-0.8,2.5-6.2,0.5-12.1
		C304,187,300.7,183,298.4,183.2 M308.5,183.6c-0.1,0-0.2,0-0.3,0c-1.3,0.5-1.3,4,0.1,8c1.4,3.9,3.6,6.8,4.9,6.3
		c1.3-0.5,1.3-4-0.1-8C311.9,186.2,309.9,183.5,308.5,183.6 M389.7,185.6c-0.4,0-0.8,0.1-1.2,0.2c-2.1,0.7-3.1,3-2.4,5
		c0.7,2.1,3,3.1,5,2.4c2.1-0.7,3.1-3,2.4-5C392.9,186.5,391.3,185.5,389.7,185.6 M290.4,189.7c-0.1,0-0.2,0-0.3,0.1
		c-1.4,0.5-1.4,4.2,0.1,8.3c1.4,4.1,3.7,7,5.1,6.5c1.4-0.5,1.4-4.2-0.1-8.3C293.9,192.4,291.8,189.6,290.4,189.7 M286.9,193.4
		c-0.3,0.1-0.6,0.2-1,0.3l-96.8,33.9h32.8l67.6-23.7c0.3-0.1,0.6-0.2,0.9-0.4c-0.9-1.2-1.8-2.9-2.5-4.8
		C287.3,196.9,287,195,286.9,193.4 M330.8,194.1c-0.4,0-0.8,0.1-1.2,0.2c-2.1,0.7-3.1,3-2.4,5c0.7,2.1,3,3.1,5,2.4
		c2.1-0.7,3.1-3,2.4-5C334.1,195.1,332.5,194.1,330.8,194.1 M378,195.8c-0.4,0-0.8,0.1-1.2,0.2c-2.1,0.7-3.1,3-2.4,5
		c0.7,2.1,3,3.1,5,2.4c2.1-0.7,3.1-3,2.4-5C381.3,196.8,379.7,195.8,378,195.8 M345.4,200.5c-0.4,0-0.8,0.1-1.2,0.2
		c-2.1,0.7-3.1,3-2.4,5c0.7,2.1,3,3.1,5,2.4c2.1-0.7,3.1-3,2.4-5C348.7,201.5,347.1,200.4,345.4,200.5 M361.8,201.1
		c-0.4,0-0.8,0.1-1.2,0.2c-2.1,0.7-3.1,3-2.4,5c0.7,2.1,3,3.1,5,2.4c2.1-0.7,3.1-3,2.4-5C365,202.1,363.4,201.1,361.8,201.1"/>
</g>
<g>
	<path d="M203.4,9.7c0,0-1.4,3.5-2.3,5.2c-1.1,2-3,3.6-4,5.7c-0.6,1.1-1.1,3.6-1.1,3.6s-1.7-1.4-2.7-1.8c-1.3-0.6-2.8-1.2-4.2-1.1
		c-2.4,0.1-5.1,0.9-6.8,2.6c-1.4,1.5-2,3.8-1.9,5.8c0.1,2.8,2.2,5.1,3.2,7.7c0.4,1.1,1.3,2.1,1.2,3.2c-0.1,1-0.9,2-1.7,2.5
		c-0.8,0.6-2.9,0.6-2.9,0.6s1.1,2.9,2.3,3.8c1.4,1,3.2,1.4,4.9,1.4c1.6-0.1,3.5-0.5,4.6-1.6c1.7-1.7,1.1-4.8,2.3-6.9
		c0.4-0.7,0.8-1.9,1.6-1.9c1,0,2,1.2,2.1,2.2c0.4,2.7-1.7,5.5-3.8,7.3c-1.9,1.7-4.6,2.7-7,2.5c-3-0.2-6-2.1-8.1-4.3
		c-1.2-1.2-1.4-3.1-2.1-4.7c2.2-0.8,3.7-2.9,3.7-5.3c0-2-1-3.8-2.7-4.8c0.2-0.5,0.4-1,0.4-1.5c0-1.8-1.4-3.2-3.2-3.2
		c-1.7,0-3.2,1.4-3.2,3.2c0,0.5,0.1,1,0.4,1.5c-1.7,1-2.7,2.9-2.7,4.8c0,2.4,1.5,4.5,3.7,5.3c0,0,0,0,0,0.1c-0.6,2.1-1.4,4.3-3,5.7
		c-1.9,1.8-4.6,3-7.1,3c-1.7,0-3.6-0.8-4.8-2c-0.9-0.9-1.6-2.1-1.6-3.4c0-0.9,1.1-2.6,1.1-2.6s0.1,2.3,0.6,3.3
		c0.5,1.1,1.4,2,2.4,2.6c0.8,0.5,1.8,0.7,2.7,0.7c1.4,0,2.9-0.3,4.1-1c1.2-0.7,2.8-3,2.8-3s-1.6-0.5-2.1-1.1
		c-0.7-0.7-1.1-1.8-1.2-2.8c-0.1-1.5,1.1-2.9,1.1-4.3c0-1.5-0.1-3.2-1-4.3c-1.3-1.5-3.6-2.1-5.7-2.1c-2.1,0-4.2,0.9-5.8,2.2
		c-1.2,0.9-2.6,3.7-2.6,3.7s-0.7-3.4-1.5-5c-0.5-1-1.8-2.6-1.8-2.6s3.6-2.9,5.5-4.1c3-2,6.1-3.7,9.3-5.3c2.1-1.1,6.6-3,6.6-3
		s-9.3-1.6-13.9-1.4c-10.3,0.5-21.1,1.4-30.4,6c-5.6,2.8-10.8,7.2-14.2,12.5c-2.9,4.6-4.6,10.1-4.7,15.6c-0.1,6,2,11.9,4.4,17.3
		c2,4.5,8.3,12.2,8.3,12.2s-5.2,0.6-7.8,0.4c-3.2-0.3-6.5-0.6-9.4-2.1c-2.2-1.1-5.5-4.9-5.5-4.9s1.6,11.4,4.5,16.2
		c2.5,4.2,6.4,7.7,10.7,10c2.7,1.5,9.1,2.1,9.1,2.1s-2.2,1-3.3,1.4c-1.7,0.5-5.3,1.1-5.3,1.1s2.6,1.2,4,1.6c2.4,0.6,4.9,1,7.4,1.1
		c1.3,0,3.8-0.3,3.8-0.3s-1.1,1.6-1.9,2.2c-0.6,0.5-1.9,1.2-1.9,1.2c4.2,1.8,10.7,2.3,16.1,1.6c3.3-0.4,6.6-1.5,9.2-3.5
		c3.4-2.6,7.4-10.4,7.4-10.4s-1.9,13.7-1.6,20.6c0.3,7.3,1,14.8,3.2,21.7c1.5,4.6,3.9,8.8,6.6,12.8c0.9,1.3,2.1,2.3,3.1,3.4
		c1.3,1.5,3.9,4.7,3.9,4.7s-2.8,1.8-3.6,3.3c-1.6,3-2,6.8-1.5,10.2c0.4,3,1.9,5.7,3.6,8.2c1,1.4,3.6,3.5,3.6,3.5s-0.1,2.7-0.1,4
		c0,0.8-0.1,1.7,0.2,2.5c0.6,2.2,1.6,4.4,3.1,6.1c1.7,2,3.9,3.7,6.3,4.6c1.9,0.7,6,0.5,6,0.5s0.8,1.4,1.4,2c0.8,0.9,1.7,1.8,2.7,2.3
		c1.2,0.6,2.7,0.8,4,1c2.8,0.3,5.8,0.3,8.6,0c1.4-0.2,2.8-0.4,4-1c1.1-0.5,1.9-1.4,2.7-2.3c0.5-0.6,1.4-2,1.4-2s4.1,0.2,6-0.5
		c2.4-0.9,4.6-2.6,6.3-4.6c1.5-1.7,2.5-3.9,3.1-6.1c0.2-0.8,0.1-1.7,0.2-2.5c0-1.3-0.1-4-0.1-4s2.7-2.1,3.6-3.5
		c1.7-2.4,3.2-5.2,3.6-8.2c0.5-3.4,0.1-7.2-1.5-10.2c-0.8-1.4-3.6-3.3-3.6-3.3s2.6-3.1,3.9-4.7c1-1.2,2.2-2.2,3.1-3.4
		c2.7-3.9,5.1-8.2,6.6-12.8c2.2-7,3-14.4,3.2-21.7c0.2-6.9-1.6-20.6-1.6-20.6s4.1,7.8,7.4,10.4c2.6,2,6,3.1,9.2,3.5
		c5.3,0.7,11.8,0.3,16.1-1.6c0,0-1.3-0.7-1.9-1.2c-0.7-0.6-1.9-2.2-1.9-2.2s2.5,0.4,3.8,0.3c2.5-0.1,5-0.4,7.4-1.1
		c1.4-0.4,4-1.6,4-1.6s-3.5-0.6-5.3-1.1c-1.1-0.4-3.3-1.4-3.3-1.4s6.3-0.7,9.1-2.1c4.3-2.3,8.1-5.8,10.7-10
		c2.9-4.8,4.5-16.2,4.5-16.2s-3.3,3.8-5.5,4.9c-2.9,1.5-6.2,1.8-9.4,2.1c-2.6,0.2-7.8-0.4-7.8-0.4s6.3-7.7,8.3-12.2
		c2.4-5.4,4.6-11.3,4.4-17.3c-0.1-5.4-1.8-11-4.7-15.6c-3.4-5.3-8.6-9.7-14.2-12.5c-9.3-4.6-20.1-5.5-30.4-6
		c-4.7-0.2-13.9,1.4-13.9,1.4s4.4,1.9,6.6,3c3.2,1.6,6.3,3.4,9.3,5.3c1.9,1.3,5.5,4.1,5.5,4.1s-1.4,1.7-1.8,2.6
		c-0.8,1.6-1.5,5-1.5,5s-1.4-2.7-2.6-3.7c-1.6-1.3-3.8-2.2-5.8-2.2c-2,0-4.3,0.6-5.7,2.1c-1,1.1-1,2.8-1,4.3c0,1.5,1.2,2.9,1.1,4.3
		c-0.1,1-0.5,2-1.2,2.8c-0.5,0.6-2.1,1.1-2.1,1.1s1.6,2.3,2.8,3c1.2,0.7,2.7,1,4.1,1c0.9,0,1.9-0.2,2.7-0.7c1-0.6,1.9-1.5,2.4-2.6
		c0.5-1,0.6-3.3,0.6-3.3s1.1,1.7,1.1,2.6c0,1.2-0.7,2.5-1.6,3.4c-1.3,1.2-3.1,2-4.8,2c-2.6,0-5.2-1.2-7.1-3c-1.6-1.5-2.4-3.7-3-5.7
		c0,0,0,0,0-0.1c2.2-0.8,3.7-2.9,3.7-5.3c0-2-1-3.8-2.7-4.8c0.2-0.5,0.4-1,0.4-1.5c0-1.8-1.4-3.2-3.2-3.2c-1.7,0-3.2,1.4-3.2,3.2
		c0,0.5,0.1,1,0.4,1.5c-1.7,1-2.7,2.9-2.7,4.8c0,2.4,1.5,4.5,3.7,5.3c-0.7,1.6-1,3.4-2.1,4.7c-2.1,2.2-5,4.1-8.1,4.3
		c-2.5,0.2-5.2-0.9-7-2.5c-2.1-1.8-4.2-4.6-3.8-7.3c0.1-1,1.1-2.2,2.1-2.2c0.8,0,1.2,1.2,1.6,1.9c1.2,2.1,0.7,5.2,2.3,6.9
		c1.1,1.2,3,1.6,4.6,1.6c1.7,0.1,3.6-0.3,4.9-1.4c1.2-0.9,2.3-3.8,2.3-3.8s-2.1,0-2.9-0.6c-0.8-0.6-1.6-1.5-1.7-2.5
		c-0.1-1.1,0.8-2.1,1.2-3.2c1-2.6,3.1-4.9,3.2-7.7c0.1-2-0.5-4.3-1.9-5.8c-1.7-1.8-4.4-2.5-6.8-2.6c-1.4-0.1-2.9,0.5-4.2,1.1
		c-1,0.4-2.7,1.8-2.7,1.8s-0.6-2.5-1.1-3.6c-1-2.1-2.9-3.6-4-5.7C204.7,13.2,203.4,9.7,203.4,9.7"/>
	<path class="st3" d="M158.4,59.2c-2.4,0-4.4,1.9-4.4,4.4c0,2.4,1.9,4.4,4.4,4.4c2.4,0,4.4-1.9,4.4-4.4c0,0,0,0,0,0
		C162.7,61.1,160.8,59.2,158.4,59.2 M248.3,59.2c-2.4,0-4.4,1.9-4.4,4.4c0,2.4,1.9,4.4,4.4,4.4c0,0,0,0,0,0c2.4,0,4.4-1.9,4.4-4.4
		c0,0,0,0,0,0C252.7,61.1,250.7,59.2,248.3,59.2 M194.1,59.3v8.5h18.5v-8.5H194.1 M199.9,182.6c-3.8,0-6.8,2.9-6.8,6.6v9.4
		c0,3.6,3,6.6,6.8,6.6h7c3.8,0,6.8-2.9,6.8-6.6v-9.4c0-3.6-3-6.6-6.8-6.6h-1.3v14.5c0,0.7-0.6,1.2-1.3,1.2h-1.7
		c-0.7,0-1.3-0.6-1.3-1.2v-14.5H199.9"/>
	<g>
		<path class="st4" d="M155.6,16.9c-2.7,0-6,0.1-8.1,0.3c-5.2,0.5-10.5,1-15.4,2.8c-5,1.9-10.3,4-13.7,8.1
			c-4.3,5.1-6.6,12.1-7.1,18.7c-0.5,5.9,1.3,12,3.6,17.4c2,4.6,8.6,12.2,8.6,12.2s4.1-2.9,6.5-3.7c4.2-1.4,13-1.6,13-1.6
			s-3.7-2.6-5-4.5c-3.7-5.4-6.2-12-6.6-18.5c-0.3-4.6,1.2-9.3,3.1-13.5c1-2.3,4.5-6,4.5-6s-2.2-2.3-3.2-3.4c-0.9-1-2.6-3-2.6-3
			s4.4-0.5,6.5-0.2c2.2,0.3,4.5,0.7,6.4,1.9c0.8,0.5,1.9,2.1,1.9,2.1s3.9-3.4,6-5c2.1-1.5,6.6-4.2,6.6-4.2S158.3,16.9,155.6,16.9
			 M251.1,16.9c-2.7,0-4.9,0-4.9,0s4.5,2.6,6.5,4.2c2.1,1.5,6,5,6,5s1.1-1.6,1.9-2.1c1.9-1.2,4.2-1.6,6.4-1.9
			c2.2-0.3,6.5,0.2,6.5,0.2s-1.7,2-2.6,3c-1,1.2-3.2,3.4-3.2,3.4s3.4,3.7,4.5,6c1.9,4.2,3.4,8.9,3.1,13.5c-0.4,6.5-3,13.1-6.6,18.5
			c-1.2,1.8-5,4.5-5,4.5s8.9,0.2,13,1.6c2.4,0.8,6.5,3.7,6.5,3.7s6.6-7.6,8.6-12.2c2.4-5.4,4.1-11.5,3.6-17.4
			c-0.5-6.7-2.8-13.6-7.1-18.7c-3.4-4.1-8.8-6.2-13.7-8.1c-4.9-1.8-10.2-2.3-15.4-2.8C257,17,253.8,17,251.1,16.9 M139.8,30.1
			c0,0-3.9,5.4-5,8.5c-1.1,3-1.6,6.3-1.4,9.4c0.3,4.3,1.3,8.7,3.3,12.5c2.1,3.9,8.7,10.1,8.7,10.1l7.1,0.6c0,0-9.1-5.9-12-10.2
			c-2.4-3.6-3.6-8-4-12.3c-0.3-3.3,0.4-6.6,1.5-9.7c0.8-2.2,3.7-6,3.7-6L139.8,30.1 M266.9,30.1l-2.1,3c0,0,2.9,3.8,3.7,6
			c1.1,3.1,1.8,6.4,1.5,9.7c-0.3,4.3-1.6,8.7-4,12.3c-2.9,4.4-12,10.2-12,10.2l7.1-0.6c0,0,6.6-6.2,8.7-10.1c2-3.8,3.1-8.2,3.3-12.5
			c0.2-3.2-0.3-6.4-1.4-9.4C270.8,35.5,266.9,30.1,266.9,30.1 M170.3,73.3c0,0-1.5,3-1.6,4.6c-0.1,1.4,0.8,4.1,0.8,4.1
			s-1.5-0.7-2.2-1.2c-2.3-1.6-6.3-5.3-6.3-5.3s3.7,5.9,6.3,8.2c2.1,1.8,7.3,4,7.3,4s-2.1-3.2-2.6-5c-0.4-1.5-0.2-4.8-0.2-4.8
			s2.9,6.1,5.2,8.5c2.4,2.4,8.8,5.4,8.8,5.4s-1.6-4.5-1.7-6.8c-0.1-1.2,0.5-3.5,0.5-3.5s2.5,4.1,4,5.9c1.8,2.2,3.8,4.2,6,6
			c1.7,1.3,5.3,3.5,5.3,3.5s-2.6-6-2.8-9.3c-0.2-2.6,1.3-7.7,1.3-7.7s1,3.2,1.8,4.6c1.6,2.7,5,4.2,6.2,7.1c0.7,1.6,0.3,5.2,0.3,5.2
			s3.7-2.1,5.3-3.5c2.2-1.8,4.2-3.8,6-6c1.5-1.8,4-5.9,4-5.9s0.6,2.3,0.5,3.5c-0.1,2.4-1.7,6.8-1.7,6.8s6.4-3,8.8-5.4
			c2.4-2.3,5.2-8.5,5.2-8.5s0.2,3.2-0.2,4.8c-0.5,1.8-2.6,5-2.6,5s5.2-2.2,7.3-4c2.6-2.2,6.3-8.2,6.3-8.2s-4,3.8-6.3,5.3
			c-0.7,0.5-2.2,1.2-2.2,1.2s0.9-2.7,0.8-4.1c-0.1-1.6-1.6-4.6-1.6-4.6s-5,7.9-8.2,11.2c-1.2,1.2-3.9,2.9-3.9,2.9s0.8-2.5,0.7-3.7
			c-0.1-1.3-0.7-2.6-1.1-3.8c-0.5-1.6-1.4-4.6-1.4-4.6s-3.5,6.4-5.6,9.4c-1.4,2-3.7,4.8-5.8,7.2c-0.5-1.3-1.4-3.7-2.3-5
			c-1.4-2-3.9-3-5.4-4.8c-2-2.4-4.6-8.1-4.6-8.1s-1.3,2.4-1.8,3.6c-1.2,3.1-2.4,6.3-2.5,9.6c0,1.4,0.2,2.8,0.8,4
			c-1.9-2.2-3.9-4.7-5.2-6.5c-2.1-3-5.6-9.4-5.6-9.4s-0.9,3.1-1.4,4.6c-0.4,1.3-1,2.5-1.1,3.8c-0.1,1.3,0.7,3.7,0.7,3.7
			s-2.8-1.7-3.9-2.9C175.3,81.3,170.3,73.3,170.3,73.3 M147.8,82.2c-3.8-0.1-8.4,2.3-12.4,2.2c-2.4,0-4.8-0.8-7.2-0.7
			c-4.1,0.1-8,2.3-12.1,1.9c-3-0.3-8.6-2.9-8.6-2.9s5.5,4.5,8.8,5.1c4.1,0.8,8.3-2,12.4-1.8c3.3,0.1,9.8,2.1,9.8,2.1s-1.4,1.5-2,2.3
			c-0.6,0.9-1.3,2.9-1.3,2.9s3.8-3.3,6.1-4.4c1.8-0.9,3.8-1.8,5.9-1.6c0.5,0.1,1.3,0.2,1.5,0.7c0.5,1.6-1.2,3.3-2.3,4.6
			c-1.8,2.1-6.4,4.8-6.7,4.8c-0.4,0.1,7.4-2,10.2-4.5c1.2-1.1,2.3-2.6,2.6-4.2c0.3-1.8,0.4-4.3-1.1-5.4
			C150.2,82.6,149,82.3,147.8,82.2 M258.9,82.2c-1.3,0-2.5,0.4-3.5,1.2c-1.5,1.1-1.4,3.6-1.1,5.4c0.3,1.6,1.3,3.2,2.6,4.2
			c2.8,2.4,10.5,4.5,10.2,4.5s-4.9-2.7-6.7-4.8c-1.1-1.3-2.8-3-2.3-4.6c0.2-0.5,0.9-0.7,1.5-0.7c2-0.2,4,0.7,5.9,1.6
			c2.3,1.1,6.1,4.4,6.1,4.4s-0.7-2-1.3-2.9c-0.5-0.9-2-2.3-2-2.3s6.5-2,9.8-2.1c4.2-0.1,8.3,2.6,12.4,1.8c3.3-0.6,8.8-5.1,8.8-5.1
			s-5.6,2.7-8.6,2.9c-4.1,0.4-8-1.8-12.1-1.9c-2.4-0.1-4.8,0.7-7.2,0.7C267.3,84.5,262.7,82.1,258.9,82.2 M167.7,91.1
			c-2.2,0.1-6.1,2.4-6.1,2.4s3.3-0.7,4.9-0.6c2.1,0.2,4.3,0.7,6,2c1.8,1.3,3.1,3.1,4.3,5c-1.8-0.4-3.7-0.5-5.5-0.2
			c-2,0.3-5.6,2.6-5.6,2.6s4.2-0.6,6.4-0.4c2.2,0.2,4.5,0.4,6.5,1.3c1.7,3.2,3.4,6.5,6.1,8.8c1.9,1.5,4.2,2.9,6.6,2.9
			c2.8,0.1,7.4-2.8,7.9-2.9c0.5-0.1-6.9-0.8-9.7-2.6c-5.7-3.6-7.6-11.6-13.2-15.3C173.8,92.2,170.7,91,167.7,91.1 M238.9,91.1
			c-3-0.1-6.1,1.1-8.6,2.8c-5.6,3.7-7.5,11.7-13.2,15.3c-2.8,1.8-10.2,2.5-9.7,2.6s5.1,3,7.9,2.9c2.4-0.1,4.7-1.4,6.6-2.9
			c2.7-2.2,4.4-5.5,6.1-8.8c2-0.8,4.3-1.1,6.5-1.3c2.1-0.2,6.4,0.4,6.4,0.4s-3.6-2.3-5.6-2.6c-1.8-0.2-3.7-0.2-5.5,0.2
			c1.2-1.9,2.5-3.7,4.3-5c1.7-1.2,3.9-1.8,6-2c1.6-0.2,4.9,0.6,4.9,0.6S241.1,91.2,238.9,91.1 M181,93.8c-1,0-2.2,0.3-2.2,0.3
			s2.3,1.5,3.2,2.6c2.7,3,3.4,7.7,6.6,10.2c1.8,1.4,4.1,2.3,6.4,2.2c1.6-0.1,4.1-2.1,4.5-2.1c0.4,0-6.7-0.9-9.4-2.7
			c-3.6-2.4-4.2-8.4-8.2-10.2C181.7,93.9,181.4,93.8,181,93.8 M225.6,93.8c-0.3,0-0.6,0-0.9,0.2c-4,1.8-4.6,7.8-8.2,10.2
			c-2.7,1.8-9.7,2.7-9.4,2.7c0.4,0,2.8,2,4.5,2.1c2.2,0.1,4.6-0.8,6.4-2.2c3.2-2.5,3.9-7.2,6.6-10.2c0.9-1,3.2-2.6,3.2-2.6
			S226.6,93.8,225.6,93.8 M173.8,109.9c-4.1,0.1-7.1,1.8-7.6,4.3c-0.5,2.8,2.3,5.9,6.9,7.4c-0.5-0.7-1-1.4-1.3-1.9
			c-0.4-0.9-0.8-1.8-0.7-2.8c0.1-0.7,0.4-1.4,1-1.9c0.6-0.5,1.4-0.6,2.1-0.8c0.2-0.1,0.7-0.1,0.7-0.1s-0.7,0.9-0.9,1.4
			c-0.2,0.4-0.4,0.9-0.3,1.4c0,0.5,0.2,1.1,0.6,1.5c0.5,0.4,1.2,0.7,1.8,0.6c0.6-0.1,1.1-0.5,1.5-0.9c0.4-0.7-0.2-1.8,0.3-2.4
			c0.3-0.4,0.9-0.5,1.3-0.5c0.5,0,1,0.2,1.3,0.5c0.3,0.3,0.4,0.9,0.3,1.3c-0.2,1-1.2,1.6-1.7,2.4c-0.5,0.7-0.9,1.3-1.4,2
			c-0.2,0.4-0.4,0.7-0.6,1.1c4.8,0.4,8.7-1.4,9.2-4.3c0.6-3.3-3.4-6.8-8.9-7.9c-0.9-0.2-1.8-0.3-2.7-0.3
			C174.4,109.9,174.1,109.9,173.8,109.9 M232,109.9c-0.9,0-1.8,0.1-2.7,0.3c-5.5,1.1-9.5,4.6-8.9,7.9c0.5,2.9,4.4,4.7,9.2,4.3
			c-0.2-0.4-0.4-0.7-0.6-1.1c-0.4-0.7-0.9-1.3-1.4-2c-0.6-0.8-1.5-1.4-1.7-2.4c-0.1-0.4,0-1,0.3-1.3c0.3-0.4,0.8-0.5,1.3-0.5
			c0.5,0,1,0.1,1.3,0.5c0.5,0.6-0.1,1.7,0.3,2.4c0.3,0.5,0.9,0.9,1.5,0.9c0.6,0.1,1.3-0.2,1.8-0.6c0.4-0.4,0.6-1,0.6-1.5
			c0-0.5-0.1-1-0.3-1.4c-0.2-0.5-0.9-1.4-0.9-1.4s0.4,0.1,0.7,0.1c0.7,0.2,1.6,0.3,2.2,0.8c0.5,0.5,0.9,1.2,1,1.9
			c0.1,0.9-0.3,1.9-0.7,2.8c-0.3,0.6-0.8,1.3-1.3,1.9c4.5-1.5,7.4-4.5,6.9-7.4C239.9,111.5,236.4,109.8,232,109.9 M189.8,118.8
			c-2.5,0-3.4,4-5.7,5.1c-2.7,1.4-9,2-9,2s3.1,1.2,4.7,1.2c3,0,6.1-0.7,8.6-2.4c1.5-1,3.3-2.6,3.1-4.4
			C191.4,119.6,190.6,118.8,189.8,118.8 M216.9,118.8c-0.8,0-1.6,0.8-1.7,1.5c-0.2,1.8,1.6,3.3,3.1,4.4c2.4,1.7,5.6,2.4,8.6,2.4
			c1.6,0,4.7-1.2,4.7-1.2s-6.3-0.6-9-2C220.3,122.8,219.4,118.8,216.9,118.8 M203.3,123.5c0,0-1.5,5.6-1.9,8.5
			c-1,7.3-1.4,20-1.6,25.3c-2.1-0.2-4.6-0.5-6.4-0.8c0,0-0.1,0-0.1,0c0.1-1.3,0.1-3.1-0.1-4.2c-0.7-4.5-1.7-9.1-4.2-12.9
			c-1.9-2.9-7.7-6.8-8-6.8s3.3,4.7,4.5,7.3c1.5,3.4,2.7,7,3.1,10.6c0.1,1.2-0.1,3-0.3,4.3c-2.1-0.8-4.1-1.6-6.3-1.5
			c-2.2,0.1-4.5,0.7-6.2,2.1c-1.2,1-2.4,4.2-2.4,4.2s5.1-2.3,7.9-2.4c6.3-0.1,14.4,4.6,21.9,4.6c7.5,0,15.6-4.7,21.9-4.6
			c2.7,0.1,7.9,2.4,7.9,2.4s-1.2-3.2-2.4-4.2c-1.7-1.4-4-2-6.2-2.1c-2.2-0.1-4.2,0.7-6.3,1.5c-0.2-1.3-0.4-3.1-0.3-4.3
			c0.4-3.7,1.6-7.3,3.1-10.6c1.2-2.6,4.8-7.3,4.5-7.3c-0.3,0-6,3.9-8,6.8c-2.5,3.8-3.5,8.4-4.2,12.9c-0.2,1.1-0.2,2.9-0.1,4.2
			c0,0-0.1,0-0.1,0c-1.7,0.3-4.3,0.6-6.4,0.8c-0.1-5.2-0.6-18-1.6-25.3C204.8,129.1,203.3,123.5,203.3,123.5 M182.9,160.5
			c-2.5,0-5.3,0.7-7.1,2.5c-1.6,1.7-2.3,4.4-2.1,6.8c0.2,2.1,1.2,4.3,2.9,5.6c2.4,1.9,9.1,2.1,9.1,2.1c-1.4-0.7-5-1.9-6.7-3.8
			c-1-1.1-1.9-2.7-1.9-4.2c0-1.4,0.6-2.9,1.5-4c0.9-1.1,2.3-1.9,3.7-2c0.9,0,1.9,0.4,2.4,1.1c0.4,0.6,0.2,1.4,0,2
			c-0.1,0.5-0.6,0.8-0.8,1.2c-0.4,0.7-1.1,1.2-1.2,2c-0.1,0.5-0.1,1.2,0.3,1.6c0.6,0.8,1.7,1.3,2.7,1.2c0.8,0,1.7-0.5,2.3-1.1
			c1-1,1.8-2.5,1.8-3.9c0-1.9-0.8-4-2.2-5.3C186.4,161.2,184.6,160.6,182.9,160.5 M223.8,160.5c-1.7,0-3.5,0.7-4.7,1.8
			c-1.4,1.4-2.2,3.4-2.2,5.3c0,1.4,0.8,2.9,1.8,3.9c0.6,0.6,1.4,1.1,2.3,1.1c1,0,2.1-0.5,2.7-1.2c0.3-0.4,0.4-1.1,0.3-1.6
			c-0.2-0.8-0.8-1.4-1.2-2c-0.3-0.4-0.7-0.7-0.8-1.2c-0.2-0.6-0.3-1.5,0-2c0.5-0.7,1.5-1.1,2.4-1.1c1.4,0,2.8,0.9,3.7,2
			c0.9,1.1,1.6,2.6,1.5,4c-0.1,1.6-0.9,3.1-1.9,4.2c-1.7,1.9-5.3,3.1-6.7,3.8c0,0,6.6-0.2,9.1-2.1c1.7-1.3,2.7-3.5,2.9-5.6
			c0.2-2.4-0.4-5.1-2.1-6.8C229.1,161.3,226.2,160.5,223.8,160.5 M176.5,184.2c0,0,1.9,3,3.4,3.8c1.2,0.7,2.7,0.8,4.1,0.8
			c1.4,0,2.9-0.1,4.1-0.8c1.5-0.8,3.4-3.8,3.4-3.8s-2.3,1.1-3.5,1.4c-2.7,0.5-5.5,0.5-8.1,0C178.8,185.3,176.5,184.2,176.5,184.2
			 M215,184.2c0,0,1.9,3,3.4,3.8c1.2,0.7,2.7,0.8,4.1,0.8c1.4,0,2.9-0.1,4.1-0.8c1.5-0.8,3.4-3.8,3.4-3.8s-2.3,1.1-3.5,1.4
			c-2.7,0.5-5.5,0.5-8.1,0C217.2,185.3,215,184.2,215,184.2"/>
		<g>
			<path class="st0" d="M203.4,15c0,0-0.7,3-1.3,4.5c-0.8,2-3,3.6-3,5.8c-0.1,1.9,1.5,3.4,2.3,5.1c0.7,1.8,2.1,5.3,2.1,5.3
				s1.4-3.5,2.1-5.3c0.7-1.7,2.3-3.3,2.3-5.1c-0.1-2.2-2.2-3.8-3-5.8C204.1,18.1,203.4,15,203.4,15"/>
			<path class="st0" d="M137.4,23.8c-1,0-2.1,0.1-2.1,0.1s4.6,4,6.4,6.3c4.7,6.1,6.4,14.3,11.6,20c1.5,1.6,2.9,3.1,5.3,3.8
				c3,0.8,6.3,0.8,9.3,0c1.7-0.4,3.3-1.4,4.5-2.5c1-0.9,1.7-2.5,2.2-3.4c0.5,0.9,1.2,2.5,2.2,3.4c1.3,1.2,2.9,2.1,4.5,2.5
				c3,0.8,6.4,0.9,9.3,0c3.6-1.1,7.1-3.1,9.3-6.1c1.5-2,2.4-4.6,2.4-7.1c0-3.2-1.3-6.4-2.9-9.2c-1.1-2-2.5-3.9-4.3-5.2
				c-1.8-1.3-3.9-2.4-6.1-2.5c-0.2,0-0.4,0-0.7,0c-1.5,0.1-3.1,0.5-4.3,1.5c-1.3,1.2-2.1,3-2.1,4.8c0,1.9,1.5,3.4,2.2,5.2
				c0.7,1.8,2.2,3.5,2.2,5.4c0,1.3-0.8,2.7-1.7,3.6c-0.7,0.7-2.7,1.3-2.7,1.3s1.3,1.1,2,1.5c0.8,0.3,1.7,0.6,2.5,0.5
				c1.2-0.1,2.3-0.7,3.1-1.5c1.1-1.1,1.4-2.9,2-4.4c0.6-1.4,0.6-3.1,1.6-4.2c0.7-0.8,1.8-1.3,2.9-1.3c1,0,2.1,0.6,2.7,1.4
				c0.8,1.2,0.9,2.8,0.7,4.2c-0.2,1.7-0.9,3.4-2.1,4.7c-2,2.2-4.8,3.9-7.6,4.7c-2.4,0.6-5,0.5-7.4-0.3c-1.8-0.6-3.5-1.8-4.7-3.2
				c-1.5-1.7-3.2-6.2-3.2-6.2s-1.7,4.4-3.2,6.2c-1.3,1.4-2.9,2.7-4.7,3.2c-2.2,0.7-4.7,0.8-6.8,0.1c-1.9-0.6-3.6-2-4.6-3.6
				c-0.6-1-0.8-2.2-0.7-3.3c0-1.1,0.3-2.3,1-3.2c0.4-0.5,1-1,1.7-1.1c0.7-0.1,1.5,0.2,1.9,0.7c1.1,1.4-0.4,3.9,0.6,5.4
				c0.7,1.1,2,1.8,3.3,1.9c1,0.1,2-0.3,2.8-0.8c0.8-0.5,1.9-1.9,1.9-1.9s-1.6-0.8-2-1.6c-0.5-0.7-0.6-1.6-0.6-2.5c0-1.4,1-2.6,0.9-4
				c-0.1-1.3-0.4-2.7-1.3-3.6c-1.1-1.1-2.8-1.7-4.3-1.7c-1.4,0-2.7,0.9-3.7,1.8c-1.6,1.4-2.7,3.3-3.4,5.3c-0.4,1.2-0.6,2.5-0.7,3.7
				c-0.8-2.3-1-4.9-2-7.2c-1.2-2.9-2.1-6.1-4.4-8.2c-2.1-1.9-4.9-2.9-7.7-3.4C138.1,23.8,137.7,23.8,137.4,23.8"/>
			<path class="st0" d="M143.5,35.3c0,0-3.1,5.9-3.7,9.1c-0.6,3.4-0.7,7.1,0.4,10.3c1.2,3.6,3.9,6.6,6.7,9.2
				c2.2,2.1,7.5,4.9,7.5,4.9l0.8-1.4c0,0-0.9-0.8-1.2-1.4c-0.4-0.8-0.8-1.8-0.8-2.7c0-1,0.3-2,0.8-2.9c0.4-0.6,1.8-1.5,1.8-1.5
				s-0.9-0.5-1.3-0.9c-0.3-0.4-0.6-0.8-0.7-1.2c-0.1-0.6,0.2-1.2,0.5-1.7c0.3-0.4,1.4-0.8,1.4-0.8s-3.1-2.1-4.4-3.4
				c-1.7-1.9-3.1-4.1-4.3-6.3C145.6,41.7,143.5,35.3,143.5,35.3 M263.2,35.3c0,0-2.1,6.4-3.6,9.3c-1.2,2.3-2.6,4.5-4.3,6.3
				c-1.3,1.3-4.4,3.4-4.4,3.4s1,0.4,1.4,0.8c0.4,0.5,0.6,1.1,0.5,1.7c0,0.5-0.4,0.9-0.7,1.2c-0.3,0.4-1.3,0.9-1.3,0.9
				s1.4,0.8,1.8,1.5c0.5,0.8,0.8,1.9,0.8,2.9c0,0.9-0.3,1.9-0.8,2.7c-0.3,0.5-1.2,1.4-1.2,1.4l0.8,1.4c0,0,5.3-2.9,7.5-4.9
				c2.7-2.6,5.4-5.6,6.7-9.2c1.1-3.2,1-6.9,0.4-10.3C266.3,41.2,263.2,35.3,263.2,35.3"/>
			<path class="st0" d="M269.3,23.8c-0.3,0-0.6,0-0.9,0.1c-2.7,0.6-5.6,1.5-7.7,3.4c-2.3,2.1-3.2,5.4-4.4,8.2c-1,2.3-1.2,4.9-2,7.2
				c-0.1-1.3-0.3-2.5-0.7-3.7c-0.7-2-1.8-3.9-3.4-5.3c-1-0.9-2.4-1.7-3.7-1.8c-1.5-0.1-3.2,0.6-4.3,1.7c-0.9,0.9-1.2,2.4-1.3,3.6
				c-0.1,1.3,0.9,2.6,0.9,4c0,0.8-0.2,1.8-0.6,2.5c-0.5,0.7-2,1.6-2,1.6s1.1,1.5,1.9,1.9c0.8,0.5,1.9,0.9,2.8,0.8
				c1.3-0.2,2.6-0.9,3.3-1.9c1-1.5-0.5-4,0.6-5.4c0.4-0.5,1.2-0.8,1.9-0.7c0.7,0.1,1.3,0.6,1.7,1.1c0.7,0.9,0.9,2.1,1,3.2
				c0,1.1-0.1,2.4-0.7,3.3c-1,1.7-2.8,3-4.6,3.6c-2.1,0.7-4.6,0.6-6.8-0.1c-1.8-0.6-3.5-1.8-4.7-3.2c-1.5-1.7-3.2-6.2-3.2-6.2
				s-1.7,4.4-3.2,6.2c-1.3,1.4-2.9,2.6-4.7,3.2c-2.3,0.8-5,0.9-7.4,0.3c-2.9-0.8-5.7-2.4-7.6-4.7c-1.1-1.3-1.9-3-2.1-4.7
				c-0.2-1.4-0.2-3.1,0.7-4.2c0.6-0.8,1.7-1.3,2.7-1.4c1.1,0,2.2,0.5,2.9,1.3c1,1.1,1,2.8,1.6,4.2c0.6,1.5,0.9,3.2,2,4.4
				c0.8,0.8,2,1.4,3.1,1.5c0.8,0.1,1.7-0.2,2.5-0.5c0.8-0.3,2-1.5,2-1.5s-2-0.6-2.7-1.3c-0.9-0.9-1.7-2.3-1.7-3.6
				c-0.1-1.9,1.4-3.6,2.2-5.4c0.7-1.7,2.2-3.3,2.2-5.2c0-1.7-0.8-3.6-2.1-4.8c-1.1-1-2.7-1.5-4.3-1.5c-0.2,0-0.4,0-0.7,0
				c-2.2,0.1-4.3,1.2-6.1,2.5c-1.8,1.3-3.2,3.2-4.3,5.2c-1.5,2.8-2.9,6-2.9,9.2c0,2.5,0.9,5.1,2.4,7.1c2.3,2.9,5.8,5,9.3,6.1
				c3,0.9,6.3,0.8,9.3,0c1.7-0.4,3.3-1.4,4.5-2.5c1-0.9,1.7-2.5,2.2-3.4c0.5,0.9,1.2,2.5,2.2,3.4c1.3,1.2,2.9,2.1,4.5,2.5
				c3,0.8,6.3,0.8,9.3,0c2.5-0.7,3.9-2.2,5.3-3.8c5.2-5.7,7.1-14,11.6-20c1.8-2.4,6.4-6.3,6.4-6.3S270.3,23.8,269.3,23.8"/>
			<path class="st0" d="M175.2,27.9c-1,0-1.8,0.8-1.8,1.8c0,1,0.8,1.8,1.8,1.8c1,0,1.8-0.8,1.8-1.8
				C176.9,28.7,176.1,27.9,175.2,27.9"/>
			<path class="st0" d="M231.5,27.9c-1,0-1.8,0.8-1.8,1.8c0,1,0.8,1.8,1.8,1.8s1.8-0.8,1.8-1.8C233.3,28.7,232.5,27.9,231.5,27.9"/>
			<path class="st0" d="M175.2,32.4c-2.1,0-3.7,1.7-3.7,3.7s1.7,3.7,3.7,3.7s3.7-1.7,3.7-3.7S177.2,32.4,175.2,32.4"/>
			<path class="st0" d="M231.5,32.4c-2.1,0-3.7,1.7-3.7,3.7s1.7,3.7,3.7,3.7s3.7-1.7,3.7-3.7S233.6,32.4,231.5,32.4"/>
			<path class="st0" d="M203.4,46.5c0,0-2.1,3-3.4,4.2c-1.4,1.3-4.6,3.2-4.6,3.2h8h8c0,0-3.2-1.9-4.6-3.2
				C205.4,49.5,203.4,46.5,203.4,46.5"/>
			<path class="st0" d="M174.6,50.4c0,0-1.2,1.4-2,2c-0.7,0.6-2.4,1.6-2.4,1.6h4.4h4.4c0,0-1.7-1-2.4-1.6
				C175.9,51.8,174.6,50.4,174.6,50.4"/>
			<path class="st0" d="M232,50.4c0,0-1.2,1.4-2,2c-0.7,0.6-2.4,1.6-2.4,1.6h4.4h4.4c0,0-1.7-1-2.4-1.6
				C233.3,51.8,232,50.4,232,50.4"/>
			<path class="st0" d="M156,55.3c-0.7,0-1.3,0.6-1.3,1.3c0,0.7,0.6,1.3,1.3,1.3h94.8c0.7,0,1.3-0.6,1.3-1.3c0-0.7-0.6-1.3-1.3-1.3
				H156z"/>
			<path class="st0" d="M163.2,59.4v1.4c0.6,0.8,0.9,1.7,0.9,2.7c0,1-0.3,1.9-0.9,2.7v1.4h9.8v-1.4c-0.6-0.8-0.9-1.7-0.9-2.7
				c0-1,0.3-1.9,0.9-2.7v-1.4L163.2,59.4z"/>
			<path class="st0" d="M233.6,59.4v1.4c0.6,0.8,0.9,1.7,0.9,2.7c0,1-0.3,1.9-0.9,2.7v1.4h9.8v-1.4c-0.6-0.8-0.9-1.7-0.9-2.7
				c0-1,0.3-1.9,0.9-2.7v-1.4L233.6,59.4z"/>
			<path class="st0" d="M182.7,59.4v1.4c0.6,0.8,0.9,1.7,0.9,2.7c0,1-0.3,1.9-0.9,2.7v1.4h4.9h4.9v-1.4v-5.4v-1.4h-4.9L182.7,59.4z"
				/>
			<path class="st0" d="M214.2,59.4v1.4v5.4v1.4h4.9h4.9v-1.4c-0.6-0.8-0.9-1.7-0.9-2.7c0-1,0.3-1.9,0.9-2.7v-1.4h-4.9L214.2,59.4z"
				/>
			<path class="st0" d="M156,68.8c-0.7,0-1.3,0.4-1.3,1s0.6,1,1.3,1h94.8c0.7,0,1.3-0.4,1.3-1s-0.6-1-1.3-1H156z"/>
		</g>
	</g>
	<path class="st5" d="M177.7,59.2c-2.4,0-4.4,1.9-4.4,4.4c0,2.4,1.9,4.4,4.4,4.4c2.4,0,4.4-1.9,4.4-4.4
		C182.1,61.1,180.1,59.2,177.7,59.2 M229,59.2c-2.4,0-4.4,1.9-4.4,4.4c0,2.4,1.9,4.4,4.4,4.4c2.4,0,4.4-1.9,4.4-4.4
		C233.3,61.1,231.4,59.2,229,59.2"/>
	<path class="st6" d="M198,65.9v-5.1h12.7"/>
</g>
</svg>
