<!-- Created with Inkscape (http://www.inkscape.org/) -->
<svg xmlns:rdf="http://www.w3.org/1999/02/22-rdf-syntax-ns#" xmlns="http://www.w3.org/2000/svg" height="495" width="464" version="1.1" xmlns:cc="http://creativecommons.org/ns#" xmlns:xlink="http://www.w3.org/1999/xlink" xmlns:dc="http://purl.org/dc/elements/1.1/">
 <metadata>
  <rdf:RDF>
   <cc:Work rdf:about="">
    <dc:format>image/svg+xml</dc:format>
    <dc:type rdf:resource="http://purl.org/dc/dcmitype/StillImage"/>
    <dc:title/>
   </cc:Work>
  </rdf:RDF>
 </metadata>
 <g transform="translate(0,23)">
  <g transform="translate(20.706366,-1.9985183)">
   <path d="M213.75,16.997c41.02-3.855,82.03,8.51,123.05,16.534l79.257,25.371c-20.48,63.938-13.64,130.45-16.47,194.38h-376.24l-8.465-167.13-17.179-20.615,14.876-24.793c19.652-3.176,201.18-32.12,201.17-23.741z" transform="translate(0,-25)" fill="#fcdd09"/>
   <path stroke-linejoin="round" d="m280.56,4.1325-5.0195-3.1149m114.6,28.214-2.1792-1.4267m-6.54-0.46-2.86-2.328m-5.82,1.326-5.79-5.034m-16.175,1.393c-5.5-4.19-7.58-6.254-11.45-8.826m-0.99236,6.7888c-4.0372-4.4803-8.4904-7.48-13.703-10.797m-15.187-3.899c5.4647,4.1209,9.5058,6.7296,16.69,13.251m-27.04-14.92c9.95,7.5833,13.037,11.049,19.028,16.257m-29.38-17.258c6.755,3.6957,14.413,11.907,22.034,19.931m-47.08-23.939,11.68,9.5768m-23.7-11.247,14.67,12.231m-25.94-12.966,10.26,8.9761m-22.368-9.9108,12.256,9.6328m-22.95-9.2986l14.02,12.249m-24.37-11.915c5.7769,4.7117,9.985,7.4624,19.028,16.257m-29.39-15.923c11.203,7.4597,15.825,13.603,23.036,20.265m-33.73-19.931c8.35,6.9843,16.039,12.647,26.042,22.936m-36.05-21.934c13.81,10.21,17.46,14.889,26.31,22.62m-35.01-21.952c12.944,9.5069,18.186,16.036,26.748,23.79m-36.77-22.12c13.93,8.9848,19.7,16.702,29.16,24.792m-39.85-24.792c10.66,8.9721,19.21,15.321,33.06,28.28m-43.41-26.61c15.06,9.6494,23.937,19.819,35.506,29.468m-44.53-28.132c17.79,13.257,25.17,21.308,37.73,31.954m-46.75-30.618c13.134,11.37,26.268,19.297,39.401,34.626m-49.41-33.624,27.04,21.934m-34.73-19.931,21.37,17.927m-31.387-15.923,22.037,18.595m-31.221-15.923,22.371,17.927m-30.053-15.923,26.373,22.603m-34.723-20.265,34.058,29.95m-43.41-27.612c19.253,16.454,37.727,35.244,56.105,54.332m-64.788-51.66c19.702,16.955,39.405,36.43,59.107,56.002m-79.814,145.06,5.0003,4.233m-5.3343-13.251,14.686,12.583m-14.352-21.934,24.706,22.268m-25.71-32.29,26.042,24.28m-26.042-33.63,25.04,23.27m-25.374-33.624,26.376,25.608m-26.042-35.294,30.05,28.28m-31.052-37.298,30.718,27.946m-30.718-36.964,16.356,14.921m-17.024-23.938,8.0062,8.2408m-8.3402-17.259,3.3303,3.231m-3.664-12.92,38.734,35.96m-39.068-45.98,41.74,41.3m-41.74-49.99,45.747,45.65m-45.747-53.997,39.402,37.297m-39.402-45.981,45.413,41.971m-45.747-49.986,49.421,45.316m-50.757-56.004,16.356,13.585m-18.694-24.941,22.368,19.931m-0.825-48.487c15.917,14.295,31.834,28.246,47.751,45.982m-56.435-43.644c18.464,15.259,37.415,32.951,56.769,52.662m-64.451-50.324c21.484,17.598,42.967,39.763,64.451,60.677m-80.482-53.663c23.376,18.197,46.752,40.442,70.128,63.015m-61.612-66.856,67.123,62.681m278.05-71.525-6.8517-6.0692" stroke="#000" stroke-linecap="round" stroke-miterlimit="4" stroke-dasharray="none" stroke-width="2" fill="none"/>
   <path stroke-linejoin="miter" d="M-0.37673,60.745,21.474,30.23c6.5873,6.4768,16.127,3.8261,28.354-0.0871,49.661-15.895,104.12-19.129,159.26-21.01,48.59-1.6575,105.26,6.6535,161.24,20.344,10.341,2.5289,22.577,9.3084,25.241-1.1302l18.46,30.138c-63.93-20.164-130.25-43.595-203.81-40.31-98.25,4.387-162.55,19.829-210.6,42.57z" transform="translate(0,-25)" stroke="#000" stroke-linecap="butt" stroke-miterlimit="4" stroke-dasharray="none" stroke-width="3" fill="#FFF"/>
   <path fill="#000" d="M-17.706,73.554,21.122,28.687-0.37673,61.875c16.69,10.806,19.92,28.342,20.72,47.095,2.0097,76.73,5.0358,151.06,6.0277,221.68-6.842-82.07-11.588-133.43-16.287-212.12,1.042-30.724-10.901-45.233-27.79-44.976z" transform="translate(0,-25)"/>
   <path fill="#000" d="m415.16,59.615-19.574-33.383,44.438,47.698c-26.327-2.3154-33.515,20.712-31.645,51.612-1.9263,32.234-2.9253,65.616-4.4721,98.324-1.7093,36.144,0.47267,91.103-9.8437,131.11-17.091,66.272-65.307,105.81-113.4,126.96-74.853,32.922-147.95,1.8062-184.22-29.385,43.956,28.116,88.759,41.846,134.49,34.659,51.522-8.0964,94.28-30.761,132.23-83.634,25.184-35.084,28.714-89.486,30.138-149.19l3.7673-157.85c-0.72069-13.008,4.4407-27.535,18.083-36.92z" transform="translate(0,-25)"/>
   <path stroke-linejoin="round" d="m395.29,253c-0.29499,53.897-5.2101,102.02-27.58,142.71-29.043,52.839-88.3,93.962-159,93-117.6-1.6-189.42-84.712-185.42-235.71z" transform="translate(0,-25)" stroke="#000" stroke-linecap="round" stroke-miterlimit="4" stroke-dasharray="none" stroke-width="3" fill="#0f47af"/>
   <path id="path3831" stroke-linejoin="round" d="m58.77,290.17-10.003-4.9383-10.341,4.1849,4.9383-10.003-4.1849-10.341,10.003,4.9383,10.341-4.1848-4.9383,10.003z" stroke-dashoffset="0" transform="matrix(0.9137423,0.85170827,-0.85170827,0.91374232,247.381,-34.247599)" stroke="#000" stroke-linecap="round" stroke-miterlimit="4" stroke-dasharray="none" stroke-width="1.60111117" fill="#FFF"/>
   <use xlink:href="#path3831" transform="translate(51.740359,-1.3914565e-4)" height="497" width="427" y="0" x="0"/>
   <use xlink:href="#path3831" transform="translate(102.81536,-1.3914565e-4)" height="497" width="427" y="0" x="0"/>
   <use xlink:href="#path3831" transform="translate(154.30436,-1.3914565e-4)" height="497" width="427" y="0" x="0"/>
   <use xlink:href="#path3831" transform="translate(207.64636,-1.3914565e-4)" height="497" width="427" y="0" x="0"/>
   <use xlink:href="#path3831" transform="translate(258.98136,-1.3914565e-4)" height="497" width="427" y="0" x="0"/>
   <use xlink:href="#path3831" transform="translate(311.22336,-1.3914565e-4)" height="497" width="427" y="0" x="0"/>
   <use xlink:href="#path3831" transform="translate(10.172911,43.700817)" height="497" width="427" y="0" x="0"/>
   <use xlink:href="#path3831" transform="translate(69.354837,43.700861)" height="497" width="427" y="0" x="0"/>
   <use xlink:href="#path3831" transform="translate(125.36436,43.700861)" height="497" width="427" y="0" x="0"/>
   <use xlink:href="#path3831" transform="translate(183.53436,43.700861)" height="497" width="427" y="0" x="0"/>
   <use xlink:href="#path3831" transform="translate(242.25036,43.700861)" height="497" width="427" y="0" x="0"/>
   <use xlink:href="#path3831" transform="translate(300.06636,43.700861)" height="497" width="427" y="0" x="0"/>
   <use xlink:href="#path3831" transform="translate(28.945359,86.047861)" height="497" width="427" y="0" x="0"/>
   <use xlink:href="#path3831" transform="translate(92.417359,86.047861)" height="497" width="427" y="0" x="0"/>
   <use xlink:href="#path3831" transform="translate(154.30436,86.047861)" height="497" width="427" y="0" x="0"/>
   <use xlink:href="#path3831" transform="translate(218.33836,86.047861)" height="497" width="427" y="0" x="0"/>
   <use xlink:href="#path3831" transform="translate(281.62936,86.047861)" height="497" width="427" y="0" x="0"/>
   <use xlink:href="#path3831" transform="translate(60.698359,129.20886)" height="497" width="427" y="0" x="0"/>
   <use xlink:href="#path3831" transform="translate(125.30836,129.20886)" height="497" width="427" y="0" x="0"/>
   <use xlink:href="#path3831" transform="translate(186.79236,129.20886)" height="497" width="427" y="0" x="0"/>
   <use xlink:href="#path3831" transform="translate(250.18236,129.20886)" height="497" width="427" y="0" x="0"/>
   <use xlink:href="#path3831" transform="translate(154.30436,169.21693)" height="497" width="427" y="0" x="0"/>
   <path stroke-linejoin="round" d="m94.751,420.63c4.2675,2.6859,8.5349,4.1986,12.802,5.9298m0.75995,4.242c4.9627,1.9856,9.9482,4.017,13.933,4.0461m-35.777-22.89c5.1587,2.6167,10.488,5.4043,14.686,7.06m-27.119-19.12c8.8202,5.1246,18.7,11.574,23.728,11.958m-69.313-143.81,22.598,20.62m-23.135-28.71,21.256,18.91m-22.221-28.534,10.165,9.3204m-9.7885-16.855,15.816,13.464m-15.816-22.883,21.09,17.985m-1.5004-19.492,7.1514,6.6833m-18.641-6.29,14.686,11.58m12.815,143.63,20.714,12.34m-28.835-26.47c12.061,9.8975,17.839,12.538,26.199,17.81m-31.85-29.3c9.1921,8.8867,14.267,11.708,20.548,15.743m-25.262-27.427c7.5126,8.4802,13.396,11.307,20.364,16.505m-24.536-27.44c8.3089,8.2829,15.232,13.101,22.652,19.162m-25.831-30.25c8.6588,8.9924,14.737,13.684,22.064,20.457m-25.068-31.77c9.4531,9.5944,15.849,14.604,23.562,21.587m-25.667-31.42,21.145,19.35m-22.817-30.43,20.933,20.26m-22.597-29.664,17.7,16.478m-17.795-26.398,22.763,21.349" stroke="#000" stroke-linecap="round" stroke-miterlimit="4" stroke-dasharray="none" stroke-width="2" fill="none"/>
   <path stroke-linejoin="round" d="m217.92,87.481c2.1411-3.9355,4.2822-4.4404,6.4233-5.694,0.85186,1.4739-0.39118,3.957-1.602,6.1184,2.3766-1.8017,1.9614-6.4568,8.9283-5.4529-0.18983,3.3357,0.7697,7.8978,4.0665,7.3983" stroke="#000" stroke-linecap="round" stroke-dasharray="none" stroke-miterlimit="4" stroke-width="2" fill="#FFF"/>
   <path stroke-linejoin="round" d="m214.99,53.916c1.9496,3.0639,2.2436,6.3347,6.7397,9.0802l0.70883-10.682c1.34,3.1927,1.7198,7.0544,6.0187,9.9183,2.3536-4.5957-0.37815-11.365,7.0127-14.071" stroke="#000" stroke-linecap="round" stroke-dasharray="none" stroke-miterlimit="4" stroke-width="2" fill="#FFF"/>
   <path stroke-linejoin="round" d="m88.974,234.61c3.5519,0.95206,6.0524,5.7726,10.656-0.53278,4.3588-5.9707,11.374-3.3234,9.3236,6.3933-1.2258,11.634,13.074,3.7237,14.119-11.188,1.9503,4.686,0.70027,13.936,9.3236,12.52-3.5022-9.2192,6.1625-16.879,7.8017-0.89738,2.8776-3.0238,7.3174-4.7458,2.0547-14.553,6.1382,4.5466,20.663,17.291,18.114,5.3278,8.3928,6.5706,16.813,13.209,17.582,1.0656,9.6704-0.26078,15.898,5.5918,10.656,11.455,6.2121-0.82922,18.38,2.232,7.9917-14.918,6.0873,5.8464,11.488,7.3447,15.451-0.26639l6.127,0.79917c6.6379,12.002,28.062,13.862,41.119,23.183h87c-22.572-25.804-43.145-51.806-68.448-68.735,8.0798,0.5478,17.346,6.3132,22.11-7.7253-19.467,0.38016,4.8064-9.0625-3.1967-25.307,6.006-0.43581,4.6644-6.4804,3.1967-10.656,3.4592-2.861,6.2962-6.7082,2.1311-14.651,4.795,3.5241,10.123,5.8758,14.918-2.3975-2.8307-0.78748-9.0776,1.7212-7.9917-5.5942,2.9048-3.1967,6.1772-6.3933,0.79917-9.59,4.1614-5.0412,3.7269-9.1633,0.79917-12.787,2.6213-2.4709,1.6348-8.1867-2.9303-11.455,4.7377-4.3804,6.9734-8.898-4.795-16.783,8.5678,4.048,15.749,2.1462,11.988-10.389-1.3319,4.1512-12.971,11.383-13.319-8.5245-0.23735-13.563-7.3735-17.456-11.988-15.451-6.9324-5.8858-11.801-3.518-15.184,4.795-11.937-2.9048-23.716-8.559-36.762-5.8606-5.3209,1.1006-7.0253,5.4641-3.9958,8.7908-11.056,2.8612-30.803,0.78995-17.315,17.582-6.6872-2.4659-5.8623,14.523-1.5983,19.979,1.3143,1.6816,19.355-6.2083,29.303-7.7253,2.8843,5.7536,6.1466,11.041,7.4589,20.246,1.228,8.6135-2.4104,18.052-7.9917,22.909-2.9023,2.526-15.289,1.7137-21.311-0.53277-8.4437-3.1497-6.3865,2.2854-7.9917,5.5942-7.7319,0.3375-17.017,2.5713-22.643,8.5245-10.833-8.3559-21.666-15.679-32.499-33.565,3.8676-7.4131,5.558-16.178-3.7315-21.613-3.313,4.1635-1.5109,5.227-6.9499-0.53077,7.058-3.6827-3.3102-9.613,1.0913-12.753-2.3621-3.5517-8.3539-10.283-17.315-3.4631-3.6911-4.3821-9.4821-7.1338-15.451-0.53278-14.049-2.7714-16.759,6.0619-16.25,17.582,3.085,11.416,29.102,29.692,29.867,33.068,2.2336,9.8532,8.6641,16.644,7.1607,28.734,2.3471,0.49377,4.6942,0.68674,7.0413-2.313,0.8897,4.4464-2.6815,12.079,2.8151,13.235,1.7176,14.497,8.8894,20.545,14.385,30.635,2.064,5.8101,3.5876,10.128,9.8564,6.127l0.53277,5.3278c-18.311,7.333-36.663,14.714-59.138,26.905-2.7614,2.8231-22.967-3.5635-26.373,8.5245,5.2209,1.5675,2.5452,6.3935,2.3975,11.988z" transform="translate(0,-25)" stroke="#000" stroke-linecap="round" stroke-miterlimit="4" stroke-dasharray="none" stroke-width="3" fill="#da121a"/>
   <path stroke-linejoin="round" d="M367.29,253c-11.12-16.65-43.02-46.24-44.69-74.6-1.0452-17.735,16.147-35.519,27.438-53.278-5.4236-6.5782-9.1892-15.925-0.2664-35.163,3.7717-8.132,10.719-18.124-5.0614-26.373,3.6155-1.4443,7.3431-2.7344,16.516,3.4631,2.9528-3.2775,12.452-0.90822,11.988,9.3236,6.3261-6.3117,16.011,9.1114,11.455,17.049,8.0613,1.1735,10.692,12.344,0.26639,20.512,13.186,3.6294,3.6596,14.634-0.53278,18.647,1.9942-20.503-9.4056,12.61-21.311-0.79917-10.728,23.729-26.368,35.811-17.848,59.671,1.3697-13.069,16.765-29.111,29.836-17.315,15.659,5.6592,8.5091,18.886,6.127,20.246-5.0358-16.674-15.409-7.168-11.455,5.8606,4.4435,8.6042,1.5142,15.57-3.4631,19.446,8.5848,10.714,13.836,20.502,19.006,33.307z" transform="translate(0,-25)" stroke="#000" stroke-linecap="butt" stroke-miterlimit="4" stroke-dasharray="none" stroke-width="3" fill="#da121a"/>
   <path fill="#FFF" d="m263.48,49.766c0,2.2887-5.9416,6.4864-10.155,6.4864-4.2133,0-5.81-3.0133-5.81-5.302s3.4155-4.144,7.6288-4.144,8.3361,0.67091,8.3361,2.9596z" transform="matrix(0.93209877,0.40088215,0,0.95504275,14.828558,-127.11009)"/>
   <path d="m248.45,19.546c1.3196,0.0568,1.3945-0.63127,2.7313,2.072,1.5651,3.1649-3.6953,1.7412-2.1662,3.8615,0.94203,1.3062,3.4029,2.4386,5.3684,1.2244,2.4693-1.5255,1.9513-4.5739,4.2382-3.5789-1.7823-3.3992-4.8367-5.1033-7.4404-6.5928-2.4126-1.3801-6.686,2.8436-2.7313,3.0138z" fill="#000"/>
   <path stroke-linejoin="round" d="m155.02,201.65c2.3512,0.97597,5.0668,3.7732,7.9178,7.2483" stroke="#000" stroke-linecap="round" stroke-dasharray="none" stroke-miterlimit="4" stroke-width="2" fill="none"/>
   <path stroke-linejoin="round" d="m167.27,200.71c5.9713,1.4718,6.897,5.3304,12.25,7.8134" stroke="#000" stroke-linecap="round" stroke-dasharray="none" stroke-miterlimit="4" stroke-width="2" fill="none"/>
   <path stroke-linejoin="round" d="m83.513,200.48c4.0441-4.6221,9.082,2.7372,6.3406,5.9395-3.9827,4.6523-4.918,8.6979-5.1439,12.786-3.2965-3.2819-7.0457-12.041-1.1967-18.726z" stroke="#000" stroke-linecap="round" stroke-dasharray="none" stroke-miterlimit="4" stroke-width="2" fill="#0f47af"/>
   <path stroke-linejoin="round" d="m101.6,207.38c4.0442-4.6221,10.813,1.8048,8.0721,5.0071-3.9827,4.6523-4.3852,9.0975-4.6111,13.186-3.2965-3.2819-9.31-11.508-3.461-18.193z" stroke="#000" stroke-linecap="round" stroke-dasharray="none" stroke-miterlimit="4" stroke-width="2" fill="#0f47af"/>
   <path stroke-linejoin="round" d="m140.5,209.98c-1.8585-5.8536-9.9516-2.1883-8.7194,1.843,1.7902,5.8567,1.8288,9.5392,0.40112,13.377,4.3338-1.6899,11.006-6.7537,8.3182-15.22z" stroke="#000" stroke-linecap="round" stroke-dasharray="none" stroke-miterlimit="4" stroke-width="2" fill="#0f47af"/>
   <path id="path5214" stroke-linejoin="round" d="m88.091,88.902,16.768,0c-4.253,12.651-3.9495,25.917-4.251,32.591l-8.2659,0.23616c-0.70845-6.2191,0.29669-19.864-4.251-32.827z" transform="translate(0,-25)" stroke="#000" stroke-linecap="round" stroke-miterlimit="4" stroke-dasharray="none" stroke-width="2" fill="#da121a"/>
   <use xlink:href="#path5214" transform="matrix(0.49644244,-0.86806964,0.86806964,0.49644244,-54.67531,144.73689)" height="497" width="427" y="0" x="0"/>
   <use xlink:href="#path5214" transform="matrix(-0.54093,0.84106762,-0.84106762,-0.54093,248.99237,100.85748)" height="497" width="427" y="0" x="0"/>
   <use xlink:href="#path5214" transform="matrix(-0.53642014,-0.84395108,0.84395108,-0.53642014,48.154479,262.99739)" height="497" width="427" y="0" x="0"/>
   <use xlink:href="#path5214" transform="matrix(1,0,0,-1,0.70849623,237.58228)" height="497" width="427" y="0" x="0"/>
   <use xlink:href="#path5214" transform="matrix(0.50068966,0.86562686,-0.86562686,0.50068966,151.46641,-24.042485)" height="497" width="427" y="0" x="0"/>
   <path style="direction:ltr;baseline-shift:baseline;block-progression:tb;text-indent:0;color:#000000;enable-background:accumulate;text-transform:none;text-align:start;" d="m97.328,47.792c-39.305,0-70.951,32.083-70.951,70.935s31.646,70.966,70.951,70.966,70.95-32.113,70.95-70.966c0-38.852-31.646-70.935-70.95-70.935zm-0.167,15.576c32.205,0.167,54.671,26.326,54.823,55.025,0.16699,31.705-26.626,55.839-54.489,55.693-31.871-0.167-55.992-25.992-55.992-54.691,0-30.035,23.453-56.194,55.658-56.027z" stroke="#000" stroke-dasharray="none" stroke-miterlimit="4" stroke-width="3" fill="#da121a"/>
   <path stroke-linejoin="round" d="m128.86,45.875c0.73405-6.0976,8.1621-4.2066,6.2976-0.42588-2.7088,5.4926-3.4549,9.5833-3.6981,13.315-1.6489-3.2904-3.3701-6.4877-2.5995-12.889z" stroke="#000" stroke-linecap="round" stroke-dasharray="none" stroke-miterlimit="4" stroke-width="2" fill="#0f47af"/>
   <path stroke-linejoin="round" d="m114.67,41.834c0.73405-6.0976,8.2953-3.2742,6.4308,0.50648-2.7088,5.4926-1.7234,10.249-1.9666,13.981-2.9808-3.4236-5.2348-8.0861-4.4642-14.487z" stroke="#000" stroke-linecap="round" stroke-dasharray="none" stroke-miterlimit="4" stroke-width="2" fill="#0f47af"/>
   <path stroke-linejoin="round" d="m102.55,42.367c0.73405-6.0976,8.1621-3.9402,6.2976-0.15949-2.7088,5.4926-1.457,10.782-1.7002,14.514-2.5812-3.2904-5.368-7.9529-4.5974-14.354z" stroke="#000" stroke-linecap="round" stroke-dasharray="none" stroke-miterlimit="4" stroke-width="2" fill="#0f47af"/>
   <path style="direction:ltr;baseline-shift:baseline;block-progression:tb;text-indent:0;color:#000000;enable-background:accumulate;text-transform:none;text-align:start;" d="m96.892,96.664c-12.047,0-22.252,9.9034-22.252,22.253,0,12.349,10.205,22.252,22.252,22.252s22.253-9.9034,22.253-22.252-10.205-22.253-22.253-22.253zm0,16.056c3.8746,0,6.5921,2.8278,6.5921,6.1965s-2.7175,6.1965-6.5921,6.1965-6.5921-2.8278-6.5921-6.1965,2.7175-6.1965,6.5921-6.1965z" stroke="#000" stroke-dasharray="none" stroke-miterlimit="4" stroke-width="3" fill="#da121a"/>
   <path id="path4044" transform="matrix(1.4114272,0,0,1.2097948,-16.518179,-49.299592)" fill="#000" d="m42.982,114.17c0,0.91302-0.63442,1.6532-1.417,1.6532-0.78259,0-1.417-0.74015-1.417-1.6532,0-0.91302,0.63442-1.6532,1.417-1.6532,0.78259,0,1.417,0.74015,1.417,1.6532z"/>
   <use xlink:href="#path4044" transform="translate(55.263212,-33.299628)" height="497" width="427" y="0" x="0"/>
   <use xlink:href="#path4044" transform="translate(109.5669,-0.94467033)" height="497" width="427" y="0" x="0"/>
   <use xlink:href="#path4044" transform="translate(110.02439,60.695066)" height="497" width="427" y="0" x="0"/>
   <use xlink:href="#path4044" transform="translate(55.454834,92.577688)" height="497" width="427" y="0" x="0"/>
   <use xlink:href="#path4044" transform="translate(0.17677269,62.348239)" height="497" width="427" y="0" x="0"/>
   <use xlink:href="#path4044" transform="translate(54.916387,42.384646)" height="497" width="427" y="0" x="0"/>
   <use xlink:href="#path4044" transform="translate(65.780095,36.480457)" height="497" width="427" y="0" x="0"/>
   <use xlink:href="#path4044" transform="translate(66.016262,23.491241)" height="497" width="427" y="0" x="0"/>
   <use xlink:href="#path4044" transform="translate(54.444051,17.350884)" height="497" width="427" y="0" x="0"/>
   <use xlink:href="#path4044" transform="translate(42.87184,23.727408)" height="497" width="427" y="0" x="0"/>
   <use xlink:href="#path4044" transform="translate(43.580343,36.716625)" height="497" width="427" y="0" x="0"/>
   <path d="m119.03,147.35c0,9.7172-7.8773,17.594-17.594,17.594-9.7172,0-17.594-7.8773-17.594-17.594,0-9.7172,7.8773-17.594,17.594-17.594,9.7172,0,17.594,7.8773,17.594,17.594z" transform="matrix(1.0426279,0,0,1.0426279,-9.0057409,-34.629245)" stroke="#000" stroke-miterlimit="4" stroke-dasharray="none" stroke-width="1.91822994" fill="none"/>
   <path stroke-linejoin="round" d="m253.83,135.98c-3.6356-7.255,1.0585-10.94,3.1628-15.735,1.0039,4.6874,1.7693,9.812,5.3558,9.7646m19.537-9.7271c6.2369,8.3582,8.6163,13.927,10.356,28.431m-27.389-33.44c0.20901,6.9142-1.6402,15.512,7.889,14.801-3.992-6.2144,1.3264-13.775,0.4943-23.839,1.5617,13.453,3.7829,16.617,7.5626-4.5309,1.2111,4.5142,8.3848,14.346,3.3735-8.7126,6.0755,7.2301,5.0866-0.0049,1.8703-11.801,3.9662,3.8929,7.2431,4.7359,9.8734,1.0584m-104.8,20.346c-7.5174,3.8756-11.728,10.546-13.909,17.98-5.3157,5.9666-5.2737,11.168-4.4368,16.256-3.0596,11.31-8.4571,12.966-11.517,15.656m116.56,6.4742c-3.9451,6.5589-11.031,11.024-20.316,14.023l0.95596-25.522c-2.2224,15.033-18.868,17.374-13.833,26.061-11.348-2.5522-13.696-11.336-13.554-21.843-0.24967,11.019-18.352,11.445-13.368,24.826-6.4593,1.9898-12.44-6.1401-14.001-12.833m-31.534-1.3773c7.6222-3.494,16.433-6.7504,22.045-10.646" stroke="#000" stroke-linecap="round" stroke-dasharray="none" stroke-miterlimit="4" stroke-width="3" fill="none"/>
   <path stroke-linejoin="round" d="m253.83,87.555c11.088-9.3069,13.921-29.126,2.1728-39.203m-8.2978,39.457c9.0101-10.447,7.0169-29.838-0.72344-41.752" stroke="#FFF" stroke-linecap="round" stroke-dasharray="none" stroke-miterlimit="4" stroke-width="2" fill="none"/>
   <path stroke-linejoin="round" d="m199.89,73.666c0.63888,6.9489-1.5706,15.767,10.354,19.205,11.041,3.183,22.122,2.8589,33.232,3.5069,5.3797,0.31379,10.157,2.6015,15.104,6.4568-0.79576,2.5834-2.0188,4.3123-3.5069,5.5109-2.8241-2.9529-5.0164-5.009-10.929-5.2879-13.518-0.63769-22.369,1.006-33.065-0.16699-6.6954-0.73428-13.686-0.80354-18.704-8.0158-5.2916-0.41542-7.5885-5.1013-7.8488-12.191-0.21136-5.7557,9.617-11.464,15.364-9.0178z" transform="translate(0,-25)" stroke="#000" stroke-linecap="round" stroke-miterlimit="4" stroke-dasharray="none" stroke-width="3" fill="#0f47af"/>
   <path stroke-linejoin="round" d="m190.89,56.863c-2.8288,5.5712,0.71768,10.563,2.3059,13.499m48.628,7.0416c-29.69,2.31-50.05-11.836-41.62-25.913m76.332,109.04c2.4734-3.7789,1.0888-11.595-1.8351-23.338m-11.525,33.692c3.0998-7.1227,10.083-8.2259,5.0117-28.014m9.6373,21.306c0.12624,1.9097-1.205,3.0298-2.58,5.7762m-156.4,28.959c0.46023,1.2417,5.1408,1.0258,3.9329,4.7742,0.20594-2.7464,2.8732-3.8666,4.4169-3.7723m119.9-48.429c-4.5496,4.9156-3.543,12.382-3.9159,16.798m-21.685-13.175s-10.778,11.424-5.8151,20.911m-0.86471,20.17c-8.0976,5.2007-25.13-12.534-31.866-9.4819m52.51-42.299c-1.9087,1.9031-3.7534,3.1246-4.5185,7.7399m57.957-96.415c3.7941,3.1923,10.486,9.7245,3.3303,14.587m-53.3,110.94c-14.72,3.3136-4.2914,24.869-22.678,22.955m9.4262-19.54c-7.2259,2.5711-11.789,12.189-27.688,2.582m37.25-163.18-12.48-0.027m-0.70952,24.669-0.032-0.02774m4.4274-0.63823-0.032-0.02774m-1.4331-3.3021-0.032-0.02774m3.3619-3.7017-0.032-0.02774m2.1631,4.1568-0.032-0.02774m2.2963-3.3021-0.032-0.02774m-2.6319-4.1013-0.032-0.02774m-3.8306-0.77143-0.032-0.02774m-7.4269,3.7572-0.032-0.02774m0.89779,5.7551-0.032-0.02774m34.17,46.29c1.1982,1.4467,1.1266,3.7962,0.19486,5.553m-3.3906-4.0461c0.34444,3.1403,0.20953,5.4817-0.94833,6.1181m6.4044-10.451c2.9192,2.4846,1.4334,4.0883,2.0785,6.1181m3.0074-11.957c1.6626,1.0976,3.1128,2.1951,6.2226,3.2927m-9.048-0.09045c1.439,2.1649,3.327,3.7389,6.0342,4.2345m-1.1367-10.262c2.1881,1.1662,3.8758,2.5825,6.976,3.2927m-3.2087-16.102c1.9984-0.18428,4.2967,0.23144,5.8458-0.85138m-6.5993,4.242c1.8964,0.87745,3.8323,1.6363,6.2226,1.0323m-7.3528,4.0536c2.1229,0.88688,2.6194,2.0991,6.976,2.5392m-6.24-15.725c2.2132,0.96982,4.7047,1.2438,7.9178-0.28628m-8.2946-4.988c2.8963,0.0185,5.1446,1.3329,9.4248-1.4165m-10.555-1.9741c3.0642-0.8374,5.1149,0.67726,9.6131-3.4885m-13.757-1.9741c3.8951,0.76676,7.7901,0.32821,11.685-1.4165m-139.02,6.1256c1.6992,0.74991,15.73,0.61001,7.5453-17.587-1.0263-1.3931,3.3178-3.5282,6.1692-1.8699m0.78177,11.841c-7.7884,3.8462-4.4001,10.477-1.1063,14.855-2.7659-2.1136-4.8312-4.4075-11.042-2.5844m-21.562-9.3631c-2.465-6.5626-2.407-13.125,2.6436-19.688m11.295,22.702c-6.9941-8.3398,0.54937-16.157,5.0924-21.76m18.453,42.103c1.5719-1.9905,3.1438-3.6728,4.7156-3.6769m15.258,31.178c-1.1324,1.6816-2.2647,3.3091-3.3971,7.4367m0.94183,6.314c1.3835-4.3084,2.767-6.3596,4.1505-8.1976m-4.5273,16.674c3.056-4.4716,3.362-6.6516,9.2364-13.472m12.94-5.7414c3.0713-1.4796,7.7302-1.0699,12.301-1.6048m-25.436,19.581c2.5095-1.5396,3.6012-3.9141,8.8597-5.4537m-3.579,12.342c-5.6635,2.7764-7.0794,5.781-9.4248,8.0833m19.402,7.1743c-1.0962,3.044-1.7179,6.088-1.3121,9.132m-9.4248,5.3722c1.3588-5.7555,3.248-7.268,5.0924-9.1395m-3.0138-11.392c-4.0206,5.519-8.0413,9.8887-12.062,19.68m34.666-46.428c-5.1241,0.68625-5.632,3.8244-7.7295,6.1181m6.2226-1.2206c-2.8573,2.8181-5.6728,6.1074-8.2946,11.581m6.2161,10.458c-7.6992,13.546-4.3837,21.527,1.454,27.483-0.47183-6.9646,1.466-12.483,3.45-17.974m-27.696,42.292c4.3266,1.0449,8.6636,2.2732,13.192,6.8716m-87.596-2.3508c0.46023,1.2417,0.79891,2.3618,0.75996,3.1043m-5.4691-2.9159c0.82793,1.4191,1.6651,2.815,1.5134,6.6832m-3.0203,8.1976c0.58388-10.537,8.9553-8.9409,13.38-18.934m0.37023,10.27c3.5825,2.4771,7.8729,4.0441,8.1062,10.827m84.005-11.204c2.4888,1.7895,3.7167,3.9232,8.8597,4.988m-22.61-5.1763c2.0699,1.1792,4.1016,1.9397,6.4109,5.7414m-26.566-16.102c3.895,1.4855,7.7901,1.8797,11.685,5.1763m-19.973-4.2345c5.5879,2.1855,10.815,2.7451,17.336,9.132m-26.378-7.8134c3.5183,0.8444,7.0366,0.79589,10.555,3.481m-21.401-2.2567c4.7893,0.68653,9.6053,1.5334,14.887,5.1763m-22.799-1.409c5.6514-2.4161,7.9744-0.17262,11.308,0.65555m191,25.339c0.89003,2.0129,0.79507,4.1022,0.68515,5.3477m-5.3943-10.622c0.89003,2.0129,0.5042,5.6094,0.39428,10.622m-5.6685-16.838c0.89003,2.0129,0.68152,6.1912,0.5716,11.204m-5.8458-16.29c0.89003,2.0129,0.68152,4.6843,0.5716,9.6971m-4.1506-14.03c0.89003,2.0129,0.49315,4.8727,0.38323,9.8855m-39.187-45.487c0.32493,3.5198-0.82541,5.4378-1.6888,7.4367m4.5143-4.988c0.89003,2.0129,1.0582,4.1192,0.94833,9.132m3.9492-6.4949c0.89003,2.0129,1.0582,4.3076,0.94833,9.3204m3.7608-5.3647c0.89003,2.0129,1.2466,4.1192,1.1367,9.132m4.1375-3.8578c0.89003,2.0129,1.0582,3.5541,0.94833,8.5669m14.121,5.7489c0.89003,2.0129,1.0582,6.1912,0.94833,11.204m-4.904-14.595c0.89003,2.0129,1.0582,6.1912,0.94833,11.204m-6.6786-16.761c0.89003,2.0129,1.0582,6.1912,0.94833,11.204m-27.885,22.325-3.9492,1.9741m0.18186-4.0461c-2.2906,1.3811-3.7999,1.9809-5.6445,2.9159m-0.006-4.2345c-1.2142,1.3328-3.2177,2.4143-5.2677,3.481m-0.75996-4.0461c-2.0741,1.4786-3.4656,2.2744-5.0794,3.2927m0.37024-5.7414c-1.8815,3.8523-3.763,3.2755-5.6445,4.4229m1.6888-7.6251c-2.1326,3.8799-4.2653,4.1242-6.3979,5.7414m-12.25-15.348c-1.7186,3.7966-4.6778,4.4917-7.3398,5.9298m11.295-2.7276c-2.4466,4.574-4.8932,4.218-7.3398,6.1182m17.888-1.5032c-2.3838,4.2415-4.7676,4.4645-7.1514,5.9298m38.043,9.3278c-14.749-4.4759-29.7-2.3543-43.36-12.459,2.6676-1.37,5.5581-1.4023,7.7654-5.5337m135.4-145.69c-0.40767,7.491-1.876,14.628-6.7747,20.622m1.6953-29.664c0.12643,8.3865-0.1008,16.136-2.4552,20.057m-9.9834-28.157c2.1412,7.0346,5.0466,12.795,4.3389,24.578m19.207,1.6048c-2.0071,5.7921-4.0141,8.5002-6.0212,10.827m7.5281-4.3287c-0.56225,4.8669-5.2711,7.6045-9.035,10.827m-3.3906,8.0093c3.8907-3.5214,7.7814-5.4213,11.672-4.4303m-21.467,12.153c4.5814-0.21773,9.1628,0.86308,13.744-3.1118m-19.96-12.713c-1.9598,8.6821,1.1574,9.6953,3.5724,11.769m-12.24-18.361c0.97012,6.3337,1.7543,12.929,4.7026,16.478m6.0342,7.0674c-6.7898,16.45-14.967,22.349-19.094,33.432-5.0258,13.497-5.1606,26.861,5.3366,39.933m3.9622-7.06c0.73181,5.4538-0.46561,7.0491-1.1367,9.6971m14.699-11.392c-2.5699,9.9211,8.5981,19.199-4.0594,27.95,7.3007,10.684,14.96,19.653,20.855,32.68m-19.627-44.054c-0.81353,3.6752-1.6976,6.9269-3.0074,7.6251m-4.7091-9.132c3.3088-15.998,0.88912-30.566,21.279-32.685m-143.34-20.63c-3.2169,0.68227-4.5468,2.874-5.2677,5.5531m2.6306-14.03c-4.1259,4.6137-7.9192,9.2274-8.0932,13.841m7.5281-18.927c-3.9672,3.376-5.0067,5.5809-6.5863,8.0018m26.56-3.8578c-4.6515,7.8919-1.6778,9.5194-0.76826,14.547,1.3841-4.4311,2.7682-9.1666,4.1523-10.689m3.0204,15.921c-0.90047,6.273-2.0625,11.631-3.9622,14.406m31.275-8.3786c1.6386,5.4762,4.1225,12.101,7.2329,14.633m-27.2-23.298c2.3505,4.9055,4.0658,10.287,2.4422,18.174m13.569-29.852c3.3635,4.9652,6.7293,9.9288,7.1514,16.855m1.7018-30.417c3.514,4.0586,7.028,7.882,10.542,15.348m-6.2096-27.78c3.0745,4.9474,6.1489,8.802,9.2234,17.043m-4.3259-23.825c2.5841,2.7061,5.2218,4.951,6.845,9.579m-2.3242-18.432c3.3134,2.5615,6.7972,4.5549,8.6583,11.957m-9.2234-21.941c3.7652,1.7937,6.4273,3.8126,10.192,10.092m-69.904,17.786c1.5486-1.2636,2.548-3.6255,2.6306-7.8209m-4.5208,1.4165c-0.004,3.9739-1.5397,4.8836-3.0074,5.9298m0.37023-6.1182c-0.20036,2.4951-2.6359,4.2452-5.8328,5.7414m-5.4626-1.7857c2.2103-0.47565,4.3096-1.395,6.0212-3.8652m-10.919-4.6112c-11.202,5.3018,2.0956,6.8139,7.1514,3.6694m14.699,13.095c3.0451-3.8627,6.2078-7.7255,5.8328-11.588m8.1287-46.077c1.7908,4.9612,4.0143,10.56,3.3616,14.055m-8.8495-17.046c2.4735,4.1373,5.632,10.429,6.024,17.611m-11.87-18.98c11.537-1.0179,19.287,11.262,17.875,23.491-2.213,17.828-11.554,20.254-20.12,21.315m48.793-69.221c1.047,1.2353,1.7972,2.3652,1.6755,4.0329m-3.5592-0.1714c0.93544,2.0394,0.9899,4.0788,0.93533,6.1182m-5.4561-3.481c1.956,1.7467,2.1334,4.3828,1.0778,7.6353,8.2996-4.6449,8.3321-12.669,7.5805-23.556m7.9178,51.71c3.3256,2.0431,6.6513,3.5681,9.9769,8.0018m-10.919-17.985c2.6053,1.1804,5.2566,3.5385,8.8467,7.1809m-33.86-46.844c3.8874,0.07038,8.2601,0.52678,11.505-1.498m-14.768,4.9954c3.6718,0.61135,8.5257,1.8138,9.4118,1.0323m-1.8772,7.0674c1.631-5.3279,3.392-10.397,10.919-16.216m-6.3979,30.532c11.887,1.6396,14.888,12.5,6.4069,8.7901,6.4148,3.2032,5.3035,7.015,5.386,10.656m-49.27-39.035c1.0848,13.237,11.26,10.363,16.758,5.3647m-21.656-1.9741c8.5983-2.9278,5.0236-11.821,13.018-5.2296,4.5485,3.7502,6.3914,9.7065,17.679,6.8269m-33.396,6.473c-4.9841-3.7169-9.4032-4.6162-15.219-6.9875,3.2607,3.3852,8.0586,5.6403,3.8444,9.0255,4.8007-0.59546,7.8916,3.0834,9.8536,9.5848l11.91-1.5m-9.34-23.569c-0.74437-4.099-0.82871-7.7029,4.0304-7.5993m-23.743,42.23c-4.1397-5.7545-6.6942-11.551-1.1574-21.974,3.8642,2.3533,4.3852-4.3031-0.007-0.01033m25.139,66.471c24.791-7.1686,32.064-30.246,18.415-51.021m9.0226-5.9866c-11.489,12.453-26.014,4.666-24.207-7.8656m40.886,30.576c9.0746,7.0888-0.33193,20.858,8.6742,19.263" stroke="#000" stroke-linecap="round" stroke-miterlimit="4" stroke-dasharray="none" stroke-width="2" fill="none"/>
   <path stroke-linejoin="round" d="m154.68,46.94c0.97246,6.0641-6.5714,6.5494-6.545,2.334,0.0383-6.1241-1.876-9.0644-3.2867-12.527,2.9202,2.24,8.662,2.8996,9.8317,10.193z" stroke="#000" stroke-linecap="round" stroke-dasharray="none" stroke-miterlimit="4" stroke-width="2" fill="#0f47af"/>
  </g>
 </g>
</svg>
