<svg height="519.50409" width="500" xmlns="http://www.w3.org/2000/svg" xmlns:xlink="http://www.w3.org/1999/xlink"><clipPath id="a"><path d="m19.842 1224.325h918.426v66.147h-918.426z"/></clipPath><clipPath id="b"><path d="m586.178 1289.755c-6.358-.642-8.593-3.003-10.276-5.508-2.3-3.425-.656-6.576-.656-6.576l-3.427-2.2s2.025-2.507 2.892-4.097c.868-1.591 1.446-2.699 1.446-2.699s1.303 1.927 2.748 1.591c1.447-.339 3.038-1.928 2.17-6.556-.868-4.627-2.714-9.112-2.121-17.883.531-7.856 4.817-13.165 9.061-15.038 7.094-3.131 12.834-3.143 13.333-3.139.496 0 6.237.01 13.329 3.139 4.245 1.873 8.531 7.182 9.063 15.038.592 8.771-1.254 13.256-2.122 17.883-.866 4.628.723 6.217 2.169 6.556 1.447.336 2.749-1.591 2.749-1.591s.579 1.108 1.446 2.699c.867 1.59 2.891 4.097 2.891 4.097l-3.425 2.2s1.644 3.151-.657 6.576c-1.682 2.505-3.918 4.866-10.276 5.508-.303.031-.618.045-.941.045-5.497 0-13.623-4.183-14.226-4.498-.606.315-8.731 4.498-14.229 4.498-.323 0-.637-.014-.941-.045"/></clipPath><clipPath id="c"><path d="m19.842 1224.325h918.426v66.147h-918.426z"/></clipPath><g transform="matrix(1.25 0 0 -1.25 -711.49093 2048.9535)"><g clip-path="url(#a)" transform="matrix(6.3143087 0 0 6.3143087 -3033.3692 -6510.8758)"><path d="m0 0c-1.395.719-9.861 4.949-15.204 4.41-6.659-.673-8.926-3.274-10.528-5.66-.984-1.465-1.278-2.889-1.278-4.066 0-1.191.295-2.096.485-2.563-.411-.264-3.515-2.256-3.515-2.256l.243-.301c.02-.026 2.015-2.502 2.858-4.045l1.714-3.2.323.472c.013.016 1.188 1.725 2.383 1.447.881-.206 2.831-1.217 1.906-6.153l-.698-3.159c-.886-3.738-1.889-7.975-1.428-14.811.544-8.064 5.135-13.204 9.249-15.327 9.002-4.635 18.851-4.765 27.019-.353 3.902 2.109 8.657 7.48 9.211 15.68.461 6.833-.543 11.072-1.429 14.81l-.698 3.16c-.924 4.936 1.026 5.947 1.906 6.153 1.197.278 2.371-1.431 2.384-1.447l.321-.476 1.715 3.204c.842 1.543 2.838 4.019 2.858 4.045l.243.301s-3.072 1.973-3.502 2.248c.182.442.485 1.357.485 2.552 0 1.172-.294 2.601-1.29 4.085-1.602 2.386-3.869 4.987-10.529 5.66-5.343.539-13.809-3.691-15.204-4.41" transform="translate(603.0812 1284.302)"/><path d="m0 0c.604.315 8.727 4.498 14.226 4.498.323 0 .64-.015.942-.045 6.356-.642 8.595-3.002 10.276-5.507.943-1.404 1.224-2.763 1.226-3.877.003-1.603-.568-2.699-.568-2.699l3.424-2.199s-2.024-2.508-2.892-4.097c-.866-1.592-1.445-2.7-1.445-2.7s-1.101 1.629-2.403 1.629c-.115 0-.232-.011-.346-.039-1.163-.271-2.419-1.354-2.414-4.178.001-.684.076-1.473.246-2.376.752-4.014 2.24-7.921 2.235-14.605-.001-1.025-.036-2.114-.114-3.278-.531-7.858-4.947-13.193-9.031-15.397-3.76-2.034-8.089-3.19-12.698-3.19-4.486 0-9.241 1.097-13.995 3.546-4.125 2.127-8.531 7.183-9.063 15.041-.078 1.164-.113 2.253-.114 3.278-.004 6.684 1.484 10.591 2.234 14.605.172.903.246 1.692.247 2.376.006 2.824-1.251 3.907-2.415 4.178-.116.028-.232.039-.346.039-1.301 0-2.402-1.629-2.402-1.629s-.578 1.108-1.445 2.7c-.868 1.589-2.893 4.097-2.893 4.097l3.426 2.199s-.571 1.096-.568 2.699c.002 1.114.283 2.473 1.226 3.877 1.681 2.505 3.918 4.865 10.274 5.507.302.03.617.045.94.045 5.499 0 13.623-4.183 14.23-4.498m14.226 5.192c-5.186 0-12.45-3.512-14.226-4.412-1.776.898-9.054 4.412-14.23 4.412-.341 0-.681-.017-1.007-.048-6.812-.688-9.137-3.36-10.784-5.811-1.919-2.859-1.346-5.536-.943-6.69l-2.941-1.888-.65-.418.487-.603c.019-.024 1.997-2.477 2.824-3.993.853-1.567 1.435-2.678 1.441-2.688l.536-1.027.653.958c.234.344 1.073 1.326 1.826 1.326.067 0 .13-.008.19-.022 1.658-.387 2.257-2.482 1.642-5.751-.192-1.032-.435-2.058-.693-3.144-.891-3.763-1.901-8.027-1.437-14.914.554-8.208 5.24-13.446 9.438-15.61 4.666-2.403 9.481-3.622 14.312-3.622 4.565 0 9.069 1.131 13.029 3.272 2.311 1.249 4.478 3.314 6.098 5.811 1.906 2.937 3.044 6.448 3.293 10.149.466 6.887-.545 11.151-1.436 14.914-.257 1.086-.5 2.112-.694 3.144-.613 3.269-.014 5.364 1.643 5.751.059.014.122.022.189.022.754 0 1.595-.982 1.829-1.326l.653-.957.535 1.026c.007.01.586 1.121 1.441 2.689.827 1.515 2.803 3.968 2.821 3.993l.488.602-.651.418-2.939 1.888c.404 1.154.977 3.831-.943 6.69-1.646 2.451-3.969 5.123-10.782 5.811h-.001-.001c-.328.031-.668.048-1.01.048" transform="translate(603.0812 1283.9125)"/><path d="m0 0 1.724-1.392.998 2.709-2.591.176-.131-1.404" transform="translate(576.0831 1267.3314)"/><path d="m0 0 1.742-1.382.066 1.865-1.577.249z" transform="translate(626.6133 1267.3314)"/><path d="m0 0 1.735-1.382-1.622-.052-.655 1.209z" transform="translate(631.899 1275.6359)"/><path d="m0 0c-.753-1.011-3.723-.076-6.635 2.09-2.914 2.164-4.665 4.741-3.912 5.752.751 1.013 3.722.077 6.635-2.09 2.912-2.166 4.665-4.741 3.912-5.752" transform="translate(592.8704 1228.6501)"/><path d="m0 0c2.76-2.414 4.354-5.107 3.562-6.013-.793-.905-3.673.318-6.433 2.734-2.759 2.415-4.353 5.107-3.56 6.012.793.906 3.671-.318 6.431-2.733" transform="translate(626.1443 1286.5717)"/></g><g clip-path="url(#b)" transform="matrix(6.3143087 0 0 6.3143087 -3033.3692 -6510.8758)"><path d="m0 0h34.174" fill="#fff" stroke="#191a21" stroke-width=".694" transform="translate(571.2628 1239.7357)"/><path d="m603.707 1225.557h-33.145v66.42h33.145z" fill="#009bdf"/><path d="m0 0h34.174" fill="#fff" stroke="#191a21" stroke-width=".694" transform="translate(571.2628 1225.2092)"/><path d="m0 0h34.175" fill="#fff" stroke="#191a21" stroke-width=".694" transform="translate(571.2628 1227.0254)"/><path d="m0 0 13.401-6.682 4.34-14.433-12.784 6.098z" fill="#fff" transform="translate(589.0873 1293.1024)"/><path d="m0 0 13.401-6.682 4.34-14.433-12.784 6.098z" fill="none" stroke="#fff" stroke-width=".208" transform="translate(589.0873 1293.1024)"/><path d="m0 0 13.054-5.578 4.954-14.736-13.432 5.7z" fill="#fff" transform="translate(581.9116 1245.6012)"/><path d="m0 0 13.054-5.578 4.954-14.736-13.432 5.7z" fill="none" stroke="#fff" stroke-width=".186" transform="translate(581.9116 1245.6012)"/><path d="m0 0 13.152-6.678 4.541-13.933-16.535 7.35z" fill="#fff" transform="translate(564.1516 1266.3479)"/><path d="m0 0 13.152-6.678 4.541-13.933-16.535 7.35z" fill="none" stroke="#fff" stroke-width=".208" transform="translate(564.1516 1266.3479)"/><path d="m0 0 13.32-5.883 4.323-14.832-12.852 6.219z" fill="#fff" transform="translate(590.3202 1254.3981)"/><path d="m0 0 13.32-5.883 4.323-14.832-12.852 6.219z" fill="none" stroke="#fff" stroke-width=".208" transform="translate(590.3202 1254.3981)"/><path d="m0 0 14.6-6.411 4.974-15.276-13.655 6.721z" fill="#fff" transform="translate(570.9194 1275.7781)"/><path d="m0 0 14.6-6.411 4.974-15.276-13.655 6.721z" fill="none" stroke="#fff" stroke-width=".124" transform="translate(570.9194 1275.7781)"/><path d="m0 0 13.402-6.682 4.34-14.432-12.784 6.098z" fill="#fff" transform="translate(563.0235 1304.8506)"/><path d="m0 0 13.402-6.682 4.34-14.432-12.784 6.098z" fill="none" stroke="#fff" stroke-width=".208" transform="translate(563.0235 1304.8506)"/><path d="m0 0 13.157-5.58 5.08-15.331-13.457 6.476z" fill="#fff" transform="translate(580.7626 1283.7432)"/><g fill="none"><path d="m0 0 13.157-5.58 5.08-15.331-13.457 6.476z" stroke="#fff" stroke-width=".186" transform="translate(580.7626 1283.7432)"/><path d="m0 0 13.286-6.497 4.675-14.159-13.076 5.661z" stroke="#000" stroke-width=".208" transform="translate(594.0977 1277.9652)"/><path d="m0 0 13.287-6.496 4.675-14.162-13.077 5.661z" stroke="#000" stroke-width=".208" transform="translate(585.5427 1269.3083)"/><path d="m0 0 13.287-6.497 4.674-14.16-13.076 5.662z" stroke="#000" stroke-width=".208" transform="translate(567.4048 1290.1635)"/><path d="m0 0 13.287-6.496 4.674-14.161-13.075 5.662z" stroke="#000" stroke-width=".208" transform="translate(575.9598 1298.8203)"/><path d="m0 0 13.287-6.496 4.675-14.161-13.077 5.66z" stroke="#000" stroke-width=".208" transform="translate(577.0049 1260.6808)"/><path d="m0 0 13.287-6.495 4.674-14.162-13.076 5.66z" stroke="#000" stroke-width=".208" transform="translate(595.1474 1239.8025)"/><path d="m0 0 13.286-6.497 4.552-14.227-13.076 5.66z" stroke="#000" stroke-width=".208" transform="translate(568.5386 1252.0842)"/></g></g><g clip-path="url(#c)" transform="matrix(6.3143087 0 0 6.3143087 -3033.3692 -6510.8758)"><path d="m0 0c0-.172-.039-28.13-.039-28.13.536.08 6.193.12 13.209 3.219 3.804 1.679 8.445 6.604 9.012 14.963.242 3.599.103 6.784-.435 10.02 0 0-21.575-.072-21.747-.072" fill="#fd0" transform="translate(601.4727 1255.7798)"/><path d="m0 0h21.6c.517-3.184.648-6.318.408-9.854-.243-3.602-1.319-6.949-3.109-9.68-1.567-2.387-3.644-4.238-5.849-5.212-6.534-2.884-11.842-3.113-13.088-3.124zm21.747.173h-21.919l-.04-28.216c.017-.001.04-.001.069-.001.819 0 6.41.116 13.261 3.14 4.247 1.874 8.533 7.181 9.065 15.038.078 1.167.113 2.257.114 3.283 0 2.622-.228 4.815-.55 6.756" fill="#191a21" transform="translate(601.5579 1255.6917)"/><path d="m0 0c0-.106.004-29.365.004-29.367.003.086 21.787.088 21.828.088-.105.009-1.066 4.567-1.066 4.567l-.701 3.172c-.176.932-.25 1.735-.25 2.426 0 3.244 1.656 4.037 2.483 4.231 1.357.315 2.515-1.18 2.756-1.516.118.22 1.383 2.581 1.383 2.581.859 1.575 2.867 4.07 2.898 4.108-.055-.076-3.402 2.073-3.402 2.073-.014.144 1.56 3.262-.685 6.602-1.615 2.41-3.735 4.817-10.211 5.469-5.277.534-13.933-3.861-15.037-4.434" transform="translate(601.4691 1285.2338)"/><path d="m0 0c1.239.64 8.829 4.444 14.021 4.444.311 0 .62-.015.922-.044h-.001c6.437-.649 8.543-3.039 10.149-5.431 2.213-3.295.662-6.37.648-6.401-.042-.08-.015-.178.059-.226l3.264-2.095c-.453-.568-2.036-2.59-2.788-3.973-.624-1.142-1.102-2.045-1.319-2.456-.369.466-1.294 1.478-2.378 1.478-.132 0-.261-.014-.385-.044-1.026-.239-3.308-1.378-2.3-6.755.197-1.05.442-2.083.702-3.177.33-1.394.671-2.833.95-4.461l-21.54-.001zm14.021 4.617c-5.494 0-13.591-4.197-14.194-4.512l.002-29.421h.175l21.569.001h.003.174c-.501 3.007-1.229 5.406-1.686 7.844-.17.904-.246 1.692-.248 2.376-.006 2.824 1.252 3.907 2.416 4.179.115.027.232.039.345.039 1.052 0 1.976-1.068 2.289-1.474.004-.006.008-.011.012-.017.067-.086.103-.139.103-.139s.027.053.08.153c.002.006.006.012.009.019.195.371.691 1.307 1.356 2.527.746 1.37 2.352 3.418 2.783 3.961l.001.001c.069.087.108.136.108.136l-3.426 2.198s.572 1.096.568 2.699c-.002 1.115-.282 2.473-1.225 3.878-1.681 2.507-3.92 4.867-10.275 5.508-.303.029-.618.044-.939.044" fill="#191a21" transform="translate(601.5555 1285.1812)"/><path d="m0 0s3.65.719 6.993 3.439c2.364 1.924 4.104 7.343 6.995 11.101 2.892 3.759 6.188 4.685 8.615 7.287 2.43 2.601 3.991 6.533 5.897 9.076 1.91 2.545 5.148 3.991 7.17 6.94 2.024 2.949 1.33 3.122 3.816 6.244 2.487 3.122 5.61 4.048 5.61 4.048s-1.385 2.55-2.302 3.381c-1.6 1.452-3.712 2.401-3.712 2.401s-3.122-.926-5.609-4.048c-2.485-3.122-1.791-3.296-3.816-6.244-2.024-2.949-5.261-4.395-7.169-6.939-1.909-2.544-3.47-6.474-5.897-9.077-2.429-2.602-5.724-3.528-8.615-7.286-2.891-3.759-4.626-9.715-6.997-11.102s-4.222-1.677-4.222-1.677.754-3.041 1.015-3.685c.262-.646 2.228-3.859 2.228-3.859" fill="#fff" transform="translate(582.3714 1235.1171)"/><path d="m0 0s3.65.719 6.993 3.439c2.364 1.924 4.104 7.343 6.995 11.101 2.892 3.759 6.188 4.685 8.615 7.287 2.43 2.601 3.991 6.533 5.897 9.076 1.91 2.545 5.148 3.991 7.17 6.94 2.024 2.949 1.33 3.122 3.816 6.244 2.487 3.122 5.61 4.048 5.61 4.048s-1.385 2.55-2.302 3.381c-1.6 1.452-3.712 2.401-3.712 2.401s-3.122-.926-5.609-4.048c-2.485-3.122-1.791-3.296-3.816-6.244-2.024-2.949-5.261-4.395-7.169-6.939-1.909-2.544-3.47-6.474-5.897-9.077-2.429-2.602-5.724-3.528-8.615-7.286-2.891-3.759-4.626-9.715-6.997-11.102s-4.222-1.677-4.222-1.677.754-3.041 1.015-3.685c.262-.646 2.228-3.859 2.228-3.859z" fill="none" stroke="#000" stroke-width=".295" transform="translate(582.3714 1235.1171)"/><path d="m0 0c.614.319 8.94 4.478 14.448 4.478.246 0 .486-.008.721-.025 6.408-.473 8.595-3 10.275-5.507.943-1.405 1.224-2.763 1.226-3.878.003-1.603-.568-2.699-.568-2.699l3.425-2.198s-2.024-2.507-2.892-4.099c-.867-1.59-1.444-2.698-1.444-2.698s-1.104 1.629-2.404 1.629c-.113 0-.23-.011-.345-.039-1.164-.271-2.422-1.354-2.416-4.178.002-.684.078-1.473.248-2.376.75-4.014 2.238-7.92 2.234-14.607 0-1.024-.035-2.113-.113-3.278-.533-7.856-4.818-13.164-9.065-15.037-6.852-3.026-12.441-3.14-13.26-3.14-.031 0-.052 0-.07.001-.018-.001-.039-.001-.07-.001-.821 0-6.408.114-13.262 3.14-4.243 1.873-8.53 7.181-9.061 15.037-.078 1.165-.113 2.254-.114 3.278-.005 6.687 1.483 10.593 2.235 14.607.17.903.245 1.692.246 2.376.006 2.824-1.252 3.907-2.415 4.178-.116.028-.233.039-.346.039-1.302 0-2.403-1.629-2.403-1.629s-.578 1.108-1.444 2.698c-.868 1.592-2.892 4.099-2.892 4.099l3.426 2.198s-.573 1.096-.57 2.699c.002 1.115.283 2.473 1.226 3.878 1.681 2.507 3.89 5.301 10.276 5.507.113.004.229.005.344.005 5.573 0 14.197-4.131 14.824-4.458m14.448 5.172c-5.219 0-12.821-3.597-14.453-4.399-1.681.8-9.506 4.379-14.819 4.379-.123 0-.245-.001-.365-.005-6.537-.211-8.935-2.989-10.831-5.814-1.92-2.86-1.347-5.537-.943-6.692l-2.939-1.886-.651-.418.488-.603c.017-.024 1.994-2.476 2.821-3.993.854-1.567 1.434-2.678 1.441-2.688l.534-1.027.654.958c.234.344 1.075 1.325 1.828 1.325.066 0 .13-.007.19-.021 1.657-.387 2.257-2.482 1.642-5.751-.193-1.033-.436-2.058-.693-3.144-.892-3.763-1.902-8.027-1.436-14.915.252-3.749 1.377-7.24 3.249-10.096 1.658-2.525 3.868-4.49 6.224-5.529 6.897-3.045 12.491-3.199 13.541-3.199.026 0 .049 0 .069.001.021-.001.043-.001.071-.001 1.05 0 6.644.154 13.541 3.199 4.003 1.766 8.886 6.919 9.476 15.625.463 6.888-.545 11.152-1.438 14.914-.258 1.087-.501 2.112-.693 3.145-.615 3.269-.016 5.365 1.643 5.751.059.014.123.021.188.021.753 0 1.594-.981 1.829-1.326l.652-.954.536 1.024c.006.01.587 1.121 1.44 2.688.827 1.517 2.805 3.969 2.822 3.993l.488.603-.65.418-2.94 1.886c.403 1.155.976 3.832-.943 6.692-1.712 2.553-4.101 5.317-10.801 5.812h-.002l-.001.001c-.248.016-.507.026-.769.026" transform="translate(601.3458 1285.3005)"/><path d="m0 0c.039 0 .078.009.116.028.083.044 8.871 4.441 14.471 4.441.199 0 .391-.005.569-.016 6.209-.36 8.313-2.759 10.084-5.397 2.184-3.256.657-6.295.643-6.325-.059-.114-.023-.254.086-.323l3.193-2.05c-.512-.646-2.015-2.581-2.743-3.92-.579-1.058-1.03-1.91-1.269-2.357-.414.502-1.314 1.418-2.363 1.418-.139 0-.274-.015-.401-.046-1.049-.244-3.379-1.401-2.356-6.842.198-1.055.443-2.091.703-3.188.876-3.697 1.869-7.89 1.414-14.633-.243-3.59-1.315-6.923-3.098-9.643-1.56-2.376-3.626-4.219-5.819-5.185-6.721-2.97-12.143-3.119-13.16-3.119h-.051-.036-.053c-1.018 0-6.439.149-13.161 3.119-2.192.966-4.257 2.809-5.817 5.185-1.784 2.72-2.855 6.053-3.097 9.643-.456 6.746.537 10.936 1.415 14.634.258 1.097.504 2.133.701 3.187 1.023 5.441-1.308 6.598-2.356 6.843-.129.03-.264.045-.402.045-1.049 0-1.948-.916-2.364-1.418-.237.448-.689 1.299-1.267 2.358-.728 1.338-2.231 3.273-2.743 3.919l3.193 2.05c.108.069.145.209.086.323-.014.03-1.541 3.069.643 6.325 1.738 2.59 3.948 5.141 10.082 5.397.133.006.274.009.429.009 5.727 0 14.529-4.39 14.613-4.434.037-.019.076-.028.115-.028m14.587 4.716c-5.511 0-13.969-4.146-14.587-4.468-.623.324-9.153 4.461-14.728 4.461-.148 0-.295-.002-.44-.008-6.385-.267-8.595-3.001-10.276-5.507-.943-1.405-1.224-2.764-1.226-3.879-.003-1.602.57-2.698.57-2.698l-3.426-2.199s.055-.07.153-.193c0-.001 0-.001.002-.001.489-.62 2.014-2.579 2.737-3.904.624-1.146 1.099-2.042 1.316-2.453.005-.009.009-.018.014-.026.074-.143.114-.219.114-.219s.054.077.148.199c.006.006.012.013.018.02.354.445 1.236 1.41 2.237 1.41.113 0 .23-.012.346-.039 1.163-.271 2.421-1.354 2.415-4.178-.001-.685-.076-1.473-.246-2.377-.752-4.013-2.24-7.919-2.235-14.606.001-1.024.036-2.113.114-3.278.531-7.856 4.818-13.164 9.061-15.038 6.854-3.025 12.441-3.14 13.262-3.14.031 0 .052 0 .07.002.018-.002.039-.002.07-.002.819 0 6.408.115 13.26 3.14 4.247 1.874 8.532 7.182 9.065 15.038.078 1.165.113 2.254.113 3.278.004 6.687-1.484 10.593-2.234 14.606-.17.904-.246 1.692-.248 2.377-.006 2.824 1.252 3.907 2.416 4.178.115.027.232.039.345.039 1.001 0 1.884-.965 2.238-1.41.006-.007.012-.014.017-.021.096-.121.149-.198.149-.198s.04.076.114.219c.005.008.009.017.014.026.217.411.692 1.307 1.316 2.453.723 1.325 2.248 3.284 2.737 3.904 0 0 .002 0 .002.001.098.123.153.193.153.193l-3.425 2.199s.571 1.096.568 2.698c-.002 1.115-.283 2.474-1.226 3.879-1.68 2.506-3.826 5.133-10.275 5.507-.19.011-.385.015-.582.015" fill="#fff" transform="translate(601.3458 1285.0529)"/></g></g></svg>