<?xml version="1.0" encoding="utf-8"?>
<!-- Generator: Adobe Illustrator 18.0.0, SVG Export Plug-In . SVG Version: 6.00 Build 0)  -->
<!DOCTYPE svg PUBLIC "-//W3C//DTD SVG 1.1//EN" "http://www.w3.org/Graphics/SVG/1.1/DTD/svg11.dtd" [
	<!ENTITY st0 "fill:#FFFFFF;">
	<!ENTITY st1 "fill:#DA121A;stroke:#000000;stroke-width:1.958;">
	<!ENTITY st2 "fill:none;stroke:#000000;stroke-width:2.5;stroke-linecap:round;stroke-linejoin:round;">
	<!ENTITY st3 "fill:none;stroke:#000000;stroke-width:2;stroke-linecap:round;stroke-linejoin:round;">
	<!ENTITY st4 "fill:none;stroke:#000000;stroke-width:3.5;stroke-linecap:round;stroke-linejoin:round;">
	<!ENTITY st5 "fill:#DA121A;">
	<!ENTITY st6 "fill:none;stroke:#000000;stroke-width:3;stroke-linecap:round;stroke-linejoin:round;">
	<!ENTITY st7 "fill:none;stroke:#000000;stroke-width:3;">
	<!ENTITY st8 "fill:none;stroke:#000000;stroke-width:1.958;stroke-miterlimit:10;">
]>
<svg version="1.1" id="Ebene_1" xmlns="http://www.w3.org/2000/svg" xmlns:xlink="http://www.w3.org/1999/xlink" x="0px" y="0px"
	 width="544.25px" height="581.1px" viewBox="0 0 544.25 581.1" style="enable-background:new 0 0 544.25 581.1;"
	 xml:space="preserve">
<path d="M458.834,28.566c8.272,2.24,20.553,6.641,25.154,3.684c3.131-2.006,4.307-5.221,4.209-9.586
	c-0.586-3.75,1.713-2.314,3.18-0.387c14.684,21.029,23.98,35.984,48.939,56.33c3.426,2.789,2.449,3.426-1.957,3.426
	c-29.363,0-33.279,15.66-33.279,47.471c0,0-7.34,154.943-10.766,232.462c-1.957,40.18-9.395,65.336-26.328,98.174
	c-15.223,29.463-37.586,53.541-65.041,74.584c-30.441,23.002-83.443,43.066-124.211,43.066c-49.381,0-101.308-20.064-135.613-46.004
	c-33.474-25.447-63.327-59.02-79.33-101.158c-9.152-24.176-11.354-43.164-13.37-73.066L34.643,123.191
	C29.377,87.906,27.908,83.99,5.397,80.076c-4.406-0.785-4.614-1.371-0.98-4.895c22.616-21.828,32.521-40.053,42.089-53.344
	c1.469-2.076,3.044-4.436,2.937-0.031c-0.122,4.943,1.479,9.998,5.833,11.012c3.573,0.842,8.907-1.311,13.753-2.691
	C199.206-7.066,340.154-3.641,458.834,28.521v0.029V28.566z"/>
<path style="&st0;" d="M45.934,32.1c5.329,9.807,14.039,5.363,27.449,1.771C214.672-4.004,364.967,5.529,467.789,34.934
	c13.703,3.91,16.199,5.328,23.588-2.441l23.004,33.895c-92.008-47.473-308.029-91.813-492.336-0.148L45.934,32.1z"/>
<path style="&st0;" d="M483.377,289.481l-1.79,62.71c0,27.89-5.53,55.79-16.24,81.58c-10.67,25.74-26.43,49.38-46.2,69.15
	c-19.73,19.58-43.36,35.73-69.11,46c-25.79,10.77-53.68,16.16-81.58,16.16s-55.79-5.39-81.58-16.16
	c-25.74-10.27-49.38-26.42-69.1-46c-19.78-19.77-35.54-43.41-46.2-69.15c-10.72-25.79-16.25-53.69-16.25-81.58l-1.51-62.71H483.377z
	"/>
<path style="&st1;" d="M513.397,66.871l-0.97,0.34c-28.15,11.75-23.49,41.21-24.47,62.3l-4.58,159.97H53.817l-3.91-161.78
	c-0.13-21.14-1.17-50.99-25.28-60.44l-1.11-0.64C207.967-24.008,421.247,19.891,513.397,66.871z"/>
<path style="&st0;" d="M268.452,28.973c-67.29,0-121.85,54.55-121.85,121.85c0,67.3,54.56,121.86,121.85,121.86
	c67.3,0,121.86-54.56,121.86-121.86C390.312,83.523,335.752,28.973,268.452,28.973z M278.582,71.843v-0.01
	c5.63,0.73,8.43-4.08,9.2-7.52c17.97,4,33.89,13.45,45.93,26.53c-2.6,2.39-5.36,7.2-1.91,11.72c-6.74-1.54-15.52,2-21.39,5.39
	c-6.03,3.48-10.39,9.63-13.79,18.27c-5.35-6.11-12.66-10.47-20.94-12.09c5.77-7.27,8.92-14.11,8.92-21.07
	C284.602,86.283,283.282,76.913,278.582,71.843z M249.132,64.313c0.77,3.44,3.57,8.25,9.2,7.52v0.01
	c-4.7,5.07-6.02,14.44-6.02,21.22c0,6.96,2.99,13.83,8.77,21.1c-8.16,1.67-15.51,6.02-20.79,12.06
	c-3.41-8.64-7.76-14.79-13.79-18.27c-5.87-3.39-14.66-6.93-21.39-5.39c1.16-1.52,1.62-3.07,1.62-4.55c0-2.93-1.8-5.58-3.53-7.17
	C215.242,77.763,231.162,68.313,249.132,64.313z M187.442,176.803c-1.29,0-2.53,0.22-3.57,0.54c-2.62-8.37-4.04-17.28-4.04-26.52
	c0-9.24,1.42-18.15,4.04-26.52c3.37,1.05,8.92,1.04,11.12-4.2c2.04,6.6,9.5,12.43,15.36,15.82c6.03,3.48,13.53,4.18,22.72,2.81
	c-1.3,3.79-2,7.86-2,12.09c0,4.23,0.7,8.3,2,12.09c-9.19-1.37-16.69-0.67-22.72,2.81c-5.86,3.39-13.33,9.23-15.36,15.83
	C193.472,177.923,190.342,176.803,187.442,176.803z M258.332,229.803v0.01c-5.63-0.73-8.43,4.08-9.2,7.52
	c-17.97-4-33.89-13.44-45.93-26.53c2.6-2.39,5.36-7.2,1.91-11.72c6.73,1.54,15.52-2,21.39-5.39c6.03-3.48,10.39-9.63,13.79-18.27
	c5.35,6.11,12.66,10.47,20.94,12.09c-5.78,7.27-8.92,14.11-8.92,21.08C252.312,215.363,253.632,224.743,258.332,229.803z
	 M247.682,150.823c0-11.47,9.3-20.77,20.77-20.77c11.48,0,20.78,9.3,20.78,20.77c0,11.47-9.3,20.77-20.78,20.77
	C256.982,171.593,247.682,162.293,247.682,150.823z M287.782,237.333c-0.771-3.44-3.57-8.25-9.2-7.52v-0.01
	c4.7-5.061,6.02-14.44,6.02-21.21c0-6.97-3.14-13.81-8.92-21.08c8.28-1.62,15.59-5.98,20.94-12.09c3.4,8.64,7.76,14.79,13.79,18.27
	c5.87,3.39,14.65,6.93,21.39,5.39c-1.16,1.52-1.62,3.07-1.62,4.55c0,2.93,1.8,5.58,3.53,7.17
	C321.672,223.893,305.752,233.333,287.782,237.333z M353.062,177.263c-3.36-1.06-8.95-0.95-11.14,4.29
	c-2.03-6.6-9.5-12.44-15.37-15.83c-6.02-3.48-13.52-4.18-22.71-2.81c1.3-3.79,2-7.86,2-12.09c0-4.23-0.7-8.3-2-12.09
	c9.19,1.37,16.69,0.67,22.71-2.81c5.87-3.39,13.33-9.22,15.37-15.82c2.2,5.24,7.75,5.25,11.12,4.2c2.62,8.37,4.04,17.28,4.04,26.52
	C357.082,160.003,355.652,168.933,353.062,177.263z"/>
<g>
	<circle style="&st2;" cx="268.457" cy="150.828" r="20.771"/>
	<circle style="&st2;" cx="268.457" cy="150.828" r="37.387"/>
	<circle style="&st2;" cx="268.457" cy="150.828" r="88.622"/>
	<circle style="&st3;" cx="268.457" cy="150.828" r="112.855"/>
	<circle style="&st4;" cx="268.457" cy="150.828" r="121.855"/>
	<circle style="&st3;" cx="268.457" cy="50.09" r="3.462"/>
	<circle style="&st3;" cx="268.457" cy="251.566" r="3.462"/>
	<circle style="&st3;" cx="181.215" cy="100.459" r="3.462"/>
	<circle style="&st3;" cx="355.699" cy="201.197" r="3.462"/>
	<circle style="&st3;" cx="181.215" cy="201.197" r="3.462"/>
	<circle style="&st3;" cx="355.699" cy="100.459" r="3.462"/>
	<path style="&st3;" d="M261.234,114.138c-5.778-7.272-8.925-14.114-8.925-21.075c0-6.778,1.327-16.16,6.025-21.221"/>
	<path style="&st3;" d="M275.68,114.138c5.778-7.272,8.925-14.114,8.925-21.075c0-6.778-1.327-16.16-6.025-21.221"/>
	<path style="&st3;" d="M261.234,187.518c-5.778,7.272-8.925,14.114-8.925,21.075c0,6.778,1.327,16.16,6.025,21.221"/>
	<path style="&st3;" d="M275.68,187.518c5.778,7.272,8.925,14.114,8.925,21.075c0,6.778-1.327,16.16-6.025,21.221"/>
	<path style="&st3;" d="M233.071,138.738c-9.187,1.367-16.685,0.672-22.714-2.808c-5.87-3.389-13.331-9.229-15.366-15.828"/>
	<path style="&st3;" d="M240.294,126.228c-3.409-8.64-7.76-14.786-13.789-18.266c-5.87-3.389-14.658-6.931-21.39-5.393"/>
	<path style="&st3;" d="M296.62,175.428c3.409,8.64,7.76,14.786,13.789,18.266c5.87,3.389,14.658,6.931,21.39,5.393"/>
	<path style="&st3;" d="M303.843,162.918c9.187-1.367,16.685-0.672,22.714,2.808c5.87,3.389,13.331,9.229,15.366,15.828"/>
	<path style="&st3;" d="M240.294,175.428c-3.409,8.64-7.76,14.786-13.789,18.266c-5.87,3.389-14.658,6.931-21.39,5.393"/>
	<path style="&st3;" d="M233.071,162.918c-9.187-1.367-16.685-0.672-22.714,2.808c-5.87,3.389-13.331,9.229-15.366,15.828"/>
	<path style="&st3;" d="M303.843,138.738c9.187,1.367,16.685,0.672,22.714-2.808c5.87-3.389,13.331-9.229,15.366-15.828"/>
	<path style="&st3;" d="M296.62,126.228c3.409-8.64,7.76-14.786,13.789-18.266c5.87-3.389,14.658-6.931,21.39-5.393"/>
	<path style="&st3;" d="M302.627,61.574c9.497,3.638,18.273,8.74,26.034,15.044c5.003,4.059,7.795,11.705,5.055,14.223
		c-2.597,2.387-5.36,7.208-1.917,11.728l-0.002,0.001c2.022,2.661,3.899,5.478,5.613,8.448s3.216,6.004,4.509,9.085l0.002-0.001
		c2.192,5.242,7.749,5.259,11.115,4.204c3.551-1.114,8.782,5.126,9.795,11.489c0.774,4.897,1.17,9.919,1.17,15.034
		c0,5.115-0.396,10.137-1.17,15.034c-1.014,6.362-6.244,12.602-9.795,11.488c-3.366-1.056-8.923-1.038-11.115,4.204l-0.002-0.001
		c-1.293,3.081-2.795,6.115-4.509,9.085s-3.592,5.787-5.613,8.448l0.002,0.001c-3.443,4.519-0.68,9.34,1.917,11.728
		c2.74,2.519-0.052,10.164-5.055,14.223c-7.761,6.304-16.537,11.406-26.034,15.044c-6.017,2.303-14.038,0.888-14.849-2.744
		c-0.769-3.443-3.563-8.246-9.198-7.524l0-0.002c-3.315,0.421-6.694,0.637-10.123,0.637c-3.429,0-6.808-0.217-10.123-0.637l0,0.002
		c-5.636-0.722-8.429,4.081-9.198,7.524c-0.811,3.632-8.834,5.05-14.85,2.747c-9.5-3.636-18.272-8.742-26.033-15.047
		c-5.003-4.059-7.795-11.704-5.055-14.223c2.597-2.387,5.36-7.208,1.917-11.728l0.002-0.001c-2.022-2.661-3.899-5.478-5.613-8.448
		s-3.216-6.004-4.509-9.085l-0.002,0.001c-2.192-5.242-7.749-5.259-11.115-4.204c-3.551,1.114-8.782-5.126-9.795-11.489
		c-0.774-4.897-1.17-9.919-1.17-15.034c0-5.115,0.396-10.137,1.17-15.034c1.014-6.362,6.244-12.602,9.795-11.488
		c3.366,1.056,8.923,1.038,11.115-4.204l0.002,0.001c1.293-3.081,2.795-6.115,4.509-9.085s3.592-5.787,5.613-8.448l-0.002-0.001
		c3.443-4.519,0.68-9.34-1.917-11.728c-2.74-2.519,0.052-10.164,5.055-14.223c7.761-6.304,16.537-11.406,26.034-15.044l0,0.001
		c6.017-2.303,14.038-0.888,14.849,2.744c0.769,3.443,3.563,8.246,9.198,7.524l0,0.002c3.315-0.421,6.694-0.637,10.123-0.637
		c3.429,0,6.808,0.217,10.123,0.637l0-0.002c5.636,0.722,8.429-4.081,9.198-7.524C288.589,60.686,296.61,59.271,302.627,61.574"/>
</g>
<path style="&st5;" d="M472.787,412.749c-2.11,7.13-4.59,14.16-7.45,21.03c-2.69,6.48-5.7,12.83-9.01,19.01l-187.87-157.64
	l-187.88,157.64c-3.32-6.18-6.33-12.53-9.01-19.01c-2.85-6.87-5.34-13.9-7.45-21.03l146.91-123.27h114.86L472.787,412.749z"/>
<path style="&st5;" d="M433.267,487.308c-4.44,5.43-9.16,10.65-14.13,15.62c-4.81,4.78-9.86,9.35-15.12,13.69l-135.56-113.75
	l-135.57,113.75c-5.26-4.34-10.31-8.91-15.12-13.69c-4.97-4.97-9.69-10.19-14.13-15.62l164.82-138.3L433.267,487.308z"/>
<path style="&st5;" d="M368.287,540.488c-5.94,3.13-12.04,5.96-18.25,8.44c-8.3,3.47-16.82,6.38-25.49,8.72l-56.09-47.07
	l-56.1,47.07c-8.67-2.34-17.19-5.25-25.49-8.72c-6.21-2.48-12.3-5.3-18.24-8.44l99.83-83.76L368.287,540.488z"/>
<g>
	<polyline style="&st6;" points="80.585,452.794 268.457,295.151 456.331,452.795 	"/>
	<line style="&st6;" x1="64.128" y1="412.744" x2="211.028" y2="289.481"/>
	<line style="&st6;" x1="325.887" y1="289.481" x2="472.788" y2="412.746"/>
	<polyline style="&st6;" points="103.638,487.308 268.457,349.008 433.277,487.309 	"/>
	<polyline style="&st6;" points="404.017,516.615 268.457,402.867 132.898,516.615 	"/>
	<polyline style="&st6;" points="368.283,540.489 268.457,456.725 168.631,540.489 	"/>
	<polyline style="&st6;" points="324.545,557.647 268.457,510.583 212.369,557.647 	"/>
</g>
<line style="&st7;" x1="53.81" y1="289.481" x2="483.382" y2="289.481"/>
<path style="&st8;" d="M24.625,67.266c24.112,9.447,25.149,39.301,25.276,60.441l5.423,224.486c0,27.896,5.531,55.791,16.248,81.584
	c10.669,25.742,26.428,49.379,46.199,69.15c19.723,19.576,43.36,35.725,69.103,46.004c25.79,10.766,53.687,16.15,81.583,16.15
	c27.895,0,55.791-5.385,81.584-16.15c25.742-10.279,49.379-26.428,69.102-46.004c19.773-19.771,35.531-43.408,46.201-69.15
	c10.717-25.793,16.246-53.688,16.246-81.584l6.363-222.673c0.978-21.094-3.672-50.557,24.469-62.301l0.979-0.344
	c-92.152-46.977-305.434-90.881-489.887-0.244L24.625,67.266z"/>
<g>
</g>
<g>
</g>
<g>
</g>
<g>
</g>
<g>
</g>
<g>
</g>
</svg>
