<svg xmlns="http://www.w3.org/2000/svg" width="527" height="605" version="1.0" clip-rule="evenodd" fill-rule="evenodd" image-rendering="optimizeQuality" shape-rendering="geometricPrecision" text-rendering="geometricPrecision"><path d="M263.5 600.256c153.506 0 258.8-115.25 258.8-268.707V4.744H263.5" fill="#da121a"/><path d="M305.371 587.828c10.58-.329 18.19-8.414 20.342-16.793.693-2.7-14.59-8.737-14.307-1.867.157 3.83.93 11.234-6.035 18.66zm59.247-17.618c3.06-10.134-5.192-20.392-14.365-25.103-2.48-1.273-9.875 12.415-3.274 14.337 3.681 1.072 12.82 1.797 17.639 10.766zm-14.67-51.643c-5.961-4.38-13.591-2.43-18.186 2.109-1.983 1.959 4.89 14.053 8.747 8.36 2.15-3.174 3.806-6.72 9.44-10.47zm-64.195 60.18c-13.024-10.968-7.023-25.54-1.632-30.357 4.98-4.45 14.013 7.627 9.733 9.688-6.932 3.338-10.815 10.586-8.101 20.669zm196.43-110.145c-6.568 8.79-14.065 8.91-19.393 4.022-4.921-4.515.657-14.198 3.59-10.461 2.266 2.888 8.221 7.17 15.804 6.44zm8.077-17.485c6.33-8.485 5.602-17.038.384-23.938-1.681-2.224-15.106 6.275-9.555 10.33 3.096 2.262 7.696 3.535 9.171 13.608zm23.767-75.212c-10.2-2.831-16.707 2.53-21.253 9.89-1.465 2.372 10.065 14.649 11.838 8.006.989-3.704.557-12.876 9.415-17.896zm-34.282-7.535c-13.327 1.21-20.348 13.259-18.628 24.682.83 5.512 19.163.596 17.135-3.673-2.576-5.422-2.155-14.129 1.493-21.01zm-39.1-29.645c7.827 5.045 20.427 2.633 26.53-5.183 4.186-5.36-13.046-13.076-14.244-8.74-1.21 4.38-3.021 9.085-12.286 13.923zm-.45-7.303c-10.308-3.76-11.3-16.15-8.154-22.66 2.906-6.014 13.683.002 10.949 3.887-2.113 3.002-5.678 11.722-2.794 18.773zm55.968 22.313c12.25-9.002 12.377-15.884 7.154-24.66-1.426-2.395-15.504 1.574-13.254 8.071 1.345 3.884 6.374 6.412 6.1 16.59zm13.781-47.88c1.28-13.321-5.424-20.616-16.968-21.044-5.57-.206-5.65 17.878-1.08 16.677 5.805-1.526 11.963-.494 18.048 4.367zM442.021 16.98c-6.058 7.073-5.373 19.884 1.545 26.988 4.745 4.873 14.721-11.156 10.586-12.93-4.175-1.791-8.592-4.223-12.131-14.058zm63.603 71.995c-1.097 10.918-6.345 16.106-13.43 14.665-6.545-1.33-5.833-12.916-1.393-11.226 3.431 1.306 8.703 1.097 14.823-3.439zm2.81-7.03c4.822-12.483.249-17.889-10.398-22.371-2.906-1.224-12.79 8.167-6.353 12.21 3.847 2.416 10.065 2.128 16.752 10.162zm1.72-61.856c-10.894-7.771-20.565-5.614-26.709 4.169-2.964 4.72 12.656 13.834 13.901 9.275 1.582-5.79 5.556-10.606 12.808-13.444z" fill="#fcdd09" stroke="#000" stroke-width="4" stroke-linecap="round" stroke-linejoin="round"/><path d="M263.5 4.744H4.7V331.55c0 153.456 105.294 268.707 258.8 268.707" fill="#fcdd09"/><g stroke="#000" stroke-width="4" stroke-linecap="round" stroke-linejoin="round"><path d="M201.542 355.81c-18.816 25.42-40.028 52.686-55.862 71.745-8.72 10.497-20.558 14.995-16.704 1.095 3.978-14.345-6.731-12.88-12.87-7.667-16.04-5.069-24.358 2.73-31.765 12.049 6.937-1.828 13.327-3.052 19.99 0-9.953 11.665-3.723 21.322 11.227 13.965 1.621 2.641 4.773 2.012 9.31 2.465-9.021 7.652-18.588 11.153-25.041 9.082-8.173-2.622-12.84-11.533-21.51-3.058-22.872 4.629-21.087 14.825-22.18 24.372 7.666-7.336 15.334-7.428 23.001-10.132-8.71 8.174-1.922 17.67 13.966 6.298 7.416 2.394 14.399-.85 21.085-7.941-1.96 23.556-19.678 14.254-18.073 26.288-7.016 17.913-4.21 31.286 6.298 37.515-3.652-12.126 2.73-18.89 8.763-26.562 12.606 8.893 16.165-7.624 13.692-16.43 15.362-4.12 10.305-12.434 8.489-19.99 6.663 1.017 13.326.152 19.99-4.655 2.188 8.08 7.095 14.738 16.156 4.655 2.553 7.42 5.862 14.917 1.369 21.633 8.448-1.644 18.027-17.21 15.335-28.479 4.361-5.45 2.773-12.897-2.191-15.882-2.876-1.73-9.479 5.145-14.641 4.428-8.234-1.144-12.853-9.488-7.266-13.739 20.605-23.148 44.89-40.645 60.791-71.47h0" fill="#da121a"/><path d="M186.208 462.058c-9.154-2.82-13.56 1.408-16.567 6.477M96.116 494.37c6.907.899 13.955 3.962 15.06 10.953m-32.86-49.838c5.469 1.995 5.51 12.559-.583 14.62m38.373-49.123c-2.035 6.662-6.09 10.497-11.775 12.049" fill="none"/></g><path d="M109.614 50.13c-10.363-6.486-16.861-11.425-23.697-16.5l-3.818 6.744c-1.368-1.886-7.615-7.355-12.345-13.441-2.355.495-4.357-1.618-7.065-6.79-2.708-5.174-5.837-8.864-4.514.5 1.423 10.075 12.832 17.94 20.193 26.701-16.804-12.063-34.016-12.028-44.884-32.576-7.223 13.692-6.84 26.354-1.745 35.526 5.635 10.14 15.666 16.792 26.193 20.474-1.527 2.945-5.76 6.05-9.24 5.82-5.764-.38-11.766-6.834-12.29-13.753l-5.233 3.458c-2.918-1.61-5.837-5.487-8.755-11.477-8.59 6.637 6.855 21.843 26.917 30.477l1.646 5.8c-13.603-1.85-24.485-6.08-32.248-13.042 1.504 13.602 1.642 27.54 13.026 35.128 5.743 3.827 14.423 2.916 22.078 3.709-5.83 9.709-13.301 6.283-20.529 4.81l1.284 5.47c-8.08 1.471-10.532 1.067-14.536 1.18 1.224 10.275 19.929.856 30.316-.4l2.3 4.148c-9.88 5.194-22.085 16.205-33.258 24.636 7.364 15.974 16.147 20.724 35.035 1.814l3.002 3.726c-7.916 9.089-18.559 13.914-27.202 15.74l3.884 3.91-12.442 9.483c-3.381 2.577-3.834 10.57 5.108 3.325l34.071-27.609c-12.966 22.477-24.934 44.032-42.645 67.43-5.704 7.536 12.695 11.516 19.5 4.25 16.472-17.592 23.909-36.629 34.014-53.597l3.026 2.008c-11.157 21.951-21.419 42.792-37.044 60.468l4 2.334-16.105 26.482c-2.903 4.774-.006 11.978 4.14 4.621 16.054-28.484 32.107-56.531 48.16-90.671l2.96 1.358c-21.99 52.117-41.325 103.73-52.356 152.096-6.686 29.32-4.653 35.105 13.394 18.05 28.449-26.886 46.85-68.597 64.2-155.829l7.103 6.158c-13.352 49.95-25.87 101.646-46.972 135.392l4.827 4.013c-6.882 21.165-18.818 37.28-27.695 55.038-4.633 9.27.447 12.04 6.454 1.831 31.662-53.803 50.614-121.806 67.126-193.818 1.124-2.765 5.49-4.011 4.193.916-19.885 75.585-38.27 155.445-65.068 211.123-1.896 3.94-4.755 8.932 4.773 4.153 7.858-3.94 15.43-8.176 23.868-18.047 36.92-15.837 49.737-58.95 59.749-90.916 9.32-29.756 10.625-58.33 10.248-84.909l5.602-1.729c-.607 51.064-5.374 87.163-19.308 110.569l5.054 3.56-11.211 46.197c-1.796 7.398 2.123 7.68 4.133 2.355 20.746-54.971 22.869-108.328 26.444-160.879l2.453-.394c2.271 34.095.528 68.92-5.233 104.475 21.121-15.293 42.019-54.44 37.716-87.388l7.472 2.55c2.586 15.74 26.327 28.589 3.324 38.742-5.11 2.256-15.657 29.956-24.557 41.175-13.65 17.206-22.673 43.866-40.682 45.783 5.274 9.08 21.613 8.247 33.085-4.28-1.687 4.796-3.1 7.844-5.883 11.07 19.777-.154 29.062-16.449 39.727-30.62-11.002 17.138-13.384 31.533-8.323 43.56 2.066-2.733 3.898-5.935 6.647-7.302 1.713 18.212 22.21 29.405 30.859 16.69-16.825-10.438-12.226-45.95 5.812-67.977l-.595 57.776c-2.015 41.533-41.226 50.511-30.112 20.403-23.473-4.96-24.051 31.154-5.828 31.944-23.01 13.957-22.148 47.047 1.502 48.787-10.628-12.315-4.877-21.24 5.515-29.205-.817 15.07 2.699 24.602 14.99 22.922-11.065-11.812-1.493-22.077 16.53-31.708-3.169 18.117-11.645 35.613-27.561 53.348-8.849 9.86-20.632 19.532-29.111 14.724-9.8-5.556-7.36-16.382 4.6-23.564-9.775-3.537-18.985-3.074-24.879 3.833-7.364 8.631-3.815 18.342 1.51 27.061-9.346-2.613-14.138-8.682-14.857-21.28-6.367-2.555-13.579 5.931-9.833 12.166-5.483-2.998-9.567-9.39-5.845-15.17 3.857-5.99 12.564-6.46 19.598-3.278-5-12.163-13.528-17.692-25.418-11.484-9.798 5.115-15.217 15.474-12.542 27.725 2.829 12.953 13.482 20.526 26.796 24.215-3.996 7.827-6.752 15.396 6.47 19.636 1.275-17.66 26.016-4.014 44.454-13.581 30.637-15.898 40.653-41.898 50.358-69.254-1.948 18.237-4.558 35.972-15.686 54.006-12.02 19.48-23.473 23.682-36.14 21.104 3.9 9.633 9.407 16.904 25.56 8.52 1.584 14.315 21.192 17.883 24.784 7.745-15.404-.215-14.593-29.456 1.162-36.79-13.632 24.565 9.191 25.032 12.231 56.443l-2-478.817c-.02-4.744-11.571-25.69-21.396-33.045 8.06-3.415 16.757-7.221 17.29-17.086-14.495 6.353-24.856 3.061-31.685-8.473 11.449-1.564 22.981-3.014 25.172-17.04-15.727 6.45-24.322 3.595-31.755-.774 10.516-4.214 21.199-9.049 22.758-24.01-17.319 13.382-30.438 6.244-42.645-.047-11.802-6.082-19.15-7.235-26.584 1.983-3.414-5.93-16.187-7.524-21.14 4.17-8.746-2.58-16.982.356-17.086 12.71-13.741 11.633-8.46 25.143-6.943 31.712 15.107-8.962 27.764-5.877 38.491 6.696 6.204-10.19 15.595 3.788 15.713 10.339-22.452-9.155-41.893-11.28-52.569.415-13.447 14.73-2.5 30.052 7.847 37.052 1.878-16.357 9.968-27.103 34.376-23.11-4.723 9.035-11.544 19.167-7.143 28.203 9.687-4.043 23.576-10.018 32.146-4.921 5.45 3.24 11.525 10.084 2.935 19.817-5.026 5.693-13.386-.323-5.375-10.21-5.794-2.966-11.523 2.411-11.75 7.702-2.778-4.177-8.08-5.149-12.3-4.87-9.926.656-14.705 17.938-3.457 15.803-7.233-8.632 7.552-14.461 8.598-6.376.775 5.994 1.663 10.563 7.385 12.893 7.903 1.926 12.635-9.848 24.331-10.937-3.617 4.33-7.234 6.446-10.851 16.907-4.767 16.227-8.672 6.376-14.301 2.777-4.067-2.6-8.29-4.91-14.716 0-10.296 7.865-19.763 6.247-20.912-8.52-1.557-20.002-12.28-17.007-19.59-12.525-13.616-10.472-16.78-.803-23.454.11-6.903.942-13.005-3.347-17.236-9.999-6.18-9.715-9.219-29.957-4.006-34.9 6.924-6.567 10.491 6.4 21.64 2.69 3.422 2.653-3.293 9.86-2.277 15.124 1.22 6.314 7.753 10.819 16.265 6.196 3.814-2.072 4.604-5.654 2.324-9.295-2.029-3.237-8.59-3.326-11.355 3.932-1.32-3.359 3.91-14.594-.036-19.105 10.4-6.36 5.694-15.05 2.777-22.504-4.283-10.946-2.545-20.526-3.372-30.793z" stroke="#000" stroke-linecap="round" stroke-linejoin="round"/><path d="M336.001 12.992c5.388 13.336 11.688 7.14 17.254 6.083 7.92-1.504 21.36-4.42 26.894.207 13.361 11.17 24.09 8.02 26.608 13.073 4.227 8.481-4.674 8.368-10.077 8.566 11.64 7.143 12.25 17.685 2.738 29.933-.525 5.19-1.627 9.399-6.789 14.968-.272-6.226-1.91-11.087-5.827-13.667-1.627 7.267-4.628 11.785-9.176 13.21-2.04-3.162-2.501-7.113-.168-12.461-7.523-.286-6.994-1.288-10.155-5.97-2.083-3.084-11.387-1.658-11.618 4.413-.286 7.527-13.383 24.598-7.792 33.633 9.281 14.997 17.788 2.548 25.704 3.664 2.363-3.856 2.367-10.662 7.343-11.252 5.212-.23 3.465 7.154 5.092 11.226 6.342-2.293 5.1-5.394 5.81-12.546 3.532 3.915 6.412 9.392 4.179 14.744l5.643.68c-2.127 3.66-7.277 7.512-11.111 12.332 2.526 2.527 5.023 7.152 3.013 9.718 6.332-3.148 15.64 1.88 18.159 6.835 9.469-30.148 33.799-27.89 34.767-41.464.647-9.058-.954-19.546 3.4-26.537 5.213-8.372 12.409-11.873 12.224-15.053-.418-7.176-5.67-5.056-11.191-3.966-6.96 1.373-11.563-3.4-8.767-8.708 2.156-4.094 11.15-.713 7.972-14.66-2.52-11.057 16.574-8.74 15.135 5.689 7.946 1.999 9.727 10.16 9.697 20.135 5.24-10.456-3.247-20.81 1.054-27.109 2.271-3.325 6.512-8.96 13.294.822 3.58 5.165 12.005 2.49 14.373 8.279 1.855 4.532-1.783 10.212-10.086 9.99-1.203 4.951-7.887 7.713-13.98 12.665 26.737-14.24 18.7-.55 14.262 3.325-6.19 5.407.08 9.719-3.84 12.65-2.16 1.614-4.908 1.355-7.833-.57-6.021-3.963-12.683 8.322-1.408 8.332 10.871.008 11.609 2.202 7.518 11.524-1.515 3.453.71 8.985-1.085 10.004-5.729 3.254-10.25-7.616-12.45-.295-2.771 9.227 8.202 12.21 16.21 9.427-6.1 8.3-12.477 11.663-19.307 6.838-1.744 10.44 9.62 14.8 16.265 9.474-3.06 10.412-19.18 19.054-21.781 5.836-.749 19.369 9.484 23.712 18.862 14.16.579 12.823-20.494 27.233-27.288 11.58-.097 12.139 2.785 19.562 11.43 17.86-3.077 6.096-15.577 9.266-25.825 4.506 7.392 15.349 22.851 16.642 33.711.775 5.55 21.029-21.431 27.003-37.498 12.666 9.83 7.565 20.803 14.583 39.094 9.889 13.15-3.375 23.057-9.665 22.368-18.135-1.009-12.39-12.643-4.37-10.75.32-7.31 1.078-8.191-18.599 7.51-20.496 8.33-1.007 15.678 5.941 15.045 18.243-.735 14.29-8.433 21.967-19.582 26.663-10.01 4.216-23.848 8.137-36.363 5.703 10.328 8.014 12.135 17.82 8.605 28.752-2.913 9.769 4.497 20.04 4.648 30.98.208 15.097 9.43 8.858 13.855 6.29 4.39-2.547 15.11-12.604 10.069 7.652-1.189 4.777 4.476 8.807.643 11.432-4.76 3.26-8.79-5.545-11.4-.589-1.176 2.232-4.486 3.66 1.549 6.196 6.462 2.716 17.89 7.469 20.487 11.44 6.933 10.608-4.754 1.892-10.192 7.509-5.42 5.598-2.658 16.328-13.2 10.088-8.35-4.943 3.235-13.262-5.029-18.92-3.212-2.2-3.51 10.898-5.511 11.809-3.551 1.616-6.678-3.645-9.376-7.53-1.385-1.995-11.65-.76-11.163-5.394.472-4.495 16-8.038 7.83-15.605-11.104-10.282-8.442 18.751-19.034 4.147-1.545-2.13-11.757-1.173-8.664-6.245 2.953-4.844 14.685.706 13.842-17.312-8.076 6.854-15.89 10.976-26.146 6.783 12.056-1.847 21.944-12.583 15.85-22.273-1.12 7.937-7.73 11.606-15.349 14.489 9.999-8.634 6.507-20.016-1.729-19.457-2.35 11.624-7.084 22.397-19.59 30.394 3.33 6.513 3.37 14.944-2.05 26.56 6.592-5.89 12.693-8.443 18.088-9.254-8.464 8.25-11.527 13.498-13.487 18.134 6.467-1.624 13.82-4.19 18.588 0 10.445 9.181 3.045 15.702 21.687 22.461 10.414 3.776 17.319 19.162 11.704 26.42-8.657 11.19-9.052 19.95-8.606 30.12.282 6.445-3.05 13.673-7.198 21.546 8.957-2.848 16.057-4.957 26.647-6.877 7.994-1.449 10.958-15.774 3.012-19.316-7.394-3.295-19.992-6.71 3.646-13.12 6.307-1.71 12.056-10.209 13.598-7.005 3.698 7.678-8.082 25.726-1.933 25.273 7.214-.532 9.952-8.61 5.952-24.022-1.652-6.368 6.836 2.249 10.993 4.565 8.043 4.483 10.913 10.322 8.384 14.638-3.748 6.397-20.326 7.775-20.698 14.583-.192 3.498 8.864.368 8.259 4.602-.62 4.333-8.616 4.589-11.701 7.736-5.712 5.825-1.429 15.038-3.578 16.218-2.66 1.46-7.417-8.988-10.56-7.519-2.648 1.238-8.197 8.422-1.314 11.258 14.038 5.784 3.832 8.907-3.598 10.515-5.33 1.153.73 13.138-5.017 13.027-7.117-.137-7.244-15.063-9.34-12.527-6.802 11.704-7.19 31.255 11.806 29.026-11.89 6.8-20.01 5.03-23.869-6.423.042 10.545-6.46 25.766 7.673 26.246-7.65 10.422-14.065 6.016-19.526-9.84 2.765 19.196-6.837 24.725-17.728 28.829 8.073-9.433 5.577-18.11 3.74-26.835-2.598 19.743-13.569 25.357-27.797 25.473 6.964-4.094 13.257-9.127 13.034-23.282-3.823 14.69-19.112 4.672-17.391-4.6 16.016 6.872 16.324-4.034 12.016-15.217-4.786-12.426 2.416-11.563-3.552-25.551-2.963-6.946-.418-19.108 4.212-31.432 3.597-9.572 10.69-17.442 9.135-30.945-.97-8.43-7.526-9.238-13.034-12.306.3 9.045-.13 17.908-5.593 25.512 12.855 20.034-21.2 42.202 2.503 63.01-8.881 3.225-12.71 1.46-18.91-9.106 7.23 18.988-.96 29.012.197 43.819 1.963 25.14 17.758 39.269 39.664 27.648-13.572 21.205-28.945 16.067-42.067 4.146-12.564-11.414-14.389-30.319-7.9-46.753-6.683 8.773-9.578 11.486-12.722 14.599 8.792-14.422-2.998-23.924 7.065-39.68-9.241 10.587-11.31 10.878-21.006 16.992-12.244 7.72-1.655 15.814-5.5 19.59-12.848 12.616-4.154 24.545-1.056 19.011 8.538-15.252 13.038-11.657 11.711 1.948 9.758 3.13 7.74 6.299 6.192 8.827-1.508 2.462-12.274.513-10.244 5.568 2.66 6.626 9.11 1.184 13.18-.13 6.277-2.025 10.006-1.91 2.944 11.255-3.864 7.205 3.602 9.361-2.042 11.71-7.299 3.035-6.19-11.743-12.9-8.064-8.517 3.266 5.998 8.57 3.46 14.624-1.856 4.427-7.15 4.726-16.589-3.147-24.565 2.32-2.607-8.128-5.97-11.362-6.807-6.546-14.491 23.825-23.102-2.767-6.56-20.263 8.356-9.31 14.223-14.622 1.602-.854-6.436-8.954-8.474-7.756-7.373 4.332-19.003 7.453-20.183-6.96 9.605 6.716 15.624.624 20.138-10.844-10.068 9.458-17.025 5.952-22.73-2.768 8.797-2.351 14.333-5.635 18.028-9.444-5.967-.642-11.934-2.614-17.9-8.34 8.874-3.414 14.079-9.03 19.402-14.575-10.51 4.543-13.832-3.98-16.437-13.808 7.397 4.71 15.242 2.265 23.368-4.694-12.069 1.974-17.924-2.58-22.14-12.47-3.48-8.164 11.44-25.464 23.385-16.36-19.854 9.611-7.36 25.376 3.543 14.302 10.473-10.636 10.74-22.782 24.23-30.99-10.377-10.971 3.418-23.041 7.385-34.665-9.092 16.941-25.925 11.452-17.673 33.125-4.985 1.843-13.762-2.43-10.617-13.62-10.91 7.32-6.336 16.888-4.639 26.145-7.428-6.876-18.29-18.114-2.002-33.078-8.913 4.851-9.914 11.46-12.62 17.69-2.255-7.017-.205-15.292 9.834-23.064-4.946 3.09-9.502 7.156-12.995 13.88-1.846-7.937 3.287-16.968 12.94-20.522-7.666-9.213-10.19-17.811-8.934-26.232 2.916-19.562 4.288-27.717 2.331-33.14-4.65-12.893-13.637.438-12.564 11.39-6.375-13.742-4.905-23.998 8.418-28.986-.89-5.525-3.247-11.837-.908-16.71 3.88-8.082 8.688-4.812 14.716-14.716 3.099 11.115-12.19 19.587 2.003 37.083 7.5-13.646 9.303-27.733 2.269-38.242-8.81-13.16-28.845-25.212-22.36-40.142 6.648 14.915 16.295 12.764 26.796 27.047-5.348-25.48-19.21-24.795-30.574-40.604-6.772-9.422-8.374-19.294-4.467-28.016 2.646-5.82 8.607-10.537 20.004-13.44-20.737 17.53-13.641 28.388-1.322 36.355 14.476 9.36 25.965 19.85 27.789 39.821 1.196 13.09 5.87 30.422 2.503 44.781-3.032 12.929-14.625 36.605-16.444 48.936-3.274 22.182 10.644 32.836 19.495 21.46 10.488-13.48 10.625-45.732 9.569-53.943-1.212-9.414 1.027-26.975 4.334-41.393-3.792-8.469-9.983-20.251-8.755-35.793-5.598 3.221-9.016 3.72-11.383.094 20.525-10.394-5.64-23.725-.14-38.773-7.386 15.715-24.78 12.816-28.423-2.23 20.1 9.428 14.345-19.056 26.279-38.953-12.637 22.763-23.716 15.037-27.288 2.41 8.008 2.04 15.449 1.435 16.992-26.694-9.201 16.38-24.935 9.548-25.465-5.374 28.546 1.394 9.288-21.172 24.01-30.981-12.46 13.543-19.401 8.455-23.623-5.81 21.48 13.767 18.982-18.187 27.883-26.72-13.72.379-14.13-10.163-13.554-20.912 3.141 9.348 7.54 10.88 12.387 10.311 5.925-.694 8.763 8.741 15.69 1.694-9.009 2.747-20.364-20.155-6.39-17.427-7.513-8.388.894-11.574 3.097-20.137.81 15.353 13.078 3.41 20.866 21.053.454-8.598-17.962-11.882-6.29-24.425z" fill="#fff" stroke="#000" stroke-width="4" stroke-linecap="round" stroke-linejoin="round"/><path d="M144.859 37.888c-4.828-1.096.687-6.663 4.38-6.298 4.747.469 4.383 6.43 5.888 10.132 1.205 2.961 4.034 4.912 7.668-1.37 3.288-5.683 1.496 5.26 4.107 7.668-3.028.57-4.163 2.593-2.601 4.655 5.855 7.732 14.251 10.597 23.139 6.983 8.847 2.87 16.994 10.17 21.085 23.55 2.376 7.77 4.24 15.772 4.382 25.33.095 6.493 2.069 16.49-5.614 13.144-6.876-2.995-14.052-3.897-22.044-3.56-3.98.168-7.61 1.56-13.007 4.107.377-3.917 5.424-7.665 12.46-7.393 16.18.624 20.082-2.683 19.579-10.817-.99-15.985-6.38-22.085-11.775-27.93-9.657-10.464-17.618-10.195-23.824-6.299-12.268-12.405-23.264-10.828-34.092-7.394-2.603-5.415-.298-17.939 8.762-19.168.579 6.24 6.545 4.007 7.257.822.813-3.635-2.558-5.437-5.75-6.162z" fill="#da121a" stroke="#da121a" stroke-linecap="round" stroke-linejoin="round"/><path d="M188.946 80.743c4.161 6.4 11.26 13.354 9.037 22.455-2.084 8.531-13.25 3.518-21.77 7.941.19-3.543 11.846-6.639 13.28-9.721-9.784-5.66-22.94-7.307-34.229-4.792-12.112 2.698-16.948 5.664-19.579 18.21-7.078-5.052-7.787-17.535 4.108-24.782 7.298-4.447 17.564-4.563 28.068-.822 8.032 2.465 17.757 6.103 23.96 8.352 1.947-5.852-1.871-11.546-2.875-16.84z" fill="#da121a" stroke="#da121a" stroke-linecap="round" stroke-linejoin="round"/><path d="M197.161 45.419c-4.883-.601-9.356-.191-14.24-2.876-1.46 1.46-3.331 2.374-4.792 3.834 1.94 1.288 4.281 2.943 1.78 4.245-1.853.964-6.807-1.494-7.53-5.203-.534-2.736 1.676-4.878 4.381-6.025 5.583-2.367-1.62-4.457-5.476-3.149-3.26 1.106-4.088 4.407-4.656 7.668-.776 4.46 2.353 7.068 5.751 8.215 4.056 1.368 9.853 3.05 12.323-.274.87-1.172.847-2.698 1.369-5.614 3.53-.043 8.556 2.21 11.09-.821z" fill="#fff" stroke="#fff" stroke-linecap="round" stroke-linejoin="round"/><path d="M424.798 79.124c-1.868 11.497-9.625 6.036-9.839-.354-.346-10.353 12.943-16.908 21.534-8.022 9.55 9.878 1.824 25.528-13.551 28.22-11.817 2.068-22.926-2.264-35.74-4.396-10.57-1.759-18.48 2.438-22.974 4.949 6.962 1.564 9.088 4.989 9.37 9.123-8.755.703-18.347 10.066-25.705-3.664-4.408-5.96 2.678-18.006 6.395-28.267 3.757 3.817 7.08 7.852 6.767 13.705 9.118-4.167 23.569-7.822 37.494-2.985 9.872 3.43 20.49 7.69 31.66 0 7.819-5.384-3.864-17.836-5.411-8.31z" fill="#0f47af" stroke="#000" stroke-width="4" stroke-linecap="round" stroke-linejoin="round"/><path d="M364.228 99.52c-6.14 3.684-8.659 7.368-11.854 11.052m8.681-20.154c-4.255 2.505-8.854 6.214-14.14 12.325m49.106 8.073c-9.235-2.904-19.06-2.803-22.424-2.172m45.42 342.42c-1.679-10.051 14.807-12.14 18.588-20.331-12.903-3.464-19.453 3.467-26.915 8.907m-29.238-104.367c-9.124 23.625 3.441 37.032 6.622 51.265m7.754-64.598c-6.616 8.364-10.448 21.258-7.108 29.42 1.675 4.091-5.631 5.916-7.446 16.506 3.427 8.682 19.33 3.155 18.96-11.294-.238-9.295-6.74-18.253.194-25.753m17.233-66.221c-5.532.46-11.547 2.876-14.738-1.33-4.624-6.09 1.44-9.806-3.463-18.614m-39.307-36.596c-7.108 5.976-9.387 12.23-2.324 20.524 10.13 11.895 3.116 19.919-7.552 23.43 18.91 6.794 31.654 3.692 28.464-24.979 4.869 23.237 10.38 31.077-12.586 44.73 21.219-.943 34.855-12.037 25.947-34.854m-53.83-25.947c2.558 13.604 1.092 17.159-6.918 24.904 7.991-3.768 15.807-9.572 15.244-25.485m13.942-39.307c-2.573 4.708-9.538 4.932-11.23-5.421-4.196 10.003-11.797 2.034-10.07-5.81m35.048 13.361c-.452 6.052-8.068 8.332-8.133-.968m26.915-2.71c4.941 4.012-.582 8.821 1.162 17.039-4.524-5.45-10.71-4.084-12.2-12.199m17.234 28.85c8.018 11.887 7.659 26.455.194 41.438.666-10.528.166-20.126-6.39-24.979m63.812 1.068c-10.585-2.06-21.165-4.145-29.733-15.783 6.741 10.293 8.323 19.636-4.454 26.333 9.572-21.702-23.257-21.53-20.137-39.113m9.167-51.799c10.747 22.257 34.962 15.235 22.007-.288 7.32 1.891 17.854 7.272 12.199 17.233-5.092 8.97-13.056 11.37-24.398 9.488 9.636 2.12 18.074 6.417 22.074 18.783m-53.054-61.769c-5.685 6.838-23.752 1.291-35.628 1.937 18.472 1.245 22.323 20.404 38.641 7.78m-56.068-33.34c.167 8.84.612 17.445 7.358 20.719m51.824-80.003c3.499 7.062 4.652 17.593-.291 24.27-3.808 5.144 1.656 3.882 3.03 5.663-6.908-1.793-14.593 1.077-21.961 2.05m5.35-21.687c2.897-1.3 5.557-.7 7.938 2.13m-9.488 5.615c3.163-1.465 6.326-1.563 9.488.581m-12.005-30.787c-3.933 5.216-6.75 13.378-12.005 15.103-10.35 3.398-9.48-9.24-18.589-6.777 4.377-3.357 12.417-9.001 15.878-10.069-2.322 3.163-2.361 6.52-1.743 9.682 4.125-.405 2.61-5.783 1.743-9.682 9.32-2.375 9.845 5.51 13.554 9.682h0m-45.116 10.65c-6.753 1.058.699-11.233-8.713-16.072m-8.52 37.37c3.256 2.067 6.166 1.02 8.907-1.548" fill="#fff" stroke="#000" stroke-width="4" stroke-linecap="round" stroke-linejoin="round"/><path d="M4.7 4.744V331.55c0 153.456 105.294 268.707 258.8 268.707 153.506 0 258.8-115.25 258.8-268.707V4.744z" fill="none" stroke="#000" stroke-width="8" stroke-linecap="round" stroke-linejoin="round"/><path d="M263.5 4.744v595.512" fill="none" stroke="#000" stroke-width="4"/><path d="M204.107 184.822c-10.18 5.823-13.796 21.109-10.456 33.692l10.069 37.932m-49.976-36.309c-1.114 7.177 1.047 12.014 3.485 16.652m-50.711-43.834c-1.97 6.442 1.28 14.556 3.385 19.47m-37.484-37.11c-1.512 3.118-1.052 6.63 0 10.262v.387M59.272 152.48c-1.941 2.4-3.694 4.838-3.098 7.745m2.437-47.86c-3.267 1.743-4.344 3.486-5.616 5.228M104.97 87.04c1.039 6.472-6.975 8.423-10.844 6.97M56.948 70.193c3.431-2.105 6.369-2.239 9.294-2.324" fill="none" stroke="#fff" stroke-width="4" stroke-linecap="round" stroke-linejoin="round"/></svg>