<svg xmlns="http://www.w3.org/2000/svg" height="382" width="365" version="1.1" viewBox="0 0 365 382">
<g clip-rule="evenodd" fill-rule="evenodd">
<path d="m13.755 207.95c5.4 60.97 23.5 111.23 76.04 147.08 21.085 12.7 42.005 20.34 66.225 24.58 11.9 1.48 23.34 2.05 35.34 1.75 24.42-1.81 46.02-7.26 68.28-17.53 61.6-32.62 84.72-87.54 91.08-150.04 6.28-71.01 9.14-142.63 14.02-213.79h-364.48c4.735 69.26 8.145 138.76 13.495 207.95z" fill="#1d1d1b"/>
<path d="m42.575 295.85c4.81 8.86 10.63 17.44 17.69 25.69 61.635 72.01 182.82 72.01 244.48 0 7.56-8.85 13.72-18.08 18.72-27.63-5.72-0.25-11.3 0.44-16.64 2.49 5.36-4.28 11.3-5.28 17.62-4.38 1-1.99 1.96-3.99 2.88-6.01-3.28-0.47-6.56-0.52-9.86-0.24-6.76 0.57-13.54 2.55-20.32 5.14l-0.06 0.02-0.08 0.02c-5.44 1.24-11.9-0.22-18.68-1.76-8.3-1.88-17.12-3.88-24.72-0.98l-0.1 0.04-0.12 0.02c-5.12 0.72-8.68 2.32-11.82 3.73-5.04 2.27-9.12 4.1-16.74 1.62l-0.08-0.03c-18.14-7.65-28.46-5.52-38.78-3.4-0.5 0.1-1.04 0.21-1.78 0.36-5.72 1.95-11.26 3.47-16.96 3.7-5.74 0.23-11.64-0.85-18.02-4.13-19.3-8.01-29.26-2.98-37.9 1.37-7.12 3.59-13.375 6.74-22.955 2.48l-0.05-0.02c-7.37-3.76-14.56-6.18-21.47-6.45-6.85-0.26-13.45 1.59-19.71 6.35l-0.06 0.05-0.05 0.03c-1.48 0.82-2.96 1.46-4.43 1.92zm126.74 50.87 0.08 0.1 0.2 0.26 0.24 0.26 0.26 0.26 0.3 0.26 0.34 0.27 0.36 0.27 0.42 0.28 0.48 0.28 0.52 0.29 0.58 0.29 0.78 0.36 0.7 0.49 0.58 0.47 0.56 0.49 0.52 0.52 0.48 0.54 0.44 0.57 0.4 0.59 0.36 0.62 0.34 0.64 0.28 0.66 0.24 0.68 0.22 0.7 0.16 0.73 0.12 0.74 0.1 0.75 0.2 3.23-2.66-1.22-0.4-0.18-0.4-0.18-0.4-0.18-0.4-0.17-0.38-0.17-0.4-0.17-0.4-0.16-0.4-0.16-0.38-0.16-0.4-0.15-0.38-0.15-0.4-0.15-0.38-0.14-0.38-0.13-0.4-0.13-0.38-0.13-0.38-0.12-0.4-0.11-0.38-0.11-0.38-0.1-0.38-0.1-0.38-0.09-0.38-0.08-0.38-0.07-0.36-0.07-0.38-0.07-0.38-0.05-0.36-0.05-0.38-0.03-0.38-0.03-0.72-0.05-0.92-0.51-0.6-0.35-0.56-0.35-0.56-0.36-0.5-0.36-0.5-0.36-0.44-0.36-0.44-0.37-0.4-0.38-0.38-0.37-0.36-0.39-0.32-0.39-0.3-0.39-0.26-0.39-0.26-0.41-0.22-0.41-0.18-0.41-0.16-0.41-0.14-0.42-0.12-0.43-0.08-0.42-0.06-0.43-0.02-0.42v-0.42l0.02-0.42 0.04-0.42 0.06-0.41 0.08-0.4 0.1-0.41 0.14-0.39 0.14-0.4 0.18-0.45-0.7-0.14-1.18-0.25-1.18-0.24-1.2-0.25-1.18-0.24-1.2-0.24-1.18-0.24-1.2-0.25-1.2-0.24-1.2-0.26-1.2-0.25-1.2-0.27-1.2-0.27-1.2-0.27-1.2-0.29-1.22-0.29-1.22-0.31-1.22-0.32-1.22-0.33-1.22-0.34-1.22-0.36-1.24-0.37-1.22-0.39-1.24-0.4-1.24-0.43-1.26-0.44-1.24-0.46-1.26-0.48-1.26-0.51-1.26-0.53-1.78-0.77-0.4-0.85-0.14-0.4-0.1-0.43-0.04-0.45 0.02-0.46 0.12-0.46 0.22-0.44 0.28-0.38 0.34-0.32 0.36-0.25 0.36-0.19 0.4-0.16 0.4-0.12 0.42-0.09 0.12-0.02-0.42-0.06-0.48-0.06-0.48-0.05-0.5-0.05-0.5-0.05-1.12-0.09-0.92-1.04-0.44-0.77-0.24-0.86 0.04-0.87 0.28-0.81 0.46-0.67 0.56-0.54 0.66-0.43 0.72-0.33 0.76-0.25 0.82-0.17 0.88-0.1 0.88-0.01 0.94 0.08 0.94 0.16 0.1 0.03 0.12-0.1 0.76-0.64 0.78-0.6 0.8-0.57 0.82-0.55 0.84-0.52 0.84-0.5 0.88-0.47 0.9-0.44 0.9-0.42 0.92-0.4 0.94-0.37 0.96-0.36 0.96-0.33 0.98-0.31 1-0.3 1.02-0.27 1.02-0.26 1.04-0.25 1.04-0.22 1.08-0.22 1.06-0.19 1.1-0.19 1.1-0.17 1.1-0.16 1.14-0.15 1.12-0.14 1.14-0.13 1.16-0.12 1.16-0.11 1.18-0.1 1.12-0.09 1.24-0.22 1.28-0.19 1.28-0.16 1.28-0.13 1.14-0.1 2.34-2 0.64-0.52 0.64-0.49 0.64-0.47 0.66-0.45 0.66-0.42 0.68-0.41 0.66-0.38 0.7-0.36 0.68-0.34 0.7-0.32 0.7-0.3 0.7-0.28 0.7-0.26 0.72-0.23 0.72-0.22 0.74-0.2 0.72-0.17 0.74-0.16 0.74-0.14 0.74-0.12 0.76-0.1 0.74-0.08 0.76-0.06 0.76-0.05 0.76-0.03 0.78-0.01 0.76 0.01 0.78 0.02 0.78 0.04 0.78 0.06 2.1 0.19 0.04 1.59v0.26 0.28 0.27 0.27l-0.02 0.29v0.28l-0.02 0.28v0.29l-0.02 0.29-0.02 0.29-0.04 0.3-0.02 0.3-0.02 0.3-0.04 0.31-0.04 0.31-0.04 0.31-0.04 0.32-0.06 0.32-0.04 0.32-0.06 0.33-0.06 0.33-0.06 0.34-0.08 0.33-0.06 0.35-0.08 0.34-0.08 0.35-0.1 0.36-0.08 0.36-0.1 0.36-0.1 0.37-0.18 0.66 0.46 0.14 0.98 0.31 0.96 0.31 0.98 0.31 0.78 0.25 0.1-0.26 0.24-0.5 0.26-0.49 0.26-0.47 0.28-0.46 0.32-0.45 0.3-0.43 0.34-0.42 0.34-0.4 0.36-0.39 0.36-0.38 0.4-0.36 0.4-0.34 0.4-0.34 0.42-0.32 0.44-0.3 0.46-0.29 0.46-0.27 0.46-0.27 0.48-0.25 0.5-0.23 0.5-0.22 0.52-0.21 0.52-0.2 0.54-0.18 0.54-0.17 0.56-0.16 0.56-0.15 0.58-0.13 0.58-0.13 0.6-0.11 1.18-0.19 0.98 0.66 0.5 0.33 0.5 0.34 0.5 0.33 0.5 0.34 0.5 0.33 0.48 0.33 0.5 0.34 0.5 0.33 0.5 0.34 0.5 0.33 0.5 0.34 0.5 0.33 0.5 0.33 0.5 0.34 0.48 0.33 0.5 0.34 0.5 0.33 0.5 0.34 0.5 0.33 0.5 0.33 0.5 0.34 0.5 0.33 0.5 0.34 0.5 0.33 0.48 0.34 0.5 0.33 0.5 0.33 0.5 0.34 0.5 0.33 0.5 0.34 3.32 2.23-3.94 0.94-0.58 0.15-0.56 0.17-0.52 0.18-0.48 0.19-0.48 0.2-0.42 0.21-0.4 0.22-0.38 0.23-0.34 0.23-0.32 0.25-0.28 0.25-0.26 0.25-0.18 0.2 0.78 0.16 1.04 0.21 1.04 0.21 1.04 0.2 1.04 0.19 0.08 0.01 1.38-1.04 0.58-0.44 0.28-0.22 0.28-0.22 0.28-0.21 0.3-0.22 0.28-0.22 0.28-0.22 0.58-0.44 0.28-0.22 0.3-0.21 0.28-0.22 0.28-0.22 0.8-0.61 1.86 0.31 0.42 0.07 1.22 0.2 0.42 0.07 1.22 0.21 0.42 0.06 1.22 0.21 0.4 0.07 1.24 0.2 0.4 0.07 1.24 0.2 0.4 0.07 1.24 0.21 0.4 0.07 1.22 0.2 3.92 0.66-3.18 2.3-0.3 0.22-0.3 0.22-0.3 0.22-0.3 0.21-0.5 0.37 0.36-0.07 0.64-0.17 0.6-0.19 0.58-0.21 0.54-0.25 0.52-0.27 0.48-0.29 0.46-0.33 0.44-0.34 0.4-0.39 0.38-0.41 0.34-0.44 0.34-0.48 0.3-0.52 0.28-0.56 0.18-0.42-0.14-0.13-0.38-0.36-0.4-0.36-0.38-0.33-0.4-0.33-0.4-0.31-0.4-0.3-0.4-0.29-0.4-0.27-0.4-0.26-0.42-0.24-0.4-0.24-0.42-0.22-0.42-0.2-0.4-0.2-0.44-0.18-0.42-0.17-0.42-0.16-0.44-0.14-0.42-0.13-0.44-0.12-0.44-0.1-0.44-0.1-0.44-0.08-0.44-0.07-0.46-0.05-0.46-0.05-0.46-0.03-0.46-0.02h-0.46l-1.62 0.02-0.56-1.89-0.22-0.81-0.2-0.81-0.18-0.79-0.12-0.78-0.1-0.77-0.02-0.75 0.04-0.75 0.12-0.73 0.24-0.72 0.38-0.69 0.5-0.61 0.66-0.5 0.74-0.36 0.82-0.22 1.28-0.15 0.96 0.54 1.08 0.61 0.56 0.31 0.54 0.31 0.54 0.31 0.54 0.31 0.54 0.33 0.56 0.32 0.54 0.34 0.52 0.34 0.54 0.35 0.54 0.36 0.52 0.37 0.52 0.37 0.52 0.4 0.52 0.4 0.5 0.41 0.5 0.43 0.5 0.45 0.48 0.45 0.48 0.48 0.46 0.49 0.46 0.51 0.44 0.53 0.42 0.55 0.42 0.56 0.42 0.58 0.38 0.61 0.38 0.63 0.36 0.64 0.34 0.66 0.28 0.57 0.26 0.57 0.22 0.58 0.2 0.58 0.18 0.57 0.12 0.58 0.1 0.57 0.08 0.57 0.04 0.56 0.02 0.57-0.02 0.56-0.06 0.55-0.06 0.55-0.1 0.54-0.14 0.53-0.14 0.53-0.18 0.53-0.2 0.51-0.24 0.51-0.24 0.5-0.26 0.5-0.28 0.48-0.32 0.49-0.32 0.47-0.34 0.47-0.36 0.47-0.36 0.46-0.14 0.15 0.98 10.24-2.1-3.1-0.26 0.26-0.3 0.26-0.28 0.27-0.28 0.27-0.28 0.26-0.08 0.06 0.02 0.02-0.64 0.54-0.86 0.79-0.02-0.03-0.08 0.06-0.3 0.24-0.28 0.24-0.3 0.25-0.3 0.24-0.3 0.23v0.02l-0.7 0.52-0.86 0.69-0.02-0.03-0.16 0.12-0.3 0.22-0.32 0.22-0.3 0.22-0.32 0.22-0.24 0.17 0.02 0.02-0.84 0.54-0.8 0.56-0.02-0.02-0.22 0.15-0.32 0.21-0.32 0.2-0.32 0.2-0.34 0.21-0.16 0.1v0.01l-0.84 0.5-0.86 0.53v-0.02l-0.48 0.28-1.14-0.74-0.7-0.46-0.36-0.23-1.06-0.7-0.36-0.23-0.34-0.23-0.72-0.47-0.34-0.22-0.36-0.24-0.36-0.23-0.36-0.23-1.16-0.76-0.08 0.02-1.36 0.3-1.36 0.28-1.38 0.26-1.38 0.23-1.4 0.21-1.4 0.18-0.28 0.04 0.16 1.69 0.02 0.3 0.02 0.3 0.18 1.8 0.14 1.68-1.56 0.26-0.2 0.04h-0.04v0.01l-1.6 0.27-0.54 0.09h-0.02l-0.34 0.05-0.2 0.04-0.2 0.03-0.2 0.03-0.22 0.03-0.2 0.04-0.2 0.03-0.2 0.03-0.2 0.04-0.2 0.03v0.02l-1.8 0.26-0.36 0.06h-0.02l-0.36 0.05-0.2 0.03-0.22 0.03-0.2 0.03-0.2 0.03-0.22 0.03-0.2 0.03-0.2 0.03-0.22 0.03-0.16 0.02v0.02l-1.8 0.24-0.4 0.05-0.4 0.05-0.2 0.03-0.22 0.02-0.2 0.03-0.22 0.03-0.2 0.02-0.2 0.03-0.22 0.02-0.2 0.03-0.16 0.02 0.02 0.02-1.84 0.2-0.4 0.05v-0.01l-0.44 0.05-0.2 0.02-0.22 0.02-0.2 0.02-0.22 0.03-0.22 0.02-0.2 0.02-0.22 0.02-0.22 0.02-0.12 0.01 0.02 0.03-1.92 0.16-0.34 0.03-0.48 0.04-0.22 0.02-0.22 0.02-0.2 0.01-0.22 0.02-0.22 0.02-0.22 0.02-0.2 0.01-0.22 0.02-0.08 0.01v0.03l-2.02 0.11-0.28 0.02-0.54 0.03-0.22 0.01-0.22 0.01-0.22 0.02-0.24 0.01-0.22 0.01-0.22 0.01-0.24 0.02-0.22 0.01-0.22 0.01-0.24 0.01-0.22 0.01-0.24 0.01-0.22 0.01-0.24 0.01-0.68 0.03-1.02-0.65-0.6-0.41-0.56-0.42-0.54-0.41-0.48-0.43-0.44-0.42-0.42-0.43-0.38-0.43-0.36-0.43-0.32-0.42-0.3-0.43-0.28-0.43-0.24-0.42-0.24-0.41-0.22-0.41-0.58-1.13-1.24-0.09-1.42-0.12-1.42-0.14-1.42-0.14-1.42-0.16-1.4-0.17-1.42-0.18-1.4-0.19-1.22-0.17zm81.08-51.59c9.2-7.34 20.18-5.02 31.68 0-11.06-2.95-21.76-3.79-31.68 0zm-67.54-0.84c9.2-7.35 20.2-5.03 31.68 0-11.06-2.95-21.76-3.79-31.68 0zm-67.1 1.26c9.2-7.34 20.18-5.02 31.66 0-11.04-2.95-21.76-3.79-31.66 0zm-64.125 0c9.21-7.34 20.19-5.02 31.68 0-11.06-2.95-21.76-3.79-31.68 0z" fill="#008bd2"/>
<path d="m182.5 6.03h-175.72c3.115 45.51 6.225 91.02 9.335 136.53 3.57 52.23 1.29 105.49 25.49 151.5 1.46-0.43 2.92-1.04 4.37-1.85 1.49-1.12 3-2.1 4.53-2.92l-0.31-0.35-0.71-0.81-0.7-0.82-0.68-0.82-0.67-0.82-0.65-0.82-0.63-0.82-0.62-0.83-0.61-0.82-0.58-0.82-0.58-0.82-0.56-0.82-0.55-0.82-0.54-0.82-0.52-0.82-0.51-0.82-0.5-0.83-0.48-0.82-0.47-0.82-0.46-0.82-0.45-0.82-0.44-0.82-0.43-0.82-0.42-0.82-0.41-0.82-0.39-0.81-0.39-0.82-0.38-0.82-0.37-0.82-0.36-0.81-1.16-2.7 2.32-1.29 0.52-0.29 0.51-0.29 0.51-0.3 0.5-0.3 0.5-0.3 0.5-0.3 0.49-0.31 0.49-0.31 0.49-0.31 0.48-0.32 0.47-0.31 0.48-0.32 0.47-0.33 0.46-0.32 0.46-0.33 0.45-0.33 0.45-0.34 0.45-0.33 0.44-0.34 0.44-0.35 0.43-0.34 0.43-0.35 0.42-0.35 0.42-0.36 0.41-0.36 0.42-0.36 0.4-0.36 0.4-0.37 0.39-0.37 0.39-0.37 0.64-0.63-0.63-1.39-0.69-1.57-0.66-1.56-0.64-1.57-0.61-1.57-0.59-1.58-0.57-1.57-0.55-1.58-0.53-1.57-0.51-1.58-0.47-1.5h-0.01l-0.27-0.9-0.48-1.53 0.03-0.01-0.02-0.07-0.14-0.49-0.14-0.49-0.14-0.49-0.14-0.49-0.14-0.49-0.14-0.49-0.13-0.49-0.14-0.49-0.13-0.49-0.13-0.49-0.13-0.49-0.13-0.49-0.13-0.49-0.13-0.49-0.13-0.49-0.12-0.48-0.13-0.49-0.12-0.49-0.13-0.49-0.12-0.49-0.12-0.49-0.12-0.49-0.13-0.49-0.12-0.49-0.12-0.49-0.12-0.49-0.12-0.48-0.11-0.49-0.12-0.49-0.12-0.49-0.11-0.43-3.83-13.2h-2.4l-0.76-0.08-0.82-0.26-0.74-0.4-0.64-0.53-0.53-0.64-0.4-0.74-0.26-0.82-0.09-0.88 0.09-0.87 0.26-0.82 0.4-0.74 0.46-0.55-0.62-0.51-0.53-0.65-0.4-0.74-0.26-0.82-0.09-0.87 0.09-0.88 0.26-0.82 0.4-0.74 0.53-0.64 0.64-0.53 0.74-0.4 0.82-0.26 0.72-0.07-0.75-7.54-0.25-0.12-0.46-0.2-0.5-0.23-1.86-0.97h-1.35l0.24-0.57 1.27-2.97 0.07-0.18 0.26-0.58 0.27-0.57 0.27-0.57 0.28-0.58 0.29-0.56 0.29-0.57 0.31-0.57 0.31-0.56 0.31-0.56 0.31-0.56 0.32-0.56 0.03-0.04h-0.04l1.56-2.58 0.49-0.81 0.09-0.14 0.23-0.37 0.22-0.38 0.23-0.38 0.23-0.38 0.23-0.37 0.23-0.38 0.22-0.37 0.23-0.38 0.22-0.37 0.22-0.37 0.22-0.38 0.22-0.37 0.22-0.37 0.21-0.37 0.5-0.87 0.41-0.76 0.18-0.32 0.17-0.32 0.17-0.32 0.16-0.32 0.17-0.32 0.16-0.32 0.15-0.32 0.16-0.32 0.15-0.32 0.14-0.31 0.14-0.32 0.14-0.31 0.14-0.32 0.13-0.31 0.75-1.85 5.99 0.43 5.3 0.38c0.94-5.94 2.18-11.8 3.67-17.59l-0.22-0.01-1.01-0.12-1.01-0.21-1-0.28-0.98-0.36-0.97-0.44-0.95-0.5-0.91-0.57-0.89-0.64-0.84-0.7-0.81-0.76-0.75-0.83-0.7-0.88-0.63-0.95-0.57-1-0.48-1.06-0.4-1.11-0.31-1.16-0.08-0.5-6.48-1.23-0.57-0.17-0.62-0.33-0.54-0.44-0.43-0.52-0.33-0.6-0.21-0.66-0.08-0.69 0.06-0.72 0.21-0.69 0.33-0.62 0.43-0.53 0.52-0.44 0.6-0.32 0.66-0.21 0.6-0.07 1.08-1.7-1.54-0.35-0.67-0.33-0.69-0.55-0.57-0.66-0.44-0.78-0.27-0.86-0.08-0.8v-1.24l0.08-0.79 0.26-0.85 0.41-0.77 0.53-0.68 0.65-0.56 0.75-0.44 0.84-0.31 0.79-0.11 7.33-0.35 0.56-0.5 4.15-5.47 1.25-1.57 1.29-1.53 1.33-1.48 1.36-1.45 1.42-1.41 1.45-1.36 1.5-1.32 1.54-1.27 1.6-1.23 1.64-1.17 1.69-1.13 1.74-1.07 1.79-1.02 1.84-0.96 1.9-0.9 1.95-0.84 2.01-0.79 2.06-0.72 2.11-0.66 0.07-0.02-1.35-12.05-0.45-0.08-0.91-0.35-0.81-0.5-0.7-0.66-0.57-0.78-0.42-0.9-0.23-0.98-0.03-1.01 0.16-0.97 0.35-0.91 0.51-0.81 0.65-0.7 0.79-0.58 0.61-0.28-0.78-7.13-0.46 0.01-0.98-0.17-0.9-0.35-0.82-0.5-0.7-0.66-0.57-0.78-0.42-0.9-0.23-0.98-0.03-1.01 0.17-0.97 0.35-0.91 0.5-0.81 0.66-0.7 0.78-0.58 0.9-0.41 0.87-0.21 5.81-0.77 0.89-0.02 0.97 0.17 0.91 0.34 0.81 0.51 0.71 0.65 0.57 0.79 0.41 0.89 0.24 0.99 0.03 1.01-0.17 0.97-0.35 0.91-0.51 0.81-0.65 0.7-0.78 0.57-0.42 0.19 1.03 7.22h0.02l0.97 0.16 0.9 0.35 0.82 0.51 0.7 0.65 0.57 0.79 0.42 0.89 0.23 0.98 0.03 1.02-0.17 0.97-0.34 0.91-0.51 0.81-0.66 0.7-0.78 0.57-0.81 0.38 1.62 11.13 0.54-0.09 2.42-0.33c8.615-0.89 15.255 1.81 22.675-1.71l1.86-0.84 1.86-0.82 1.9-0.8 1.92-0.77 1.94-0.75 1.98-0.72 2-0.7 2.04-0.67 2.06-0.65 2.1-0.61 2.12-0.59 2.16-0.55 2.2-0.53 2.22-0.5 2.26-0.46 2.3-0.43 2.32-0.4 2.36-0.37 2.42-0.32 2.44-0.3 2.48-0.26 2.52-0.22 2.56-0.19 2.6-0.14 0.62-0.03 11.94-16.21-0.12-2.44-0.2-0.06-0.76-0.39-0.68-0.52-0.56-0.64-0.44-0.75-0.28-0.83-0.12-0.9 0.06-0.9 0.24-0.85 0.28-0.56-0.12-0.14-0.44-0.75-0.28-0.83-0.12-0.89 0.06-0.9 0.24-0.85 0.38-0.77 0.54-0.68 0.64-0.56 0.74-0.44 0.84-0.29 0.38-0.05-0.14-3.22-0.58-0.04-0.94-0.26-0.84-0.43-0.74-0.58-0.62-0.7-0.46-0.81-0.32-0.92-0.14-0.97 0.08-0.99 0.26-0.92 0.42-0.85 0.58-0.74 0.7-0.61 0.82-0.48 0.92-0.32 0.86-0.11 6.8-0.2 0.88 0.06 0.92 0.26 0.84 0.43 0.74 0.57 0.62 0.7 0.48 0.82 0.32 0.91 0.12 0.98-0.06 0.98-0.22 0.78 3.38-0.9 0.08-0.26 0.22-0.59 0.4-0.6 0.5-0.51 0.58-0.4 0.64-0.28 0.68-0.16 0.72-0.02 0.32 0.05h0.24l0.86 0.35 0.62 0.39 0.5 0.5 0.4 0.57 0.28 0.64 0.16 0.69 0.02 0.73-0.1 0.61-0.24 0.84 1 0.17 0.6 0.11 0.6 0.09 0.6 0.09 0.6 0.09 0.58 0.07 0.56 0.07 0.58 0.05 0.56 0.05 0.56 0.04 0.54 0.02 0.54 0.02 0.54 0.01 0.54-0.01 0.52-0.02 0.54-0.03 0.52-0.04 0.52-0.05 0.52-0.07 0.52-0.09 0.52-0.1 0.52-0.11 0.52-0.13 0.52-0.15 0.52-0.16 0.54-0.19 0.52-0.2 0.54-0.22 0.54-0.24 0.54-0.26 0.56-0.28 0.76-0.42 0.66-0.21 0.44-0.15 0.44-0.16 0.46-0.17 0.48-0.16 0.48-0.17 0.48-0.17 0.52-0.17 0.5-0.15 0.54-0.15 0.54-0.13 0.54-0.12 0.58-0.1 0.58-0.08 0.58-0.05 0.62-0.02 0.62 0.02 0.62 0.06 0.64 0.09 0.64 0.14 0.66 0.19 0.64 0.23 0.64 0.29 0.66 0.33 0.64 0.39 0.62 0.44 0.64 0.48 0.62 0.54 0.62 0.6 0.62 0.65 0.6 0.7 0.58 0.69 0.04 0.05 0.06 0.06 0.04 0.06 0.06 0.07 0.06 0.06 0.12 0.13 0.44 0.51 0.68 0.73 0.54 0.56 0.54 0.54 0.54 0.51 0.54 0.49 0.54 0.45 0.54 0.43 0.54 0.41 0.52 0.37 0.54 0.35 0.52 0.32 0.52 0.29 0.52 0.27 0.52 0.24 0.5 0.22 0.52 0.19 0.5 0.16 0.52 0.14 0.5 0.12 0.5 0.09 0.5 0.06 0.5 0.04 0.5 0.02h0.5l0.5-0.03 0.5-0.06 0.52-0.08 0.5-0.11 0.16-0.03 7.06-3.72 1.32-0.58 1.3-0.47 1.28-0.35 1.26-0.24 1.22-0.13 1.18-0.04 1.14 0.05 1.08 0.15 1.06 0.22 0.98 0.31 0.92 0.37 0.86 0.45 0.8 0.51 0.74 0.57 0.64 0.63 0.56 0.68 0.48 0.75 0.38 0.81 0.24 0.86 0.12 0.91-0.06 0.93-0.22 0.91-0.4 0.87-0.58 0.79-0.68 0.69-0.82 0.59-0.9 0.49-1 0.4-1.1 0.31-1.2 0.22-1.9 0.21-0.14 0.19-0.26 0.41-0.24 0.4-0.22 0.38-0.2 0.36-0.16 0.35-0.12 0.33-0.1 0.32-0.08 0.29-0.06 0.27-0.04 0.26-0.02 0.23v0.22l0.04 0.21 0.02 0.19 0.06 0.19 0.08 0.18 0.08 0.19 0.12 0.19 0.14 0.2 0.16 0.21 0.22 0.22 0.24 0.22 0.3 0.23 0.34 0.24 0.36 0.23 0.44 0.24 0.46 0.24 0.52 0.23 0.56 0.23 0.62 0.23 9.18 3.07-10.24 1.8-1.42 0.17-1.36 0.1-1.3 0.01-1.24-0.06-1.18-0.13-1.1-0.21-1.06-0.27-0.98-0.35-0.92-0.41-0.84-0.49-0.78-0.55-0.68-0.63-0.6-0.7-0.5-0.77-0.38-0.83-0.26-0.88-0.12-0.91 0.02-0.92 0.16-0.91 0.28-0.89 0.42-0.85 0.52-0.81 0.62-0.76 0.72-0.71 0.82-0.67 0.92-0.63 1-0.59 1.08-0.53 1.2-0.49 1.28-0.45 1.96-0.56v-0.13-0.25l-0.02-0.23-0.02-0.21-0.04-0.17-0.06-0.16-0.04-0.13-0.06-0.12-0.08-0.12-0.08-0.1-0.08-0.1-0.1-0.11-0.14-0.1-0.14-0.11-0.2-0.11-0.2-0.1-0.26-0.11-0.28-0.1-0.32-0.1-0.34-0.09-0.4-0.09-0.42-0.07-0.46-0.06-0.48-0.05-0.54-0.04-0.56-0.03-0.6-0.02h-0.62l-1.98 0.03-1.16 1.97-0.4 0.64-0.42 0.63-0.42 0.61-0.44 0.59-0.46 0.58-0.48 0.56-0.48 0.54-0.52 0.53-0.52 0.5-0.96 0.81-1.18 0.81-1.3 0.84-1.14 0.51-0.2 0.09-0.46 0.19-0.48 0.17-0.48 0.15-0.5 0.15-0.5 0.12-0.5 0.12-0.52 0.09-0.54 0.09-0.52 0.06-0.54 0.06-0.56 0.03-0.56 0.02h-0.56l-0.58-0.01-0.48-0.02-0.5 0.01-0.62-0.04-0.62-0.07-0.62-0.12-0.58-0.15-0.58-0.18-0.56-0.21-0.56-0.24-0.52-0.25-0.52-0.28-0.5-0.3-0.5-0.32-0.48-0.32-0.48-0.35-0.46-0.35-0.46-0.36-0.46-0.36-0.44-0.38-0.44-0.37-0.42-0.38-0.44-0.39-0.42-0.38-0.42-0.38-0.42-0.38-0.42-0.37-0.4-0.36-0.4-0.36-0.42-0.36-0.4-0.33-0.3-0.25-0.34 0.16-0.94 0.42-0.94 0.4-0.96 0.38-0.94 0.35-0.96 0.33-0.96 0.31-0.94 0.29-0.96 0.26-0.96 0.23-0.96 0.21-0.96 0.19-0.96 0.16-0.96 0.14-0.96 0.11-0.96 0.08-0.96 0.06-0.98 0.03-0.96 0.01-0.96-0.02-0.96-0.05-0.98-0.07-0.96-0.1-0.96-0.13-0.98-0.15-0.96-0.18-0.96-0.21-0.96-0.23-0.96-0.27-0.96-0.29-0.96-0.32-0.92-0.32-0.34 0.53-0.5 0.51-0.58 0.4-0.64 0.28-0.68 0.16-0.74 0.02-1.2-0.21-0.16-0.17-0.04-0.02-0.62-0.4-0.5-0.49-0.34-0.49-0.1 0.35-0.4 0.77-0.52 0.68-0.64 0.56-0.74 0.44-0.4 0.13 0.12 2.1 12.88 12.6 0.62-0.15 3.56-0.7 3.52-0.57 3.52-0.42 3.46-0.27 3.46-0.14h3.4l3.38 0.13 3.34 0.27 3.28 0.41 3.26 0.53 3.2 0.66 3.16 0.78 3.1 0.92 3.06 1.03 3 1.16 2.94 1.27 2.88 1.39 2.82 1.5 2.76 1.62 2.7 1.73 2.62 1.84 2.54 1.94 2.48 2.04 2.4 2.15 2.34 2.25 2.24 2.35 2.16 2.44 1.08 1.32 2.46 0.45 12.2-10.2 0.32-1.61-0.38-0.18-0.42-0.25-0.38-0.3-0.36-0.32-0.32-0.36-0.3-0.38-0.24-0.41-0.2-0.43-0.18-0.45-0.12-0.47-0.08-0.49-0.02-0.49 0.02-0.5 0.06-0.51 0.12-0.49 0.18-0.48 0.22-0.44 0.24-0.43 0.3-0.39 0.32-0.35 0.36-0.32 0.38-0.29 0.42-0.24 0.42-0.21 0.46-0.17 0.1-0.03-0.14-0.28-0.22-0.63-0.18-0.66-0.1-0.69-0.04-0.69 0.04-0.7 0.1-0.69 0.18-0.66 0.22-0.63 0.3-0.6 0.34-0.57 0.4-0.53 0.44-0.48 0.48-0.45 0.54-0.39 0.56-0.35 0.6-0.29 0.64-0.23 0.66-0.17 0.68-0.1 0.7-0.04 0.7 0.04 0.68 0.1 0.66 0.17 0.64 0.23 0.6 0.29 0.56 0.35 0.54 0.39 0.48 0.44 0.44 0.49 0.4 0.53 0.34 0.57 0.3 0.6 0.22 0.63 0.18 0.66 0.1 0.69 0.04 0.7-0.04 0.7-0.1 0.68-0.18 0.66-0.22 0.63-0.3 0.61-0.34 0.56-0.4 0.53-0.44 0.49-0.48 0.44-0.08 0.05 0.28 0.3 0.28 0.38 0.26 0.41 0.2 0.43 0.16 0.45 0.14 0.47 0.08 0.49 0.02 0.49-0.02 0.5-0.08 0.51-0.12 0.5-0.16 0.47-0.22 0.45-0.26 0.42-0.28 0.39-0.32 0.35-0.36 0.32-0.38 0.29-0.42 0.25-0.42 0.21-0.16 0.05 22.64 18.88 7.1 1.3 0.64 0.19 0.7 0.37 0.58 0.48 0.48 0.57 0.38 0.66 0.24 0.72 0.08 0.77-0.04 0.47v0.24l-0.24 0.85-0.36 0.69-0.48 0.59-0.58 0.48-0.66 0.36-0.72 0.24-0.78 0.1-0.66-0.06-1-0.18-0.64 0.97-0.52 0.72-0.54 0.68-0.56 0.63-0.58 0.6-0.6 0.55-0.6 0.51-0.64 0.46-0.64 0.42-0.66 0.37-0.68 0.32-0.7 0.27-0.7 0.2-0.72 0.16-0.72 0.08-0.74 0.02-0.72-0.04-0.74-0.12-0.7-0.19-0.7-0.26-0.68-0.33-0.64-0.4-0.62-0.46-0.58-0.53-0.54-0.58-0.5-0.64-0.46-0.69-0.42-0.74-0.2-0.4-0.18 0.11-0.84 0.56-0.84 0.49-0.84 0.44-0.8 0.38-0.82 0.33-0.8 0.26-0.78 0.2-0.8 0.13-0.78 0.07h-0.64v6.13c0.02 0.63 0.06 1.25 0.08 1.88 2.8 14.21 5.74 28.4 9.24 42.57 0.52 2.13 1.06 4.27 1.62 6.41l0.3-0.46 0.32-0.5 0.32-0.5 0.32-0.51 0.32-0.5 0.32-0.5 0.32-0.5 0.32-0.5 0.32-0.5 0.32-0.51 0.34-0.5 0.32-0.5 0.24-0.37-0.4-0.37-0.46-0.86-0.22-0.87-0.02-0.83 0.1-0.79 0.24-0.76 0.34-0.72 0.42-0.69 0.52-0.62 0.58-0.54 0.64-0.45 0.72-0.36 0.78-0.25 0.88-0.08 0.94 0.14 0.08 0.04 0.06-0.1 0.18-0.27 0.16-0.26 0.18-0.27 0.16-0.26 0.24-0.36 0.5-0.62 0.66-0.58 0.76-0.42 0.82-0.29 0.88-0.12 0.92 0.06 0.92 0.27 0.8 0.45 0.54 0.45 0.44 0.44 0.38 0.5 0.32 0.57 0.24 0.61 0.14 0.64 0.06 0.66-0.04 0.64-0.14 0.62-0.2 0.59-0.26 0.56-0.3 0.54-0.36 0.51-0.38 0.51-0.08 0.1 0.3 0.29 0.48 0.86 0.2 0.87 0.04 0.83-0.12 0.79-0.24 0.75-0.32 0.73-0.44 0.68-0.52 0.63-0.58 0.54-0.64 0.45-0.7 0.36-0.78 0.24-0.88 0.09-0.96-0.14-0.12-0.06-0.18 0.3-0.32 0.5-0.32 0.5-0.34 0.51-0.32 0.5-0.32 0.5-0.32 0.5-0.32 0.5-0.32 0.5-0.32 0.51-0.32 0.5-0.32 0.5-0.32 0.5-0.26 0.38 0.36 0.33 0.46 0.86 0.22 0.86 0.02 0.83-0.12 0.8-0.22 0.75-0.34 0.72-0.42 0.69-0.52 0.62-0.58 0.54-0.66 0.46-0.7 0.36-0.78 0.24-0.26 0.02c1.42 4.86 2.9 9.71 4.5 14.56l1.3-0.27 1.84-0.39 0.9-0.2 0.84-0.2 0.8-0.2 0.78-0.17 0.76-0.14 0.78-0.09h0.84l0.92 0.16 0.94 0.41 0.8 0.7 0.58 0.86 0.34 0.91 0.2 0.95 0.1 1.01 0.04 1.11-0.02 1.29-0.08 0.92-0.18 0.9-0.28 0.87-0.4 0.81-0.52 0.74-0.6 0.64-0.68 0.55-0.72 0.45-0.42 0.21v0.26l1.46-0.3 0.72 2.77 0.16 0.71 0.14 0.71 0.12 0.71 0.08 0.72 0.06 0.71 0.02 0.72-0.02 0.71-0.04 0.71-0.08 0.72-0.12 0.7-0.16 0.71-0.2 0.69-0.24 0.69-0.28 0.68-0.32 0.67-0.38 0.66-0.42 0.64-0.46 0.62-0.5 0.61-0.54 0.6-0.6 0.57-0.62 0.56-0.68 0.54-0.72 0.52-0.76 0.51-0.8 0.48-0.86 0.48-0.9 0.45-0.94 0.44-0.98 0.43-1.1 0.43-1.36 0.42-1.34 0.38-1.36 0.37-1.38 0.37-1.44 0.36-0.76 0.18-1.96 2.26-1.16 1.45-1 1.39-0.86 1.32-0.74 1.26-0.62 1.21-0.5 1.15-0.4 1.12-0.3 1.08-0.24 1.05-0.14 1.03-0.1 1.02-0.02 1.02 0.04 1.03 0.06 1.03 0.14 1.05 0.14 1.08 0.2 1.1 0.22 1.13 0.22 1.16 0.24 1.2 0.24 1.24 0.24 1.28 0.22 1.34 0.2 1.38 0.16 1.43 0.1 1.49 0.08 1.55v1.61l-0.06 1.67-0.14 1.74-0.22 1.85-0.28 1.34-0.28 1.26-0.3 1.24-0.34 1.22-0.36 1.19-0.38 1.17-0.4 1.15-0.42 1.13-0.46 1.12-0.46 1.09-0.5 1.08-0.5 1.06-0.52 1.05-0.56 1.03-0.56 1.03-0.56 1-0.6 1-0.36 0.6c3.52-0.93 7.04-1.6 10.58-1.9 3.62-0.31 7.24-0.23 10.86 0.34 19.12-43.65 17.4-93.04 20.72-141.55 3.1-45.51 6.22-91.03 9.32-136.54-58.56 0.01-117.14 0.01-175.7 0.01zm-111.48 279.87c5.94 0.88 12.01 3.12 18.18 6.27 1.19 0.52 2.32 0.92 3.42 1.21l-16.2-9.16-5.4 1.68zm24.51 8.01c0.2 0.02 0.39 0.03 0.59 0.04l-0.58-0.04h-0.01zm96.085-264.68 0.98 0.26 2.86-10.24-3.62 0.97-0.52 0.66-0.7 0.61-0.82 0.48-0.92 0.32-0.86 0.11-0.58 0.02 0.2 3.19 0.36 0.03 0.86 0.24 0.76 0.39 0.68 0.52 0.56 0.64 0.44 0.75 0.28 0.83 0.04 0.22zm0.72 1.12-0.66-0.18-0.04 0.64-0.24 0.85-0.28 0.56 0.12 0.14 0.36 0.63 0.74-2.64zm101.78 65.6 0.08-0.07 0.06-0.05-0.06 0.29-0.08-0.17zm6.76 15.9 2.1-13.35 0.38 0.62 0.42 0.63 0.46 0.6 0.48 0.56 0.54 0.51 0.56 0.47 0.62 0.41 0.64 0.36 0.7 0.29 0.34 0.11v8.09 0.1l0.02 0.09 0.08 0.33c0.54 14.08 1.64 28.6 3.6 43.81 0.66 5.15 1.42 10.39 2.3 15.71l-0.08 0.11-0.2 0.32-0.2 0.32-0.2 0.32-0.2 0.31-0.22 0.32-0.2 0.32-0.2 0.32-0.2 0.32-0.22 0.32-0.2 0.31-0.2 0.32-0.2 0.32-0.22 0.32-0.2 0.32-0.2 0.31-0.2 0.32-0.2 0.32-0.22 0.32-0.2 0.32-0.2 0.31-0.1 0.16-0.36-0.05-0.82 0.08-0.74 0.23-0.66 0.33-0.6 0.43-0.54 0.5-0.46 0.57-0.4 0.63-0.32 0.67-0.22 0.7-0.1 0.74 0.02 0.78 0.22 0.83 0.38 0.71-6.38 9.94-1.22 0.26 0.8-2.3 1.36-4.25 1.22-4.22 1.08-4.19 0.96-4.15 0.82-4.11 0.7-4.08 0.58-4.03 0.46-4 0.32-3.95 0.22-3.9 0.08-3.86-0.02-3.81-0.14-3.77-0.26-3.7-0.36-3.66-0.46-3.6-0.58-3.54-0.68-3.48-0.8-3.42-0.88-3.36-1-3.3-0.2-0.64zm-9.04 84.56-3.56 0.76-1.84 0.39-1.84 0.39-1.84 0.39-1.84 0.39-1.84 0.4-5.5 1.16-0.68 0.13-0.7 0.12-0.76 0.12-0.78 0.13-0.8 0.14-0.8 0.19-0.82 0.25-0.84 0.34-0.82 0.48-0.76 0.67-0.64 0.9-0.4 1.08-0.1 1.15 0.14 1.15 0.34 1.15 0.54 1.17 0.24 0.45 0.28 0.42 0.3 0.39 0.34 0.36 0.36 0.32 0.36 0.29 0.4 0.26 0.4 0.23 0.4 0.2 0.42 0.17 0.42 0.14 0.26 0.08v2.02l-0.14 0.03-0.82 0.26-0.78 0.34-0.8 0.51-0.68 0.79-0.4 0.96-0.1 0.88 0.06 0.74 0.1 0.66 0.12 0.66 0.12 0.71 0.12 0.8 0.1 0.91 0.06 1.07v0.24 0.26 0.26 0.26 0.17l-7.7-21.63 0.34-0.3 2.24-1.91 2.22-1.75 2.16-1.59 2.1-1.42 2.08-1.25 2-1.07 1.94-0.89 1.9-0.71 1.8-0.51 1.76-0.33 1.66-0.15 1.62 0.04 1.54 0.23 1.5 0.42 1.46 0.61 1.44 0.82 1.42 1.05 1.38 1.3 0.14 0.15zm-34.3 8.7 8.6 24.19-0.04 0.13-0.1 0.32-0.12 0.32-0.14 0.32-0.14 0.32-0.14 0.33-0.16 0.32-0.16 0.33-0.18 0.34-0.18 0.33-0.2 0.34-0.2 0.34-0.24 0.34-0.22 0.35-0.14 0.19-1 0.39-1.64 0.61-0.54 0.19-6.82-26.41 1.1-1.09 2.32-2.19 0.34-0.31zm-5.4 5.22 6.56 25.42-0.92 0.31-1.7 0.53-1.74 0.5-1.76 0.48-1.78 0.46-1.82 0.43-1.82 0.41-1.86 0.38-0.24 0.05-4.96-15.65 0.2-0.23 2.5-2.92 2.46-2.81 2.46-2.7 2.4-2.58 2.02-2.08zm-13.56 15.14 4.5 14.2-1.54 0.28-1.92 0.3-1.94 0.29-0.1 0.01-3.12-10.04 0.78-0.98 2.54-3.1 0.8-0.96zm-5.62 6.92 2.6 8.43-1.84 0.22-2.02 0.21-2.02 0.2-2.06 0.16-0.34 0.02-0.5-1.37 3.34-4.28 2.56-3.26 0.28-0.33zm-9.34-2.81c-0.46-2.23-0.9-4.47-1.34-6.71-1.16-5.95-2.24-11.89-3.26-17.82l1.48-0.16 1.48 0.03 1.22 0.25 0.98 0.43 0.8 0.6 0.68 0.83 0.58 1.14 0.44 1.5 0.26 1.88 0.04 2.28-0.2 2.66-0.46 3.04-0.76 3.42-1.04 3.8-0.9 2.83zm-6.54-24.11c0.4 2.41 0.82 4.82 1.26 7.22l-5.58 0.08c-0.24-1.82-0.44-3.66-0.6-5.5l0.08-0.04 2.38-0.98 2.18-0.71 0.28-0.07zm-6.84 2.72c0.16 1.54 0.32 3.08 0.52 4.6l-5.02 0.08c-0.1-0.66-0.22-1.32-0.32-1.97l1.58-0.96 2.7-1.49 0.54-0.26zm-6.66 3.85c0.78 4.58 1.62 9.17 2.56 13.77 1.12 5.43 2.36 10.86 3.8 16.3l-1.76-0.03-2.26-0.07-2.3-0.08-2.18-0.1-1.66-27.22 1.4-0.98 2.4-1.59zm-14.64 11.06 0.88 19.32-2.62 0.1-3.42 0.1-0.56 0.01c-2.14-2.9-4.14-5.8-6.06-8.7l0.44-0.42 3.58-3.45 3.54-3.26 3.46-3.05 0.76-0.65zm-21.1-4.87c-1.46-2.71-2.86-5.41-4.2-8.12l0.3 0.19 1 0.88 0.88 1.08 0.74 1.29 0.62 1.54 0.46 1.77 0.2 1.37zm-7-9.29c2.22 4.55 4.56 9.1 7.12 13.66l-0.04 1.01-0.3 2.7-0.54 2.91-0.52 2.07c-4.5-7.41-8.36-14.82-11.9-22.25l1.92-0.31 1.84-0.1 1.64 0.13 0.78 0.18zm14.88 26.42c1.62 2.44 3.3 4.88 5.08 7.32h-0.34l-3.26 0.03h-3.16c-0.8-1.11-1.56-2.23-2.32-3.35l4-4zm-26.28-24.59c-1.32 3.96-2.76 7.84-4.32 11.63-1.5-2.23-2.96-4.47-4.38-6.7l1.42-0.98 2.76-1.69 2.64-1.41 1.88-0.85zm-14.88 9.65c-1.72 4.04-3.52 8.09-5.4 12.14-0.72 1.55-1.44 3.09-2.18 4.64l-0.16-0.05-1.84-0.55-1.8-0.57-1.74-0.6-1.4-0.52 3.26-3.64 3.36-3.54 3.3-3.23 3.2-2.9 1.4-1.18zm-18.66 12.8-0.84-0.38-1.94-0.93-1.66-11.31c0.46-0.92 0.9-1.84 1.36-2.75 2.02-3.98 4.18-7.89 6.5-11.74l-0.54 6.06-1.26 10.3-1.62 10.75zm4.48-52.25c-1.04-2.16-2.02-4.33-2.96-6.5 0.88-0.85 1.78-1.68 2.66-2.49l0.22 4.07 0.08 4.92zm-0.42-11.56c-1.14 1.02-2.26 2.05-3.38 3.1-2.74-6.51-5.12-13.08-7.08-19.71-0.92-3.08-1.74-6.18-2.48-9.29l0.6-0.16 0.96-0.39 0.9-0.51 0.86-0.62 0.76-0.75 0.68-0.87 0.56-0.97 0.46-1.06 0.34-1.15 0.24-1.23 0.04-0.43 0.3 0.78 1.72 5.52 1.5 5.97 1.24 6.41 1 6.87 0.7 7.33 0.08 1.16zm-9.36-40.87-6.58-1.25c-0.52-3.8-0.88-7.63-1.1-11.47l1.84 2.41 2.52 3.87 2.34 4.27 0.98 2.17zm-9.8-15.23c0.18 4.56 0.58 9.09 1.16 13.59l-4.235-0.81-2.64-18.2 1.27 1 2.94 2.74 1.505 1.68zm98.98-58.9-0.66 0.16-3.6 1-3.62 1.15-1.7 0.62-0.8-13.11 10.38 10.18zm-18.28 3.48-2.46-0.05-2.76-0.01-2.74 0.02-2.14 0.06 9.52-12.94 0.58 12.92zm-61.14 128.59-0.14 6.64-0.52 8.59c-3.14 4.97-6.04 10.05-8.66 15.24l-0.08 0.16-2.14-14.71c3.46-5.5 7.3-10.82 11.54-15.92zm17.48 31.32 1.26-0.96c1.66 2.59 3.36 5.18 5.1 7.77-1.6 3.76-3.3 7.43-5.1 11.04-0.66 1.32-1.34 2.63-2.02 3.93l-0.12-0.02-2.14-0.43-2.1-0.46-2.02-0.48-1.76-0.45c0.7-1.45 1.36-2.9 2.04-4.34 2.4-5.2 4.7-10.4 6.86-15.6zm14.02-7.96 0.54-0.19 0.3-0.09c3.84 8.07 8.06 16.14 13.06 24.23l0.06 0.12-0.52 1.74-1.26 3.5-1.34 3.27-0.64-0.02-2.56-0.15c-3.2-4.03-6.22-8.07-9.08-12.11-1.34-1.91-2.68-3.83-3.96-5.74 1.96-4.72 3.78-9.57 5.4-14.56zm17.52 32.81 0.9-1.7 0.04-0.04 0.02-0.03c0.42 0.6 0.82 1.21 1.24 1.81l-0.64-0.01-1.56-0.03zm52.96-9.39-0.82 2.24-1.28 3.24h-2.3c-0.58-2.22-1.14-4.45-1.68-6.69h5.82l0.26 1.21zm-2.9 7.48-0.52 1.31h-0.08c-0.12-0.43-0.24-0.87-0.36-1.31h0.96zm107.86-51.87-0.42 0.09-1.84 0.39-1.84 0.39-1.84 0.39-1.62 0.35c-0.6-2.91-1.18-5.8-1.72-8.66l0.06-0.1 0.2-0.32 0.22-0.32 0.2-0.32 0.2-0.31 0.2-0.32 0.22-0.32 0.2-0.32 0.2-0.32 0.2-0.31 0.2-0.32 0.22-0.32 0.2-0.32 0.2-0.32 0.2-0.31 0.22-0.32 0.2-0.32 0.2-0.32 0.2-0.32 0.2-0.32 0.22-0.31 0.2-0.32 0.2-0.32 0.2-0.32 0.04-0.04c1.4 4.83 2.88 9.67 4.48 14.51zm-9.52 2.02-0.1 0.03-1.82 0.39-1.84 0.39-1.84 0.39-0.88 0.18 1.42-2.21 0.66 0.1 0.82-0.08 0.74-0.23 0.66-0.34 0.6-0.42 0.54-0.5 0.46-0.56c0.2 0.95 0.4 1.91 0.58 2.86zm1.26-30.33-0.2 0.02-0.78 0.25-0.7 0.35-0.64 0.46-0.58 0.54-0.52 0.62-0.44 0.69-0.18 0.39c-0.44-2.91-0.84-5.79-1.2-8.65-1.34-10.37-2.26-20.42-2.9-30.23 2.02 9.81 4.18 19.62 6.6 29.45 0.5 2.04 1.02 4.08 1.54 6.11zm-102.26 81.54-1.94 0.03h-2.2-0.64c-0.12-0.46-0.24-0.93-0.36-1.39h4.78c0.12 0.45 0.24 0.91 0.36 1.36zm-59.94-0.02-0.34-0.03-2.68-0.21-2.6-0.24-2.54-0.27-2.48-0.3-2.4-0.33-2.34-0.35-2.28-0.38-0.04-0.01c0.58-1.13 1.18-2.27 1.74-3.42 1.62-3.26 3.18-6.58 4.64-9.97 1.08 1.57 2.16 3.15 3.28 4.72 2.54 3.59 5.22 7.19 8.04 10.79zm-48.46-42.69-1.96-13.46c3.06-3.48 6.22-6.81 9.46-9.99 1.22 2.76 2.48 5.5 3.82 8.24-4.14 4.88-7.9 9.96-11.32 15.21zm-2.32-16.04-5.88-40.32 0.42 0.15 1 0.28 1 0.21 1.02 0.12 1.02 0.04 0.4-0.02c0.74 3.2 1.6 6.38 2.54 9.55 2.06 6.94 4.56 13.82 7.46 20.63-3.08 2.98-6.08 6.1-8.98 9.36zm-47.815-48.48 0.73-0.11 0.98-0.27 0.95-0.39 0.91-0.5 0.85-0.63 0.76-0.75 0.68-0.87 0.57-0.96 0.46-1.07 0.34-1.15 0.18-0.94 1.21 0.23 0.1 0.59 0.31 1.16 0.4 1.11 0.48 1.06 0.57 1.01 0.63 0.94 0.7 0.89 0.54 0.59c-1.57 6.05-2.87 12.28-3.84 18.74l-2.95-0.21-9.15-0.65-0.16-0.02c0.95-6 2.23-11.93 3.75-17.8zm14.02 1.48 0.19 0.16 0.89 0.63 0.91 0.57 0.95 0.5 0.96 0.44 0.99 0.36 1 0.28 1 0.21 1.02 0.13 1.01 0.03 1.02-0.06 1-0.16 0.98-0.27 0.95-0.38 0.91-0.5 0.84-0.63 0.77-0.75 0.68-0.87 0.05-0.1 6.82 60.8c-0.49 0.67-0.97 1.34-1.46 2.01l0.11-0.34 0.11-0.5 0.08-0.51 0.04-0.53 0.02-0.54-0.02-0.55-0.04-0.53-0.08-0.51-0.12-0.5-0.19-0.53-0.36-0.64-0.43-0.42 0.14-0.31 0.16-0.51 0.11-0.5 0.08-0.51 0.04-0.52 0.02-0.55-0.02-0.55-0.04-0.52-0.08-0.51-0.12-0.51-0.19-0.53-0.36-0.64-0.83-0.8-1.17-0.23-1.22 0.2 0.24-8.89-10.86-21.01 0.48-1.32-1.21-0.09-2.46-0.17-0.96-0.07-3.77-0.27-2.09-0.15c0.9-5.96 2.09-11.73 3.51-17.34zm23.27 63.33 2.11 18.86c-0.16 0.33-0.31 0.66-0.47 0.99l-0.16-0.2-0.48-0.61-0.47-0.61-0.45-0.62-0.43-0.62-0.43-0.63-0.41-0.63-0.4-0.64-0.38-0.64-0.37-0.65-0.36-0.65-0.34-0.66-0.34-0.67-0.32-0.66-0.31-0.68-0.3-0.67-0.28-0.69-0.28-0.68-0.26-0.69-0.09-0.24c1.69-2.64 3.43-5.21 5.22-7.71zm-6.04 5.3-0.05-0.16-0.21-0.71-0.2-0.72-0.11-0.41 0.04-1.81 3.03-0.49 0.64-0.35c-1.06 1.53-2.11 3.08-3.14 4.65zm121.62 33.76h4.76c-0.58-2.22-1.14-4.45-1.66-6.69h-4.7c0.5 2.23 1.04 4.46 1.6 6.69zm-2.04-8.69h4.7l-0.04-0.1c-0.44-2.05-0.86-4.11-1.26-6.19h-4.72l0.34 1.65c0.32 1.55 0.64 3.1 0.98 4.64zm6.74 0h5.86c-0.44-2.1-0.86-4.19-1.26-6.29h-5.92c0.38 1.93 0.78 3.85 1.2 5.76l0.12 0.53zm-8.46-8.28h4.76c-0.42-2.31-0.78-4.64-1.1-6.98l-4.92 0.06c0.4 2.31 0.82 4.62 1.26 6.92zm6.78 0h5.88c-0.44-2.36-0.88-4.73-1.32-7.09l-5.68 0.08c0.32 2.35 0.7 4.69 1.12 7.01zm-148.58-110.16c-0.95 2.61-1.86 5.23-2.74 7.86l11.68 2.22c1.21-3.62 2.51-7.18 3.88-10.69l-12.82 0.61zm-4.71 7.48c0.81-2.47 1.67-4.93 2.55-7.38l-21.78 1.03-0.42 0.02-2.7 2.09 22.35 4.24zm19.71-8.2c-1.44 3.67-2.81 7.39-4.08 11.17l10.57 2.01-1.5-13.41-4.99 0.23zm246.76-21.62-20.06-16.71-2.06 12.62 22.12 4.09zm-28.92-14.55-9.02 7.54 7.24 1.34 1.78-8.88zm7.84 132.46-1 0.2-1.04 0.22v-0.14l0.62-0.13 1.42-0.27v0.12zm-12.12 2.51-0.98 0.21-1.06 0.22v-0.29l1.1-0.22 0.94-0.18v0.26zm-12.12 2.52-0.94 0.2-1.1 0.23v-0.44l1.56-0.3 0.48-0.1v0.41z" fill="#fff"/>
<path d="m327.4 219.97c10.72-4.05 12.44-10.14 10.52-17.06-21.48 4.46-42.96 8.93-64.46 13.4-7.2 1.5-4.6 1.08-4.36 7.7 0.06 1.56-0.06 3.14-0.46 4.76 25.92-1.75 45.52-4.68 58.76-8.8zm-222.64 72.38c1.88-0.74 3.72-1.68 5.64-2.64 2.94-1.49 6.04-3.04 9.56-4.18l-15.08-1.68-0.12-0.02-0.1-0.03c-6.465-2.3-12.255-5.05-17.435-8.19l-8.31 7.41 15 8.49 10.845 0.84zm21.08-8.17c5.1-0.71 11.14-0.35 18.68 2.08l22.04 2.45 0.56-10.96-1.48-0.13c-17.1-1.45-34.22-3.56-51.34-6.02l-6.16 10.6 17.7 1.98zm25.72 4.87c5.5 2.56 10.6 3.41 15.58 3.21 2.1-0.09 4.2-0.36 6.3-0.77l-21.88-2.44zm27.46 1.05c1.5-0.44 3.02-0.93 4.56-1.45l0.04-0.02 0.08-0.02c0.46-0.09 1.14-0.23 1.86-0.37 10.6-2.19 21.22-4.37 39.88 3.49 1.36 0.44 2.6 0.73 3.76 0.89l7.9-1.72-0.96-11.96c-5.42 0.5-11.28 0.76-17.62 0.76-16.5 0.2-32.96-0.48-49.42-1.79l-0.56 11.02 10.48 1.17zm62.04-0.06c3.16-1.42 6.76-2.99 11.94-3.73 3.82-1.44 7.86-1.75 11.96-1.47l10.36-2.25c6.04-2.63 10.14-5.94 13.02-9.68 0.4-0.52 0.78-1.06 1.12-1.59l-8.72-9.13c-3.32 3.46-7.52 6.45-12.64 8.93-7.76 3.75-17.66 6.34-29.96 7.63l0.92 11.72 2-0.43zm29.84-4.44c2.64 0.46 5.28 1.06 7.86 1.64 6.52 1.48 12.74 2.89 17.72 1.78 2.32-0.88 4.62-1.69 6.94-2.4 4.12-6.26 7.36-12.82 8.88-21.07 2.72-18.63-9.6-24.89 5.88-42.13-6.46 1.47-13.96 2.74-22.48 3.81l-0.42 0.75c-0.94 4.51-1.34 9.01-1.36 13.52-0.02 6.33 0.78 12.67 2.06 19.01l0.04 0.23-0.04 0.21c-1.2 4.67-2.98 9.14-6.06 13.17-3.1 4.02-7.48 7.56-13.9 10.34l-0.1 0.05-0.08 0.02-4.94 1.07zm2.3-56.15c-1.6 0.12-3.2 0.23-4.82 0.34-0.6 1.93-1.6 3.93-3.14 6-17.54 7.05-39.12 9.56-64.04 8.3l-0.46 0.03 0.58 9.5c15.26-0.04 30.18-0.99 44.88-2.61 14.2-3.88 21.72-12 27-21.56zm-82.44 15.21c-37.74 1.59-62.3-2.67-78.18-10.49l1.22 8.35c4.04 1.5 8.46 2.73 13.34 3.65 22.1 4.6 43.38 6.84 64.02 7.34l-0.4-8.85zm-91.525-19.59c-6.69-6.34-10.5-13.81-12.59-21.82l0.07-2.58-8.49 1.38c3.77 13.7 10.45 25.38 22.195 33.56l-1.185-10.54zm-43.19-23.17h-8.01c2.34 17.86 6.9 34.24 15.57 47.89 0.48 0.77 0.98 1.52 1.49 2.27l7.85-5.23c-0.81-0.99-1.59-1.99-2.34-3.02-8.59-11.78-12.93-26.06-14.56-41.91zm10.2 51.8c8.79 12.15 21.28 21.87 38.975 28.18l0.74 0.08 6.26-10.74c-16.945-5.07-29.235-12.91-37.965-22.86l-8.01 5.34zm224.3 15.85c1.56-2.8 2.64-5.79 3.44-8.88-1.28-6.39-2.06-12.78-2.06-19.18 0.02-2.34 0.12-4.69 0.36-7.04-1.36 3.65-2.36 7.67-2.86 12.17v0.09l-0.02 0.06c-1.4 5.21-3.8 9.87-7.3 13.94l8.44 8.84zm-7.08-40.98c-3.08 0.3-6.26 0.57-9.54 0.82-3.06 10.77-9.6 20.09-26.68 25.08-4.08 0.33-8.18 0.61-12.28 0.85l1.36 10.43c7.24-0.65 13.94-1.92 19.94-4.24 12.66-4.91 22.22-14.56 27.2-32.94zm-50.5 26.87c-20.58 1.13-41.32 1.15-62.16-0.51l-1.54 9.05c11.92 1.02 23.86 1.68 35.78 1.96h0.02c10.34 0.38 20.2 0.63 29.26-0.03l-1.36-10.47zm-64.16-0.67c-14.64-1.25-29.32-3.33-44.04-6.44l-3.5 9.61c0.62 0.14 1.26 0.27 1.92 0.4 13.64 2.16 27.28 3.9 40.92 5.18 1.06 0.1 2.12 0.19 3.16 0.29l1.54-9.04zm-46-6.88c-14.16-3.28-24.125-8.94-31.085-16.3l-7.23 6.33c7.46 8.79 18.415 15.67 34.815 19.57l3.5-9.6zm-32.425-17.78c-6.78-7.82-10.43-17.41-12.23-28.05l-0.53 0.09v-0.25h-8c2.26 12.78 5.98 24.73 13.61 34.47l7.15-6.26zm202.86-2.58c-2.46 0.3-5.02 0.58-7.66 0.84-4.38 16.75-12.4 26.66-23.04 32.42l5.4 8.18c10.64-5.34 16.9-13.02 19.5-22.65 0.68-5.93 2.16-11.07 4.24-15.62 0.48-1.09 1-2.14 1.56-3.17zm-32.48 34.18c-1.22 0.6-2.5 1.15-3.78 1.66-14.28 5.53-32.26 5.28-52 4.56-0.94-0.02-1.88-0.05-2.82-0.07l0.78 9.78c5.2 0.1 10.38 0.13 15.56 0.07h0.02c20.8-0.01 36.42-2.76 47.6-7.87l-5.36-8.13zm-60.6 6.09c-12.1-0.39-24.18-1.16-36.24-2.3-8.46-0.79-16.9-1.76-25.36-2.89l-2.16 9.94c9.8 1.2 19.6 2.25 29.42 3.08 11.72 1 23.42 1.68 35.12 1.96l-0.78-9.79zm-63.58-5.46c-4.58-0.63-9.16-1.31-13.74-2.03l-0.04-0.01c-9.32-1.85-17.06-4.59-23.495-8.05l-5.02 9.45c5.51 3.03 11.775 5.62 18.875 7.72 7.08 1.02 14.16 1.99 21.24 2.88l2.18-9.96zm-39.025-11.06c-6.61-3.82-11.78-8.43-15.88-13.65-2.7-3.45-4.93-7.16-6.79-11.07l-10.45 2.09c2.06 4.98 4.63 9.66 7.78 13.99 5.11 7 11.77 13.1 20.32 18.08l5.02-9.44zm-23.52-26.59c-3.09-7.09-5.05-14.79-6.45-22.79h-9.53c0.92 8.85 2.7 17.2 5.63 24.86l10.35-2.07zm-36.29-22.79 3.91 13.46c1.24 5.2 2.54 10.39 4.07 15.56l6.3-1.37c-2.84-8.67-4.75-17.95-6.01-27.65h-8.27zm8.56 30.94c5.1 16.61 12.84 32.93 29.27 48.29l1.5 0.85 8.38-7.47c-10.04-6.44-17.7-14.44-23.54-23.65-3.81-5.99-6.83-12.49-9.24-19.4l-6.37 1.38zm221.42-24.39c1.6 3.15 6.28 2.61 10.04 1.87 17.76-3.47 35.5-6.95 53.24-10.43 5.66-1.1 8.58-1.75 8.72-5.82 0.26-6.64-1.64-5.17-6.84-4.06-19.62 4.17-39.24 8.34-58.84 12.5-3.82 0.82-9.06 0.5-6.32 5.94zm-195.72-20.12h6.03v0.04l9.06-1.47 0.25-9.61-10.41-20.16-6.9 19.03h1.47 0.5v0.5 11.67zm-40.85-11.17c0.94 0.53 2.71 1.07 2.76 1.6l0.96 9.58h3.56v-5.43-0.38l0.15-0.34 0.25-0.24 0.25-0.25 0.34-0.15h0.38v-0.01h3.34 0.01v0.01h0.37l0.34 0.15 0.25 0.24 0.25 0.25 0.15 0.34v0.38 5.43h5.11v-5.43l0.01-0.38 0.15-0.34 0.24-0.24 0.25-0.25 0.34-0.15h0.38v-0.01h3.35l0.01 0.01h0.37l0.34 0.15 0.25 0.24 0.24 0.25 0.16 0.34v0.38 5.43h4.38v-5.43l0.01-0.38 0.15-0.34 0.24-0.24 0.25-0.25 0.35-0.15h0.37v-0.01h0.01 3.34l0.01 0.01h0.37l0.34 0.15 0.25 0.24 0.25 0.25 0.15 0.34v0.38 5.43h4.82v-11.18h-1.68-0.71-37.46zm8.28 11.17h4.09v-5.42-0.1l-0.04-0.09-0.07-0.07-0.07-0.07-0.09-0.04h-0.1-3.35-0.1l-0.09 0.04-0.07 0.07-0.07 0.07-0.04 0.09v0.1 5.42zm11.19 0h4.09v-5.42-0.1l-0.04-0.09-0.06-0.07-0.07-0.07-0.09-0.04h-0.1-0.01-3.34-0.01-0.1l-0.09 0.04-0.07 0.07-0.06 0.07-0.05 0.09v0.1 5.42zm10.47 0h4.09v-5.42h0.01v-0.1l-0.05-0.09-0.06-0.07-0.07-0.07-0.09-0.04h-0.1-0.01-3.34-0.11l-0.09 0.04-0.07 0.07-0.07 0.07-0.04 0.09v0.1 5.42zm-28.43 5.58h43.95v-4.16h-43.95c-1.15 0-2.08 0.94-2.08 2.08s0.93 2.08 2.08 2.08zm0.69 6.57h43.96v-4.15h-43.96c-1.14 0-2.08 0.93-2.08 2.08 0 1.14 0.94 2.07 2.08 2.07zm57.92-1.98-12.23 1.98v-4.15l12.23-1.98c0.31-0.06 0.57 0.84 0.57 1.98s-0.26 2.12-0.57 2.17zm-0.7-6.58-12.23 1.99v-4.16l12.23-1.98c0.32-0.05 0.58 0.84 0.58 1.98s-0.26 2.12-0.58 2.17zm179.52 27.6c22.38-3.58 44.76-8.08 67.14-13.5-22.38 4.5-44.76 9-67.14 13.5zm0 3.81c21.7-3.58 43.38-8.08 65.08-13.5l-65.08 13.5zm3.12 3.11c20.42-3.58 40.84-8.08 61.26-13.5-20.42 4.5-40.84 9-61.26 13.5zm4.5-14.66v2.2l-0.5 0.1-2 0.42-2.02 0.42-1.02 0.21v-2.85h0.04l0.4 0.02 0.38 0.01 0.4-0.01 0.4-0.01 0.4-0.03 0.4-0.03 0.4-0.04 0.4-0.04 0.38-0.05 0.4-0.06 0.38-0.06 0.38-0.06 0.38-0.07 0.36-0.06 0.04-0.01zm58.14-11.53v1.64l-0.22 0.05-2.02 0.41-2.02 0.42-1.28 0.27v-1.56l0.98-0.19 1.04-0.21 0.98-0.2 0.92-0.2 0.86-0.22 0.76-0.21zm-9.68 2.04v1.61l-0.62 0.13-2 0.42-2.02 0.42-0.9 0.18v-1.68l0.68-0.13 1.66-0.33 1.66-0.32 1.54-0.3zm-12.12 2.37v1.76l-0.58 0.12-2.02 0.42-2 0.42-0.94 0.19v-1.82l1.14-0.23 1.68-0.32 1.66-0.33 1.06-0.21zm-12.12 2.37v1.91l-0.54 0.11-2.02 0.42-2.02 0.42-0.96 0.2v-1.97l1.62-0.32 1.66-0.32 2.26-0.45zm-12.1 2.38v2.05l-0.52 0.11-2.02 0.42-2.02 0.41-0.98 0.21v-2.12l0.42-0.08 1.66-0.32 1.66-0.33 1.8-0.35zm-19.4-4.08c22.4-3.58 44.78-8.08 67.16-13.5-22.38 4.5-44.76 9-67.16 13.5zm0.36 2.77c22.38-3.58 44.76-8.08 67.14-13.5-22.38 4.5-44.76 9-67.14 13.5zm26.64 26.65c7.96 20.24 7.86 37.9-10.04 49.84 16.88-16.05 15.38-32.87 10.04-49.84zm7.28 1.73c6.26 17.65 9.4 35.07-9.34 50.88 14.52-15.93 15.1-33.12 9.34-50.88z" fill="#d2191e"/>
<path d="m47.545 154.45-4.86-0.35c-0.71 1.79-1.6 3.57-2.58 5.35l4.96 0.4 2.48-5.4zm-7.98 5.96c-1.14 2.02-2.38 4.03-3.6 6.05l5.86 0.47 2.8-6.11-5.06-0.41zm-4.18 7c-1.75 2.92-3.42 5.84-4.63 8.75h6.83l3.79-8.27-5.99-0.48zm40.71-10.92-3.84-0.27-2.57 5.6 4.35 0.35 2.06-5.68zm-6.85 6.3-2.81 6.11 5.02 0.4 2.23-6.16-4.44-0.35zm-3.25 7.08-2.89 6.29h5.86l2.13-5.89-5.1-0.4zm5.2-13.73-5.98-0.43-2.54 5.55 5.95 0.48 2.57-5.6zm-8.97 6.09-2.8 6.11 5.96 0.47 2.8-6.11-5.96-0.47zm-3.24 7.07-3.15 6.86h6.17l2.93-6.38-5.95-0.48zm5.17-13.66-8.09-0.58-2.51 5.47 8.06 0.64 2.54-5.53zm-11.04 5.86-2.81 6.11 8.06 0.64 2.8-6.11-8.05-0.64zm-3.25 7.07-3.48 7.59h8.35l3.19-6.94-8.06-0.65zm5.14-13.59-6.4-0.45-2.48 5.4 6.37 0.51 2.51-5.46zm-9.32 5.92-2.81 6.11 6.38 0.51 2.8-6.11-6.37-0.51zm-3.25 7.08-3.75 8.18h6.6l3.52-7.67-6.37-0.51z" fill="#008bd2"/>
<path d="m38.155 110.64 2.2-0.11 2.98-4.61 0.88-1.11-6.06 0.29c-1.24 0.06-2.26 1.13-2.26 2.37v1.01c0 1.25 1.02 2.22 2.26 2.16zm299.72-17.12-52.66-9.72c0.94 1.28 1.86 2.57 2.76 3.88l49.3 9.1c0.9 0.17 1.76-0.43 1.92-1.33 0.16-0.89-0.42-1.76-1.32-1.93zm-4.76 52.31c-0.46 0.7-0.92 1.41-1.36 2.12l3.68 2.55c2.28-2.28 2.54-4.07 0.78-5.37-0.98-0.74-2.44-0.33-3.1 0.7zm-133.26 107.32-2.32-37.99-3.18 2.42-3.28 2.61 1.48 32.98 7.3-0.02zm-11.84-194.09-1.26-20.63-3.84 0.26 0.9 20.12 0.86 0.03 3.24 0.15 0.1 0.07zm-6.38-31.04 5.54-0.17c1.2-0.03 2.2 0.92 2.24 2.13 0.04 1.2-0.92 2.21-2.12 2.25l-5.52 0.17c-1.22 0.03-2.22-0.92-2.26-2.13-0.04-1.2 0.92-2.22 2.12-2.25zm0.38 4.92 5.52-0.16c1.22-0.04 2.22 0.92 2.26 2.12s-0.92 2.22-2.12 2.25l-5.54 0.17c-1.2 0.04-2.2-0.92-2.24-2.12-0.04-1.21 0.92-2.22 2.12-2.26zm-0.92-17.82 6.58-0.2c1.44-0.04 2.64 1.1 2.7 2.53 0.04 1.44-1.1 2.64-2.54 2.69l-6.58 0.19c-1.44 0.05-2.64-1.09-2.68-2.52-0.06-1.44 1.08-2.65 2.52-2.69zm-100.68 28.99 1.08 9.89 3.4-0.45-1.41-9.84-3.07 0.4zm0.98 16.26 5.58-0.73c1.48-0.2 2.54-1.58 2.34-3.07-0.19-1.49-1.57-2.55-3.06-2.35l-5.58 0.74c-1.49 0.19-2.55 1.57-2.35 3.06s1.58 2.55 3.07 2.35zm-2.82-16.72 5.58-0.74c1.49-0.19 2.55-1.57 2.35-3.06s-1.58-2.55-3.07-2.35l-5.58 0.74c-1.49 0.19-2.54 1.57-2.34 3.06 0.19 1.49 1.57 2.55 3.06 2.35zm3.7 17.46 1.54 13.76h0.01l2.21-0.52 1.81-0.37-1.94-13.35-3.63 0.48zm4.56 40.67 2.64 23.62 6.02 1.14-3.16-21.67-1.79-1.17-3.33-1.76-0.38-0.16zm3.27 29.23 11.925 106.37c3.3 2.32 7.08 4.88 10.38 5.54l-14.845-102.12-0.31-0.19-0.84-0.61-0.8-0.66-0.77-0.73-0.71-0.78-0.66-0.83-0.59-0.89-0.53-0.95-0.46-0.99-0.38-1.04-0.28-1.09-0.14-0.85-0.99-0.18zm95.305-104.52-0.36-5.61-1.92 0.05 0.22 5.62 2.06-0.06zm120 43.34-2.66 16.09-4.14-0.76 3.2-16.03 3.6 0.7zm-3.64 21.85-2.92 18.33c-1-2.95-2.12-5.82-3.38-8.58l2.04-10.53 4.26 0.78zm4.36-38.64c2.54 0 4.6 2.06 4.6 4.61 0 2.54-2.06 4.6-4.6 4.6s-4.6-2.06-4.6-4.6c0-2.55 2.06-4.61 4.6-4.61zm0.2 16.12-5.52-1.08c-1.48-0.29-2.44-1.73-2.16-3.2 0.28-1.48 1.72-2.45 3.2-2.16l5.52 1.07c1.48 0.29 2.46 1.73 2.16 3.21-0.28 1.47-1.72 2.44-3.2 2.16zm26.76 87.67-6.28-4.33c-0.74-0.51-0.66-1.86 0.18-3.01 0.82-1.15 2.1-1.67 2.84-1.17l6.28 4.34c0.74 0.5 0.66 1.86-0.18 3.01-0.82 1.15-2.12 1.67-2.84 1.16zm-20.24 30.87-5.5-3.8c-0.66-0.45-0.58-1.64 0.16-2.65 0.72-1.01 1.84-1.47 2.5-1.02l5.52 3.81c0.64 0.44 0.56 1.63-0.16 2.64-0.74 1.01-1.86 1.47-2.52 1.02zm10.7-16.22-6.28-4.33c-0.74-0.51-0.66-1.86 0.18-3.01s2.12-1.68 2.84-1.17l6.28 4.34c0.74 0.5 0.66 1.86-0.18 3-0.82 1.15-2.1 1.68-2.84 1.17zm3.9-16.85c-1.72 2.68-3.44 5.35-5.16 8.02 1.24 0.86 2.46 1.7 3.7 2.56 1.72-2.68 3.44-5.35 5.14-8.02-1.22-0.86-2.46-1.7-3.68-2.56zm-9.46 14.71c-2.18 3.4-4.36 6.79-6.54 10.19 1.24 0.85 2.46 1.7 3.7 2.55 2.18-3.39 4.36-6.79 6.54-10.19-1.24-0.85-2.46-1.7-3.7-2.55zm-10.5 16.35-6.26 9.76 6.14-1.28 3.82-5.93-3.7-2.55zm-264.64-75.28 42.43-2.01-0.32-2.64-0.45-0.02h-0.45l-0.44 0.02-0.44 0.03-0.44 0.04-0.43 0.06-0.43 0.07-0.42 0.08-0.42 0.1-0.41 0.11-0.41 0.13-0.41 0.14-0.4 0.16-0.4 0.17-0.39 0.18-0.4 0.2-1.03 0.56-1.41-0.62-0.73-0.31-0.73-0.28-0.7-0.25-0.69-0.23-0.68-0.2-0.66-0.17-0.64-0.15-0.63-0.12-0.62-0.1-0.6-0.07-0.59-0.06-0.58-0.03-0.56-0.01-0.55 0.02-0.54 0.03-0.53 0.05-0.52 0.07-0.51 0.09-0.5 0.1-0.5 0.13-0.48 0.14-0.47 0.16-0.47 0.17-0.46 0.19-0.46 0.21-0.44 0.22-0.45 0.24-0.43 0.26-0.44 0.27-0.42 0.28-1.17 0.83-1.37-0.78-0.56-0.29-0.53-0.26-0.52-0.23-0.5-0.2-0.49-0.16-0.47-0.14-0.45-0.12-0.44-0.09-0.43-0.07-0.41-0.04-0.4-0.02-0.39-0.01-0.38 0.02-0.38 0.03-0.36 0.06-0.36 0.06-0.35 0.09-0.35 0.1-0.34 0.11-0.34 0.13-0.34 0.15-0.33 0.16-0.34 0.17-0.33 0.18-0.33 0.2-0.33 0.21-0.33 0.22-0.33 0.22-0.33 0.24-0.32 0.25-2.05 1.57z" fill="#a65c45"/>
<path d="m43.695 107.98c6.2-10.74 26.36-13.91 40.24-7.94l1.02 4.3c-2.81-0.12-5.42 0.51-7.82 1.87-8.45-3.9-14.39-2.72-19.19 0.76-6.58-3.88-10.6-1.86-14.25 1.01z" fill="#ab2222"/>
<path d="m36.715 119.43 74.325 14.11c0.7 0.13 1.38-0.33 1.5-1.02 0.14-0.69-0.32-1.37-1.02-1.5l-74.325-14.11c-0.69-0.13-1.37 0.33-1.5 1.02s0.33 1.36 1.02 1.5z" fill="#a65c45"/>
<g transform="translate(-113.74 -241.23)" fill="#d2191e">
<path d="m158.53 363.11c1.3 10.86 18.23 15.98 18.75 3.65-6.25-1.22-12.5-2.43-18.75-3.65zm24.23 4.69c1.3 10.86 18.23 15.98 18.75 3.65-6.25-1.22-12.5-2.43-18.75-3.65zm23.44 4.17c1.3 10.85 18.24 15.98 18.76 3.65-6.26-1.22-12.51-2.43-18.76-3.65zm-44.02-5.99c3.04 5.56 7.12 6.6 12.24 3.12-5.25 2.09-9.08 0.35-12.24-3.12zm24.22 4.69c3.04 5.56 7.12 6.6 12.25 3.12-5.26 2.09-9.08 0.35-12.25-3.12zm24.23 4.43c3.04 5.55 7.12 6.6 12.24 3.12-5.25 2.09-9.07 0.35-12.24-3.12z"/>
<path d="m409.53 331.77-6.62-1.06c1.08 1.65 2.11 3.33 3.09 5.04 1.26-0.95 2.47-2.29 3.53-3.98zm38.13 7.32c-4.83-0.78-9.65-1.56-14.48-2.34-5.44-1.03-10.89-2.07-16.34-3.11 2.25 8.86 6.88 12.11 16.19 4.36 2.46 9.22 9.98 8.49 14.63 1.09z"/>
<path d="m165.68 493.71c-4.26 4.23-9.37 7.82-15.08 10.97 3.53 8.26 8.29 16.53 15.74 24.79 3.93-1.78 7.98-2.64 12.11-2.75l9.82-3.06-0.55-0.31c-10.23-9.56-17.08-19.49-22.04-29.64zm-9.72 18.71c2.98-4.96 7.81-7.54 14.49-7.74-5.76 1.42-10.85 3.67-14.49 7.74zm5.76 8.13c2.97-4.96 7.8-7.54 14.48-7.73-5.75 1.42-10.85 3.67-14.48 7.73z"/>
</g>
<path d="m227.88 32c-9.64 4.67-19.28 5.58-28.9 1.97-1.26-2.32-0.94-4.19 0.9-5.62 0.72 0.31 1.42 0.59 2.12 0.84 1.12 0.39 2.2 0.7 3.3 0.94 5.56 1.2 11 0.46 16.3-2.24l0.06-0.03 0.04-0.06c1.26-2.05 3.76-3.19 7.52-3.41 0.86-0.05 1.76-0.05 2.74 0l-0.04 0.19c-0.42 2.74-1.94 5.17-4.04 7.42z" fill="#fff"/>
<path d="m249.92 39.43c-2.06 0.94-4.46 1.38-7.26 1.21-5.2 0.25-9.3-5.38-13.94-8.83 1.76-1.99 3.06-4.12 3.58-6.49 2.34 3.86 5.44 7.03 9.16 9.61 2.54 1.76 5.38 3.25 8.46 4.5z" fill="#fff"/>
<g transform="translate(-113.74 -241.23)" fill="#d2191e">
<path d="m352.26 266.44c6.18 6.84 12.57 9.28 19.21 6.47-1.88 3.27-4.18 5.9-7.2 7.46-3.22-1.27-6.16-2.8-8.78-4.61-3.86-2.68-7.03-5.98-9.37-10.04l-0.05-0.09c1.84 0.11 3.91 0.38 6.19 0.81z"/>
<path d="m316.33 264.32c6.81 1.21 12.53 1.59 19.08-2.1 4.95-1.58 9.84-4.7 15.83 3.06 0.16 0.18 0.32 0.37 0.48 0.55-2.19-0.39-4.17-0.63-5.95-0.71l-0.01-0.01v0.01c-1.01-0.05-1.95-0.05-2.83 0-3.89 0.23-6.52 1.42-7.88 3.59-5.18 2.62-10.49 3.34-15.91 2.16-1.08-0.23-2.15-0.54-3.23-0.92-0.63-0.22-1.25-0.46-1.88-0.73-0.57-2.21-0.66-4.21 2.3-4.9z"/>
<path d="m382.72 278.06c-14.05 3.62-10.17 14.81 4.77 11.83-7.99-2.56-8.48-6.74-4.77-11.83z"/>
</g>
<path d="m261.74 29.2c12.9-7.38 22.2 5.91 9.34 6.87 0.96-4.9-1.64-7.06-9.34-6.87z" fill="#fff"/>
<path d="m199.68 17.75c-0.74-0.21-1.5 0.22-1.7 0.95l-4.3 15.28c-0.2 0.73 0.22 1.5 0.96 1.71 0.74 0.2 1.5-0.23 1.7-0.96l4.3-15.28c0.2-0.73-0.22-1.5-0.96-1.7z" fill="#a65c45"/>
<path d="m242.8 100.67 0.14 0.22 2.56 4.48 2.36 4.71 2.12 4.94 1.88 5.18 1.6 5.41 1.28 5.63 0.98 5.85 0.62 6.08 0.26 6.29-0.14 6.5-0.56 6.71-0.98 6.92-1.46 7.11-1.92 7.32-2.44 7.51-2.96 7.7-3.5 7.9-4.08 8.08-12.84 22.73c27.84-36.11 53.3-61.17 69.12-41.56 16.4-45.2 9.5-85.43-10.54-111.52-7.1 1.15-13.72 2.76-19.86 4.87-8.1 2.77-15.34 6.39-21.64 10.94zm29.38-0.73 1.68-0.59 0.36-0.12 0.4-0.15 0.64-0.23 0.34-0.12 0.36-0.12 0.34-0.13 0.34-0.13 0.34-0.12 0.36-0.13 0.68-0.25 0.34-0.12 0.36-0.13 0.34-0.13 0.34-0.12 0.34-0.13 0.34-0.12 0.36-0.13 0.34-0.12 0.34-0.13 0.34-0.12 0.34-0.13 0.34-0.12 0.36-0.12 0.34-0.13 0.34-0.12 0.68-0.24 0.36-0.13 1.68-0.59 4.56 12.99 0.94 2.65 4.52 12.86-1.68 0.59-0.34 0.12-0.34 0.12-0.36 0.12-0.34 0.12-0.34 0.12-0.34 0.12-0.36 0.11-0.34 0.12-0.34 0.12-0.36 0.12-0.34 0.11-0.34 0.12-0.36 0.12-0.62 0.2-0.4 0.14-0.36 0.12-0.34 0.12-0.36 0.12-0.34 0.11-0.34 0.12-0.36 0.12-0.34 0.12-0.36 0.12-0.52 0.18-0.52 0.18-0.7 0.24-0.36 0.12-1.42 0.5-9.78 3.44 5.98 19.37h0.32l0.5 0.12 0.46 0.21 0.38 0.29 0.34 0.35 0.28 0.4 0.2 0.46 0.12 0.48 0.04 0.48-0.04 0.49-0.12 0.47-0.22 0.45-0.32 0.4-0.3 0.25v0.34l-0.06 0.39-0.14 0.38-0.08 0.14 0.18 0.22 0.22 0.26 0.22 0.25 0.22 0.23 0.22 0.23 0.24 0.23 0.24 0.21 0.24 0.2 0.26 0.19 0.24 0.18 0.26 0.18 0.28 0.16 0.26 0.16 0.28 0.15 0.28 0.14 0.3 0.13 0.3 0.12 0.3 0.11 0.32 0.11 0.32 0.09 0.32 0.09 0.34 0.08 0.34 0.06 0.34 0.06 0.36 0.05 0.36 0.04 0.38 0.03 0.38 0.02h0.12l0.14-0.43 0.22-0.38 0.28-0.32 0.32-0.26 0.34-0.22 0.38-0.17 0.4-0.1 0.42-0.06 0.4 0.01 0.42 0.08 0.42 0.16 0.1 0.06 0.1-0.11 0.56-0.42 0.66-0.31 0.7-0.17 0.72-0.03 0.68 0.11 0.66 0.24 0.58 0.36 0.52 0.46 0.42 0.57 0.32 0.66 0.16 0.71 0.04 0.71-0.12 0.69-0.24 0.64-0.34 0.6-0.48 0.52-0.56 0.42-0.66 0.31-0.72 0.17-0.68 0.03-0.12 0.33-0.22 0.38-0.28 0.32-0.32 0.27-0.34 0.22-0.38 0.16-0.4 0.11-0.42 0.05-0.4-0.01-0.42-0.08-0.42-0.15-0.32-0.22-0.1 0.01-0.04 0.04-0.28 0.26-0.28 0.25-0.26 0.26-0.24 0.26-0.24 0.27-0.22 0.26-0.22 0.27-0.2 0.27-0.18 0.28-0.18 0.27-0.18 0.28-0.14 0.28-0.16 0.29-0.12 0.28-0.14 0.29-0.1 0.3-0.1 0.29-0.1 0.3-0.08 0.31-0.08 0.3-0.06 0.31-0.06 0.32-0.04 0.32-0.04 0.32-0.02 0.32-0.02 0.34v0.33 0.34l0.02 0.35v0.12l0.04 0.04 0.24 0.25 0.12 0.15 0.14 0.01 0.46 0.16 0.38 0.22 0.32 0.28 0.26 0.31 0.22 0.35 0.16 0.38 0.12 0.41 0.06 0.4-0.02 0.41-0.08 0.42-0.16 0.41-0.06 0.1 0.12 0.1 0.42 0.57 0.3 0.66 0.18 0.71 0.02 0.71-0.1 0.68-0.24 0.65-0.36 0.59-0.46 0.52-0.58 0.43-0.66 0.31-0.7 0.17-0.72 0.02-0.68-0.11-0.66-0.23-0.58-0.36-0.52-0.47-0.42-0.57-0.32-0.66-0.16-0.7-0.04-0.69-0.32-0.12-0.38-0.22-0.32-0.28-0.28-0.31-0.22-0.35-0.16-0.39-0.1-0.39-0.06-0.41 0.02-0.41 0.06-0.42 0.16-0.41 0.22-0.34-0.02-0.3 0.02-0.34 0.08-0.27-0.18-0.23-0.2-0.27-0.22-0.26-0.22-0.25-0.22-0.24-0.24-0.22-0.22-0.22-0.24-0.22-0.24-0.2-0.26-0.19-0.26-0.19-0.26-0.17-0.26-0.17-0.28-0.15-0.28-0.15-0.28-0.14-0.28-0.13-0.3-0.12-0.3-0.12-0.32-0.1-0.32-0.09-0.32-0.09-0.34-0.08-0.34-0.07-0.36-0.05-0.34-0.05-0.38-0.04-0.36-0.03-0.38-0.02h-0.12l-0.12 0.08-0.12 0.37-0.22 0.39-0.28 0.32-0.32 0.26-0.34 0.22-0.38 0.16-0.4 0.11-0.42 0.06-0.4-0.01-0.42-0.08-0.42-0.16-0.3-0.19-0.56 0.42-0.64 0.3-0.72 0.18-0.7 0.02-0.7-0.11-0.64-0.24-0.6-0.35-0.52-0.47-0.42-0.57-0.3-0.66-0.18-0.7-0.02-0.72 0.1-0.68 0.24-0.65 0.36-0.59 0.46-0.52 0.58-0.43 0.66-0.31 0.7-0.17 0.72-0.03 0.14 0.03 0.04-0.11 0.22-0.38 0.28-0.32 0.3-0.27 0.36-0.21 0.38-0.17 0.4-0.11 0.4-0.05 0.42 0.01 0.42 0.08 0.42 0.15 0.4 0.26v0.01l0.16-0.13 0.28-0.26 0.26-0.25 0.28-0.26 0.24-0.26 0.24-0.27 0.22-0.27 0.2-0.26 0.2-0.28 0.2-0.27 0.18-0.27 0.16-0.28 0.16-0.28 0.14-0.29 0.14-0.29 0.12-0.28 0.12-0.3 0.1-0.29 0.1-0.3 0.08-0.31 0.08-0.3 0.06-0.31 0.04-0.32 0.06-0.32 0.02-0.32 0.04-0.33v-0.33l0.02-0.33v-0.02l-0.24-0.03-0.36-0.14-0.34-0.2-0.3-0.27-0.24-0.33-0.02-0.03h-0.08l-0.5-0.12-0.46-0.21-0.4-0.29-0.34-0.35-0.26-0.4-0.2-0.46-0.14-0.48-0.04-0.49 0.06-0.48 0.12-0.47 0.22-0.44 0.28-0.37-19.68-53.63 8.88-3.13 2.22 6.34 9.48-3.33zm6 17.03-0.06-0.14-9.46 3.33 0.34 0.99 0.76-1.16 5.14-1.8 2.18-0.77 1.1-0.45zm0.42-0.3 1.06-0.16 2.08-0.73 5.14-1.81 0.2 0.07-0.1-0.32-8.38 2.95zm7.16 4.9-0.5-1.4-0.42 0.14 0.5 1.41 0.42-0.15zm-10.36 3.65 0.42-0.15-0.5-1.41-0.2 0.08-0.22 0.07 0.5 1.41zm0.88-14.44 0.08 0.23-1.28 0.53-2.24 0.79-5.14 1.8-1.32-0.41 0.4 1.12 18.32-6.45-0.16-0.47-0.14 0.2-5.12 1.8-2.44 0.86h-0.96zm-7.46-4.24 0.5 1.41 0.22-0.08 0.2-0.07-0.5-1.41-0.42 0.15zm10.36-3.65-0.42 0.15 0.5 1.41 0.2-0.08 0.22-0.07-0.5-1.41z" fill="#d2191e"/>
<path d="m204.24 66.71 3.3 1.42 3.34 1.69 3.4 1.95 3.4 2.22 3.42 2.48 3.38 2.73 3.32 2.99 3.26 3.24 3.16 3.5 3.06 3.74 2.92 3.99 2.06 3.18c6.38-4.6 13.7-8.26 21.86-11.06 6.04-2.06 12.54-3.66 19.48-4.81-21.2-26.84-56.5-38.24-94.52-23.82 5 2.84 9.74 4.61 15.16 6.56zm17.64-1.58 22.9-7.87 1.48 10.56 6.22-5.82 17.66 16.31-16.16-1.37 10.7 6.51-19.8 9.9-1.2-12.53-6.22 8.32-14.42-17.09 12.22-0.31-13.38-6.61z" fill="#fff"/>
<path d="m172.34 235.55c39.36-40.02 72.38-49.72 49.3 5.77 0.58-0.77 0.82 0.88 1.4 0.12l11.04-26.26 2.58-6.74 2.3-6.57 2-6.42 1.72-6.25 1.42-6.11 1.14-5.94 0.88-5.81 0.62-5.66 0.34-5.51 0.1-5.38-0.14-5.24-0.4-5.1-0.64-4.98-0.86-4.86-1.1-4.73-1.32-4.61-1.54-4.49-1.74-4.38-1.96-4.28-2.14-4.17-2.36-4.06-2.56-3.97-2.72-3.87-2.92-3.78-3.1-3.68-3.28-3.6-3.42-3.51-3.62-3.43-3.74-3.35-3.92-3.27-7.84-6.17c-2.94-1.77-5.68-3.35-8.36-4.87-30.92-1.7-53.74 3.97-72.72 13.14l8.42 1.98 5.12 1.6 5 1.96 4.88 2.31 4.72 2.63 4.58 2.94 4.4 3.25 4.24 3.53 4.06 3.81 3.86 4.06 3.64 4.3 3.42 4.54 3.2 4.75 2.96 4.94 2.7 5.14 2.44 5.32 2.18 5.47 1.88 5.62 1.58 5.75 1.28 5.86 0.96 5.98 0.62 6.06 0.28 6.14-0.06 6.21-0.44 6.25-0.82 6.28-1.2 6.31-1.6 6.31-2.02 6.3-2.42 6.28-2.86 6.24-7.44 13.9zm34.62-131.17 0.94 2.27 0.92 2.27 0.9 2.26 0.88 2.27 0.88 2.27 0.84 2.26 0.84 2.27 0.82 2.27 0.8 2.27 0.8 2.26 0.76 2.27 0.76 2.27 0.74 2.26 0.74 2.27 0.7 2.27 0.7 2.26 0.68 2.27 0.66 2.27 0.64 2.27 0.64 2.26 0.62 2.27 0.6 2.27 0.58 2.27 0.58 2.26 0.56 2.27 0.54 2.27 0.54 2.26 0.52 2.27 0.5 2.27 0.48 2.26 0.48 2.28 0.12 0.66 0.14 0.54 0.18 0.49 0.18 0.45 0.22 0.4 0.24 0.36 0.24 0.3 0.26 0.27 0.28 0.22 0.26 0.19 0.28 0.14 0.28 0.11 0.26 0.07 0.28 0.04h0.26l0.28-0.02 0.28-0.06 0.28-0.1 0.28-0.14 0.28-0.18 0.28-0.22 0.28-0.28 0.28-0.33 0.26-0.39 0.26-0.44 0.24-0.51 0.22-0.57 0.18-0.64 0.16-0.7 0.14-0.77 0.08-0.84 0.04-0.55-0.28-0.5-0.44-0.79-0.42-0.75-0.44-0.7-0.4-0.66-0.4-0.64-0.4-0.6-0.36-0.58-0.38-0.56-0.34-0.55-0.34-0.53-0.32-0.54-0.3-0.52-0.28-0.53-0.26-0.54-0.24-0.55-0.2-0.57-0.18-0.58-0.14-0.6-0.12-0.61-0.08-0.64-0.02-0.66v-0.69l0.04-0.71 0.08-0.74 0.12-0.77 0.16-0.81 0.2-0.84 0.26-0.89 0.28-0.94 0.34-1 0.36-1.04 0.1-0.29 0.12-0.28 0.1-0.28 0.12-0.27 0.1-0.28 0.12-0.27 0.1-0.27 0.12-0.27 0.12-0.27 0.1-0.27 0.12-0.26 0.12-0.27 0.12-0.26 0.12-0.27 0.12-0.26 1-2.07 1.7 1.72 0.3 0.29 0.3 0.3 0.28 0.3 0.3 0.3 0.28 0.31 0.3 0.31 0.28 0.31 0.3 0.31 0.28 0.32 0.28 0.32 0.3 0.32 0.28 0.33 0.28 0.34 0.28 0.33 0.28 0.35 0.28 0.35 0.26 0.35 0.28 0.36 0.26 0.36 0.28 0.37 0.26 0.38 0.26 0.38 0.26 0.39 0.26 0.39 0.24 0.4 0.26 0.41 0.24 0.41 0.24 0.43 0.24 0.43 0.24 0.44 0.34 0.66 0.18 1.63 0.12 1.38 0.08 1.37 0.06 1.36v1.36l-0.04 1.34-0.06 1.34-0.12 1.33-0.18 1.32-0.2 1.31-0.26 1.3-0.3 1.3-0.36 1.27-0.4 1.27-0.48 1.26-0.5 1.24-0.58 1.23-0.62 1.21-0.68 1.2-0.74 1.19-0.8 1.16-0.88 1.15-0.92 1.14-0.98 1.12-1.04 1.09-1.12 1.08-1.18 1.07-1.24 1.04-1.32 1.02-1.38 1-1.46 0.99-1.96 1.25-1.8-0.34-1.24-0.27-1.2-0.31-1.18-0.35-1.16-0.39-1.14-0.42-1.1-0.45-1.1-0.49-1.06-0.52-1.04-0.55-1-0.58-1-0.61-0.98-0.64-0.94-0.66-0.92-0.69-0.92-0.72-0.88-0.73-0.88-0.77-0.86-0.78-0.82-0.81-0.82-0.83-0.82-0.84-0.78-0.87-0.76-0.88-0.76-0.9-0.76-0.91-0.72-0.93-0.72-0.94-0.72-0.95-0.7-0.97-0.68-0.98-0.9-1.31-0.06-1-0.02-0.6-0.04-0.6v-0.61l-0.02-0.6v-0.61-0.6l0.02-0.61 0.02-0.6 0.02-0.61 0.04-0.6 0.04-0.61 0.06-0.61 0.06-0.61 0.06-0.6 0.08-0.61 0.08-0.61 0.1-0.61 0.1-0.61 0.12-0.61 0.12-0.61 0.14-0.61 0.16-0.61 0.14-0.62 0.18-0.61 0.18-0.61 0.18-0.61 0.2-0.61 0.22-0.61 0.22-0.61 0.24-0.62 1.04-2.54 1.72 1.68 0.24 0.22 0.22 0.22 0.22 0.21 0.22 0.22 0.24 0.22 0.22 0.22 0.22 0.21 0.22 0.22 0.22 0.22 0.24 0.22 0.22 0.21 0.22 0.22 0.22 0.22 0.24 0.22 0.22 0.22 0.7 0.7 0.64 0.69 0.58 0.67 0.54 0.65 0.46 0.64 0.42 0.63 0.38 0.61 0.34 0.61 0.28 0.6 0.26 0.58 0.22 0.58 0.18 0.56 0.16 0.56 0.14 0.55 0.12 0.54 0.1 0.53 0.1 0.52 0.08 0.52 0.1 0.51 0.08 0.51 0.1 0.52 0.1 0.51 0.12 0.52 0.14 0.54 0.14 0.54 0.18 0.55 0.2 0.58 0.24 0.59 0.28 0.62 0.3 0.64 0.36 0.67 0.48 0.84 0.28 0.8 0.24 0.57 0.26 0.5 0.28 0.44 0.3 0.38 0.32 0.33 0.3 0.28 0.32 0.24 0.32 0.19 0.32 0.15 0.32 0.11 0.32 0.07 0.3 0.04 0.3 0.01 0.3-0.03 0.28-0.05 0.26-0.09 0.24-0.11 0.24-0.13 0.22-0.16 0.18-0.19 0.18-0.21 0.16-0.24 0.12-0.27 0.1-0.3 0.08-0.33 0.04-0.37 0.02-0.42-0.04-0.45-0.1-0.5-0.14-0.53-0.26-0.74-0.42-2.28-0.42-2.16-0.42-2.15-0.48-2.16-0.48-2.15-0.5-2.16-0.54-2.16-0.56-2.15-0.56-2.16-0.6-2.16-0.62-2.16-0.64-2.16-0.66-2.16-0.66-2.16-0.7-2.16-0.72-2.16-0.72-2.16-0.76-2.16-0.76-2.16-0.78-2.16-0.8-2.16-0.8-2.17-0.84-2.16-0.84-2.16-0.84-2.16-0.86-2.17-0.88-2.16-0.9-2.17-0.9-2.16-0.92-2.17-0.92-2.16-1.2-2.81-0.06 0.03-1.1 0.44-1.06 0.45-1.08 0.47-1.06 0.49-1.06 0.5-1.04 0.52-1.04 0.53-1.04 0.55-1.02 0.57-1.02 0.58-1 0.61-1.14 0.69-0.84 0.32-0.8 0.17-0.76 0.06-0.76-0.07-0.7-0.19-0.64-0.3-0.58-0.4-0.48-0.48-0.4-0.55-0.3-0.6-0.22-0.64-0.12-0.67-0.04-0.68 0.06-0.69 0.16-0.69 0.36-0.99 0.86-0.65 1.04-0.8 0.52-0.4 0.54-0.4 0.52-0.4 0.52-0.4 0.52-0.4 0.52-0.4 0.52-0.4 0.54-0.4 0.52-0.4 0.52-0.4 0.52-0.4 0.52-0.4 0.54-0.4 1.56-1.21 0.52-0.4 0.54-0.4 0.52-0.4 0.52-0.4 0.52-0.4 0.28-0.22-0.18-0.53-0.12-0.35-0.12-0.35-0.12-0.35-0.12-0.34-0.12-0.31-0.26 0.04-0.36 0.05-0.34 0.03-0.36 0.03-0.34 0.02-0.36 0.01-0.38 0.01-0.68-0.02-0.66-0.04-0.68-0.08-0.66-0.1-0.64-0.13-0.64-0.15-0.62-0.19-0.62-0.2-0.6-0.24-0.58-0.25-0.56-0.28-0.56-0.31-0.52-0.32-0.52-0.35-0.5-0.37-0.46-0.39-0.46-0.4-0.42-0.43-0.42-0.45-0.38-0.47-0.36-0.48-0.34-0.5-0.3-0.51-0.28-0.53-0.24-0.55-0.22-0.56-0.2-0.57-0.16-0.59-0.12-0.59-0.08-0.61-0.06-0.61-0.02-0.63 0.02-0.62 0.06-0.61 0.08-0.61 0.12-0.6 0.16-0.58 0.2-0.57 0.22-0.56 0.24-0.55 0.28-0.53 0.3-0.52 0.34-0.5 0.36-0.48 0.38-0.46 0.42-0.45 0.42-0.43 0.46-0.41 0.46-0.39 0.5-0.37 0.52-0.34 0.52-0.33 0.56-0.3 0.56-0.28 0.58-0.26 0.6-0.23 0.62-0.21 0.62-0.18 0.64-0.16 0.64-0.13 0.66-0.1 0.68-0.07 0.68-0.05 0.68-0.01 0.68 0.01 0.68 0.05 0.68 0.07 0.66 0.1 0.64 0.13 0.64 0.16 0.62 0.18 0.62 0.21 0.6 0.23 0.58 0.26 0.56 0.28 0.54 0.3 0.54 0.33 0.52 0.34 0.48 0.37 0.48 0.39 0.46 0.41 0.42 0.43 0.42 0.45 0.38 0.46 0.36 0.48 0.32 0.5 0.32 0.52 0.28 0.53 0.24 0.55 0.22 0.56 0.2 0.57 0.16 0.58 0.12 0.6 0.08 0.61 0.06 0.61 0.02 0.62-0.02 0.49-0.02 0.48-0.06 0.47-0.08 0.47-0.1 0.47-0.12 0.45-0.12 0.45-0.16 0.45-0.18 0.43-0.18 0.43-0.22 0.41-0.22 0.41-0.24 0.4-0.26 0.39-0.28 0.38-0.4 0.49 0.04 0.06 0.36 0.72 0.36 0.77 0.36 0.81 0.46 1.14 0.08-0.01 0.66-0.01 2-0.04 0.68-0.02 0.66-0.01 0.68-0.01 0.66-0.02 0.66-0.01 2.02-0.04 0.66-0.02 0.66-0.01 0.68-0.02 0.66-0.01 0.68-0.02 0.66-0.01 0.66-0.02 0.68-0.01 0.66-0.01 0.66-0.02 0.68-0.01 0.66-0.02 0.92-0.02 0.82 0.27 0.62 0.26 0.58 0.3 0.56 0.34 0.5 0.38 0.46 0.43 0.4 0.48 0.34 0.53 0.26 0.58 0.16 0.63 0.02 0.67-0.1 0.68-0.26 0.64-0.38 0.6-0.5 0.53-0.82 0.67-1.62 0.22-1.2 0.17-1.2 0.19-1.2 0.2-1.2 0.22-1.18 0.22-1.18 0.24-1.16 0.25-1.18 0.27-1.16 0.28-0.46 0.12 1.02 2.37zm-21.7-18.43-0.18-0.24-0.2-0.26-1.28-1.55 1.86-1.09 0.44-0.23 0.46-0.22 0.46-0.18 0.48-0.16 0.48-0.12 0.48-0.09 0.5-0.06 0.48-0.02 0.5 0.02 0.48 0.06 0.5 0.09 0.48 0.14 0.48 0.18 0.34 0.16 0.02-0.03 0.04-0.19 0.02-0.18 0.02-0.19 0.02-0.19v-0.17l-0.02-0.48-0.08-0.44-0.12-0.43-0.18-0.41-0.22-0.4-0.28-0.38-0.32-0.37-0.36-0.34-0.38-0.31-0.44-0.28-0.48-0.24-0.5-0.21-0.52-0.17-0.56-0.12-0.58-0.08-0.6-0.02-0.6 0.02-0.56 0.08-0.56 0.12-0.54 0.17-0.5 0.21-0.46 0.24-0.44 0.28-0.4 0.31-0.36 0.34-0.3 0.37-0.28 0.38-0.22 0.4-0.18 0.41-0.12 0.43-0.08 0.44-0.04 0.46 0.04 0.45 0.08 0.45 0.12 0.42 0.18 0.42 0.22 0.4 0.28 0.38 0.3 0.36 0.36 0.34 0.4 0.31 0.44 0.28 0.46 0.25 0.5 0.21 0.54 0.17 0.48 0.1z" fill="#008bd2"/>
<path d="m50.595 99.47c39.79-13.52 87.105 15.33 67.525 134.18 37.66-43.57 64.38-31.08 46.48 10.09 1.56-1.71 3.1-3.37 4.64-4.99l6.94-19.04 2.12-6.69 1.74-6.56 1.4-6.43 1.06-6.31 0.72-6.17 0.4-6.04 0.08-5.91-0.22-5.77-0.52-5.64-0.78-5.51-1.08-5.36-1.32-5.23-1.58-5.08-1.84-4.95-2.06-4.8-2.3-4.66-2.5-4.51-2.7-4.37-2.92-4.21-3.1-4.07-3.28-3.91-3.44-3.76-3.6-3.6-3.76-3.45-3.9-3.29-4.02-3.12-4.16-2.96-4.26-2.8-4.36-2.63-4.44-2.47-10.1-5.1c-30.435-2.4-48.485 8.34-60.865 25.12zm103.46 41.01 0.92 3.39 0.84 3.45 0.74 3.49 0.66 3.55 0.02 0.14 1.5 1.08 0.4 0.29 0.38 0.28 0.38 0.28 0.38 0.27 0.36 0.27 0.36 0.28 0.36 0.26 0.36 0.27 0.36 0.27 0.34 0.26 0.36 0.26 0.34 0.26 0.36 0.25 0.34 0.25 0.34 0.26 0.36 0.25 0.34 0.25 0.36 0.24 0.34 0.25 0.36 0.25 0.36 0.24 0.36 0.24 0.38 0.24 0.36 0.24 0.38 0.24 0.4 0.24 0.38 0.24 0.4 0.24 0.42 0.24 0.4 0.23 1.36 0.76-0.36 1.33-0.08 0.32-0.08 0.31-0.08 0.31-0.08 0.32-0.08 0.31-0.08 0.32-0.1 0.31-0.08 0.32-0.08 0.31-0.08 0.32-0.08 0.31-0.08 0.32-0.08 0.31-0.08 0.31-0.1 0.32-0.08 0.31-0.08 0.32-0.08 0.31-0.08 0.32-0.08 0.31-0.08 0.31-0.08 0.32-0.1 0.32-0.08 0.31-0.08 0.31-0.08 0.32-0.08 0.31-0.08 0.32-0.02 0.06 0.28 0.19 0.34 0.23 0.36 0.23 0.36 0.23 0.38 0.23 0.36 0.23 0.38 0.23 0.38 0.24 0.38 0.24 0.38 0.25 0.06 0.03 0.06-0.14 0.12-0.34 0.12-0.34 0.14-0.34 0.12-0.34 0.1-0.34 0.12-0.33 0.1-0.34 0.12-0.33 0.1-0.33 0.08-0.33 0.1-0.33 0.08-0.33 0.08-0.33 0.08-0.33 0.06-0.34 0.08-0.33 0.04-0.33 0.06-0.34 0.04-0.34 0.04-0.34 0.04-0.34 0.02-0.35 0.04-0.35v-0.35l0.02-0.35-0.02-0.36-0.06-2.84 2.44 1.45 0.34 0.2 0.34 0.2 0.34 0.2 0.32 0.2 0.56 0.33 0.44 0.26 0.34 0.2 0.68 0.4 0.32 0.2 0.34 0.2 2.02 1.2-0.64 1.53-0.18 0.44-0.2 0.45-0.18 0.44-0.18 0.45-0.18 0.44-0.2 0.45-0.18 0.44-0.18 0.45-0.2 0.44-0.18 0.45-0.18 0.44-0.2 0.45-0.18 0.44-0.18 0.45-0.2 0.44-0.18 0.45-0.18 0.44-0.18 0.45-0.38 0.89-0.18 0.44-0.2 0.45-0.18 0.44-0.18 0.45-0.2 0.44-0.18 0.45-0.18 0.44-0.2 0.45-0.36 0.89-0.78 1.87-1.92-1.1-0.56-0.34-0.56-0.33-0.56-0.34-0.54-0.33-0.52-0.31-0.52-0.34-0.52-0.33-0.5-0.34-0.5-0.33-0.5-0.34-0.48-0.34-0.5-0.34-0.48-0.34-0.46-0.34-0.48-0.34-0.48-0.34-0.46-0.34-0.46-0.34-0.46-0.35-0.46-0.35-0.48-0.34-0.46-0.35-0.46-0.35-0.46-0.35-0.46-0.36-0.48-0.35-0.46-0.36-0.48-0.35-0.46-0.36-0.18-0.12 0.04 1.39v3.92l-0.1 3.98-0.22 4.04-0.3 4.1-0.56 5.69-1.98-0.47-2.82-0.67-0.46-0.11-0.48-0.12-0.94-0.22-0.46-0.11-1.42-0.33-0.46-0.11-0.48-0.12-0.94-0.22-0.46-0.11-1.4-0.33-0.48-0.11-1.4-0.34-0.48-0.11-1.4-0.33-1.62-0.39 0.14-1.56 0.04-0.39 0.04-0.39 0.02-0.38 0.04-0.39 0.04-0.39 0.04-0.39 0.04-0.38 0.04-0.39 0.02-0.39 0.04-0.39 0.04-0.39 0.04-0.38 0.04-0.39 0.02-0.39 0.26-2.82 2.26 1.71 0.3 0.21 0.28 0.2 0.3 0.2 0.3 0.19 0.28 0.18 0.3 0.17 0.3 0.17 0.3 0.16 0.3 0.16 0.32 0.15 0.3 0.14 0.32 0.14 0.3 0.14 0.32 0.12 0.32 0.13 0.32 0.12 0.32 0.12 0.32 0.11 0.34 0.11 0.34 0.11 0.32 0.11 0.34 0.1 0.36 0.1 0.34 0.1 0.36 0.1 0.34 0.1 0.16 0.04v-0.06l0.02-0.46 0.02-0.45 0.04-0.45 0.04-0.44 0.02-0.44 0.04-0.43 0.02-0.43 0.02-0.42 0.02-0.41 0.02-0.35-1.28-0.49-0.3-0.12-0.3-0.12-1.82-0.71-0.3-0.12-0.32-0.12-1.8-0.71-0.32-0.12-1.2-0.47-0.92-0.36-1.28-0.49 0.46-4.02 0.26-2.95 0.2-2.93 0.14-2.92 0.06-2.91v-1.94l-3.14-3.04-1.78-1.81-1.72-1.81-1.68-1.84-1.62-1.85-1.56-1.87-1.52-1.89-1.46-1.91-1.4-1.92-1.36-1.94-1.32-1.96-1.26-1.98-1.22-2-1.18-2.01-1.14-2.03-1.08-2.05-1.04-2.07-1-2.09-0.96-2.11-0.94-2.12-0.88-2.15-0.84-2.16-0.82-2.18-0.76-2.2-0.74-2.22-0.72-2.23-0.66-2.26-0.66-2.28-0.6-2.29-0.58-2.32-0.56-2.33-3.16-14.07 6.04 12.62 0.84 1.75 0.86 1.74 0.88 1.71 0.86 1.7 0.88 1.68 0.9 1.67 0.9 1.65 0.9 1.62 0.92 1.61 0.94 1.6 0.94 1.57 0.98 1.56 0.96 1.55 1 1.52 1 1.51 1.02 1.5 1.04 1.48 1.06 1.46 1.08 1.44 1.1 1.44 1.12 1.41 1.14 1.4 1.16 1.39 1.18 1.37 1.22 1.36 1.22 1.34 1.26 1.33 1.28 1.31 1.32 1.3 1.34 1.29 0.4 0.37-0.02-0.16-0.48-2.8-0.54-2.79-0.58-2.78-0.64-2.77-0.7-2.76-0.76-2.75-0.82-2.74-0.86-2.72-0.9-2.72-0.98-2.71-1.02-2.7-1.06-2.69-1.12-2.68-1.18-2.67-1.22-2.66-1.26-2.65-1.32-2.64-1.36-2.64-7.12-13.27 10.18 11.7 2.2 2.64 2.14 2.69 2.06 2.74 1.98 2.77 1.9 2.82 1.84 2.87 1.74 2.91 1.68 2.96 1.6 3 1.52 3.05 1.42 3.1 1.36 3.15 1.26 3.19 1.2 3.24 1.1 3.3 1 3.35z" fill="#d2191e"/>
<path d="m200.56 67.02c32.66 10.44 84.66 67.17 32.02 155.67 32.76-74.92 12.44-121.69-32.02-155.67zm-82.88 8.77c55.08 10.83 94.66 86.47 57.46 151.29 28.76-73.95-8.14-127.51-57.46-151.29z" fill="#fff"/>
<path d="m124.78 91c24.36 27.32 36.88 61.53 32.04 105.82l-15.02-3.57c0.18-2.06 0.38-4.13 0.58-6.19 3.32 2.59 6.82 3.55 10.86 4.58-0.1-2.33 0.36-4.69 0.26-7.03-3.24-1.26-6.48-2.52-9.72-3.79 3.92-31.97-3.62-61.67-19-89.82zm-16.74 5.48c5.44 25.04 15.32 46.59 35.04 65.31-0.06-5.59-0.48-11.12-1.22-16.59-14.9-13.66-24.78-29.63-33.82-48.72zm51.14 77.2c5.24 3.91 9.5 7.41 15.62 10.92 2-4.75 3.98-9.5 5.96-14.25-1.78-1.06-3.56-2.12-5.36-3.18 0.14 4.22-1.14 7.62-2.66 11.48-1.84-1.45-4.02-2.47-5.84-3.92l2.64-10.08c-4.7-2.6-7.76-5.21-11.98-8.25 0.88 5.57 1.42 11.32 1.62 17.28z" fill="#fff"/>
<path d="m204.72 102.67c10.2 24.09 17.52 48.18 22.48 72.26 1.14 7.6 9.84 7.69 10.12-3.09-4.94-9.49-8.72-9.57-4.58-20.83 0.54-1.46 1.14-2.85 1.78-4.2 3.1 3.1 6.1 6.38 8.44 10.97 1.78 14.44-2.06 27.47-18.28 37.4-13.14-2.22-21.56-10.89-28.68-21.37-0.38-6.28 0.18-12.56 2.8-18.84l3.6 3.48c7.54 7.32 3.36 10.39 8.22 18.45 2.44 8.06 11.72 5.44 8.72-1.97-4.04-23.15-12.48-46.3-22.5-69.45 2.62-0.94 5.24-1.87 7.88-2.81zm-5.08 57.36c-1.22 6.28-0.08 12.56 6.2 18.84-4.18-6.28-5.76-12.56-6.2-18.84zm35.16-8.15c3.46 4.4 5.06 9.93 4.78 16.59-0.84-5.53-2.44-11.06-4.78-16.59zm-57.12-45.57c-1.2 2.7 0.8 5.77 4.26 4.25 10.84-6.82 23.04-10.61 36.16-12.32 2.62-1.84 0.72-4.35-2.28-5.2-7.14 0.14-14.26 0.29-21.38 0.44-5.58 4.28-11.18 8.55-16.76 12.83zm19.9-14.1c-1.36-0.26-2.74-0.55-3.8-0.22-1.34 0.64-2.36 1.5-2.82 2.72-1.3-3.8-2.74-7.5-5.22-10.43 4.22-2.6 8.22-1.04 11.84 7.93zm-11.08-0.33c0.88 0 1.74-0.07 2.56-0.23-0.6-1.44-1.24-2.84-1.96-4.18-0.2 0.01-0.4 0.02-0.6 0.02-3.88 0-7.04-2.72-7.04-6.08s3.16-6.08 7.04-6.08c3.9 0 7.06 2.72 7.06 6.08 0 0.7-0.14 1.38-0.4 2.01 1.12 0.94 2.22 2.27 3.28 4.03 1.4-1.7 2.22-3.79 2.22-6.04 0-5.79-5.44-10.48-12.16-10.48-6.7 0-12.16 4.69-12.16 10.48 0 5.78 5.46 10.47 12.16 10.47z" fill="#ffed00"/>
<path d="m253.42 100.92 6.2-2.18 2.22 6.34 9.72-3.42c1 2.85 2.02 5.7 3.02 8.55v0.01l-2.22 0.77-4.68 1.65-0.22-0.07-1.32-3.75 1.76-0.62 0.56 1.55c1.02-0.36 2.06-0.72 3.08-1.09l-1.42-4.08-7.52 2.65 3.32 9.42 20.98-7.39-3.3-9.42-6.66 2.34 1.44 4.08c1.04-0.37 2.06-0.73 3.1-1.09l-0.54-1.56 1.76-0.62 1.32 3.75-0.12 0.19-4.7 1.65-2.2 0.78c-1-2.85-2.02-5.7-3.02-8.55 3.76-1.32 7.38-2.7 11.04-3.98l4.1 11.65 0.94 2.65 4.04 11.52c-3.64 1.29-7.34 2.48-11.1 3.8-1-2.85-2-5.7-3-8.56l2.2-0.77 4.7-1.65 0.22 0.07 1.32 3.75-1.78 0.62-0.54-1.55c-1.04 0.36-2.06 0.72-3.1 1.09l1.44 4.08 6.64-2.34-3.26-9.28-21 7.39 3.28 9.28 7.5-2.65-1.44-4.08c-1.02 0.37-2.06 0.73-3.08 1.09l0.54 1.56-1.76 0.62-1.32-3.75 0.12-0.2 4.68-1.65 2.22-0.77 3 8.55-9.72 3.42 6.28 20.35-4.7 1.65-19.02-51.8zm22.44 56.81c0.38-0.13 0.76-0.26 1.14-0.4 0.38-0.13 0.76-0.27 1.14-0.4 2.26 3.54 5.6 5.5 10.2 5.55 0.18 0.53 0.38 1.06 0.56 1.6l0.56 1.59c-3.56 2.92-4.92 6.54-4.48 10.72-0.38 0.13-0.76 0.27-1.14 0.4s-0.76 0.27-1.14 0.4c-2.28-3.54-5.6-5.5-10.2-5.55-0.2-0.53-0.38-1.06-0.56-1.59-0.2-0.54-0.38-1.07-0.56-1.6 3.56-2.92 4.92-6.53 4.48-10.72zm11.42 6.91c-3.72-0.64-6.96-2.17-9.48-5.02-0.18 3.8-1.74 7.02-4.26 9.86 3.74 0.63 6.98 2.17 9.5 5.02 0.18-3.8 1.74-7.03 4.24-9.86zm-0.66 0.24c-3.38-0.58-6.3-1.96-8.56-4.53-0.16 3.42-1.58 6.33-3.84 8.89 3.36 0.58 6.28 1.96 8.56 4.53 0.16-3.42 1.56-6.34 3.84-8.89zm-3.52 16.03 3.9-1.38c0.38-0.13 0.54-0.69 0.34-1.25-0.18-0.55-0.66-0.89-1.04-0.76l-3.92 1.38c-0.38 0.13-0.54 0.7-0.34 1.25s0.66 0.89 1.06 0.76zm-0.08-2.41 2.36-0.82c0.22-0.09 0.34-0.38 0.24-0.66s-0.36-0.44-0.6-0.36l-2.34 0.83c-0.24 0.08-0.34 0.37-0.24 0.65 0.08 0.28 0.36 0.44 0.58 0.36zm5.02 3.26c0.4 1.13-0.2 2.38-1.34 2.78-1.12 0.4-2.38-0.2-2.78-1.33-0.4-1.14 0.2-2.39 1.34-2.79 1.14-0.39 2.38 0.21 2.78 1.34zm4.82-16.89-1.38-3.9c-0.12-0.39-0.7-0.54-1.24-0.35-0.56 0.2-0.9 0.67-0.76 1.05l1.38 3.91c0.14 0.39 0.7 0.54 1.24 0.35 0.56-0.2 0.9-0.67 0.76-1.06zm-2.4 0.07-0.82-2.35c-0.1-0.23-0.38-0.34-0.66-0.24s-0.44 0.37-0.36 0.6l0.82 2.35c0.08 0.23 0.38 0.34 0.66 0.24s0.44-0.37 0.36-0.6zm3.26-5.01c1.12-0.4 2.38 0.2 2.78 1.33s-0.2 2.38-1.34 2.78-2.38-0.2-2.78-1.33c-0.4-1.14 0.2-2.38 1.34-2.78zm-24.46 13.26-1.38-3.91c-0.14-0.39 0.2-0.86 0.76-1.05 0.54-0.2 1.1-0.04 1.24 0.34l1.38 3.91c0.14 0.38-0.2 0.86-0.76 1.05-0.56 0.2-1.12 0.04-1.24-0.34zm1.9-1.46-0.82-2.35c-0.08-0.23 0.08-0.5 0.36-0.6s0.58 0.01 0.66 0.24l0.82 2.35c0.08 0.23-0.08 0.5-0.36 0.6s-0.58-0.01-0.66-0.24zm-5.68-1.87c-1.12 0.4-1.72 1.65-1.32 2.78s1.64 1.73 2.78 1.34c1.14-0.4 1.72-1.65 1.34-2.79-0.4-1.13-1.66-1.73-2.8-1.33zm9.12-13.24 3.38-1.19c0.32-0.11 0.7 0.06 0.82 0.4 0.1 0.33-0.06 0.69-0.4 0.81l-3.38 1.19c-0.32 0.12-0.7-0.06-0.8-0.39-0.12-0.33 0.04-0.7 0.38-0.82zm-1.9-2.21 5.62-1.98c0.56-0.19 1.2 0.19 1.42 0.84 0.24 0.66-0.04 1.35-0.58 1.55l-5.62 1.97c-0.56 0.2-1.2-0.18-1.42-0.83-0.24-0.66 0.02-1.35 0.58-1.55zm0.5-1.8 3.36-1.18c0.34-0.12 0.7 0.05 0.82 0.39 0.12 0.33-0.06 0.69-0.38 0.81l-3.38 1.19c-0.34 0.12-0.7-0.06-0.82-0.39s0.06-0.7 0.4-0.82z" fill="#fff"/>
<polygon transform="translate(-113.74 -241.23)" points="366.23 305.17 379.89 317.78 361.83 316.25 375.49 324.56 359.83 332.39 358.49 318.25 351.13 328.09 339.77 314.62 354.76 314.24 339.29 306.6 339.29 306.6 357.34 300.39 358.97 311.95" fill="#d2191e"/>
<path d="m125.84 323.61c7.34-6.82 18.2-8.83 30.78-9.82 13.8-2.55 24.2 0.6 34.48 3.93 12.16 4.62 23.5 7.24 34.5 8.95 11.24 2.47 19.74 1.67 22.26-6.33-4.3-4.51-9.18-6.7-14.62-6.55-1.32-4.3-1.98-8.09 1.96-8.3 5.76 3.26 11.66 6.29 15.06 13.1 2.94 5.6 0.68 10.4-3.94 14.84-10.96 10.5-26.14 11.4-41.24 12.44-15.4 1.82-30.38 0.22-45.18-2.62-12.74-2.75-25.28-4.56-38.64-10.47-1.54-3.02 3-3.16 13.1-1.53-4.66-2.48-8.96-3.72-14.62-4.15-2.72-2.57 1.76-4.92 6.1-3.49zm33.4 21.39c2.76 0.29 5.52 0.58 8.3 0.87 0.86 1.68 2.1 3.35 5.88 5.02 3.06 2.04 4.66 4.95 4.8 8.74-4.28-1.97-8.58-3.72-12.86-3.94-6.64-3.56-7.66-7.12-6.12-10.69zm6.1-33.83c6.84 0 13.68 0.73 20.52 3.06 1.1-3.86 1.38-6.92 1.32-9.61-8.1-0.82-15.48 0.97-21.84 6.55zm27.3 5.89c7.12 2.86 14.26 5 21.38 6.11 1.24-1.96 3.64-3.34 7.2-4.14-5.3-3.57-10.62-7.13-15.92-10.7-6.16 0.97-10.58 3.69-12.66 8.73zm30.12 7.64c1.52-1.16 3.06-2.33 4.58-3.49 4.36 0.73 8.72 1.46 13.1 2.18-1.6 1.17-3.2 2.33-4.8 3.5-4.02-0.15-8.3-0.88-12.88-2.19zm-39.08 23.14c1.02 2.03 2.32 4.07 5.68 6.11 1.22-0.05 2.4-0.11 3.6-0.18l-4.08-6.01c-1.72 0.03-3.46 0.06-5.2 0.08zm10.44 5.86c1.14-0.08 2.28-0.17 3.42-0.27l-3.94-5.81c-1.18 0.04-2.36 0.08-3.54 0.11l4.06 5.97zm4.56-0.37c1.12-0.1 2.24-0.22 3.36-0.34l-3.76-5.56c-1.18 0.05-2.34 0.1-3.5 0.15l3.9 5.75zm4.48-0.47c1.12-0.13 2.22-0.27 3.32-0.41l-3.58-5.28c-1.14 0.07-2.3 0.14-3.46 0.2l3.72 5.49zm4.42-0.56c1.12-0.15 2.2-0.31 3.3-0.48l-3.38-4.98c-1.14 0.09-2.28 0.18-3.44 0.25l3.52 5.21zm4.38-0.64c1.1-0.17 2.18-0.35 3.26-0.52l-3.18-4.69c-1.12 0.11-2.26 0.21-3.4 0.3l3.32 4.91zm4.34-0.7c0.56-0.1 1.1-0.19 1.66-0.28-0.16-1.61-0.3-3.21-0.44-4.81-1.44 0.17-2.9 0.33-4.36 0.47l3.14 4.62zm31.56-18.18 0.4 4.23-1.86-2.74c0.5-0.49 1-0.98 1.46-1.49zm-0.16 5.19c-0.7 0.7-1.44 1.39-2.2 2.08l-2.16-3.2c0.82-0.61 1.6-1.24 2.32-1.9l2.04 3.02zm-2.96 2.74c-0.74 0.64-1.52 1.27-2.32 1.89l-2.4-3.55c0.88-0.52 1.72-1.06 2.5-1.62l2.22 3.28zm-3.1 2.5c-0.78 0.58-1.6 1.16-2.44 1.73l-2.7-3.99c0.92-0.45 1.8-0.92 2.66-1.4l2.48 3.66zm-3.26 2.29c-0.82 0.54-1.66 1.07-2.52 1.59l-3.06-4.49c0.96-0.39 1.9-0.8 2.8-1.21l2.78 4.11zm-3.38 2.11-0.02 0.01c-1.9-1.24-3.78-2.47-5.68-3.71 0.88-0.3 1.72-0.62 2.56-0.94l3.14 4.64zm-37.56-29.89c2.02-5.47 5.6-6.34 9.38-6.55-4.14 1.16-7.56 3.06-9.38 6.55zm12-5.02c-3.24 1.2-5.56 2.94-5.9 5.89 1.36-2.27 3.4-4.2 5.9-5.89zm3.5 2.62c-2.76 1.02-4.74 2.51-5.02 5.02 1.14-1.94 2.88-3.58 5.02-5.02zm-41.04 10.47c8.62-0.58 17.42 0.66 26.62 5.9 11.66 3.57 23.94 4.43 37.32 0.43-11.16 4.93-23.74 5.84-38.4 0.88-8.18-4.83-16.8-6.46-25.54-7.21zm-0.44-8.07c5.04 0.97 3.94 3.23 1.96 5.67 0.98-2.12 0.56-4.04-1.96-5.67zm4.8 0c5.04 0.97 3.94 3.23 1.96 5.67 0.98-2.12 0.56-4.04-1.96-5.67zm6.74 0.21c4.42 2.62 2.62 4.37-0.06 6 1.64-1.66 1.88-3.62 0.06-6zm5.24 1.74c4.42 2.62 2.62 4.38-0.06 6.01 1.64-1.67 1.88-3.62 0.06-6.01zm6.76 2.18c4.42 2.62 2.62 4.38-0.06 6.01 1.64-1.66 1.88-3.62 0.06-6.01zm6.34 2.19c4.4 2.62 2.62 4.37-0.08 6 1.66-1.66 1.88-3.62 0.08-6zm5.02 1.31c4.42 2.62 2.62 4.37-0.08 6 1.66-1.66 1.88-3.62 0.08-6zm4.58 0.87c4.42 2.62 2.62 4.37-0.06 6.01 1.64-1.67 1.88-3.62 0.06-6.01zm4.36 0.87c4.42 2.62 2.62 4.38-0.06 6.01 1.64-1.66 1.88-3.62 0.06-6.01zm-55.4-11.12c3.06 6.62 4.82 13.46-2.62 21.83 4.58-7.28 5.02-14.55 2.62-21.83zm3.04 1.53c4.88 6.26 6.12 12.88-0.64 20.3 4.54-7.08 4.26-13.81 0.64-20.3zm-7.2 0.65c2.7 3.46 3.94 7.46 1.96 12.66 0.22-4.22-0.42-8.44-1.96-12.66zm-10.9 1.75c1.68 0 3.04 1.37 3.04 3.05 0 1.69-1.36 3.06-3.04 3.06-1.7 0-3.06-1.37-3.06-3.06 0-1.68 1.36-3.05 3.06-3.05zm-17.68 3.93c12.08 2.44 12.94 5.27 8.72 8.29 2.94-3.86-2.32-6.18-8.72-8.29zm46.92 6.76c13.16-2.4 20.44 12.15 1.52 10.92 16.46-1.82 10.04-9.61-1.52-10.92zm-1.3 3.06c3.84-0.73 7.64-0.88 10.9 3.06-3.64-2.66-7.28-3.32-10.9-3.06zm-1.48 2.17c3 2.53 6.22 4.52 11 2.7-4.46 0.53-7.96-0.69-11-2.7zm14.56-30.11c-8.26-0.69-12.9 1.42-15.92 4.8 4.14-2.76 9.46-4.36 15.92-4.8zm0.22 1.97c-5.32-0.74-7.56 1.08-9.38 3.27 1.96-1.96 5.1-3.06 9.38-3.27zm-22.04 41.47c2.98 3.56 7.12 5.96 12.44 7.2-4.72-1.82-8.88-4.22-12.44-7.2z" fill="#fff"/>
</g>
</svg>
