<?xml version="1.0" encoding="UTF-8" standalone="no"?>
<svg xmlns="http://www.w3.org/2000/svg" height="475" viewBox="0 0 442 475" width="442">
 <g fill-rule="evenodd">
  <path id="wappen_umriss" d="m220.18 474.01c88.76-.539 187.69-66.855 183.38-218.46 2.334-62.19 3.411-94.51 6.464-156.69 2.454-23.04 12.628-31 27.29-29.926 3.89.12 4.309-1.736 2.574-3.591-8.678-8.08-18.494-20.11-40.04-48.72-.539-.539-1.736-.539-1.676 0 1.137 9.995-4.07 12.689-14.783 9.157-52.848-16.519-107.55-24.779-163.21-24.779-55.6 0-110.36 8.26-163.21 24.779-10.713 3.531-15.92.838-14.783-9.157.06-.539-.838-.539-1.317 0-18.554 28.609-29.865 41.538-38.962 49.558-1.137 1.317-1.317 2.993 1.676 2.933 14.603-1.077 24.299 6.703 26.753 29.747 4.249 62.19 6.165 94.51 10.354 156.69.06 15.921 1.197 30.824 3.352 44.83 7.781 114.62 111.86 173.63 176.14 173.63"/>
  <g stroke="#000" stroke-linejoin="round" stroke-linecap="round">
   <path d="m221 10.153c-66.67 0-147.17 15.13-200.07 45.24 12.628 6.05 20.15 17.436 20.406 36.409.921 69.46 4.868 125.71 5.569 189.67 1.241 113.24 82.59 183.37 174.1 183.37 91.51 0 169.26-71.14 174.1-183.37 2.675-62.11 4.269-132.93 5.569-189.67.435-18.97 7.838-30.364 20.406-36.409-60.09-30.11-133.4-45.24-200.07-45.24" id="schild" fill="#fcdd09" stroke-width="1.33"/>
   <path id="stamm" d="m230.47 391.56c1.57 4.488 2.318 8.86 4.248 13.08 1.744 3.817 4.67 7.558 6.16 10.32.784 1.453.229 2.675-.691 3.476-1.249 1.089-2.985 2.027-4.736 2.405-3.082.665-8.44 1.845-8.505 3.623-.043 1.174 4.109.529 8.404.699 4.527.18 7.01-4.01 8.878-3.504 1.774.479 3.397 2.898 5.01 5.287 1.402 2.078 3.931 3.736 4.545 5.081.728 1.593-.027 5.02-.361 6.554-.529 2.434-2.989 7.824-2.122 7.855 1.068.038 4.368-4.405 5.723-6.81.887-1.573.518-6.473 1.202-8.425.383-1.095 2.956-2.245 4.358-1.103 1.279 1.042 3.454 5.096 3.723 6.777.444 2.771.463 6.413 1.321 6.272 1-.165 2.254-4.395 2.216-6.408-.042-2.244-3.148-6.324-3.479-8.721-.229-1.664 2.73-1.91 4.87-1.452 1.967.421 2.892 2.749 6.504 2.845 1.488.04 4.202-1.214 4.202-2.075 0-.719-2.563-.499-3.861-.623-2.854-.272-4.159-2.429-5.887-3.609-1.237-.845-5.318-1.347-8.858-.046-2.784 1.023-5.373 3.245-9.444.073-3.247-2.529-6.437-8.743-6.806-11.06-.379-2.379 1.278-3.622 2.246-3.968 2.01-.717 5.503-1.933 6.03-2.77.742-1.182 2.127-6.02 1.118-5.969-.373.018-2.681 4.176-6.074 4.712-1.878.297-6.256 1.896-7.976-.225-2.605-3.212-5.646-10.465-5.215-16.247.132-1.774 3.137-2.803 4.267-2.124 1.362.818 5.283 5.96 10.09 7.442 5.886 1.813 13.919 7.841 13.06 10.836-.364 1.268.517 2.405.071 4.01-.426 1.54-3.045 3.204-3.701 4.663-1.178 2.618-.851 5.176-.856 5.886-.008 1.187 1.73-1.382 3.402-5.246.621-1.436 3.63-2.966 4.873-4.354 1.682-1.878 2.201-3.234 4.153-3.479 2.067-.259 4.064.663 5.236 2.385 1.148 1.686 1.033 4.4 1.081 5.833.084 2.514-4.871 5.827-4.238 6.397.857.772 4.518-1.278 6.242-3.894 1.595-2.421.166-6.605 2.232-7.728.645-.351 3.16-.678 3.139 1.074-.024 2 .014 6.342.552 8.302.591 2.155 3.305 3.155 5 4.643 2.478 2.176 4.836 6.487 4.96 5.315.083-.781-.076-4.215-2.349-7.02-.922-1.136-2.992-2.913-3.354-4.106-.966-3.176-.226-5.475.738-6.835 2.595-3.661 6.075-1.154 6.541.726.261 1.051-.094 3.264.121 5.077.211 1.787 3.335 3.882 3.524 5.328.128.975 2.531.784 3.145 1.394 1.255 1.247 1.172 2.732 1.778 2.342.538-.346.797-1.57-.115-2.973-.61-.938-2.23-1.893-2.432-2.983-.217-1.172-2.749-2.466-3.086-3.194-.694-1.5.898-3.193.811-3.899-.288-2.327 1.733-4.148 7.74-.188 1.038.684 4.382-.661 5.109-.98 3.427-1.507 8.885-.723 8.909-1.596.019-.723-4.644-1.828-7.01-1.082-.861.271-2.166-.014-3.199-.161-1.723-.245-3.449-1.792-5.198-2.01-1.79-.222-6.96-2.437-13.652-2.518-7.452-.09-15.471-.633-21.628-5.672-.865-.708-1.897-2.294-.444-3.435 6.493-5.096 8.3-9.642 8.372-15.12.029-2.208 6.792-2.527 6.231-3.437-.369-.598-6.341-2.611-10.132-.037-3.473 2.358-2.833 6.885-4.767 9.641-2.061 2.937-5.249 3.555-7.242 3.928-2.577.482-6.067-.998-7.429-2.083-2.196-1.75-6.954-8.371-10.166-11.768-3.945-4.173-8.386-4.22-9.845-9.775-1.369-5.212-2.083-15.52-1.652-20.233 1.077-11.77 10.923-22.26 12.387-24.363 1.515-2.176-2.426-7.383-6.194-9.08-2.575-1.163-4.122 3.391-4.955 3.7-3.094 1.147-3.756-1.123-3.716-2.875.448-19.629-.787-47.14-.826-52.855-.101-14.944 9.381-29.669 10.837-31.863 3.631-5.473-1.879-9.898-5.634-9.442-1.639.199-1.938 1.536-2.482 2.044-.986.922-1.339-.239-1.37-1.202-.947-28.908 5.665-35.469 13.723-36.936 2.447-.446 5.863-.55 8.613 0 5.05 1.01 8.553 9.634 12.409 9.197 10.01-1.134 13.517-.794 17.591 1.276 4.636 2.356 6.438 8.883 3.981 18.16 2.833-4.929 3.189-6.97 4.45-7.832 1.123 1.793 1.251 3.519 2.754 8.96.302-3.788.139-7 1.22-7.55 1.237-.629 4.859 4.239 7.92 7.787.697-.765 2.829-2.992 4.03-3.918-2.793-2.539-4.451-6.559-4.153-7.475.214-.657.381-2.172 5.659-1.356-5.417-2.02-6.866-2.02-8.469-3.883 1.519-1.339 3.477-1.829 8.616-3.47-9.313.657-13.345.3-13.973-2.02-.267-.984-.266-1.549.384-2.883 2.324-4.768 9.497-10.684 9.589-10.939 1.065-2.953-3.067-5.92-4.91-4.787-5.253 3.228-7.272 8.455-16.688 9.05-3.388.213-5.85-.153-8.465-.723-6.622-1.444-13.266-3.537-18.581-7.742-1.728-1.367-1.669-4.959-.206-6.607 3.423-3.858 8.128-7.19 13.213-8.05 1.993-.338 5.532.148 9.08.826 5.947 1.136 14.924 7 16.961 7.884 1.906.826 2.987.351 3.629-.813.373-.677.737-1.559.664-2.626-.122-1.791-6.231-3.339-9.07-7.128-1.174-1.566-.376-4.1.74-5.708 1.145-1.65 3.138-4.03 7.178-5.316 3.409-1.082 19.702-.711 22.705.187-1.409-1.119-9.673-2.897-11.609-4.232 1.982-.887 9.362-1.649 12.04-2.94-4.736.35-9.527-.786-11.1-1.035-1.121-.178-1.571-1.107-.784-2.462.558-.96 1.78-4.124 7.638-8.319-.806-1.082-3.535-3.322-4.389-4.343-1.145 2.539-7.859 7.476-8.399 7.845-1.455.994-2.135-.328-2.245-.826-.369-1.67-.434-7.424-.254-9.222-1.925 3.208-1.647 8.975-3.574 12.723-1.896-2.856-2.124-10.159-3.783-12.723.929 12.05-.446 12.89-1.061 14.487-1.133 2.939-9.824 10.41-15.691 13.73-1.644.93-12.307 2.397-15.538 1.568-2.392-.614-.822-6.603-.918-8.118-.108-1.714-3.174-2.12-4.223-.549-1.275 1.909-1.658 12.96-4.504 14.175-8.04 3.434-16.621 10.359-22.04 16.848-7.521 9-10.633 17.46-13.279 17.46-2.646 0-5.758-8.46-13.279-17.46-5.423-6.489-14-13.414-22.04-16.848-2.846-1.215-3.229-12.266-4.504-14.175-1.049-1.571-4.115-1.165-4.223.549-.095 1.516 1.475 7.504-.918 8.118-3.231.829-13.895-.638-15.538-1.568-5.867-3.319-14.558-10.791-15.691-13.73-.615-1.597-1.99-2.44-1.061-14.487-1.658 2.564-1.886 9.867-3.783 12.723-1.927-3.748-1.649-9.515-3.574-12.723.18 1.797.115 7.551-.254 9.222-.11.498-.79 1.82-2.245.826-.54-.369-7.253-5.305-8.399-7.845-.854 1.022-3.583 3.262-4.389 4.343 5.858 4.195 7.08 7.359 7.638 8.319.788 1.355.337 2.284-.784 2.462-1.576.25-6.367 1.385-11.1 1.035 2.674 1.291 10.05 2.053 12.04 2.94-1.936 1.335-10.2 3.114-11.609 4.232 3-.898 19.296-1.269 22.705-.187 4.04 1.283 6.03 3.666 7.178 5.316 1.116 1.608 1.915 4.142.74 5.708-2.842 3.789-8.951 5.337-9.07 7.128-.073 1.068.291 1.95.664 2.626.642 1.165 1.723 1.639 3.629.813 2.038-.883 11.01-6.748 16.961-7.884 3.552-.678 7.091-1.164 9.08-.826 5.085.862 9.79 4.194 13.213 8.05 1.462 1.648 1.521 5.24-.206 6.607-5.315 4.206-11.959 6.298-18.581 7.742-2.615.57-5.076.936-8.465.723-9.416-.593-11.436-5.821-16.688-9.05-1.844-1.133-5.975 1.833-4.91 4.787.092.255 7.266 6.171 9.589 10.939.65 1.334.651 1.899.384 2.883-.628 2.317-4.66 2.675-13.973 2.02 5.14 1.641 7.098 2.131 8.616 3.47-1.603 1.866-3.052 1.867-8.469 3.883 5.278-.815 5.445.7 5.659 1.356.298.915-1.36 4.936-4.153 7.475 1.196.926 3.329 3.153 4.03 3.918 3.06-3.548 6.683-8.416 7.92-7.787 1.081.55.919 3.762 1.22 7.55 1.503-5.442 1.631-7.167 2.754-8.96 1.261.862 1.616 2.903 4.45 7.832-2.457-9.28-.656-15.807 3.981-18.16 4.075-2.07 7.585-2.41 17.591-1.276 3.855.437 7.36-8.189 12.409-9.197 2.751-.55 6.167-.446 8.613 0 8.06 1.467 14.669 8.03 13.723 36.936-.031.963-.384 2.124-1.37 1.202-.544-.508-.842-1.845-2.482-2.044-3.755-.456-9.265 3.969-5.634 9.442 1.456 2.194 10.937 16.919 10.837 31.863-.038 5.717-1.274 33.23-.826 52.855.04 1.751-.622 4.02-3.716 2.875-.833-.309-2.38-4.863-4.955-3.7-3.768 1.701-7.709 6.908-6.194 9.08 1.465 2.103 11.31 12.592 12.387 24.363.431 4.714-.282 15.02-1.652 20.233-1.46 5.555-5.9 5.601-9.845 9.775-3.212 3.398-7.971 10.02-10.166 11.768-1.361 1.085-4.852 2.565-7.429 2.083-1.993-.373-5.181-.991-7.242-3.928-1.934-2.756-1.295-7.283-4.767-9.641-3.791-2.574-9.763-.561-10.132.037-.561.91 6.202 1.229 6.231 3.437.072 5.473 1.88 10.02 8.372 15.12 1.454 1.141.422 2.727-.444 3.435-6.157 5.04-14.175 5.582-21.628 5.672-6.692.081-11.863 2.296-13.652 2.518-1.749.217-3.475 1.764-5.198 2.01-1.033.147-2.338.432-3.199.161-2.37-.746-7.03.358-7.01 1.082.023.873 5.481.089 8.909 1.596.726.319 4.07 1.665 5.109.98 6.01-3.96 8.03-2.139 7.74.188-.087.706 1.505 2.4.811 3.899-.337.728-2.869 2.02-3.086 3.194-.202 1.09-1.822 2.045-2.432 2.983-.912 1.403-.654 2.627-.115 2.973.607.39.524-1.095 1.778-2.342.614-.61 3.02-.419 3.145-1.394.189-1.446 3.313-3.541 3.524-5.328.215-1.813-.14-4.03.121-5.077.466-1.88 3.947-4.387 6.541-.726.964 1.36 1.704 3.66.738 6.835-.363 1.193-2.433 2.97-3.354 4.106-2.273 2.802-2.432 6.236-2.349 7.02.124 1.172 2.483-3.139 4.96-5.315 1.695-1.489 4.408-2.488 5-4.643.538-1.96.577-6.301.552-8.302-.021-1.751 2.494-1.424 3.139-1.074 2.066 1.123.637 5.307 2.232 7.728 1.723 2.616 5.385 4.665 6.242 3.894.633-.57-4.322-3.883-4.238-6.397.048-1.433-.066-4.147 1.081-5.833 1.172-1.722 3.169-2.644 5.236-2.385 1.952.245 2.471 1.601 4.153 3.479 1.243 1.388 4.252 2.918 4.873 4.354 1.672 3.864 3.41 6.433 3.402 5.246-.005-.71.322-3.268-.856-5.886-.657-1.459-3.275-3.123-3.701-4.663-.446-1.61.435-2.747.071-4.01-.859-2.995 7.174-9.02 13.06-10.836 4.81-1.482 8.731-6.624 10.09-7.442 1.13-.679 4.135.351 4.267 2.124.431 5.783-2.61 13.04-5.215 16.247-1.72 2.121-6.098.522-7.976.225-3.393-.536-5.702-4.694-6.074-4.712-1.01-.048.377 4.787 1.118 5.969.525.837 4.02 2.052 6.03 2.77.968.346 2.626 1.589 2.246 3.968-.37 2.319-3.559 8.534-6.806 11.06-4.072 3.171-6.661.95-9.444-.073-3.54-1.301-7.621-.799-8.858.046-1.728 1.18-3.033 3.337-5.887 3.609-1.298.124-3.861-.096-3.861.623 0 .861 2.714 2.115 4.202 2.075 3.613-.096 4.537-2.425 6.504-2.845 2.14-.457 5.099-.211 4.87 1.452-.331 2.398-3.437 6.477-3.479 8.721-.038 2.01 1.214 6.242 2.216 6.408.858.142.877-3.501 1.321-6.272.269-1.681 2.444-5.735 3.723-6.777 1.402-1.142 3.974.009 4.358 1.103.683 1.952.315 6.852 1.202 8.425 1.355 2.405 4.655 6.848 5.723 6.81.867-.031-1.593-5.421-2.122-7.855-.334-1.538-1.089-4.962-.361-6.554.614-1.344 3.143-3 4.545-5.081 1.612-2.39 3.235-4.808 5.01-5.287 1.869-.505 4.351 3.684 8.878 3.504 4.294-.17 8.447.475 8.404-.699-.066-1.778-5.423-2.958-8.505-3.623-1.751-.378-3.487-1.316-4.736-2.405-.919-.801-1.474-2.023-.691-3.476 1.49-2.763 4.415-6.504 6.16-10.32 1.93-4.223 2.678-8.596 4.248-13.08l9.465-31.981z" stroke-width=".665"/>
   <g fill="#ed1c24" stroke-width="4" stroke-miterlimit="8" transform="matrix(.66497 0 0 .665.894.76)">
    <path id="stern_mitte" d="m331 39.38l14.06 64.955 63.29-20.297-49.22 44.658 49.22 44.658-63.29-20.297-14.06 64.955-14.06-64.955-63.29 20.297 49.22-44.658-49.22-44.658 63.29 20.297z"/>
    <path d="m200.29 405.99l14.06 64.955 63.29-20.297-49.22 44.658 49.22 44.658-63.29-20.297-14.06 64.955-14.06-64.955-63.29 20.297 49.22-44.658-49.22-44.658 63.29 20.297z" id="stern_links"/>
    <path id="stern_rechts" d="m461.71 405.99l14.06 64.955 63.29-20.297-49.22 44.658 49.22 44.658-63.29-20.297-14.06 64.955-14.06-64.955-63.29 20.297 49.22-44.658-49.22-44.658 63.29 20.297z"/>
   </g>
   <g stroke-width=".665">
    <path d="m266.33 276.45c-1.893-1.097-3.407-2.262-4.132-5.191-.754-3.047 1.57-5.461 2.98-7.259 1.021-1.302 1.668-3.227-.927-4.04-2.583-.806-5.568-.913-6.551-2.967-2.886-6.04 1.709-8.28 4.069-9.18 1.928-.736 4.971.201 6.555-1.113.973-.807 1.058-2.76.502-3.909-1.219-2.524-4.959-1.19-5.928-3.487-1.362-3.231 1.666-5.532 3.329-6.329 2.277-1.092 5.186-.149 7.804-.504.784-.106 1.333-.452 1.67-.898.494-.67.512-1.555.139-2.203-1.022-1.774-4.068-.772-4.642-2.676-.499-1.657.8-3.562 3.455-4.16 2.056-.463 3.609-.494 5.522-1.347.733-.327 1.619-1.291 1.333-2.027-.413-1.061-1.451-.095-1.816-1.274-.278-.897.925-1.756 2.085-1.881 3.02-.327 7.724-3.02 8.677-5.887 2.173-6.526 1-11.576.771-14.974l3.647-.229 3.647-.229c.181 3.097-.845 10.07-.862 16.56-.008 2.946 3.117 8.18 5.457 10.01.946.74 1.547 2.373.785 3.214-.773.855-1.532-.359-2.277.318-.651.592-.491 2.092-.094 2.869 1.126 2.204 2.137 2.91 3.528 4.939 1.674 2.442 1.23 5.389-.353 6.628-1.59 1.244-3.506-1.647-5.314-.895-.736.306-1.352 1.088-1.484 2.02-.084.627.051 1.327.517 2 1.519 2.209 4.265 3.762 4.864 6.497.444 2.029.488 6.618-3.129 8.05-1.64.649-4.54-2.89-6.512-2.302-1.281.381-2.82 1.843-2.921 3.192-.167 2.235 2.339 4.128 2.782 6.324.523 2.597 1.053 8.347-5.83 9.417-2.29.356-3.956-2.223-5.992-3.981-2.061-1.779-3.398-.135-3.99 1.446-.826 2.204-1.751 5.517-4.795 6.428-2.905.87-4.687.12-6.57-.972zm27.15-56.747c3.181 6.14.549.223 3.928 6.82 1.15 2.244 1.575 3.811-.118 2.998-.985-.473-2.538-4.165-4.691-6.777-.625 3.06-2.856 8.96-4.722 13.642-.378.95-.649 1.639-.736 1.931 1.246 2.063 2.919 5.571 3.998 8.759 1.05 3.103 1.414 5.567.105 4.97-1.689-.77-2.988-7.509-5.464-10.74-1.85 4.503-5.101 10.706-5.152 11.388 1.806 3.803 5.759 12.68 3.086 11.619-1.499-.595-2.65-6.073-4.556-8.781-1.073 2.18-3.903 7.229-5.981 8.819.208-2.43 2.873-7.885 3.917-9.869-3.4.043-8.286 2.116-9.722 1.147-2.191-1.478 6.804-3.104 11.11-3.998.706-.625 3.234-6.58 5.288-11.188-4.265.442-9.567 3.628-11.498 2.697-1.307-.63.76-1.719 3.679-2.839 2.765-1.061 6.899-2.369 8.975-2.89.139-.262.427-.944.795-1.879 4.734-12.09.746-3.103 4.567-13.446-3.294 1.084-6.39 2.901-7.58 2.661-1.872-.377-.58-1.204 1.532-2.228 2.283-1.108 4.985-2.243 6.795-3.438.599-2.089 1.331-5.174 2.088-8.97.679-3.406 1.17-6.412 1.717-6.312.578-.025.663 3.058.288 6.616-.405 3.844-1.181 7.222-1.642 9.289z"/>
    <path d="m394.07 151.89c-.951 1.975-1.959 3.454-4.6 4.546-2.671 1.105-5.04-.608-6.916-1.571-1.361-.699-3.205-.837-3.445 1.806-.243 2.672.137 5.402-1.458 6.882-4.49 4.166-7.181.913-8.673-1.173-1.118-1.564-1.119-4.726-2.753-5.806-1.013-.669-2.857-.166-3.771.702-1.94 1.842.287 5.086-1.514 6.623-2.623 2.238-5.821.02-7.164-1.385-.076-.079-.148-.161-.218-.244-1.548-1.867-1.541-4.72-2.602-6.996-.827-1.775-2.668-1.774-3.562-.908-1.398 1.354.316 4.118-1.354 5.073-1.528.874-3.903.099-5.24-2.299-1.053-1.888-1.434-3.288-2.8-4.965-.513-.63-1.709-1.275-2.407-.857-.894.536.103 1.48-.936 1.992-.9.443-2.079-.566-2.443-1.663-.928-2.799-4.599-7.02-7.488-7.655-6.925-1.525-11.878-.713-15.609-.968l.245-3.583.245-3.583c3.774.258 8.399 1.664 15.545.963 2.922-.287 7.141-4.04 8.434-6.681.509-1.041 1.84-1.911 2.701-1.349.969.632-.133 1.483.682 2.12.649.507 1.958.037 2.573-.513 1.677-1.5 2.208-2.751 3.635-4.493 1.771-2.162 4.438-2.534 5.922-1.388 1.546 1.193-.666 3.703.505 5.238.773 1.014 2.683 1.343 3.913-.222 1.547-1.967 2.233-4.826 4.32-6.252.092-.066.186-.129.284-.189 1.667-1.026 5.825-2.529 8.275.464 1.113 1.36-1.378 5.129-.224 6.82.744 1.09 2.603 2.116 3.935 1.825 2.253-.492 3.253-3.366 5.351-4.383 2.309-1.119 8.336-3.162 11.477 3.521 1.01 2.143-1.293 4.279-2.548 6.572-1.283 2.345.723 3.299 2.437 3.594 2.393.411 6.088.87 7.495 3.844 1.314 2.777.658 4.647-.255 6.542zm-60.32-12.186c3.035-2.391 9.114-9.391 8.362-5.702-.223 1.096-3.229 3.342-5.301 5.965 13.633-.107 3.472 1.292 16.03 1.321.822-.903 2.031-2.086 3.387-3.289 3.637-3.26 8.525-6.762 8.263-4.6-.217 1.787-6.158 5.109-8.459 8.328 4.668.439 11.665 1.62 12.24 1.488 1.649-1.516 4.04-3.639 6.36-5.2 2.233-1.499 4.094-2.239 3.951-.891-.151 1.428-5.254 4.188-7.198 6.659 2.492.415 7.847 1.686 9.937 3.397-2.138.316-8.373-.769-10.341-1.149 1.041 3.316 4.181 7.096 3.603 8.836-.427 1.286-1.497-.126-2.794-2.308-1.03-1.733-3.114-5.605-3.889-7.01-.847-.514-7.098-1.051-12.1-1.684 1.655 3.923 6.27 7.947 5.967 10.06-.288 2.01-3.713-2.293-6.584-6.378-1.02-1.455-1.96-2.879-2.575-3.917-3.409-.689-11.46-.664-15.952-1.314 1.71 2.91 4.278 5.5 4.333 6.654.173 3.643-4.607-3.942-7.393-6.796-3.509-.331-15.667-1.077-15.475-2.18-.058-1.124 12.09-.418 15.635-.294z"/>
    <path d="m301.94 46.28c-2.197 0-4.115.248-6.213 2.452-2.19 2.3-1.353 5.613-.997 7.918.256 1.661-.105 3.715-2.785 3.159-2.656-.552-5.357-1.961-7.211-.582-5.51 4.099-2.425 8.61-.748 10.598 1.393 1.652 4.54 2.208 5.382 4.198.513 1.212-.266 3.116-1.268 3.969-1.771 1.508-5.456-.75-6.899.665-2.657 2.606-.784 6.389.436 7.938 1.657 2.103 4.785 2.42 7.07 3.824 1.722 1.06 1.546 2.987.582 3.845-1.483 1.318-4.198-.695-5.299.956-1.033 1.549-.434 4.139 1.912 5.736 1.867 1.271 3.229 1.745 4.863 3.304.606.579 1.181 1.865.707 2.556-.602.877-1.513-.198-2.099.831-.515.904.44 2.191 1.538 2.639 2.794 1.14 6.884 5.186 7.356 8.167 1.145 7.218 0 12.13 0 15.981h3.678 3.678c0-3.854-1.145-8.762 0-15.981.473-2.981 4.562-7.03 7.356-8.167 1.097-.448 2.073-1.735 1.559-2.639-.586-1.03-1.518.046-2.12-.831-.474-.691.1-1.977.707-2.556 1.634-1.56 2.995-2.034 4.863-3.304 2.346-1.596 2.944-4.187 1.912-5.736-1.101-1.651-3.816.362-5.299-.956-.964-.857-1.119-2.785.603-3.845 2.281-1.404 5.387-1.72 7.04-3.824 1.22-1.549 3.115-5.333.457-7.938-1.443-1.415-5.149.843-6.92-.665-1-.854-1.76-2.757-1.247-3.969.842-1.99 3.968-2.546 5.361-4.198 1.677-1.988 4.782-6.499-.727-10.598-1.854-1.379-4.555.03-7.211.582-2.679.557-3.062-1.497-2.805-3.159.356-2.305 1.192-5.618-.997-7.918-2.098-2.204-4.02-2.452-6.213-2.452zm1.27 63.22c2.688-2.991 10.184-8.558 6.419-8.09-1.156.144-3.642 3-6.481 4.946.196-2.582-.147-14.946 0-16.435 3.746-2.77 12.259-10.674 9.349-10.706-2.023-.022-5.773 5.359-9.453 7.419.074-5.01-.211-11.751.104-12.528 3.409-2.68 10.859-8.537 8.102-8.835-1.675-.181-5.154 4.055-8.144 5.632.031-2.357-.136-8.31-1.166-10.64-1.03 2.33-1.197 8.283-1.166 10.64-2.99-1.576-6.469-5.813-8.144-5.632-2.756.298 4.693 6.156 8.102 8.835.315.777.03 7.517.104 12.528-3.68-2.059-7.43-7.441-9.453-7.419-2.91.032 5.603 7.936 9.349 10.706.147 1.488-.196 13.852 0 16.435-2.84-1.942-5.326-4.802-6.481-4.946-3.765-.471 3.731 5.097 6.419 8.09.107 3.617.127 16.08 1.27 15.957 1.142.128 1.163-12.339 1.27-15.957z"/>
    <path d="m50.592 199.63c.179 2.189.608 4.078 3.182 5.976 2.686 1.98 6.231.859 8.717.308 1.792-.397 4.059-.208 3.657 2.511-.398 2.695-1.721 5.506-.081 7.24 4.872 5.153 9.512 1.722 11.546-.104 1.69-1.517 2.075-4.7 4.178-5.687 1.281-.601 3.399.038 4.39.978 1.75 1.661-.454 5.498 1.165 6.84 2.981 2.471 6.929.354 8.526-.961 2.169-1.786 2.337-4.927 3.733-7.286 1.054-1.782 3.154-1.715 4.13-.799 1.501 1.409-.537 4.23 1.294 5.241 1.718.949 4.469.222 6.088-2.195 1.289-1.924 1.745-3.306 3.369-5 .603-.63 1.975-1.257 2.741-.809.971.567-.16 1.518.973 2.065.995.48 2.352-.519 2.802-1.631 1.146-2.831 5.439-7.04 8.681-7.58 7.852-1.302 13.228-.157 17.431-.135l.019-3.678.019-3.678c-4.251-.021-9.641 1.123-17.615.138-3.293-.407-7.869-4.367-9.223-7.12-.531-1.081-1.996-2.01-2.984-1.461-1.124.625.102 1.514-.849 2.15-.749.501-2.196-.02-2.861-.601-1.793-1.565-2.376-2.904-3.871-4.709-1.879-2.268-4.803-2.733-6.479-1.617-1.786 1.189.587 3.791-.8 5.345-.902 1.01-3.03 1.276-4.293-.381-1.678-2.194-2.203-5.278-4.641-6.798-1.795-1.12-6.134-2.757-8.859.082-1.48 1.542 1.263 5.079-.29 6.955-.879 1.061-2.929 1.957-4.301 1.536-2.253-.691-3.084-3.768-5.01-5.03-2.317-1.518-7.551-4.251-11.646 1.592-1.378 1.966.383 4.54 1.192 7.142.816 2.625-1.409 3.179-3.251 3.066-2.556-.157-6.256-.701-8.598 1.686-2.244 2.287-2.358 4.222-2.179 6.412zm69.16-5.584c-1.685-1.29-4.129-3.751-6.081-5.416-1.952-1.665-3.403-2.536-3.064-.666.208 1.148 3.466 3.502 5.7 6.262-1.42-.047-5.519.147-9.466.373-3.946.226-7.74.48-8.56.451-1.62-1.788-4.727-4.682-7.426-6.757-2.699-2.074-4.981-3.332-4.906-1.878.105 2.02 6.265 5.396 8.734 8.941-5.496.242-12.861 1.018-13.733.761-1.583-1.601-4.113-4.148-6.27-5.943-2.157-1.795-3.938-2.841-4-1.454-.076 1.686 4.829 4.819 6.765 7.681-2.584.15-9.09.796-11.56 2.02 2.627.833 9.147.521 11.723.309-1.514 3.104-5.88 6.911-5.56 8.567.264 1.363 1.851.069 3.713-2.01 1.862-2.083 4-4.953 5.353-6.754.828-.372 8.219-.577 13.697-.967-2.041 3.805-7.665 7.913-7.512 9.93.11 1.451 2.171-.086 4.567-2.468 2.395-2.382 5.133-5.607 6.547-7.56.81-.118 4.602-.273 8.542-.413 3.941-.14 8.03-.26 9.44-.409-2.022 2.914-5.03 5.526-5.139 6.688-.176 1.891 1.164.9 2.953-.91 1.788-1.81 4.03-4.437 5.626-5.833 1.977-.117 6.377-.276 10.263-.513 3.887-.237 7.263-.557 7.187-1.127.065-.572-3.324-.833-7.227-.918-3.903-.086-8.319.001-10.306.021z"/>
    <path d="m175.68 276.45c1.888-1.094 3.408-2.267 4.132-5.192.755-3.052-1.57-5.461-2.98-7.259-1.016-1.297-1.668-3.227.927-4.04 2.572-.803 5.573-.924 6.55-2.968 1.452-3.037 1.021-5.093-.067-6.516-1.088-1.424-2.835-2.219-4-2.664-1.938-.739-4.969.203-6.555-1.113-.967-.802-1.057-2.761-.502-3.909.49-1.015 1.792-1.432 3.058-1.829 1.266-.397 2.496-.772 2.87-1.658.687-1.631.266-3-.53-4.077-.796-1.075-1.97-1.855-2.798-2.252-2.249-1.078-5.221-.154-7.804-.504-.783-.106-1.334-.452-1.67-.898-.493-.669-.512-1.555-.138-2.203.48-.833 1.515-1.049 2.489-1.289.974-.241 1.887-.505 2.152-1.387.498-1.655-.792-3.56-3.455-4.16-2.12-.478-3.547-.466-5.522-1.347-.733-.327-1.617-1.297-1.333-2.027.361-.926 1.496-.242 1.816-1.274.281-.907-.926-1.756-2.085-1.881-1.475-.16-3.425-.902-5.114-1.993-1.689-1.09-3.11-2.533-3.563-3.894-1.097-3.295-1.339-6.192-1.287-8.66.052-2.468.394-4.514.515-6.314l-3.647-.229-3.647-.229c-.118 2.02.114 4.317.357 7.01.243 2.692.495 5.777.505 9.55.004 1.558-.785 3.545-1.848 5.424-1.063 1.879-2.405 3.645-3.609 4.588-.946.74-1.539 2.381-.785 3.214.858.949 1.445-.439 2.276.318.656.597.492 2.09.094 2.869-1.071 2.097-2.204 3.01-3.527 4.939-.831 1.212-1.144 2.565-1.045 3.765.099 1.2.609 2.245 1.398 2.863.842.658 1.694.224 2.575-.263.881-.487 1.792-1.025 2.738-.632.736.306 1.352 1.086 1.484 2.02.084.628-.051 1.326-.517 2-1.536 2.233-4.259 3.736-4.864 6.497-.223 1.017-.348 2.667.042 4.249.39 1.582 1.295 3.091 3.087 3.8.973.385 2.03-.372 3.132-1.128 1.101-.756 2.247-1.512 3.38-1.174 1.283.382 2.82 1.835 2.921 3.191.167 2.226-2.342 4.144-2.781 6.324-.264 1.312-.531 3.387.138 5.281.669 1.894 2.272 3.604 5.692 4.136 2.301.358 3.948-2.217 5.992-3.981 2.062-1.78 3.395-.141 3.99 1.446.825 2.202 1.758 5.519 4.795 6.428 2.91.871 4.682.122 6.57-.972zm-27.15-56.747c-.464.895-1.166 2.036-1.889 3.239-.724 1.203-1.469 2.468-2.039 3.581-1.14 2.225-1.59 3.818.118 2.998.524-.252 1.141-1.286 1.908-2.586.767-1.3 1.688-2.862 2.784-4.191.208 1.02.952 3.522 1.895 6.213.943 2.69 2.082 5.562 2.827 7.43.377.948.65 1.641.736 1.931-1.199 1.985-2.95 5.664-3.997 8.759-1.047 3.095-1.419 5.569-.105 4.97.914-.416 1.62-2.281 2.437-4.447.817-2.166 1.752-4.629 3.03-6.293.95 2.314 2.206 4.964 3.25 7.127 1.045 2.163 1.87 3.845 1.902 4.261-.925 1.949-2.365 5.085-3.222 7.634-.857 2.549-1.144 4.494.137 3.985.779-.309 1.424-1.823 2.125-3.598.701-1.775 1.463-3.809 2.43-5.183.519 1.055 1.499 2.882 2.614 4.631 1.115 1.749 2.362 3.419 3.368 4.188-.108-1.262-.828-3.208-1.645-5.102-.817-1.893-1.729-3.736-2.272-4.768 1.677.021 3.759.556 5.597.953 1.838.397 3.431.662 4.125.194 1.142-.77-.583-1.526-3.118-2.218-2.535-.692-5.884-1.342-7.988-1.779-.311-.275-1.143-1.938-2.138-4.1-.995-2.163-2.142-4.828-3.149-7.087 2.08.216 4.495 1.136 6.624 1.863 2.129.727 3.969 1.269 4.874.833 1.301-.627-.751-1.716-3.679-2.839-1.464-.562-3.148-1.136-4.746-1.647-1.598-.512-3.11-.962-4.229-1.243-.14-.264-.427-.942-.795-1.879-.724-1.849-1.753-4.716-2.626-7.377-.873-2.661-1.588-5.113-1.942-6.069 1.625.535 3.232 1.268 4.579 1.827 1.347.559 2.432.948 3 .834.927-.187 1.076-.491.728-.871-.348-.38-1.194-.84-2.26-1.357-1.065-.517-2.35-1.093-3.575-1.686-1.225-.593-2.39-1.204-3.22-1.752-.245-.856-.608-2.244-.985-3.845-.376-1.602-.763-3.417-1.103-5.125-.34-1.708-.636-3.307-.908-4.471-.272-1.164-.529-1.892-.809-1.841-.284-.012-.452.75-.501 1.964-.05 1.214.026 2.879.213 4.652.187 1.773.485 3.655.8 5.311.315 1.656.643 3.088.841 3.978z"/>
    <path d="m47.94 151.89c.465.966.958 1.843 1.665 2.606.706.763 1.624 1.41 2.921 1.962 1.353.577 2.588.435 3.748.034 1.16-.402 2.247-1.065 3.182-1.536.674-.339 1.49-.55 2.16-.34.67.211 1.186.842 1.296 2.17.109 1.316.057 2.689.189 3.91.132 1.221.442 2.288 1.222 3.01 1.133 1.049 2.128 1.629 3.03 1.871.901.241 1.708.145 2.435-.151 1.519-.603 2.675-2.055 3.379-3.043 1.143-1.604 1.089-4.719 2.736-5.824 1-.673 2.847-.185 3.757.673.805.758.82 2.102.826 3.406.006 1.304.003 2.569.72 3.18 1.32 1.125 2.737 1.132 4.01.691 1.268-.441 2.387-1.33 3.03-2 .074-.077.144-.157.212-.239 1.528-1.843 1.554-4.749 2.602-6.997.826-1.772 2.668-1.773 3.562-.908 1.373 1.33-.28 4.138 1.354 5.074 1.533.878 3.903.099 5.24-2.299 1.064-1.909 1.418-3.268 2.8-4.965.513-.63 1.711-1.275 2.407-.857.883.53-.091 1.486.936 1.992.902.444 2.08-.566 2.443-1.663.926-2.793 4.611-7.02 7.488-7.655 6.967-1.534 11.836-.71 15.609-.968l-.245-3.584-.245-3.583c-3.737.255-8.437 1.66-15.545.963-2.935-.288-7.138-4.03-8.434-6.682-.509-1.041-1.841-1.91-2.701-1.349-.98.639.143 1.476-.682 2.12-.651.508-1.958.037-2.573-.513-1.656-1.482-2.225-2.772-3.635-4.493-1.771-2.162-4.443-2.53-5.922-1.388-1.577 1.217.685 3.678-.505 5.239-.774 1.015-2.681 1.346-3.913-.222-1.563-1.988-2.21-4.811-4.32-6.252-.094-.064-.19-.125-.29-.184-.864-.506-2.333-1.107-3.907-1.204-1.573-.097-3.251.314-4.451 1.796-.652.805-.246 2.02.146 3.272.392 1.254.77 2.55.117 3.519-.739 1.097-2.574 2.127-3.906 1.841-2.186-.469-3.304-3.367-5.328-4.362-1.247-.614-3.307-1.432-5.498-1.203-2.082.203-4.325 1.394-5.825 4.549-.517 1.088-.192 2.155.408 3.242.6 1.087 1.471 2.202 2.1 3.376.635 1.184.445 2.01-.109 2.571-.554.562-1.479.866-2.354 1.01-1.215.198-2.732.397-4.144.938-1.412.541-2.717 1.423-3.422 2.892-.676 1.407-.838 2.57-.727 3.615.111 1.045.495 1.976.961 2.942zm60.32-12.186c-1.543-1.216-3.802-3.556-5.601-5.131-1.799-1.575-3.131-2.386-2.76-.571.227 1.114 3.218 3.328 5.301 5.965-1.266-.001-4.91.279-8.418.61-3.508.331-6.878.71-7.61.711-.819-.899-2.035-2.09-3.387-3.289-1.856-1.647-3.978-3.307-5.624-4.283-1.646-.976-2.804-1.274-2.672-.241.125.98 1.673 2.186 3.465 3.585 1.792 1.399 3.826 2.992 5.03 4.667-2.444.233-5.298.637-7.636.989-2.338.352-4.159.646-4.561.557-1.571-1.427-4.134-3.665-6.352-5.158-2.218-1.494-4.063-2.254-3.919-.907.087.819 1.394 1.813 2.91 2.946 1.516 1.133 3.238 2.409 4.265 3.703-1.215.208-3.401.675-5.471 1.338-1.822.583-3.553 1.32-4.46 2.053 1.153.178 2.997.004 4.868-.247 2.124-.284 4.286-.668 5.477-.905-.485 1.574-1.55 3.387-2.391 5.01-.842 1.625-1.465 3.059-1.205 3.839.428 1.283 1.515-.14 2.813-2.334.649-1.097 1.353-2.388 2.027-3.635.674-1.247 1.318-2.451 1.823-3.378.346-.213 2.146-.518 4.467-.823 2.321-.305 5.163-.603 7.582-.907-.799 1.896-2.374 3.905-3.683 5.695-1.309 1.79-2.352 3.359-2.206 4.336.154 1.03 1.064.441 2.297-.903 1.233-1.344 2.803-3.442 4.209-5.447 1.025-1.461 1.957-2.873 2.575-3.917.713-.144 4.073-.426 7.57-.672 3.497-.245 7.132-.462 8.382-.643-1.701 2.895-4.279 5.519-4.333 6.654-.088 1.85 1.061.849 2.587-.962 1.525-1.811 3.436-4.43 4.807-5.834 1.757-.166 5.671-.437 9.126-.8 3.454-.363 6.446-.827 6.35-1.38.029-.561-2.994-.664-6.468-.615-3.474.049-7.399.259-9.167.321z"/>
    <path d="m113.64 229.69c-2.073.412-5.528.639-8.06 1.03-2.534.391-4.139.928-2.498 1.887 1.01.589 4.911-.346 8.452-.217-.664.718-2.076 2.477-3.664 4.533-1.588 2.056-3.35 4.41-4.756 6.288-1.249 1.668-2.211 2.97-2.544 3.344-1.203.052-2.857.217-4.628.487-1.771.27-3.66.647-5.327 1.092-3.334.891-5.771 2.056-4.565 2.87.838.566 2.886.073 5.261-.481 2.375-.554 5.079-1.163 7.23-1.01-1.624 2.203-3.4 4.88-4.822 7.096-1.422 2.216-2.498 3.966-2.854 4.247-1.996.327-5.069.894-7.652 1.661-3.158.945-5.559 2.156-4.302 3.02.523.362 1.607.194 2.94-.138 1.333-.332 2.917-.826 4.438-1.154.997-.214 1.966-.359 2.818-.358-.234.392-.522.895-.836 1.475-.732 1.35-1.6 3.117-2.281 4.837-.681 1.719-1.176 3.388-1.237 4.512.828-.762 1.816-2.173 2.803-3.71.987-1.536 1.975-3.198 2.737-4.5.327-.56.612-1.054.832-1.445.428.733.801 1.627 1.15 2.562.533 1.425 1.017 2.944 1.525 4.159.508 1.214 1.035 2.125 1.627 2.355 1.421.552.87-1.798-.076-4.781-.774-2.445-1.794-5.332-2.425-7.24.084-.439 1.134-2.175 2.577-4.34 1.443-2.165 3.285-4.751 4.833-6.976.847 1.978 1.219 4.673 1.634 6.992.415 2.319.866 4.261 1.717 4.807 1.224.786 1.151-1.655.699-4.92-.226-1.632-.547-3.472-.881-5.198-.335-1.726-.684-3.336-.992-4.496.258-.425 1.213-1.714 2.48-3.349 1.433-1.847 3.252-4.141 4.862-6.164 1.61-2.023 3.01-3.776 3.563-4.575.895 3.421.95 7.369 1.764 8.205 1.326 1.361 1.427-.283 1.203-2.797-.224-2.514-.759-5.909-.775-8.01 1.199-1.552 3.952-4.928 6.345-7.948 2.393-3.02 4.421-5.695 3.95-6.03-.377-.434-2.847 1.862-5.499 4.689-2.652 2.827-5.474 6.185-6.763 7.678zm31.654-29.23c-1.637 1.64-3.422 3.332-5.168 5.15-1.746 1.818-3.43 3.726-4.91 5.871-.242.358-.47.726-.682 1.104-1.429 2.551-.887 4.745-.934 7.565-.034 2.068-1.396 3.556-2.898 3.631-1.259.063-1.392-1.346-2.03-1.519-.99-.269-1.343 1.113-1.338 2.684.008 2.183.382 4.09.729 6.759.264 2.032-.957 4.978-3.072 5.153-2.437.201-1.666-1.275-2.449-1.563-1.072-.394-1.558 1.224-1.536 2.399.075 3.991.858 7.233 2.726 10.635.626 1.141.285 2.728-.502 3.996-.787 1.268-2.023 2.222-3.198 2.076-1.146-.142-1.257-2.178-2.303-2.639-.609-.268-1.707.527-1.781 1.226-.004.047-.004.092.0001.138.463 3.878 2.899 8.05 3.878 11.706.348 1.3.202 2.852-.457 3.999-.658 1.147-1.832 1.897-3.611 1.633-1.03-.153-1.708-.673-2.285-1.121-.577-.448-1.056-.823-1.696-.661-.963.244-1.88 1.447-1.894 2.424-.018 1.224.554 2.18 1.11 3.125.556.945 1.095 1.879 1.061 3.044-.013.437-.072.909-.181 1.393-.336 1.48-1.145 3.085-2.592 4.197-1.447 1.112-3.543 1.746-6.5 1.2-1.446-.267-2.725-1.416-3.804-2.612-1.08-1.196-1.959-2.436-2.684-2.787-.647-.313-1.557-.076-2.432.381-.876.457-1.714 1.135-2.222 1.661-1.066 1.104-.985 2.211-.831 3.315.153 1.104.378 2.206-.396 3.401-1.078 1.665-3.043 2.523-5.229 2.832-2.186.309-4.588.059-6.477-.587-1.889-.646-3.945-1.924-5.421-3.623-1.475-1.699-2.366-3.827-1.927-6.05.315-1.597 1.311-2.374 2.255-3.162.945-.788 1.837-1.588 2.03-3.292.092-.812.112-2.01-.041-3.086-.153-1.077-.482-2.036-1.129-2.349-.725-.351-2.308-.134-3.985-.061-1.677.074-3.453.006-4.54-1.037-2.223-2.132-2.794-4.741-2.416-7.244.379-2.503 1.705-4.881 3.146-6.556.465-.534.94-.995 1.395-1.368 1.215-.994 2.402-1.138 3.594-1.25 1.192-.113 2.389-.194 3.64-1.01.998-.651 1.915-2.319 1.856-3.461-.078-1.521-2.173-1.1-3.112-3.109-.811-1.735-.315-3.487.754-4.85 1.069-1.363 2.706-2.33 4.171-2.589 4.12-.73 8.999.142 13.03-.67.047-.001.094-.024.14-.044.672-.28 1.191-1.597.779-2.123-.707-.903-2.757-.407-3.171-1.505-.425-1.126.243-2.653 1.345-3.821 1.102-1.167 2.637-1.972 3.917-1.662 3.817.923 7.22.845 11.226-.015 1.18-.253 2.707-1.096 2.125-2.085-.426-.723-1.79.394-1.993-2.117-.176-2.18 2.665-4.086 4.77-4.217 2.764-.172 4.742-.12 6.947-.449 1.587-.236 2.938-.773 2.568-1.738-.238-.622-1.684-.559-1.733-1.851-.059-1.541 1.381-3.155 3.495-3.419 2.883-.36 5.117.013 7.659-1.556.377-.233.744-.479 1.102-.737 1.903-1.331 3.423-3.267 4.901-5.317 1.478-2.05 2.949-4.242 4.82-6.136.416.413 1.776 1.762 2.191 2.175.416.413 1.776 1.762 2.191 2.175z"/>
    <path d="m140.07 46.28c2.197 0 4.115.248 6.213 2.452 2.19 2.3 1.353 5.613.997 7.918-.256 1.661.105 3.715 2.785 3.159 2.656-.552 5.357-1.961 7.211-.582 5.51 4.099 2.425 8.61.748 10.598-1.393 1.652-4.54 2.208-5.382 4.198-.513 1.212.266 3.116 1.268 3.969 1.77 1.508 5.456-.75 6.899.665 2.657 2.606.784 6.389-.436 7.938-1.657 2.103-4.785 2.42-7.07 3.824-1.722 1.06-1.546 2.987-.582 3.845 1.483 1.318 4.198-.695 5.299.956 1.033 1.549.434 4.139-1.912 5.736-1.867 1.271-3.229 1.745-4.863 3.304-.606.579-1.181 1.865-.707 2.556.602.877 1.513-.198 2.099.831.515.904-.44 2.191-1.538 2.639-2.794 1.14-6.884 5.186-7.356 8.167-1.145 7.218 0 12.13 0 15.981h-3.678-3.678c0-3.854 1.145-8.762 0-15.981-.473-2.981-4.562-7.03-7.356-8.167-1.097-.448-2.073-1.735-1.559-2.639.586-1.03 1.518.046 2.12-.831.474-.691-.1-1.977-.707-2.556-1.634-1.56-2.995-2.034-4.863-3.304-2.346-1.596-2.944-4.187-1.912-5.736 1.101-1.651 3.816.362 5.299-.956.964-.857 1.119-2.785-.603-3.845-2.281-1.404-5.387-1.72-7.04-3.824-1.22-1.549-3.115-5.333-.457-7.938 1.443-1.415 5.149.843 6.92-.665 1-.854 1.76-2.757 1.247-3.969-.842-1.99-3.968-2.546-5.361-4.198-1.677-1.988-4.782-6.499.727-10.598 1.854-1.379 4.555.03 7.211.582 2.679.557 3.062-1.497 2.805-3.159-.356-2.305-1.192-5.618.997-7.918 2.098-2.204 4.02-2.452 6.213-2.452zm-1.27 63.22c-2.688-2.991-10.184-8.558-6.419-8.09 1.156.144 3.642 3 6.481 4.946-.196-2.582.147-14.946 0-16.435-3.746-2.77-12.259-10.674-9.349-10.706 2.023-.022 5.773 5.359 9.453 7.419-.074-5.01.211-11.751-.104-12.528-3.409-2.68-10.859-8.537-8.102-8.835 1.675-.181 5.154 4.055 8.144 5.632-.031-2.357.136-8.31 1.166-10.64 1.03 2.33 1.197 8.283 1.166 10.64 2.99-1.576 6.469-5.813 8.144-5.632 2.756.298-4.693 6.156-8.102 8.835-.315.777-.03 7.517-.104 12.528 3.68-2.059 7.43-7.441 9.453-7.419 2.91.032-5.603 7.936-9.349 10.706-.147 1.488.196 13.852 0 16.435 2.84-1.942 5.326-4.802 6.481-4.946 3.765-.471-3.731 5.097-6.419 8.09-.107 3.617-.127 16.08-1.27 15.957-1.142.128-1.163-12.339-1.27-15.957z"/>
    <path d="m106.76 104.31c-.209-4.03 1.172-13.295-1.17-10.309-.719.916-.459 4.714-1.101 8.103-1.691-1.988-10.7-10.604-11.651-11.774.699-4.62 1.147-16.27-.944-14.246-1.453 1.407-.304 7.9-1.46 11.964-3.499-3.642-8.481-8.27-8.807-9.05.524-4.317 1.667-13.754-.504-12.03-1.319 1.049-.789 6.531-1.796 9.763-1.649-1.711-5.987-5.858-8.371-6.803.92 2.394 5.02 6.776 6.714 8.443-3.243.974-8.719.386-9.781 1.694-1.748 2.153 7.7 1.109 12.02.631.775.335 5.35 5.365 8.955 8.902-4.076 1.113-10.556-.104-11.979 1.334-2.046 2.07 9.608 1.744 14.235 1.093 1.16.963 9.681 10.06 11.651 11.774-3.395.606-7.189.306-8.113 1.016-3.01 2.311 6.265 1.027 10.296 1.279 2.64 2.516 11.493 11.434 12.214 10.539.903-.712-7.921-9.658-10.409-12.325zm24.956 31.416c-3.536-3.574-6.243-8.232-10.608-10.721-2.394-1.365-4.548-.854-7.293-.959-2.01-.077-3.367-1.465-3.312-2.932.046-1.23 1.426-1.31 1.65-1.924.348-.954-.953-1.339-2.475-1.4-2.114-.085-4 .183-6.635.355-2.01.131-4.746-1.284-4.659-3.359.101-2.391 1.439-1.525 1.815-2.265.515-1.012-.982-1.604-2.12-1.678-3.863-.25-7.104.201-10.671 1.673-2.393.988-5.985-2-5.339-4.254.315-1.097 2.298-.98 2.906-1.944.378-.6-.323-1.868-1.034-1.875-3.85-.035-8.342 1.732-12.18 2.01-2.73.2-6.239-1.877-5.071-5.332.676-2 2.627-2.197 2.544-3.552-.062-1.019-1.086-2.229-2.069-2.506-2.466-.696-4.377 1.17-6.788.3-3.254-1.173-7.927-5.653-4.441-11.752 1.468-2.569 6.218-3.048 7.363-4.182 1.021-1.01.299-3.766-.304-5.081-1.266-2.763-4.148-1.301-5.695-3.68-2.156-3.315.29-8.567 3.128-11.376 2.838-2.808 8.115-5.199 11.408-3.01 2.363 1.572.87 4.438 3.62 5.733 1.309.617 4.056 1.368 5.078.358 1.145-1.133 1.675-5.878 4.259-7.319 6.135-3.422 10.565 1.298 11.704 4.564.844 2.421-1.041 4.312-.372 6.785.267.987 1.466 2.023 2.484 2.096 1.355.097 1.572-1.851 3.579-2.506 3.467-1.132 5.507 2.399 5.279 5.127-.321 3.835-2.135 8.308-2.141 12.158-.0001.711 1.26 1.425 1.864 1.054.971-.597.874-2.582 1.974-2.885 2.256-.622 5.21 3 4.197 5.383-1.51 3.551-1.994 6.788-1.785 10.653.062 1.138.638 2.642 1.655 2.137.743-.368-.108-1.716 2.284-1.792 2.076-.066 3.462 2.691 3.31 4.694-.2 2.631-.487 4.516-.425 6.631.045 1.523.417 2.828 1.374 2.49.616-.218.711-1.597 1.941-1.63 1.468-.039 2.841 1.33 2.897 3.343.076 2.746-.457 4.895.883 7.303 2.442 4.391 7.07 7.147 10.608 10.721-.416.412-1.778 1.76-2.195 2.172-.416.412-1.778 1.76-2.195 2.172z"/>
    <path d="m229.47 390.76l-9.465-39.882-9.465 39.882c1.776-3.363 4.239-2.893 5.775-.066 1.019 1.875 1.347 5.636 1.819 6.935 1.109 3.06 1.543 6.25 1.051 9.467-.554 3.622-3.683 6.933-3.818 10.595-.114 3.099 2.194 5.02 1.786 8.095-.277 2.086-1.081 3.43-2.44 4.345-2.738 1.844-4.582 1.564-7.142 1.964-1.581.247-2.957 1.233-4.898 3.199-2.919 2.958-7.03 6.654-6.352 7.455 1.117 1.32 5.578-3.783 9.642-5.059 2.855-.896 4.799-1.867 7.79-1.952 2.583-.073 4.433 1.013 5.121 1.833.765.913.668 1.632.421 2.798-.55 2.591-5.191 6.995-3.095 7.44 1.624.345 4.52-3.961 6.785-6.428 1.838-2 .58-4.319 2.752-5.952 2.265-1.704 7.07-2.187 8.438-.774 1.168 1.21 1.815 4.216 2.857 5.536 1.436 1.819 2.863 2.867 4.821 4.107 1.202.761 2.682 2.905 3.631 1.845.97-1.085-.959-2.822-1.905-3.928-1.212-1.418-2.706-1.8-3.571-3.452-1.438-2.745-.471-6.092-2.976-7.916-3.088-2.248-6.784 1.499-9.761-.893-2.928-2.352-4.959-8.287-4.583-12.02.391-3.885 4.229-6.758 4.949-10.595.983-5.247.347-12.293-.163-15.774-.171-1.168 1.665-1.749 1.997-.8z"/>
   </g>
  </g>
  <g id="oberer_bereich" transform="matrix(.05985 0 0 .05985-2.062-4.18)" enable-background="new">
   <path d="m7070 970c-79-167-184-306-293-442-22-18-48-30-62 7-35 52-115 45-216 12-917-266-1790-395-2772-395-982 0-1855 129-2772 395-101 33-181 40-216-12-14-37-40-25-62-7-108 136-214 275-293 442 884-503 2229-756 3343-756 1114 0 2339 253 3343 756" id="weisse_flaeche_oben" fill="#fff"/>
   <path d="m384 970c884-503 2229-756 3343-756 1114 0 2339 253 3343 756" id="trennlinie_zum_inhalt" fill="none" stroke="#000" stroke-linejoin="round" stroke-linecap="round" stroke-width="19.444"/>
  </g>
  <g fill="#ffd700">
   <path d="m303.41 170.11c.173.021.243.441.452 1 .217.587.575 1.294 1.202 1.987.03.032.061.065.092.097.659.674 1.407 1.059 2.01 1.295.59.231 1.027.32 1.042.499.001.129-1.928 1.149-3.946-.921-.041-.042-.082-.085-.121-.129-1.854-2.027-.912-3.855-.731-3.832"/>
   <path d="m264.96 176.72c.157-.336 2.084.283 5.139 1.397 2.832 1.032 7.368 2.792 11.794 3.264.111.012.222.023.333.033 2.721.268 5.241-.016 7.421-.64 5.279-1.489 8.08-4.27 8.562-3.678.102.125-2.103 3.641-7.872 5.779-2.412.883-5.273 1.326-8.354 1.027-.122-.012-.245-.026-.367-.04-5.01-.583-9.472-2.649-12.241-4.121-2.904-1.543-4.547-2.737-4.414-3.02"/>
   <path d="m289.52 143.76c-.273-.467 2.462-2.502 5.351-5.342 2.887-2.838 4.963-5.541 5.423-5.264.464.279-.853 3.574-4.02 6.69-3.168 3.115-6.481 4.382-6.753 3.917"/>
   <path d="m261.74 154.53c-.234-.288 1.477-2.951 5.305-4.273.324-.112.648-.207.972-.286 3.492-.803 5.871.383 5.845.686-.058.676-2.541.408-5.35 1.231-.271.075-.543.159-.82.253-3.18 1.083-5.516 2.925-5.951 2.389"/>
   <path d="m259.13 151.42c-.15-.078.416-1.993.8-4.349.399-2.449.775-4.468 1.136-4.406.177.031.275 2.067-.146 4.57-.428 2.537-1.465 4.353-1.79 4.185"/>
   <path d="m227.9 189.72c-.64-.236 1.106-7.289 6.5-14.572 5.394-7.283 11.612-11.04 12.02-10.513.417.539-4.94 5.152-10.01 11.998-5.066 6.837-7.887 13.315-8.506 13.09"/>
   <path d="m290.78 158.15c.14-.213 2.029.711 4.243 2.028 2.226 1.324 3.912 2.603 3.753 2.854-.136.216-2.045-.674-4.265-1.995-2.231-1.327-3.894-2.639-3.732-2.888"/>
   <path d="m228.74 308.74c-.342.013-.842-4.3-1.123-11.3-.328-8.166-.267-15.497-.301-27.3-.004-1.347-.001-2.668-.018-3.979-.055-7.302.447-13.38 1.749-18.957 2.272-9.718 6.559-14.52 6.764-14.391.454.286-3.064 5.466-4.791 14.805-1.017 5.488-1.327 11.267-1.236 18.518.018 1.315.028 2.646.032 3.996.027 9.101-.299 21.895-.432 27.29-.172 6.973-.297 11.301-.644 11.314"/>
   <path d="m231.61 364.47c-.382.062-1.205-2.178-1.926-5.958-.707-3.707-1.347-9.175-.716-15.05.013-.123.027-.246.041-.368.701-6.079 2.886-10.857 5.229-14.07 2.292-3.145 4.363-4.367 4.61-4.117.32.324-1.18 2.067-2.837 5.227-1.731 3.301-3.353 7.669-4.02 13.31-.013.115-.027.23-.04.345-.602 5.424-.32 10.838-.154 14.472.172 3.772.247 6.138-.186 6.208"/>
   <path d="m243.9 375.5c.24-.478 3.082.293 5.738 2.904 2.656 2.61 3.483 5.434 3.02 5.682-.472.251-2.111-1.98-4.421-4.253-2.307-2.269-4.57-3.862-4.333-4.334"/>
   <path d="m240.19 310.68c.385-.079 1.184 2.606 3.434 4.981 1.146 1.21 2.273 1.951 3.248 2.475.932.501 1.601.744 1.566.961-.06.379-3.153.461-5.9-2.401-2.753-2.869-2.664-5.952-2.349-6.02"/>
   <path d="m236.4 217.5c.217-.027.442.587.822 1.523.363.893.908 2.187 1.924 2.98.019.017.039.034.059.051 1 .85 2.404 1.182 3.363 1.409 1.01.238 1.657.384 1.66.604.002.185-.643.442-1.766.467-1.085.024-2.749-.195-4.195-1.315-.028-.022-.055-.043-.083-.065-1.374-1.207-1.857-2.8-1.996-3.865-.144-1.103.032-1.766.212-1.788"/>
   <path d="m260.48 138.96c.119-.1 1.098.481 2.207.501 1.204.022 2.235-.446 2.381-.248.113.153-.629 1.31-2.412 1.235-1.793-.076-2.347-1.344-2.175-1.488"/>
   <path d="m301.13 164.97c-.237.053-.849-1.051-.173-2.544.031-.068.064-.135.098-.2.304-.65.799-1.079 1.255-1.258.451-.177.734-.075.756.045-.005-.027-.674.845-1.121 1.661-.025.053-.049.107-.073.161-.456 1.034-.541 2.09-.742 2.135"/>
   <path d="m251.75 421.5c.138-.123.71.348 1.645 1.078.884.69 2.232 1.728 3.776 2.023.06.015.12.028.181.04 1.555.302 3.121-.395 4.151-.926 1.079-.556 1.709-.993 1.838-.852.095.105-.301.803-1.352 1.61-1.01.774-2.758 1.698-4.842 1.39-.08-.012-.159-.025-.238-.04-1.943-.453-3.333-1.707-4.122-2.603-.823-.935-1.148-1.621-1.038-1.719"/>
   <path d="m279.81 400.58c.081-.13 1.045.42 2.717.859 1.977.52 3.81.653 6.867.826 0 0 .018.0001.018.0001 3.125.156 4.81.133 7.01.514 1.793.311 2.825.768 2.79.895-.038.138-1.124-.075-2.875-.196-4.816-.334-1.155.093-6.979-.215 0 0-.018-.0001-.018-.0001-2.965-.137-5.127-.44-7.03-1.158-1.721-.65-2.566-1.424-2.503-1.526"/>
   <path d="m272.55 390.7c-.136-.209 1.658-1.617 3.344-3.755 1.698-2.154 2.703-4.211 2.965-4.102.233.097-.34 2.393-2.182 4.721-1.842 2.328-3.973 3.373-4.127 3.136"/>
   <path d="m138.59 170.11c-.111.014-.132.429-.31 1.029-.178.6-.553 1.402-1.189 2.104-.032.034-.064.068-.097.102-.679.695-1.507 1.093-2.131 1.293-.625.2-1.061.24-1.07.354-.005.057.1.124.304.174.203.05.507.081.88.046.373-.035.817-.139 1.275-.347.458-.208.929-.521 1.337-.94.04-.041.078-.082.116-.124.379-.415.662-.881.847-1.329.185-.449.272-.879.294-1.238.022-.36-.018-.649-.075-.841-.056-.193-.125-.289-.181-.283"/>
   <path d="m177.04 176.72c-.048-.104-.548.009-1.413.303-.865.294-2.095.775-3.604 1.366-1.51.591-3.299 1.293-5.296 1.934-1.998.641-4.204 1.216-6.573 1.473-.113.012-.226.024-.339.035-2.75.27-5.379-.043-7.578-.705-1.307-.389-2.471-.884-3.488-1.379-1.017-.495-1.886-.991-2.601-1.412-1.43-.841-2.256-1.362-2.357-1.239-.101.123.535.878 1.86 1.955.663.538 1.501 1.151 2.521 1.761 1.02.61 2.221 1.217 3.607 1.712 2.35.832 5.213 1.252 8.198.962.12-.012.241-.025.362-.039 2.528-.291 4.839-.938 6.882-1.676 2.043-.739 3.82-1.565 5.284-2.301 1.465-.736 2.618-1.382 3.398-1.858.78-.476 1.186-.787 1.138-.891"/>
   <path d="m152.48 143.76c.093-.159-.57-.716-1.624-1.586-1.054-.87-2.491-2.071-3.962-3.517-1.471-1.446-2.695-2.862-3.58-3.902-.885-1.04-1.451-1.695-1.608-1.601-.157.095.128.929.842 2.144.714 1.215 1.879 2.797 3.415 4.307 1.536 1.51 3.136 2.649 4.362 3.344 1.225.696 2.064.97 2.156.811"/>
   <path d="m180.26 154.53c.116-.142-.339-.755-1.266-1.554-.927-.8-2.349-1.783-4.147-2.403-.316-.109-.632-.202-.946-.28-1.647-.393-3.123-.32-4.152-.172-1.029.148-1.624.37-1.61.537.014.167.64.253 1.636.34.997.086 2.361.168 3.796.57.279.075.561.161.845.258 1.619.553 3.01 1.348 4.03 1.922 1.027.575 1.694.924 1.809.782"/>
   <path d="m182.87 151.42c.081-.042-.091-.517-.31-1.279-.218-.762-.456-1.825-.656-3.042-.2-1.217-.361-2.348-.535-3.156-.173-.808-.345-1.293-.436-1.277-.09.016-.084.523-.033 1.342.051.819.137 1.957.346 3.201.209 1.244.537 2.342.878 3.094.341.751.665 1.161.746 1.118"/>
   <path d="m214.1 189.72c.108-.04.061-.495-.143-1.28-.204-.785-.566-1.899-1.112-3.238-.546-1.339-1.276-2.902-2.206-4.575-.93-1.673-2.06-3.454-3.375-5.23-1.315-1.776-2.69-3.377-4.02-4.757-1.328-1.38-2.607-2.539-3.725-3.457-1.118-.918-2.073-1.597-2.761-2.027-.688-.429-1.108-.611-1.178-.521-.141.181 1.157 1.396 3.147 3.415 1.99 2.02 4.645 4.884 7.201 8.334 2.556 3.45 4.516 6.821 5.853 9.316.668 1.248 1.188 2.274 1.573 2.977.385.703.637 1.082.744 1.042"/>
   <path d="m151.22 158.15c-.05-.077-.533.143-1.281.541-.748.398-1.766.971-2.877 1.631-1.111.661-2.101 1.293-2.795 1.786-.694.494-1.093.846-1.044.924.049.078.535-.133 1.289-.522.754-.389 1.778-.955 2.89-1.616 1.112-.662 2.098-1.302 2.786-1.805.688-.503 1.081-.862 1.031-.939"/>
   <path d="m213.26 308.74c.229.009.622-4.309.827-11.303.103-3.497.156-7.661.171-12.281.015-4.62-.008-9.697.008-15.02.004-1.345.011-2.673.021-3.981.029-3.516-.065-6.913-.338-10.09-.273-3.178-.725-6.135-1.325-8.793-.534-2.365-1.202-4.482-1.903-6.304-.701-1.822-1.434-3.35-2.096-4.57-.662-1.219-1.251-2.132-1.68-2.732-.429-.601-.697-.892-.755-.855-.058.037.096.398.412 1.058.315.659.79 1.618 1.338 2.865.548 1.247 1.168 2.785 1.762 4.597.594 1.812 1.161 3.898 1.609 6.216.506 2.613.878 5.513 1.092 8.637.214 3.124.27 6.471.229 9.955-.016 1.313-.026 2.645-.03 3.993-.016 5.335.054 10.414.123 15.03.069 4.617.138 8.773.186 12.263.096 6.98.119 11.303.348 11.312"/>
   <path d="m210.39 364.47c.136.022.362-.535.642-1.568.28-1.033.615-2.544.93-4.432.314-1.888.607-4.154.751-6.687.144-2.533.136-5.332-.181-8.264-.013-.122-.027-.243-.041-.364-.221-1.888-.572-3.708-1.039-5.403-.466-1.695-1.047-3.264-1.7-4.668-1.352-2.902-3-5.04-4.289-6.378-.642-.671-1.194-1.15-1.596-1.448-.402-.298-.652-.415-.717-.35-.129.131.52.958 1.533 2.434 1.012 1.476 2.372 3.635 3.488 6.427 1.084 2.706 1.916 6.01 2.338 9.618.014.116.027.232.04.349.31 2.81.371 5.51.328 7.979-.043 2.469-.188 4.706-.32 6.59-.132 1.884-.251 3.415-.294 4.48-.043 1.065-.001 1.664.126 1.686"/>
   <path d="m198.1 375.5c-.082-.164-.796-.015-1.837.494-1.041.509-2.399 1.404-3.666 2.649-1.267 1.245-2.185 2.586-2.716 3.617-.531 1.031-.697 1.74-.535 1.826.162.086.618-.455 1.323-1.31.704-.855 1.676-2.01 2.863-3.182 1.187-1.167 2.362-2.116 3.23-2.802.868-.685 1.42-1.128 1.338-1.292"/>
   <path d="m201.81 310.68c-.135-.028-.366.639-.851 1.635-.485.996-1.264 2.322-2.401 3.519-.568.599-1.167 1.105-1.745 1.513-.578.408-1.136.718-1.622.952-.486.234-.899.395-1.188.518-.289.123-.452.211-.441.279.011.068.196.109.524.098.328-.012.797-.079 1.355-.246.558-.168 1.204-.439 1.868-.84.664-.401 1.345-.934 1.97-1.586.625-.653 1.133-1.361 1.519-2.044.386-.684.651-1.342.821-1.907.341-1.129.326-1.864.191-1.892"/>
   <path d="m205.6 217.5c-.135-.017-.311.612-.649 1.567-.338.955-.836 2.246-1.936 3.128-.021.018-.042.036-.063.054-1.103.918-2.485 1.201-3.502 1.393-1.018.192-1.676.287-1.677.424-.0001.069.16.138.46.195.3.057.74.102 1.289.093.549-.001 1.208-.075 1.912-.269.704-.195 1.454-.521 2.143-1.061.026-.021.053-.042.079-.063.659-.57 1.111-1.243 1.419-1.896.308-.653.475-1.286.566-1.82.091-.534.108-.97.092-1.27-.016-.3-.063-.466-.131-.474"/>
   <path d="m181.52 138.96c-.07-.059-.299.118-.668.3-.369.182-.901.352-1.533.366-.632.015-1.222-.119-1.642-.247-.421-.128-.689-.24-.743-.167-.055.074.123.333.545.595.421.262 1.105.504 1.862.475.757-.03 1.398-.331 1.766-.647.368-.317.485-.616.415-.675"/>
   <path d="m140.87 164.97c.09.02.248-.232.311-.693.063-.461.002-1.132-.291-1.782-.03-.066-.061-.13-.094-.193-.142-.297-.332-.57-.539-.782-.207-.213-.429-.365-.628-.457-.398-.184-.68-.134-.696-.049-.016.086.201.183.455.421.127.119.265.276.403.475.138.198.277.438.412.69.026.055.052.111.077.168.248.56.373 1.104.431 1.508.058.403.068.676.158.695"/>
   <path d="m190.25 421.5c-.042-.037-.203.064-.464.274-.262.21-.625.532-1.079.911-.455.379-1 .817-1.638 1.211-.637.394-1.365.743-2.196.909-.064.014-.128.026-.193.037-.903.155-1.803.038-2.565-.206-1.057-.335-1.881-.863-2.466-1.236-.585-.374-.933-.601-.99-.538-.056.062.184.406.708.899.525.492 1.34 1.142 2.495 1.59.85.327 1.89.49 2.957.311.077-.013.153-.027.228-.043.952-.216 1.761-.629 2.434-1.09.673-.461 1.211-.967 1.63-1.416.419-.449.721-.84.911-1.121.191-.281.271-.454.229-.491"/>
   <path d="m162.19 400.58c-.032-.051-.453.171-1.216.466-.763.296-1.886.639-3.269.884-1.462.258-3.208.404-5.089.502-.006.0001-.012.0001-.018.0001-1.355.068-2.664.096-3.855.16-1.191.064-2.262.165-3.152.304-1.78.278-2.828.69-2.804.778.024.088 1.098-.16 2.86-.313.881-.077 1.937-.126 3.12-.155 1.183-.029 2.493-.038 3.865-.11.006-.0001.012-.0001.018-.0001 1.894-.097 3.677-.284 5.165-.609 1.409-.306 2.552-.747 3.296-1.142.745-.394 1.111-.715 1.079-.766"/>
   <path d="m169.45 390.7c.05-.077-.393-.445-1.063-1.062-.67-.617-1.555-1.503-2.412-2.589-.857-1.086-1.526-2.16-1.996-2.949-.47-.79-.754-1.291-.839-1.256-.085.035.047.605.419 1.47.372.865 1 2.02 1.894 3.147.892 1.128 1.872 2 2.639 2.542.767.542 1.307.775 1.357.698"/>
   <path d="m218.56 420.78c-.233.165-1.789-1.478-1.466-4.33.325-2.873 2.079-4.282 2.224-4.172.238.179-.93 1.88-1.236 4.29-.289 2.281.598 4.127.478 4.211"/>
  </g>
  <g stroke="#000" stroke-linejoin="round" stroke-linecap="round" stroke-width=".665">
   <path d="m391.09 199.63c-.179 2.189-.608 4.078-3.182 5.976-2.686 1.98-6.231.859-8.717.308-1.792-.397-4.059-.208-3.657 2.511.398 2.695 1.721 5.506.081 7.24-4.872 5.153-9.512 1.722-11.546-.104-1.69-1.517-2.075-4.7-4.178-5.687-1.281-.601-3.399.038-4.39.978-1.75 1.661.454 5.498-1.165 6.84-2.981 2.471-6.929.354-8.526-.961-2.169-1.786-2.337-4.927-3.733-7.286-1.054-1.782-3.154-1.715-4.13-.799-1.501 1.409.537 4.23-1.294 5.241-1.718.949-4.469.222-6.088-2.195-1.289-1.924-1.745-3.306-3.369-5-.603-.63-1.975-1.257-2.741-.809-.971.567.16 1.518-.973 2.065-.995.48-2.352-.519-2.802-1.631-1.146-2.831-5.439-7.04-8.681-7.58-7.852-1.302-13.228-.157-17.431-.135l-.019-3.678-.019-3.678c4.251-.021 9.641 1.123 17.615.138 3.293-.407 7.869-4.367 9.223-7.12.531-1.081 1.996-2.01 2.984-1.461 1.124.625-.102 1.514.849 2.15.749.501 2.196-.02 2.861-.601 1.793-1.565 2.376-2.904 3.871-4.709 1.878-2.268 4.803-2.733 6.479-1.617 1.786 1.189-.587 3.791.8 5.345.902 1.01 3.03 1.276 4.293-.381 1.678-2.194 2.203-5.278 4.641-6.798 1.795-1.12 6.134-2.757 8.859.082 1.48 1.542-1.263 5.079.29 6.955.879 1.061 2.929 1.957 4.301 1.536 2.253-.691 3.084-3.768 5.01-5.03 2.317-1.518 7.551-4.251 11.646 1.592 1.378 1.966-.383 4.54-1.192 7.142-.816 2.625 1.409 3.179 3.251 3.066 2.556-.157 6.256-.701 8.598 1.686 2.244 2.287 2.358 4.222 2.179 6.412zm-69.16-5.584c1.685-1.29 4.129-3.751 6.081-5.416 1.952-1.665 3.403-2.536 3.064-.666-.208 1.148-3.466 3.502-5.7 6.262 1.42-.047 5.519.147 9.466.373 3.946.226 7.74.48 8.56.451 1.62-1.788 4.727-4.682 7.426-6.757 2.699-2.074 4.981-3.332 4.906-1.878-.105 2.02-6.265 5.396-8.734 8.941 5.496.242 12.861 1.018 13.733.761 1.583-1.601 4.113-4.148 6.27-5.943 2.157-1.795 3.938-2.841 4-1.454.076 1.686-4.829 4.819-6.765 7.681 2.584.15 9.09.796 11.56 2.02-2.627.833-9.147.521-11.723.309 1.514 3.104 5.88 6.911 5.56 8.567-.264 1.363-1.851.069-3.713-2.01-1.862-2.083-4-4.953-5.353-6.754-.828-.372-8.219-.577-13.697-.967 2.041 3.805 7.665 7.913 7.512 9.93-.11 1.451-2.171-.086-4.567-2.468-2.395-2.382-5.133-5.607-6.547-7.56-.81-.118-4.602-.273-8.542-.413-3.941-.14-8.03-.26-9.44-.409 2.022 2.914 5.03 5.526 5.139 6.688.176 1.891-1.164.9-2.953-.91-1.788-1.81-4.03-4.437-5.626-5.833-1.977-.117-6.377-.276-10.263-.513-3.887-.237-7.263-.557-7.187-1.127-.065-.572 3.324-.833 7.227-.918 3.903-.086 8.319.001 10.306.021z"/>
   <path d="m328.05 229.69c2.073.412 5.528.639 8.06 1.03 2.534.391 4.139.928 2.498 1.887-1.01.589-4.911-.346-8.452-.217.664.718 2.076 2.477 3.664 4.533 1.588 2.056 3.35 4.41 4.756 6.288 1.249 1.668 2.211 2.97 2.544 3.344 1.203.052 2.857.217 4.628.487 1.771.27 3.66.647 5.327 1.092 3.334.891 5.771 2.056 4.565 2.87-.838.566-2.886.073-5.261-.481-2.375-.554-5.079-1.163-7.23-1.01 1.624 2.203 3.4 4.88 4.822 7.096 1.422 2.216 2.498 3.966 2.854 4.247 1.996.327 5.069.894 7.652 1.661 3.158.945 5.559 2.156 4.302 3.02-.523.362-1.607.194-2.94-.138-1.333-.332-2.917-.826-4.438-1.154-.997-.214-1.966-.359-2.818-.358.234.392.522.895.836 1.475.732 1.35 1.6 3.117 2.281 4.837.681 1.719 1.176 3.388 1.237 4.512-.828-.762-1.816-2.173-2.803-3.71-.987-1.536-1.975-3.198-2.737-4.5-.327-.56-.612-1.054-.832-1.445-.428.733-.801 1.627-1.15 2.562-.533 1.425-1.017 2.944-1.525 4.159-.508 1.214-1.035 2.125-1.627 2.355-1.421.552-.87-1.798.075-4.781.774-2.445 1.794-5.332 2.425-7.24-.084-.439-1.134-2.175-2.577-4.34-1.443-2.165-3.285-4.751-4.833-6.976-.847 1.978-1.219 4.673-1.634 6.992-.415 2.319-.866 4.261-1.717 4.807-1.224.786-1.151-1.655-.699-4.92.226-1.632.547-3.472.881-5.198.335-1.726.684-3.336.992-4.496-.258-.425-1.213-1.714-2.48-3.349-1.433-1.847-3.252-4.141-4.862-6.164-1.61-2.023-3.01-3.776-3.563-4.575-.895 3.421-.95 7.369-1.764 8.205-1.325 1.361-1.427-.283-1.203-2.797.224-2.514.759-5.909.775-8.01-1.199-1.552-3.952-4.928-6.345-7.948-2.393-3.02-4.421-5.695-3.95-6.03.377-.434 2.847 1.862 5.499 4.689 2.652 2.827 5.474 6.185 6.763 7.678zm-31.654-29.23c1.637 1.64 3.422 3.332 5.168 5.15 1.746 1.818 3.43 3.726 4.91 5.871.242.358.47.726.682 1.104 1.429 2.551.887 4.745.934 7.565.034 2.068 1.396 3.556 2.898 3.631 1.259.063 1.392-1.346 2.03-1.519.99-.269 1.343 1.113 1.338 2.684-.008 2.183-.382 4.09-.729 6.759-.264 2.032.957 4.978 3.072 5.153 2.437.201 1.666-1.275 2.449-1.563 1.072-.394 1.558 1.224 1.536 2.399-.075 3.991-.858 7.233-2.726 10.635-.626 1.141-.285 2.728.502 3.996.787 1.268 2.023 2.222 3.198 2.076 1.146-.142 1.257-2.178 2.303-2.639.609-.268 1.707.527 1.781 1.226.004.047.004.092-.0001.138-.463 3.878-2.899 8.05-3.878 11.706-.348 1.3-.202 2.852.457 3.999.658 1.147 1.832 1.897 3.611 1.633 1.03-.153 1.708-.673 2.285-1.121.577-.448 1.056-.823 1.696-.661.963.244 1.88 1.447 1.894 2.424.018 1.224-.554 2.18-1.11 3.125-.556.945-1.095 1.879-1.061 3.044.013.437.072.909.181 1.393.336 1.48 1.145 3.085 2.592 4.197 1.447 1.112 3.543 1.746 6.5 1.2 1.446-.267 2.725-1.416 3.804-2.612 1.08-1.196 1.959-2.436 2.684-2.787.647-.313 1.557-.076 2.432.381.876.457 1.714 1.135 2.222 1.661 1.066 1.104.985 2.211.831 3.315-.153 1.104-.378 2.206.396 3.401 1.078 1.665 3.043 2.523 5.229 2.832 2.186.309 4.588.059 6.477-.587 1.889-.646 3.945-1.924 5.421-3.623 1.475-1.699 2.366-3.827 1.927-6.05-.315-1.597-1.311-2.374-2.255-3.162-.945-.788-1.837-1.588-2.03-3.292-.092-.812-.112-2.01.041-3.086.153-1.077.482-2.036 1.129-2.349.725-.351 2.308-.134 3.985-.061 1.677.074 3.453.006 4.54-1.037 2.223-2.132 2.794-4.741 2.416-7.244-.379-2.503-1.705-4.881-3.146-6.556-.465-.534-.94-.995-1.395-1.368-1.215-.994-2.402-1.138-3.594-1.25-1.192-.113-2.389-.194-3.64-1.01-.998-.651-1.915-2.319-1.856-3.461.078-1.521 2.173-1.1 3.112-3.109.811-1.735.315-3.487-.754-4.85-1.069-1.363-2.706-2.33-4.171-2.589-4.12-.73-8.999.142-13.03-.67-.047-.001-.094-.024-.14-.044-.672-.28-1.191-1.597-.779-2.123.707-.903 2.757-.407 3.171-1.505.425-1.126-.243-2.653-1.345-3.821-1.102-1.167-2.637-1.972-3.917-1.662-3.817.923-7.22.845-11.226-.015-1.18-.253-2.707-1.096-2.125-2.085.426-.723 1.79.394 1.993-2.117.176-2.18-2.665-4.086-4.77-4.217-2.764-.172-4.742-.12-6.947-.449-1.587-.236-2.938-.773-2.568-1.738.238-.622 1.684-.559 1.733-1.851.059-1.541-1.381-3.155-3.495-3.419-2.883-.36-5.117.013-7.659-1.556-.377-.233-.744-.479-1.102-.737-1.903-1.331-3.423-3.267-4.901-5.317-1.478-2.05-2.949-4.242-4.82-6.136-.416.413-1.776 1.762-2.191 2.175-.416.413-1.776 1.762-2.191 2.175z"/>
   <path d="m334.93 104.31c.209-4.03-1.172-13.295 1.17-10.309.719.916.459 4.714 1.101 8.103 1.691-1.988 10.7-10.604 11.651-11.774-.699-4.62-1.147-16.27.944-14.246 1.453 1.407.304 7.9 1.46 11.964 3.499-3.642 8.481-8.27 8.807-9.05-.524-4.317-1.667-13.754.504-12.03 1.319 1.049.789 6.531 1.796 9.763 1.649-1.711 5.987-5.858 8.371-6.803-.92 2.394-5.02 6.776-6.714 8.443 3.243.974 8.719.386 9.781 1.694 1.748 2.153-7.7 1.109-12.02.631-.775.335-5.35 5.365-8.955 8.902 4.076 1.113 10.556-.104 11.979 1.334 2.046 2.07-9.608 1.744-14.235 1.093-1.16.963-9.681 10.06-11.651 11.774 3.395.606 7.189.306 8.113 1.016 3.01 2.311-6.265 1.027-10.296 1.279-2.64 2.516-11.493 11.434-12.214 10.539-.903-.712 7.921-9.658 10.409-12.325zm-24.956 31.416c3.536-3.574 6.243-8.232 10.608-10.721 2.394-1.365 4.548-.854 7.293-.959 2.01-.077 3.367-1.465 3.312-2.932-.046-1.23-1.426-1.31-1.65-1.924-.348-.954.953-1.339 2.475-1.4 2.114-.085 4 .183 6.635.355 2.01.131 4.746-1.284 4.659-3.359-.101-2.391-1.439-1.525-1.815-2.265-.515-1.012.982-1.604 2.12-1.678 3.863-.25 7.104.201 10.671 1.673 2.393.988 5.985-2 5.339-4.254-.315-1.097-2.298-.98-2.906-1.944-.378-.6.323-1.868 1.034-1.875 3.85-.035 8.342 1.732 12.18 2.01 2.73.2 6.239-1.877 5.071-5.332-.676-2-2.627-2.197-2.544-3.552.062-1.019 1.086-2.229 2.069-2.506 2.466-.696 4.377 1.17 6.788.3 3.254-1.173 7.927-5.653 4.441-11.752-1.468-2.569-6.218-3.048-7.363-4.182-1.021-1.01-.299-3.766.304-5.081 1.266-2.763 4.148-1.301 5.695-3.68 2.156-3.315-.29-8.567-3.128-11.376-2.838-2.808-8.115-5.199-11.408-3.01-2.363 1.572-.87 4.438-3.62 5.733-1.309.617-4.056 1.368-5.078.358-1.145-1.133-1.675-5.878-4.259-7.319-6.135-3.422-10.565 1.298-11.704 4.564-.844 2.421 1.041 4.312.372 6.785-.267.987-1.466 2.023-2.484 2.096-1.355.097-1.572-1.851-3.579-2.506-3.467-1.132-5.507 2.399-5.279 5.127.321 3.835 2.135 8.308 2.141 12.158.0001.711-1.26 1.425-1.864 1.054-.971-.597-.874-2.582-1.974-2.885-2.256-.622-5.21 3-4.197 5.383 1.51 3.551 1.994 6.788 1.785 10.653-.062 1.138-.638 2.642-1.655 2.137-.743-.368.108-1.716-2.284-1.792-2.076-.066-3.462 2.691-3.31 4.694.2 2.631.487 4.516.425 6.631-.045 1.523-.417 2.828-1.374 2.49-.616-.218-.711-1.597-1.941-1.63-1.468-.039-2.841 1.33-2.897 3.343-.076 2.746.457 4.895-.883 7.303-2.442 4.391-7.07 7.147-10.608 10.721.416.412 1.778 1.76 2.195 2.172.416.412 1.778 1.76 2.195 2.172z"/>
  </g>
 </g>
</svg>
