<?xml version="1.0" encoding="UTF-8"?>
<svg width="203mm" height="253mm" version="1.1" viewBox="0 0 203 253" xmlns="http://www.w3.org/2000/svg">
 <title>Wappen von Münster</title>
 <g transform="translate(-6.72873 -38.3601)">
  <path d="m208.229 159.214 9.69302e-6 -119.354h-200l2.52673e-4 120.488" fill="#fd0"/>
  <path d="m8.22904 160.348 6.21352e-5 29.6293c5.55524e-5 26.4903 10.5358 51.8959 29.2894 70.6275 18.7535 18.7316 44.1887 29.255 70.7103 29.2551 26.5216 8e-5 51.957-10.5233 70.7107-29.2549 18.7536-18.7316 29.2894-44.1373 29.2894-70.6277l2.49835e-6 -30.7633" fill="#fff"/>
  <rect x="8.22881" y="119.388" width="200" height="81.6064" fill="#ed1c24" stroke="#000" stroke-miterlimit="12" stroke-width="1.5"/>
  <path d="m8.22879 39.8602 3.87e-4 150.117c6.82916e-5 26.4903 10.5358 51.8959 29.2894 70.6275 18.7535 18.7316 44.1887 29.255 70.7103 29.2551 26.5216 8e-5 51.9571-10.5233 70.7107-29.2549 18.7536-18.7316 29.2894-44.1373 29.2894-70.6277l-6e-5 -150.117z" fill="none" stroke="#000" stroke-linecap="square" stroke-miterlimit="8" stroke-width="3.00011"/>
 </g>
</svg>
