<?xml version="1.0" encoding="UTF-8" standalone="no"?>
<svg xmlns="http://www.w3.org/2000/svg" height="474" viewBox="0 0 445 474" width="445">
 <path d="m375.1 22.871c6.76 1.832 16.8 5.428 20.56 3.01 2.56-1.64 3.52-4.268 3.44-7.836-.48-3.064 1.4-1.892 2.6-.316 12 17.188 19.6 29.412 40 46.04 2.8 2.28 2 2.8-1.6 2.8-24 0-27.2 12.8-27.2 38.8 0 0-6 126.64-8.8 190-1.6 32.84-7.68 53.4-21.52 80.24-12.44 24.08-30.72 43.76-53.16 60.96-24.88 18.8-68.2 35.2-101.52 35.2-40.36 0-82.8-16.4-110.84-37.6-27.36-20.8-51.76-48.24-64.84-82.68-7.48-19.76-9.28-35.28-10.928-59.72l-12.896-191.56c-4.304-28.84-5.504-32.04-23.904-35.24-3.6-.64-3.771-1.12-.8-4 18.484-17.84 26.58-32.736 34.4-43.6 1.2-1.696 2.488-3.624 2.4-.024-.1 4.04 1.208 8.172 4.768 9 2.92.688 7.28-1.072 11.24-2.2 106.4-30.4 221.6-27.6 318.6-1.312v.024z" stroke="#000"/>
 <path d="m20.21 54.5c19.708 7.72 20.556 32.12 20.66 49.4l4.432 183.48c0 22.8 4.52 45.6 13.28 66.68 8.72 21.04 21.6 40.36 37.76 56.52 16.12 16 35.44 29.2 56.48 37.6 21.08 8.8 43.88 13.2 66.68 13.2 22.8 0 45.6-4.4 66.68-13.2 21.04-8.4 40.36-21.6 56.48-37.6 16.16-16.16 29.04-35.48 37.76-56.52 8.76-21.08 13.28-43.88 13.28-66.68l5.2-182c.8-17.24-3-41.32 20-50.92l.8-.28c-75.32-38.4-249.64-74.28-400.4-.2z" fill="#da121a"/>
 <g fill-rule="evenodd">
  <g stroke="#000">
   <path d="m43.845 234.2h351.25c3.575 84.25-11.06 127.03-41.06 163.45-36.629 44.47-89.63 63.822-134.53 63.738-75.67-.141-133.29-49.981-155.89-96.3-19.657-40.29-19.565-75.78-19.768-130.88" fill="#fcdd09"/>
   <g transform="translate(422.5-3.801)" fill="#da121a" stroke-linejoin="round" stroke-linecap="round" stroke-width="2">
    <path d="m-203 238l-.052 71.45 120 107.71c17.01-17.583 23.391-26.642 32.889-42.26z"/>
    <path d="m-26.51 238h-94.49l89.94 80.88c4.212-29.522 4.194-54.15 4.549-80.88z"/>
    <path d="m-203 465.54v-85.14l75.31 67.72c-17.519 9.296-48.39 17.26-75.31 17.425z"/>
   </g>
   <g fill="#da121a" stroke-linejoin="round" stroke-linecap="round" stroke-width="2">
    <path d="m116.67 360.23l-18.395 10.05c-4.161 1.441-11.87-11.965-18.18.642 3.066-.887 7.843-1.963 11.122 3.422-14.974-1.332-13.07 5.317-12.833 9.412 1.191-3.224 2.454-4.223 5.285-2.571 1.935 1.129 5.704-3.108 7.976-2.349-5.079 6.02-7.783 11.718-.428 16.04-1.846-7.749-.274-7.44 3.24-7.68 3.212-.219-.866-6.382 6.386-10.716-.062 6.43 6.06 2.743 3.208 10.05 6-4.278 4.46-7.914.856-12.192l14.972-7.273z"/>
    <path d="m153.55 360.23l18.395 10.05c4.161 1.441 11.87-11.965 18.18.642-3.066-.887-7.843-1.963-11.122 3.422 14.974-1.332 13.07 5.317 12.833 9.412-1.191-3.224-2.454-4.223-5.285-2.571-1.935 1.129-5.704-3.108-7.976-2.349 5.079 6.02 7.783 11.718.428 16.04 1.846-7.749.274-7.44-3.24-7.68-3.212-.219.866-6.382-6.386-10.716.062 6.43-6.06 2.743-3.208 10.05-6-4.278-4.46-7.914-.856-12.192l-14.972-7.273"/>
   </g>
  </g>
  <g stroke-linejoin="round" stroke-linecap="round">
   <path d="m122.69 280.64c-2.696-1.281-4.01-2.908-4.428-4.759 6.742-.845 8.652-4.049 9.97-8.129 3.263-10.1 3.034-17.575-5.378-19.818 2.331-8.642 20.431.243 31.361-3.85 1.671 4.609-7.522 6.227-4.626 12.748 1.964 4.422 5.214 6.094 7.822 5.04-2.391 5.978-8.379 2.246-8.604 7.914-.307 7.73 1.515 8.528 5.903 11.195-2.209 3.55-5.658 3.38-8.964 3.636-.051 1.591 1.242 5.308 3.416 5.726 6.518 2.639 15.577-2.927 19.05-9.643-7.673-5.04-9.888-12.1-2.353-18.438 6.75-5.681 13.644-12.08 20.96-20.601 8.58 7.223 4.716 14.464-1.424 21.493 4.995-1.069 8.492-2.313 13.7-5.903 6.659 8.33 2.114 15.11-7.718 21.17 4.588 2.101 10.638 2.782 17.361 2.567.755 9.543-1.483 17.02-17.11 15.266 6.319 7.672 13.311 10.636 20.17 14.52-9.144 13.463-18.288 8.788-27.431 1.424 8.482 13.852 16.964 23.391 25.446 32.774-11.931 18.978-26.21-4.344-40.36-25.2 1.596 13.986 7.556 20.493 12.992 27.897-12.593 9.54-22.255 2.568-28.575-19.265-.613 6.622-3.417 9.571-7.597 13.296 3.352 7.05 9.254 12.556 17.839 19.389-3.844 1.928-7.26 2.368-10.889 1.497.436 2.86-.36 5.72-2.774 8.58-2.622-3.02-6.74-7.386-9.362-13.775.726 17.586 9.27 30.48 18.4 43.02-3.058 3.794-7.838 5.1-16.02 1.497-1.805 7.148.07 15.428-8.525 20.415-8.594-5.164-6.719-13.444-8.525-20.592-8.178 3.603-12.959 2.297-16.02-1.497 9.129-12.543 17.674-25.437 18.4-43.02-2.622 6.388-6.74 10.751-9.362 13.775-2.414-2.86-3.211-5.72-2.774-8.58-3.63.871-7.05.431-10.889-1.497 8.586-6.832 14.35-12.165 17.703-19.211-3.432-2.977-6.878-6.567-7.597-13.296-6.319 21.832-15.844 28.627-28.438 19.09 5.436-7.405 11.395-13.911 12.992-27.897-14.14 20.852-28.425 44.17-40.36 25.2 8.482-9.383 16.964-18.922 25.446-32.774-9.144 7.364-18.288 12.04-27.431-1.424 6.86-3.885 13.852-6.848 20.17-14.52-15.627 1.756-17.865-5.723-17.11-15.266 6.722.215 12.773-.466 17.361-2.567-9.831-6.06-14.377-12.839-7.718-21.17 5.208 3.59 8.706 4.834 13.7 5.903-6.14-7.03-10-14.27-1.424-21.493 7.317 8.517 14.211 14.92 20.96 20.601 7.535 6.342 5.32 13.394-2.353 18.438 3.471 6.716 12.53 12.282 19.06 9.931z" stroke="#000002"/>
   <path d="m122.85 247.93c-6.264 1.857-6.368 6.159-6.186 9.526 1.704-2.051 3.406-3.573 5.993-1.651 2.209-1.119 5.207-1.365 7.366-.321-.941 1.076-4.242 2.151-6.728 3.149-5.672 2.277-9.891.907-11.978-3.85-4.496 2.781-.133 8.481 4.278 8.02 5.05-.525 11.425-1.658 14.578-4.692-.297 3.273-5.621 6.549-11.156 5.761.338 4.699 6.02 4.763 9.569 2.732 3.095-9.782 1.994-16.584-5.735-18.674z" fill="#da121a" stroke="#000" stroke-width="2"/>
  </g>
  <g fill="#fff" color-rendering="auto" color-interpolation-filters="linearRGB" shape-rendering="auto" image-rendering="auto" color-interpolation="sRGB" color="#000">
   <rect width="34.19" height="14.246" x="117.78" y="297.06" mix-blend-mode="normal" solid-color="#000000" isolation="auto" solid-opacity="1"/>
   <path d="m117.78 322.71h34.19v6.648c0 6.648-9.47 15.348-17.09 15.196-7.624-.153-17.09-8.548-17.09-15.196z" mix-blend-mode="normal" solid-color="#000000" isolation="auto" solid-opacity="1"/>
  </g>
  <path d="m129.11 247.14c.705 3.397 2.866 4.907 4.269 1.036m-5.404-.591c3.434-2.628 6.162 2.457 8.169 1.359" fill="none" stroke="#fff" stroke-linejoin="round" stroke-linecap="round" stroke-width="2"/>
  <path d="m167.96 50.699c-.403-6.385 1.496-11.425 12.685-11.04l26.13 3.774-11.269 21.14z"/>
  <g stroke="#000" stroke-linejoin="round" stroke-linecap="round" stroke-width="2">
   <path d="m43.14 234.2h352.75l1-33.383c-5.604-1.425-17.296-6.709-26.06-6.608-11.266.129-21.828 8.225-33.776 8.201-11.948-.024-27.656-9.114-37.883-8.915-10.228.2-26.22 8.636-39.35 8.488-4.01-.045-7.773.251-11.66-2.725 17.71 1.742 16.405-9.323 11.556-22.775 3.881 6.202 6.515 13.233 6.979 21.708 14.948-.135 16.811-11.662 9.523-30 5.379 7.174 8.943 16.47 10.907 25.348 18.421-2.336 12.979-16.829 5.01-32.61 8.576 10.742 17.1 21.488 18.437 32.787 19.2-1.062 17.913-18.372 2.12-33.854 13.434 7.139 25.04 16.1 32.786 28.915 17.522-12.482 8.603-28.745-18.223-41.09 32.397 7.06 60.669 10.134 56.52-18.15-19.674 4.847-43.11 1.629-64.949 0 52.771-5.193 77.76-18.466 65.52-41.866-17.16 11.12-39.904 18.427-63.859 25.03 39.5-21.957 74.55-44.556 46.772-67.07-9.229 17.802-31.33 34.436-52.739 51.13 21.605-23.669 46.28-48.05 20.319-60.682-11.95 25.87-38.39 50.47-55.978 64.55-7.777 6.227-14.453 10.215-15.814 14.721-2.481 8.219 6.21 17.784 1.899 21.425-6.718 5.672-13.1 9.807-20.79 14.244 2.01-6.489-4.439-12.229-8.714-12.677-13.599-1.424-13.05-19.01-1.351-26.03 19.918-11.955 41.824-21.791 49.01-41.866 5.566-15.56-1.612-31.17-15.73-38.634-13.852-7.32-31.878-6.678-47.905-2.805-10.234-1.457-22.886.547-35.836 7.774-10.11 5.642 4.777 16.459 10.493 10.695 4.647-4.685 8.425.26 12.638-4.055-4.278 4.833-2.55 8.695-8.116 10.262-5.04 1.42-5.467 13.872 1.925 11.939 18.403-4.812 26.943-19.732 35.37-21.1 20.875-3.398 32.87 9.953 30.898 15.841-5.301 15.831-21.729 20.944-35.769 26.384-14.875 5.763-30.19 12.971-39.997 20.664-12.79 10.03-18.554 21.679-17.906 33.811-2.954-4.213-7.274 2.791-9.158 6.239-5.943-5.03-11.1-14.406-7.354-18.458 10.463-11.31 5.16-20.42-4.877-28.12-12.631-9.693-38.18-32.779-48.44-58.664-27.29 11.606-7.192 35.35 19.623 57.854-20.789-13.488-41.809-30.2-56.669-52.42-30.45 23.302 18.02 49.654 42.19 66.918-16.538-5.44-34.468-13.921-52.15-23.345-11.131 31.04 24.355 33.26 51.816 40.445-17.55 1.487-35.735.761-55.56-5.683 2.91 30.711 31.955 26.11 61.65 20.628-34.22 7.02-50.45 17.884-32.676 36.26 7.833-12.346 25.419-17.956 40.11-25.567-22.656 15.03-24.56 26.07-9.356 34.908 5.068-9.933 12.46-17.02 22.02-25.18-9.126 13.06-8.04 26.576 5.775 26.488 3.038-6.874 5.915-14.875 9.49-18-3.476 14.576 1.491 21.599 14.557 21.378-.539-5.03.218-10.84 2.53-17.579 4.04 7.445 8.39 14.89 15.797 22.335-15.01.744-28.465-8.431-42.37-8.134-10.1.215-25.765 8.475-38.38 8.701-11.292.202-26.649-8.227-34.736-8.415-8.09-.188-18.223 2.975-24.78 6.827z" fill="#fff"/>
   <path d="m150.47 66.987c4.709-8.677 26.358-1.32 42.662-5.469-11.514 2.051-27.02 7.902-38.579 9.242-5.884.682-12.379 1.274-15.881-6.338-4.184 8.18.976 14.03 11.344 13.28 15.254-1.103 33.624-13.759 43.11-15.997-8.01 5.736-26.11 12.933-28.738 18.261-3.534 7.16 21.433-7.631 35.18-14.15-7.392-.784-6.267-5.879-9.623-9.243-3.664-3.673-8.764-7.02-12.806-4.496-2.898 1.811-4.413-1.852-7.765-1.541-11.351 1.053-26.24 8.322-18.906 16.45z" fill="#fcdd09"/>
   <g fill="none">
    <path d="m151.91 170.16c.755-1.554 1.51-3.109 2.264-4.27m-13.911-2.069c1.41-2.798 2.82-4.639 4.231-5.02m-14.06-5.841c1.516-1.739 2.657-2.357 3.777-2.912m14.524 4.873c1.309-1.899 2.619-3.326 3.928-4.421m-10.583-3.88c.606-1.037 1.514-1.973 3.323-2.61m226.28 84.22c3.578-.674 7.156-1.335 10.734-.044m-8.919-4.936c2.188-1.077 5.154-.908 7.558-.497m-53.39-16.669c6.754 1.8 13.509 1.727 20.263-.497m-98.01-.258c6.603 1.41 14.568 1.991 20.717.107m22.24 17.21c2.519-1.121 5.04-1.387 7.558-.497m-10.886 6.383c6.25-1.11 12.5-1.144 18.751.559m-95.89.497c4.331-2.62 13.936-2.206 19.356-.497m-15.726-6.143c2.872-.8 5.745-.949 8.617.258m-54.748-18.329c8.444 2.941 17.493 2.396 25.332-.668m105.83-63.09c-.893-1-1.786-1.785-2.679-2.505m-17.877 23.2c-.716-1.686-1.433-2.301-2.149-3.188m-12.513 6.386c.374.32.843.498.671 1.635m-11.06 5.735c-.306-.261-.611-.426-.917-2.066m-13.31 4.527c.658.824 1.39 1.647 1.221 2.471m49.761-22.881c-1.214-2.644-2.722-3.823-4.212-5.087m-156.06 79.64c4.788-1.681 9.576-1.675 14.364-.95m-10.281-5.238c2.771-.478 5.543-.761 8.314-.044m-88.33 6.232c3.225-.871 6.45-1.407 9.676.107m25.11-23.762c8.116 1.994 16.231 1.785 24.347-.648m-56.866 18.719c2.57-.499 5.14-1.051 7.709.409m205.22-87.92c7.59 1.347 12.01-4.36 4.04-10.832 11.09 7.889 18.794-6.787 5.143-9.622 7.542-2.798 8.105-10.808.107-10.726m10.783-7.384c9.07-3.994 13.578 6.246 4.412 11.03 12.401 1.355 10.843 11.659-.409 13.369 10.412 4.578 6.228 15.16-5.463 10.954 8.92 8.659.728 15.197-8.293 9.64 8.254 10.668-4.238 13.07-11.193 8.131 5.56 11.131-4.279 13.77-12.864 6.692 5.107 13.653-6.787 12.09-12.458 6.18.696 9.492-3.1 11.379-11.816 4.936m-85.91-31.994c-4.999-.805-4.253-6.892 0-8.753-11.03 1.01-9.198-14.673 2.118-9.96-4.24-3.247-2.287-9.713 4.538-7.847m-6.806-8.3c-5.535-4.337-15.914-1.101-8.621 6.489-12.303-5.15-15.905 7.769-4.84 12.224-9.655-1.698-13.185 11.1-1.059 12.526-10.08 3.963-2.748 13.817 3.479 10.262-5.122 4.806-2.407 12.563 7.865 7.998-4 6.539 5.088 13.55 9.831 6.187-3.837 11.697 7.731 12.138 8.924 4.527m1.304-14.14c-1.741 10.888-2.928 20.971 2.687 31.859-6.068 2.04-9.115-.744-9.133-8.363-3.57 6.436-13.633 6.976-11.344-6.187-6.179 6.363-18.395 4.661-11.344-7.395-7.505 3.561-19.337 3.626-10.588-9.809-10.617 3.293-15.08-2.902-6.958-10.262-12.246.819-12.301-11.937-.908-12.224-12.171-4.869-10.186-15.193.605-13.28-7.453-10.01-1.268-12.861 5.937-11.728-5.588-9.343 1.47-14.49 13.725-7.89m158.96-6.06c9.791-5.893 22.943-1.016 11.651 10.286 5.214-2.932 17.552 4.141 3.328 11.469 11.99-1.075 14.961 12.203.214 14.756 11.668 2.07 9.875 16.05-2.759 14.09 7.633 7.522.174 15.314-10.303 10.707 5.963 9.79-2.076 17.987-12.598 9.96 5.249 7.213-8.59 17.525-13.273 6.02 2.521 11.56-7.418 12.185-12.778 5.451 5.061 11.718-5.259 10.514-10.676 4.594 2.282 11.659-6.55 12.775-11.636 5.808m99.9-132.15c-1.934 9.755-14.868 24.21-26.388 38.07m57.17-23.491c-5.649 12.279-31.1 30.14-51.819 43.43m61.964-3.784c-13.999 9.847-35.06 15.366-58.743 18.393m55.56 19.832c-9.635 5.682-34.31 2.914-56.959-3.924m28.22 39.1c-3.882-10.216-22.334-19.224-36.676-27.363m6.123 34.747c-2.034-8.541-8.884-17.656-16.01-23.881m-7.883 28.357c-.193-8.148-3.045-14.705-7.511-20.296m-10.908 23.969c.562-6.02-.943-11.719-4.088-17.17m-13.49 18.375c-.852-7-3.113-13.02-6.817-18.02m-.296 25.79c2.215-5.204-1.415-10.409-3.777-15.613m-85.61 5.433c-2.517-6.04-1.3-12.07-1.21-18.11m-21.18 14.488c1.157-6.892 5.533-13.783 9.831-20.675m-36.905 16.299c4.792-9.583 15.902-16.822 25.561-23.693m-54.601 13.733c10.443-12.07 28.904-16.13 44.01-23.543m-61.41-9.206c15.579 5.282 36.3 5.413 54.45-1.056m-55.811-32.597c17.28 9.519 36.01 16.889 54.904 20.373m-52.03-61.57c9.387 20.06 33.628 29.37 50.01 43.919m-16.431-53.28c2.07 11.922 14.267 23.844 25.26 35.767m58.04 87.9c-.432-4.635-.719-7.203-.064-10.829m50.27-12.217c4.367-.63 7.391-1.433 12.693-3.745m-15.366.33c6.283-1.423 11.889-2.846 15.615-4.909m-18.395 1.494c5.169-1.57 10.339-1.68 15.508-5.549m-17.754 1.067c4.19-.776 9.136-1.041 11.551-4.589m-19.14 2.561c3.472-.652 10.46-2 12.62-5.656m-16.791 1.601c2.976-.94 5.964-1.937 8.663-1.494m-8.342-2.988c2.563-.545 5.176-.941 8.02-.64m-8.128-3.735c2.353-.473 4.706-.556 7.06.107m-7.38-4.482c2.678.201 5.305.554 7.7 1.601m-5.03-5.869c2.103.333 3.779.851 5.668 1.921m-3.957-5.976c2.175.527 4.349 1.032 6.524 2.668m-3.315-6.616c1.854.648 3.708 1.774 5.561 3.842m-2.139-7.47c1.648 1.455 3.39 2.862 4.492 4.589m-54.24 28.394c.954 10.421 2.834 19.858 8.03 25.76 4.932-10.661 10.756-18.765 17.967-22.888m27.27-38.523c1.424 1.248 2.911 2.373 4.064 4.162m-1.07-6.723c1.257 1.134 2.792 2.129 3.529 3.522m.963-5.122l3.529 4.055m.321-6.509c1.039 1.316 2.215 2.632 2.995 3.948m1.069-6.189c.856.648 1.711 2.453 2.567 4.162m1.07-6.403c.82 1.185 1.64 1.867 2.46 4.375m1.497-6.403c.713 1.075 1.426 1.921 2.139 3.521m1.39-6.616c1.332 1.666 1.89 2.863 2.246 4.589m1.925-6.083c.856 1.046 1.711 2.169 2.567 4.055m.428-5.976c1.027 1.245 2.092 2.49 2.567 3.735m.642-6.509c.963 2.064 1.925 2.973 2.888 3.628m.107-6.723c.856 1.563 1.711 2.487 2.567 3.201m.749-5.02c.642.85 1.283 1.632 1.925 1.921m-.321-6.083c.927 1.306 1.854 2.138 2.781 2.881m-.856-6.509c.775 1.228 1.721 2.116 2.781 2.775m-.856-5.549c1.355 1.854 2.709 1.934 4.064 2.134m-2.139-5.229c1.041.328 1.804.377 2.567.427m-1.711-4.268c.856.225 1.711.628 2.567.32m-2.353-5.176c.856.382 1.711.288 2.567.107m-34.759-17.501l.107 1.494m-3.636-2.348l.107 1.601m-4.064-2.134l.428 2.028m-5.134-2.241c.582 1.032.495 2.063.535 3.095m-4.813-3.095c.354 1.281.735 2.561.535 3.842m-3.743-2.348c.399.996.598 1.992.428 2.988m-5.454-3.842c1.253 2.475 1.918 4.665 2.139 8.217m-4.278-2.028c.5 1.991.919 4.02.856 6.296m-3.743-2.881c.355 1.046.772 1.593.856 4.802m-3.957-1.707c.826 2.766.255 4.01.321 4.802m-4.171-2.241c.553 1.022.765 2.215.749 3.521m-4.492-.427c.446.559.762 1.443.642 3.415m-4.492-2.348c.455 1.105.816 2.242.428 3.628m-3.405 1.399c.145-1.479-.056-2.729-.766-3.639m-15.392 143.3c12.146-.096 23.12-7.087 34.951-7.281 10-.165 25.748 7.405 42.37 7.598m-85.78-146.08c-1.705-2.132-3.945-.688-2.504.541 1.136.969 5.919-1.016 6.843-4.684"/>
    <path d="m219.5 234v228"/>
   </g>
  </g>
 </g>
 <path d="m37.628 25.759c4.356 8.02 11.476 4.384 22.436 1.448 115.48-30.956 238.32-23.16 322.36.868 11.2 3.196 13.24 4.356 19.28-1.996l18.8 27.704c-75.2-37.24-251.76-69.825-402.4-.12z" fill="#fff" stroke="#000" stroke-width="2"/>
</svg>
