<?xml version="1.0" encoding="utf-8"?>
<!-- Generator: Adobe Illustrator 18.0.0, SVG Export Plug-In . SVG Version: 6.00 Build 0)  -->
<!DOCTYPE svg PUBLIC "-//W3C//DTD SVG 1.1//EN" "http://www.w3.org/Graphics/SVG/1.1/DTD/svg11.dtd" [
	<!ENTITY st0 "fill:#FFFFFF;">
	<!ENTITY st1 "fill:#DA121A;">
	<!ENTITY st2 "fill:none;stroke:#000000;stroke-width:3.5;">
	<!ENTITY st3 "fill:none;stroke:#000000;stroke-width:3.5;stroke-miterlimit:10;">
	<!ENTITY st4 "fill:#0F47AF;stroke:#000000;stroke-width:1.0055;stroke-miterlimit:10;">
	<!ENTITY st5 "fill:none;stroke:#000000;stroke-width:1.958;">
]>
<svg version="1.1" id="Ebene_1" xmlns="http://www.w3.org/2000/svg" xmlns:xlink="http://www.w3.org/1999/xlink" x="0px" y="0px"
	 width="544.25px" height="581.1px" viewBox="0 0 544.25 581.1" style="enable-background:new 0 0 544.25 581.1;"
	 xml:space="preserve">
<path d="M458.834,28.566c8.271,2.24,20.553,6.641,25.154,3.684c3.131-2.006,4.307-5.221,4.209-9.586
	c-0.586-3.75,1.713-2.314,3.18-0.387c14.684,21.029,23.981,35.984,48.94,56.33c3.426,2.789,2.449,3.426-1.957,3.426
	c-29.363,0-33.279,15.66-33.279,47.471c0,0-7.34,154.943-10.766,232.462c-1.957,40.18-9.395,65.336-26.328,98.174
	c-15.223,29.463-37.586,53.541-65.041,74.584c-30.441,23.002-83.443,43.066-124.211,43.066c-49.381,0-101.308-20.064-135.613-46.004
	c-33.474-25.447-63.327-59.02-79.33-101.158c-9.152-24.176-11.354-43.164-13.37-73.066L34.643,123.191
	C29.377,87.906,27.908,83.99,5.396,80.076c-4.406-0.785-4.614-1.371-0.98-4.895c22.616-21.828,32.521-40.053,42.089-53.344
	c1.469-2.076,3.044-4.436,2.937-0.031c-0.122,4.943,1.479,9.998,5.833,11.012c3.573,0.842,8.907-1.311,13.753-2.692
	C199.206-7.066,340.154-3.641,458.834,28.521v0.029V28.566z"/>
<path style="&st0;" d="M24.625,67.266c24.112,9.447,25.149,39.301,25.276,60.441l5.423,224.486c0,27.896,5.531,55.791,16.248,81.584
	c10.669,25.742,26.428,49.379,46.199,69.15c19.723,19.576,43.36,35.725,69.103,46.004c25.79,10.766,53.686,16.15,81.583,16.15
	c27.895,0,55.791-5.385,81.584-16.15c25.742-10.279,49.379-26.428,69.102-46.004c19.773-19.771,35.531-43.408,46.201-69.15
	c10.717-25.793,16.246-53.688,16.246-81.584l6.363-222.673c0.978-21.094-3.672-50.557,24.469-62.301l0.978-0.344
	c-92.152-46.977-305.434-90.881-489.887-0.244L24.625,67.266z"/>
<path style="&st1;" d="M268.457,458.352v56h-138.27c-4.29-3.65-8.43-7.47-12.41-11.42c-13.3-13.29-24.77-28.33-34.1-44.58H268.457z"
	/>
<path style="&st1;" d="M268.457,346.352v56H61.327c-3.98-16.41-6-33.28-6-50.15l-0.14-5.85H268.457z"/>
<polygon style="&st1;" points="268.457,234.352 268.457,290.352 53.837,290.352 52.477,234.352 "/>
<path style="&st1;" d="M268.457,122.352v56H51.127l-1.22-50.64c-0.01-1.73-0.03-3.521-0.06-5.36H268.457z"/>
<path style="&st1;" d="M268.457,13.912v52.44H24.097C104.237,27.102,189.787,13.212,268.457,13.912z"/>
<g>
	<path d="M484.447,122.352c-0.02,2.47-0.06,4.87-0.17,7.17l-3,104.83h-212.82v-112H484.447z"/>
	<path d="M478.077,346.352l-0.17,5.85c0,27.89-5.52,55.79-16.24,81.58c-3.5,8.44-7.54,16.65-12.1,24.57h-181.11v-112H478.077z"/>
</g>
<line style="&st2;" x1="268.457" y1="565.081" x2="268.457" y2="13.912"/>
<line style="&st2;" x1="268.457" y1="66.352" x2="24.107" y2="66.352"/>
<line style="&st2;" x1="268.457" y1="178.352" x2="51.125" y2="178.352"/>
<line style="&st2;" x1="268.457" y1="290.352" x2="53.83" y2="290.352"/>
<line style="&st2;" x1="268.457" y1="402.352" x2="61.333" y2="402.352"/>
<line style="&st2;" x1="268.457" y1="514.352" x2="130.2" y2="514.352"/>
<line style="&st2;" x1="268.457" y1="458.352" x2="83.677" y2="458.352"/>
<line style="&st2;" x1="55.187" y1="346.352" x2="268.457" y2="346.352"/>
<line style="&st3;" x1="52.477" y1="234.352" x2="268.457" y2="234.352"/>
<line style="&st3;" x1="268.457" y1="122.352" x2="49.847" y2="122.352"/>
<g>
	<path d="M362.708,133.683c4.176,1.131,10.375,3.352,12.698,1.86c1.58-1.013,2.174-2.635,2.125-4.839
		c-0.296-1.893,0.865-1.168,1.605-0.195c7.412,10.616,12.105,18.165,24.705,28.436c1.729,1.408,1.236,1.729-0.988,1.729
		c-14.823,0-16.8,7.905-16.8,23.963c0,0-3.705,78.216-5.435,117.348c-0.988,20.283-4.742,32.982-13.291,49.559
		c-7.685,14.873-18.974,27.028-32.833,37.65c-15.367,11.612-42.123,21.74-62.702,21.74c-24.928,0-51.141-10.129-68.458-23.223
		c-16.898-12.846-31.968-29.793-40.046-51.065c-4.62-12.204-5.731-21.789-6.749-36.884l-7.965-118.311
		c-2.658-17.812-3.4-19.789-14.764-21.765c-2.224-0.396-2.329-0.692-0.495-2.471c11.417-11.019,16.417-20.219,21.247-26.928
		c0.741-1.048,1.537-2.239,1.482-0.016c-0.062,2.495,0.746,5.047,2.945,5.559c1.804,0.425,4.496-0.662,6.943-1.359
		c65.715-18.775,136.866-17.046,196.776-0.81v0.015V133.683z"/>
	<path style="&st0;" d="M154.274,135.467c2.69,4.95,7.087,2.707,13.857,0.894c71.323-19.119,147.193-14.307,199.098,0.536
		c6.917,1.974,8.177,2.69,11.907-1.232l11.612,17.11c-46.446-23.964-155.495-46.347-248.534-0.075L154.274,135.467z"/>
	<path style="&st4;" d="M143.517,153.219c12.172,4.769,12.696,19.839,12.76,30.511l2.738,113.322
		c0,14.082,2.792,28.164,8.202,41.184c5.386,12.995,13.341,24.927,23.322,34.907c9.956,9.882,21.889,18.034,34.883,23.223
		c13.019,5.435,27.101,8.153,41.184,8.153c14.081,0,28.164-2.718,41.184-8.153c12.995-5.189,24.927-13.341,34.883-23.223
		c9.982-9.981,17.936-21.913,23.323-34.907c5.41-13.02,8.201-27.102,8.201-41.184l3.212-112.407
		c0.494-10.648-1.854-25.521,12.352-31.45l0.494-0.174c-46.519-23.714-154.184-45.877-247.297-0.123L143.517,153.219z"/>
	<g>
		<polygon style="&st0;" points="350.163,222.664 314.308,282.333 278.452,222.664 314.308,162.994 		"/>
		<path d="M352.468,218.783l-35.82-59.62l-1.46-2.42l-2.33,3.88l-35.83,59.61l-1.45,2.43l1.45,2.42v0.01l35.83,59.61l2.33,3.88
			l1.46-2.42l35.82-59.62l2.33-3.88L352.468,218.783z M314.308,282.273l-35.82-59.61l35.82-59.61l35.82,59.61L314.308,282.273z"/>
		<polygon style="&st0;" points="250.163,222.664 214.308,282.333 178.452,222.664 214.308,162.994 		"/>
		<path d="M252.468,218.783l-35.82-59.62l-1.46-2.42l-2.33,3.88l-35.83,59.61l-1.45,2.43l1.45,2.42v0.01l35.83,59.61l2.33,3.88
			l1.46-2.42l35.82-59.62l2.33-3.88L252.468,218.783z M214.308,282.273l-35.82-59.61l35.82-59.61l35.82,59.61L214.308,282.273z"/>
		<polygon style="&st0;" points="298.604,320.598 262.749,380.268 226.893,320.598 262.749,260.928 		"/>
		<path d="M300.909,316.718l-35.82-59.62l-1.46-2.42l-2.33,3.88l-35.83,59.61l-1.45,2.43l1.45,2.42v0.01l35.83,59.61l2.33,3.88
			l1.46-2.42l35.82-59.62l2.33-3.88L300.909,316.718z M262.749,380.208l-35.82-59.61l35.82-59.61l35.82,59.61L262.749,380.208z"/>
	</g>
</g>
<path style="&st0;" d="M45.934,32.1c5.329,9.807,14.039,5.363,27.449,1.772C214.672-4.004,364.967,5.529,467.789,34.934
	c13.703,3.91,16.199,5.328,23.588-2.441l23.004,33.894c-92.008-47.473-308.029-91.813-492.336-0.148L45.934,32.1z"/>
<path style="&st5;" d="M24.625,67.266c24.112,9.447,25.149,39.301,25.276,60.441l5.423,224.486c0,27.896,5.531,55.791,16.248,81.584
	c10.669,25.742,26.428,49.379,46.199,69.15c19.723,19.576,43.36,35.725,69.103,46.004c25.79,10.766,53.686,16.15,81.583,16.15
	c27.895,0,55.791-5.385,81.584-16.15c25.742-10.279,49.379-26.428,69.102-46.004c19.773-19.771,35.531-43.408,46.201-69.15
	c10.717-25.793,16.246-53.688,16.246-81.584l6.363-222.673c0.978-21.094-3.672-50.557,24.469-62.301l0.978-0.344
	c-92.152-46.977-305.434-90.881-489.887-0.244L24.625,67.266z"/>
<g>
</g>
<g>
</g>
<g>
</g>
<g>
</g>
<g>
</g>
<g>
</g>
</svg>
