<?xml version="1.0" encoding="UTF-8" standalone="no"?>
<svg xmlns="http://www.w3.org/2000/svg" width="606" height="649" viewBox="0 0 606 648.99998" overflow="visible" enable-background="new 0 0 604.784 647.52">
 <path d="m56.899 24.756c-30.22 34.3 115.24-22.269 234.42-23.02 164.37-1.037 249.78 55.976 260.65 24.21l50.805 63.784c-26.78-6.693-40.959 11.813-42.534 55.52-.854 51.582-1.345 98.88-.159 144.86 1.805 69.887 2.254 143.11-27.02 214.93-39.564 82.27-106.07 140.75-228.58 142.22-145.51 1.752-261.59-76.6-259.92-303.57-.315-134.26 11.548-273.55-40.833-253.96z" fill="#0a0400" stroke="#0e0900" stroke-width="2"/>
 <path d="m549.16 231.05c0 0-.613 170.29-7.459 202.61-3.522 20.16-11.07 52.971-31.909 86.09l-.148.382c-37.3 58.63-108.6 117.14-195.82 120.22-120.63 4.259-219.87-29.799-260.75-206.87 0 0-9.124-103.14-2.878-196.89 0 0 15.362-151.78-17.673-154.33 158.15-75.03 361.42-78 544.14.879-14.503 1.615-20.567 11.506-24.25 36.904-2.527 24.817-3.261 110.3-3.261 110.3v.709" fill="#0f47af" transform="translate(.608.732)"/>
 <path d="m115.51 574.07c7.154 4.745 21.22 13.388 28.373 18.14m-41.7-34.788c7.154 4.745 21.22 13.388 28.373 18.14m-38.435-32.949c7.154 4.745 21.22 13.388 28.373 18.14m-35.404-31.22c7.154 4.745 21.22 13.388 28.373 18.14m-31.32-28.15c7.647 5.283 17.322 12.59 24.967 17.872m-29.928-28.28c8.145 5.812 16.287 11.626 24.429 17.438m-30.544-30.353l25.916 19.03m-29.23-28.04c8.609 6.446 17.214 12.886 25.823 19.335m-28.888-28.447c8.573 6.547 17.15 13.09 25.725 19.635m-28.535-28.84c8.543 6.645 17.09 13.289 25.629 19.935m-28.15-29.24c8.513 6.744 17.02 13.492 25.537 20.234m-27.751-29.635c8.48 6.845 16.959 13.69 25.44 20.536m-27.333-30.02c8.445 6.944 16.896 13.888 25.341 20.837m-26.916-30.393c8.417 7.04 16.832 14.09 25.25 21.14m-26.496-30.75c8.385 7.143 16.769 14.291 25.15 21.438m-26.09-31.1c8.351 7.244 16.704 14.489 25.06 21.735m-25.683-31.429c8.318 7.349 16.642 14.696 24.96 22.04m-25.299-31.75c8.291 7.445 16.58 14.89 24.867 22.338m-24.935-32.07c8.258 7.548 16.515 15.09 24.772 22.642m-24.574-32.371c8.226 7.645 16.452 15.294 24.675 22.939m-27.04-35.12c8.19 7.752 19.19 17.949 27.381 25.695m-23.944-32.953c8.165 7.845 16.325 15.692 24.485 23.541m-23.63-33.24c8.13 7.942 16.26 15.892 24.389 23.837m-26.321-121.42c13.984 16.541 24.787 29.729 38.773 46.26m-38.508-60.13c14.965 17.951 26.26 31.848 41.22 49.803m-40.927-63.66c15.948 19.365 27.915 34.2 43.862 53.57m-43.532-67.43c16.928 20.784 29.756 36.787 46.684 57.57m-46.32-71.42c17.909 22.2 31.775 39.598 49.685 61.796m-49.28-75.64c18.891 23.611 33.97 42.635 52.859 66.25m-52.42-80.09c19.871 25.03 36.34 45.91 56.21 70.937m-55.733-84.77c20.852 26.443 38.875 49.41 59.73 75.85m-60.963-91.78c21.833 27.855 43.33 55.23 65.16 83.09m-70.03-105.15c22.815 29.27 52.57 67.26 75.38 96.53m-90.2-129.06c23.794 30.686 70.06 90.31 93.86 121m-87.71-127.51c24.776 32.1 67.761 87.37 92.54 119.47m-84.59-124.53c25.757 33.515 63.772 83.37 89.53 116.89m-79.24-118.36c26.739 34.931 57.689 75.23 84.43 110.17m-74.938-112.88c27.72 36.35 52.647 68.37 80.37 104.72m354.34-111.85c2.083 2.413 4.159 4.825 6.242 7.239-2.083-2.414-4.159-4.826-6.242-7.239zm-17.456-5.087c2.985 3.226 5.975 6.452 8.962 9.676-2.989-3.225-5.976-6.45-8.962-9.676zm-17.499-4.979c3.896 4.04 7.791 8.08 11.685 12.11-3.894-4.04-7.788-8.07-11.685-12.11zm-17.589-4.701c4.8 4.847 9.604 9.696 14.406 14.543-4.802-4.847-9.606-9.697-14.406-14.543zm-17.713-4.275c5.707 5.661 11.42 11.318 17.13 16.979-5.708-5.661-11.421-11.318-17.13-16.979zm-14.861-2.741c6.617 6.471 13.231 12.942 19.848 19.414-6.616-6.472-13.231-12.943-19.848-19.414zm-18.01-5.136c8.709 8.432 16.235 15.713 22.568 21.845-7.521-7.282-15.05-14.564-22.568-21.845zm-18.13-4.522c8.432 8.096 19.01 18.928 27.438 27.02-8.43-8.091-19.01-18.923-27.438-27.02zm-18.238-3.921l32.06 31m-45.41-34.31c10.184 10.157 23.14 23.867 33.32 34.03m-46.743-36.461c11.02 11.413 25.04 26.648 36.06 38.06m-49.5-39.858c11.863 12.667 25.04 27.01 36.897 39.677m-118.95-28.07c17.758 21.452 24.12 29.13 41.871 50.583m-55.54-50.27c18.599 22.708 26.25 32.05 44.848 54.752m-55.2-50.22c19.441 23.963 25.11 30.948 44.551 54.909m-57.62-53.56c20.284 25.21 24.715 30.668 44.997 55.881m-58.22-54.56c21.12 26.468 26.713 33.472 47.837 59.94m-60.989-58.38c21.965 27.724 28.925 36.509 50.892 64.23m-62.65-60.757c22.807 28.981 30.355 38.565 53.16 67.54m-66.15-65.47c23.65 30.23 32.633 41.716 56.28 71.95m-69.42-69.885c24.491 31.486 34.675 44.581 59.17 76.07m-71.23-72.43c25.333 32.742 35.76 46.22 61.1 78.962m-73.64-75.71c26.17 33.999 39.501 51.26 65.68 85.26m-78.72-82.42c27.02 35.25 42.817 55.797 69.834 91.05m-82.58-87.55c27.857 36.51 46.13 60.17 73.99 96.68m-85.15-91.2l76.83 100.89" fill="none" stroke="#000" stroke-linecap="round" stroke-width="2"/>
 <g transform="translate(.608.732)" fill="#fff">
  <path d="m299.94 71.62l-49.941.901v45h50z"/>
  <path d="m350 27.01c-16.667-1.675-33.33-2.33-50-2.023l-.042 46.647 50.04.886"/>
  <path d="m535 357.52v-47.5h-48v47.5z"/>
  <path d="m548.21 310.02h-13.211v-47.5h13.916z"/>
  <path d="m487 310.02v-47.5l-48-.413v46.845z"/>
  <path d="m299.51 309.18l-.075-46.845-47.26.075.075 46.846 47.26-.076"/>
  <path d="m157.15 356.32l-.075-46.845-47.26.075.075 46.845 47.26-.075"/>
  <path d="m109.58 309.64l-.074-46.846-47.26.075.075 46.845 47.26-.074"/>
  <path d="m48.805 356.33l13.652-.007-.074-46.845-14.363.008.785 46.844"/>
  <path d="m300.06 117.62l49.941.901v45h-50z"/>
  <path d="m299.94 457.62l-49.941.901v45h50z"/>
  <path d="m300.06 503.62l49.941.901v45h-50z"/>
  <path d="m299.94 549.62l-49.941.901v45h50z"/>
  <path d="m300.06 595.62l49.941.901v43l-50 2z"/>
 </g>
 <g fill="#da121a">
  <path d="m535.61 263.25v47.5h-48v-47.5z"/>
  <path d="m547.61 358.25h-12v-47.5l13.239-1.489"/>
  <path d="m487.61 310.75v47.5h-47.792l-.208-48.568z"/>
  <path d="m157.8 263.34l.075 47.26-47.26.076-.076-47.25z"/>
  <path d="m110.38 310.59l.076 47.26-47.26.076-.075-47.26z"/>
  <path d="m48.629 310.91l14.56-.008-.076-47.26-13.664.007-.82 47.26"/>
  <path d="m350.61 118.25h-50l-.059-45.901 50.06.901z"/>
  <path d="m300.11 73.29l-49.51-.129v-45.794c16.667-1.531 33.33-1.346 50-1.652z"/>
  <path d="m250.61 164.25h50l.059-45.901-50.06.901z"/>
  <path d="m350.61 504.25h-50l-.059-45.901 50.06.901z"/>
  <path d="m250.61 550.25h50l.059-45.901-50.06.901z"/>
  <path d="m350.61 596.25h-50l-.059-45.901 50.06.901z"/>
  <path d="m250.61 642.25h50l.059-45.901-50.06.901z"/>
 </g>
 <g stroke="#000" stroke-linecap="round">
  <path d="m250.61 596.25h100m-100-46h100m-100-46h100m-100-386h100m-100-45.09l100 .088m0-50v614.62c-33.92 5.091-69.28 4.774-103.56 2.131m53.56-616.75v620m50.34-617.03c-33.448-3.892-66.896-3.296-100.34-.601v615.48c36.01 4.456 71.77.557 107.78-1.319m177.22-376.53v95m-48-95v95m-377-95v95m-48-95v95m-13.195 0h498.22m-499-47.5h500.2m-499.38-47.5h500.08" fill="none" stroke-linejoin="bevel" stroke-width="3"/>
  <path d="m441.14 166.9l-1.362 196.3c-.504 72.65-74.76 118.1-140.99 116.97-66.23-1.131-139.64-45.727-140.13-116.97l-1.344-196.3z" fill="#0f47af" stroke-linejoin="round" stroke-width="5"/>
 </g>
 <path d="m26.695 80.55c52.852-23.725 160.92-60.44 274.57-59 105.9 1.337 234.59 35.09 274.57 56.44l-24.375-38.48c-5.871-5.751 8.11 14.821-34.641 3.848-33.2-8.518-109.07-39.05-212.98-38.27-103.92.788-193.64 27.783-226.14 37.953-22.466 7.03-17.291-4.552-26.61 2.881z" fill="#fff"/>
 <path d="m387.84 360.1c11.32 6.495 29.387 8 38.22-3.14 9.909-13.536.305-28.444-8.844-39.11-3.765-5.343-10.182-9.475-11.732-15.847 3.348-9.483 11.326-5.563 13.13 1.437 6.414-.206 8.524-1.928 3.821-3.126-.218-4.92-5.471-11.612-2.34-8.393 12.524 4.01 12.512-14.13 5.221-12.344 2.073 17.206-28.785-6.286-31.935 12.207-1.063 16.644-21.879-11.426-8.983-15.202 5.953 3.681 19.99-1.01 15.887-6.475-2.112 8.165-14.452-2.674-15.989.632 10.03 1.677 15.777-12.67 2.755-12.242 8.238 10.114-14.542 4.284-16.488 12.747-5.385 1.762.002-17.818 6.29-21.262 6.671-7.093 11.908-13.518 20.258-6.389 4.117-.62 17.329-7.557 13.09 1.581 12.247.508-.762-14.251 12.266-10.954 3.198 4.86-.181 10.338 6.511 2.654-.131-6.087-8.262-5.647-1.963-11.124 1.948-7.05 11.157 5.02 6.6-5.319-13.301-.895 9.419-15.875-5.773-20.2-9.533-2.398 8.664 8.739-4.135 10.276-6.427-.348-13.04-5.783-19.273.192-3.914-3.767-10.811-13.36-17.07-5.671 15.483-1.268-4.475 10.925-5.02 17.696-5.01 6.647 3.794 10.344-5.05 12.928-12.75 8.1-24.532 21.613-21.46 37.905 1.404 21.607 22.766 32.22 38.7 42.659 9.159 6.01 22.774 15.06 20.03 27.575-9.504 19.768-26.567-2.959-33.833-12.707-12.394-16.14-28.09-29.594-42.43-43.641 3.407-3.87 12.381-11.362 4.178-15.755 2.607 12.01-20.914 5.77-9.126-2.811-.384-4.735-1.823-11.784 4.294-5.881.598-4.707 18.521-2.023 10.288-13.987-.472-.984-6.302 12.604-9.769 2.298-2.772-14.7 23.37-15.12 14.897-29.19-4.701-4.478.69 14.03-9.06 6.292-1.348-8.096-5.199-15.99 4.2-20.844.111-7.02-5.308-11.47-3.224-1.69-5.41 4.596-15.805-11.358-8.229-12.897 2.104-6.792-1.252-9.133-4.532-2.792-6.526-5.727-11.605-9.84-20.565-3.962 6.231-5.277-.254-10.53-3.719-3.067-12.177-.55-24.317-1.858-33.942 6.02-8.648-3.483-13.82 3.75-10.02 9.743-1.323 6.262 1.254 15.195 3.992 18.481 2.263-5.109 4.836 4.881 6.395-3.691 6.645-10.826 18.758 4.296 10.637 9.316-10.155-6.604-38.796 4.798-29.591-17.04-18.394-.793-12.844 22.626 2.858 20.629 7.306.327 30.579-5.868 24.771 6.742-5.426 3.17-16.29-8.285-16.85 2.614-4.242-1.824-19.578 8.08-14.756-2.655 3.117-5.562-13.08 4.754-2.464 7.198-6.922 3.204-11.441 1.592-17.08-3.867l-20.21-14.761c-.366-6.438 16.334-5.396 5.451-13.97 2.416-8.471-13.14-17.204-6.07-4.432-11.07-7.06-4.122 18.12-12.824 8.347-2.116-9.531-11.09-15.837-20.95-13.912-8.62.083 12.384 4.862 1.127 5.362-3.725 9.511 11.185 6.855 11.639 15.912 7.356 6.808-9.233 1.326-10.707-1.059-6.582-.265-14.491 12.842-11.909 14.638 4.526-4.664 11.63 6.922 18.1-2.031 9.09 1.102 8.35 6.607 1.611 10.11 2.828 7.372-1.507 7.636-7.309 9.427 9.362 2.817 22.19 3.97 23.24-8.149 11.528-.253-5.082 14.476 8.594 14.05-1.277 8.301-11.51 7.571-14.599 6.176 5.452 11.234 20.69-1.263 19.9 14.15 15.99 12.262-13.308 14.494-10.738 6.439-6.525 11.566 17.237 16.619 23.15 7.31 7.291 9.362-11.322 14.618-16.01 23.38-4.998 7.237-17.18 16.847-17.676 2.265-7.816 2.104-15.547-3.646-20.824 5.704 10.654-8.55 1.938 9.261 13.504 6.136.157 4.632 9.935 3.782-.006 6.213-5.383 2.098-14.466-1.929-14.625 7.128-8.142.097-5.908 15.977.382 7.784 7.01 5.744 19.09-10.948 21-4.03-11.737 5.166-2.159 23.2 1.7 23.353 3.106-5.03 14.281-10.196 8.433-19.545 8.45-9.962 6.273 7.37 17.922 2.267-1.853 13.554 9.263-1.781 5.419-8.348.841-6.756-12.648-5.211-2.435-10.96 9.147-2.594 3.879 12.543 10.987 3.138 3.173-4.386 7.5-3.849 11.581 1.903-5.083 1.417-5.964 2.564.459 5.729 9.04-3.522 2.716-15.347 3.823-18.18 10.222.218 19.413-4.859 27.495-10.691 10.942 8.902 24.886 9.527 37.29 13.621 8.42 4.47 15.648 10.632 2.363 10.158-16.956 2.589-34.04 4.649-50.916 7.565-13.395 3.517-20.14 18.543-18.335 29.633-4.03 5.682-14.04-7.801-7.34 2.03 4.379 9.354 12.146-3.968 14.739 7.04 16.367 11.497-14.14 17.617-22.711 22.481-9.07 1.79-.365-15.302-13.192-8.768-4.686-3.861-14.73-.919-6.04 2.607-11.532 8.01 13.745 10.04 2.802 12.955-6.215 1.892-13.978-1.519-18.319 5.316-4.295 1.976-7.3 15.834-1.826 6.828 5.329-.708 10.174 8.03 15.11-1.705 6.17 5.689 15.306-7.683 8.547 3.294-15.219.641.427 32.989.619 13.401 9.287 6.196 10.281-7.11 7.685-9.909 9.899-9.115 10.358 9.588 18.456 8.478-5.833 16.494 17.282-11.975 2.725-13.673-5.521-11.08 13.47-1.046 10.157 3.256 3.514-4.533 7.577 3.343 9.417-4.506 7.915 1.613-1.995 15.708 6.444 6.323 1.21-5.753 3.165-10.951 8.544-4.621-2.138 6.744-.219 10.148 3.593 2.954-2.92-10.582 25.891-13.942 7.759-17.208 1.212-6.406 10.66-11.921.315-17.472-7.01-15.656 12.558-25.19 24.16-28.405 15.417-4.274-12.409 14.248-1.615 22.537 8.273 5.908 6.835 18.615-2.494 10.11.827 15.619 11.76 1.96 17.07 6.089 7.577 3.683 16.621 11.713 5.426 18.418-5.271 6.354-20.307 20.03-17.535 4.116-6.354-1.736-11.09.572-17.716 1.01-8.993 3.265 11.504.369.617 5.807-3.295 10.264 16.451 2.516 9.365 9.788-9.368-.52-23.483 2.958-20.387 16.902 3.185-6.584 12.765 4.434 16.752-5.763-1.435-5.527 9.63-1.231 9.117-3.511-7.587 6.51-8.475 15.362-.97 23.474-2.386-8.614 18.74-3.728 9.04-14.653 4.517-4.25 7.04-8.791 9.66-.339 4.662 1.87 13.68-3.356 9.168 5.793 9.618-6.915 3.349-17.821-3.601-20.284 4.511-8.276 15.512 7.9 11.53-5.27 4.173 1.903 4.098 11.836 9.6 9.04-2.57-7.07 1.732-12.888 4.173-3.617 5.465 1.99 12.431.442 3.944-2.472-5.104-10.675 18.201 1.169 10.733-5.297-11.643-11.636 25.18-6.994 14.12-22.825 4.369 4.858-11.98 11.97-11.11 1.09 7.831-13.216-24.998-15.11-16.09-27.312 8.279-7.251 14.913-16.777 16.461-27.889" fill="#fcdd09"/>
 <path d="m352.89 454.27c-9.401-.365-3.635 14.09.513 4.586m-37.01 5.474c7.901-5.724 1.875 15.62-.817 3.689zm-17.343-15.536c7.588 6.348-7.669 14.519-3.667 3.583.995-1.335 1.999-2.981 3.667-3.583zm13.806-18.04c-2.867.808-13.905-1.231-5.232-4.632 3.146-1.234 10.444 3.162 5.232 4.632zm-57.55 3.363c-8.374-4.169-7.57 15.322-5.826 9.26 3.739 1.62 6.331-5.968 5.826-9.26zm-37.02 4.591c7.538-8.828 4.128 15.413-.732 4.592.25-1.53.515-3.057.732-4.592zm-15.639-20.611c7.286 3.864-12.35 14.917-4.929 3.03 1.26-1.491 3.186-2.26 4.929-3.03zm18.694-21.17c-.199 6.784-10.128.204-8.05-1.161 2.356-2.264 6.177-1.081 8.05 1.161zm6.842-52.09c-7.168.099-6.3 18.6.487 7.84 1.145-2.529.129-5.325-.487-7.84zm-36.533 16.465c9.121-10.721 7.184 15.522.978 3.363m-16.773-24.411c8.05 6.637-12.804 16.964-5.897 4.163 2.211-2.075 5.056-5.352 5.897-4.163zm11.729-22.356c-1.206 7.096-18.722 2.654-7.928-1.53 1.85.133 6.367.586 7.928 1.53zm1.068-70.31c13.216 2.858-11.1 6.97-6.812 1.811 2.277-.611 4.914-.585 6.813-2.179m-15.92-23.874c5.189 5.704-11.07 13.706-4.723 3.464.891-1.875 2.861-2.855 4.723-3.464zm44.39-15.213c-9.114 1.568-6.816-15.323-2.12-7.752 1.829 2.949 3.377 4.662 2.12 7.752zm-29.816-8.04c-.552 9.38-13.174-2.973-10.169-2.303 3.601-1.479 7.313.023 10.169 2.303z" fill="#da121a" stroke="#000" stroke-linejoin="round" stroke-linecap="round" stroke-width="1.5"/>
 <path d="m255.42 206.01c-.941 3.438-2.782 11.351.605 13.25 1.645.793 3.982.715 8.395.875 4.415.157 9.953-.557 11.597-.16 6.378 1.71 9.743 3.608 9.743 3.608 0 0 1.495-3.45 1.323-4.879-.579-5.627-.408-6.388-4.661-9.68 0 0 4.415-1.112 6.75.078 2.338 1.191 4.761 4.365 5.538 5.873.78 1.507 1.904 5.555 1.732 7.06-.173 1.508-.951 6.823-2.683 8.41-1.732 1.587-6.839 3.651-9 3.968-2.161.316-9.152-1.518-9.152-1.518 0 0 8.52 2.498 9.126-1.55.606-4.046-1.963-4.947-1.963-4.947-6.551-2.993-14.12-.002-20.785.413-7.903.492-19.1-4.059-19.373-9.777.467-7.904 5.928-10.457 12.81-11.03" fill="#ee1c23"/>
 <g stroke="#000" stroke-linejoin="round" stroke-linecap="round">
  <g fill="none">
   <path d="m387.24 359.37c11.984 4.676 30.559 8.571 38.22-3.14 3.371-5.152 5.827-15.422 3.171-20.778-5.453-10.996-13.425-19.964-21.363-29.13 0 0-4.963-3.84-.69-8.131 4.272-4.29 6.34-3.5 8.133-2.031 1.79 1.467-.689 4.968 3.306 6.549 3.998 1.581 7.856-4.179 7.856-4.179-9.51.961-.809-4.228-8.822-8.244 5.461 1.335 14.705.638 13.507-6.776-.402-2.486-6.614-5.759-6.614-5.759 1.899 14.849-10.769 5.996-18.19 5.76-6.771-.215-9.921 1.243-11.715 4.629-1.791 3.389-3.168 9.487-3.168 9.487 0 0-8.271-5.533-9.926-9.824-1.653-4.292-1.626-9.02.856-10.03 8.236-2.848 20.471 2.948 17.612-8.715-6.8 7.613-11.843.326-16.675 1.017 10.01-.73 19.2-9.866 3.72-12.309 7.795 9.65-8.837 4.686-12.817 8.921-2.155 2.293-5.79 5.873-5.79 5.873 0 0-1.377-13.438 6.892-21.794 8.27-8.356 13.78-12.309 13.78-12.309 0 0 2.346 4.629 7.996 4.405 4.366-.14 11.416-5.485 13.92-2.372 1.653 2.372-.827 3.953-.827 3.953 0 0 5.376-.452 6.616-3.274 1.238-2.824-2.342-4.969-2.342-4.969 0 0 4.685-5.083 7.992-2.711 3.309 2.371 1.102 7.227 1.102 7.227 0 0 7.03-4.289 5.789-6.549-1.24-2.258-6.202-4.97-6.202-4.97 0 0 3.601-1.312 3.859-4.178.405-4.493 5.511-2.313 7.168.453.586-5.31-.836-7.996-6.892-8.583 8.05-6.517 8.152-19.02-3.857-16.938 1.548.546 4.149 2.178 4.513 3.02 1.776 4.866-3.523 8.782-8.091 6.918-3.137-1.28-5.848-4.257-9.44-2.686-2.171.949-4.217 1.403-5.982 2.76-.582-1.725-1.327-3.098-2.554-4.126-.708-.593-2.301.739-2.925.21-1.394-1.182-1.715-3.959-3.38-4.511-4.244-1.406-6.095.216-8.213 2.756 2.895-.013 6.603-1.23 6.571 1.419-.048 3.943-5.488 6.516-7.92 8.917-1.864 1.84-4.429 6.991-4.04 9.07.281 1.497-2.054 3.535-1.928 5.501.19 1.548.857 2.263 3 2.146 0 0-24.531 13.212-26.873 29.924-2.346 16.712 3.169 28.01 12.542 36.25 9.37 8.243 31.15 21.23 31.15 21.23 0 0 16.401 12.535 15.438 21.12-.967 8.582-10.398 17.515-21.01 5.995-10.277-11.156-22.18-26.01-25.521-29.533-6.346-6.682-13.13-13.06-19.835-19.439-2.157-2.054-4.321-4.114-6.55-6.108-1.894-1.69-6.03-3.382-3.225-5.885 6.582-5.873 7.921-8.501 3.306-13.939 1.37 5.259-3.552 6.854-7.644 6.869-2.51.009-3.374-1.032-4.317-2.953-.649-1.324-.879-2.553.136-3.745.801-.937 2.688-1.628 2.699-2.982-1.839-3.215 1.739-5.085-.632-8.674 7.223 3.54 5.859 5.891 5.607-.455 8.829 5.308 14.381-6.16 10.244-10.258l-2.106-1.589c0 0 .868 4.315-.991 6.133-1.859 1.816-7.968.981-7.309-2.727.695-3.911 3.472-11.184 5.079-11.926 3.819-1.764 14.302-8.732 11.769-13.857-3.157-6.387-4.461-4.316-4.461-4.316 2.12 9.907-7.524 9.237-7.308 5.566 1.123-5.4-4.203-12.369.124-14.539 1.735-.796 8.175-4.09 3.221-10.904-4.956-6.815.373 2.84-1.609 4.545-1.983 1.703-5.452 2.382-6.318-.343-.869-2.727-1.24-4.316-2.727-4.996-1.487-.682.495-3.862-2.478-4.203-2.973-.34 4.464-1.932 4.335-5.907-.122-3.974-2.601-5.109-2.601-5.109 0 0 .991.567-.246 2.839-1.24 2.271-4.088 2.954-5.821.567-1.735-2.384-.746-2.725-2.479-4.202-1.734-1.476-4.215 1.25-4.215 1.25 0 0 .498-2.614-2.6-3.069-3.095-.452-8.176 3.522-8.176 3.522 0 0 3.221-1.931 2.973-4.429-.249-2.5-2.85-3.409-2.85-3.409 0 0 .989 3.635-3.842 4.771-4.829 1.137-11.643-.909-15.856-.568-4.209.342-8.424-.567-10.53 2.045-2.104 2.613-2.972 4.203-7.556 4.544-4.717.182-11.937.05-11.892 4.657.21 1.887 3.079 2.693 2.476 4.201-.612 1.532-2.024 6.595-1.61 7.724.712 1.942 2.479 3.861 2.479 3.861 0 0-.87 1.932.122 4.544.991 2.614 2.355 4.089 2.355 4.089 0 0-.125-1.476.744-2.386.867-.907 1.732-.455 1.732-.455 0 0-.122 1.705 1.24 2.5 1.361.795.99-2.271 2.725-4.202 1.062-3.217 5.352-2.327 6.442-3.749 1.114-1.59 5.448 1.363 5.823 3.749.633 3.702 2.01 5.872-.869 9.88 0 0-3.987-4.092-12.884-3.407-17.579 1.353-21.08-4.215-17.466-14.197-10.562 2.16-16.464 9.566-7.804 16.924 8.593 7.31 19.05 1.017 27.999 2.271 3.48.488 8.05 1.25 9.04 3.067.991 1.815.125 3.861-1.61 5.109-1.738 1.25-5.701 1.137-7.434-.452-1.735-1.592-4.335-3.636-7.806-.911-3.466 2.727-1.61 3.977-1.61 3.977 0 0-5.202-1.932-7.928 1.362-2.725 3.293-8.547 1.022-8.423-.907.125-1.933 3.097-4.771 3.097-4.771 0 0-8.302 1.137-7.433 4.883.866 3.748 3.467 3.976 3.467 3.976 0 0-3.342-.682-5.075.568-1.735 1.249-2.975 2.158-2.975 2.158l-29.24-21.354c0 0-.247-2.952.744-3.748.991-.795 5.574-.567 6.813-1.702 1.237-1.136 2.228-3.75.372-5.794-1.86-2.045-2.478-2.726-2.478-2.726 0 0 1.486-3.861-1.239-7.156-2.725-3.292-7.679-4.43-7.679-4.43 0 0 2.104 1.023 2.601 3.521.493 2.499.247 3.633.247 3.633 0 0-3.717-2.611-5.328-.454-1.61 2.159-2.601 2.841-2.355 5.224.249 2.386.745 3.294.745 3.294 0 0-.745-.68-1.486 1.25-.741 1.93-.869 2.271-.869 2.271l-4.211-3.861-1.24-3.748c0 0-.493-3.749-2.475-5.112-1.98-1.363-2.849-2.613-4.584-2.499-1.735.113-2.106-.114-2.106-.114 0 0-1.979-1.93-4.83-2.384-2.853-.454-7.93 1.477-7.93 1.477 0 0 3.716.453 5.451 1.703 1.735 1.248 2.23 2.27 2.23 2.27 0 0-4.09-.68-4.582 1.818-.498 2.499.62 4.317 2.847 5.907 2.231 1.59 6.071 1.363 6.071 1.363 0 0-.124 2.272 1.982 5.225 2.106 2.952 4.953 5.339 4.953 5.339l-6.813-.229c0 0-.372-1.25-1.982-2.159-1.611-.909-2.85.681-2.85.681 0 0-.496-2.498-2.353-2.611-1.856-.112-4.336.114-5.327 1.704-.993 1.59-1.488 3.522-1.488 3.522 0 0-3.468 1.362-4.459 3.292-.994 1.931-1.735 7.27-1.735 7.27 0 0 1.982-2.158 2.851-2.727.868-.568 1.98-1.023 1.98-1.023 0 0 1.363 4.318 5.702 4.091 4.333-.227 8.669-3.522 8.669-3.522 0 0 10.283 2.612 7.311 5.681-2.975 3.066-4.09.566-5.7 4.428-1.611 3.863.742 5.793.742 5.793-1.877 1.035-5.083 1.362-8.05 3.634 3.458 3.326 7.505 3.496 11.891 1.021 0 0 5.328 2.386 7.682-.455 2.355-2.837 1.735-7.04 1.735-7.04 0 0 3.221-4.314 5.823-.454 2.601 3.861.99 4.088-.496 5.111-1.488 1.021-2.106 3.18 0 5.679 2.105 2.498 5.203 2.043 5.203 2.043-5.467 8.124-6.12 8.801-14.866 5.225 0 0 1.237 6.02 5.947 6.701 4.707.681 9.663-2.157 9.663-2.157 0 0-1.116 2.043 2.354 4.089 3.468 2.044.496 2.157.618 2.952.125.794.744 3.634 2.972 4.43 2.23.794 4.212 5.792 4.212 5.792 0 0-3.592 6.136-8.175 5.565-6.167-1.134-7.928-1.169-5.575-7.04 0 0-5.452 1.477-4.334 5.225 1.113 3.748 4.707 6.702 7.804 7.27 3.096.567 7.06 1.703 11.396-.229 4.335-1.931 5.701-3.749 5.701-3.749 1.304 2.839 3.453 4.262 1.486 6.134-3.519 3.35-27.378 27.15-27.378 27.15 0 0-6.128 1.766-5.947-1.022.382-5.901-6.201-7.909-10.654-4.77-5.979-4.069-9.64-2.549-12.01 3.861 2.787-1.047 5.162-1.503 7.807-.681-3.194 5.274-.891 7.895 5.697 6.817-.051 3.051 1.55 3.038 5.324 4.201 0 0-5.482 2.346-6.564 2.954-3.582 2.01-7.843-2.356-10.78.454-2.352 2.498-1.61 5.452-1.61 5.452-3.86 3.03-7.549 4.415-5.201 11.471 0 0 1.98-3.976 4.582-3.407 2.604.568 4.956 2.839 7.806.682 2.851-2.159 5.327-5.339 5.327-5.339 3.183.745 5.614 1 8.548-1.816.889 4.582-7.125 7.467-7.06 10.902.044 2.39 2.726 8.292 2.726 8.292.694 3.583 1.278 8.858 6.317 7.837-2.168-3.131-1.4-4.224 2.6-4.997 5.185-1 8.235-5.667 4.213-15.334l7.186-4.884c0 0-.619 4.884 2.726 6.359 3.345 1.478 8.67.343 8.67.343 1.369 2.505 1.107 3.637-.247 6.475 5.339-1.757 8.07-6 5.077-12.494.399-4.768 1.173-8.759-5.947-7.952 5.649-6.765 10.453-7.63 10.529 1.59 3.216-3.929 8.289-4.59 7.309-6.36-.096-2.224 11.333 2.824 8.177 5.563-1.735 1.364-4.735 1.413-4.735 1.413 0 0 3.191 4.736 7.09 2.564 8.3-4.624 4.396-10.577.99-17.378 3.49.318 6.807.273 10.159-.909 9.229-3.255 18.927-9.924 18.927-9.924 0 0 19.552 12.265 27.01 10.615 7.462-1.651 22.12 11.793 22.12 11.793-19.779 2.86-47.711 5.466-59.34 8.58-8.615 2.307-18.812 12.505-19.381 20.62-.249 5.679 1.735 7.154 1.735 7.154-3.895 4.184-6.298 2.039-11.894-.341 1.575 5.772 6.573 12.386 13.255 5.68 3.101 4.867 6.813 8.926 11.03 12.834-9.307 8.04-19.853 11.706-31.342 16.355l-3.592-3.633c0 0 2.604-3.184.62-5.566-1.981-2.386-9.538 0-9.538 0 0 0-1.116-2.954-4.337-2.726-3.218.226-5.327 2.951-5.327 2.951 0 0 5.452-.908 4.832 2.046-3.357 4.765-2.121 9.541 4.832 8.631-.574 2.893-.716 2.369 1.856 3.408-3.767 1.286-8.02.286-8.918 3.067-4.488-2.169-10.677-4.202-12.02 3.295-4.131 1.287-6.22 4.511-6.068 10.789 1.648-3.438 2.684-4.365 6.564-4.771 3.571 2.658 7.233 5.02 11.52-1.024 5.406 2.734 7.06 1.615 11.769-2.612-1.285 7.224-7.641 6.38-9.786 10.11-1.735 3.292 1.608 8.177 1.608 8.177-.623 5.905-.215 4.41 4.71 8.859-1.361-3.481-1.312-4.797.865-7.839 0 0 2.355 2.271 5.698 1.253 3.345-1.024 4.212-4.316 3.841-6.02-.371-1.704-3.221-4.315-3.221-4.315l5.452-3.296c0 0 5.327-1.137 5.448 2.159.125 3.294 1.984 6.475 3.841 7.383 1.86.909 4.71 0 4.71 0 .983 3.01-.978 4.934-1.24 7.836 5.206-1.415 8.152-5.758 6.938-10.562 0 0 4.46-3.295 2.106-6.134-2.355-2.839-4.708-3.407-4.708-3.407l-2.229-2.953c0 0 1.735-3.068 5.451-2.613 3.714.457 5.947 3.408 5.698 5.566-.247 2.157-.125 4.089-.125 4.089l4.832-2.955 1.365 1.933c0 0 2.723-.454 3.218-1.59.496-1.136 1.364-2.727 1.364-2.727 0 0 4.336 2.614 3.715 4.543-.617 1.931-1.609 5.565-1.609 5.565 0 0 4.584-2.838 5.699-6.134 1.116-3.292.249-5.337.249-5.337 0 0 6.071.227 6.934 3.065.869 2.84-1.732 7.725-1.732 7.725 0 0 5.203-1.477 5.325-4.771.127-3.294.869-6.36.869-6.36 0 0 2.972-.341 4.582-1.704 1.612-1.364 2.106-2.727 2.106-2.727 0 0 1.614.568 4.339-1.476 2.724-2.044 3.097-3.862 3.097-3.862 0 0-1.361 2.386-5.331.568-3.962-1.818-1.607-5.564-.37-6.248 1.24-.681 3.841-4.202 3.841-4.202 0 0 1.487-2.953-1.859-5.11-3.343-2.157-6.466-7.501-4.334-13.176 3.999-10.648 17.461-14.857 27-19.649 0 0 5.7-1.021 3.596 3.181-2.107 4.201-8.548 6.928-8.674 13.288-.121 6.361 5.701 13.06 5.701 13.06 0 0 4.427 3.657 2.075 5.702-4.126 2.936-6.155 1.227-8.519-1.728-.68 7.595 7.615 12.821 13.752 3.863l8.794 5.907c0 0 8.922 4.088 4.461 9.768-4.461 5.679-16.849 16.469-16.849 16.469 0 0-4.087 2.726-5.201-.341.729-6.387-.825-10.189-9.166-5.681-3.228-3.693-7.734-3.365-11.522 1.705 0 0 6.687-1.705 6.812.682-3.358 3.899-3.689 12.1 6.194 8.06l2.477 2.841-3.095 2.386c-2.769-.679-5.49-1.569-7.06 1.703 0 0-2.852-2.271-4.959-1.703-2.104.565-4.706 5.677-4.706 5.677 0 0-3.096.683-3.47 3.522-.37 2.839.374 7.267.374 7.267 0 0 1.239-3.518 3.466-3.292 2.231.227.743 2.498 3.221 2.839 2.478.342 8.299-2.726 8.299-2.726 0 0 3.84-4.884 2.604-6.02-1.24-1.136.616 2.727 3.219 1.932 2.601-.795 5.824-3.409 5.824-3.409-1.742 6.531-7.274 6.432-7.681 10.676-.251 4.317.492 7.384.492 7.384.75 2.525 1.491 5.778 5.454 6.816 0 0-.868-5.225 1.608-4.771 6.75 1 12.945-4.461 7.435-9.882l6.563-6.132c0 0 0 4.201 3.097 5.793 3.581 1.984 10.03-1.255 10.16.681 0 2.043-.992 5.112-.992 5.112 4.844-3.49 7.831-7.697 5.328-13.859-.992-1.931-9.663-5.564-9.663-5.564 3.466-2.803 5.479-8.795 11.52.568 1.862-2.556 2.297-3.768.744-6.699 5.679 4.02 1.632 8.844 9.413 9.652-.917-1.077-.338-6.452.5-10.223 3.516 9.606 11.698 8.632 10.423 6.392-1.468-2.579-2.993-2.371-2.62-7.527 6.394-1.67 7.571 5.393 13.502-.113-3.52-.224-7.857-3.206-5.078-7.383 4.48-.219 6.744-.368 9.663-4.089 6.984-.721 12.571-5.238 6.069-12.718-1.865 13.812-12.03 5.114-10.405 1.928 1.362-2.272 3.345-6.927-1.86-9.54-7.142-3.849-13.366-8.139-16.971-15.448 0 0 7.804-6.02 13.01-13.97 5.208-7.952 6.198-16.243 6.198-16.243z" stroke-width="3" transform="translate(.608.732)"/>
   <path d="m226.2 248.94c-5.253 7.154 4.618 9.847 8.07 6.693 0 0-10.699 5.663-8.492 10.82m15.772-24.471c0 0-3.528 1.819-5.734 5.156-2.207 3.337-3.31 7.484-8.05 6.069-4.742-1.417-1.544-4.854.444-5.361m-5.919 35.902c0 0 1.063-.708 1.723-7.18.663-6.472-1.433-8.696 4.083-11.833m-19.414 28.22c0 0 21.13-.72 25.636-18.61-1.615 10.129 3.555 16.63 1.705 24.15-.886-.363 12.835-4.715 17.704-9.07 4.869-4.352 4.425-6.89 4.425-6.89 0 0 0 10.878 6.197 14.506 6.197 3.627 9.294 4.351 9.294 4.351 0 0 1.77-10.516 8.41-14.14 14.165 6.89 2.656 15.595 2.656 15.595 0 0 5.754-.363 11.952-4.715 6.196-4.352 8.851-15.594 8.851-15.594 11.509 18.857 33.1 3.499 33.1 3.499" stroke-width="2"/>
  </g>
  <g fill="#fff">
   <path d="m272.11 218.78c.241-1.562 3.503-3.685 3.661-6.532 0 0-6.143-.326-6.276 2.692"/>
   <path d="m272.53 211.8c-3.963 1.948-1.431 4.369-4.08 7.607-2.791-3.427-2.616-6.333-2.767-10.622 0 0 4.74 3.379 6.847 3.01z"/>
  </g>
  <g fill="none">
   <path d="m275.23 211.03c0 0-8.457 2.671-3.386 7.32"/>
   <path d="m266.02 209.27c0 0-2.136 5.073 2.175 9.02"/>
  </g>
  <g stroke-width="1.5">
   <path d="m291.15 191.54c-1.064.626-.754 5.06-.002 5.969 1.321 1.597 5.812 1.153 6.804-.313z" fill="#fff"/>
   <g fill="#fd0">
    <path d="m222.1 366.98v23.21l11.166-7.977v-22.847z"/>
    <path d="m186.06 389.77v23.21l11.167-7.979v-22.848z"/>
    <path d="m264.4 445.61v23.21l11.166-7.978v-22.846z"/>
    <path d="m365.83 183.76v23.21l11.165-7.979v-22.846z"/>
    <path d="m230 184.07v23.21l11.166-7.978v-22.846z"/>
    <path d="m174.52 278.58v23.21l11.166-7.978v-22.846z"/>
    <path d="m418.26 253.45v23.21l11.165-7.979v-22.846z"/>
    <path d="m401.29 380.64v23.21l11.164-7.979v-22.846z"/>
   </g>
  </g>
 </g>
 <g transform="translate(.608.732)">
  <path d="m389.86 220.89c-1.544.294-3.797 1.501-3.347 3.434m.698 1.932c-2.204-1.253-5.27 3.755-3.658 4.928m37.827-20.06c-2.147-.025-4.904 2.55-5.934 4.492m-3.968 9.139c-2.293-.803-3.803.81-5.02 2.468m7.393-.43c-1.012 2.831-4.226 5.064-7.252 4.293m3.347 1.396c-.834 2.188-4.082 3.259-6.138 2.254m.559 2.682c-1.219 1.887-4.797.525-6.417-.214m20.07 52.845c-4.191-1.738-8.443-1.329-11.847 1.889m-22.01-21.905c-4.303.528-7 2.838-9.123 4.552m21.07-34.623c-6.202-.586-3.808-10.546-11.886-3.819-11.86 9.876-25.864 22.627-21.526 38.2 3.171 11.382 15.02 18.393 24.09 25.975 4.02 3.36 9.218 5.4 13.13 8.05m-121.15 4.274c3.829-2.044 10.86-6.077 7.84-11.242m58.43 47.871c5.229-4.01 7.456-11.01 6.64-17.408m-146.47-79.951c1.72.708 4.303.915 5.623-.68m56.34-19.527c4.164 6.657 12.883 9.258 20.14 6.515m-5.235-11.436c4.138 1.744 5.412 3.494 6.407 5.752m-3.83-10.967c3.055 2.204 7.121 4.02 8.736 7.598m23.09-18.708c1.825-1.202 6.191.113 6.382 2.462m-1.745 56.892c4.375 1.738 4.727 8.091 4.482 12.219m-5.088-9.344c.962 2.375 2.469 4.932 2.447 7.497m-8.158-9.14c4.076 3.436 5.239 7.766 5.375 12.939m-21.17-7.702c.008 1.756-1.864 2.649-2.463 4.106m-.113-5.544c-1.897 2.32-4.776 4.72-5.488 7.702m-5.487-5.34c-.507 1.082-1.267 1.961-2.02 2.876m-1.121-4.827c.289 1.771-3.088 1.715-1.568 4.211m.224-7.086c-2.247 3.057-3.889 7.04-6.385 10.06m4.03-14.993c-3.083.603-5.725 2.291-6.833 5.341m3.807 1.436c-2.255 1.94-5.288 3.283-5.935 6.468m-3.246-7.29c-1.271 2.476-4.071 3.877-4.593 6.882m3.585-12.222c.094 2.254-3.644 2.518-3.471 4.93m4.366-11.09c-2.875-.951-7.923.797-8.625 3.903m-5.376 1.335c-1.118 1.079-4.352 2.49-3.584 5.238m-3.36-1.234c-.182 1.374-1.077 2.824 0 4.108m12.433-29.678c-3.783.087-8.06 3.049-8.96 6.779m42.49-14.537l-.663.1m3.31-3.437l-1.171.216-1.147.188m7.39-6.068c.084 1.95-2.202 1.124-3.198 1.921m5.295-6.977l-.89.85-1.206.667m3.2-7.383l-1.022 1.249-1.295 1.077m8.494-9.911c1.171 1.294.995 3.309 2.754 4.248m16.11-3.743c1.643.415 1.118 3.204 2.427 3.946 1.998 1.132 2.507 4.045 2.977 5.864m-7.94-3.439c3.162 1.214 5.41 5.467 6.508 8.497m-5.407-3.036c.233 2.493 3.733 3.504 3.088 6.473m-15.222-10.922c2.997 1.541 7.751 3.455 8.368 7.113m-3.733-.134c1.192.284 1.941 1.451 2.316 2.528m-3.861 2.832c.806.843 2.465 1.674 2.314 3.136m-4.41 1.92c1.556.794 1.551 2.911 1.545 4.348m31.19-4.573c-4.254 1.671-8.32-2.272-9.678-5.742m5.626 7.852c-3.416 2.056-6.084-.684-8.06-3.2m-8.05-3.844c2.708 1.469 2.926 4.988 3.089 7.687m9.378 4.249c-.352-1.521-2.087-2.244-2.871-3.439m.33 12.338c2.612-3.317-1.064-7.299-2.756-10.113m-5.185 22.755c1.039 1.675.164 4.01-1.544 4.854m-.883-8.596c.564 1.271 1.322 3.444-.109 4.551m5.736-5.723c-1.878-1.225-3.73-1.629-4.635-3.784m10.685 3.371c-2.688-.881-5.328-3.193-7.154-5.394m-5.737-7.283c.806.911-.499 2.296-.107 3.236m-2.762-14.662c3.973 1.738 6.543 8.02 6.4 12.439m-6.95.81c.925.807 2.844 3.902 2.65 5.863m-4.303-.202c-.468 1.287.489 3.666-.883 4.957m-13.13-16.889c1.942.747 3.01 3.754 1.877 5.563m-.885-8.598c4.816-.647 7.04 7.22 2.981 9.204m-19.967 2.731c1.589-.638 3.445 3.216 1.985 4.247m1.878-7.484c1.863.637 4.376 1.757 3.639 4.247m-.663 9.911c.589 1.126.586 2.116.552 3.338m3.199-6.776c1.643.211 3.314 4.059 1.213 4.652m7.171-.507c-.874 1.189-1.745 3.354-3.642 3.237m9.265-13.146c1.374 4.372 3.697 11.916-3.197 13.147m-46.11-29.834c2.398-.04 3.685 2.44 4.082 4.45m-58.13 25.688c.616-2.63 1.955-5.299 4.413-6.675m-.331 11.528c1.656-1.668 2.263-4.051 2.757-6.269m1.324 14.158c-2.417-2.254-.93-5.896.995-7.889m55.33-63.28c1.956-1.574 4.3-2.288 6.721-2.366m52.52-4.962l-2.429-.474-1.827-.143m-3.582 1.541c.667 1.328 2.308 1.663 2.912 2.978m-7.671 1.232c.909.39 5.249.423 5.094 2.157m-37.743-4.725c2.626 6.983 14.364 8.07 18.37 1.951m7.948-10.269c-.691.328-3.703 4.287-1.679 5.854m-1.346-9.446c13.393-7.807 16.04 17.476.91 13.486l-1.243-.547m-24.19-13.02c6.857-.636 8.55 12.297 15.904 8.114m-17.475-12.959c-1.53 1.673-3.635 2.643-2.127 5.647m-5.15.206l-.738.742-.273.901m5.378-.514c-2.145.164-3.235 1.644-3.584 3.593m59.651 19.19c-2.311-2.503-2.717-6.23-5.297-8.395m-5.843.911c1.833 1.331 3.04 3.345 3.749 5.461m-108.65 114.59c-4.199.248-5.04 5.199-8.603 6.269m21.4-12.44c-.882-2.715-8.236-1.139-7.06 2.226m8.933 6.474c-.852-1.278-3.29-2.256-2.867-4.248m14.782-2.529c-1.966-.373-1.87-3.097-3.642-3.439m6.84-8.495c.926 4.857-6.288 5.178-9.486 5.159m107.45 43.06c-.865-.187-1.36.081-2.118.448m7-3.287c-1.035.066-2.064.185-3.094.301m28.02 1.344c-1.92.819-3.27 2.531-5.703 1.642m6.678-6.421c-1.699 2.762-4.383 3.51-7.494 3.284m7.494-9.708c1.399 3.336-2.216 4.748-4.726 5.378m7.821-10.754l-5.537 5.078m1.953-8.06l-5.538 5.375m3.093-8.06l-2.932 2.987m.489-7.02l-2.28 2.539m-.327-5.08l-2.442 2.541m0-4.779l-3.258 2.985m.976-5.377l-3.256 2.987m.323-5.526l-3.258 3.436m.817-5.825l-2.445 2.987m.162-4.929l-3.096 4.03m.817-6.872l-3.422 4.03m2.28-6.275l-2.606 3.137m.162-5.078l-2.443 3.734m.652-5.527l-3.096 3.884m.979-6.572l-3.096 3.883m.488-6.423l-3.585 4.481m.818-6.572l-2.608 3.288m0-5.528l-1.304 1.642m-.977-3.284l-2.768 2.837m20.489 52.668l-1.165.522-1.186.403m5.459-3.01h-.718-.457m5.377-4.466l-.699 1.074-1.151.619m3.697-6.161c.768 1.375-1.761 1.273-2.102 1.771m2.857-5.543c-1.536.781-1.908 3.052-4.198 2.541m-35.81 1.032c-14.585 4.93-37.516 10.384-46.16 20.861m49.713-17.365c-15.282 5.192-32.29 9.166-44.583 20.14m45.505-16.642c-16.338 5.194-34.676 10.139-46.16 24.479m41.03-20.378c-11.967 4.988-24.706 9.633-34.457 18.45m30.772-13.145c-10.857 4.805-22.23 9.632-30.907 17.968m37.05-14.03c-17.15-3.244 10.01-11.944 1.386-17.291-1.975-3.244-6.981-5.731-5.611-9.812m-2.445 33.895c6.75-6.874 13.502-13.746 20.253-20.619l-19.16-17.245m73.14-27.876c6.898 11.04 19.507 18.14 23.986 30.58.56 1.555.45 3.306.062 4.92m3.316-123.86c-1 .908-4.563 4.784-6.82 5.626m-17.217-11.152c.988 1.572 1.23 6.708.304 7.477m-6.262-11.893c2.934 1.912 2.639 6.619 1.097 8.803m-206.09 5.887c1.916 1.368 3.833 2.314 5.749 3.02m.527-11.03c2.04 2.063 3.961 4.422 6.632 4.907m-20.762 13.287c1.915-1.313 3.865-6.869 2.349-9.332m152.39 161.17l.898 2.086m-5.622-1.488c-.04 1.297.433 1.976 1.141 2.987m-4.725-4.183c-2.757 1.01-2.162 5.646.651 5.976m37.457 1.169c-5.413 4.297-12.346 6.01-19.05 6.897m12.05-7.171c-2.781-.396-5.536-1.16-7.655-3.136m11.4.0001c-2.562 1.062-4.883-.819-7.328-1.195m10.59-1.794c-2.501-1.04-5.775-.322-7.658-2.688m11.539-1.096c-2.132.303-5.669 1.372-7.466-.249m10.08-3.331c-1.64.445-5.03.886-7.144-.551m9.874-3.675c-2.237.814-5.377 1.632-7.594.389m9.939-5.079c-2.291 2.746-7.15 2.192-9.776.3m9.937-3.437c-2.614-.934-5.602 2.575-8.634.597m-44.39 70.59c-2.282 2.243-4.565 4.584-6.847 5.01m-53.04-27.28c-5.454 4.788-17.348-4.967-21.18 4.341m35.773-9.405c-.887 5.743-8.683 6.172-12.756 3.977m-4.479 14.486c2.901.274 2.627-4.143 2.638-6.04m3.812 3.497c1.563-1.919.649-3.277.133-5.185m7.891 4.219c-.968-1-1.862-2.072-2.761-3.137m20.516-2.048c-2.523.31-3.665-2.374-5.261-3.738m.38 8.095c-3.211-.831-6.579-3.444-7.615-6.768m7.628-21.582c8.961 7.334 2.421 10.944-4.997 13.261m5.524-18.206c-2.165-.294-2.907 3.02-3.289 4.584m3.551-8.923c-1.76.923-4.02 2.329-4.076 4.579m-18.673 6.754c.53 5.931-5.316 7.325-9.603 8.561m14.862-19.17c-.03 1.87.637 3.846 2.103 5.063m-5.785-11.697c.121 1.946-2.114 6.233.525 7.114m-3.157-11.454c-2.194 1.673-2.269 4.626-2.235 7.114m1.185-12.66c-1.483 1.194-3.316 2.474-2.762 4.701m108.98 32.387c1.689-.38-.475 3.504.489 3.781m-2.792-5c.041 1.592-.111 3.56-1.455 4.672m-.362-7.121c-1.037 1.863-1.791 3.868-2.431 5.897m-.726-8.118c.902 1.345.633 3.378 0 4.781m-2.063-7.01c.579 1.812-1.331 3.345-2.426 4.338m1.576-7.01c-1.793.35-2.219 2.565-3.274 3.673m-9.1 20.357c-1.435 2.864-3.206 5.772-5.948 7.564m4.613 6.896c-1.598 2.624-5.504 5.01-7.281 8.122m28.877-17.353c-4.683 3.96-9.698 9.697-16.865 7.788m17.958 5c2.391-1.535-.758-4.467-1.942-5.563m10.192-1.113c.592-1.436.705-3.132 0-4.56m-.122-16.687c6.317 2.426-1.029 9.503-4.489 11.57m-115.57-215.42c2.453 2.649 11.478 10.795 19.626 4.336-4.132.626 6.498-2.65 10.469 1.901 3.971 4.552 4.741 8.09 4.412 12.236-.332 4.149-2.538 7.282-4.965 9-2.424 1.718-10.919 2.629-13.01 1.617m105.83 113.78c0 0 4.188 25.01-25.719 44.718-3.699-.542-7.364 1.466-10.7-1.225" fill="none" stroke="#000" stroke-linejoin="round" stroke-linecap="round" stroke-width="1.5"/>
  <path d="m295.35 194.9c0 1.547-.881 2.801-1.968 2.801-1.086 0-1.967-1.254-1.967-2.801 0-1.547.881-2.801 1.967-2.801 1.087 0 1.968 1.254 1.968 2.801"/>
 </g>
</svg>
