<?xml version="1.0" encoding="UTF-8" standalone="no"?>
<!-- Created with Inkscape (http://www.inkscape.org/) -->
<svg
   xmlns:svg="http://www.w3.org/2000/svg"
   xmlns="http://www.w3.org/2000/svg"
   version="1.0"
   width="633.17328"
   height="679.4411"
   id="svg2784">
  <defs
     id="defs2786">
    <clipPath
       id="clipPath223">
      <path
         d="M 404.161,505.122 L 404.161,338.712 L 559.342,338.712 L 559.342,505.122"
         id="path225" />
    </clipPath>
  </defs>
  <path
     d="M 24.835881,403.11929 C 30.997021,474.82786 63.346111,542.5474 115.92206,593.80048 C 170.32307,646.83779 240.90478,676.03894 314.67518,676.03894 C 388.44158,676.03894 459.03548,646.83779 513.42838,593.80048 C 566.00428,542.5474 598.34928,474.82786 604.50638,403.11929 C 610.99818,327.63808 618.49158,200.32018 618.49158,200.32018 L 16.661253,204.66588"
     id="path255"
     style="fill:#ffffff;fill-opacity:1;fill-rule:nonzero;stroke:none" />
  <path
     d="M 3.6610119,3.6630057 L 629.54056,3.6630057 C 625.02073,66.198607 625.05292,136.16975 620.66606,198.71162 L 15.901396,201.11118 L 3.6610119,3.6630057 z"
     id="path3197"
     style="opacity:1;fill:#d8201f;fill-opacity:1;fill-rule:nonzero;stroke:none;stroke-width:11.58852959;stroke-linecap:round;stroke-linejoin:miter;stroke-miterlimit:4;stroke-dasharray:none;stroke-opacity:1" />
  <path
     d="M 4.0829349,4.0829349 C 4.0829349,4.0829349 20.255434,326.95728 26.743224,402.43849 C 32.904364,474.14706 65.253454,541.8666 117.82941,593.11968 C 172.23041,646.15699 242.81207,675.35814 316.58257,675.35814 C 390.34887,675.35814 460.94287,646.15699 515.33567,593.11968 C 567.91167,541.8666 600.25667,474.14706 606.41367,402.43849 C 612.90557,326.95728 629.09037,4.0829349 629.09037,4.0829349 L 4.0829349,4.0829349 z"
     id="path393"
     style="fill:none;fill-opacity:1;stroke:#1b1a1c;stroke-width:8.16586971;stroke-linecap:butt;stroke-linejoin:miter;stroke-miterlimit:4;stroke-dasharray:none;stroke-opacity:1" />
  <path
     d="M 11.148134,203.30321 L 617.5296,200.97386"
     id="path2425"
     style="fill:none;fill-rule:evenodd;stroke:#1b1a1c;stroke-width:7.11921692;stroke-linecap:butt;stroke-linejoin:miter;stroke-miterlimit:4;stroke-dasharray:none;stroke-opacity:1" />
  <path
     d="M 127.75861,125.34366 L 113.78703,170.99638 L 170.37478,171.02034 L 157.26798,125.78803 L 203.08406,138.45046 L 203.24743,81.886681 L 159.39399,95.437855 L 170.63182,48.569658 L 114.37081,49.340774 L 127.66495,97.119499 L 86.076936,81.956386 L 87.105096,138.21738 L 127.75861,125.34366 z"
     id="path3201"
     style="fill:#ffffff;fill-rule:evenodd;stroke:#000000;stroke-width:4;stroke-linecap:butt;stroke-linejoin:miter;stroke-miterlimit:4;stroke-dasharray:none;stroke-opacity:1" />
  <path
     d="M 303.7825,124.25349 L 289.81092,169.90621 L 346.39867,169.93017 L 333.29187,124.69786 L 379.10795,137.36029 L 379.27132,80.796512 L 335.41788,94.347686 L 346.65571,47.479489 L 290.3947,48.250605 L 303.68884,96.02933 L 262.10083,80.866217 L 263.12899,137.12721 L 303.7825,124.25349 z"
     id="path3207"
     style="fill:#ffffff;fill-rule:evenodd;stroke:#000000;stroke-width:4;stroke-linecap:butt;stroke-linejoin:miter;stroke-miterlimit:4;stroke-dasharray:none;stroke-opacity:1" />
  <path
     d="M 476.8122,121.34543 L 462.84062,166.99815 L 519.42837,167.02211 L 506.32157,121.7898 L 552.13765,134.45223 L 552.30102,77.88845 L 508.44758,91.439624 L 519.68541,44.571426 L 463.4244,45.342546 L 476.71854,93.121268 L 435.13053,77.958155 L 436.15869,134.21915 L 476.8122,121.34543 z"
     id="path3209"
     style="fill:#ffffff;fill-rule:evenodd;stroke:#000000;stroke-width:4;stroke-linecap:butt;stroke-linejoin:miter;stroke-miterlimit:4;stroke-dasharray:none;stroke-opacity:1" />
  <path
     d="M 231.56418,279.27389 C 237.26783,264.00426 262.62299,256.44183 252.8652,241.43191 C 250.378,237.22996 239.86193,238.04059 232.96673,243.83562 C 228.03218,238.81605 219.2624,232.79954 212.06923,246.02576 C 207.30446,257.20954 224.3109,266.73396 231.56418,279.27389 z"
     id="path3215"
     style="fill:#d8201f;fill-opacity:1;fill-rule:evenodd;stroke:#000000;stroke-width:3;stroke-linecap:butt;stroke-linejoin:miter;stroke-miterlimit:4;stroke-dasharray:none;stroke-opacity:1" />
  <path
     d="M 95.836786,275.97015 C 90.057716,259.60633 73.420406,261.72602 76.277596,244.80805 C 79.905096,233.95741 93.919846,235.31698 95.173766,244.31079 C 98.927386,236.19848 111.24938,230.46698 116.88778,244.31079 C 119.11497,255.575 102.52076,262.67557 95.836786,275.97015 z"
     id="path3217"
     style="fill:#d8201f;fill-opacity:1;fill-rule:evenodd;stroke:#000000;stroke-width:3;stroke-linecap:butt;stroke-linejoin:miter;stroke-miterlimit:4;stroke-dasharray:none;stroke-opacity:1" />
  <path
     d="M 93.144996,354.87203 C 100.80253,342.2096 111.51413,348.10347 116.11758,353.93437 C 116.326,366.11089 98.263986,375.7491 90.800846,387.22118 C 87.500836,374.9736 70.943286,367.81616 70.828766,358.11365 C 79.346386,340.84986 87.877796,351.3752 93.144996,354.87203 z"
     id="path3219"
     style="fill:#d8201f;fill-opacity:1;fill-rule:evenodd;stroke:#000000;stroke-width:3;stroke-linecap:butt;stroke-linejoin:miter;stroke-miterlimit:4;stroke-dasharray:none;stroke-opacity:1" />
  <path
     d="M 110.96047,481.45567 C 102.61966,474.72502 94.812016,475.45873 87.827146,487.71117 C 90.102066,501.98917 106.46877,503.2953 112.83578,513.33599 C 118.28279,498.92596 134.54749,496.18722 132.05774,483.79981 C 125.02532,475.38462 117.99289,477.84595 110.96047,481.45567 z"
     id="path3221"
     style="fill:#d8201f;fill-opacity:1;fill-rule:evenodd;stroke:#000000;stroke-width:3;stroke-linecap:butt;stroke-linejoin:miter;stroke-miterlimit:4;stroke-dasharray:none;stroke-opacity:1" />
  <path
     d="M 317.71374,619.76001 C 300.33222,610.69198 296.06975,618.23671 294.27233,624.44829 C 295.73019,639.92631 314.8225,639.1227 317.24492,651.17151 C 324.35846,640.48743 336.51462,632.52485 339.27985,623.97947 C 339.94903,615.0651 327.61272,610.32537 317.71374,619.76001 z"
     id="path3223"
     style="fill:#d8201f;fill-opacity:1;fill-rule:evenodd;stroke:#000000;stroke-width:3;stroke-linecap:butt;stroke-linejoin:miter;stroke-miterlimit:4;stroke-dasharray:none;stroke-opacity:1" />
  <path
     d="M 397.41455,398.94189 C 388.43093,388.53854 375.82734,396.1402 377.80149,404.34036 C 378.55142,414.2638 392.01866,414.62608 398.82104,426.60276 C 402.67433,414.58509 418.12345,414.58673 417.57417,398.94189 C 416.06305,392.69139 402.35862,391.91134 397.41455,398.94189 z"
     id="path3225"
     style="fill:#d8201f;fill-opacity:1;fill-rule:evenodd;stroke:#000000;stroke-width:3;stroke-linecap:butt;stroke-linejoin:miter;stroke-miterlimit:4;stroke-dasharray:none;stroke-opacity:1" />
  <path
     d="M 419.44948,240.47793 C 410.86346,234.12546 399.87239,232.23927 397.25091,245.16621 C 395.48438,257.92469 413.9811,258.49291 416.63651,273.29591 C 423.73334,259.66341 439.56951,258.76514 440.07793,244.22856 C 435.35204,226.85143 422.34302,237.06449 419.44948,240.47793 z"
     id="path3227"
     style="fill:#d8201f;fill-opacity:1;fill-rule:evenodd;stroke:#000000;stroke-width:3;stroke-linecap:butt;stroke-linejoin:miter;stroke-miterlimit:4;stroke-dasharray:none;stroke-opacity:1" />
  <path
     d="M 526.31452,241.87051 C 518.37708,230.78774 507.45843,237.71349 505.28107,246.86397 C 505.41838,261.93871 519.98597,259.84869 526.84717,270.30539 C 530.13902,259.17107 548.92971,254.94015 545.09546,244.22856 C 543.39463,231.4221 528.97014,237.89134 526.31452,241.87051 z"
     id="path3229"
     style="fill:#d8201f;fill-opacity:1;fill-rule:evenodd;stroke:#000000;stroke-width:3;stroke-linecap:butt;stroke-linejoin:miter;stroke-miterlimit:4;stroke-dasharray:none;stroke-opacity:1" />
  <path
     d="M 527.27999,353.93437 C 511.10104,339.31257 500.74096,354.01483 501.85773,358.34528 C 504.05232,373.71708 526.25568,375.50323 528.21764,388.62767 C 529.9313,377.06324 551.7643,367.80694 546.03312,353.93437 C 537.25776,338.52861 528.08136,352.16552 527.27999,353.93437 z"
     id="path3231"
     style="fill:#d8201f;fill-opacity:1;fill-rule:evenodd;stroke:#000000;stroke-width:3;stroke-linecap:butt;stroke-linejoin:miter;stroke-miterlimit:4;stroke-dasharray:none;stroke-opacity:1" />
  <path
     d="M 522.59171,475.82973 C 511.4683,465.71682 504.43697,471.97226 497.27498,477.70504 C 501.6738,490.49082 514.07517,492.7644 521.65405,502.08411 C 529.11238,493.609 550.29459,485.57374 542.28249,475.82973 C 536.05435,472.13974 530.11117,465.31515 522.59171,475.82973 z"
     id="path3233"
     style="fill:#d8201f;fill-opacity:1;fill-rule:evenodd;stroke:#000000;stroke-width:3;stroke-linecap:butt;stroke-linejoin:miter;stroke-miterlimit:4;stroke-dasharray:none;stroke-opacity:1" />
  <g
     transform="translate(749.2923,-16.580447)"
     id="g3309">
    <path
       d="M -445.78872,245.86369 C -430.30687,235.47389 -418.3827,238.6699 -406.52723,240.12134 C -398.76594,239.48773 -391.91101,235.31383 -385.28883,242.40894 C -379.8586,242.50837 -374.79057,239.58043 -371.62068,247.59105 L -369.01227,270.0816 C -365.68942,274.39056 -374.12695,291.73819 -353.44677,288.57992 C -354.38853,292.81588 -354.2297,303.52468 -359.6966,304.393 C -359.89116,304.4239 -361.79547,306.3686 -362.01385,309.74104 C -362.08523,310.84337 -373.14344,348.30723 -350.31284,339.98329 C -351.63853,343.67162 -350.07282,357.90936 -370.16385,357.04033 C -367.01002,373.54462 -396.40734,384.09349 -368.70702,388.71239 C -371.82708,393.02675 -375.29099,403.40542 -394.84144,396.04684 C -397.7774,431.85843 -370.03994,433.14786 -361.40729,459.73094 C -348.85708,471.1727 -316.19591,470.24714 -306.47975,457.34279 C -296.5786,448.7128 -305.85397,424.02496 -310.18946,418.06573 C -320.09761,403.82699 -334.63968,398.19411 -339.9139,375.34951 C -342.62763,354.27749 -329.76273,345.09956 -323.19682,329.97458 C -338.95913,287.49903 -242.84072,290.72642 -288.17057,247.9813 C -249.85086,249.34746 -255.12015,269.48368 -264.28903,291.76412 C -242.2873,288.5337 -250.13607,336.8193 -214.1378,298.13253 C -214.94984,313.19637 -211.53741,329.29477 -243.48635,336.73324 C -243.33947,349.56839 -242.66082,363.30122 -273.84164,372.1653 C -270.0356,363.0187 -260.8477,356.13815 -268.57453,342.13561 C -283.4567,335.0597 -280.29564,357.08106 -312.05211,346.69166 C -329.45221,365.06131 -320.06724,378.03477 -309.05345,391.18554 C -293.74257,385.48969 -294.33458,375.10915 -297.72318,361.81664 C -273.24496,371.14067 -289.59661,384.25409 -291.26978,404.07319 C -289.15987,416.46695 -277.92457,432.894 -279.57202,445.16979 C -267.17331,437.12887 -252.88504,431.68214 -262.29112,412.30544 C -250.79519,411.08016 -245.41323,413.16158 -243.21462,433.55702 C -227.9318,435.65808 -209.25537,438.85453 -224.92938,471.46103 C -251.46255,432.31793 -259.14091,470.91891 -293.74293,473.26382 C -305.3908,474.49235 -292.73858,486.5748 -337.82621,491.48322 C -334.90416,500.35231 -326.67294,528.74003 -311.21895,518.83386 C -305.73415,514.44007 -309.14604,508.56907 -288.155,510.37777 C -276.84632,509.23575 -283.10425,495.59351 -289.76267,489.18484 C -277.37131,492.16585 -256.38748,489.23502 -269.06534,518.0007 C -266.03703,527.36218 -258.56066,535.23691 -244.38775,528.98741 C -244.1919,538.29356 -252.2725,542.33289 -259.01713,547.22237 C -259.17485,547.09719 -259.39204,551.44545 -259.1926,551.5822 C -253.70899,555.34201 -249.70145,555.28211 -254.08281,578.23724 C -256.10859,570.45918 -261.79326,563.61171 -266.6123,571.80544 C -266.42597,581.22154 -256.09764,585.44274 -268.94444,601.3754 C -268.70333,595.55556 -273.63084,586.16382 -278.14259,595.16378 C -279.2271,597.16002 -271.53761,604.05471 -279.414,619.73725 C -281.60228,615.92292 -287.2354,602.06122 -291.99474,615.28802 C -293.94259,618.20481 -296.86652,616.64663 -297.1266,620.11059 C -297.58348,626.1958 -303.19226,629.52643 -307.87673,633.12768 C -311.55984,641.65842 -313.33488,650.95239 -326.47081,655.70201 C -325.6736,646.94112 -324.72413,637.95183 -330.36129,638.84249 C -348.3588,639.78793 -348.59368,650.13712 -356.63098,656.35561 C -374.03645,655.93162 -372.5961,663.75183 -382.10462,665.11218 C -384.96632,657.13896 -378.49912,645.96382 -376.03667,636.80746 C -390.36141,635.06639 -393.20008,639.51012 -399.61775,642.02669 C -400.69108,624.72199 -395.64789,618.91618 -387.48186,617.24376 C -388.69122,605.40152 -377.32476,607.61461 -367.7757,607.79648 C -369.42662,603.14409 -366.80455,601.0555 -365.38754,598.24387 C -369.10245,595.62854 -372.81735,597.09955 -376.53226,599.03992 C -375.55268,592.02263 -371.80057,582.93827 -354.03214,590.49404 C -344.38369,587.94886 -336.93403,588.08047 -342.30206,603.81623 C -332.87413,607.76912 -327.60134,590.17492 -327.17708,587.8952 C -326.32691,577.01777 -326.92072,560.43643 -332.29096,558.05106 C -344.07172,555.77964 -355.85248,562.30144 -367.63325,550.51191 C -359.82362,569.7159 -383.23636,610.62572 -417.92693,581.52679 C -396.01702,581.43792 -379.3494,576.45624 -386.88093,548.88869 C -391.32941,534.62739 -398.20428,526.29595 -410.49911,510.52021 C -432.03171,511.84551 -461.36461,518.93831 -449.76898,532.17161 L -443.53492,538.18302 C -444.05023,572.6792 -432.01037,559.51491 -427.72733,551.93045 C -421.77156,566.30072 -434.53095,575.65997 -450.74616,578.20439 C -451.08529,578.25761 -453.32246,583.82019 -450.96882,586.68527 C -444.55597,594.49157 -433.36883,592.72713 -433.4206,593.48313 C -435.47781,601.32205 -446.23263,603.9681 -460.6168,605.06019 C -466.12265,605.47821 -467.41108,621.31227 -482.85928,618.12967 C -478.21825,613.31774 -469.68249,608.5058 -477.22672,603.69386 C -486.11797,599.06927 -484.86511,613.70139 -503.90047,610.18464 C -497.41498,605.44163 -487.65696,600.33501 -499.80912,597.66285 C -503.91347,601.55485 -512.78132,605.04447 -522.27155,604.62776 C -514.52231,598.27924 -509.98213,592.68581 -520.44369,590.62219 C -528.75673,588.1481 -528.26162,597.26628 -537.22426,597.02272 C -543.51697,608.10729 -550.66639,610.62477 -558.03196,610.98069 C -556.03468,603.98253 -550.81691,597.52112 -554.71599,589.54023 C -560.72971,590.9776 -558.37683,602.65927 -574.94153,601.18191 C -580.93137,602.60189 -579.61015,612.79515 -580.63429,620.17397 C -590.03844,616.69613 -598.72893,612.20726 -595.39392,590.68228 L -594.40755,584.36824 C -600.0884,588.89262 -605.76924,590.46921 -611.45009,583.16208 C -616.84172,577.77661 -620.49862,588.0038 -624.93122,591.24965 C -631.37915,578.26774 -625.51224,568.93378 -620.62172,565.96579 C -609.94469,559.48606 -614.63826,553.74906 -613.47602,553.26112 C -599.14533,547.24476 -585.63894,568.54333 -582.45473,558.67063 C -578.1166,545.2202 -590.76226,559.61189 -595.4267,551.82419 C -599.01482,545.8335 -595.58134,542.43435 -595.17927,539.97465 C -594.09045,533.31366 -606.24826,531.19119 -605.81051,529.86084 C -596.96432,522.97776 -583.63539,526.22458 -583.75297,533.81266 C -583.77474,535.21787 -580.96803,533.89549 -579.39068,533.71191 C -561.33159,531.61007 -569.08633,547.78474 -554.84775,550.52723 C -540.09979,564.224 -512.45472,547.46798 -496.73601,544.11238 C -511.56057,530.94229 -531.82423,520.07335 -519.82149,495.55325 C -526.86508,491.25425 -533.25532,503.24427 -539.87798,506.57136 C -556.43454,514.88905 -571.90769,517.24797 -581.11744,485.15815 C -541.1415,516.41199 -557.19857,473.60182 -508.67678,473.26382 C -492.08869,449.16382 -464.94911,478.87012 -433.84795,466.09935 C -445.09497,450.13456 -471.76953,454.06282 -478.42683,432.6652 C -484.7602,427.77161 -487.79721,443.33498 -503.21276,443.34224 C -497.5654,438.19264 -491.5555,431.74874 -501.10754,430.04168 C -512.76313,433.47238 -508.63006,444.8416 -521.4136,446.19807 C -518.60526,439.24435 -518.60622,434.23553 -529.74508,436.93756 C -539.42397,441.92258 -529.84045,446.16935 -548.49482,452.11429 C -544.33014,438.71324 -551.92375,442.41516 -559.36096,445.8896 C -560.00877,450.40577 -560.54321,457.6161 -567.37176,459.0419 C -570.59334,466.59675 -573.15285,474.64815 -584.75384,475.91844 C -584.77186,470.65856 -580.14846,465.39868 -585.08309,460.13879 C -589.77275,461.61386 -589.92814,457.04322 -591.66533,454.58165 L -596.92879,460.71205 C -594.0472,467.93485 -596.89075,472.70401 -601.53461,476.70162 C -612.39505,471.25504 -604.67567,482.00072 -605.73313,490.27831 C -612.206,487.99409 -623.56336,486.54691 -624.27487,471.00852 C -627.14257,470.91851 -627.53986,467.12287 -626.08141,460.54364 L -620.41532,452.52218 C -626.12368,451.062 -627.46017,459.694 -635.02825,460.70233 C -637.84829,462.13404 -640.59701,463.92233 -644.46574,460.11052 L -645.11526,451.88009 C -656.62123,450.37136 -651.22782,462.49209 -653.8091,465.64716 C -668.85506,447.49564 -658.37759,442.12215 -653.37239,436.70401 C -649.26189,429.95996 -649.55253,417.16434 -629.07911,432.9193 C -624.86014,432.16128 -619.67605,432.6901 -618.50468,427.86863 C -620.58886,423.79895 -624.84734,424.07788 -629.03681,424.21881 C -633.4403,420.01693 -636.30757,415.53574 -628.96379,409.19799 C -632.07737,403.06841 -636.97869,404.08979 -641.05345,401.80492 C -631.48069,398.49919 -621.90792,394.83314 -612.33516,400.99605 C -595.77011,397.37881 -605.77749,414.53299 -596.07211,419.19172 C -584.94228,412.07979 -570.51018,411.57239 -564.21129,394.79859 C -577.22374,391.72576 -591.98005,391.05074 -588.2819,365.00084 C -579.67807,388.24293 -558.17585,373.32471 -547.68329,368.18505 C -556.48278,348.25342 -567.03002,363.46059 -577.93324,349.07981 C -577.14649,346.85175 -566.04184,346.28787 -566.133,343.91821 C -566.18232,342.6359 -567.0755,320.94236 -579.52534,337.9351 C -582.96828,339.9869 -585.88594,339.41227 -588.24687,336.05398 C -598.3595,341.97132 -606.08953,340.56442 -617.28361,329.17853 C -611.19446,329.1771 -602.05429,331.46393 -599.80171,328.58507 C -600.61327,322.41043 -601.39272,316.24382 -589.52767,313.23834 C -588.60312,303.54375 -599.05846,309.02234 -607.38714,311.6654 C -612.86954,313.16873 -612.46207,308.78217 -613.97949,306.32052 C -618.49021,305.45848 -621.35337,316.12934 -624.90026,322.01407 C -629.42365,309.95466 -630.74713,293.78939 -610.9152,286.34654 C -608.08026,270.35229 -597.37667,285.83262 -589.6736,289.31086 C -583.06049,265.5798 -610.13527,282.68989 -603.8436,261.49869 C -608.0273,248.6403 -614.66899,255.44587 -620.92001,259.12602 C -616.75002,243.63488 -599.07242,243.85453 -589.53015,248.51088 C -568.39236,242.92163 -579.47139,266.70885 -568.81588,274.44223 C -558.73461,267.73364 -575.33284,252.76868 -554.84775,251.16551 C -553.18241,246.83148 -550.15078,244.54687 -552.53698,234.13553 C -543.61034,239.1873 -539.71705,254.80946 -546.15309,264.5712 C -544.83402,279.09188 -557.07261,275.78683 -554.84775,290.96807 C -545.82518,324.47634 -512.51774,320.81114 -502.30837,325.99433 C -503.74551,321.43172 -504.8505,316.75839 -499.92021,310.0733 C -500.25439,324.68866 -486.45969,334.03358 -481.98584,337.10809 C -460.6336,344.7595 -450.78647,338.7396 -437.85917,335.85984 C -435.62184,323.70066 -447.48574,329.16802 -456.52554,331.10526 C -473.12196,331.12088 -461.05379,316.16992 -464.06695,308.87149 C -474.16009,309.15773 -491.09393,316.00886 -496.60073,306.54913 C -501.9064,295.06134 -501.28283,286.91213 -485.20104,281.41546 C -483.94467,285.96372 -488.35037,290.92084 -482.40708,294.94833 C -474.49695,297.64635 -469.58441,297.57649 -463.96263,296.26989 C -464.69211,292.43052 -465.04076,286.58847 -467.27293,283.97004 C -471.70421,278.77196 -477.7284,276.56138 -468.07816,259.92207 C -479.10179,241.57518 -455.82602,248.29539 -445.78872,245.86369 z"
       id="path3235"
       style="fill:#1b1a1c;fill-opacity:1;fill-rule:evenodd;stroke:#1b1a1c;stroke-width:3;stroke-linecap:butt;stroke-linejoin:miter;stroke-miterlimit:4;stroke-dasharray:none;stroke-opacity:1" />
    <path
       d="M -514.79016,382.11043 C -528.97855,384.74614 -544.70093,399.43864 -558.76366,400.06885 C -564.07855,406.25572 -575.44899,421.11009 -601.94885,420.88002 L -606.32137,405.13898 C -608.43247,403.85797 -610.56161,402.62206 -614.19188,405.13898 C -612.33261,411.03113 -622.54967,411.89148 -629.34992,414.1755 C -628.90554,415.64959 -630.40663,417.90186 -626.43491,417.96501 C -621.45587,424.75493 -613.20971,421.89502 -604.86386,425.83553 C -610.25027,431.49798 -618.57799,432.25828 -626.14341,434.28905 C -634.71478,435.3861 -642.47725,425.38181 -647.42296,431.66554 C -638.65431,440.04119 -640.26204,445.07353 -641.88444,452.07059 C -641.81273,454.75541 -643.88585,458.51264 -639.55244,459.06661 C -625.51033,448.3149 -617.17743,447.55432 -606.02986,441.86807 C -613.56354,447.04512 -619.28947,453.30682 -622.9369,460.81561 C -626.32574,463.87437 -624.61549,466.08328 -623.5199,468.39463 C -614.1382,466.26273 -609.42832,469.97061 -602.82336,471.30963 C -596.98491,467.99697 -601.10953,460.94817 -600.78285,455.5686 C -594.1755,448.21568 -587.56816,445.20594 -580.96081,441.57657 C -583.57838,446.21451 -588.83306,450.099 -586.49932,456.1516 C -579.69764,453.79621 -574.93646,454.3349 -568.13477,455.86009 L -564.45738,454.67167 C -559.75911,448.84913 -559.19236,443.0266 -566.09427,437.20406 C -558.57843,440.01482 -542.64697,431.82054 -544.23172,446.53208 C -537.79436,445.209 -534.94263,435.41108 -528.58613,432.7452 C -524.09485,432.1475 -514.69317,435.65337 -519.45417,444.49157 C -509.30294,442.90189 -512.21142,433.73556 -503.42163,427.87604 C -490.13489,430.62382 -496.00495,436.05965 -501.11777,441.62281 C -494.04933,440.42196 -489.42662,432.38404 -484.18563,432.06067 C -481.69829,431.9072 -487.40926,423.45853 -484.18259,423.79503 C -472.30781,426.3962 -463.88868,415.48072 -464.16542,415.11213 C -467.98392,410.02633 -469.89134,403.60161 -469.60756,398.14297 C -495.80353,392.10839 -506.81461,404.08609 -506.04513,412.135 C -519.94994,402.94721 -516.19231,393.48493 -514.79016,382.11043 z"
       id="path3237"
       style="fill:#0092c5;fill-opacity:1;fill-rule:evenodd;stroke:#1b1a1c;stroke-width:1px;stroke-linecap:butt;stroke-linejoin:miter;stroke-opacity:1" />
    <path
       d="M -632.46365,401.66807 C -627.77978,402.70243 -622.86606,405.2213 -623.49446,410.63726 C -620.1764,410.86648 -615.78014,409.31782 -615.34065,404.386 C -616.71426,399.37611 -625.33741,399.48716 -632.46365,401.66807 z"
       id="path3421"
       style="fill:#d8201f;fill-opacity:1;fill-rule:evenodd;stroke:#1b1a1c;stroke-width:1px;stroke-linecap:butt;stroke-linejoin:miter;stroke-opacity:1" />
    <path
       d="M -654.75072,459.5601 C -653.36385,452.85242 -650.15738,448.87413 -644.42256,448.68836 C -643.84076,443.1704 -644.7118,434.61225 -652.30458,437.81661 C -658.01127,443.69427 -660.51331,452.24878 -654.75072,459.5601 z"
       id="path3423"
       style="fill:#d8201f;fill-opacity:1;fill-rule:evenodd;stroke:#1b1a1c;stroke-width:1px;stroke-linecap:butt;stroke-linejoin:miter;stroke-opacity:1" />
    <path
       d="M -621.86369,469.88825 C -621.51213,481.44119 -613.95177,483.77303 -608.00222,487.28304 C -608.61504,482.66255 -612.08581,478.04206 -608.00222,473.42157 C -608.14673,469.01674 -618.07772,472.77334 -621.86369,469.88825 z"
       id="path3425"
       style="fill:#d8201f;fill-opacity:1;fill-rule:evenodd;stroke:#1b1a1c;stroke-width:1px;stroke-linecap:butt;stroke-linejoin:miter;stroke-opacity:1" />
    <path
       d="M -580.55108,458.20113 C -578.22809,460.9488 -580.16887,468.33394 -580.55108,472.06261 C -574.20146,468.04627 -571.32072,464.89687 -571.0383,459.01651 C -574.02803,457.37748 -577.56135,455.56286 -580.55108,458.20113 z"
       id="path3427"
       style="fill:#d8201f;fill-opacity:1;fill-rule:evenodd;stroke:#1b1a1c;stroke-width:1px;stroke-linecap:butt;stroke-linejoin:miter;stroke-opacity:1" />
    <path
       d="M -495.86919,344.21867 C -499.63001,339.56556 -506.29275,334.52826 -504.60285,328.38859 C -517.74447,323.41069 -533.78162,323.53033 -544.47864,313.17431 C -550.26688,307.9693 -559.64953,297.13307 -558.55906,285.03792 C -554.92928,274.53906 -545.57564,271.46933 -548.90657,264.78968 C -552.15755,264.55178 -558.95386,260.67957 -558.30002,253.69054 C -571.45602,256.37898 -558.49878,268.71095 -567.62995,281.7634 C -582.33432,266.99387 -574.3668,242.68033 -587.31615,251.41303 C -590.06179,257.85454 -592.0951,262.74696 -600.96159,263.03023 C -606.61625,270.3063 -592.14412,270.48841 -588.72859,276.89561 C -583.10133,280.70906 -583.92824,290.97667 -582.22843,298.71757 C -591.1804,294.65456 -604.443,278.15603 -608.46854,284.06533 C -603.82737,292.82621 -611.25728,301.50542 -609.9885,308.85879 C -600.51437,303.62481 -589.50488,302.43352 -586.4071,306.14632 C -580.33589,316.6264 -598.31661,313.14824 -597.55023,325.27046 C -591.43176,323.19009 -583.99819,331.37312 -588.26429,335.86133 C -575.08056,338.06786 -580.19004,327.47819 -572.07743,324.95768 C -565.36853,324.32295 -558.49404,332.95328 -562.68338,345.75914 C -564.03518,348.48304 -568.49109,349.73431 -572.87895,349.33572 C -565.70375,356.79702 -557.31813,352.61181 -555.95899,354.53095 C -551.04874,358.01389 -547.15127,361.48327 -544.40533,367.13051 C -541.73307,365.17907 -535.30841,367.5076 -533.94154,363.71915 C -546.63323,354.43321 -545.03438,345.14727 -545.08467,335.86133 C -544.5571,336.54881 -541.94215,347.67316 -531.15576,349.32594 C -513.56688,350.06773 -515.34103,344.14196 -495.86919,344.21867 z"
       id="path3429"
       style="fill:#0092c5;fill-opacity:1;fill-rule:evenodd;stroke:#1b1a1c;stroke-width:1px;stroke-linecap:butt;stroke-linejoin:miter;stroke-opacity:1" />
    <path
       d="M -624.63096,317.14283 C -620.65651,311.20192 -619.77594,300.30485 -612.31487,301.33719 C -610.28548,299.51306 -609.03901,290.05586 -613.34121,291.27904 C -625.37628,294.63642 -625.59982,306.4246 -624.63096,317.14283 z"
       id="path3431"
       style="fill:#d8201f;fill-opacity:1;fill-rule:evenodd;stroke:#1b1a1c;stroke-width:1px;stroke-linecap:butt;stroke-linejoin:miter;stroke-opacity:1" />
    <path
       d="M -610.67273,331.5116 C -603.11293,332.8416 -598.86221,332.38398 -596.7145,328.84311 C -593.59203,326.10674 -589.77888,331.68244 -589.73538,333.76955 C -597.32473,339.23623 -603.6353,337.01102 -610.67273,331.5116 z"
       id="path3433"
       style="fill:#d8201f;fill-opacity:1;fill-rule:evenodd;stroke:#1b1a1c;stroke-width:1px;stroke-linecap:butt;stroke-linejoin:miter;stroke-opacity:1" />
    <path
       d="M -612.93068,251.66229 C -606.48963,249.80208 -599.75377,245.2088 -590.76172,251.45702 C -592.28728,256.34004 -594.21554,262.38349 -599.38298,259.46248 C -600.35733,255.31299 -603.26244,252.00821 -612.93068,251.66229 z"
       id="path3435"
       style="fill:#d8201f;fill-opacity:1;fill-rule:evenodd;stroke:#1b1a1c;stroke-width:1px;stroke-linecap:butt;stroke-linejoin:miter;stroke-opacity:1" />
    <path
       d="M -548.68175,243.45156 C -549.90517,247.95863 -550.33468,253.08318 -556.27667,253.92024 C -555.98266,260.5918 -549.84652,260.74235 -547.45014,260.69409 C -543.7479,254.31385 -545.308,248.74319 -548.68175,243.45156 z"
       id="path3437"
       style="fill:#d8201f;fill-opacity:1;fill-rule:evenodd;stroke:#1b1a1c;stroke-width:1px;stroke-linecap:butt;stroke-linejoin:miter;stroke-opacity:1" />
    <path
       d="M -487.1623,284.13652 C -490.24435,293.68098 -489.27591,301.27909 -466.40981,298.35495 C -451.29649,293.8206 -436.94784,300.04267 -419.72448,296.86038 L -419.59667,303.58227 C -434.29505,304.72389 -449.12125,301.58046 -463.81964,305.8568 C -474.51277,307.39133 -480.89337,311.6372 -487.80913,310.06936 C -491.53189,311.18057 -508.17318,291.84777 -487.1623,284.13652 z"
       id="path3439"
       style="fill:#d8201f;fill-opacity:1;fill-rule:evenodd;stroke:#1b1a1c;stroke-width:2;stroke-linecap:butt;stroke-linejoin:miter;stroke-miterlimit:4;stroke-dasharray:none;stroke-opacity:1" />
    <path
       d="M -586.95466,375.52211 C -562.2925,390.30944 -546.8238,361.62279 -513.64087,364.85829 C -538.01981,362.56583 -539.98995,356.43557 -543.43552,343.50169 C -523.57517,362.30721 -514.92636,340.53493 -483.85448,347.29294 C -501.78368,338.96841 -502.62875,328.61385 -501.43637,317.97156 C -498.90362,333.64139 -472.71434,347.3103 -462.11973,344.14957 L -425.66432,333.31114 C -397.7192,328.90268 -404.50681,294.87249 -404.80581,295.09497 C -404.64927,294.8591 -403.80488,330.73954 -426.55297,325.31327 C -432.20346,322.92041 -445.92626,325.38324 -456.73406,326.6628 C -461.82688,327.27154 -462.22269,320.01454 -460.9903,317.52723 C -462.39922,314.02338 -439.1615,318.36319 -431.94691,314.40867 C -431.95266,314.14477 -404.70962,305.65526 -427.87768,280.92617 C -434.68956,276.06215 -440.3252,282.96052 -446.54764,283.99095 C -460.62953,285.92132 -461.99909,282.40355 -463.87635,279.10337 C -464.56304,273.4528 -465.22849,267.80649 -460.07684,263.32359 C -464.30427,264.069 -466.89895,269.72137 -466.75,277.34261 C -471.19726,274.98835 -471.18451,268.97341 -466.09798,261.33033 L -462.54338,258.22004 C -464.39413,256.47946 -468.34932,255.7911 -466.98664,252.44381 C -468.17868,248.98576 -459.27916,250.95445 -451.72562,250.65823 C -444.35833,250.68626 -444.39217,246.00452 -433.66218,242.89286 C -424.25384,241.15367 -418.65741,240.10318 -409.4733,244.00161 C -402.29792,243.9569 -393.06817,237.3382 -388.54448,245.77892 C -391.98772,248.13038 -396.03684,249.72449 -397.21918,254.90207 L -395.00582,255.10976 C -393.3957,249.76195 -387.043,248.3663 -382.12037,245.77892 C -376.30081,244.60313 -376.06526,257.40911 -375.8998,259.1087 C -374.69602,267.07575 -377.48263,271.90866 -381.43527,279.30278 C -384.62581,284.34966 -387.14366,283.11719 -389.88574,279.98375 L -389.66151,284.67191 C -389.44524,285.07805 -383.61768,286.49842 -378.98527,282.62489 L -374.10595,275.96827 C -374.85839,286.32037 -366.77862,294.18005 -357.68657,294.19805 C -360.96507,309.34996 -368.56299,302.90473 -375.8998,297.76506 C -372.86054,301.81285 -367.21753,304.59701 -368.13857,310.90783 C -372.50446,326.53556 -370.62509,346.24144 -355.66436,344.84707 C -355.91352,349.32804 -358.33292,351.75574 -363.21387,352.85238 C -369.99633,354.37626 -371.03171,346.93263 -377.03336,346.20073 C -368.54572,363.8915 -386.18914,375.18871 -385.32081,384.00853 C -384.99894,387.27781 -381.73304,388.41286 -372.84973,391.06377 C -373.12413,391.8328 -378.15734,395.87177 -380.5921,396.19774 C -389.92836,396.51939 -400.77512,392.49919 -391.4264,368.42944 C -398.50223,376.57128 -395.70482,388.75163 -404.58158,397.11534 C -408.52042,400.33487 -412.46992,401.96413 -416.58251,410.46993 C -418.30442,399.01693 -408.01457,393.07092 -409.22425,388.40757 C -413.19011,396.35413 -419.85863,396.90107 -418.77106,412.91994 C -433.6463,394.75238 -416.79727,385.38679 -411.00156,375.96644 C -430.77445,390.62751 -435.29965,387.15607 -446.10331,396.40543 C -446.81199,397.16741 -450.03441,402.72674 -448.39098,407.69189 C -448.50665,409.55342 -448.69347,414.65624 -444.66643,420.92394 C -447.22166,420.53864 -449.7769,417.2754 -452.33214,414.63107 C -456.31362,406.43705 -462.18341,395.82408 -447.41148,387.51891 C -456.99479,387.54894 -462.24568,399.43649 -457.35307,409.78982 C -456.63809,411.451 -451.69712,417.9187 -447.57857,421.12274 L -459.22127,415.528 C -470.13138,407.34993 -472.52789,396.41379 -456.06963,384.66594 C -465.96504,381.4895 -464.25352,394.00063 -478.35623,394.19621 C -487.11797,393.5351 -493.17354,387.49847 -507.64867,400.86524 C -505.71209,379.83928 -481.07463,384.58989 -479.62718,377.07932 C -489.93422,383.24039 -506.2293,379.68239 -512.98885,403.80092 C -520.21953,383.91297 -506.62626,376.67719 -489.86736,369.9825 C -505.68867,371.96688 -514.66773,371.29506 -530.74122,382.65201 C -539.14191,386.83766 -545.27673,391.39305 -558.52606,391.2688 C -583.53407,391.66783 -584.83346,381.7944 -586.95466,375.52211 z"
       id="path3441"
       style="fill:#0092c5;fill-opacity:1;fill-rule:evenodd;stroke:#1b1a1c;stroke-width:1px;stroke-linecap:butt;stroke-linejoin:miter;stroke-opacity:1" />
    <path
       d="M -444.87372,314.16928 C -447.64803,312.38203 -448.26306,308.97532 -448.68564,305.42428 C -452.69967,308.41402 -451.65363,311.40377 -452.94603,314.39351 C -456.91833,313.11663 -457.71863,309.25731 -458.77603,305.64851 C -460.91026,309.09707 -463.09926,312.55932 -460.56987,314.84197 L -444.87372,314.16928 z"
       id="path3267"
       style="fill:#ffffff;fill-rule:evenodd;stroke:#1b1a1c;stroke-width:1px;stroke-linecap:butt;stroke-linejoin:miter;stroke-opacity:1" />
    <path
       d="M -462.13949,284.57082 C -461.95503,288.52349 -460.67916,292.20331 -458.10333,295.55813 C -458.01903,292.18354 -456.91015,289.21879 -453.84295,287.03736 C -453.70959,289.35441 -453.22879,291.8957 -450.70372,294.21275 C -448.13319,288.65572 -446.4619,287.59723 -444.42526,285.24352 C -450.45441,285.59116 -456.67037,288.14338 -462.13949,284.57082 z"
       id="path3269"
       style="fill:#ffffff;fill-rule:evenodd;stroke:#1b1a1c;stroke-width:1px;stroke-linecap:butt;stroke-linejoin:miter;stroke-opacity:1" />
    <path
       d="M -439.26795,256.31776 C -435.06609,267.62801 -428.66631,268.68126 -420.88104,263.26891 C -419.47467,262.70103 -418.07555,262.13211 -412.5845,262.14776 C -422.56768,259.54476 -418.50897,251.17525 -427.83219,248.69391 C -433.21373,248.13467 -436.80142,253.29367 -443.9768,254.07545 L -439.26795,256.31776 z"
       id="path3271"
       style="fill:#1b1a1c;fill-opacity:1;fill-rule:evenodd;stroke:#1b1a1c;stroke-width:1px;stroke-linecap:butt;stroke-linejoin:miter;stroke-opacity:1" />
    <path
       d="M -428.3052,264.95551 L -428.45819,262.91201 C -435.38563,260.94084 -432.14867,254.89227 -428.87031,255.65681 L -428.76756,252.26613 C -432.35669,252.18074 -436.3266,252.23736 -437.50115,254.83483 C -436.84504,261.01121 -433.61826,264.53184 -428.3052,264.95551 z"
       id="path3273"
       style="fill:#ffffff;fill-rule:evenodd;stroke:#1b1a1c;stroke-width:1;stroke-linecap:butt;stroke-linejoin:miter;stroke-miterlimit:4;stroke-dasharray:none;stroke-opacity:1" />
    <path
       d="M -392.95349,273.67391 L -392.89247,276.0536 C -388.03971,272.85819 -383.71426,267.70469 -384.10593,263.11787 C -386.51356,250.45705 -396.16756,259.20133 -397.65184,260.128 L -395.94335,261.71446 C -390.35646,256.4337 -380.36866,261.89558 -392.95349,273.67391 z"
       id="path3275"
       style="fill:#1b1a1c;fill-opacity:1;fill-rule:evenodd;stroke:#1b1a1c;stroke-width:1px;stroke-linecap:butt;stroke-linejoin:miter;stroke-opacity:1" />
    <path
       d="M -443.00402,312.95249 C -443.53376,312.2706 -445.63959,308.45301 -443.55288,306.30153 L -431.29701,306.04834 C -428.95469,306.04065 -431.89239,309.80522 -432.13479,311.91231 C -435.08221,312.79956 -438.74668,313.11317 -443.00402,312.95249 z"
       id="path3277"
       style="fill:#ffffff;fill-rule:evenodd;stroke:#1b1a1c;stroke-width:1px;stroke-linecap:butt;stroke-linejoin:miter;stroke-opacity:1" />
    <path
       d="M -444.08493,293.06984 C -443.4412,291.33538 -443.37837,289.58501 -441.53006,287.066 C -436.98671,287.04762 -435.13434,285.81487 -430.31857,287.11557 C -428.75054,288.5869 -429.20782,291.11827 -429.03816,293.28879 C -434.04278,294.17284 -439.67875,294.08586 -444.08493,293.06984 z"
       id="path3279"
       style="fill:#ffffff;fill-rule:evenodd;stroke:#1b1a1c;stroke-width:1px;stroke-linecap:butt;stroke-linejoin:miter;stroke-opacity:1" />
    <path
       d="M -476.53032,426.55921 C -471.78745,426.12197 -465.22881,423.46129 -462.83807,417.74753 C -454.54586,423.02039 -447.15864,422.86336 -439.45131,424.62697 C -458.06401,393.86408 -431.39513,391.03462 -425.94228,388.95549 C -428.70975,399.12099 -429.5234,409.20823 -416.04788,420.0379 C -415.05091,402.02936 -398.0997,395.64615 -398.66605,395.7683 C -401.39831,443.42598 -370.72003,441.88289 -368.22495,463.63823 C -353.38239,464.91988 -346.63995,474.30164 -331.27919,473.13285 C -316.61632,473.1901 -304.37453,462.61424 -301.82086,458.77431 C -292.10839,443.37517 -300.09399,418.16808 -311.78189,406.4456 C -311.67148,406.81291 -327.48484,392.83729 -333.10316,381.15158 C -343.19646,361.78974 -328.1185,347.00449 -318.07,331.30479 C -324.25405,319.0003 -317.34891,308.95256 -304.92744,299.85592 C -277.9774,285.33547 -263.43398,271.68465 -277.5346,252.67428 C -265.01109,260.51361 -248.6592,264.94441 -283.56452,303.98691 C -276.2975,301.5862 -268.58917,292.1246 -261.89346,298.86481 C -245.60635,314.3618 -258.53667,320.85642 -220.70843,314.82245 C -224.69144,321.27926 -228.42182,327.82029 -243.69542,330.51357 C -255.56889,331.87374 -250.23275,316.5636 -276.99324,326.88229 C -267.19734,327.27084 -253.3402,324.85059 -251.60761,336.0521 C -248.01122,350.49135 -256.04104,359.1855 -262.30989,365.56873 C -258.44656,355.30601 -255.3209,345.1329 -267.12383,336.46853 C -272.63655,333.10011 -283.34123,341.08033 -286.62113,343.28134 C -299.74896,350.26387 -302.47564,338.00557 -307.51764,333.43691 C -310.1555,343.42996 -315.13074,345.80529 -320.46864,350.69381 C -334.46099,369.62136 -318.22004,389.80643 -309.04177,397.08423 C -293.12113,386.86168 -292.29078,375.30387 -293.07581,370.93236 C -291.31831,373.47378 -280.61957,377.13663 -296.88199,405.89591 C -298.54471,407.94631 -297.49739,409.99672 -295.97773,412.04712 C -289.8812,423.8973 -282.78246,435.13502 -287.89541,453.83544 C -267.54533,443.0064 -250.43616,434.90988 -256.04676,417.506 C -243.99408,424.04527 -251.7782,436.48325 -261.89346,446.82274 C -254.29114,444.50522 -250.35425,438.61515 -238.94811,440.49299 C -214.85733,446.14039 -222.4468,457.72189 -224.70617,463.43834 C -229.37499,456.38477 -231.49165,446.94919 -245.27786,448.40518 C -265.60661,449.92907 -268.83736,461.92227 -279.34191,467.74424 C -284.20225,470.38522 -288.72627,469.01497 -295.49944,467.08628 C -298.30862,468.44905 -299.86641,479.47927 -316.90399,483.50199 C -334.03172,489.52693 -352.43711,480.31974 -352.88363,480.16221 C -344.41561,492.25814 -338.4336,514.9814 -336.2014,517.65766 C -328.13641,526.07493 -315.41354,525.19363 -312.6564,523.15455 C -305.36891,521.19867 -309.86117,512.89022 -291.07694,518.40723 C -282.36488,519.93404 -277.35789,508.44543 -280.61619,494.80392 C -268.42991,501.21038 -269.64195,514.18085 -277.23477,523.37109 C -276.637,524.36273 -271.88661,532.23646 -271.3445,533.1239 C -269.69263,535.82803 -265.21535,538.47373 -249.3922,534.98119 C -250.99943,539.36359 -257.39587,543.0948 -265.49975,543.55134 C -266.1986,548.25836 -264.98065,551.68751 -269.18933,558.73441 C -263.91232,560.91373 -255.98414,559.31852 -256.15504,570.57771 C -263.62406,563.22876 -269.52188,566.35441 -275.07766,571.76037 C -276.29166,573.64897 -277.23909,575.20471 -277.80945,580.95517 C -271.90177,583.21261 -263.19409,584.9134 -268.26485,596.92946 C -274.12542,587.56956 -279.986,586.80877 -285.84657,594.83898 L -288.7949,597.94555 C -282.10778,602.01486 -279.0503,607.59653 -280.09149,614.88597 C -283.41205,609.56348 -285.51182,602.5842 -297.49831,609.02262 C -301.98188,611.85776 -307.67311,611.93616 -312.15668,611.02149 C -306.74518,615.47959 -305.61804,620.54973 -304.61928,625.63822 C -306.6348,629.23624 -308.65033,629.03057 -310.66585,630.3189 C -317.99998,621.98007 -321.36244,629.25917 -326.90666,631.65981 C -332.06499,626.6124 -323.21733,616.155 -321.85119,614.80268 C -327.51791,620.5429 -332.07865,621.49073 -335.41018,631.90134 C -337.7693,637.25146 -347.74055,637.0687 -355.35396,641.8761 C -358.75214,644.02185 -351.53632,653.68305 -363.25276,652.2315 C -360.28215,642.11097 -366.70269,642.05238 -372.46421,641.28769 C -373.3799,638.53434 -371.41639,636.35683 -365.89293,634.89131 C -358.63154,634.68742 -356.94894,631.36129 -354.09128,628.01187 C -355.59555,624.96063 -367.85441,626.68921 -374.79623,626.05465 C -375.57583,630.82091 -377.88054,631.52021 -380.57629,631.17675 C -378.69846,623.84958 -379.63964,619.58295 -383.20106,617.4535 C -384.56899,616.63559 -384.86058,614.7148 -385.3236,612.97871 C -380.88055,610.3822 -376.01802,610.09275 -370.29044,614.56115 C -365.86425,619.46248 -357.49254,616.0939 -348.76929,617.92591 C -353.84997,616.69274 -351.84919,606.87006 -354.26618,606.64896 C -359.75283,608.97073 -365.94675,607.62725 -363.76081,605.44131 C -363.03673,604.6135 -360.07915,604.99334 -359.28858,604.16552 C -355.97491,600.69577 -352.54249,597.22601 -352.89196,593.75626 C -344.22726,588.2918 -346.98579,598.51302 -345.10824,604.67846 C -344.88231,607.73328 -341.5896,606.13548 -339.58511,606.81887 C -329.10158,604.61089 -326.1247,596.65818 -323.16485,586.85634 C -318.34565,573.67329 -324.45376,549.86292 -327.67022,547.54872 C -342.72943,543.55641 -366.11942,551.59746 -370.90304,532.76263 C -371.23701,578.3345 -387.40316,592.7643 -406.40165,584.27343 C -364.21468,579.82791 -392.21325,543.996 -388.12424,519.03822 C -420.51013,499.77108 -388.41772,491.19966 -426.43995,457.42376 C -442.85913,448.14612 -468.72163,447.10416 -475.93899,426.934"
       id="path3281"
       style="fill:#0092c5;fill-opacity:1;fill-rule:evenodd;stroke:#1b1a1c;stroke-width:2;stroke-linecap:butt;stroke-linejoin:miter;stroke-miterlimit:4;stroke-dasharray:none;stroke-opacity:1" />
    <path
       d="M -396.10917,637.17335 C -394.23473,630.34115 -394.56673,620.86122 -386.6895,621.23238 C -381.45183,620.60217 -381.61832,628.55963 -383.54961,630.41052 C -389.68626,624.39016 -392.29836,635.05326 -396.10917,637.17335 z"
       id="path3283"
       style="fill:#d8201f;fill-opacity:1;fill-rule:evenodd;stroke:#1b1a1c;stroke-width:1px;stroke-linecap:butt;stroke-linejoin:miter;stroke-opacity:1" />
    <path
       d="M -377.99442,659.39411 C -377.43616,654.483 -376.86646,649.57189 -373.16382,644.66078 C -367.11677,643.52484 -365.5828,649.55881 -366.88404,653.11433 C -369.51215,652.51922 -374.22435,657.13432 -377.99442,659.39411 z"
       id="path3285"
       style="fill:#d8201f;fill-opacity:1;fill-rule:evenodd;stroke:#1b1a1c;stroke-width:1px;stroke-linecap:butt;stroke-linejoin:miter;stroke-opacity:1" />
    <path
       d="M -321.95946,647.55914 C -321.96314,642.80905 -320.38128,638.05896 -322.68405,633.30887 C -319.70518,631.84609 -316.72631,631.55671 -313.74744,633.30887 C -314.32599,640.75745 -319.09625,642.96639 -321.95946,647.55914 z"
       id="path3287"
       style="fill:#d8201f;fill-opacity:1;fill-rule:evenodd;stroke:#1b1a1c;stroke-width:1px;stroke-linecap:butt;stroke-linejoin:miter;stroke-opacity:1" />
    <path
       d="M -372.69529,594.91651 C -369.96114,592.11264 -364.73904,588.51015 -356.25672,592.73184 C -356.61615,595.33663 -357.06908,596.71533 -360.60426,599.00254 C -362.87858,595.08761 -367.83657,594.95484 -372.69529,594.91651 z"
       id="path3289"
       style="fill:#d8201f;fill-opacity:1;fill-rule:evenodd;stroke:#1b1a1c;stroke-width:1px;stroke-linecap:butt;stroke-linejoin:miter;stroke-opacity:1" />
    <path
       d="M -304.08624,535.2477 L -303.12557,537.41929 C -296.80361,534.836 -285.92146,530.75499 -286.22613,539.92923 C -286.4802,547.70109 -289.26133,553.60218 -297.80647,553.60398 L -297.56494,555.04444 C -283.7254,554.58715 -293.40247,567.84418 -297.56494,567.85425 L -297.80647,570.14606 C -283.39778,567.06912 -297.94287,587.14134 -306.01848,599.97774 L -303.9682,600.45862 C -298.05947,586.29791 -281.59239,575.49463 -291.77585,567.85207 C -286.71252,563.73307 -282.87662,559.05241 -288.51138,553.48267 C -274.63342,530.51461 -290.85661,529.18307 -304.08624,535.2477 z"
       id="path3291"
       style="fill:#1b1a1c;fill-opacity:1;fill-rule:evenodd;stroke:#1b1a1c;stroke-width:1px;stroke-linecap:butt;stroke-linejoin:miter;stroke-opacity:1" />
    <path
       d="M -582.09915,539.27042 C -567.41097,537.55687 -571.05777,550.42716 -559.68922,553.81576 C -519.74952,568.37102 -526.77687,551.77059 -497.67669,552.84608 C -493.6206,552.08066 -490.6549,555.13159 -487.88461,558.86648 C -488.24436,552.44222 -490.27894,550.73896 -494.98077,548.26719 L -493.54213,544.93389 C -488.03552,544.5599 -487.27378,547.31128 -482.34607,549.25287 C -481.43642,547.01797 -485.0227,544.03585 -489.14388,541.74516 C -508.19476,531.15607 -530.9399,510.24115 -504.00644,487.17491 C -510.36523,487.09257 -517.63283,485.79847 -522.21042,488.09106 C -565.93368,526.46953 -567.70632,497.7377 -576.25127,493.19531 C -536.94415,511.8653 -551.90492,472.20947 -506.3801,476.52022 C -500.51378,471.66817 -502.59438,468.26255 -488.11067,467.33495 C -450.55392,480.48059 -455.05737,469.4745 -435.17039,473.17966 C -413.03366,483.39645 -417.77776,498.71006 -417.51689,502.72191 C -416.03383,508.40827 -454.34875,510.70779 -458.87698,520.14051 C -461.67728,525.97378 -458.7497,533.37379 -452.57721,537.81292 C -446.14944,540.848 -447.5311,546.05237 -451.78599,552.05486 C -451.22909,561.10469 -446.25787,567.01879 -433.36428,562.23719 C -440.59415,576.92164 -447.14972,570.68419 -454.95087,567.08802 C -465.19989,585.83393 -456.00298,596.41496 -443.13256,598.85694 C -456.12298,606.6716 -461.3398,593.58367 -465.59722,597.20787 C -463.87624,600.56157 -466.7628,605.83672 -472.77174,610.46823 C -472.1021,593.84123 -483.83696,595.34152 -485.36103,594.64385 C -486.89036,594.61774 -486.54379,607.3934 -495.73374,606.97615 C -485.67596,592.78328 -499.83651,590.61564 -505.038,588.74481 C -503.69804,595.99245 -506.95358,598.15143 -513.8116,599.73501 C -503.25747,578.53766 -524.14183,590.92007 -526.48776,576.78967 C -529.68248,579.83837 -527.97199,583.13911 -527.74301,586.86849 C -528.96374,591.3406 -531.44407,592.66371 -535.05059,591.17136 C -537.02201,580.96836 -544.66904,583.81929 -552.47781,587.0422 C -557.34889,583.94243 -542.14583,570.40709 -542.27883,570.45992 C -548.79672,573.04931 -561.0242,580.97152 -568.08233,596.35015 C -568.7621,597.83126 -572.87454,598.48924 -573.99778,597.24119 C -576.9437,595.77914 -573.87718,590.43382 -577.40166,587.83073 C -584.46506,582.61388 -590.9873,587.94053 -589.18443,583.13608 C -588.50691,578.07459 -576.45795,575.55945 -572.05126,569.46167 C -580.84323,571.25781 -584.37346,574.93314 -600.60534,574.07216 C -600.2948,580.55222 -606.18558,582.41144 -607.72631,580.31506 C -606.6104,573.97274 -598.92359,562.30983 -612.52717,562.33355 L -610.82099,559.17583 C -612.12187,549.84308 -598.70945,560.37545 -590.72461,562.29322 C -586.36036,563.34141 -582.38365,562.91654 -579.96345,561.72795 C -577.50835,560.88319 -574.52535,552.89904 -580.82012,549.6812 C -589.41766,545.88202 -595.75696,558.73412 -594.02693,542.37581 C -587.7011,542.4492 -584.85552,543.55768 -582.09915,539.27042 z"
       id="path3293"
       style="fill:#0092c5;fill-opacity:1;fill-rule:evenodd;stroke:#1b1a1c;stroke-width:1px;stroke-linecap:butt;stroke-linejoin:miter;stroke-opacity:1" />
    <path
       d="M -413.67066,502.36274 L -409.03638,495.77718 C -408.45126,479.73113 -417.55967,476.95428 -425.62222,468.94713 L -429.52478,471.63013 C -419.44574,477.51144 -411.97726,485.86625 -413.67066,502.36274 z"
       id="path3295"
       style="fill:#0092c5;fill-opacity:1;fill-rule:evenodd;stroke:#1b1a1c;stroke-width:1px;stroke-linecap:butt;stroke-linejoin:miter;stroke-opacity:1" />
    <path
       d="M -623.85171,585.27059 C -619.37805,577.45944 -614.90439,577.60586 -610.43073,579.23115 C -606.7976,571.46891 -607.58641,567.39163 -611.10178,565.58648 C -627.09593,568.43984 -624.46566,579.95685 -623.85171,585.27059 z"
       id="path3297"
       style="fill:#d8201f;fill-opacity:1;fill-rule:evenodd;stroke:#1b1a1c;stroke-width:1px;stroke-linecap:butt;stroke-linejoin:miter;stroke-opacity:1" />
    <path
       d="M -579.11512,596.67841 C -573.04977,591.91278 -588.82323,585.28488 -591.41769,587.7311 C -595.1764,591.27505 -588.88696,618.69893 -583.81247,614.34937 C -584.13754,608.16945 -581.17805,602.37722 -579.11512,596.67841 z"
       id="path3299"
       style="fill:#d8201f;fill-opacity:1;fill-rule:evenodd;stroke:#1b1a1c;stroke-width:1px;stroke-linecap:butt;stroke-linejoin:miter;stroke-opacity:1" />
    <path
       d="M -601.03605,529.34985 C -597.67907,532.27333 -590.68209,533.17459 -592.08873,538.74453 C -589.01101,539.33482 -585.63653,540.37025 -584.93088,537.40243 C -588.137,528.12877 -596.9352,527.91419 -601.03605,529.34985 z"
       id="path3301"
       style="fill:#d8201f;fill-opacity:1;fill-rule:evenodd;stroke:#1b1a1c;stroke-width:1px;stroke-linecap:butt;stroke-linejoin:miter;stroke-opacity:1" />
    <path
       d="M -548.69424,589.96793 C -547.38206,597.27982 -549.65504,602.20159 -551.82581,607.19151 C -546.9653,603.21546 -541.07475,601.557 -538.40483,592.65212 C -541.31887,590.21011 -544.05293,587.22813 -548.69424,589.96793 z"
       id="path3305"
       style="fill:#d8201f;fill-opacity:1;fill-rule:evenodd;stroke:#1b1a1c;stroke-width:1px;stroke-linecap:butt;stroke-linejoin:miter;stroke-opacity:1" />
    <path
       d="M -507.11897,577.83657 C -502.97023,584.73473 -494.77915,582.53618 -490.97267,580.88385 C -475.36696,591.74785 -468.22832,580.93045 -462.76017,567.32448 L -465.75055,567.21137 C -466.40394,571.11412 -473.67941,593.80166 -488.43228,577.58501 L -493.69195,577.23258 C -496.56132,585.07951 -503.43793,577.90017 -503.50223,577.76436 L -507.11897,577.83657 z"
       id="path3307"
       style="fill:#1b1a1c;fill-opacity:1;fill-rule:evenodd;stroke:#1b1a1c;stroke-width:1px;stroke-linecap:butt;stroke-linejoin:miter;stroke-opacity:1" />
  </g>
</svg>
