<svg enable-background="new 0 0 1786.417 2023.75" height="564.32922" viewBox="0 0 500.00481 564.31527" width="500.00006" xmlns="http://www.w3.org/2000/svg"><path d="m492.15622 325.35628c1.64232 114.37622-87.03159 231.22936-244.64413 231.22936-160.166163 0-238.9998333-146.47741-239.5478213-232.00751-.5044241-79.21178 0-316.8471237 0-316.8471237h484.2029013c0 .0088-1.15077 238.2436137 0 317.6362337z" fill="#0f47af" stroke="#000" stroke-width="5.479888"/><path d="m211.14755 397.49353c8.51411 10.34076 31.95323 26.66951 56.62698 26.66951 70.69055 0 59.76146-27.43012 80.00636-34.15943 20.63288-6.85665 55.29426-6.84986 75.07447-6.84986 2.64404 0 9.55232 1.31627 10.25375 3.83593 1.75992 6.32181 1.31111 12.04808.0254 16.93943-2.96078 12.09959-4.76443 30.62709-22.74153 55.34687-5.20809 7.16199-16.03306 18.13185-44.52957 25.80369-43.19796 11.63052-131.42964 10.12333-175.71809 3.82716-21.48993-1.21895-40.00538-5.76868-53.76319-19.37689-14.67733-14.4943-26.22455-33.26292-28.62693-54.85368.41537-5.13115 0-12.9139 0-17.99157z" fill="#fcdd09" stroke="#000" stroke-width="3.287933"/><path d="m389.68231 383.79381s-1.2823 52.52801-17.69675 99.57175" fill="none" stroke="#000" stroke-width="2.739944"/><path d="m403.9629 383.30062-2.20237 20.96605s11.12527.85113 10.13012 6.63198c-.59084 3.43205-12.01411 6.46298-12.01411 6.46298l-4.57592 19.52593s12.37907 1.58588 11.32693 6.0555c-1.08017 4.58612-13.36655 5.91696-13.83343 5.10123 0 0-7.15345 24.57401-11.15267 31.34277" fill="none" stroke="#000" stroke-linejoin="round" stroke-width="2.739944"/><path d="m107.216 396.04683c34.47726 2.66564 68.95672 4.06257 103.43288.68499l-.95898-36.03026s-73.53133.54004-76.17044 0c-28.12279-5.75663-101.925914-52.88092-101.925914-52.88092-8.722009-5.34289-14.430737-.45648-7.397849 4.38391 0 0 49.368312 27.12216 61.785738 40.41417 7.989677 8.55192 21.234565 43.42811 21.234565 43.42811z" fill="#fcdd09" stroke="#000" stroke-width="2.739944"/><path d="m94.273602 351.07887c30.755318 24.51045 69.515668 17.62223 108.477668 17.75484l.41534 20.26024c-40.76817 1.88114-73.83053 2.88703-88.39936-4.86592-9.40184-5.00401-12.13795-17.72305-20.492585-33.15113z" fill="none" stroke="#000" stroke-linejoin="round" stroke-width="2.739944"/><path d="m124.8174 372.83403h8.70294v9.31581c-2.60569-.13845-1.68255-4.84587-1.84968-7.26852-2.62553.3409-6.54957.3198-6.85315-2.04729z" stroke-width="1.095978"/><path d="m342.55527 392.59451s5.73876-17.21124 10.43974-32.49793c2.75726-8.96598 5.15679-17.26932 5.83224-21.05154 1.3417-7.5138 66.58064-20.81042 95.04537-22.63632 2.61007-.16741 4.27234 1.19878 4.87327 3.74441.6469 2.74082-4.93826 8.61789-6.84986 10.68578-5.25083 5.6799-20.1923 6.16619-25.20749 12.05575-1.19483 1.4034-2.12707 3.58516-2.87804 6.22318-3.4737 12.20042-3.08211 34.16162-6.98488 34.06079-53.0234-1.376-74.26892 9.41642-74.26892 9.41642z" fill="#fcdd09" stroke="#000" stroke-width="3.013938"/><path d="m352.09028 362.97023s45.17839-12.42071 71.70981-12.42071" fill="none" stroke="#000" stroke-width="3.013938"/><path d="m349.13114 372.45044s32.81905-11.28638 72.90443-14.40663" fill="none" stroke="#000" stroke-width="3.013938"/><path d="m346.172 383.08142c0-.66866 45.33511-10.55185 74.29413-10.95978" fill="none" stroke="#000" stroke-width="3.013938"/><path d="m392.89352 326.34266 25.94179-231.793787c2.00893-13.083781 8.76782-8.882679 6.94083 0l-21.43184 229.278517-11.44749 2.50321z" fill="#fcdd09" stroke="#000" stroke-width="2.46595"/><path d="m417.22423 104.92011s-7.01075-6.044098-13.80932 2.63802c-3.27862 4.18663 1.20831 7.90638-1.54062 10.40905-4.81901 4.38719-15.42369 9.77502-15.22203 9.53116l11.62503-1.39298c1.06294-.12737-6.50046 10.2726-6.50046 10.2726s6.31524-2.02844 12.65197-6.4369c2.29837-1.59903 1.16414-12.90514 3.03344-14.35621 3.62714-2.8159 8.89408.13001 8.53855-.34417z" fill="#fcdd09" stroke="#000" stroke-width="1.917961"/><path d="m360.25531 207.6702c-8.93605 3.67284-7.29209 11.98452 3.28771 8.21962 16.55146-5.88979 117.12713-42.74094 117.12713-42.74094 10.56939-3.72687 7.28113-12.58621 0-9.86325 0 0-114.85845 42.09869-120.41506 44.3849z" fill="#fcdd09" stroke="#000" stroke-width="1.917961"/><path d="m419.2189 164.45581 26.50074 11.66119" fill="none" stroke="#000" stroke-width="1.917961"/><path d="m418.61612 171.04263 18.66449 8.176" fill="none" stroke="#000" stroke-width="1.917961"/><path d="m411.08676 163.75439-37.67972 38.98391" fill="none" stroke="#000" stroke-width="1.917961"/><path d="m409.88116 174.37439-22.19354 23.0813" fill="none" stroke="#000" stroke-width="1.917961"/><path d="m366.53526 214.7831c-19.20481 14.10085-28.49542 109.90463-20.12653 113.58712.97651.4288 34.05421-16.96464 55.07287-17.80964 33.45143-1.34531 49.59299.274 49.59299.274-10.68688-34.97265-12.60374-94.25408 26.51827-137.1616l-111.05541 41.11231z" fill="#fcdd09" stroke="#000" stroke-width="1.917961"/><ellipse cx="391.63123" cy="217.26053" fill="#fcdd09" rx="1.917961" ry="2.054958" stroke-width=".273994"/><path d="m419.85457 209.94984c0 1.13488-1.16524 2.42013-2.60295 2.42013-1.4377 0-2.60294-1.28536-2.60294-2.42013 0-1.13489 1.16524-2.69414 2.60294-2.69414 1.43771 0 2.60295 1.55936 2.60295 2.69414z" fill="#fcdd09" stroke-width="1.095978"/><path d="m383.9613 253.56975v3.28795" fill="none" stroke="#fcdd09" stroke-width=".821983"/><path d="m389.71521 259.87161v3.28794" fill="none" stroke="#fcdd09" stroke-width=".821983"/><path d="m399.30499 250.00781v3.28794" fill="none" stroke="#fcdd09" stroke-width=".821983"/><path d="m409.44278 245.34991v3.28794" fill="none" stroke="#fcdd09" stroke-width=".821983"/><path d="m406.97684 256.30969v3.28794" fill="none" stroke="#fcdd09" stroke-width=".821983"/><path d="m392.72913 253.29575v3.28793" fill="none" stroke="#fcdd09" stroke-width=".821983"/><path d="m418.2106 246.17189v3.28793" fill="none" stroke="#fcdd09" stroke-width=".821983"/><path d="m424.78647 240.966v3.28794" fill="none" stroke="#fcdd09" stroke-width=".821983"/><path d="m265.55188 423.88467 36.29659-396.152072c2.00893-13.083781 8.76782-8.88268 6.94083 0l-29.25713 396.415102z" fill="#fcdd09" stroke="#000" stroke-width="2.46595"/><path d="m300.7766 39.188852c-11.07375 4.725308-17.80525 21.702549-28.76393 23.188694-6.47262 0-2.64832-14.851592-9.98545-16.437472-5.6467-1.219933-20.94194 7.845556-20.94194 9.386829-8.44012 6.422977-12.25303 11.036494-17.67264 16.95587 0 0 13.85097-7.820897 13.44545-6.855121l-5.84265 13.880556s17.08629-20.784119 21.73542-20.784119c15.28889 0 4.66427 18.337897 14.62802 19.445931 6.68437.743072 32.03323-23.97999 32.03323-23.97999z" fill="#fcdd09" stroke="#000" stroke-width="1.917961"/><path d="m220.26609 172.59892c-10.25068 4.06717-11.2261 13.16488 3.28771 8.21961 16.63037-5.66598 165.07615-75.34517 165.07615-75.34517 13.09255-5.30366 9.16895-13.76548 0-9.863252-.00027 0-162.79651 74.704022-168.36408 76.989142z" fill="#fcdd09" stroke="#000" stroke-width="1.917961"/><path d="m303.1001 104.131 58.85397 3.71208" fill="none" stroke="#000" stroke-width="1.917961"/><path d="m302.60687 110.81647 46.68866 3.30108" fill="none" stroke="#000" stroke-width="1.917961"/><path d="m294.63913 106.05664-63.19406 61.51173" fill="none" stroke="#000" stroke-width="1.917961"/><path d="m293.78427 115.22449-47.45584 45.6913" fill="none" stroke="#000" stroke-width="1.917961"/><path d="m229.87781 178.27608c-19.20372 14.10304-29.83032 178.75395-21.46143 182.42548.97651.4288 32.67657-30.04952 79.27425-30.04952 25.50778 0 56.02638 15.8851 67.53633 17.01944 1.09401.10784 2.89174-7.6713 2.89174-7.6713-6.42736-26.675-38.94228-119.83419 26.46128-232.62124z" fill="#fcdd09" stroke="#000" stroke-width="1.917961"/><path d="m238.45932 306.17667c-5.47989 8.08284-.68499 11.64476 4.38391 4.9319l107.13181-169.87653c2.87694-4.52091.0912-6.80405-1.91796-3.83592z" stroke-width="1.095978"/><path d="m345.2185 136.93581c-.43094.0251-.83243.3297-.97274.73792-.14034.40823-.011.89528.31345 1.18004 0 0 1.81439 1.64046 3.52773 4.04142 1.71335 2.40095 3.20574 5.49961 2.81689 8.21983-1.42642 9.98304-10.02688 23.92519-18.39161 37.8715-8.36504 13.94522-16.53282 27.90579-16.68735 38.9927-.096 6.85292 3.98717 13.84877 7.94584 20.43779 3.95867 6.58989 7.76609 11.79272 7.76609 16.34321 0 0 1.96071.96713 1.98427-.20766 0-5.68506-3.93456-10.70573-7.87514-17.26603-3.94059-6.55998-7.71218-13.34901-7.6291-19.28263.14023-10.00102 8.02014-23.96575 16.37171-37.88795 8.35113-13.9222 17.13451-27.79947 18.6919-38.69349.52481-3.67284-1.33556-7.18797-3.20245-9.80374-1.86678-2.61599-3.85291-4.39246-3.85291-4.39246-.21483-.1994-.5122-.30696-.80489-.29112z" fill="none" stroke="#000" stroke-width="1.369972"/><path d="m338.11656 153.51795c-.57111.0307-1.06362.57608-1.03606 1.14738 0 0 .39077 10.75757.50519 23.01553s-.0765 26.11934-1.12162 31.8513c-5.59036 30.65449-24.02383 41.74359-24.02383 41.74359-1.33063.93153 2.18308 2.30572 1.54555 1.66742 0 0 18.90123-11.56694 24.63538-43.01712 1.14464-6.27721 1.27068-19.9709 1.15593-32.26339-.11475-12.29248-.50519-23.0758-.50519-23.0758-.0129-.58575-.5709-1.10245-1.15593-1.07028z" fill="none" stroke="#000" stroke-width="1.369972"/><path d="m333.16274 310.28659c5.47989 8.08283.68499 11.64476-4.38391 4.9319l-81.37634-121.65352c-2.87694-4.52091-.0913-6.80405 1.91796-3.83592z" stroke-width="1.095978"/><g stroke="#000"><path d="m251.30417 199.28597s-3.48433 2.028-7.08111 5.24009-7.4167 7.61705-7.90309 12.65526c-.45845 4.75051 2.92757 9.39088 6.19063 14.51293 3.26294 5.12238 6.49893 10.68885 6.49893 16.93614 0 2.70663-1.67904 6.23524-4.34117 9.88956-2.66213 3.65421-6.24927 7.44037-9.84681 10.84853-7.19488 6.81611-14.40115 12.11603-14.40115 12.11603l1.13017 1.54117s7.29132-5.34673 14.58966-12.2618c3.6496-3.45726 7.30469-7.3071 10.07773-11.11321 2.77304-3.80655 4.70942-7.56137 4.70942-11.02006 0-6.90411-3.50932-12.80869-6.79835-17.97184-3.28903-5.16337-6.25343-9.62104-5.89943-13.28873.40118-4.15649 3.83132-8.3428 7.2694-11.41351 3.4383-3.07071 6.77292-5.01738 6.77292-5.01738l-.96753-1.65252z" fill="none" stroke-width="1.369972"/><path d="m252.9591 186.4192c-.3403.0114-.66712.21907-.82198.52228-1.28449 2.38902-3.32465 4.51488-4.65791 7.31237-1.33325 2.79748-1.82655 6.28926-.0428 11.01128l.009.0257.009.0256c.5019 1.14946 1.54379 3.26327 2.48304 5.65108.93934 2.38791 1.75028 5.04094 1.80661 7.00384l.009.0514v.0428c.29043 2.31175-.55665 4.45603-2.14921 6.81567-1.59246 2.35975-3.91133 4.85978-6.31886 7.7319-4.81551 5.7438-9.98458 13.04542-10.17199 23.94931-.0795 4.62009 1.48231 10.4748 3.0397 15.24066 1.55738 4.76619 2.71846 7.80227 2.71846 7.80227.66375 1.19582 2.59451.0771 2.59451.0771s-1.96049-3.8003-3.48938-8.47881c-1.52867-4.67851-3.01668-10.46089-2.94544-14.60719.17739-10.31698 4.98889-17.09944 9.7268-22.7503 2.36896-2.82543 4.71819-5.34487 6.43887-7.89433 1.70173-2.52162 2.78839-5.14759 2.4574-8.03132h.009c-.00082-.025-.008-.0521-.009-.0771-.00019-.005.0002-.0116 0-.0171-.0889-2.39317-.96424-5.11438-1.92651-7.5606-.96577-2.4551-2.02898-4.62196-2.49159-5.67694-.002-.007-.007-.011-.009-.0171-.002-.005-.007-.0202-.009-.0257-1.61898-4.31322-1.15669-7.0342 0-9.46135 1.16086-2.43559 3.15971-4.54447 4.6064-7.2351.16614-.29449.16034-.6783-.0147-.96762-.17498-.2893-.5122-.47269-.85015-.46228z" fill="none" stroke-width="1.369972"/><path d="m160.04212 360.94267 31.93131-265.818409c2.00914-13.083781 8.76782-8.882679 6.94104 0l-24.89184 265.763609-13.9792.0384z" fill="#fcdd09" stroke-width="2.46595"/><path d="m191.20076 102.22948s-4.62919-3.574856-6.34078-3.81071c-6.46736-1.894288-9.46026.268788-12.80649 1.67739-10.36554 6.0783-15.27355 18.30283-25.476 18.5286-10.12245-1.2504-18.4212-1.64561-27.35122-6.47032-2.20456-.44294 11.32254 7.84303 15.02804 10.41036 2.29739 1.59158-14.47348 4.15924-14.47348 4.15924s15.97716 1.72912 20.6274 1.72912c18.19103 0 28.27403-20.03885 38.23866-18.93082 6.68436.74307 9.98052 8.31956 9.98052 8.31956z" fill="#fcdd09" stroke-width="1.917961"/><path d="m184.04404 161.09116-155.519231 145.19509" fill="#fcdd09" stroke-width="3.835922"/><path d="m182.32333 173.27841-146.024754 137.50138" fill="#fcdd09" stroke-width="3.835922"/><path d="m180.73418 130.06403c3.65344-2.0942 19.27824-1.62698 20.53862.32983.54423 3.38087-3.29999 16.28404-6.47197 17.848-2.99257 1.47518-8.94669.31825-11.09568-.93114-2.54815-1.48177-4.96204-16.1043-2.9701-17.24631z" fill="#fcdd09" stroke-width="1.917961"/><path d="m118.61416 245.24032c-10.56719 4.1623-11.01676 13.10131 3.28772 8.21961 16.62707-5.67475 117.12713-42.74094 117.12713-42.74094 23.04621-8.84508 16.28294-16.27855 0-9.86325 0-.00027-114.85846 42.09869-120.41506 44.3849z" fill="#fcdd09" stroke-width="1.917961"/><path d="m189.9075 189.69617 37.72356 15.33271" fill="none" stroke-width="1.917961"/><path d="m189.27184 196.30492 29.13108 12.11055" fill="none" stroke-width="1.917961"/><path d="m180.89856 187.35078-55.21533 55.20438" fill="none" stroke-width="1.917961"/><path d="m121.9021 253.44919c-15.82811 11.62174-19.92159 73.68476-15.67139 96.69262l8.57164 4.08252c6.8457-8.77823 21.92723-27.9014 37.52628-28.1469 32.61848-.51072 75.93809 18.13186 75.93809 18.13186-10.68687-34.97265-13.97481-97.82697 14.81433-135.61627z" fill="#fcdd09" stroke-width="1.917961"/><path d="m179.64915 197.68584-39.08256 39.35656" fill="none" stroke-width="1.917961"/><path d="m148.52339 255.13699c-3.74035.62898-1.42258 5.80233 1.48845 6.64141 3.35643 1.45721 7.04494.11266 10.5512.43773 1.82962-.49072 5.93472 1.03044 6.08158-1.38466-3.36849-.78448-7.02938.13006-10.50769-.005-3.04901.50123-7.74144-.40715-7.02938-4.47509-.26837-.28052.41086-.96613-.58421-1.2138z" fill="#dc281e" stroke-width=".547989"/></g><path d="m188.00051 312.20455-8.29053-4.22883-5.21488 5.62291-10.42329 1.19922c-3.41671-3.09833-3.98224-8.0973-5.18376-12.67279-.75693 1.53897-5.10374-10.40653-4.97847-11.24363.0197-.11338 2.94544-17.88088 2.94544-17.88088.0776-.53409-.17706-1.35254.54371-1.37227.83924.12286 1.60221.88275 2.24336 1.40636l.94761.78987c1.6512-1.02697 4.15814-.67354 5.70676-1.90415-2.46771-1.37929.36233-1.55169 1.35221-4.15102-.16815-1.231-2.22483-.4525-4.21787.43782-1.10628.49423-2.61664.72587-4.09917.62871-1.26191-.0826-1.45645-.13431-2.2667-.60129-1.15626-.66624-1.50588-1.24788-1.50905-2.51033-.001-.70326.0533-.95375.24828-1.13018.1378-.1247.31416-.22672.39198-.22672.0778 0 .17579-.37904.21781-.84229.0631-.69622.1414-.89816.45132-1.16448.61145-.52538.60131-.53566 1.30466 1.32175.38443 1.01523.55018 1.30147.75348 1.30147.23132 0 .25538-.0883.2139-.7851-.0959-1.61043.23934-2.27525 1.05672-2.09562.38524.0846.51391.38485.99959 2.33279.0939.37674.18252.70438.19685.72806.0142.0237.24812.001.51954-.0495.58559-.10985.60677-.25524.16406-1.12634l-.51505-1.98788c1.20338.0196 1.93308.63926 2.47976 1.6923.34359.79866.41312.8496.76406.55933 1.07-1.47836.18218-3.02983-.27182-4.54085-.0913-.70296-1.33029-1.54621-1.85351-1.04474 0 .35027-.45122 1.59125-.57859 1.59125-.56849.73126-.58827.8268-1.05743.14389-.25065-.21739-.31154-.42141-.32704-1.09598l-.0191-.82889h-.85308c-.95312 0-.9044-.0336-2.13179 1.47278-.38372.47094-.77301.85623-.86507.85623-.41001-.3711-.85295-.65987-1.01776-1.64397h-3.83318l-.47403-.65074c-.35236-.48368-.49522-.84415-.55654-1.40416-.13264-1.21161-.1636-1.28449-.95602-2.25125-.72543-.88502-.75601-.95476-.75601-1.72386 0-.77787.0172-.8153.58224-1.27134 1.18552-.77159 2.62103-1.21028 3.97456-1.61339 1.77549-.55593 3.51721-1.21434 5.18639-2.04158.74252-.12901 1.48505-.49045 2.22757-.31795l1.34214-1.27034c1.77559-1.68068 1.4548-1.58764 7.78472-2.25892 1.84629-.19581 2.05485-.24863 2.05551-.5207.001-.60215 1.31134-2.05112 2.61774-2.89557.68384-.44198.97444-.54884 1.49251-.54884 1.30311 0 2.48808.57808 2.9679 1.44768.16345.29633.30216.64458.30825.7739.01.21751.0444.21566.45627-.0246.46906-.27351 2.1216-.5531 3.26909-.5531.42502 0 .89711.11025 1.2573.29366 1.17094.64373 2.33663 1.67016 2.24588 3.09965-.18003 2.09594-.59166 3.24606-1.5267 4.26554l-.55347.60345 1.47278-.082c1.59684-.0889 1.69164-.0424 1.19878.58761-.41138.89719-1.15823 1.59234-1.64397 2.44688 0 .16509 1.76365.3089 2.51878.20537.73603-.10094.75666-.0492.39197.98337-.39389 1.11526-.92127 1.89045-1.5119 2.22242-.30019.16873-.63813.30676-.75093.30676-1.24448.65891 1.30301 3.37562 1.81801 3.69367 1.25073.53938 2.46595 1.8042 2.46595 2.56667 0 .32433-.0262.33493-.58224.23655-.63205-.11183-.76253-.11925-1.44976-.0825l-.45642.0244c1.41984 1.46291 3.44192 1.75159 5.11186 2.84077.61903.42897 1.21226 1.33929 1.21226 1.86031 0 .27258-.3946.30479-.72926.0595-.1434-.1051-.53078-.15272-1.00293-.12328l-.76927.048 1.15801 1.18497c1.58029 1.53887 2.88736 3.31862 4.35761 4.95273 1.06118 1.16579 1.64375 1.93999 1.64375 2.18439 0 .21002-.91008.17659-1.34729-.0495-.38732-.20029-1.39277-.43277-1.39277-.32205 0 .15459.48793 1.03902.8136 1.47475 1.15461 1.51814 1.72463 3.25088 2.36709 5.00039.33563.85065.75549 2.4654.87465 3.36356.0819.61742.0654.67778-.18546.67778-.26402 0-1.12995-.75483-1.12995-.98498 0-.061-.15413-.11097-.3425-.11097-.33847 0-.34238.0134-.3325 1.13017.005.62162.0638 1.46927.12966 1.88377.0658.41442.18839 1.36997.27236 2.12345.084.75349.24141 1.68364.34984 2.06702.10839.38335.19713.73784.19713.78773 0 .1639-.53188.0947-.64394-.0838-.17332-.2761-.75294-.5953-1.26191-.69493-.43549-.0853-.45346-.0751-.26342.14924.24803.29277.93629 1.89177.93629 2.1753 0 .11217.17539.6167.38979 1.12118.21437.50448.43275 1.14749.4853 1.42894.0525.28142.26985.70252.48294.9358.26137.28616.41434.63227.47018 1.06381.0455.35181.12234.7784.17073.94791.12809.44875-.30756.3962-.89777-.10828-.66477-.56821-.88265-.53862-.76217.10357.28953 1.54324 1.45897 2.60733 4.73002 4.30368.6452.3346.89048.53725.89048.73579 0 .20875-.11418.29032-.47949.34249-.26137.0374-1.28339 9.33718-1.28339 9.33718l-3.94771-.38735" stroke-width="1.095978"/><path d="m169.44561 251.73946c.45685-.53374.47735-.59344.25848-.75348-.33849-.24751-.44302-.21796-.53577.15149-.14586.5812-1.32153.86015-1.76331.41839-.1184-.11841-.21528-.39005-.21528-.60366 0-.32094-.0476-.37592-.27399-.31674-.21353.0559-.274.18687-.274.59372 0 .75304.46821 1.08994 1.51476 1.08994.76269 0 .81171-.022 1.28908-.57966z" fill="#f4f0e8" stroke-width="1.095978"/><path d="m168.55786 250.46813c0-.11302-.0925-.2055-.20549-.2055-.11303 0-.2055.0925-.2055.2055 0 .11303.0925.20549.2055.20549.11302 0 .20549-.0925.20549-.20549z" fill="#f4f0e8" stroke-width="1.095978"/><path d="m155.01158 292.58655c.32339-.49396.33819-.57139.11434-.59813-2.07534-.0547-4.15265-.51566-6.20652-.63748-.53812.1136-1.40033-.0504-1.44778-.27544-.0259-.12258.21279-.50755.53036-.85552.68033-.74537.64504-.80434-.75272-1.25763-1.39112-.1664-2.56173-1.25161-3.94573-1.34334-1.00151-.1726-.33537-.69715.14407-1.18234-.9575-.51089-2.03161-.73634-2.75638-1.61525-2.01474-2.2872-.36993-4.83853-1.84234-5.27823-.73967-.22093-.10477-2.87607-3.27719-1.73011-.1062.52938-1.85987.40389-1.85987.40389-.81749-.67014-1.64003 2.16762-1.64003 2.16762-1.31451.20785-.62646-3.55075-.62646-3.55075.42285-.1502 1.63476-1.89187.93537-2.68547-.24313-.2758-.71321 1.23703-1.72398 1.26958-1.39233.27206-1.06244 3.01744-1.86721 3.45397-.47635.12426-1.57887-2.08542-1.03729-3.5183.0448-1.13368 1.28492-2.17837 1.53798-2.95717-.44617-.77108-.9621.34044-1.9767.16886 0 0-1.09439.85486-.94413 2.01166.25693 1.97813-.001 3.23993-.53944 3.8493-.30461.34521-1.39628-3.20662-1.5153-3.77104-.5584-2.49708 1.026-5.89746 2.93042-6.2679.85098-.49314 1.38368-1.30454 2.60536-1.42696.76039-.95739 6.53806-1.96926 9.40842 1.76014 1.1613-.0967 1.82426-.10544 2.33115-.46245 1.38465 3.30854 1.99511-.41556 2.81995 1.07932.17164.3474.60388.99652.96051 1.44252l1.3737 1.83631c.0643-.38912.11155-.77748.0848-1.17138-.0712-.33747.43614-.38134.6418-.0555 1.16349 1.62599 2.80812 2.24533 4.4374 2.96812.52407.2564.56585.21465.38006-.37951-.17532-.56065-.024-.71244.53067-.5321 1.2709.48234 3.24212 1.20854 4.80828 1.78228" stroke-width="1.095978"/><path d="m125.69418 277.19902c-.35694-.92993-.71381-2.03304-1.07077-3.65453.35608-.47265.71217-.6851 1.06825-.46308.39512 1.8065.39581 4.66251.002 4.11759z" fill="#f4f0e8" stroke-width="1.095978"/><path d="m128.59852 278.11964c-.48972-.62794-.44913-2.49707.2772-4.23727l1.04819.43752c.0624-.56761-1.38663 3.61146-1.32537 3.79975z" fill="#f4f0e8" stroke-width="1.095978"/><path d="m131.78782 278.99643c.12348-1.30367.18694-2.08686 1.11044-2.99071l1.47124.18393s-2.11502 2.81425-2.58168 2.80658z" fill="#f4f0e8" stroke-width="1.095978"/><path d="m183.86867 244.72521c-1.26662.65238-3.14677-1.24986-3.53453 3.06194l1.35661.4174c1.59662 0 3.27861-3.27062 2.17781-3.47951z" fill="#f4f0e8" stroke-width="1.095978"/><path d="m177.96135 279.18274c-.33102.2957-.67572-.97898-.70082-.35411-.51933 12.9435-4.86888 23.43639-15.66919 30.19966l.32463.93285c12.76156-9.44624 14.41101-17.23096 16.04511-30.77725z" fill="#f4f0e8" stroke-width="1.095978"/><path d="m202.75237 265.18711c0 3.20957-2.60185 5.81142-5.81143 5.81142-1.60473 0-3.05755-.65046-4.10936-1.70216-.14418-.14418-3.28629.13622-6.64492 1.01648-5.88342 1.54182-20.48053.63145-20.48053.63145-.22186-1.34016-.52616-3.05142 1.51497-3.91812.005.0388 7.71075.86993 14.64445-.066 4.85354-.65512 9.26408-1.42521 9.26408-1.77296 0-3.20957 2.60185-5.81142 5.81142-5.81142 3.20947 0 5.81143 2.60185 5.81143 5.81142z" fill="#ffd200" stroke="#000" stroke-linejoin="round" stroke-width="1.095978"/><path d="m199.53019 265.19807c0 1.51321-1.22673 2.73994-2.73994 2.73994-1.51322 0-2.73995-1.22673-2.73995-2.73994 0-1.51322 1.22673-2.73995 2.73995-2.73995 1.51321 0 2.73994 1.22673 2.73994 2.73995z" fill="#f4f0e8" stroke="#000" stroke-linejoin="round" stroke-width="1.095978"/><path d="m164.29451 273.62614c1.02783 6.92548-2.52535 14.60499-9.21114 19.36592l.50866.52108c5.60812-4.19233 10.06195-11.42447 9.40404-20.09804 0 0-.23375.41867-.70132.20999z" fill="#f4f0e8" stroke-width="1.095978"/><g fill="none" stroke="#000" transform="matrix(.2739944 0 0 .2739944 2.511417 6.231592)"><path d="m886.76 1017.1c0 9.0205-8.0589 16.333-18 16.333s-18-7.3125-18-16.333c0-9.0204 8.0589-16.333 18-16.333s18 7.3126 18 16.333z" stroke-width="4" transform="translate(0 .000004)"/><path d="m882.25 1031.6c-5.135-4.1809-11.409-4.6004-17.726-4.8751-9.3459.6331-14.228 4.2512-18.761 8.1025.98674-5.2874 2.5211-9.3487-1.1107-17.724-3.9337-8.14-8.0521-12.803-13.234-15.98 6.0519-1.0318 8.1775.6285 18.298-5.9963 8.1462-6.5511 6.6217-11.262 8.5483-17.72 3.4459 5.4261 3.1772 12.84 11.228 15.802 5.7827 2.261 13.795 5.4774 20.963 2.6923-5.1584 4.8852-10.534 9.7158-10.837 15.822-2.3513 10.279 1.0413 14.058 2.6314 19.876z" stroke-linecap="round" stroke-linejoin="round" stroke-width="6" transform="matrix(.99880127 -.04894927 .04894927 .99880127 -40.733144 51.729765)"/></g><path d="m338.93854 269.13263c.3636 2.44468-1.52571 4.75128-4.21973 5.15197-2.69413.40072-5.17301-1.25621-5.53666-3.7009-.36362-2.44469 1.52571-4.75128 4.21973-5.15197 2.69414-.40071 5.17302 1.25621 5.53666 3.7009z" fill="none" stroke="#000" stroke-width="1.095978"/><path d="m340.94418 274.87555c-1.60363-.84862-3.31204-.62553-5.02418-.36118-2.47745.67039-3.59568 1.90393-4.60749 3.1814-.0179-1.47365.17706-2.64711-1.24722-4.70338-1.49272-1.97682-2.84899-3.00934-4.41153-3.58549 1.57098-.6012 2.23108-.26883 4.59598-2.59068 1.8384-2.19645 1.17654-3.38054 1.3486-5.21904 1.21643 1.27363 1.54106 3.28026 3.86311 3.64522 1.67487.29805 4.00009.73346 5.77711-.39863-1.12469 1.58884-2.31065 3.17483-2.06526 4.83162-.0816 2.8879 1.0323 3.72194 1.77099 5.20019z" fill="none" stroke="#000" stroke-linecap="round" stroke-linejoin="round" stroke-width="1.643966"/><path d="m314.38865 254.79724c1.19878 2.16138.23947 4.98451-2.14253 6.30571-2.382 1.32109-5.2848.63986-6.48359-1.52155-1.19867-2.16138-.23947-4.9845 2.14253-6.30571 2.382-1.32109 5.28481-.63983 6.48359 1.52155z" fill="none" stroke="#000" stroke-width="1.095978"/><path d="m318.31225 259.4661c-1.79949-.23159-3.32082.57704-4.83129 1.42565-2.08444 1.49755-2.6983 3.04518-3.19752 4.59653-.53407-1.37348-.76354-2.54069-2.81907-3.96612-2.09178-1.3269-3.72413-1.81746-5.38947-1.80858 1.25993-1.1145 1.99468-1.03499 3.39402-4.03923.95022-2.70202-.0851-3.57837-.56958-5.36043 1.5861.76549 2.59462 2.53051 4.89683 2.05704 1.6729-.30895 4.00306-.71759 5.26946-2.4015-.49527 1.88256-1.04907 3.78386-.23744 5.24918.93746 2.73282 2.27327 3.12244 3.48411 4.24746z" fill="none" stroke="#000" stroke-linecap="round" stroke-linejoin="round" stroke-width="1.643966"/><path d="m292.2499 64.303179c3.65344-2.094194 18.24035-2.249932 19.49963-.293196.54423 3.380872-1.4308 16.076895-4.6031 17.640855-2.99257 1.475186-9.77744 1.148914-11.92643-.100435-2.54826-1.481762-4.96204-16.104295-2.9701-17.246304z" fill="#fcdd09" stroke="#000" stroke-width="1.917961"/><path d="m408.53312 131.58744c3.65344-2.0942 18.24036-2.24994 19.49964-.2932.54423 3.38087-2.26155 16.0769-5.43386 17.64086-2.99257 1.47518-8.94668 1.14891-11.09568-.1005-2.54815-1.48177-4.96204-16.1043-2.9701-17.24631z" fill="#fcdd09" stroke="#000" stroke-width="1.917961"/><g fill="#ffd200" stroke="#000" stroke-width="5" transform="matrix(.2739944 0 0 .2739944 -.472886 .959841)"><path d="m807.25 1432.2-8.1875 19.344 74.906 31.844 8.22-19.3-74.94-31.8z"/><path d="m822.5 1386.9-8.3438 19.281 72.469 31.469 8.375-19.25-72.5-31.5z"/><path d="m835.91 1345.4-7.4375 19.625 71.406 27.062 7.4375-19.625z"/><path d="m848.81 1304.7-7.3125 19.688 69.438 25.75 7.3125-19.688z"/><path d="m862.97 1264.2-6.0312 20.094 68.875 20.719 6.0625-20.125-68.906-20.688z"/><path d="m903.94 1229.7-29.442 13.522 67.101 18.437 5.1875-20.375z"/><path d="m940.76 1218.9-83.515 290.33 17.945 9.4147 87.305-306.22z"/><path d="m858.78 1251.1-71.585 207.47 16.148 15.025 78.375-233.24s-23.597 10.737-22.938 10.745z"/></g><g fill="#ffd200" stroke="#000" stroke-width="5" transform="matrix(-.2739944 0 0 .2739944 553.96772 2.865603)"><path d="m807.25 1432.2-8.1875 19.344 74.906 31.844 8.22-19.3-74.94-31.8z"/><path d="m822.5 1386.9-8.3438 19.281 72.469 31.469 8.375-19.25-72.5-31.5z"/><path d="m835.91 1345.4-7.4375 19.625 71.406 27.062 7.4375-19.625z"/><path d="m848.81 1304.7-7.3125 19.688 69.438 25.75 7.3125-19.688z"/><path d="m862.97 1264.2-6.0312 20.094 68.875 20.719 6.0625-20.125-68.906-20.688z"/><path d="m874.38 1222.9-5.1875 20.344 72.406 18.437 5.1875-20.375z"/><path d="m945.31 1196.9-83.515 307.01 16.429 7.1409 86.547-315.31z"/><path d="m868.63 1213.2-72.343 230.97 14.632 17.299 80.649-254.46z"/></g><path d="m227.44474 343.60431s48.0093 45.87543 94.9281 69.39182" fill="none" stroke="#000" stroke-width="2.739944"/><path d="m140.6214 374.0396h8.70293v9.31581c-2.60568-.13844-1.68254-4.84586-1.84968-7.26852-2.62552.3409-6.54956.31981-6.85315-2.04729z" stroke-width="1.095978"/><path d="m157.13778 374.45608h8.70294v9.31581c-2.60569-.13845-1.68255-4.84587-1.84968-7.26853-2.62553.34091-6.54957.31981-6.85315-2.04728z" stroke-width="1.095978"/><path d="m172.91986 374.2588h8.70293v9.31581c-2.60568-.13844-1.68254-4.84587-1.84968-7.26852-2.62552.3409-6.54956.3198-6.85315-2.04729z" stroke-width="1.095978"/><path d="m188.59234 374.1492h8.70293v9.31581c-2.60568-.13844-1.68254-4.84586-1.84968-7.26852-2.62552.3409-6.54956.3198-6.85315-2.04729z" stroke-width="1.095978"/><path d="m377.21008 341.62059-9.28128-1.91073-2.27021 10.77017c2.8125.41198 2.97536-5.23274 3.74386-7.99735 2.71704.9706 6.90685 1.80771 7.80774-.86217z" stroke-width="1.095978"/><path d="m392.2469 337.67507-9.28129-1.91073-2.27021 10.77017c2.8125.41198 2.97536-5.23274 3.74386-7.99735 2.71704.9706 6.90685 1.80771 7.80775-.86217z" stroke-width="1.095978"/><path d="m407.54674 334.20082-9.28128-1.91073-2.27021 10.77017c2.8125.41198 2.97536-5.23274 3.74386-7.99735 2.71704.9706 6.90685 1.80771 7.80774-.86217z" stroke-width="1.095978"/><path d="m424.1508 330.89097-9.28128-1.91073-2.27021 10.77017c2.8125.41198 2.97536-5.23274 3.74386-7.99735 2.71704.9706 6.90685 1.80771 7.80774-.86217z" stroke-width="1.095978"/><path d="m157.25834 262.95131c-.41245.66658-.74872 1.24602-.3102 2.84209l1.12162-.29067c.0624.5676-.94601-2.43669-.8848-2.62498z" fill="#f4f0e8" stroke-width="1.095978"/><path d="m160.10788 262.57868c-.41245.66657-.74872 1.24602-.3102 2.84209l1.12163-.29068c.0624.56761-.94602-2.43668-.88481-2.62497z" fill="#f4f0e8" stroke-width="1.095978"/><path d="m162.37655 262.50196c-.0453.96028.13237 1.02573.64429 2.40173l.97477-.36411c-.45456-.58057-.78392-1.33841-1.61909-2.03764z" fill="#f4f0e8" stroke-width="1.095978"/><path d="m156.95146 260.46344c-.41245-.398-.74872-.74395-.31019-1.69701l1.12162.17356c.0624-.3389-.94601 1.45491-.8848 1.56725z" fill="#f4f0e8" stroke-width="1.095978"/><path d="m161.79568 260.16753c-.41245-.398-.74871-.74395-.31019-1.69701l1.12162.17356c.0624-.3389-.94601 1.45491-.8848 1.56725z" fill="#f4f0e8" stroke-width="1.095978"/><path d="m449.33637 320.79701s-48.38412 7.80161-85.57393 18.12199l-1.94997 15.35684c40.32431-7.65781 55.07069-9.63068 55.07069-9.63068 8.16459-11.93301 35.85052-15.43575 32.45299-23.84848z" fill="none" stroke="#000" stroke-linejoin="round" stroke-width="2.739944"/><path d="m144.23812 403.15973c25.89357 10.9806 52.56418 14.18962 79.27645 16.97998" fill="none" stroke="#000" stroke-linecap="round" stroke-width="2.73997"/><path d="m132.22621 453.85965c64.72295 38.3932 160.62648 26.64432 234.98856 20.26792" fill="none" stroke="#000" stroke-linecap="round" stroke-linejoin="round" stroke-width="2.73997"/><path d="m122.70216 435.85274c68.4438 41.91676 182.97346 30.01006 247.54846 24.62114" fill="none" stroke="#000" stroke-linecap="round" stroke-linejoin="round" stroke-width="2.73997"/><path d="m120.0499 418.13078c68.4438 41.91676 188.02591 36.41715 254.24488 26.07989" fill="none" stroke="#000" stroke-linecap="round" stroke-linejoin="round" stroke-width="2.73997"/><path d="m124.47764 405.73528c68.44381 41.91676 187.00667 32.62287 251.59263 23.47584" fill="none" stroke="#000" stroke-linecap="round" stroke-linejoin="round" stroke-width="2.73997"/><path d="m325.33746 420.4981c24.01397-1.23408 32.2053-3.34975 52.9675-5.25763" fill="none" stroke="#000" stroke-linecap="round" stroke-width="2.73997"/><path d="m339.74957 405.25305c6.16158-.92087 31.26605-3.03652 43.25823-5.25763" fill="none" stroke="#000" stroke-linecap="round" stroke-width="2.73997"/><g transform="matrix(-.78844569 0 0 .79665302 531.31033 78.277917)"><path d="m164.85 200.75c-2.1936-4.2394-4.6076-9.6839-8.6536-13.46l3.1416-1.3456c-.40618-2.373-2.9779-4.5602-4.7583-6.0171l5.0286-.62589c-2.394-3.8208-4.788-5.039-7.182-6.5538 2.7356-4.2623.87016-5.1355-.26931-6.7326-2.4212.0944-3.4462 6.6078-8.6177 6.4633-2.63.17907-3.8166 1.1472-3.9481 2.6921 2.9203.40216 6.5636 1.8829 7.0252 3.5926.42553 1.576-1.6653 4.6974-3.0771 6.6419l-4.7583 5.0262c2.6948-1.7144 5.3682-3.708 8.5286.62915 4.1846 6.6277 1.172 8.2173 1.0772 11.849-2.9028 2.6078-5.376 1.7331-7.8098.53861-1.526 2.2492-4.1302 4.3074-5.6563 3.6816-.50016-6.1463 2.1473-14.437-1.3456-19.301-2.8522-.8523-7.2064-10.509-10.593-11.041-2.1427 2.9405 1.8148 14.89.53954 18.584-1.5151 1.798-6.185-4.5514-8.7083-3.4118-1.2225 3.4381 4.5017 10.091 7.0929 15.08-1.2134 1.5546-7.5951-2.0147-9.2469-.98621.3504 3.8114 5.3995 6.0048 8.7983 8.4371-.24094 3.4062-7.4662 6.1261-9.1573 7.8089.92538 2.5498 7.6009 3.1722 11.401 4.2197-.99449 6.2426-7.4054 9.877-8.4385 14.364 3.8531 1.5719 13.884-4.5735 16.249-5.3884 1.1666 4.7815-5.6476 13.174-9.6959 19.302 2.5274 3.8247 18.782-10.787 19.03-10.952 2.2273 1.2671-1.1999 5.273-.44853 7.092 1.7852 1.0933 5.3168-6.2382 7.9895-6.5529.0863 6.1766-4.5384 8.4274-7.0033 12.478 7.5729 1.1547 8.0245-.80126 9.1572 6.3727.71091-3.5118 1.2113-7.3393 3.7702-8.0791 2.016 4.01-.26309 9.9966.62822 12.03.80091 1.9464 3.755-1.8728 5.5658-3.143-.39312 6.2263-2.9868 9.7019-5.2073 13.644 5.8557-.44561 8.9633 2.4164 9.5482 9.1583" stroke="#000" transform="translate(.61717 -.207082)"/><path d="m145.01 256.9c-2.9835 4.2051-6.3775 7.85-10.602 10.063-2.6954-2.4621-5.3907-2.444-8.0861-3.3243.36848 1.7263-.66866 2.3281-1.4375 3.1446 1.9039.98697 4.4935.89651 4.8516 4.3126-.98059 2.0297-1.9654 4.0466-3.4141 4.672 1.258 1.063 2.213 2.3533 2.5157 4.1329l2.5157-3.5938c2.8166.52951 1.9167 3.7136 2.8751 5.5704.90898-.52855 1.0306-1.8444 3.2344-1.0782-.007-2.2761-1.0088-4.5522.71876-6.8283 1.3473-.50975 2.7945-.8531 4.8517-.17969-.55891-1.5516.87231-2.1771 1.8868-3.504-2.0228-.20717-4.342-.27063-5.4806-2.2461l9.883-7.7267c1.0824-2.9164-2.4191-2.432-4.3126-3.4141z" fill="#dc281e" stroke="#000" transform="translate(.61717 -.207082)"/><path d="m145.5 270.4c1.8564 2.3915.6198 4.7829.74127 7.1744-.91955-1.5232-1.5595-3.8947-2.9615-3.9544-.71377-1.9488 1.0539-2.3082 2.2202-3.22z" fill="#dc281e" stroke="#000" stroke-linejoin="round" transform="translate(.61717 -.207082)"/><path d="m126.09 263.36c-4.2589.11542-5.3329 2.3628-6.7864 4.6571 2.0321-.0842 4.1216-3.5527 5.2699-1.0356 2.0736-.91436 1.7256-2.066 1.5165-3.6215z" fill="#dc281e" stroke="#000" stroke-linejoin="round" transform="translate(.61717 -.207082)"/><path d="m126.08 276.12c-2.2899 3.88-.81953 6.0702.48055 8.6262 1.0657-1.8672-.96047-5.6346 2.0093-5.2887.3227-2.3579-.93623-2.675-2.4898-3.3375z" fill="#dc281e" stroke="#000" stroke-linejoin="round" transform="translate(.61717 -.207082)"/><path d="m134 280.94c.88172 3.9735 3.4018 4.5525 6.0385 5.4787-.45087-1.8904-4.4176-3.1893-2.0158-4.7465-1.3182-1.771-2.4488-1.2249-4.0227-.7322z" fill="#dc281e" stroke="#000" stroke-linejoin="round" transform="translate(.61717 -.207082)"/><path d="m186.1 178.06c0 .29925-.22641.54185-.50571.54185-.27931 0-.50572-.2426-.50572-.54185s.22641-.54184.50572-.54184c.2793 0 .50571.24259.50571.54184z" transform="matrix(-1.9773806 0 0 1.8455551 512.02373 -149.60774)"/><g stroke="#000"><path d="m185.82 178.63c1.2875-2.4406 3.2159-4.2413 5.8519-3.766 3.4.69566 3.4141 4.8225 3.829 7.3061-2.6963-2.9338-5.7298-4.1103-7.1523-3.3141-.33714 1.3323 7.8433 4.5902 7.1523 5.5737-1.0114 1.4252-7.5136-4.5192-8.0915-3.992-.87731 2.9166 5.1341 8.2067 4.1902 9.7164-4.8962-1.7312-6.8522-7.5022-5.7797-11.524z" fill="#dc281e" stroke-width=".510531" transform="matrix(-1 0 0 1 330.46687 .53907)"/><path d="m164.85 200.75c-2.1936-4.2394-4.6076-9.6839-8.6536-13.46l3.1416-1.3456c-.40618-2.373-2.9779-4.5602-4.7583-6.0171l5.0286-.62589c-2.394-3.8208-4.788-5.039-7.182-6.5538 2.7356-4.2623.87016-5.1355-.26931-6.7326-2.4212.0944-3.4462 6.6078-8.6177 6.4633-2.63.17907-3.8166 1.1472-3.9481 2.6921 2.9203.40216 6.5636 1.8829 7.0252 3.5926.42553 1.576-1.6653 4.6974-3.0771 6.6419l-4.7583 5.0262c2.6948-1.7144 5.3682-3.708 8.5286.62915 4.1846 6.6277 1.172 8.2173 1.0772 11.849-2.9028 2.6078-5.376 1.7331-7.8098.53861-1.526 2.2492-4.1302 4.3074-5.6563 3.6816-.50016-6.1463 2.1473-14.437-1.3456-19.301-2.8522-.8523-7.2064-10.509-10.593-11.041-2.1427 2.9405 1.8148 14.89.53954 18.584-1.5151 1.798-6.185-4.5514-8.7083-3.4118-1.2225 3.4381 4.5017 10.091 7.0929 15.08-1.2134 1.5546-7.5951-2.0147-9.2469-.98621.3504 3.8114 5.3995 6.0048 8.7983 8.4371-.24094 3.4062-7.4662 6.1261-9.1573 7.8089.92538 2.5498 7.6009 3.1722 11.401 4.2197-.99449 6.2426-7.4054 9.877-8.4385 14.364 3.8531 1.5719 13.884-4.5735 16.249-5.3884 1.1666 4.7815-5.6476 13.174-9.6959 19.302 2.5274 3.8247 18.782-10.787 19.03-10.952 2.2273 1.2671-1.1999 5.273-.44853 7.092 1.7852 1.0933 5.3168-6.2382 7.9895-6.5529.0863 6.1766-4.5384 8.4274-7.0033 12.478 7.5729 1.1547 8.0245-.80126 9.1572 6.3727.71091-3.5118 1.2113-7.3393 3.7702-8.0791 2.016 4.01-.26309 9.9966.62822 12.03.80091 1.9464 3.755-1.8728 5.5658-3.143-.39312 6.2263-2.9868 9.7019-5.2073 13.644 5.8557-.44561 8.5043 2.9554 9.0891 9.6974" transform="matrix(-1 0 0 1 329.8497 -.746152)"/><path d="m145.01 256.9c-2.9835 4.2051-6.3775 7.85-10.602 10.063-2.6954-2.4621-5.3907-2.444-8.0861-3.3243.36848 1.7263-.66866 2.3281-1.4375 3.1446 1.9039.98697 4.4935.89651 4.8516 4.3126-.98059 2.0297-1.9654 4.0466-3.4141 4.672 1.258 1.063 2.213 2.3533 2.5157 4.1329l2.5157-3.5938c2.8166.52951 1.9167 3.7136 2.8751 5.5704.90898-.52855 1.0306-1.8444 3.2344-1.0782-.007-2.2761-1.0088-4.5522.71876-6.8283 1.3473-.50975 2.7945-.8531 4.8517-.17969-.55891-1.5516.87231-2.1771 1.8868-3.504-2.0228-.20717-4.342-.27063-5.4806-2.2461l9.883-7.7267c1.0824-2.9164-2.4191-2.432-4.3126-3.4141z" fill="#dc281e" transform="matrix(-1 0 0 1 329.8497 -.746152)"/><path d="m145.5 270.4c1.8564 2.3915.6198 4.7829.74127 7.1744-.91955-1.5232-1.5595-3.8947-2.9615-3.9544-.71377-1.9488 1.0539-2.3082 2.2202-3.22z" fill="#dc281e" stroke-linejoin="round" transform="matrix(-1 0 0 1 329.8497 -.746152)"/><path d="m126.09 263.36c-4.2589.11542-5.3329 2.3628-6.7864 4.6571 2.0321-.0842 4.1216-3.5527 5.2699-1.0356 2.0736-.91436 1.7256-2.066 1.5165-3.6215z" fill="#dc281e" stroke-linejoin="round" transform="matrix(-1 0 0 1 329.8497 -.746152)"/><path d="m126.08 276.12c-2.2899 3.88-.81953 6.0702.48055 8.6262 1.0657-1.8672-.96047-5.6346 2.0093-5.2887.3227-2.3579-.93623-2.675-2.4898-3.3375z" fill="#dc281e" stroke-linejoin="round" transform="matrix(-1 0 0 1 329.8497 -.746152)"/><path d="m134 280.94c.88172 3.9735 3.4018 4.5525 6.0385 5.4787-.45087-1.8904-4.4176-3.1893-2.0158-4.7465-1.3182-1.771-2.4488-1.2249-4.0227-.7322z" fill="#dc281e" stroke-linejoin="round" transform="matrix(-1 0 0 1 329.8497 -.746152)"/></g><path d="m186.1 178.06c0 .29925-.22641.54185-.50571.54185-.27931 0-.50572-.2426-.50572-.54185s.22641-.54184.50572-.54184c.2793 0 .50571.24259.50571.54184z" transform="matrix(1.9773806 0 0 1.8455551 -181.55686 -150.14681)"/><path d="m185.82 178.63c1.2875-2.4406 3.2159-4.2413 5.8519-3.766 3.4.69566 3.4141 4.8225 3.829 7.3061-2.6963-2.9338-5.7298-4.1103-7.1523-3.3141-.33714 1.3323 7.8433 4.5902 7.1523 5.5737-1.0114 1.4252-7.5136-4.5192-8.0915-3.992-.87731 2.9166 5.1341 8.2067 4.1902 9.7164-4.8962-1.7312-6.8522-7.5022-5.7797-11.524z" fill="#dc281e" stroke="#000" stroke-width=".510531"/></g></svg>