<?xml version="1.0" encoding="utf-8"?>
<!-- Generator: Adobe Illustrator 18.0.0, SVG Export Plug-In . SVG Version: 6.00 Build 0)  -->
<!DOCTYPE svg PUBLIC "-//W3C//DTD SVG 1.1//EN" "http://www.w3.org/Graphics/SVG/1.1/DTD/svg11.dtd" [
	<!ENTITY st0 "fill:#FFFFFF;">
	<!ENTITY st1 "fill:#FCDD09;">
	<!ENTITY st2 "fill:#DA121A;">
	<!ENTITY st3 "fill:#0F47AF;">
	<!ENTITY st4 "fill:none;stroke:#FFFFFF;stroke-width:0.75;stroke-linecap:round;stroke-linejoin:round;stroke-miterlimit:10;">
	<!ENTITY st5 "fill:none;stroke:#000000;stroke-linecap:round;stroke-linejoin:round;stroke-miterlimit:10;">
	<!ENTITY st6 "fill:none;stroke:#000000;stroke-width:2;stroke-linecap:round;stroke-linejoin:round;stroke-miterlimit:10;">
	<!ENTITY st7 "fill:none;stroke:#000000;stroke-width:1.75;stroke-linecap:round;stroke-linejoin:round;stroke-miterlimit:10;">
	<!ENTITY st8 "fill:none;stroke:#000000;stroke-width:2.5;">
	<!ENTITY st9 "fill:none;stroke:#000000;stroke-width:1.5;stroke-linecap:round;stroke-linejoin:round;stroke-miterlimit:10;">
	<!ENTITY st10 "fill:none;stroke:#000000;stroke-width:3.5;stroke-linecap:round;stroke-linejoin:round;stroke-miterlimit:10;">
	<!ENTITY st11 "fill:none;stroke:#000000;stroke-width:1.958;stroke-miterlimit:10;">
]>
<svg version="1.1" id="Ebene_1" xmlns="http://www.w3.org/2000/svg" xmlns:xlink="http://www.w3.org/1999/xlink" x="0px" y="0px"
	 width="544.25px" height="581.1px" viewBox="0 0 544.25 581.1" style="enable-background:new 0 0 544.25 581.1;"
	 xml:space="preserve">
<path d="M458.834,28.566c8.271,2.24,20.553,6.641,25.154,3.684c3.131-2.006,4.307-5.221,4.209-9.586
	c-0.586-3.75,1.713-2.314,3.18-0.387c14.684,21.029,23.98,35.984,48.94,56.33c3.426,2.789,2.449,3.426-1.957,3.426
	c-29.363,0-33.279,15.66-33.279,47.471c0,0-7.34,154.943-10.766,232.462c-1.957,40.18-9.395,65.336-26.328,98.174
	c-15.223,29.463-37.586,53.541-65.041,74.584c-30.441,23.002-83.443,43.066-124.211,43.066c-49.381,0-101.308-20.064-135.613-46.004
	c-33.474-25.447-63.327-59.02-79.33-101.158c-9.152-24.176-11.354-43.164-13.37-73.066L34.643,123.191
	C29.377,87.906,27.908,83.99,5.397,80.076c-4.406-0.785-4.614-1.371-0.98-4.895c22.616-21.828,32.521-40.053,42.089-53.344
	c1.469-2.076,3.044-4.436,2.937-0.031c-0.122,4.943,1.479,9.998,5.833,11.012c3.573,0.842,8.907-1.311,13.753-2.691
	C199.206-7.066,340.154-3.641,458.834,28.521v0.029V28.566z"/>
<path style="&st0;" d="M45.934,32.1c5.329,9.807,14.039,5.363,27.449,1.771C214.672-4.004,364.967,5.529,467.789,34.934
	c13.703,3.91,16.199,5.328,23.588-2.441l23.004,33.895c-92.008-47.473-308.029-91.813-492.336-0.148L45.934,32.1z"/>
<path style="&st0;" d="M481.627,350.782l-0.04,1.41c0,27.9-5.53,55.79-16.25,81.59c-10.67,25.74-26.42,49.37-46.2,69.15
	c-19.72,19.57-43.36,35.72-69.1,46c-25.79,10.77-53.69,16.15-81.58,16.15c-27.9,0-55.8-5.38-81.59-16.15
	c-25.74-10.28-49.38-26.43-69.1-46c-19.77-19.78-35.53-43.41-46.2-69.15c-10.71-25.8-16.25-53.69-16.25-81.59l-0.03-1.41
	c4.75-1.61,10.02-2.79,16.69-2.79c21.02,0,28.1,11.7,49.12,11.7s28.1-11.7,49.12-11.7c21.02,0,28.1,11.7,49.12,11.7
	s28.1-11.7,49.12-11.7s28.09,11.7,49.12,11.7c21.02,0,28.09-11.7,49.11-11.7s28.1,11.7,49.12,11.7s28.1-11.7,49.12-11.7
	C471.597,347.992,476.867,349.172,481.627,350.782z"/>
<path style="&st1;" d="M513.397,66.871l-0.98,0.35c-28.14,11.74-23.49,41.2-24.47,62.3l-4.83,169.23
	c-5.15-1.87-10.81-3.311-18.19-3.311c-21.02,0-28.1,11.7-49.12,11.7s-28.1-11.7-49.12-11.7s-28.09,11.7-49.11,11.7
	c-21.03,0-28.1-11.7-49.12-11.7s-28.1,11.7-49.12,11.7s-28.1-11.7-49.12-11.7c-21.02,0-28.1,11.7-49.12,11.7s-28.1-11.7-49.12-11.7
	c-7.26,0-12.86,1.4-17.95,3.23l-4.13-170.96c-0.13-21.15-1.16-51-25.27-60.45l-1.12-0.63
	C207.967-24.008,421.247,19.902,513.397,66.871z"/>
<path style="&st2;" d="M476.685,397.55c-2.7,12.38-6.49,24.52-11.36,36.23c-0.22,0.54-0.45,1.07-0.67,1.61H72.235
	c-0.23-0.54-0.46-1.07-0.68-1.61c-4.87-11.71-8.66-23.85-11.35-36.23H476.685z"/>
<path style="&st2;" d="M443.855,473.22c-7.31,10.61-15.59,20.57-24.73,29.71c-2.8,2.78-5.68,5.49-8.64,8.13h-284.09
	c-2.96-2.64-5.84-5.35-8.64-8.13c-9.13-9.14-17.41-19.1-24.73-29.71H443.855z"/>
<path d="M445.557,125.675c6.12,7.54,23.42,27.01,34.77,26.38c0.27,5.16-5.7,14.97-13.47,14.97c-11.55,0-22.53-10.98-25.48-13.93
	c-0.87-0.87-1.81,0-1.24,1.16c1.9,3.82,26.97,48.36,38.23,51c-0.62,3.39-6.44,13.55-16.89,13.55c-14.76,0-33.63-37.04-36.69-42.64
	c-1.16-2.13-3.13-1.17-2.47,0.94c2.18,7,36.45,88.79,54.24,92.87c-1.11,4.33-6.3,14.09-17.48,14.09c-23.43,0-52.84-74.17-54.98-81.1
	c-1.45-4.68-6.05-2.08-4.91,2.81c0.81,3.47,16.63,78.79,37.12,88.28c-2.63,2.7-9.31,7.58-18.96,7.58
	c-25.94,0-37.79-65.03-41.52-81.07c-0.85-3.64-4.2-3.61-4.2-0.27c0,11,0,54.5,11.4,67.77c-39.08,14.66-36.52-33.44-35.37-63.04
	c0.14-3.56-4.38-3.9-5.01,0c-0.7,4.32-7.28,42.32-1.96,56.6c-12.15,4.5-25.51-4.82-26.08-24.01c-0.27-9.09,1.98-20.37,5.08-34.42
	c1.33-6.02-1.63-8.31-3.31-9.87c-9.29,28.82-25.41,63.64-25.41,75.71c0,8.13,3.37,10.23,8.88,14.95
	c-9.73-3.46-17.53-8.55-31.39-8.55c-13.86,0-21.65,5.09-31.38,8.55c5.5-4.72,8.88-6.82,8.88-14.95c0-12.07-11.51-41.04-22.7-69.17
	c-2.66,1.58-5.06,3.35-3.73,9.37c3.09,14.06,4,18.86,3.73,27.95c-0.57,19.18-11.57,27.87-25.98,24.44
	c6.68-16.09-1.58-50.75-2.28-55.08c-0.63-3.89-5.15-3.55-5.01,0c1.15,29.61,3.58,78.29-34.32,60.08
	c10.88-8.98,10.39-55.33,10.39-66.33c0-3.34-3.35-3.37-4.2,0.27c-3.73,16.04-13.89,81.07-39.84,81.07c-9.65,0-16.21-5.67-18.84-8.37
	c21.63-11.01,34.02-83.74,34.84-87.21c1.14-4.89-3.19-8.19-4.63-3.51c-2.14,6.93-28.23,82.43-55.54,82.43
	c-11.19,0-16.38-10.67-17.49-15c19.84-4.32,51.99-84.47,54.18-91.47c0.66-2.11-1.32-3.07-2.48-0.94
	c-3.06,5.6-20.68,41.24-36.62,41.24c-12.67,0-16.25-10.5-16.5-13.96c14.68-1.48,36.64-46.42,38.54-50.24
	c0.58-1.16-0.36-2.03-1.24-1.16c-2.94,2.95-13.45,13.83-21.85,13.83c-7.77,0-16.56-9.89-16.29-15.05
	c11.35,0.63,29.43-20.69,35.55-28.229c0.99-1.21,0.37-2.771-1.63-1.66c-2.67,1.49-11.46,7.69-19.67,7.69
	c-10.88,0-15.88-12.32-15.88-18.99c15.26,3.96,46.28-21.98,51.4-26.16c1.11-0.9,0.08-1.83-0.97-1.4
	c-4.14,1.71-22.5,11.08-35.95,11.08c-15.49,0-15.16-14.69-14.73-20.43c26.7,6.55,55.86-21.98,80.68-21.98
	c13.27,0,21.24,9.96,23.55,14.47c1.93,3.77,0.82,5.47-1.48,6.92c-22.58,14.26-31.72,40.47-31.72,49.37c0,4.35,1.56,8.04,5.68,8.04
	c8.31,0,12.82-10.85,26.94-10.85c5.47,0,10.76,1.92,12.86,3.71c1.75,1.49,6.75,7.14,2.51,12.26c-5.38,6.5-14.76,20.35-14.76,28.57
	c0,6.16,2.07,9.62,7.63,9.62c9.97,0,19.71-12.53,31.62-12.53c7.62,0,14.19,3.12,20.11,8.45c3.17-5.39,7.6-9.6,11.09-9.78
	c-0.87-4.21-3.9-18.71,1.78-31.44c-4.2,9.7-16.81,21.38-29.1,19.9c12.14-0.58,24.9-19.9,25.68-38.91
	c-2.72,5.06-15.49,15.26-22.66,7.39c12.66,1.32,18.36-8.43,18.36-16.62c0-4.79-1.91-10.64-4.46-12.12c1.31-2.15,2.09-4.57,2.09-7.22
	c0-5.38-8.2-13.48-12.85-14.84c-1.7-0.49-2.15-1.33-2.21-2.47c-0.32-5.87-6.49-16.46-14.33-16.46c0-8.7,7.76-10.06,13.24-10.06
	c5.49,0,15.47,1.88,23.56,1.88c8.1,0,21.94-5,26.73-5c-2.63,2.73-18.83,11.75-27.81,11.75c10.96,0,17.76,17.9,35.66,25.4
	c-4.49,0-18.66-3.88-22.24-8c6.36,10.18,18.64,25.88,25.6,32.67c-4.27-1.24-12.38-6.36-15.59-10.271
	c6.06,7.99,16.08,33.32,16.08,44.59c0-11.27,12.85-37.54,19.02-45.57c-3.2,3.91-11.31,9.1-15.59,10.34
	c6.96-6.79,20.7-23.52,24.89-33.24c-3.59,4.12-17.6,9.06-22.09,9.06c17.9-7.5,24.85-25.33,35.8-25.33
	c-8.98,0-24.76-8.95-27.38-11.68c4.79,0,18.63,5.21,26.73,5.21c8.09,0,18.07-2.23,23.56-2.23c5.48,0,14.5,0.87,14.5,9.57
	c-7.85,0-13.7,12.18-13.7,17.91c0,1.61-0.31,2.33-1.99,2.33c-4.25,0-15.29,9.83-15.29,15.92c0,2.96,1.71,5.78,4.33,8.2
	c-2.55,1.48-5.2,4.28-5.2,9.07c0,8.19,9.57,18.97,17.27,15.42c-6.92,9.15-20.02-4.08-22.74-9.14c0,23.35,15.6,39.15,27.74,39.73
	c-14.27,5.13-28.24-12.67-32.44-22.37c5.69,12.73,3.05,32.42,2.18,36.63c5.28,0.3,9.68,3.38,12.26,9.26
	c5.92-5.34,11.43-8.44,19.05-8.44c11.91,0,20.24,11.92,30.21,11.92c5.57,0,7.29-4.09,7.29-10.25c0-8.22-8.02-21.57-13.77-27.75
	c-4.82-5.19,0.09-9.55,1.84-11.04c2.1-1.8,6.6-4.72,12.07-4.72c14.12,0,20.18,8.41,28.49,8.41c5,0,6.13-3.71,6.13-9.4
	c0-8.89-10.17-34.5-31.92-45.42c-2.43-1.22-2.67-2.16-0.74-5.93c2.3-4.51,12.11-15.24,25.37-15.24c24.83,0,53.25,28.65,79.95,22.1
	c0.43,5.75-2.82,20.66-18.31,20.66c-10.22,0-30.84-8.45-34.98-10.15c-1.05-0.44-2.08,0.49-0.97,1.4
	c5.12,4.18,36.03,28.69,51.29,24.74c0,6.67-3.48,18.95-14.36,18.95c-8.21,0-16.68-4.55-19.36-6.04
	C445.597,122.345,444.567,124.465,445.557,125.675z"/>
<path style="&st2;" d="M371.797,103.125c0,3.38-1.17,5.82-4.46,8.31c-2.42-13.54-21.11-28.55-40.16-29.26
	c-0.23,2.23-0.09,4.59,0.99,6.46c0.01,0,0.01,0.01,0.01,0.01c6.11,4.36,14.94,8.49,16.45,9.37c-5.74,2.29-17.14-1.2-23.38-6.96
	c-2.62-2.42-4.33-5.24-4.33-8.2c0-6.09,11.04-15.92,15.28-15.92c1.69,0,2-0.72,2-2.33c0-5.73,5.85-17.91,13.7-17.91
	c3.26,0,4.54,3.33,4.54,6c17.83,7.6,11.53,20.77,9.13,24.37c-9.34-11-18.59-6.88-20.59-3.97c-0.91-1.24-2.82-1.94-5.81-1.94
	c-1.06,0-2.35,0.34-3.72,0.92l-0.01,0.01c-1.55,1.17-2.34,3.15-3.01,4.91C344.667,78.745,371.797,91.095,371.797,103.125z"/>
<path style="&st2;" d="M222.607,81.375c0,2.64-0.78,5.07-2.09,7.22c-5.22,8.58-18.85,12.86-25,9.98c1.33-0.77,8.14-4.87,13.76-9.2
	c0.78-1.79,1.36-3.8,1.59-5.78c-17.52,1.86-36.57,14.42-38.97,27.84c-2.12-2.13-3.09-4.31-3.09-7.69
	c0-14.08,24.68-22.87,41.93-24.64c-0.39-3.06-1.55-5.9-3.78-8.24l-0.01-0.01c-0.73-0.22-1.43-0.34-2.05-0.34
	c-2.98,0-5.52,1.23-6.42,2.47c-2.89-2.37-9.64-6.57-18.98,4.43c-1.13-1.7-3.36-5.87-3.48-10.44c-0.15-5.08,2.56-11.66,11.7-13.95
	c0-2.67,2.25-5.42,5.5-5.42c7.85,0,14.02,10.59,14.34,16.46c0.06,1.14,0.51,1.98,2.21,2.47
	C214.417,67.895,222.607,75.995,222.607,81.375z"/>
<path style="&st3;" d="M483.117,298.752l-1.49,52.04c-4.76-1.61-10.03-2.79-16.7-2.79c-21.02,0-28.1,11.7-49.12,11.7
	s-28.09-11.7-49.12-11.7c-21.02,0-28.09,11.7-49.11,11.7s-28.1-11.7-49.12-11.7c-21.02,0-28.1,11.7-49.12,11.7
	s-28.1-11.7-49.12-11.7s-28.1,11.7-49.12,11.7s-28.1-11.7-49.12-11.7c-6.67,0-11.94,1.18-16.69,2.79l-1.26-52.12
	c5.08-1.83,10.68-3.23,17.95-3.23c21.02,0,28.1,11.71,49.12,11.71s28.1-11.71,49.12-11.71s28.1,11.71,49.12,11.71
	s28.1-11.71,49.12-11.71c21.02,0,28.1,11.71,49.12,11.71s28.09-11.71,49.11-11.71c21.03,0,28.1,11.71,49.12,11.71
	s28.1-11.71,49.12-11.71C472.307,295.442,477.967,296.882,483.117,298.752z"/>
<path style="&st4;" d="M319.716,202.024c1.885-7.17,3.051-13.626,3.051-18.808c0-5.469-0.908-10.039-2.454-13.563"/>
<path style="&st5;" d="M316.376,213.33c1.258-3.902,2.39-7.695,3.339-11.306"/>
<path style="&st5;" d="M321.25,91.059c-2.552,1.481-5.209,4.28-5.209,9.066c0,8.188,9.579,18.976,17.273,15.423
	c-6.921,9.146-20.022-4.079-22.741-9.146c0,23.359,15.599,39.154,27.747,39.736c-14.275,5.129-28.241-12.668-32.443-22.371
	c5.685,12.73,3.049,32.423,2.183,36.625c5.279,0.309,9.676,3.388,12.253,9.261c5.921-5.334,11.436-8.437,19.057-8.437
	c11.906,0,20.241,11.919,30.211,11.919c5.562,0,7.284-4.091,7.284-10.25c0-8.219-8.017-21.567-13.764-27.747
	c-4.827-5.19,0.085-9.554,1.834-11.046c2.101-1.792,6.602-4.712,12.071-4.712c14.121,0,20.177,8.404,28.488,8.404
	c5.006,0,6.134-3.708,6.134-9.401c0-8.891-10.172-34.496-31.924-45.413c-2.43-1.219-2.671-2.16-0.742-5.933
	c2.307-4.511,12.112-15.243,25.378-15.243c24.822,0,53.249,28.653,79.945,22.103c0.433,5.747-2.822,20.661-18.313,20.661
	c-10.217,0-30.836-8.45-34.977-10.155c-1.051-0.433-2.075,0.497-0.968,1.401c5.115,4.179,36.028,28.694,51.292,24.739
	c0,6.674-3.481,18.951-14.358,18.951c-8.214,0-16.686-4.546-19.361-6.035c-2-1.113-3.032,1.009-2.048,2.22
	c6.125,7.536,23.428,27.01,34.772,26.381c0.274,5.16-5.7,14.965-13.466,14.965c-11.556,0-22.534-10.977-25.481-13.925
	c-0.875-0.875-1.812-0.007-1.236,1.154c1.898,3.824,26.964,48.367,38.222,50.999c-0.618,3.399-6.437,13.558-16.886,13.558
	c-14.764,0-33.631-37.043-36.688-42.648c-1.158-2.124-3.136-1.166-2.477,0.943c2.185,6.996,36.45,88.794,54.248,92.873
	c-1.112,4.326-6.303,14.09-17.489,14.09c-23.421,0-52.839-74.173-54.98-81.104c-1.445-4.679-6.05-2.076-4.908,2.81
	c0.812,3.473,16.63,78.788,37.126,88.286c-2.637,2.697-9.311,7.575-18.959,7.575c-25.947,0-37.791-65.027-41.524-81.065
	c-0.849-3.649-4.198-3.613-4.198-0.276c0.001,11.001,0,54.505,11.402,67.777c-39.087,14.661-36.524-33.448-35.373-63.049
	c0.138-3.553-4.377-3.899-5.01,0c-0.702,4.324-7.285,42.325-1.961,56.608c-12.151,4.499-25.507-4.827-26.076-24.01
	c-0.27-9.093,1.979-20.368,5.078-34.421c1.329-6.025-1.628-8.309-3.311-9.868c-9.286,28.818-25.414,63.632-25.414,75.706
	c0,8.134,3.378,10.235,8.879,14.954"/>
<path style="&st6;" d="M383.126,80.135c5.438,4.449,12.607,18.477,13.163,30.157"/>
<path style="&st6;" d="M365.983,148.03c1.916,3.372,1.483,13.445-0.618,18.08"/>
<path style="&st6;" d="M313.662,231.912c-5.438,12.483-14.584,51.539-7.539,65.258"/>
<path style="&st6;" d="M343.448,236.609c-1.401,10.629-1.762,39.736,4.82,52.427"/>
<path style="&st6;" d="M375.441,235.043c0,11.206,12.007,51.13,18.022,59.018"/>
<path style="&st6;" d="M407.964,220.571c2.801,10.847,24.554,58.884,35.678,69.348"/>
<path style="&st6;" d="M433.672,197.121c3.625,8.507,24.966,41.548,36.501,50.694"/>
<path style="&st6;" d="M448.586,163.029c4.532,6.139,19.693,21.011,25.625,24.801"/>
<path style="&st6;" d="M457.324,133.214c4.944,3.255,13.148,7.208,17.958,8.392"/>
<path style="&st6;" d="M443.601,91.839c4.532,2.554,22.865,10.176,34.194,11.535"/>
<path style="&st4;" d="M416.863,65.246c8.067,4.051,41.96,19.219,56.516,16.908"/>
<path style="&st4;" d="M442.2,104.919c4.017,3.461,18.168,10.567,22.618,11.68"/>
<path style="&st4;" d="M439.234,134.52c3.152,4.079,19.013,18.107,24.163,20.764"/>
<path style="&st4;" d="M433.672,166.778c1.792,5.006,20.887,34.297,28.118,39.859"/>
<path style="&st4;" d="M415.133,192.857c5.562,15.573,29.539,65.999,42.022,77.617"/>
<path style="&st4;" d="M386.088,206.637c1.854,13.41,15.944,63.836,25.46,77.185"/>
<path style="&st4;" d="M360.01,216.587c-0.262,5.993-1.483,40.292,4.449,55.988"/>
<path style="&st4;" d="M332.407,221.695c-1.813,5.933-5.477,31.063-5.438,40.704"/>
<path style="&st4;" d="M387.819,65.925c9.007-12.978,32.529-11.001,21.522,2.966"/>
<path style="&st4;" d="M396.347,66.976c0.803-0.865,2.132-1.885,2.874-2.163"/>
<path style="&st4;" d="M395.296,71.642c8.93-0.003,13.317,5.222,6.396,11.309"/>
<path style="&st4;" d="M395.667,78.717c0.783-0.711,1.723-1.135,2.74-1.421"/>
<path style="&st4;" d="M412.991,71.642c8.075-0.731,18.786,5.16,10.917,14.388"/>
<path style="&st4;" d="M410.22,82.054c0.834-0.772,4.418-2.41,6.643-2.781"/>
<path style="&st4;" d="M408.239,93.559c0.896-0.34,2.147-0.559,3.368-0.494"/>
<path style="&st4;" d="M412.846,88.358c5.315,0.216,7.385,8.034,1.916,9.857"/>
<path style="&st4;" d="M426.967,90.953c13.039,4.233,12.545,12.73,3.584,16.778"/>
<path style="&st4;" d="M421.56,100.099c1.761-0.556,4.666-0.587,6.612-0.278"/>
<path style="&st4;" d="M416.4,104.549c11.123,2.286,9.3,12.576,2.626,13.75"/>
<path style="&st4;" d="M414.453,112.004c1.201-0.185,3.53-0.38,4.944,0.022"/>
<path style="&st4;" d="M434.259,114.127c11.278,4.913,7.107,18.014-2.565,15.604"/>
<path style="&st4;" d="M426.902,120.412c2.078,0.041,4.362,0.81,5.909,1.67"/>
<path style="&st4;" d="M418.717,121.749c9.723,6.345,5.673,14.955-3.955,13.307"/>
<path style="&st4;" d="M413.928,127.259c1.372,0.38,3.533,1.566,4.171,2.225"/>
<path style="&st4;" d="M368.328,129.823c1.854,0.268,4.429,1.442,5.685,2.245"/>
<path style="&st4;" d="M379.493,127.289c9.434,5.603,5.459,17.365-4.326,13.122"/>
<path style="&st4;" d="M390.6,135.063c1.215,0.407,2.456,1.401,3.002,2.003"/>
<path style="&st4;" d="M396.718,131.747c5.191,2.595,5.438,14.914-4.202,11.741"/>
<path style="&st4;" d="M380.34,149.764c1.431,0.653,3.226,1.803,4.685,3.179"/>
<path style="&st4;" d="M387.687,147.112c6.839,6.3,3.996,15.979-4.655,11.735"/>
<path style="&st4;" d="M404.854,140.288c1.772,0.639,4.47,2.554,5.294,3.502"/>
<path style="&st4;" d="M414.762,139.629c9.228,9.167-1.936,17.18-9.084,8.858"/>
<path style="&st4;" d="M436.885,140.494c5.356,7.251-0.824,17.798-11.659,9.228"/>
<path style="&st4;" d="M426.09,141.368c2.606,1.38,4.12,2.693,5.562,4.844"/>
<path style="&st4;" d="M426.339,155.943c7.333,10.835-1.813,19.899-10.505,14.09"/>
<path style="&st4;" d="M415.421,157.673c3.002,1.998,5.196,4.81,6.345,7.21"/>
<path style="&st4;" d="M403.824,150.778c8.144,10.562-0.309,18.905-9.393,12.251"/>
<path style="&st4;" d="M395.696,154.769c1.515,0.803,3.699,3.09,4.564,4.182"/>
<path style="&st4;" d="M395.358,169.992c2.621,8.095-3.399,12.73-9.393,8.652"/>
<path style="&st4;" d="M384.327,168.014c1.638,0.927,3.44,2.822,4.398,4.491"/>
<path style="&st4;" d="M401.249,173.74c2.364,1.571,5.654,5.309,7.21,7.622"/>
<path style="&st4;" d="M413.32,173.37c6.592,13.696-4.161,22.082-12.771,10.547"/>
<path style="&st4;" d="M367.419,181.857c1.304,10.32,14.282,12.668,15.085,0"/>
<path style="&st4;" d="M383.06,196.255c2.904,5.5,12.928,10.876,16.113-2.365"/>
<path style="&st4;" d="M372.802,178.211c1.051,1.205,1.329,2.441,1.638,4.264"/>
<path style="&st4;" d="M387.448,187.171c1.277,1.39,2.948,4.666,3.529,6.149"/>
<path style="&st4;" d="M379.97,204.505c-1.329,13.719-12.916,12.483-17.736,1.298"/>
<path style="&st4;" d="M369.125,195.514c1.576,2.812,2.379,7.941,2.626,11.402"/>
<path style="&st4;" d="M364.459,186.178c2.41,7.712-6.983,18.327-15.016,4.948"/>
<path style="&st4;" d="M354.943,184.313c0.968,1.329,1.638,3.368,1.936,5.145"/>
<path style="&st4;" d="M342.058,172.618c0.896,8.312,10.166,10.969,12.081,2.07"/>
<path style="&st4;" d="M348.315,170.471c0.384,1.19,0.386,2.426,0.139,3.6"/>
<path style="&st4;" d="M327.896,175.965c2.019,5.85,7.148,5.809,9.537,1.442"/>
<path style="&st4;" d="M332.061,170.128c0.536,1.236,0.647,3.131,0.585,4.285"/>
<path style="&st4;" d="M331.048,190.5c0,10.226,10.506,10.967,13.966,1.345"/>
<path style="&st4;" d="M337.191,185.904c0.664,1.205,0.803,3.739,0.664,5.114"/>
<path style="&st4;" d="M340.173,207.09c2.904,13.41,10.979,17.489,17.447,3.419"/>
<path style="&st4;" d="M347.753,200.767c1.215,2.884,1.143,8.384,0.7,12.426"/>
<path style="&st4;" d="M321.119,209.356c2.554,12.339,12.236,10.526,14.934,2.987"/>
<path style="&st4;" d="M329.008,200.993c0.288,2.657,0,6.447-0.659,9.208"/>
<path style="&st4;" d="M277.846,296.304c1.656-0.861,3.373-3.269,4.918-7.415"/>
<path style="&st4;" d="M271.887,291.361c0.655,1.966,1.467,3.415,2.375,4.298"/>
<path style="&st4;" d="M285.235,291.67c0.242,2.472,1.093,5.21,2.045,7.379"/>
<path style="&st4;" d="M258.678,296.343c-0.755-0.957-1.476-2.47-2.116-4.673"/>
<path style="&st4;" d="M266.882,288.024c-0.331,2.675-1.406,5.613-2.805,7.539"/>
<path style="&st4;" d="M251.927,291.53c-0.297,2.586-1.291,5.457-2.625,7.638"/>
<path style="&st4;" d="M290.178,275.603c-2.1,6.427-9.64,12.916-10.134-4.573"/>
<path style="&st4;" d="M286.162,268.373c-0.137,2.414-0.871,4.542-1.743,5.871"/>
<path style="&st4;" d="M262.185,272.373c2.41,18.556,12.359,13.797,13.843,2.241"/>
<path style="&st4;" d="M288.634,258.053c0.68,5.871,3.955,7.168,7.23,2.039"/>
<path style="&st4;" d="M272.011,257.744c2.41,10.629,10.073,8.404,12.792-0.556"/>
<path style="&st4;" d="M277.603,250.544c0.517,2.039,0.602,4.048,0,6.396"/>
<path style="&st4;" d="M294.258,240.873c-3.296,6.736-9.455,8.713-12.421,0"/>
<path style="&st4;" d="M298.398,232.716c-0.803,5.5,1.73,11.066,4.573,8.157"/>
<path style="&st4;" d="M288.047,231.377c0.484,2.925,0.317,5.356-0.299,7.704"/>
<path style="&st4;" d="M261.629,240.358c2.389,12.483,9.563,13.183,15.573,2.266"/>
<path style="&st4;" d="M268.736,268.373c0.247,1.916,0.247,3.553,0.154,5.191"/>
<path style="&st4;" d="M268.859,234.724c0.247,1.452,0.185,4.285,0,5.634"/>
<path style="&st4;" d="M268.087,202.713c0.124,1.298,0.124,4.357,0,5.284"/>
<path style="&st4;" d="M268.983,148.023c0.124,2.132,0.154,5.654,0,7.694"/>
<path style="&st4;" d="M271.516,222.457c-0.021,8.219,9.949,16.623,13.843,0.494"/>
<path style="&st4;" d="M277.396,215.938c0.335,1.988,0.331,4.604,0.207,6.52"/>
<path style="&st4;" d="M289.129,218.533c0.989,11.834,11.481,14.8,13.997-3.986"/>
<path style="&st4;" d="M295.03,212.446c0.556,1.761,0.468,3.893,0.247,5.438"/>
<path style="&st4;" d="M307.005,215.938c0.154,3.121,2.641,5.531,4.556,4.14"/>
<path style="&st4;" d="M261.135,206.885c1.916,7.663,10.058,13.904,15.078,1.73"/>
<path style="&st4;" d="M281.095,203.053c0.371,6.508,7.477,11.494,11.741-0.927"/>
<path style="&st4;" d="M286.502,197.151c0.291,1.699,0.25,4.573-0.124,5.562"/>
<path style="&st4;" d="M297.255,197.151c3.461,11.154,11.958,8.795,12.236,0.309"/>
<path style="&st4;" d="M303.373,193.505c0.464,1.205,0.711,3.183,0.649,4.789"/>
<path style="&st4;" d="M327.288,189.427c-0.587,2.595-3.035,5.685-6.07,6.294"/>
<path style="&st4;" d="M311.859,190.162c0.433,6.106,3.368,11.935,6.736,2.85"/>
<path style="&st4;" d="M308.502,173.638c1.632,4.697,7.803,5.438,9.286,2.328"/>
<path style="&st4;" d="M297.255,183.402c1.885,5.06,7.043,6.612,10.396,0.433"/>
<path style="&st4;" d="M304.031,168.014c-1.578,5.253-5.571,3.708-6.776-1.545"/>
<path style="&st4;" d="M297.255,166.469c-2.194,14.584-7.983,25.252-10.686,25.252c-2.841,0-3.109-5.005-2.508-18.454"/>
<path style="&st4;" d="M268.457,179.203c0,2.991,3.924,21.131,7.756,21.131c2.904,0,6.674-9.022,7.591-18.974"/>
<path style="&st4;" d="M277.011,172.271c-0.838,2.871-0.556,6.991-0.144,9.05"/>
<path style="&st4;" d="M289.894,174.435c0.852-3.799,1.091-10.31,0.479-13.035"/>
<path style="&st4;" d="M261.135,153.306c4.202,29.663,14.996,18.704,15.416-4.449"/>
<path style="&st4;" d="M282.393,120.101c-1.895,6.169-6.18,15.307-10.629,19.116"/>
<path style="&st4;" d="M275.389,123.767c0.618-3.667,1.689-6.921,4.12-10.258"/>
<path style="&st4;" d="M291.456,125.209c-1.119,3.95-2.472,10.54-2.884,15.82"/>
<path style="&st4;" d="M302.003,135.921c1.683,4.367,2.028,14.914,0.659,20.846"/>
<path style="&st4;" d="M286.101,122.82c-8.404,33.947,3.532,45.234,11.154,12.588"/>
<path style="&st4;" d="M286.224,92.251c-8.072,21.423-0.206,25.378,9.393,3.088"/>
<path style="&st4;" d="M296.038,103.127c-5.578,26.054,2.867,26.326,9.417,5.685"/>
<path style="&st4;" d="M304.145,81.251c-5.85,14.79,1.73,20.021,8.528,7.045"/>
<path style="&st4;" d="M299.325,65.431c-8.61,13.285-3.172,17.344,4.944,8.528"/>
<path style="&st4;" d="M310.77,68.694c-3.164,8.936,1.532,10.085,6.476,5.265"/>
<path style="&st4;" d="M289.499,95.683c1.245-3.261,4.081-8.778,5.668-10.725"/>
<path style="&st4;" d="M298.81,108.635c0.742-2.163,2.214-4.828,3.079-5.817"/>
<path style="&st4;" d="M300.17,72.27c0.589-1.705,1.874-3.586,3.234-5.047"/>
<path style="&st4;" d="M306.452,87.554c0.752-2.163,2.868-5.886,3.687-6.72"/>
<path style="&st4;" d="M313.801,70.715c0.541-1.02,1.715-2.611,2.549-3.291"/>
<path style="&st4;" d="M305.443,55.42c-0.268,3.072,1.833,5.191,4.573,3.831"/>
<path style="&st4;" d="M309.748,55.42c0.594-0.85,1.359-1.454,2.431-1.936"/>
<path style="&st0;" d="M324.027,52.938c0.812,0.549,2.673,1.613,4.26,1.446c1.944-0.204,3.518-1.197,4.711-2.236
	c0.409-0.356,0.379-0.594-0.035-0.759c-0.391-0.156-0.737-0.909-0.819-1.687s-1.093-0.631-1.016,0.107
	c0.067,0.635,0.135,3.269-2.041,3.497c-1.491,0.157-2.369-0.948-2.445-1.678c-0.045-0.429,0.042-0.59,0.423-0.63
	c0.436-0.046,0.452,0.409,1.134,0.338c0.691-0.073,0.579-1.136-0.08-1.067c-0.618,0.065-0.096-0.992-0.799-0.918
	c-1.082,0.114-3.1,2.292-3.495,2.785C323.733,52.25,323.64,52.677,324.027,52.938z"/>
<path style="&st4;" d="M319.801,48.332c3.943,0.181,17.753-7.107,15.243-1.879"/>
<path style="&st4;" d="M322.839,56.018c0.824,0.948,2.163,1.607,3.79,1.772"/>
<path style="&st7;" d="M341.965,56.965c0.68-1.823,4.758-5.933,4.604-1.576"/>
<path style="&st7;" d="M322.327,82.306c20.606-1.982,42.38,14.439,45.008,29.131c3.296-2.492,4.458-4.931,4.458-8.31
	c0-13.019-31.743-26.359-47.115-26.316"/>
<path style="&st7;" d="M340.976,73.094c-0.906-1.236-2.822-1.94-5.809-1.94c-4.388,0-12.916,5.833-12.916,10.53
	c0,5.747,20.022,14.975,22.371,16.335c-5.733,2.291-17.132-1.199-23.373-6.96c-2.621-2.42-4.333-5.24-4.333-8.201
	c0-6.089,11.041-15.924,15.284-15.924c1.689,0,1.998-0.72,1.998-2.326c0-5.727,5.851-17.909,13.699-17.909
	c3.255,0,4.54,3.325,4.54,6.003c17.831,7.601,11.527,20.765,9.126,24.365C352.227,66.065,342.974,70.189,340.976,73.094z"/>
<path style="&st5;" d="M356.302,67.614c-3.77-2.323-11.263-1.782-14.679,0.26c-0.987-0.929-2.284-1.259-4.396-1.368"/>
<path style="&st7;" d="M327.182,82.169c-0.233,2.241-0.092,4.613,0.997,6.474"/>
<path style="&st7;" d="M331.443,72.076c-1.559,1.172-2.342,3.134-3.015,4.885"/>
<path style="&st4;" d="M219.872,209.413c-2.547-9.609-3.973-19.783-3.973-25.426c0-3.306,1.537-9.731,3.935-13.81"/>
<path style="&st5;" d="M223.252,219.862c-1.278-3.213-2.41-6.79-3.38-10.449"/>
<path style="&st5;" d="M220.522,88.597c2.552,1.481,4.462,7.334,4.462,12.12c0,8.188-5.702,17.942-18.354,16.623
	c7.168,7.869,19.936-2.33,22.655-7.398c-0.779,19.016-13.536,38.333-25.684,38.914c12.298,1.483,24.905-10.197,29.107-19.899
	c-5.685,12.73-2.649,27.232-1.783,31.434c-3.488,0.188-7.92,4.394-11.09,9.785c-5.921-5.334-12.49-8.446-20.111-8.446
	c-11.906,0-21.648,12.524-31.618,12.524c-5.562,0-7.634-3.46-7.634-9.619c0-8.219,9.38-22.075,14.766-28.572
	c4.243-5.119-0.764-10.764-2.513-12.256c-2.101-1.792-7.385-3.708-12.854-3.708c-14.121,0-18.632,10.845-26.944,10.845
	c-4.12,0-5.685-3.687-5.685-8.044c0-8.891,9.146-35.101,31.723-49.361c2.298-1.452,3.413-3.154,1.483-6.926
	c-2.307-4.511-10.283-14.469-23.549-14.469c-24.822,0-53.986,28.528-80.682,21.978c-0.433,5.747-0.763,20.434,14.728,20.434
	c13.452,0,31.814-9.372,35.954-11.077c1.051-0.433,2.075,0.497,0.968,1.401c-5.115,4.179-36.139,30.11-51.403,26.155
	c0,6.674,5.006,18.987,15.882,18.987c8.214,0,17-6.193,19.676-7.682c2-1.113,2.612,0.448,1.628,1.659
	c-6.125,7.536-24.205,28.853-35.549,28.225c-0.274,5.16,8.519,15.047,16.284,15.047c8.404,0,18.908-10.874,21.855-13.822
	c0.875-0.875,1.812-0.007,1.236,1.154c-1.898,3.824-23.859,48.758-38.54,50.241c0.247,3.461,3.831,13.966,16.504,13.966
	c15.939,0,33.561-35.642,36.617-41.247c1.158-2.124,3.136-1.166,2.477,0.943c-2.185,6.996-34.34,87.146-54.178,91.472
	c1.112,4.326,6.303,15.001,17.489,15.001c27.315,0,53.4-75.504,55.541-82.435c1.445-4.679,5.77-1.375,4.628,3.511
	c-0.812,3.473-13.202,76.201-34.84,87.213c2.637,2.697,9.197,8.367,18.845,8.367c25.947,0,36.11-65.027,39.843-81.065
	c0.849-3.649,4.198-3.613,4.198-0.276c-0.001,11.001,0.487,57.348-10.39,66.329c37.902,18.21,35.468-30.471,34.317-60.072
	c-0.138-3.553,4.377-3.899,5.01,0c0.702,4.324,8.957,38.989,2.285,55.079c14.402,3.427,25.404-5.259,25.972-24.443
	c0.27-9.093-0.632-13.895-3.731-27.947c-1.329-6.025,1.075-7.792,3.731-9.378c11.189,28.134,22.7,57.1,22.7,69.175
	c0,8.134-3.378,10.235-8.879,14.954"/>
<path style="&st6;" d="M161.874,76.751c-8.528,5.871-18.939,22.079-19.496,33.759"/>
<path style="&st6;" d="M178.071,139.912c-4.449,5.83-6.859,17.231-5.741,24.267"/>
<path style="&st6;" d="M223.252,231.912c5.438,12.483,13.287,52.893,8.343,67.255"/>
<path style="&st6;" d="M193.466,236.609c1.401,10.629,2.287,36.955-3.027,51.415"/>
<path style="&st6;" d="M162.259,236.609c0,11.206-9.393,49.067-16.512,59.041"/>
<path style="&st6;" d="M129.507,223.755c-2.801,10.847-20.517,57.471-37.82,69.584"/>
<path style="&st6;" d="M103.242,197.121c-3.625,8.507-23.483,41.713-37.757,49.005"/>
<path style="&st6;" d="M87.684,163.895c-4.532,6.139-13.671,17.466-24.053,21.916"/>
<path style="&st6;" d="M85.599,128.505c-4.944,3.255-15.294,11.124-23.967,13.101"/>
<path style="&st6;" d="M79.08,98.801c-4.532,2.554-13.843,4.017-20.517,3.09"/>
<path style="&st4;" d="M120.051,65.666c-8.067,4.051-32.319,16.388-46.532,18.181"/>
<path style="&st4;" d="M97.125,105.475c-4.017,3.461-20.887,12.823-26.696,13.966"/>
<path style="&st4;" d="M99.103,134.52c-3.152,4.079-18.295,17.592-23.445,20.249"/>
<path style="&st4;" d="M106.147,163.895c-1.792,5.006-21.32,35.048-28.55,40.61"/>
<path style="&st4;" d="M122.8,192.857c-5.562,15.573-23.944,58.336-40.243,75.339"/>
<path style="&st4;" d="M151.877,206.637c-1.854,13.41-16.438,65.443-27.067,80.398"/>
<path style="&st4;" d="M177.185,214.493c0.262,5.993,2.108,46.34-4.05,63.89"/>
<path style="&st4;" d="M206.877,224.547c1.813,5.933,4.844,28.212,4.805,37.852"/>
<path style="&st4;" d="M151.016,63.495c-8.45-8.816-30.965-7.251-22.045,4.606"/>
<path style="&st4;" d="M140.588,65.937c-1-0.628-2.547-1.269-3.335-1.345"/>
<path style="&st4;" d="M148.746,71.642c-7.219-3.862-15.738-0.061-12.936,6.365"/>
<path style="&st4;" d="M144.744,78.717c-0.783-0.711-1.723-1.135-2.74-1.421"/>
<path style="&st4;" d="M126.917,72.393c-8.328-1.318-15.497-0.18-14.755,9.661"/>
<path style="&st4;" d="M126.694,82.475c-0.834-0.772-4.418-2.41-6.643-2.781"/>
<path style="&st4;" d="M130.99,92.483c-0.896-0.34-2.147-0.559-3.368-0.494"/>
<path style="&st4;" d="M128.23,85.824c-5.933,0.577-9.97,6.756-5.273,10.135"/>
<path style="&st4;" d="M112.524,90.521c-12.721,3.213-15.121,13.163-6.161,17.21"/>
<path style="&st4;" d="M117.392,99.293c-1.803-0.401-4.699-0.178-6.611,0.299"/>
<path style="&st4;" d="M123.698,104.268c-10.3,2.072-9.611,12.29-4.367,14.03"/>
<path style="&st4;" d="M124.933,111.261c-1.201-0.185-3.53-0.38-4.944,0.022"/>
<path style="&st4;" d="M106.76,112.459c-11.278,4.913-11.736,17.025-1.541,17.272"/>
<path style="&st4;" d="M111.161,118.198c-1.997,0.577-4.004,1.911-5.275,3.142"/>
<path style="&st4;" d="M117.106,126.528c-5.418,5.933-2.801,12.709,2.544,12.442"/>
<path style="&st4;" d="M124.238,128.009c-1.372,0.38-3.533,1.566-4.171,2.225"/>
<path style="&st4;" d="M165.143,130.624c-1.854,0.268-4.429,1.442-5.685,2.245"/>
<path style="&st4;" d="M157.421,127.289c-7.774,4.017-4.555,14.078,2.036,11.845"/>
<path style="&st4;" d="M148.54,138.452c-1.215,0.407-2.456,1.401-3.002,2.003"/>
<path style="&st4;" d="M146.314,131.747c-9.928,4.318-12.894,19.031,2.926,15.545"/>
<path style="&st4;" d="M156.574,151.762c-1.431,0.653-3.226,1.803-4.685,3.179"/>
<path style="&st4;" d="M150.388,149.764c-5.927,6.179-2.199,12.688,4.29,10.377"/>
<path style="&st4;" d="M131.607,141.606c-1.772,0.639-4.47,2.554-5.294,3.502"/>
<path style="&st4;" d="M123.286,140.456c-9.228,9.167-0.577,16.404,9.393,10.322"/>
<path style="&st4;" d="M102.34,138.452c-5.356,7.251-1.796,20.498,9.987,14.15"/>
<path style="&st4;" d="M111.709,142.977c-2.606,1.38-4.12,2.693-5.562,4.844"/>
<path style="&st4;" d="M112.327,158.093c-7.333,10.835,0.906,19.458,9.723,12.167"/>
<path style="&st4;" d="M122.822,158.951c-3.002,1.998-5.196,4.81-6.345,7.21"/>
<path style="&st4;" d="M132.679,154.769c-4.614,9.126,0.577,14.522,8.247,10.757"/>
<path style="&st4;" d="M141.218,154.769c-1.515,0.803-3.699,3.09-4.564,4.182"/>
<path style="&st4;" d="M145.203,166.739c-5.968,8.485-1.483,15.118,8.157,12.11"/>
<path style="&st4;" d="M153.084,169.341c-1.774,0.628-3.878,2.182-5.111,3.659"/>
<path style="&st4;" d="M136.654,174.4c-2.364,1.571-5.654,5.309-7.21,7.622"/>
<path style="&st4;" d="M123.533,176.048c-1.87,13.019,6.058,17.55,12.4,11.123"/>
<path style="&st4;" d="M167.944,187.171c-4.651,9.393-16.479,1.29-9.146-9.103"/>
<path style="&st4;" d="M153.36,198.295c-2.904,5.5-16.707,5.85-14.502-7.795"/>
<path style="&st4;" d="M165.826,179.858c-1.461,0.648-2.236,1.651-3.286,3.172"/>
<path style="&st4;" d="M149.466,187.171c-1.277,1.39-2.948,4.666-3.529,6.149"/>
<path style="&st4;" d="M158.057,198.13c-0.824,12.936,6.055,22.247,16.623,10.3"/>
<path style="&st4;" d="M168.624,195.514c-1.576,2.812-2.379,7.941-2.626,11.402"/>
<path style="&st4;" d="M175.237,184.313c-3.255,7.408,3.749,21.725,14.461,8.214"/>
<path style="&st4;" d="M183.964,184.693c-1.08,1.239-1.925,3.212-2.377,4.956"/>
<path style="&st4;" d="M195.959,176.46c-3.296,7.086-13.019,6.386-12.359-2.047"/>
<path style="&st4;" d="M191.685,169.51c-1.195,1.748-1.518,4.023-1.576,5.732"/>
<path style="&st4;" d="M210.492,178.427c-2.935,5.531-10.351,1.576-9.022-5.006"/>
<path style="&st4;" d="M207.762,170.645c-0.742,1.124-1.181,2.971-1.32,4.118"/>
<path style="&st4;" d="M206.341,195.411c-5.273,8.487-14.172,1.467-12.689-7.333"/>
<path style="&st4;" d="M201.892,186.099c-0.664,1.205-1.854,5.398-1.929,6.958"/>
<path style="&st4;" d="M199.481,212.22c-5.746,12.327-21.484,9.311-19.177-7.663"/>
<path style="&st4;" d="M190.275,200.767c-1.215,2.884-1.143,8.384-0.7,12.426"/>
<path style="&st4;" d="M217.886,216.002c-5.2,12.367-16.406,1.243-15.088-9.087"/>
<path style="&st4;" d="M211.425,204.803c-0.519,2.622-0.562,6.423-0.146,9.23"/>
<path style="&st4;" d="M246.736,275.603c2.1,6.427,10.506,13.781,11.371-3.23"/>
<path style="&st4;" d="M250.823,268.653c0.137,2.414,0.871,4.542,1.743,5.871"/>
<path style="&st4;" d="M248.867,260.154c-0.586,4.695-3.429,5.574-5.53,2.717"/>
<path style="&st4;" d="M266.82,260.463c-3.584,10.011-12.545,7.354-13.781-3.522"/>
<path style="&st4;" d="M260.21,253.392c-0.517,2.039-0.602,4.048,0,6.396"/>
<path style="&st4;" d="M243.77,237.541c0.927,9.821,8.837,19.049,13.904,6.24"/>
<path style="&st4;" d="M239.993,237.195c0.803,5.5-1.73,11.066-4.573,8.157"/>
<path style="&st4;" d="M250.493,233.969c-0.484,2.925-0.317,5.356,0.299,7.704"/>
<path style="&st4;" d="M266.82,225.485c-1.813,8.484-14.667,13.595-13.709-6.839"/>
<path style="&st4;" d="M260.784,218.027c-0.493,1.854-0.587,4.604-0.463,6.52"/>
<path style="&st4;" d="M248.61,222.457c-2.658,9.867-10.052,8.919-12.524-3.26"/>
<path style="&st4;" d="M241.884,215.308c-0.418,1.504-0.468,3.893-0.247,5.438"/>
<path style="&st4;" d="M232.028,217.884c-0.154,3.121-3.181,6.662-5.097,5.271"/>
<path style="&st4;" d="M255.284,206.885c-0.371,6.508-11.783,8.423-10.052-8.59"/>
<path style="&st4;" d="M251.504,198.212c-0.291,1.699-0.25,4.573,0.124,5.562"/>
<path style="&st4;" d="M241.03,200.921c-3.461,11.154-13.678,9.65-10.98-5.51"/>
<path style="&st4;" d="M235.224,197.257c-0.463,1.205-0.711,3.183-0.649,4.789"/>
<path style="&st4;" d="M211.682,193.731c0.587,2.595,3.035,5.685,6.07,6.294"/>
<path style="&st4;" d="M226.446,193.351c-1.648,5.747-5.727,8.961-6.901,3.275"/>
<path style="&st4;" d="M228.876,176.46c-3.296,5.026-8.157,6.221-8.157,1.112"/>
<path style="&st4;" d="M239.659,187.501c-3.573,4.22-9.259,2.719-9.259-5.109"/>
<path style="&st4;" d="M234.159,169.034c2.669,5.613,5.5,4.542,6.461-1.81"/>
<path style="&st4;" d="M239.659,159.569c1.041,14.844,7.697,32.783,11.177,32.783c2.177,0,3.831-2.583,3.542-8.393"/>
<path style="&st4;" d="M268.457,179.203c0,2.991-2.502,22.607-6.334,22.607c-2.904,0-6.829-7.901-7.745-17.853"/>
<path style="&st4;" d="M259.903,172.271c0.838,2.871,0.954,11.574,0.542,13.634"/>
<path style="&st4;" d="M247.326,176.456c-0.918-3.784-1.39-11.263-0.826-13.998"/>
<path style="&st4;" d="M256.765,120.101c1.895,6.169,6.429,16.048,10.879,19.857"/>
<path style="&st4;" d="M247.214,130.416c0.718,3.393,1.357,7.267,1.618,10.613"/>
<path style="&st4;" d="M236.251,135.921c-1.683,4.367-3.461,12.112-2.092,18.045"/>
<path style="&st4;" d="M254.411,126.692c7.383,33.385-4.275,44.264-11.898,11.618"/>
<path style="&st5;" d="M193.221,47.609c0-8.705,7.761-10.061,13.24-10.061c5.493,0,15.47,1.874,23.565,1.874
	c8.095,0,21.938-4.997,26.73-4.997c-2.629,2.736-18.828,11.754-27.809,11.754c10.959,0,17.761,17.9,35.661,25.395
	c-4.491,0-18.663-3.873-22.247-7.993c6.368,10.18,18.647,25.873,25.609,32.669c-4.449-1.296-13.056-6.792-15.96-10.747
	c6.011,7.42,16.447,33.568,16.447,45.062c0-11.494,13.379-38.623,19.39-46.043c-2.904,3.955-11.511,9.521-15.96,10.817
	c6.962-6.796,20.702-23.522,24.884-33.245c-3.585,4.12-17.592,9.06-22.083,9.06c17.901-7.494,24.843-25.324,35.801-25.324
	c-8.981,0-24.76-8.948-27.389-11.684c4.792,0,18.634,5.208,26.73,5.208c8.095,0,18.072-2.225,23.565-2.225
	c5.479,0,14.502,0.865,14.502,9.57"/>
<path style="&st4;" d="M255.532,96.594c8.072,21.423-2.266,17.947-11.865-4.343"/>
<path style="&st4;" d="M245.232,107.543c1.597,26.812-6.839,24.752-11.288,2.003"/>
<path style="&st4;" d="M236.725,83.599c3.736,21.196-3.09,19.429-9.541,5.607"/>
<path style="&st4;" d="M241.236,68.335c6.365,14.77-0.309,15.728-6.799,5.307"/>
<path style="&st4;" d="M229.087,69.605c3.164,8.936-1.532,10.085-6.476,5.265"/>
<path style="&st4;" d="M251.449,97.606c-1.245-3.261-4.08-8.778-5.668-10.725"/>
<path style="&st4;" d="M238.419,72.504c-0.589-1.705-1.874-3.586-3.234-5.047"/>
<path style="&st4;" d="M232.831,89.849c-0.752-2.163-1.783-4.709-2.472-5.786"/>
<path style="&st4;" d="M226.056,71.625c-0.541-1.02-1.715-2.611-2.549-3.291"/>
<path style="&st4;" d="M233.573,56.681c0.268,3.072-1.421,5.104-4.626,4.177"/>
<path style="&st4;" d="M230.109,56.331c-0.594-0.85-1.359-1.454-2.431-1.936"/>
<path style="&st0;" d="M207.647,52.424c0.655,0.729,2.203,2.211,3.784,2.434c1.936,0.272,3.703-0.31,5.112-1.03
	c0.483-0.247,0.511-0.485,0.15-0.745c-0.342-0.246-0.496-1.061-0.387-1.835s-0.908-0.877-1.012-0.142
	c-0.089,0.632-0.66,3.204-2.826,2.9c-1.485-0.209-2.069-1.493-1.967-2.22c0.06-0.427,0.183-0.562,0.562-0.509
	c0.435,0.061,0.34,0.507,1.019,0.602c0.688,0.097,0.837-0.962,0.18-1.054c-0.616-0.087,0.147-0.986-0.553-1.085
	c-1.077-0.151-3.562,1.474-4.065,1.857C207.529,51.686,207.335,52.077,207.647,52.424z"/>
<path style="&st4;" d="M221.275,49.177c-3.943,0.181-16.809-6.658-15.078-1.096"/>
<path style="&st4;" d="M219.002,56.362c-0.824,0.948-2.163,1.607-3.79,1.772"/>
<path style="&st7;" d="M200.285,57.567c-0.68-1.823-6.54-7.101-6.386-2.745"/>
<path style="&st7;" d="M215.807,83.368c-1.622-0.025-3.274,0.055-4.939,0.232c-17.524,1.86-36.568,14.42-38.968,27.837
	c-2.127-2.133-3.09-4.313-3.09-7.692c0-15.82,31.146-24.956,47.912-24.956"/>
<path style="&st7;" d="M198.472,72.987c0.906-1.236,3.44-2.47,6.427-2.47c4.388,0,12.236,6.037,12.236,9.992
	c0,0.807-0.492,1.783-1.328,2.858c-4.398,5.656-18.318,14.069-20.292,15.211c6.152,2.881,19.786-1.401,25.007-9.983
	c1.309-2.152,2.089-4.574,2.089-7.222c0-5.376-8.195-13.48-12.848-14.837c-1.697-0.495-2.146-1.334-2.208-2.467
	c-0.322-5.871-6.487-16.462-14.335-16.462c-3.255,0-5.501,2.743-5.501,5.421c-9.146,2.282-11.848,8.863-11.706,13.946
	c0.127,4.573,2.35,8.738,3.487,10.443C188.836,66.42,195.588,70.622,198.472,72.987z"/>
<path style="&st5;" d="M184.197,68.101c3.831-3.041,9.64-3.164,13.781-0.334c1.39-1.153,4.377-2.197,6.489-2.305"/>
<path style="&st4;" d="M234.15,233.969c-0.022,1.404,0.288,2.501,1.071,3.226"/>
<path style="&st4;" d="M226.24,211.976c-0.247,1.483-0.124,2.904,0.206,3.996"/>
<path style="&st4;" d="M240.824,251.399c0.192,1.238,0.762,2.76,1.524,3.584"/>
<path style="&st4;" d="M303.048,231.701c0.022,1.404-0.288,2.501-1.071,3.226"/>
<path style="&st4;" d="M310.958,210.275c0.247,1.483,0.124,2.904-0.206,3.996"/>
<path style="&st4;" d="M294.673,251.683c-0.192,1.238-0.762,2.76-1.524,3.584"/>
<path style="&st4;" d="M236.312,178.926c-0.55,1.13-0.933,2.768-0.766,4.088"/>
<path style="&st4;" d="M225.231,173.43c0.146-1.055,1.3-2.99,1.976-3.723"/>
<path style="&st4;" d="M223.485,186.615c-0.649,1.483-0.865,3.785-0.865,5.106"/>
<path style="&st4;" d="M301.276,178.967c0.647,1.078,1.171,2.676,1.119,4.006"/>
<path style="&st4;" d="M312.727,172.45c0.058-1.064-0.706-3.183-1.229-4.031"/>
<path style="&st4;" d="M315.354,183.752c0.517,1.534,0.532,3.846,0.417,5.162"/>
<path style="&st7;" d="M210.868,83.599c-0.228,1.979-0.812,3.984-1.586,5.779"/>
<path style="&st7;" d="M206.942,70.858c2.245,2.339,3.407,5.188,3.797,8.258"/>
<path style="&st4;" d="M238.888,106.547c1.071,1.936,1.648,7.333,1.566,9.352"/>
<path style="&st8;" d="M483.117,298.755c-5.149-1.872-10.807-3.315-18.186-3.315c-21.021,0-28.098,11.7-49.119,11.7
	s-28.098-11.7-49.118-11.7s-28.098,11.7-49.118,11.7s-28.098-11.7-49.119-11.7c-21.02,0-28.098,11.7-49.118,11.7
	c-21.021,0-28.098-11.7-49.119-11.7c-21.021,0-28.098,11.7-49.119,11.7c-21.021,0-28.098-11.7-49.118-11.7
	c-7.267,0-12.866,1.399-17.952,3.229"/>
<path style="&st9;" d="M482.746,311.757c-5.05-1.806-10.614-3.179-17.814-3.179c-21.021,0-28.098,11.7-49.119,11.7
	s-28.098-11.7-49.118-11.7s-28.098,11.7-49.118,11.7s-28.098-11.7-49.119-11.7c-21.02,0-28.098,11.7-49.118,11.7
	c-21.021,0-28.098-11.7-49.119-11.7c-21.021,0-28.098,11.7-49.119,11.7c-21.021,0-28.098-11.7-49.118-11.7
	c-7.118,0-12.635,1.343-17.637,3.117"/>
<path style="&st9;" d="M482.374,324.765c-4.952-1.74-10.417-3.05-17.443-3.05c-21.021,0-28.098,11.7-49.119,11.7
	s-28.098-11.7-49.118-11.7s-28.098,11.7-49.118,11.7s-28.098-11.7-49.119-11.7c-21.02,0-28.098,11.7-49.118,11.7
	c-21.021,0-28.098-11.7-49.119-11.7c-21.021,0-28.098,11.7-49.119,11.7c-21.021,0-28.098-11.7-49.118-11.7
	c-6.969,0-12.402,1.289-17.323,3.008"/>
<path style="&st9;" d="M482.002,337.775c-4.854-1.675-10.22-2.921-17.071-2.921c-21.021,0-28.098,11.7-49.119,11.7
	s-28.098-11.7-49.118-11.7s-28.098,11.7-49.118,11.7s-28.098-11.7-49.119-11.7c-21.02,0-28.098,11.7-49.118,11.7
	c-21.021,0-28.098-11.7-49.119-11.7c-21.021,0-28.098,11.7-49.119,11.7c-21.021,0-28.098-11.7-49.118-11.7
	c-6.821,0-12.17,1.235-17.008,2.899"/>
<path style="&st10;" d="M481.63,350.784c-4.756-1.611-10.024-2.792-16.699-2.792c-21.021,0-28.098,11.701-49.119,11.701
	s-28.098-11.701-49.118-11.701s-28.098,11.701-49.118,11.701s-28.098-11.701-49.119-11.701c-21.02,0-28.098,11.701-49.118,11.701
	c-21.021,0-28.098-11.701-49.119-11.701c-21.021,0-28.098,11.701-49.119,11.701c-21.021,0-28.098-11.701-49.118-11.701
	c-6.673,0-11.938,1.181-16.693,2.79"/>
<line style="&st8;" x1="476.688" y1="397.545" x2="60.228" y2="397.545"/>
<line style="&st8;" x1="464.655" y1="435.383" x2="72.261" y2="435.383"/>
<line style="&st8;" x1="443.855" y1="473.22" x2="93.061" y2="473.22"/>
<line style="&st8;" x1="410.485" y1="511.057" x2="126.429" y2="511.057"/>
<path style="&st11;" d="M24.625,67.266c24.112,9.447,25.149,39.301,25.276,60.441l5.423,224.486
	c0,27.896,5.531,55.791,16.248,81.584c10.669,25.742,26.428,49.379,46.199,69.15c19.723,19.576,43.36,35.725,69.103,46.004
	c25.79,10.766,53.687,16.15,81.583,16.15c27.895,0,55.791-5.385,81.584-16.15c25.742-10.279,49.379-26.428,69.102-46.004
	c19.773-19.771,35.531-43.408,46.201-69.15c10.717-25.793,16.246-53.688,16.246-81.584l6.363-222.673
	c0.978-21.094-3.672-50.557,24.469-62.301l0.978-0.344c-92.152-46.977-305.434-90.881-489.887-0.244L24.625,67.266z"/>
<g>
</g>
<g>
</g>
<g>
</g>
<g>
</g>
<g>
</g>
<g>
</g>
</svg>
