<?xml version="1.0" encoding="utf-8"?>
<!-- Generator: Adobe Illustrator 13.0.0, SVG Export Plug-In . SVG Version: 6.00 Build 14948)  -->
<!DOCTYPE svg PUBLIC "-//W3C//DTD SVG 1.1//EN" "http://www.w3.org/Graphics/SVG/1.1/DTD/svg11.dtd">
<svg version="1.1" id="Wappen_Landkreis_Ammerland" xmlns="http://www.w3.org/2000/svg" xmlns:xlink="http://www.w3.org/1999/xlink"
	 x="0px" y="0px" width="1794px" height="2031.333px" viewBox="-4.292 -3.625 1794 2031.333"
	 enable-background="new -4.292 -3.625 1794 2031.333" xml:space="preserve">
<path id="Schild" fill="#FCDD30" stroke="#000000" stroke-width="27" d="M1777.577,1170.005
	c5.994,417.45-317.642,843.919-892.9,843.919c-584.577,0-872.28-534.587-874.268-846.769c-1.842-289.102,0-1156.423,0-1156.423
	h1767.168C1777.577,10.732,1773.416,880.217,1777.577,1170.005z"/>
<path id="Schild_unten" fill="#DA121A" stroke="#000000" stroke-width="27" d="M1741.529,1420.374
	c-98.91,321.903-397.748,593.546-856.86,593.546c-444.026,0-716.772-308.426-823.129-593.544L1741.529,1420.374z"/>
<path id="Wellenschild_2_" fill="#FFFFFF" stroke="#000000" stroke-width="14" d="M1573.55,1720.815
	c-151.967,173.429-385.408,292.108-688.873,292.108c-285.122,0-499.62-127.173-644.789-293.686c0,0,58.068-35.86,79.82-34.863
	c39.345,1.804,98.635,74.726,138,76c44.712,1.448,117.298-77.728,162-76c38.484,1.487,95.495,75.2,134,76
	c41.584,0.863,106.408-76.354,148-76c40.264,0.343,101.736,76.241,142,76c39.385-0.236,98.615-75.65,138-76
	c40.705-0.362,103.295,75.661,144,76c42.037,0.35,108.027-73.638,150-76C1501.77,1682.908,1573.55,1720.815,1573.55,1720.815z"/>
<g id="Bischof">
	<g id="Fuß_rechts">
		<path id="Schuh" fill="#FFFFFF" stroke="#000000" stroke-width="4" d="M602.375,1406.709c-4.667-24,42.222-12.075,54.333-20
			c7.151-4.68,14.333-24,23.667-24.667c4.828-0.345,15.165-1.459,19.333,1c3.804,2.244,45.221,21.418,57.333,22
			c3.417,0.164,8.289-2.206,11.667-1.666c8.333,1.333,3,23.333,3,23.333S602.465,1407.171,602.375,1406.709z"/>
		<path id="Fuß" fill="#078930" stroke="#000000" stroke-width="4" d="M723.708,1324.375c0,0-6,31.668-24,38.667
			c-4.66,1.812,7.603,13.619,12,16c10.134,5.486,45.423,10.594,46,3c2-26.333,24-57.667,24-57.667H723.708z"/>
	</g>
	<g id="Fuß_links">
		<path id="Schuh_1_" fill="#FFFFFF" stroke="#000000" stroke-width="4" d="M1195.383,1405.709c4.666-24-42.223-12.075-54.334-20
			c-7.151-4.68-14.334-24-23.666-24.667c-4.828-0.345-15.165-1.459-19.334,1c-3.805,2.244-45.221,21.418-57.334,22
			c-3.416,0.164-8.289-2.206-11.666-1.666c-8.334,1.333-3,23.333-3,23.333S1195.293,1406.171,1195.383,1405.709z"/>
		<path id="Fuß_1_" fill="#078930" stroke="#000000" stroke-width="4" d="M1074.049,1323.375c0,0,6,31.668,24,38.667
			c4.66,1.812-7.604,13.619-12,16c-10.135,5.486-45.424,10.594-46,3c-2-26.333-24-57.667-24-57.667H1074.049z"/>
	</g>
	<g id="Krummstab">
		<path fill="#FFFFFF" stroke="#000000" stroke-width="9" d="M1264.781,1411.446l68.996-1161.941
			c0-43.13-52.735-73.498-86.996-73.498c-40.405,0-73.496,41.701-73.496,73.497c0,26.871,20.189,48.998,37.498,48.998
			c19.181,0,34.499-22.5,34.499-22.5l19.499,15.5c0,14.547-24.405,35.999-53.998,35.999c-34.407,0-66.496-32.792-66.496-77.496
			c0-59.962,44.422-99.995,102.995-99.995c50.094,0,112.494,39.499,112.494,81.497l-57.997,1179.94H1264.781z"/>
		<path fill="#FFFFFF" stroke="#000000" stroke-width="9" d="M1382.208,322.125c0,10.079-20.021,16.25-42.25,16.25
			s-35.25-8.171-35.25-18.25s15.021-16.25,37.25-16.25S1382.208,312.046,1382.208,322.125z"/>
		<path fill="#078930" stroke="#000000" stroke-width="5" d="M1264.375,207.708c-15.667,0-17.169,20.565-23.667,26.667
			c-5.626,5.283-24.333,2-24.333,19c0,17.333,19.816,13.893,26.333,20c6.149,5.763,5.333,27.333,21.333,27.333
			c17.667,0,15.292-22.478,21-29c4.825-5.513,23.167-4.333,23.167-19.167c0-14.833-17.891-12.789-23.333-18.333
			C1279.253,228.481,1281.041,207.708,1264.375,207.708z"/>
		<ellipse fill="#FCDD09" stroke="#000000" stroke-width="5.0877" cx="1262.227" cy="255.386" rx="12.852" ry="13.01"/>
	</g>
	<path id="Hand_rechts" fill="#FFC99E" stroke="#000000" stroke-width="6" d="M481.708,401.042l-51.5,51.5
		c0,0-20.532-57.574-29.5-75.833c-7.334-14.931-39.92-40.365-40-57c-0.026-5.417,11.274-19.174,16.667-18.667
		c2.399,0.226,37.625,41.458,29.333,33.167c-6.333-6.333-23.873-28.555-27-35.5c-4.53-10.061,13.923-22.649,20.066-13.333
		c5.934,9,23.928,42.806,19.601,34c-7.386-15.03-16.428-21.044-21.167-40c-6-24-12.005-41.161-1.833-51.333
		c5.504-5.504,9.634-3.866,11,0c1.974,5.585,19.403,64.094,15.333,51.333c-6.295-19.735-10.228-49.105-8-51.333
		c7.971-7.971,9.579-6.473,18,0c8.478,6.517,10.845,30.642,11,41.333c0.19,13.097-9.026,65.478-7.25,52.5
		c3.25-23.75,7.374-58.5,23.25-58.5c13,0,8.75,58.088,7,77c-0.711,7.689-11,18.926-11,25.75
		C455.708,371.875,481.708,401.042,481.708,401.042z"/>
	<g id="Hand_links">
		<polygon id="Hand_links_2_" fill="#FFC99E" stroke="#000000" stroke-width="6" points="1285.042,468.375 1318.089,513.691 
			1322.563,438.347 1285.042,465.042 		"/>
		<path id="Hand_links_1_" fill="#FFC99E" stroke="#000000" stroke-width="6" d="M1379.709,369.708
			c3.333,3.333-2.692,56.52-10.001,73.333c-3.944,9.074,11.925,33.333-11.333,33.333c-5.271,0-21.996-28.247-32.667-32.667
			c-7.545-3.125-29.541,7.544-32.666,0c-3.247-7.839,27.916-25.833,24-24c-5.652,2.646-14.532,15.147-20.667,14
			c-10.435-1.952-15.629-3.465-12-17.333c1.831-6.995,30.083-13.75,26-12.667c-6.798,1.804-21.223,10.149-27.333,6.667
			c-6.955-3.964-6.942-11.255-3.311-16.69c3.813-5.708,19.112-1.31,25.978-1.31c7.13,0-24.697,1.174-26.667-5.333
			c-2.151-7.106,14.454-17.497,21-21c13.788-7.38,35,12.333,45,12.333C1363.954,378.375,1365.529,355.526,1379.709,369.708z"/>
	</g>
	<g id="Hut__x26__Haar">
		<path fill="#FFFFFF" stroke="#000000" stroke-width="5" d="M798.692,245.413c-13.961,11.714-20.53,26.87-14.673,33.85
			c5.857,6.98,21.923,3.143,35.884-8.572c13.96-11.714,37.667-23.371,27.837-41.407
			C839.732,214.592,812.652,233.699,798.692,245.413z"/>
		<path fill="#FFFFFF" stroke="#000000" stroke-width="5" d="M779.692,219.413c-13.961,11.714-20.53,26.87-14.673,33.85
			c5.857,6.98,21.923,3.143,35.884-8.572c13.96-11.714,37.667-23.371,27.837-41.407
			C820.732,188.592,793.652,207.699,779.692,219.413z"/>
		<path fill="#FFFFFF" stroke="#000000" stroke-width="5" d="M771.692,192.413c-13.961,11.714-23.53,20.87-17.673,27.85
			c5.857,6.98,21.923,3.143,35.884-8.572c13.96-11.714,42.362-26.882,27.837-41.407
			C809.732,162.276,785.652,180.699,771.692,192.413z"/>
		<path fill="#FFFFFF" stroke="#000000" stroke-width="5" d="M952.426,276.682c15.782,9.114,32.271,10.103,36.827,2.212
			c4.556-7.892-4.545-21.677-20.327-30.789c-15.783-9.111-34.845-27.402-48.432-11.996
			C909.428,248.659,936.644,267.571,952.426,276.682z"/>
		<path fill="#FFFFFF" stroke="#000000" stroke-width="5" d="M963.426,246.682c15.782,9.113,32.271,10.103,36.827,2.211
			s-4.545-21.677-20.328-30.788c-15.782-9.111-34.844-27.402-48.431-11.996C920.428,218.659,947.644,237.571,963.426,246.682z"/>
		<path fill="#FFFFFF" stroke="#000000" stroke-width="5" d="M974.498,215.325c15.782,9.113,27.659,14.974,32.215,7.083
			s-4.545-21.677-20.328-30.788c-15.782-9.111-39.749-30.613-48.431-11.996C933.168,189.887,958.716,206.214,974.498,215.325z"/>
		<path fill="#FFFFFF" stroke="#000000" stroke-width="5" d="M924.796,107.489c-6.233-17.125-4.345-33.535,4.218-36.651
			c8.563-3.117,20.558,8.24,26.79,25.365c6.233,17.125,12.691,37.065-1.096,44.278C933.218,151.724,931.029,124.614,924.796,107.489
			z"/>
		<path fill="#FFFFFF" stroke="#000000" stroke-width="5" d="M890.796,105.489c-6.233-17.125-4.345-33.535,4.218-36.651
			c8.563-3.117,20.558,8.24,26.79,25.365c6.233,17.125,20.936,39.073,3.404,49.778C910.928,152.7,897.029,122.614,890.796,105.489z"
			/>
		<path fill="#FFFFFF" stroke="#000000" stroke-width="5" d="M839.796,106.367c-6.233,17.125-4.345,33.535,4.218,36.651
			c8.563,3.117,20.557-8.24,26.791-25.365c6.233-17.125,12.691-37.065-1.096-44.278C848.218,62.132,846.029,89.242,839.796,106.367z
			"/>
		<path fill="#FFFFFF" stroke="#000000" stroke-width="5" d="M805.796,108.367c-6.233,17.125-4.345,33.535,4.218,36.651
			c8.563,3.117,20.558-8.24,26.79-25.365c6.233-17.125,20.936-39.073,3.404-49.778C825.928,61.155,812.029,91.242,805.796,108.367z"
			/>
		<ellipse fill="#FFFFFF" stroke="#000000" stroke-width="5" cx="882.549" cy="100.261" rx="18.749" ry="57.747"/>
		<path fill="#FFFFFF" stroke="#000000" stroke-width="5" d="M972.296,152.759c0,24.95-40.964,18.75-91.496,18.75
			s-91.496,3.534-91.496-18.75c0-21.05,40.964-18.749,91.496-18.749S972.296,129.708,972.296,152.759z"/>
	</g>
	<g id="Mantel">
		<path id="Mantelumriss" fill="#078930" stroke="#000000" stroke-width="6" d="M503.708,430.375c0,0,35.128,47.043,49,58
			c11.979,9.461,53,24,53,24c88-88,234.667-177.333,234.667-177.333h97.333c0,0,98.268,56.967,128,80.333
			c27.521,21.629,100,97,100,97s31.959,3.583,51.557-2.169c19.443-5.707,40.443-25.831,40.443-25.831l48,72c0,0-48.855,60.825-67,79
			c-18.644,18.674-80,68-80,68l-85,119l84,338h-52l30,112h-476l24-112h-46l70-332l-81-125c0,0-80.335-43.919-102-62
			c-34.602-28.878-109-135-109-135L503.708,430.375z"/>
		<path fill="#FFFFFF" stroke="#000000" stroke-width="6" d="M406.858,390.724c0,0-15.067,45.716-13.649,61.651
			c1.328,14.924,22.5,54,22.5,54l88-76l-22-29.333l-78.784,78.783l27.392-27.308L406.858,390.724z"/>
		<polygon fill="#FFFFFF" stroke="#000000" stroke-width="6" points="1257.708,484.375 1285.042,465.042 1317.208,512.375 
			1314.905,567.327 		"/>
		<polygon fill="#FFFFFF" stroke="#000000" stroke-width="6" points="649.761,1103.626 1143.605,1103.626 1157.708,1160.375 
			636.708,1160.375 		"/>
		<polygon fill="#FFFFFF" stroke="#000000" stroke-width="6" points="659.708,1272.375 1135.708,1272.375 1150.554,1323.226 
			649.502,1323.226 		"/>
		<polygon id="Kragen" fill="#FFFFFF" stroke="#000000" stroke-width="6" points="840.375,335.042 816.004,350.427 816.004,378.131 
			964.535,378.131 981.621,361.045 937.708,335.042 		"/>
		<path fill="#FFFFFF" stroke="#000000" stroke-width="6" d="M806.382,360.049l80.596,89.057c0,0-23.77,30.77-27.27,27.27
			S761.365,387,761.365,387L806.382,360.049z"/>
		<polygon fill="#FFFFFF" stroke="#000000" stroke-width="6" points="981.621,361.045 912.708,456.375 930.208,473.875 
			970.708,456.375 1028.631,390.061 		"/>
		<polygon fill="#FFFFFF" stroke="#000000" stroke-width="6" points="859.708,476.375 859.708,521.375 651.013,470.915 
			704.376,428.26 		"/>
		<polygon fill="#FFFFFF" stroke="#000000" stroke-width="6" points="930.208,473.875 1075.565,423.674 1122.488,470.596 
			926.708,519.375 		"/>
		<polygon fill="#FFFFFF" stroke="#000000" stroke-width="6" points="859.708,521.375 926.708,519.375 946.708,968.375 
			837.708,968.375 		"/>
		<ellipse fill="#FFFFFF" stroke="#000000" stroke-width="6.4677" cx="892.458" cy="491.625" rx="40.75" ry="42.25"/>
		<line fill="none" stroke="#000000" stroke-width="7" x1="801.7" y1="507.349" x2="856.546" y2="585.624"/>
		<line fill="none" stroke="#000000" stroke-width="7" x1="725.706" y1="488.975" x2="852.562" y2="666.572"/>
		<line fill="none" stroke="#000000" stroke-width="7" x1="651.013" y1="470.915" x2="847.544" y2="768.541"/>
		<line fill="none" stroke="#000000" stroke-width="7" x1="605.708" y1="512.375" x2="842.598" y2="869.014"/>
		<line fill="none" stroke="#000000" stroke-width="7" x1="472.819" y1="519.492" x2="445.229" y2="547.082"/>
		<line fill="none" stroke="#000000" stroke-width="7" x1="501.318" y1="547.082" x2="469.876" y2="579.444"/>
		<line fill="none" stroke="#000000" stroke-width="6" x1="498.753" y1="614.716" x2="530.398" y2="583.07"/>
		<line fill="none" stroke="#000000" stroke-width="6" x1="537.034" y1="650.404" x2="568.814" y2="615.487"/>
		<line fill="none" stroke="#000000" stroke-width="6" x1="578.207" y1="675.873" x2="603.313" y2="640.986"/>
		<line fill="none" stroke="#000000" stroke-width="6" x1="626.708" y1="703.375" x2="645.31" y2="670.984"/>
		<path fill="none" stroke="#000000" stroke-width="6" d="M745.805,723.482c0,0-5.481,0.929-14.991,0.897
			c-20.088-0.068-58.154-4.427-100.503-30.896"/>
		<line fill="none" stroke="#000000" stroke-width="6" x1="703.807" y1="822.477" x2="730.815" y2="724.379"/>
		<line fill="none" stroke="#000000" stroke-width="6" x1="685.808" y1="714.482" x2="687.308" y2="682.984"/>
		<line fill="none" stroke="#000000" stroke-width="6" x1="807.302" y1="819.477" x2="768.304" y2="1104.463"/>
		<line fill="none" stroke="#000000" stroke-width="6" x1="741.305" y1="1159.959" x2="721.806" y2="1272.454"/>
		<line fill="none" stroke="#000000" stroke-width="6" x1="789.303" y1="1158.46" x2="774.304" y2="1273.954"/>
		<line fill="none" stroke="#000000" stroke-width="6" x1="841.801" y1="1158.46" x2="834.301" y2="1273.954"/>
		<line fill="none" stroke="#000000" stroke-width="6" x1="892.798" y1="1159.959" x2="889.798" y2="1272.454"/>
		<line fill="none" stroke="#000000" stroke-width="6" x1="891.298" y1="967.969" x2="892.798" y2="1102.962"/>
		<line fill="none" stroke="#000000" stroke-width="6" x1="945.295" y1="1159.959" x2="946.795" y2="1272.454"/>
		<line fill="none" stroke="#000000" stroke-width="6" x1="996.293" y1="1159.959" x2="1003.792" y2="1270.954"/>
		<line fill="#FFFFFF" stroke="#000000" stroke-width="6" x1="1048.79" y1="1159.959" x2="1066.789" y2="1270.954"/>
		<line fill="#FFFFFF" stroke="#000000" stroke-width="6" x1="988.793" y1="502.992" x2="928.796" y2="588.488"/>
		<line fill="#FFFFFF" stroke="#000000" stroke-width="6" x1="1050.29" y1="489.493" x2="933.296" y2="675.483"/>
		<line fill="#FFFFFF" stroke="#000000" stroke-width="6" x1="1122.488" y1="470.596" x2="936.296" y2="763.979"/>
		<polyline fill="#FFFFFF" stroke="#000000" stroke-width="6" points="1177.783,511.992 981.636,806.213 940.796,867.474 		"/>
		<line fill="#FFFFFF" stroke="#000000" stroke-width="6" x1="1014.292" y1="1104.462" x2="981.636" y2="806.213"/>
		<line fill="none" stroke="#000000" stroke-width="6" x1="1051.79" y1="727.981" x2="1073.708" y2="822.375"/>
		<line fill="none" stroke="#000000" stroke-width="6" x1="1105.787" y1="673.984" x2="1111.787" y2="709.982"/>
		<path fill="none" stroke="#000000" stroke-width="6" d="M1141.785,664.984l17.999,31.498c0,0-91.495,32.999-127.493,29.999"/>
		<line fill="none" stroke="#000000" stroke-width="6" x1="1173.284" y1="642.485" x2="1197.282" y2="669.484"/>
		<line fill="none" stroke="#000000" stroke-width="6" x1="1200.282" y1="616.986" x2="1227.281" y2="645.485"/>
		<line fill="none" stroke="#000000" stroke-width="6" x1="1231.781" y1="592.988" x2="1251.281" y2="618.486"/>
		<line fill="none" stroke="#000000" stroke-width="6" x1="1260.28" y1="564.489" x2="1279.779" y2="588.488"/>
		<path fill="#078930" stroke="#000000" stroke-width="6" d="M1145.708-387.625"/>
	</g>
	<g id="Gesicht_1_">
		<path fill="#FFC99E" stroke="#000000" stroke-width="5" d="M840.375,335.042c0,0,33.854,7.217,45.333,7.333
			c13.128,0.133,52-7.333,52-7.333c-9.288-9.288-10.142-43.092-10.142-43.092l-77.717,2.938
			C849.85,294.889,849.089,326.328,840.375,335.042z"/>
		<path id="Gesicht" fill="#FFC99E" stroke="#000000" stroke-width="5" d="M812.708,170.375h142c-11,42,4,139-68,139
			C820.698,309.375,826.118,216.965,812.708,170.375z"/>
		<path id="Augenbraue_1_" fill="none" stroke="#000000" stroke-width="5" d="M834.178,197.375c0,0,19.53-7.632,30.53-1"/>
		<path id="Augenbraue" fill="none" stroke="#000000" stroke-width="5" d="M897.179,197.375c0,0,19.529-7.632,30.529-1"/>
		<path id="Nase" fill="none" stroke="#000000" stroke-width="5" d="M890.944,203.61c0,0,9.382,32.383-2,43.765
			c-5.618,5.618-13.235,3-13.235,3"/>
		<path id="Mund_1_" fill="none" stroke="#000000" stroke-width="5" d="M870.708,275.375c0,0,13.5-8.25,28,0"/>
		<path id="Mund" fill="none" stroke="#000000" stroke-width="3" d="M892.708,281.709c0,0-8,7.166-16,0"/>
		<path id="Auge_1_" fill="none" stroke="#000000" stroke-width="5" d="M839.375,214.042c0,0,7.867-0.813,10.5-0.833
			c3.298-0.026,14.164-0.164,13.167,0.833c-1.25,1.25-12,9-12,9"/>
		<path id="Auge" fill="none" stroke="#000000" stroke-width="5" d="M928.107,214.042c0,0-7.867-0.813-10.5-0.833
			c-3.299-0.026-10.562,0.836-9.565,1.833c1.25,1.25,8.397,8,8.397,8"/>
	</g>
</g>
</svg>
