<?xml version="1.0" encoding="UTF-8" standalone="no"?>
<svg xmlns="http://www.w3.org/2000/svg" width="482" height="528">
 <g fill-rule="evenodd">
  <path d="m241.04 7c-79.86.316-155 12-235 37 35 70 27.01 176.83 35 270 15 175 138 208 200 208v-8z" fill="#0f47af"/>
  <path d="m241.04 7c79.86.316 155 12 235 37-35 70-27.01 176.83-35 270-15 175-138 208-200 208v-8z" fill="#fcdd09"/>
  <g stroke-linejoin="round">
   <g stroke="#000" stroke-linecap="round">
    <path d="m6.04 44c160-50 325-50 470 0-35 70-27.01 176.83-35 270-15 175-138 208-200 208-62 0-185-33-200-208-7.986-93.17 0-200-35-270" fill="none" stroke-width="6"/>
    <g fill="#da121a" stroke-width="4">
     <path d="m380.7 187.29c22.2 1.528 40.36 22.53 31.21 54.37-7.853 27.335-45.95 47.771-75.875 77.34-29.925-29.572-68.02-50.01-75.875-77.34-9.147-31.84 9.01-52.842 31.21-54.37 15.523-1.068 29.576 10.902 44.663 26.713 15.09-15.811 29.14-27.781 44.663-26.713z"/>
     <path d="m380.7 48.29c22.2 1.528 40.36 22.53 31.21 54.37-7.853 27.335-45.95 47.771-75.875 77.34-29.925-29.572-68.02-50.01-75.875-77.34-9.147-31.84 9.01-52.842 31.21-54.37 15.523-1.068 29.576 10.902 44.663 26.713 15.09-15.811 29.14-27.781 44.663-26.713z"/>
     <path d="m380.7 326.29c22.2 1.528 40.36 22.53 31.21 54.37-7.853 27.335-45.95 47.771-75.875 77.34-29.925-29.572-68.02-50.01-75.875-77.34-9.147-31.84 9.01-52.842 31.21-54.37 15.523-1.068 29.576 10.902 44.663 26.713 15.09-15.811 29.14-27.781 44.663-26.713z"/>
    </g>
    <g fill="#fff" stroke-width="2">
     <path d="m150.77 70.15c-.073 4.676 1.986 7.97 3.917 9.139.691-1.87 1.531-6.05 3.367-6.548 1.014 2.388.218 6.077 2.391 6.61 1.471-.97 3.243-4.159 3.868-7.996"/>
     <path d="m151.04 95.03c.636-2.824.993-6.716 3.277-9.07.634 3.506 1.129 6.137 3.835 8.304.83-2.918.074-6.974 2.954-7.918 1.936 2.199 2.342 6.25 3.465 8.355"/>
    </g>
    <path d="m114.51 165.7c-1.913-3.459-7.088.0001-7.829-2.466-1.323-4.408-4.101-4.933-2.879-10.121-3.751.044-9.584 3.561-10.383-1.953-1.342-9.257-1.445-17.955-2.579-25.287-.272 5.712-4.427 8.187-9.205 7.89 1.309-9.108 2.456-17.666-3.194-23.295-3.444 9.05-4.822 9.399-8.83 2.63-11.634-2.423.545-9.629-3.569-12.211-4.299-2.698-12.49 17.605-15.781.188-9.595-13.54 9.17-8.131 10.145-13.526-.232-4.651-21.17-4.294-9.205-15.12 7.237-15.635 12.28 7.336 15.968 5.918 5.144-1.978-7.676-23.758 8.08-16.344 18.519-.432 5.494 8.923 4.992 14.834-.427 5.03 5.117 11.646 8.722 14.1 10.707 7.277 29.16 14.949 26.489 18.974 14.436-8.508 23.78-1.792 35.506-.376 19.858 2.399 22.565-2.855 26.11-9.205-9.596 3.979-12.531 4.526-20.982 1.838-1.379-.439-6.755.153-8.769 1.131-2.908 1.411-3.123-9.04-1.059-9.544 6.01-1.467 9.49.353 20.1.142 12.304-.244 6.417-7.75 8.838-11.317 4.167-6.137-1.641-11.2-4.76-10.416-6.638 1.59-13.222 1.367-20.05-.953-3.314-1.127-3.672-5.357-4.901-10.496-1.649-6.891 2.334-6.975 6.03-9.418-5.09 2.759-9.05-6.833-6.781-7.928 10.767-5.198 23.289-1.331 32.706-4.283 19.998-6.269 40.677.553 26.935 7.482 5.063-1.381 12.07-4.587 16.782-2.309 4.504 2.178.203 7.766 5.879 13.238 2.563 2.47-8.2 12.352-4.419 18.976 6.506 11.399 3.107 20.505 3.292 29.3-2.097 1.636-4.749-5.559-7.327-9.957 6.068 16.407 2.374 25.487 5.072 38.512-4.56 1.295-7.701-2.706-11.272-8.83 7.784 12.361-2.454 21.511 3.01 35.13-4.799.826-8.282.039-10.896-10.896 2.516 14.05-4.717 25.895-2.254 35.694-10.691-.487-8.267-11.456-9.581-19.914 3.393 17.967-8.861 28.537.376 40.2-3.041.683-5.913.185-8.454-2.63-2.203 18.25 2.247 42.767 11.08 62.18 4.879 10.72 12.13 23.299 15.236 33.622 2.178 7.235 2.394 12.727 8.247 10.714 11.775-4.05 1.579-27.495-3.01-43.02-8.34-28.24-9.227-51.44-3.757-74.21-9.569-14.257 12.281-29.324 17.283-53.54 2.63 12.872 1.263 25.892-9.581 39.26 4.822-3.499 9.644-11.486 14.465-19.914-.116 10.03-4.276 17.89-10.896 24.422 1.86-.384 5.163-2.571 9.02-5.448.467 6.962-13.624 11.429-14.841 19.726-3.824 26.06-5.629 38.07 4.321 66.13 4.387 12.371 12.713 31.06 11.46 42.27-1.803 16.11-10.11 14.511-17.283 15.781 1.651 14.512-7.351 24.01-9.957 35.506 3.882 3.531 7.427 8.925 10.731 13.474 2.265 3.118 1.068 6.632 1.855 10.572 3.221 16.11 12.09 8.613 15.03 1.315 2.736 6.627 2.18 12.981-1.429 16-4.356 3.647.173 7.697-6.461 12.741 3.571 1.582 6.69-.906 9.769-3.757-.349 7.533-3.121 15.326-13.714 18.974 3.099 4.03 7.833 1.021 11.08.188-1.325 8.384-8.956 8.872-15.03 11.08 1.981 1.577 3.749 3.26 8.642 3.382-4.948 6.302-12.77 4.583-19.16 8.83.759 7.15 7.436 19.282-2.254 18.786-6.908 9.455-10.238 2.516-13.15 1.127-1.346 3.241-5.409 3.99-5.738 6.435-1.058 7.866-8.203 9.09-12.11 3.71-15.504-2.5-1.556-8.705 3.194-13.714-2.076.33-6.214 1.314-8.737 2.891-7.379 4.608-13.354 15.757-15.12-.636-13.413-13.542 9.793-3.509 13.15-11.835-9.552 3.102-25.855 1.683-17.1-8.83-.875-15.548 9.228-1.806 17.234 2.563 4.04 2.206 11.45.31 15.83-4.254 3.425-3.569 5.57-11.915 5.736-18.845.18-7.538 5.542-10.925 3.658-18.16-1.126-4.325-3.68-4.481-3.739-8.399-.184-12.254-6.979-24.486-14.11-34.809 3.287 7.06 5.7 12.492 4.02 16.16-2.266 4.949-2.459 6.994-5.334 10.515-2.88-5.01-2.115-10.924-.939-18.598-3.16 16.812-14.07 15.03-14.09 30.622-7.948-12.13 8.857-37.16 6.387-43.584-6.202-16.13.955-25.03 5.072-36.821-7.64 1.315-29.04-4.864-25.737 7.327 5.92 21.866-.184 15.58.746 24.21.75 6.957 8.252 11.661 5.641 21.248-1.89.638-4.084-1.164-9.205-7.515 8.092 13.09 1.495 8.902-1.578 15.09-1.92 3.864-2.492 8.569-2.743 13.282-5.316-1.756-7.04-8.696-7.89-16.908-4.245 4.212-4.338 10.797-5.26 16.908-1.848-9.826-8.825-8.669-6.01-20.853-1.813 5.975-5.512 6.772-7.89 12.02-5.47-4.674-1.013-14.603-3.945-17.659l-3.194 10.896c-5.979-6.917-3.352-11.737-4.573-16.276-.815-3.03-3.03-2.752-3.506-5.704-.382-2.375-4.952 6.982-7.702-2.254-5.94-2.935-1.73-5.235-.188-7.702-4.099-8.702-6.669-4.384-8.656-1.797-2.395 3.118-5.02 6.179-6.936-3.088-14.587-15.334 6.842-6.122 8.266-11.08-1.582-1.168-3.948-5.166-6.788-4.275-8.15 2.556-15.365 2.914-7.865-8.312-2.915-15.939 8.05-1.81 13.15-.376-2.411-5.545-14.734-13.713-1.879-15.217 5.376-6.318 8.501 2.364 8.292 9.814-.125 4.462 8.04 6.43 10.682 10.663 10.469 16.774 17.42 7.707 23.859 19.35 1.511-3.461 1.596-7.713 7.327-8.83-7.322-3.762-4.903-11.127-10.52-14.278-6.468-3.628.084-11.223-1.71-16.27-1.127-3.172-4.734-5.681-7.645-8.569-2.858-2.836-4.428-4.922-8.68-8.04 6.702 1.978 8.971 2.056 12.399 2.63-8.335-7.435-16.496-14.945-10.145-28.743 4.684 14.161 15.306 19.849 29.495 19.726 19.86-.173 17.16 11.545 40.954 15.217-4.751-15.951-11.857-26.343-18.786-36.07-9.216-12.938-20.788-24.22-20.289-43.96-2.055 3.456-4.11 5.192-6.165 5.644-1.261-1.952-1.639-6.109-1.913-10.528-.055 7.803-5.25 12.803-10.708 17.659-2.748-1.945-.667-6.304-.751-9.581-2.653 5.842-7.511 5.159-6.751 9.12.616 3.212-.769 6.149-3.581 6.66-1.442 10.462-9.44-2.444-11.835 1.691-3.133 5.408 11.278 16.585-4.509 15.593-12.11 8.689-5.764-10.314-10.708-9.957-4.646.336-7.968 20.233-15.781 2.442-12.804-7.509 11.736-9.997 8.83-15.217-2.63-4.725-17.22 2.5-8.83-13.15-.437-11.795 7.82-7.02 12.243-2.321 2.768 2.943 7.664 2.779 11.428.254 6.74-5.789 11.417-12.138 17.195-18.889 5.976-6.982 13.12-14.301 24.13-16.242-14.722 3.332-20.739-3.126-29.495-8.454 8.237.256 13.238-3.895 20.665-7.327z" fill="#fcdd09" stroke-width="3"/>
   </g>
   <g stroke-width="3">
    <g fill="#da121a">
     <path d="m38.12 69.3c4.664-2.81 10.147-5.965 15.523-.158 2.573 2.779-3.167 9.02-5.191 6.357-3.02-3.974-6.799-4.582-10.332-6.199z" stroke="#000100"/>
     <path d="m115.26 58.22c13.738-.559 9.724 16.474 23.08 19.69 14.773 3.556 25.865.03 36.858 4.665l-.673 3.305c-15.717-1.153-36 2.84-48.952-3.757-9.388-4.914-9.422-14.902-10.316-23.903" stroke="#000" stroke-linecap="round"/>
    </g>
    <g stroke="#000" stroke-linecap="round">
     <g fill="#fcdd09">
      <path d="m202.81 207.92c-6.111 7.458 1.523 12.292 6.181 13.374-6.616-10.239.391-12.668 7.02-12.577 13.36.183 16.572-6.715 16.03-15.356-8.97 12.46-22.23 6.02-29.23 14.559z"/>
      <path d="m205.43 228.75c-6.111 7.458.327 12.823 4.985 13.906-5.154-10.638 2.251-12.535 6.755-13.374 13.13-2.447 18.432-7.91 16.03-16.286-6.579 8.873-20.773 7.218-27.768 15.755z"/>
      <path d="m210.08 249.34c-4.695 3.935-.603 10.299 4.055 11.382-1.833-7.184 2.937-8.05 5.693-8.991 9.984-3.402 12.587-3.925 12.573-14.692-7.376 8.08-13.839 5.192-22.321 12.301z"/>
     </g>
     <path d="m189.41 60.09c-7.556-8.19-8.03-16.733-12.182-10.746-1.674 2.415-5.112.698-7.4 3.458 8.541-1.965 13.62 2.282 19.582 7.288m34.46-8.62c-2.42 4.708-4.605 12.145-8.612 13.679 4.549-.397 5.446 7.091 7.366 11.322m-6.248-23.819c-1.259 6.869-5.269 8.236-8.502 11.159m9.83 18.465c-3.321 6.987-6.642 9.291-9.963 13.417m7.97-20.59c-1.518 3.873-6.367 8.411-9.564 12.62m5.712-18.73c-1.274 5.897-4.628 8.152-7.173 11.823m-18.332-4.782c-1.246 9.701-5.782 7.786-4.628 16.289 1.518-2.578 6.326-2.195 4.495-7.788m29.756 9.03c-3.768 7.158-8.462 10.609-12.885 15.14m-18.199-7.97c-2.792 2.229-6.114 3.84-10.626 4.069m13.682-13.235c-1.308 5.236-7.369 2.929-10.877 8.754m5.829 6.921c-2.969 1.848-8.169 3.418-13.948 4.915m10.76 3.321c-2.17 1.258-5.372 1.932-10.1 3.055m4.251 2.922c-2.01.926-5.211 1.51-9.697 1.727m-54.46 10.1c1.069 2.607 1.874 4.952 2.236 6.852m-6.752-12.165c-.261 4.832.491 9.375 2.708 13.499m-8.02-16.953c-.57 6.085 1.029 9.133 2.125 12.885m-7.572-20.856c.071 6.598.986 8.975 1.727 12.221m-11.69-20.06c1.409 13.237 2.819 8.263 4.228 3.546-1.576 5.814.718 9.478 2.148 13.622m24.61-15.968c-2.972.872-5.522 2.249-10.171 1.107 8.816 5.154 7.296 15.404 21.255 18.744m29.93-6.305c-11.03 4.45-24.844.829-31.937 7.935-8.902 8.919-16.692 10.833-25.511 11.36 2.494 9.285 11.03 14.3 25.83 14.883m46.1-31.389c-.863 1.439-4.672 1.499-8.635 1.727m-9.432 3.852c-8.434-1.735-14.758 2.51-21.12 6.642m6.509 5.446c-11.895 2.362-13.381 7.638-16.871 12.354m25.771-8.635c-14.832 1.814-22.275 10.508-32.654 18.07m98.01-59.39c-3.382 5.954-8.277 8.378-12.62 12.09m13.02-2.391c-3.631 4.685-7.262 7.05-10.893 10.1m10.36-.61c-3.542 3.82-8.692 7.371-14.345 10.839m-21.254 7.572c-8.458 3.86-17.15 7.383-21.653 16.871m31.35-31.35c-8.573 12.441-23.318 10.735-32.811 22.45m-20.59 10.361c-3.164 4.473-8.124 8.429-14.642 12.643 8.02 3.504 15.624-8.452 21.02-15.699m.502 34.824c-2.698 4.457-3.561 11.829-11.906 7.317 8.178 5.274 2.296 4.146-4.634 2.541 10.502 4.775 4.963 5.05-4.552 4.203m22.981-42.907c-13.457 7.601-10.142 21.16-17.294 30.793 7.555-1.441 16.381.966 24.334-7.811m-.399-19.395c-2.595 9.42-7.753 12-12.354 16.07m14.612-10.229c-1.12 7.818-8.162 10.208-13.151 14.48m10.229 3.852c-.964 3.555-.336 5.783.813 7.578-3.01 3.01-5.362 6.598-8.375 13.734-1.779-.956-3.248-3.615-4.318-8.466-.675 4.076-2.169 9.282-4.906 12.53m-13.767-3.325c-1.569 1.132-5.114.288-8.767-.664m14.456-.896c-.825-3.03-5.445-1.795-8.877-1.894m-13.815 4.517c6.59 1.06 14.829 1.68 11.233 5.456m-11.233-1.338c1.253 1.751 4.04.954 6.247 1.107-3.617.439-4.179 4.859-9.656 1.415 5.265 3.455 3.908 6.213-6.289 1.729m48.09 105.87c1.774 5.362-.385 9.568-4.62 13.162 8.765-6.711 8.814-.288 2.135 8.62 4.277-5.336 7.993-3.868-.952 8.905 6.296-9.115 9.616-1.87.914 5.578m-13.417-69.61c-4.339 4.574-2.085 8.537.194 15.198-4.057-5.478-11.08-15.09.736-22.504m42.509 16.339c-7.546.678-15.56-3.365-24.442-5.181m26.04 15.675c-9.857 2.131-18.288-5.358-28.428-.664m31.756-3.433c-9.615-.13-16.11-2.976-26.974-5.069m26.751-5.706c-13.802.061-23.546-8.325-35.12-9.836m34.378 6.573c2.048 6.665 1.102 15.988-.564 25.362m56.55 86.981c-4.59 1.736-4.556 7.867-12.612 11 3.056-.433 5.965.753 8.667 4.214-7.854-.413-4.601 2.761-10.737 3.22 10.339 1.775-.564 6.141-3.275 9.507 5.887 5.748.723 7.943-2.897 10.635 1.657 3.804-.091 6.226-4.02 7.762.959 3.788-.653 6.518-5.714 7.828.604 3.44-1.923 3.228-3.226 4.444m-70.36-100.35c4.758 1.521 8.02 4.218 11.884 5.882-6.334-2.198-11.421-.091-16.4-10.595 3.983 8.089-.465 15.607-6.756-5.879 3.078 14.14-4.973 12.501-6.612-7.716-.479 11.887-5.03 10.483-7.754-4.94m125.93 52.737c.064 3.795-.728 7.65-5.845 11.159m-.399-8.9c1.92-4.02 3.107-10.415 2.987-20.07-1.152 3.49.375 8.797-6.707 14.359m.797-22.45c.708 7.679-.938 11.995-2.657 16.206m-3.055-26.568c.496-5.448-1.223-7.632-7.439-3.188m15.409-26.302c-3.631 6.01-6.268 12.456-12.885 17.14m-15.277 16.07c-8.261-2.843-9.872-8.751-8.526-16.951-2.555 5.637.256 10.785 1.258 16.1-6.376-2.836-13.458-12.316-9.47-21.863m39.05-14.347c-1.229 4.837-3.1 9.547-7.838 13.682m8.236-27.896c-.441 10.118-6.211 15.618-11.823 21.254m-19.13-25.904c-.312 5.795-2.027 8.318-3.321 11.823m28.826-184.65c-3.03 3.823-7.96 7.726-14.347 11.69m2.524 5.845c-5.135 2.663-9.586 6.316-11.557 13.55m7.306-2.258c-6.808 4.419-11.466 17.877-2.822 11.641-2.31 2.493-3.88 5.314-3.02 9.215m-15.277-18.598c1.558-7.789 10.03-10.229 7.314 2.586-5.02 23.668 1.088 26.62 10.05 32.28m-10.851-51.21c-8.269 2.857-9.462 8.286-10.07 13.928-4.087-7.04-8.813 3.566-9.01 13.994-.131 6.962 1.745 11.06-1.691 20.223 6.369.165 11.07-3.852 15.326-8.958m10.494 101.62c-2.729 4.561-1.924 9.122-1.594 13.682m-2.79-24.974c-1.387 2.533-1 6.13-.664 9.697m-3.587-18.996c-1.7 2.274-.839 6.681-.531 10.627m-5.978-11.159c-1.49-1.942-.099-5.324.361-8.24-5.803 2.889-4.837-6.883-3.416-10.224m-5.579-7.306c-.969 3.967-2.396 9.183.399 11.557m-16.206-39.453c-3.787 10.82-1.963 14.475 1.846 11.865m7.851-.972c-1.979 1.757-3.656 5.185-4.216 7.612-2.115 9.173 2.154 11.432 6.117 1.154-1.36 4.384-4.675 8.768-1.104 13.153m-3.188-31.483c-6.312 10.259-9.244 17.831-1.825 17.18" fill="none"/>
    </g>
    <g fill="#da121a" stroke="#000100">
     <path d="m71.08 49.871c5.077 1.97 10.926 4.377 9.622 12.182-.624 3.735-9.07 3.01-8.204-.216 1.297-4.82-.535-8.181-1.418-11.966z"/>
     <path d="m39.7 108.46c.972-5.358 2.227-11.558 10.138-11.757 3.786-.095 4.68 8.338 1.343 8.097-4.978-.36-7.931 2.076-11.48 3.66z"/>
     <path d="m60.17 119.07c5.113 1.873 9.03.921 11.513-2.796 2.104-3.149-2.194-7.504-3.674-4.503-2.209 4.476-4.677 5.04-7.839 7.299z"/>
     <path d="m45.24 219.53c3.757-3.942 8.213-8.431 14.931-4.249 3.215 2-.674 9.538-3.329 7.502-3.961-3.037-7.767-2.625-11.602-3.253z"/>
     <path d="m51.741 260.78c-1.164-5.32-2.391-11.525 4.835-14.752 3.458-1.544 7.527 5.896 4.354 6.957-4.733 1.583-6.522 4.967-9.189 7.795z"/>
     <path d="m94.05 265.66c-5.41-.623-11.678-1.473-12.389-9.355-.34-3.772 8.02-5.21 7.993-1.864-.037 4.991 2.585 7.78 4.396 11.219z"/>
     <path d="m105.03 248.7c3.376-4.273 2.688-7.435.048-11.622-2.02-3.203-7.181.615-5.083 3.22 2.059 2.557 3.876 4.692 5.03 8.402z"/>
     <path d="m64.878 296.76c5.415-.581 11.716-1.129 14.14 6.404 1.161 3.605-6.676 6.844-7.388 3.575-1.061-4.877-4.232-7.02-6.754-9.979z"/>
     <path d="m49.769 324.01c3.27-4.355 7.169-9.335 14.331-5.969 3.427 1.611.448 9.551-2.427 7.84-4.289-2.552-8.02-1.697-11.903-1.871z"/>
     <path d="m60.24 354.8c-.654-5.406-1.287-11.7 6.212-14.227 3.589-1.21 6.934 6.583 3.675 7.339-4.862 1.127-6.964 4.327-9.886 6.889z"/>
     <path d="m76.12 362.24c4.805 2.562 9.882 2.982 12.692-.845 2.242-3.052-1.945-7.904-3.826-5.137-2.806 4.127-5.422 4.181-8.866 5.982z"/>
     <path d="m135.86 449.45c3.305-4.328 7.245-9.276 14.379-5.852 3.414 1.639.37 9.554-2.491 7.82-4.268-2.587-8.01-1.763-11.888-1.968z"/>
     <path d="m143.18 477.56c.528-5.42 1.268-11.702 9.136-12.551 3.765-.406 5.35 7.925 2 7.959-4.991.051-7.733 2.722-11.14 4.592z"/>
     <path d="m169.35 492.69c-2.585-4.793-5.475-10.419.582-15.513 2.898-2.438 8.86 3.593 6.103 5.488-4.114 2.826-4.901 6.573-6.685 10.03z"/>
     <path d="m206.03 480.85c3.709-3.987 5.293-7.953 2.594-12.529-1.924-3.262-9.48.306-7.289 2.834 3.269 3.771 3.838 5.904 4.695 9.695z"/>
    </g>
   </g>
  </g>
  <path d="m241.51 6.02l-.465 515.98" fill="none" stroke="#000" stroke-width="4"/>
 </g>
</svg>
