<?xml version="1.0" encoding="UTF-8"?>
<svg viewBox="0 0 376 450" xmlns="http://www.w3.org/2000/svg">
<path d="m4 4v257.5a183.75 183.75 0 0 0 367.5 0v-257.5z" fill="#07c" stroke="#000" stroke-width="7"/>
<path d="m217.75 11.31l.05.05c-2.31 0-4.48 1.43-5.72 5.27-2.21.68-5.18 1.78-5.31 4.57-.05 3 3.02 4.34 4.15 6.79-2.47-.33-5.84-1.6-7.47 1.08-1.31.93-.35 3.19-2.07 3.63-1.63.64-2.44 2.66-2.26 4.34.7 1.61 2.1 2.64 3.56 4.04.21.91-.13 2.06.45 3.1.96 3.66 5.05 4.68 8.24 3.53-.35 2.37-2.02 4.38-3.71 5.95-2.12 1.36-5.22-.21-4.34-3.01 1.06-3.45-2.29-8.13-5.88-6.07-3.23 1.36-2.42 5.46-2.7 8.29-2.54 4.42-8.09-1.37-6.72-4.87 2.28-.38 5.16.38 6.7-1.88 1.55-1.22.89-3.32 1.17-5.02 1.22-1.57 2.93-3.53 2.08-5.69-.93-1.5-2.15-2.84-2.63-4.6-1.11-3.72-5.77-5.14-9.05-3.92-3.12 1.66-2.69 5.62-4.01 8.44-.33 1.18-2.93 1.2-2.19-.3 1.34-3.15 4.69-5.96 3.79-9.76-.55-2.52-2.96-3.51-4.94-4.62-1.32-.96-3.05.82-4.31-.39-1.67-1.31-3.4-2.87-5.56-3.13-2.49.47-5.33 1.76-6.51 4.18.37 2.58 2.02 4.56 2.4 7.14 1.06 3.64-1.3 7.27-.34 10.91.51 1.51 1.73 2.65 2.33 4.11-.09 1.72-.22 3.64.97 5.03 1.78 2.59 5.1 3.37 6.81 6.03 3.53 4.06 7.25 9.03 6.59 14.8-1.22 2.13-4.08 2.66-5 5.05-1.44 2.76-.04 5.94-.26 8.77-3.25 2.05-6.98 4.47-7.72 8.64-.76 3.02 2.04 5.03 3.25 7.41-1.13 4.52 1.9 8.89 4.11 12.65.71 2.64 3.76 3.54 5.96 4.5l.34.34c-5.08.78-9.07 2.79-12.63.06-4.3-2.3-9.6-3.37-14.3-1.82-3.18 1.99-3.11 6.33-2.13 9.56 2.08 3.23 5.2 6 9.08 6.48 6.75 1.8 13.34-1.32 19.78-3.04 2.22-.6 4.07-2.37 6.47-2.12.08 2.72-1.14 5.18-1.77 7.75.53 3.19 4.72 2.24 6.4 4.39 1.4 1.06 1.15 3.04.91 4.58-.99 2.1-3.98 1.24-4.66-.52-1.49-3.01-3.9-6.8-6.38-7.57-5.44-.98-8.42 2.71-9.65 6.06 1.88.66 6.41.26 5.09 3.4-4.92-1.3-11.39.39-13.45 5.6-.19.63-1.16.52-1.4-.03-5.46-6.94-9.28-14.98-12.56-23.18 1.65-16.22 2.76-33.05-.78-51.61h-5.19c-.3-3.28-2.81-5.72-5.41-7.35.29-1.35 1.17-2.69.23-4.03-2.3-3.92-6.28-6.99-10.7-7.85-2-.52-4.34.94-6.07-.52-1.75-1.38-4.06-1.53-5.97-2.58-4.05-2.13-9.72-2.26-12.99 1.39-2.35-.54-4.71-1.01-7.02-1.64-3.41.65-7.22 1.16-9.73 3.89-3.68 3.51-8.14 7.38-8.35 12.94.14 2.02 1.3 3.77 1.72 5.73h-61.03c-3.19 18-2.98 37.17-.88 53.93 2.46 19.64 9.35 38.65 19.9 55.14 5.94 9.28 14.09 19.69 20.81 28.49-2.17 1.79-3.46 3.05-4.05 4.84-3.39 1.73-4.99 5.38-6.06 8.89-.46 3.78 1.02 7.5 3.42 10.32 1.79 3.38 4.81 5.76 7.83 7.92 2.14 1.31 4.75.92 7.11 1.35 4.5 4.15 10.83 6.05 16.8 4.82 2.08-.07 4.18-1.38 6.22-.46 3.48 1.11 7.24.93 10.81.49 3.93-1.48 8.09.82 12.04-.71 1.68-.8 3.16.65 4.75.98 3.14.99 6.22-1.4 9.36-.5 4.69 1.13 9.49.14 14.22-.16 2.4-.15 4.34-2.51 6.74-2.11l6.59 5.1c1.21.14 3.58-1.35 3.66-3.21 2.88.6 5.96.83 8.25-1.43 1.68 1.47 3.67-.93 5.41.16 2.78 1.82 6.87 2.29 11.03.67 0 0-2.77-1.75-1.49-3.02 2.68-2.42 6.56-.63 9.7-1.63 1.32-.17 2.31-1.37 3.58-1.53 1.55.63 3.59 1.2 4.18 3 .49 1.18-.73 2.24-.57 3.4 1.81.75 3.79.65 5.69.92 1.44.71 1.46 2.7 2.69 3.62 1.08.37 2.06-.49 3.08-.74 1.36 4.16 6.26 2.16 9.43 2.83 6.04 1.39 12.35 2.25 17.89 5.26.77.67 1.43 1.49 1.91 2.42-.36 1.58-1.3 3.18-.52 4.8.24 1.5 2.2 2.54 1.72 4.08-2.3.49-4.64.07-6.97-.35-10.79-1.96-19.21-6.62-27.9-9.32-9.65-2.88-20.46-4.17-29.7.41-5.56 3.04-10.45 7.42-13.84 12.88-.76.95-1.61.02-2.2-.6-2.32-2.5-5.69-3.58-9.04-3.79-5.55-.35-11.61 3.9-12.23 9.39 0 0 5.83-.66 8.26.02.39 3.25-.07 6.8 1.79 9.69 1.44 3.72 5.34 5.28 8.7 6.66.25 3.07-1.68 5.96-3.64 8.1-3.66 2.48-6.4 6.2-10.38 8.18-4.66 4-11.09 4.03-16.34 6.86-2.72.69-5.84 2.3-8.56 1.14-.5-2.38.71-5.04.5-7.39-.29-3.25-3.6-4.63-6.18-6.02-2.1-.98-2.04-3.47-3.81-5.01-6.01-5.24-21.43-2.11-23.51 7.71l7.68-1.44c-1.25 3.15-.85 7.53 2.02 9.54 1.16 2.07 5.19 1.36 4.86 4.22-4.97-1.14-7.92-6.75-13.17-7.31-2.84-.66-5.63.59-8.08 1.94-2.89-.76-6.04-.6-8.7.68-5.44 2.62-8.62 9.13-8.11 15.28 0 0 5.27-4.7 8.7-3.09-.11 6.32 6.83 10.05 12.14 8.57 1.55-.57 2.93-1.56 4.52-2.05.76.35 2.34.95 1.66 2.04-1.81.41-3.83.51-5.13 2.07-1.69 1.97-4.49 1.22-6.51 2.45-2.87 2.79-4.9 6.52-5.64 10.5-.56 5.24 1.56 11.46 6.5 13.67 1.29-2.81 2.11-6.01 4.56-8.06 1.18-.01 2.15.87 3.26 1.21 4.36 1.14 9.22-.76 11.72-4.6 1.25-2.09 3.43-3.64 5.91-2.92.12 4.71 4.32 9.19 9.15 10.46.53 3.27-4.91 9.82-4.68 9.81 8.56-2.63 15.61-3.95 17.44-16.26 2.8-1.38 3.2-5.26 3.53-5.52 1.22 2.51.55 5.36-.75 7.67 1.79 2.17 5.01-.19 7.2-.63 2.97.97 6.06 4.27 5.37 7.82-.88 2-4 2.15-5.58 2.77 3.63 5.03 11.31 6.27 15.86 3 2.38-1.71 4.24-4.24 5.45-6.97.92-2.41 3.97-1.48 5.92-1.58-.4 1.86-1.68 3.33-1.9 5.28-.37 3.3 1.04 6.95 4.06 8.44 2.32 1.15 4.95.95 7.38.58-.81-1.04-2.1-2-1.4-3.52 1.86-1.86 4.53-2.72 5.97-5.08 1.1-1.79 1.17-3.89 1.77-5.83 2.87-.62 4.23-3.63 6.97-4.49 1.55-.69 3.19.23 4.77.08 2.4-.6 4.76-1.62 6.48-3.48 3.39-2.73 2.42-7.65 4.1-11.29-3.26-.25-6.03 3.39-9.29 1.8-.87-.84-.51-2.11.01-3.02 2.2-2.1 4.91-3.65 6.81-6.07 1.92-3.26-2.56-5.72-1.86-9.08-.45-6.44 4.94-11.65 10.87-12.52-.87 5.11 1.22 9.84 2.75 14.56 2.14 3.57 4.11 7.55 4.13 11.83-.69 2.06-3.05 1.97-4.78 2.27-4.79 2.15-6.63 8.6-4.53 13.33 1.23 1.6 2.62 3.5 4.85 3.36-.28-1.67-2.66-3.56-.71-5.02 3.44-.41 7.05-.06 10.23 1.43 3.63.68 7.06-1.71 8.44-5.08 3.39.05 5.5 3.72 8.48 5.07 2.26.78 2.08 3.65 1.25 5.48-1.17 2.28-1.89 4.91-4.06 6.45-4.31 7.15-11.36 11.84-16.79 17.97-.81.71-1.85 1.09-2.81 1.55.5-1.85 1.8-3.89.64-5.76-2.34-2.73-5.93-4.14-9.46-3.83-2.35.25-4.37-1.18-6.55-1.72-8.31-1.71-21.96 8.44-18.43 14.88 2.73.02 5.35-3.32 8.42-2.55.01 1.55-.14 3.13.27 4.65.45 1.63 2.34 2.31 2.73 3.97-4.46-.59-8.58 1.57-12.07 4.16-4.05 1.42-8.68 3.34-10.73 7.31-1.7 3.3-2.47 11.43.76 15.93 3.82 2.04 3.86-6.09 7.54-4.92 3.88 3.85 9.53 4.08 14.38 2.33 3.62 3.33 2.46 12.23 7.04 13.82 1.95-1.6 3.2-4.83 6.19-4.77 3.5.21 7.31-.85 9.16-4.16 2.48-2.55.91-6.54 2.77-9.33 1.28-.44 1.5 1.19 2.09 1.96 1.97 3.52 6.14 4.54 9.77 5.1.79 1.69-.81 3.72.35 5.23 1.46.74 3.13.57 4.48-.34 4.32-1.87 6.22-6.73 7.06-11.13 1.37-2.83 4.11-6.52 1.62-9.43 2.27-3.04 4.12 2.12 3.2 4.16 2.3.41 4.55-.39 6.63-1.31 1.06-1 1.5-2.63 2.87-3.31 2.61-1.13 3.85-4.68 7.15-3.9 1.24 2.89 2.45 6.08 5.3 7.7 3.7 1.59 8.37.37 10.9-2.81-1.36-.69-3.54-2.95-1.4-4.06 3.49-1.72 3.74-6.52 6.67-8.66 2.2-.58 1.63 1.71 1.69 3.07 1.87 1.99 4.66.34 6.86-.04 4.76-1.36 1.84-9 6.66-10.24 2.38-.47 2.48-4.07 4.97-4.32 1.88-.27 3.2-1.86 4.43-3.2 1.71-1.7.56-4.56 2.46-6.14 3-3.26 5.15-8 3.28-12.42-1.27-2.6-.64-6.38 2.01-7.75 1.33-.94 2.23 1.48 3.55.81.67-2.59.18-5.91-2.09-7.54-5.87-5.73-16.1-.08-17.32 7.36-.48 3.56-.53 7.41-2.57 10.5-.96.23-1.4-.85-1.61-1.61-.81-3.26.16-6.58.28-9.86-1.2-3.06-4.89-3.33-7.12-5.29-3.73-2.34-5.35-6.84-8.82-9.47 3.51-2.63 8.11-3.74 11.07-7.2 1.17-1.37 3.05-.65 4.54-.43 1.6.39 2.81-.96 4.08-1.69 1.29.84 2.84 1.24 4.23.36 3.97-1.06 6.03-5.1 7.7-8.59-1.41.5-2.78 1.16-4.28 1.33-.48-.6-1.26-1.58-.47-2.25 2.63-3.23 4.56-7.46 7.49-10.45 0 0 1.79 1.67 2.99 2.43 6.57 4.2 15.06 4.68 21.76.06 10.59-7.31 12.75-22.42 11.51-34.47-.69-6.72-6.02-17.25-8.95-25.24-1.73-2.61-2.82-5.58-3.97-8.49-.68-3.02 1.21-6.05.43-9.09-.82-3.41-1.63-6.83-2.77-10.14-.43-1 .56-1.88 1.2-2.51 1.44 0 2.55 1.03 3.66 1.84-.94-3-1.73-6.17-4.08-8.38-1.34-1.25.6-2.19 1.45-2.95 3.2-2.05 2.74-6.78 5.79-9.02 1.71-2.8 4.11-6.54 2.34-9.87-1.17-1.7-2.76.52-3.69 1.4-.08-2.31 1.89-3.93 2.92-5.83 4.15-4.42 2.27-9.57 5.03-13.67 1.01-1.2 3.01-.05 4.86.48.07-5.62-4-9.91-9.99-9.59-3.13.17-4.87 3.43-6.58 5.79-1.5 1.7-2.36 3.82-3.46 5.77-4.67-.83-9.53.83-14.16 1.31 3.65-8.33 11.91-14.29 14.64-23.15 2.15-6.04 2.93-11.98 2.46-18.57-.09-1.3-.39-4.75-.39-4.75 2.82-1.47 5.51-3.08 7.28-6.15.92-1.6-.31-3.82.86-5.37 2.56-3.79 4.06-8.32 3.77-12.94 2.21-1.17 4.55-2.96 4.54-5.75l-1.9-9.59c-2.07 1.26-1.84 5.73-5.11 5.76 0-3.79.42-8.02.49-11.83.07-3.69-2.65-8.7-3.66-12.05l-2.59 5.07c-.81-4.41-1.56-9.18-5.01-12.35-2.75-2.31-4.8-7.42-1.7-10.4 1.36-1.31 3.86-4.27 3.86-4.27-6.35-.45-8.87.46-12.28 2.98-3.83 2.84-5.31 7.91-4.9 12.62.2 2.27.55 5.31-1.51 6.82-2.01-1.71-3.26-4.24-5.7-5.72-2.6-1.57-5.36-.78-8.02-1.38-1.75-.39-2.59-2.39-3.49-3.83-2.01 1.42-2.53 2.79-3.29 3.91-2.1 3.11-2.63 9 1.64 10.53-.99 3.1-2.47 6.07-2.77 9.4-2.92-2.52-5.33 1.39-8.11 1.95-4.87 1.22-8.32 7.32-6.37 12.12 2.15-.09 4.66-1.68 6.07.92.56 2.64.14 5.73 2.08 7.97 1.72 2.03-.48 4.16-1.26 6.05-1.66 5.04.88 10.81 4.66 14 .45-2.3.99-4.62 2.17-6.65 3.09-.94 4.86 2.56 5.59 5.06.73 2.64 4.06 1.65 5.59 3.41 1.77 2.03 5.06.65 6.99 2.03 1.88 5.89 1.73 13.07-2.05 18.18-7.33 7.78-15.14 15.09-21.59 23.67-4.14 6.86-7.6 15.22-4.87 23.52 2.83 8.6 7.06 16.43 10.81 24.55 4.48 8.77 10.08 16.85 15.74 24.9 4.49 7.68 10.54 14.41 14.09 22.66 2.29 3.77 2.25 8.35 3.27 12.54.61 1.4-1.5 2.1-2.47.62-6.5-9.81-19.82-30.01-25.6-39.37-2.05-3.32-15-23.61-16.78-27.11-5.66-10.39-13.75-18.99-21.03-28.15 2.96-.03 5.93-.4 8.74-1.38 3.81-2.12 6.1-7.47 3.92-11.56-1.58-1.55-3.98-2.64-6.15-1.86-.39.74.05 2.39-1.16 2.2.27-2.64-1.45-7.13 2.08-7.96 5.06-1.64 11-3.83 12.7-9.59.11-3.39 3.27-6.86 6.75-5.56-2.5-2.69-3.99-8.16-8.43-7.3-4.05.08-5.81 5.37-9.79 5.33-2.46-.66-.8-3.48-.52-5.16.55-3.09 4.15-3.51 5.77-5.78 1.52-1.28 1.42-3.51 2.67-4.98 1.8-2.3 3.66-4.96 3.21-8.08.09-2.57-3.3-3.96-2.09-6.67-.11-1.82 1.64-2.77 1.7-4.41-2.68-1.16-5.89-.99-8.46.38-1.55 1.71-2.62 3.8-3.69 5.83.08-1.39-.28-2.75-1.53-3.49 1.22-2.98 1.85-6.31.86-9.46-1.08-2.68 1.14-5.06 1.24-7.71.04-2.89.25-5.8.92-8.61.63-1.46 2.07-1.52 3.49-1.69-.77-2.17-2.02-3.5-3.85-4.12-4.42-.89-8.85 2.34-10.32 6.51-1.48-1.03-.43-3.87-1.49-5.48-1.37-2.11.47-4.26.26-6.5-.09-2.05 1.12-3.81 1.42-5.78.39-2.27-1.78-3.97-1.45-6.25.45-3.74-1.6-7.05-3.27-10.19-1.24-2.15.61-4.18 1.63-5.95 1.95-4.98 8.13-6.4 9.95-11.54.84-2.75 1.58-5.55 2.87-8.14 1.62-3.03-.15-6.39-.4-9.52-.25-2.15 1.53-3.64 2.09-5.54.08-1.67.02-3.65-1.41-4.75-1.61-1.75-4.02-.15-5.99-.61-2.7-.68-4.15 2.32-5.65 4.03-1.44.24-2.92.02-4.37.22-1.87 1.55-1 4.42-2.57 6.12-.52.75-.38 1.72-.44 2.6l1.59 1.59c1 .47 1.91 1.21 2.2 2.2.55 1.63-.12 1.94-1.06 1.72-.81-.89-1.74-1.73-2.17-2.74-.35-.66-.58-1.44-.6-2.43-1.32-.91-2.44-2.47-4.17-2.47-2.26-.15-4.02 1.74-5.03 3.61-2.49 1.38-4.43 5.3-2.22 7.76 1.31 1.31-.78 3.13.09 4.67 1.23 3.45 5.32 4.34 8.54 4.67.13 3.57-5.2 6.64-8.24 4.35-2.16-3.36.52-8.18-2.4-11.17-1.39-1.58-3.55-1.12-5.35-.91-.18-2.42 3.25-2.6 3.68-4.81.24-1.71 1.38-3.66.15-5.22-1.28-1.7-1.78-3.88-3.08-5.54-1.4-1.8-3.79-.93-5.68-1.39-.24-6.87 2.64-9.36-4.64-10.48-1.75-2.61-4.94-4.97-7.91-4.96zm9.31 36.04c1.78-.04 3.57.44 5.36.52-.47 2.5.38 4.77-.39 6.92-2 .32-2.88-2.08-4.12-3.25-.8-1.05-2.27-3.26-.85-4.18v-.01zm-24.76 59.67c.48 2.44 1.14 4.99.85 7.48-2.42.3-5.97-.36-8.41-.31-.09-1.85.52-3.67 1.3-5.32 1.19-1.26 3.96-1.5 5.63-1.66.16-.05.47-.14.63-.19zm-15.61 5.15c.89.1 1.67.78 2.1 2.87-1.19.22-3.14.99-4.4 1.21l1.28-3.82c.24-.13.54-.24 1.02-.26zm16.46 11.15c.63.01 1.29.15 2.05.65.58.82.59 1.65-.32 2.48-1.15.27-2.45-.82-3.89-1.73-.33-.49-.06-1.03.32-1.3v.01c.62-.01 1.21-.12 1.84-.11zm-6.41 0c.22 0 .45.03.68.1.32.38.56.79.11 1.4-.6 1.64-1.67 1.58-2.81 1.3-.5-.83-.66-1.63 0-2.38.68-.22 1.35-.43 2.02-.42zm-65.33 59.43l.03.02c1.57-.02 2.29 3.16 1.51 4.4-1 2-2.46.04-4.1.66-.48 1.3.37 2.92.97 4.13.92 1.88 3.33 1.68 4.74 2.91.54 1.19.24 2.64.99 3.74 1.83 1.96.41 4.86 1.51 7.15.83 1.61-1.2 2.42-2.24 3.12-6.93 3.72-14.61 7.95-22.32 9.63-.67-.19-3.85-4.58-3.63-4.8 6.94-7.79 12.95-17.11 18.61-25.87 1.36-1.57 1.73-3.94 3.6-5.04.11-.03.22-.05.33-.05z"/>
<path d="m173.11 95.13c.72.68 1.54 2.06 1.11 3.03-.57 1.38-1.69 7.33 3.09 9.94.8-1.77.47-3.96.35-6.34 1.43.28 1.35 2.41 2 3.48 1.68 2.73 5.74 2.21 8.51 1.12 2.03-.81 4.6-.37 6.09-2.7 2.3-.35 5.02-1.01 6.38-4.91 1.07-1.8-.28-2.5-1.6-1.34-1.98 1.74-3.88 3.44-5.04 5.23-1.28-3.24-4.38-6.04-7.64-4.87-1.69.65-1.73-1.81-1.92-2.64h-5.77c-.32.91-.79.83-.97.87-.11-.18-.21-.52-.2-.87zm79.79 160.37c-.38 2.45-3.57 1.84-5.35 2.34.32-1.92 2.63-1.76 4.07-2.17.32-.04.96-.13 1.28-.17zm-3.2-3.4c.78.1-.59 1.78-1.67 1.83-1.32.41-4.12 1.46-4.19-.78 1.68-.04 3.35-.28 4.95-.83.44-.18.73-.24.91-.22zm46.2-3c-.32 0-.68.07-1.07.21-.51 1.79-.57 3.64-2.53 5.32.22-2.5 1.09-3.49.97-5.36-.66-.2-2.08-.17-2.58.03-.73.29-.61.94-1.04 1.78-1.07.1-.13-1.18-.33-1.82h-43.59s.21-.04-.3.66c-1.86 2.09-4.84 1.65-7.29 2.23-.03-2.82 3.05-1.33 4.44-2.81-4.49-.7-8.96 1.16-13.42.07-4.39-.29-8.83-.18-13.22-.06 5.16 2.32 10.71 4.05 16.47 4.41 10.47 4.88 22.62 15.6 29.06 27.34.73-.63 1.33-1.72 2.7-2.4.8 3.54-2.26 5.47-3.66 8.03 4.58-.81 5.81-4.67 6.91-8.04 1.03 1.44.76 2.04.59 2.99-.25 2.16-2.25 3.27-3.04 5.16 2.93.7 4.21-4 4.81-4.79.53-1.35.15-2.94.84-4.31 2.37 2.92.32 6.46-1.39 9.1h2.12c2.21-2.97 2.26-6.79 2.22-10.61.18.03.55.11.73.14.8 3.58-.47 7.59-1.34 10.47h12.29c3.65-.76 5.28-5.31 8.97-5.88-2.06 2.02-3.11 4.61-5.87 6.06 3.49 1.09 5.56-2.96 6.45-5.5 2.58 1.62-.52 3.79-1.58 5.33 5.14-.02 10.49.14 15.62-.07 1.42-1.73 1.64-4.36 2.46-6.13 2.66 2.03-.04 4.74-.2 6.21 1.88 1.2 3.27-5.3 3.07-.92.99 1.12 3.28.65 4.74.81-1.44-2.65-3.15-5.35-4.48-8.06-4.25-8.64-9.58-16.47-14.44-24.76-1.12-1.78-1.83-4.85-4.09-4.82zm-18.9 24.2c.68.17.99.89 1.16 1.37-.33 2.42-.77 3.55-1.18 5.04-.26.74-.66 1.32-1.55 1.37.46-2.49 1.77-3.71 1.56-7.78zm2.9-1.9c1.4.38.78 4.55-.99 4.36zm34.6-22.5c6.78 10.19 17.09 22.85 18.58 34.7l7.38-.13c-1.63-10.78-7.22-23.48-13.08-34.57h-12.87m15.09 0c5.11 11.09 11.26 23.44 13 34.57h3.3c-1.59-11.14-6.77-23.32-12.77-34.57h-3.53m-41.7 108.9c-9.49-3.75-14.25-12.21-19.31-20.39 7.14-2.24 13.9-6.81 20.63-11.54 2.24 2.41 3.17 2.85 4.99 2.75.68-1.54.83-5.61-.44-5.61h-70.15l-.24 3.8-3.06-3.8h-8.71c1.45 10.01 9.4 13.56 5.18 21.46l4.47-3.3c-.4 12.74-12 .42-14.36 10.83 4.76-1.98 12.09 2.77 15.3-4.24l-4.24 6.36c2.99-3.08 7.79-.53 7.52-9.65 3.61-1.58 7.98-5.08 8.69-9.99l-1.85-1.32c.95-1.55 1.32-4.79 1.8-7.76.66 2.46.2 4.92-.37 7.37l2 1.52c-1.3 5.09-3.77 7.96-8.46 11.02 4.52 5.18 10.47 9.58 17.28 12.48h34.14l-4.71-3.43c-.68.23-1 .99-2.08.82-.51-.17-.87-.39-.6-.78.6-.53 1.53-1.11 1.4-1.54.86-2-4.31.36-6.5.56-.44-.05-.42-.84.11-1.17l6.93-2.04c2.44 3.16 5.08 4.97 9.05 7.58h5.58m-44-89.1c3.46 3.73 7.09 8.17 7.41 14.54h4.98c-.83-5.27-3.44-10.55-9.32-15.01-2.15-.77-4.62-1.79-3.06.47m-.7 11.6c2.37-.89 4.18-.88 4.29-1.77-5.57 1.04-15.16.57-27.32-4.09.9-.52 2.25-.92 4.33-1.09-14-7.58-31.08-9.23-34.09-9.27-9.41-.13-15.45 3.33-21.04 10.35-1.7 2.13-2.14 5.92-3.19 8.88h13.1c1.12-1.4 1.8-2.97 3.45-4.16-.01 1.39-.44 2.76-1.04 4.2l55.35-.04c.13-.18.63-.43-.87-1.1-3.18-1.43-8.97.28-12.15.11-2.09-.11-11.28-3.56-16.78-1.43-.16.09-1.14-.2-.49-.5 5.15-2.34 15.91 1.35 20.23.26.51-.13.59-.32.09-.66.8.02-9.83-4.85-17.93-2.91 2.8-4.41 19.51 1.8 22.13 2.29 3.38.63 8.78.82 11.93.92zm-91 3c0-4.11-3.58-5.52-6.2-6.92 6.24-2.98 11.1 2.77 12.21 6.92m33.59 39.8c12.86 22.54-20.79 14.82 2.54 27.82-2.07 2.48-3.52 6-10.8-.21-2.05 5.55-8.15-.15-6.14-6.35-6.21 3.06 2.32 10.62-.85 16.28l-5.72-7.59.64 4.85c-2.77.98-5.31-.26-7.63-3.79v3.79c-4.48-2.78-4.65-6.09-5.72-9.29-.12 3.38.33 7.18-1.48 9.29l-3.81-4.63-.21 4.63c-4.91-.99-11.97-.31-11.44-5.48-1.77 2.12-3.36 2.73-4.24-2.75-1.61.22-2.86 2.05-5.3-1.48-3.55-2.15-6.45-5.61-11.23-5.3 4.11 4.24 4.64 8.47 3.81 12.71-3.58-3.72-6.95-8.8-12.71 2.3-3.04-3.36-3.22-6.96-.85-10.78-4.23 1.61-8.47 3.28-11.82.93-2.91 4.47-6.89 12.59-12.92 6.8 1.97-3.56 4.4-6.65 3.35-13.24 9.98.7 16.4-7.53 21.82-8.68-2.32-5.41-7.72 3.19-12.07 4.7-4.58.05-6.7-2.37-9.11-4.49l1.06-3.6c-4 4.2-8.14 8.04-15.67 2.97-.05-3.13 7.2-2.88 9.53-9.39 4.17-4.43 10.79 3.77 18.22 3.89 1.45-2.09 16.21-2.61 24.57-3.89h59.31c.33 5.97 2.28 12.85-10.8 11.3 4.27.56 8.07 1.88 11.44-.43 1.95-1.4 1.6-5.33 1.06-10.87h3.18m104.1 1c.92 1.57.15 2.71.36 4.52 1.24.36 2.47.57 3.71-.72.18-1.4.57-2.86-.63-3.8-1.15-1.46-2.29-.31-3.44 0m-36.6-151.2c1.12 1.62.73 2.91 2 3.88 1.29.98 2.05 4.11 3.47 5.89-1.94-.17-3.87-1.42-5.81-2.49 4.57 2.57 5.73 9.94 15.11 6.2-2.54 3.85-6.96 7.88-15.77 1.43l-6.47-14.92h7.47m-11.3 0c2.24 1.19 3.74 1.98 4.16 3.72.42 1.73 3.62 6.68 4.47 11.53-5.08-2.52-5.59-8.08-9.13-10.62 1.68 3.38 3.76 6.84 3.32 9.79l-4.48-5.31c2.54 6.97 0 13.43 3.15 21.41-4.18-.57-4.6-13.18-6.81-20.09l1.83 16.43c-2.91-1.11-4.13-7.29-5.81-12.12-.35 4.91 1.38 9.47-1.33 14.77l-1.99-10.47c-.65 5.25-.33 12.13-2.16 15.42l-4.81-15.42c-.31 6.5 2.43 9.31 2.82 15.42h-6.64l.66-3.29-1.99 3.29h-2.82c.96-3.64 2.46-7.38 1.33-10.6l-1.83 5.15-2.32-4.98c1.18 3.48.12 6.95-1.33 10.43h-6.14c1.33-5.7.89-7.85 1-11.1-1.4 1.62-1.68 8.64-3.32 11.1-3.71-6.6-2.12-10.98-.66-15.42-1.11-.28-2.21-.05-3.32 3.16-.56-5.29.54-10.7 6.14-16.43-14.62 8.12-2.12 19.86-16.76 28.69h-5.64c.32 0 4.39-3.77 7.21-6.09 3.85-3.16 4.74-9.33 4.74-9.33-2.19 4.17-3.72 6.38-5.07 8.04l-8.38 7.38h-3.82c2.95-6.15 7.86-7.92 10.79-12.42l-15.44 12.42h-3.98c-.09-1.76 1.5-3.52 3.49-5.29-1.83.73-3.65 2.46-5.48 5.29h-2.8c4.86-11.03 15.17-4.71 18.13-20.58-1.64 3.81-3.27 7.21-4.91 8.94.46-5.17-.72-10.57 2.38-15.36-5.02 3.22-3.02 16.63-7.12 16.69-.16-3.99-.46-7.55.18-13.95-1.15 1.41-2.13 3.78-2.86 7.7-1.74-4.75-.76-9.95 2.54-15.54-10.56 11.02.24 17.86-1.93 21.98-3.5 3.64-6.07 6.94-8.27 10.11h-16.27c6.77-8.81 12.63-6.44 20.09-17.25-4.21 2.88-8.9 6.99-12.62 8.64-5.69 1.67-9.01-4.39-15.59-4.6-.13 0 .28-3.06 4.22-2.3 1.84.35 5.3 4.22 9.9 3.25 5.2-1.09 8.67-4.85 8.5-4.85-.16 0-3.01 2.47-8.77 3.7-5.29 1.13-7.29-3.49-10.12-3.52-3.94-.03-5.75 3.64-5.83 3.71-.86.72-1.85 1.17-1.9.3 1.1-7.76 5.38-10.38 14.44-5.31 4.27 2.76 9.1-1.3 13.78-3.49-4.21-.72-6.21 3.52-11.72 3.15 4.7-6.24 5.62-13.27 11.06-15.91h6.14c-1.56 3.04-.54 3.51-.5 4.96.54-2.6 1.34-4.12 2.32-4.96h19.59c-2.61 3.01-2.04 4.74-2.66 6.95 1.69-2.48 2.89-5.29 5.81-6.95h31.21c1.8 1.37.36 5.32.17 8.28 2.29-1.87 5.35-5.83 4.27-8.28h1.04c1.93 0 2.85 1.87 4.07 3.39 1.9 1.82-.15 3.41-1.24 5.06 2.96-2.06 5.38.35 9.13-8.44h2.49m-50.41 34.54c1.85-2.21 3.64-3.69 5.62-7.51.18 3.02 1.74 5.19 3.04 7.51h-8.66m39 0c1.57-1.47 3.11-3.19 4.67-5.78l1.42 3.86c.94-.86 1.74-2.34 2.4-3.34.24 1.52.87 3.34.18 5.27h-8.66m15.2 0c1.47-3.2 2.67-5.4 2.71-7.96-1.03-1.25-.95 1.36-1.9 2.14-1.14-2.35-1.15-4.85-1.08-6.79 4.59 3.66 9.23 7.15 13.4 12.62h-13.13m-102.3-32.8c2.32 2.48 4.37 5.57 7.99 5.14 2.03-.91 3.81-4.81 6.5-6.84h-7.72c-.7 1.71-2.85 2.35-6.77 1.69m-13.9 14.9c.38.59 1.24.14 1.61-.3 5.41-6.42 8.49-1.89 12.96-8.75-.25-2.01-.31-3.7-.89-3.41-2.16 1.44-2.76 3.15-4.6 4.87-.74.32.02-1.05.37-1.67 1.27-1.51 3.14-3.34 3.48-3.95.65-.7.51-2.76.07-3.38h-3.38c.1 1.76-2.64 3.88-3.11 7.24-4.78-.8-4.79 5.54-6.5 9.34m8.2-16.6c-1.4 2.24-2.15 5.61-4.2 6.7-1.48.18-2.8.94-4.05-.66-.91-1.48-.57-3.96-.72-6.04h3.98l-.84 2.64c.23 1.04.7.19 1.08 0l1.22-2.64h3.52m2.8 25.9l.11 5.41c-.95.62-1.58 1.57-2.76.12.71-2.23-.54-4.57.47-6.82.9-.43 1.89-.67 2.18 1.29m1.2-.1l.14 5.14c1.48-1.14 2.7-1.88 3.25-1.62.39-1.56.54-2.93 0-3.79-1.26-1.47-2.36-1.05-3.38.27m-5.3-.6l.27 5.69c-1.08 1.15-1.64.47-2.72-.42.26-2.53.36-3.17.83-4.46.28-1.57.88-1.56 1.62-.81m6.7-12.4c1.8-.66 2.47-1.82 3.11-2.98-.19-1.39-1-1.51-2.03-1.22-.49 1.31-1.8 1.98-3.11 3.29.44.59.78 1.29 2.03.91m2.2.3c.83-.86.37-1.72 2.57-2.57 1.13-.33 2.15-.1 3.11.41-1.13.88-2.13 1.38-3.26 3.16-.81.05-1.66-.37-2.43-.99m95.3 18c.16 1.12.61 2.04.38 3.41h4.32c-1.57-.91-3.13-1.93-4.7-3.41m-8.7-31.1c1.21.78 1.73 3.05 2.18 4.96 1.54-.79 3.46-3.66 3.17-4.96h-5.35m71.2 184.9c-.32-1.95 2.65-3.8 5.85-3.93-6.43-3.57-10.45.3-11.25 3.93zm-97.6 53.5c1.3.65 1.74 2.04 1.44 3.43-1.59-.17-1.49-2.23-1.44-3.43zm-5.1-12.9c-4.24 2.9-8.17 6.44-14.78 4.61-1.99-.3-3.29-1.19-6.63-.37-2.09.53-2.09.51-1.86 1.5.92 3.81 1.73 7.58-2.19 9.71.24.83.44 1.69 1.64 1.81 3.64-2.67 5.27-6.46 6.73-10.34.47 3.96-2.15 7.53-5.58 11 .22 1.04.69 1.74 1.64 1.81 3.44-1.49 5.39-4.46 7.39-7.39l-.33 2.63 5.42-.33c-2.14-1.43-.99-4.69-1.15-7.23.58 2.56.6 5.43 2.79 7.06 4.06-3.79 6.86-7.26 9.99-10.82-3.99 8.86-11.51 12.03-13.62 18.04.88.8 1.73 1.79 2.85.45 3.38-3.98 7.14-1.2 9.63 1.52.24-3.59-.73-4.78-1.15-7.06 4.32 7.13 2.98 10.28-1.4 11.02-.79.13-1.2 2.78-.4 2.94 5.01-.25 6.96-4.94 7.06-12.31 2.01-.88 3.87-1.87 4.42-3.73-.87-.54-1.66-1.73-1.8-3.5 1.87 1.54 3.68 3.87 5.78 2.63-.01 3.5.66 8.08 6.28 10.32 1.56-.16.69-1.03.69-1.03-2.21-4.04-1.94-8.71.39-10.1 2.46-1.75 5.74.83 8.48 1.74.61.21 1.5.29 1.81-.53-.62-3.87-3.56-5.41-7.33-6.63 7.81-2.72 14.5-2.64 18.06 5.25.49-3.43-.24-5.74-1.15-7.88 1.21.84 2.22 2.57 2.96 5.42 1.29-.59 2.05-1.96 2.63-3.61-2.76-12.09-17.31-3.64-23.8-3.45l2.96-3.13zm45.8.9c1.17.84 2.01 1.95 2.43 3.41 1.42-1.27 2.48-2.68 2.9-4.32l-5.33.9m7.3-.9h6.83c.33 1.93-.06 4.18-.84 6.61-1.48-1.64-2.79-3.62-5.1-3.6-.88-1-.86-2.01-.89-3.01m8.5 0c.2 2.28-.02 4.93-.75 8.01.65 1.58 1.47.4 2.2-.05 2.96-2.71 3.34-5.21 4.45-7.96h-5.89m69-270.6c-2.93.13-4.83 3.52-6.27 5.81 3.97.75 8.92-1.57 10.46-5.51-1.19-.16-2.39-.3-3.59-.28-.2-.02-.41-.03-.6-.02zm-7.9-5.2c1.03.41.92 4.73-.45 4.08zm-34.4-26.42c-.79.04-1.5.3-2.07.69 3.17 1.57 2.66 5.33 7.53 7.67-6.06-.43-6.3-9.2-13.65-5.23-1.29.88-.43.9-.13 1.15 5.83.81 6.65 6.82 8.9 10.54 1.5 2.47 5.48 3.3 5.26 3.24-2.66-.68-5.36-1.27-5.36-1.27-.41 3.55 3.04 5.82 5.49 8.42-7.73-2.03-7.26 2.19-8.04 4.72 4.31-1.64 8.24-1.15 11.1 3.44l.89-5.48c.63 4.74 1.82 9.58 6.5 9.58-1.8-2.93-1.74-5.83-1.91-8.43 1.32 2.91 1.6 6.76 5.1 8.43h4.21c-3.81-2.37-3.9-5.83-3.79-9.29.96 5.02 4.7 9.29 7.1 9.29l-1.15-6.51 3.32 6.51c1.71-3.37 2.35-2.83 3.3-5.07-.37 2.07-.73 3.59-.64 5.07h1.72c2.06-2.99 4.66-5.19 5.58-7.92 2.38-4.67.29-8.77.26-13.14.85 5.77 2.59 5.83 1.79 14.16 3.96-2.26 7.86-5.46 7.14-11.61l-3.32 3.7c.89-5.73 3.27-9.48 7.27-10.97-3.27-1.57-6.85.17-9.44 5.74.35-2.9.22-5.61 3.83-9.82-1.39.07-1.99-.65-4.59.64 2.67-2 3.11-4 3.44-6-4.95 1.52-7.08 4.86-7.27 9.44-1.22-3.9-.01-6.86 3.19-9.06-1.62.34-4-.57-4.72 1.28-1.15-1.98-2.3-1.46-3.44-1.91l-1.02 2.68c-.17-1.76-1.11-2.23-2.3-2.3h-3.32l.09 3.55c1.75.14 2.37 1.65 3.11 3.49.05 5.28-1.67 8.65-2.48 13.08-2.17-4.23 3.12-12.02-.7-14.93-.87 1.98-1.57 5.48-2.33 9.36-1.72-3.75 1.27-8.67.64-14.92h-7.91l-1.66 2.42-1.53-3.72h-6.12l-.26 6.14c-1.73-2.54-3.45-4.85-3.44-4.85-1.36-1.52-2.87-2.05-4.18-1.98zm-81.2 27.02c.4-.79.65-1.57-.36-2.36-21.7-10.49-39.3 6.21-50.73 1.36l4.48-.17c2.85-.87.49-2.3-.77-2.65-4.08-1.14-9.81-.3-7.99 4.36 1.59 4.08 5.45 5.3 9.62 4.25 14.24-3.58 24.08-13.65 45.75-4.8m2.4 9.1c.51-1.53 2.1-4.18 3.79-2.31.25.56.78.8.46 2.03-.26.75-.86.97-1.39 1.29-2.04.09-2.65-.38-2.87-1.01m-10.26-20.91c.98 2.87 2.2 4.88 2.8 5.38 1.2.4 3.11.57 4.48.56.23-.61.33-1.51-.31-2.11.34-.26-3.59-.23-3.98-.98.09-1.06 3.94-.36 3.94-.36.82-.48.6-1.46.1-1.94-1.14-.25-5.5-.82-7.03-.55zm1.56-12.45c-2.09 2.96-2.32 5.06-2.8 7.72.07 1 .55 2.69.92 3.89 0 0 5.05.02 7.46-.09.63 0 .7-1.66-.23-1.69-.72-.02-4.22.77-5.68-.56 2.77-.94 6.3-.4 6.3-.4.52-.56.57-1.15-.07-1.71-1.25-.92-3.03.45-5.72-.99 1.92-.68 4.38-.44 5.95-.36.79-.67.94-.85.42-1.51-1.2-.74-2.87.66-6.22-.95 2.74-.79 4.93-.28 6.53-.46.85-.26.88-1.1-.13-1.61 0 0-3.62.66-5.92-.22 1.59-1.1 5.63-1.27 5.63-1.27.66-.67.36-1.2-.3-1.87-2.02.13-5.32.63-6.14 2.07zm-9.5 30.76h-7.99c-1.21 2.51-.43 3.56-.43 3.56h7.53l-2.21-1.32c1.86.1 4.26-.33 6.06 1.29l10.94.03c1.26 0 3.73-1.01 3.43-3.88 2.25-.99 3-3.84 3.38-5.07.67-2.19-.7-7.02-1.18-11.38-.33-5.92 3.73-9.58 2.63-15.16-2.2-3.69-3.25-2.48-5.4-2.45 5.01 8.25-1.7 6.46-.12 20.98 2.15 5.51 3.45 9.37-2.75 12.32l-9.53.89m76.25-4.91c1.93-.89 1.03 1.26.91 2.4-.42 2.21 1.22 4.22 1.78 6.26h-5.52c-.62-2.87-.25-7.41 2.83-8.66zm-90.48-29.48h10.8c-1.15 1.29-3.44 5.29-5.32 4.47-.68-1.56-2.97-3.8-5.48-4.47zm15.98 0h2.99c-.75 1.17-3.48 3.01-2.99 0zm19.2 12.18c-1.2.96-3.36 1.76-3.39 3.47 1.97-.02 4.23-1.62 4.15-3.78-.19.08-.57.24-.76.31zm1.8-5.9c-.95 2.26-3.73 2.92-4.51 5.26 2.33-.02 3.58-2.22 5.03-3.72.75-.68.86-2.48-.52-1.54m-4.9-6.28h11.76c-.11.58-1.35 3.26-.25 2.01 1.32-2.27 5.09-2.42 6.36 0 .25 1.31.21 2.65.14 3.98-.79-.11-1.58-.27-2.36-.37.62 1.54 2.09 3.23.82 4.85-1.75-.27-.95-3.99-3.24-3.87-.29 1.79 1.98 5.1-.25 5.82-.12-1.1-.38-2.17-1.59-2.43-.09 1.72.15 3.46-.24 5.15-1.79.99-1.32-2.77-2.9-1.99-.25 1.44-.16 2.92-.39 4.37-1.22.23-1.29-2.09-2.69-1.72-1.43.31 2.92 5.04-.15 4.07-1.6-.45-.02 2.16-.18 3.1-.61-.39-2.47-1.54-2.28-.05 1.36 1.9 2.15 4.09 1.69 6.49-.69-.79-1.44-2.05-2.62-1.34-.04 2.2 1.32 4.31.7 6.6-3.5-1.24-1.94-5.86-2.39-8.71-1.57-5.99-2.47-13.09 1.52-18.32 1.78-1.16 3.42-2.72 3.83-4.94-1.31.29-2.11 1.48-3.27 2.07-.25-1.65-.86-3.57-2.03-4.77m-23.5 11.09c1.26.23 2.75-1.01 2.48-1.56-.05-.06-.11-.11-.17-.15.07-.39 0-.77-.33-.69-.99.31-1.67.74-2.2 1.11-.69.71-.14.96.22 1.3zm15 18.41c1.88-.36-.34 1.92 0 0zm-2.7 1.4c1.34-.72.72.82.63 1.59-1.18.74-1.68-1.37-.63-1.59zm40.2-4.4c2.01 1.58 5.21 4.11 5.23 5.91-2.14-1.14-6.46-3.73-5.23-5.91zm-10.8-1.9c-2.52.61-3.03-3.43-4.11-5.17 2.77.06 3.53 3.07 4.11 5.17zm14.5-24.6c.51 3.44 1.46 7.34 3.76 9.72-4.22-1.06-2.99-7.09-5.5-9.72h-13.17c.45 1.42 2.21 1.32 3.31 1.26 5.29-.74 11.5 4.3 9.8 10.02-1.23 1.21-.78 3.64-2.54 4.16-1.9-3.13-2.75-7.58-5.73-9.88 2.4-.79 4.67 2.92 6.31 6.15.35.39.38-3.32-.32-5.3-1.29-3.65-5.68-4.54-8.83-4.13.52 5.01-.63 10.54-4.49 14.32-3.74 3.66-7.31 6.45-9.24 11.49-1.18 3.07-2.19 7.87-4.84 10.07 2.38.06 5.18 0 7.56.06-1.12-1.07-.62-2.83-.85-4.44 1.91.04 1.64 3.28 2.55 4.05 3.36.21.15-5.04 1.24-6.28 1.59 1.37 2.86 4.55 2.43 6.6 1.23.09 2.47.08 3.7-.03-.43-2.4-.57-4.92-1.41-7.21-2.02-1.56-4.36-3.56-4.22-6.93 3.07 1.16 1.43 3.76 3.57 4.2 2.63 1.46 2.63 5.43 5.43 6.56-.06-1.11-.98-3.6.88-3.9.74 1.2 2.7 4.34 4.48 4.08-1.4-2.35-1.15-5.88-3.72-8.62-.8-.78-2.37-.81-2.66-2 1.72.12 2.96-1.62 4.7-1.02 1.96.52 4.98-.33 4.43-2.95-3.24 1.17-7.77-.72-8.61-4.34 1.89.49 2.89 4.08 5.34 3.98.4-3.99-1.83-7.42-3.51-9.9 3.7 1.33 4.12 5.18 4.64 8.1 0 0 2.29-1.43 3.35-1.31.99 4.19-.81 7.92-5.32 8.75-.66 1.12.72 2.36 1.3 3.22 1.02 1.53-.59 3.52 1.27 4.55.96.53 2.79 1.68 1.35 2.55-.81 1.13-3.05.72-3.22 2.19 7.01.1 14.04.08 21.05.01-1.93-1.93-5.44-1.18-7.71-2.23 1.19-.94 3.83.03 5.06-.75-1.5-2.51-5.56-2.71-7-4.97l6.63 1.12c-2.12-4.4-7.56-3.61-9.76-6.37-.94-.91-3.18-3.24-1.32-4.06 1.79 4.07 6.3 5.89 10.25 6.44-.2-3.1-3.66-3.78-4.83-6.57 2.72.55 6.72 5.29 6.72 5.29.8-2.95 1.31-5.54-3.18-6.07-2.89-.34-5.78-1.07-7.4-3.68 2.56.84 8.17 5.73 12.01.46 0 0-3.48-.24-4.72-.51-1.56-.33-3.33-1.16-3.94-2.83 2.03 2 7.5 3.27 9.61-.6 1.04-1.9 1.27-6.04 1.77-7.97-4.15-.17-3.94 3.08-4.53 4.5-1.34 3.03-4.03 1.67-6.43.18-1.06-3.48-.76-6.25-.89-9.51m-14.91 34.7c1.12 0 2.44 1.94 2.15 3.54-1.19-.13-4.14.5-4.37-.76-.17-.75 2.04-2.08 2.21-2.77zm19.4 43.2c2.44 3.38 2.31 10.81 7.5 12.29.22-1.41-1.9-2.92-1.72-4.32.26-3.06-1.32-5.47.9-7.98zm44.7-.5h9.26c-13.21 12.97-16.1 23.89-13.17 36.22h-10.07c-4.58-15.56 2.14-27.7 13.98-36.22zm-1.8 36.2c-3.51-9.45-1.29-22.09 12.79-36.22h2.9c-11.48 11.77-17.4 24.81-12.97 36.22h-2.72m4.9 0c1.64-22.15 19.15-20.3 23.39-18.85-.51 1.96-6.45 1.09-7.48 3.04 16.97 1.74 12.5-11.51 17.83-18.04 2.86-1.46 3.84-1.22 8.49 1.46-5.47.32-4.73 3.38-5.72 6.47-1.9 5.93-1.39 11.62-17.49 13.23.51-.71 8.88 3.23 7.85 3.95-.26.18-8.47.5-13.21 1.85-1.94.55-5.45 6.89-5.45 6.89h-2.82c.32-4.58 4.5-10.73 8.51-13.41-5.94 1.37-9.18 9.14-9.85 13.41h-4.04m17.6-5.7c4.48-.63 9.18 2.19 13.62 1.61 0 .75-1.4 1.32-1.89 1.26-3.61-.45-7.23-1.84-10.86-.31-1.68.71-2.4 3.17-4.12 3.17h-4.09c.91-3.53 3.69-5.21 7.34-5.73zm2.4 4.4c3.4-.37 6.64-.15 10.06-.1-.12.75-.26 1.71-1.4 1.49h-11.28c.8-.67 1.63-1.02 2.62-1.4zm-102.1 67.1c4.41 1.04 10.12 2.59 14.7 2.57-2.33 1-6.54.03-9.4-.14-1.56-.4-4.61-.71-5.31-2.43z" fill="#d22"/>
<path d="m110.28 54.82c-.79.02-1.6.33-2.46 1.05-2.44 2.15-4.82 5.56-7.26 7.16-1.02.72-2.32 1.43-3.26 2.11-.79.56-.48 1.16-.35 2.08.31 1.81.86 3.25 1.57 4.46h-.01c.75 1.06 1.46.21 1.67-.38 1.24-6.22 5.6-7.99 8.07 2.96 1.38 1.37 2.49.47 2.9-.27 1.2-6.73-2.74-8.29-2.96-10.86l3.39 1.72 1.13-2.26c-1.4-2.21-3.81-2.24-5.86-2.85 2.52-.54 4.88.58 7.26 1.56l2.53-2.74c-1.93-1.36-4-3.82-6.36-3.74zm-14.91 1.09c-.61.05-1.19.28-1.73.79-3.76 3.75-12.38 5.1-10.85 14.67l.01-.01c.67.46 1.27 1.38 2.21-.2 2.4-4.98 5.23-9.73 8.68.9 1.07 4.55 4.33 1.38 4.18.71-.65-2.3-1.17-6.43-4.42-9.65 1.06.01 1.57.94 2.23 1.61 1.87-.24 2.18-1.25 2.99-2.01-1.32-2.41-3.3-2.13-5-3.01 1.78 0 3.56-.05 5.2 1.21 1.99-.61 3.6-1.28 2.41-2.41-2.01-1.15-4.08-2.74-5.91-2.6zm26.34 2.3c-1.11-.02-2.24.35-3.4 1.06-1.73 1.31-4.45 3.3-5.95 7.89-.11 2.76-.02 4.04 0 5.78.92 1.88 2.07.19 2.37-.63.67-2.72 1.22-6.89 3.78-6.51 1.38.21 3.14 1.63 3.96 8.09.55 1.06 1.59 1.35 2.26-.11.25-1.73 1.7-3.56 1.58-5.47-.74-2.19-2.34-3.32-3.58-4.89 1.61.66 3.23 1.99 4.84 3.63.72-.04 1.32-.21.79-1.63-1.01-1.94-2.64-3.44-4.63-4.68-.23-1.01-.07-1.43-.05-2.05-.65-.31-1.3-.47-1.96-.48zm205.05 5.79c-5 2.19-2.97 9.29-1.83 15.34.07-.03.13-.06.2-.08l-.13.49c.13.71.26 1.42.34 2.09-.23 2.84-.93 5.09-2.57 6.13l2.23-8.22c-.03-.14-.04-.27-.07-.4-6.97 2.83-9.66 6.47-11.6 10.27.46-4.63 2.77-10.2-2.6-11.92-2.18-.71-5.64.74-11.01.12 4.79 5.54 11.71.43 9.8 11.98-.75-2.2-.92-5.35-3.3-6.26-.33 2.93.55 6.51-.95 8.87h-.01c-.92 1.12-.69 1.17.65 1.82 4.98 2.34 12.05.94 16.34.84 2.11-3.05 2.23-4.59 5.78-7.27l-3.63 5.57c.69 1.86 1.66 2.33 4.56 1.58 2.82-1.24 4.05-3.28 4.88-5.52l-4.4 1.75c4.77-4.79 8.57-11.92 1.38-17.22.49.73 1.02 4.85.69 6.61-.57 3.01-1.51 4.27-2.02 4.14-.41-.11 1.61-6.97-1.65-11.81-2.16-3.21-1.08-8.89-1.08-8.89zm-76.57 2.75l.01.02c-.25-.01-.49 0-.73.02-2.93.58-5.62 2.27-7.83 4.3-2.19.75-4.18 2.04-5.44 4.08-1.57 2.06-4.11 5.67-7.51 5.54.78-1.95 3.91-3.03 4.43-4.99.78-.82.24-2.72-.95-2.52-1.6.64-2.9 3.65-4.29 4.84-.41-1.1 1.37-3.88.97-5.16l-13.2-.22c-.26.13-.2 5.36-2.41 6.57.18-2.26.78-3.77.54-6.79-8.58-.08-16.72-.32-26.79.16-1.69 1.8-4.4 1.89-7.15 2.53-2.78 1.08-1.64 5.39.52 6.45.52-.94.4-2.43 1.47-2.92 1.02.96 2.93.02 4.22-.44-.95 1.39-1.9 3.06-3.6 3.57-3.12.75-4.58 4.18-7.43 5.42-1.82.6-3.47 2.4-3.69 4.83.87.34 1.39.71 1.73 1.33h4.19c.11-.44.39-.86.78-1.18.89-.72 2.12-.73 2.76-.01.28.32.4.74.35 1.19h3.44c-.05-1.87-1.43-3.59-3.17-4-.54-.29-2.12-.28-1.51-1.07 3.74-.56 6.22 1.42 7.37 5.07h44.95s2.31-2.52 3.52-4.02c.05 1.97-1.74 4.02-1.74 4.02h16.06c.84-1.73 1.98-3.28 2.81-5.02 1.37-.44 2.44-.85 1.68-2.52 1.94-1.09 1.82-3.02.94-4.81 1.77-1.2.65-3.36 0-4.89-.88-1.3.33-2.76-.05-4.15-.64-.69-1.93-.98-1.79-2.15.11-2.01-1.72-3-3.45-3.08zm-120.76 1.42c-1.04 2.58-6.54.57-1.18 8.52h-.02c2.46 1.02 5.49.87 7.58.37.03-2.31-.85-2.91-1.47-4.83 1.9 1.32 2.42 2.44 2.95 4.72 1.53.42 2.32.1 3.32 0-.46-7.48-1.04-5.09-3.02-7.75.33-1.27-5.5 1.74-8.16-1.03zm118.05 2.11h.02c-1.34 2.47.07 6.12-.98 7.08l-2.17 1.98.06 1.16 2.86-.27c-.35 1.1-1.48 1.61-2.75 2.01l.03.79c.59.8 1.53.22 2.33.19-.18.44-1.14 1.08-2.25 1.75l.06 1.09c1.04.85 2.65.42 3.69.43-.27.76-3.77 1.69-3.77 1.69l-.27 1.68c-.53.68-2.17.99-2.99.1.05-1.46 1.04-5.41.71-5.6 0 0-1.92-1.29-2.78-2.46-.31-.41.4-1.02 1.03-1.87 4.13-3.39 2.29-6.81 7.17-9.75zm-54.28 5.04c.32.03.51.18.46.56-3.26 1.65-3.15 3.3-3.43 4.96-.41.18-.81.76-1.22 0 .27-1.83-.36-3.71 2.98-5.34.45-.11.89-.21 1.21-.18zm24.3.38c.18-.02.41.07.66.37 1.84 2.81-.06 5.44-.79 7.14-1.15.35-.87-.65-.98-1.14.8-.87 1.39-3.79.7-6.14.08-.1.22-.22.41-.23zm-20 1.19c2.16.19 4.2 1.49 5.34 3.3 1.85 2.99 6.63 5.38 9.83 4.39-1.23 1.76-4.73.79-5.96 1.33.21 1.52 3.93 1.63 4.46 2.62-2.05-.29-5.18-1.8-6.96-.26-2.57 1.88-4.8.88-6.84-.63-2.31-1.72-3.87.97-5.2 1.44.76-2.54 4.33-3.86 6.28-2.08 2.25 1.88 6.06-.26 5.07-3.31-1.93-.87-1.77 2.72-4.38 1.52-.63-.29-.7-.75-.48-1.23.67-.24 1.72-1.02.84-2.39-1.95-1.25-2.84.43-4.02 1.27-.38-1.94 1.93-2.33 2.45-3.91-.33-1.07-2.66-.93-2.61-1.84.72-.21 1.45-.27 2.17-.21zm-84.29 2.45l-2.65.09c.15 2.59.21 5.88-.56 8-3.67-1.46-7.2-3.67-9.69-7-.98 3.24-2.17 5.3-4.42 6.57v38.85h48.37c-1.41 11.12-3.7 17.79-5.71 25.05h-42.67v56.11c3.63-.49 6.83 1.91 10.22 4.87 23.69-31.11 48.86-73.58 39.59-132.5l-22.35.02-1.26 5.54c-5.46-1.5-6.52-3.6-8.87-5.6zm-90.57.06c-2.26 35.51-7.88 75.48 40.12 132.6l8.93-4.11v-56.97h-41.81l-5.08-25.05h46.89v-46.46zm281.87 3.86c-3.33 4.51-3.84 8.67-3.43 11.01.85-.26 2.37-1.21 3.22-3.21.46-2.37.75-4.83.21-7.8zm-72.6.24h0c.52-.07.86.36.75.9-1.03 2.14-2.65 4.2-4.78 5.24-.51-.11-1.82-.07-1.1-.92 1.82-1.26 3.4-3.07 4.55-4.96.21-.15.4-.23.58-.26zm-4.21.04c1.95-.13-2.54 3.57-1.14.83zm-39.3 1.98c.15-.02.33.04.48.08.81.42 1.49 1.1 1.94 2.21-.15.37-.64.52-1.14.2-.44-1.29-.8-1-1.4-1.5-.26-.75-.12-.96.12-.99zm45.5.81c.5-.07.83.34.72.85-.98 2.01-2.53 3.95-4.56 4.92-.49-.1-1.74-.07-1.05-.86 1.74-1.18 3.25-2.89 4.34-4.67.2-.14.38-.22.55-.24zm-47.71.66h.01c.17-.02.38.04.55.09.92.5 1.7 1.29 2.21 2.59-.17.43-.73.61-1.3.23-.51-1.51-.91-1.17-1.6-1.75-.3-.88-.14-1.13.13-1.16zm154.01.79c-4.03.8-2.78 3.64-7.62 5.57h-.01c.93 1.41 3.27 1.8 5.81 0 1.29-1.14 3.19-2.07 1.82-5.57zm-149.06 20.13c-1.38.04-2.86.33-3.89 1.28.24 1.31.52 1.82 1.23 2.61.68.75 2.27 1.41 3.69 1.39.76-1.64.34-3.68.3-5.25-.42-.03-.87-.04-1.33-.03zm-11.54.87c-1.2.08-2.26.64-2.02 1.42.46 1.71 2.4 4.14 4.72 5.13.25-1.67.25-3.31.19-5.1-.34-1.13-1.69-1.53-2.89-1.45zm19.38 16.93c-.23-.05-.38.2-.58.46v.01c-.95 1.58-.75 2.69-.58 3.56 2.17.22 3.94.05 4.37-.19-1.69-.48-1.94-2.23-2.7-3.38-.21-.3-.37-.44-.51-.46zm-7.09.77c-.14-.01-.32.11-.57.39-.74.84-1.31 1.78-1.31 2.81h2.54c-.32-.85-.06-3.17-.66-3.2zm37.79 9.45c-1.14 0-2.42.43-2.46.63-.19 2.13 2 4.26 2.83 5.26l.01-.01c.74.54 1.91-.65 2.1-1.52.21-1.9-.95-2.8-1.43-4.19-.3-.12-.67-.17-1.05-.17zm-32.43.02c-.29-.02-.62.02-1.01.14-.4 0 .09.83.13 1.23.59 6.14-.29 10.83-7.5 9.17-4.23-.17-3.5-9.1-9.68-10.4 4.28 7.89-.97 9.12 3.54 12.75 3.29 1.95 7.41 1.93 12.79-1.05-1.19 2.45-4.15 2.93-6.78 3.78-3.2-.1-1.99 2 .22 2.58 5.5.64 9.52.99 11.89-8.27.13 3.93-1.86 7.24 3.33 9.72-.04-2.36-.64-4.99.43-6.79 1.2 9.6 3.15 9.37 3.61 13.91.22 2.91-1.57 4.62-2.75 7.53 2.79-1.4 7.01-3.95 6.73-9.13-2.58-8.83-1.27-9.2-1.53-14.48 1.32 5.24.31 14.11 5.63 13.15-.41-3.38-3.3-7.72-1.16-10.11 1.64 4.06 1.51 11 7.51 11.99.05-2.63-.29-5.06-1.45-7.08 4.07 3.97 3.91 8.88 3.3 11.18 6.99-11.02-3.57-11.92-2.43-21.15.41 3.2.94 9.95 8.09 7.78-1.64-1.57-2.89-2.94-2.6-4.6 2.47 2.39 6.65 1.04 10.69 4.62l.04-.01c-.21-8.18-13.02-3.67-13.26-16.32h-6.1c-1.31 2.79.36 5.59.58 8.38-1.91-2.2-3.65-4.53-3.32-8.38-3.2 1.62-6.22 3.77-8.52 7.95.75-3.07 1.85-6.61 1.3-7.95-1.4.73-2.93 1.03-4.05 2.6-.3 1.42-.7 2.65-1.45 3.32-.63-2.74-.72-5.54-2.38-5.92-1.03 1.73-.74 3.47-1.09 5.2-.95-1.73-.74-5.17-2.75-5.34zm58.65.05c5.29 3.32 8.44 6.63 10.14 9.95 4.5.66 9.85-.53 11.19-4.35-3.59 1.14-7.78 1.5-10.73-2.02 8.89 4.13 10.74-.09 13.22-3.58-2.63 1.4-5.88 1.86-9.33 2.02-1-.05-1.38-1.12-1.87-2.02zm-10.7.01c.44 1.71 1.01 4.29-.81 6.2-2.5-1.12-3.53-5.65-5.56-1.14-1.35 1.17-3.53.42-5.45.26.07.87-.74 1.05-1.68 1.11-.21.96.33 1.37.93 1.72 10.16 3 6.58 9.99 5.57 12.85-4.54-9.9-7.02-2.14-10.01-.72 1.04 8.83-3.77 10.26-6.4 12.38.71-2.11 2.46-4.99 1.7-6-2.26.29-4.29-.29-5.73-3.07-.6 1.46-1.92 1.85-4.16.85.22 4.69-1.7 7.24-3.69 9.72h20.1c.03-3.16-1.47-6.7 1.43-8.25-.82 2.02-.77 5.91.3 8.25h6.48c-1.4-2.44-3.88-5.19-2.34-7.52.95 1.55 2.29 6.1 4.41 7.52.75.5 2.26 0 3.43 0-1.71-3.74-5.86-7.21-3.68-11.57.87 6.06 3.37 5.98 5.89 10.35.52-2.55-.95-5.09-2.21-7.64.2-.92.4-1.81.85-2.33 1.77-2.04.66-6.01.7-9.39 1.33 1.57 1.36 4.72 1.74 7.44.66.36 1.06-.34 1.54-.74.33-2.6.35-5.3-.54-8.31 1.56 1.1 1.92 3.8 2.28 6.5 2.42-4.23.34-6.74-1.41-9.38l2.88 2.41c-.31-3.89-1.7-6.84-3.65-9.3 2.83 1.85 7.25 6.22 5.46 12.32-2.67 10.15-6.05 6.12-8.68 9.85-.16 3.49 3.31 2.68 4.39 9.79h10.32c-2.17-2.98-5.73-5.36-5.29-9.46 2.79 2.89 5.04 8.03 8.97 6.49-1.71-3.03-4.58-5.85-5.09-7.62-.2-.73.29-1.04.68-1.14 5.23 7.95 9.46 17.59 21.1 8.91-11.07 1.94-14.07-2.33-16.48-7.64 2.96 3.37 10.96 15.15 19.76-2.29-4.51-1.1-5.57 5.29-9.2 5.9-4.78.81-6.73-3.01-8.02-8.16 2.47-2.77 2.59-5.54-.27-8.31l-1.27 4.62c-.01-12.1-7.76-11.56-12.8-15.45l.01-.01zm-4.91.01l3.23 3.99c.31-1.54.59-2.87.08-3.99zm-5.84.66c-1.04.02-1.99.36-1.79 1.03 1.15 1.05.78 3.23 4.43 2.42.84-.77.05-2.42-.9-3.12-.46-.23-1.12-.34-1.74-.33zm-85.98.14c-.46-.04-.84.55-1.22 1.06-.9 3.55-3.96 9.27-2.27 10.24.76 1.24 2.14-.62 3.28-1.25-1.47 2.87-8.13 7.33-3.91 8.83l3.67-3.6.25.17-6.58 6.71c-2.16 2.77-.14 4.39 2.43 2.1.88-.79 2.49-2.35 3.64-3.26.16-.14.02.28.18.14 0 0-7.84 7.49-8.37 7.97-2.29 2.08.65 3.58 1.56 2.74l6.72-6.72c1.14-.9 2.74-3.98 4.77-1.41-.36 1.31-1.05 2.45-.63 4.14 1.26 2.16 4.95 3.7 5.32.31-.24-3.8.73-7.23 2.58-10.4-5.02-5.66-7.39-11.66-10.94-17.51-.17-.17-.33-.25-.48-.27zm.48.27c.01.01.01.01.02.02l-.02-.02c0 0 0 0 0 0zm177.22.36c-.84.02-1.64.27-2.43.46l-.27 3.07c-.24.63-.74.34-.97.12l-.12-3.09c-.86-.17-1.85.15-2.77.28 2.95 13.6-1.32 24.22-10.21 31.91 2.9.2 5.81.32 8.71 0 6.33-6.1 11.1-14.57 9.62-32.49-.54-.21-1.06-.27-1.56-.26zm4.59.66c-.72-.03-1.31.15-1.9.33 1.18 11.76-.29 22.79-7.56 31.76 1.18.51 2.49.37 3.84 0 7.36-10.06 8.13-21.18 7.08-31.76-.55-.22-1.03-.31-1.46-.33zm-155.78 10.32c-6.63.19-9.99 6.77-14.64 10.67 2.3 1.07 6.35-4.45 10.36-3.94-6.73 3.5-12.38 7.53-10.86 15.05 3.82-3.45 7.3-7.65 12.55-8.05-4.4 2.12-7.43 5.5-10.14 8.05h12.71c.92-1 1.83-2.18 2.74-1.94l-.4 1.94h22.44c-.24-.93.6-1.69-.8-2.82 1.14-1.44 1.84-.15 2.57.89 5.39-.16 4.91-3.64 5.63-6.44l-3.38 1.45c-1.45-.01-.71-.75-.32-1.37.92-1.74 3.79-3.22.16-5.55-.64 2.3-2.6 4.81-4.5 7.32-1.27.69-1.52.52-1.29-.08 1.38-2.56 3.16-5.2 3.54-7.56h-.72c-2.84 4.24-8.24 7.42-13.59 10.62-.26-.38-1.4-.53.53-1.51 3.59-3 9.48-5.65 10.57-9.03-4.21 2.53-8.42 4.62-12.63 5.87-.82-.13-.29-.43.4-.99 3.65-1.87 7.3-3.13 9.73-5.28-5.08.86-9.19-.7-14.8.97l5.63-3.7c-4.79-3.42-8.49-4.65-11.5-4.57zm-14.64 10.67c-.01 0-.01 0-.02 0l.01.01.01-.01zm-11.82 4.85c-.15.02-.31.14-.47.44-.06 1.47-.76 2.89-.1 4.41.14.83 1.55 1.36 2.4-.2-.26-1.46-.5-2.92-1.1-4.21-.24-.2-.47-.46-.73-.44zm-3.07 2.78c-.94.12-1.59.69-2.4 1.26-.21.55-.45.94.1 1.14 1.31.83 1.61.02 2.4 0 .24-.91.36-1.77-.1-2.4zm-3.21 43.15c-8.92 7.46-20.65 9.61-30.88 14.13-.58 3.25-1.88 7.32-4.99 8.47 1.97-3.22 2.62-7.21 1.23-10.77-.38-.45-1.21-1.53-1.64-.53-1.14 2.04-2.95 4.78-5.48 4.12-2.7-.3-3.11-3.74-4.86-5.45-4.57 2.31-3.47 9.36-.23 12.45.99.95-.23 2.04-.91 2.68-.59-1.85-1.48-5.51-2.04-5.31-1.5.6-.85 3.94-2.42 4.43.46-1.77 1.79-4.82.07-5.96-1 .74-2.57 2.68-3.85 2.89 4.34-3.56 5.89-12.38.45-15.54-3.28-.08-1.57 4.69-3.87 6.05-.66 1.84-2.56 1.24-4.01 1.31-1.9.4-2.41-2.27-4.06-2.63-1.45 4.77.56 9.6 1.73 14.18.49 2.53 3.52 1.71 4.81 3.39 1.32 1.68 3.78 2.46 4.26 4.78-1.7-1.96-4.24-2.7-6.01-4.56-1.49.42-2.1 2.37-3.67 2.52.41-1.29 1.97-2.86.52-4.04-1.72-2-2.19 1.59-3.41 2.48-2.1-1.45 2.77-4.17-.2-5.68-1.49.99-2.74 2.36-4.32 3.21-.33-1.98 2.63-3.13 3.41-4.75 1.15-2.35 1.69-4.82-.07-7.02-1.44 1.85-4.49 2.68-6.87 1.99-1.37-.58-1.91-2.46-2.98-3.45-1.82 2.29-3.77 6.38-1.99 9.21 1.27 2.62 3.82 3.96 5.78 5.89 4.37 5.77 11.81 6.76 18.25 7.59 6.68-.77 13.67 2.87 19.96-.77 3.96-1.07 7.45-3.68 9.89-7.18 2.13-2.21.74 1 .3 1.49-1.67 2.65-4.86 3.87-6.86 6.17-4.32 1.99 10.82-.36 12.6-.02 3.1 3 6.83-.93 10.37-.72.08.38.25 1.15.33 1.54 2.65-.06 5.06-1.03 7.6-1.83.94 2.58 3.81.84 5.15-.4.72-1.34 2.96-2.12 2.73.2 1.77.48 2.77-1.86 4.55-1.57-.96 1.62.25 3.16 1.37 4.23 1.46-1.08 2.36-3 4.01-3.75.45.9.27 3.05 1.71 2.25 2.88.13 4.24-2.54 5.9-4.39-.25 1.31-.96 3.19.57 3.89 1.73-1.38 3.11-3.18 3.73-5.42.1 1.63-.04 3.28.08 4.92 1.92-.56 2.8-2.45 3.48-4.27-.29 2.26 3.04 6.54 3.43 6.36 1.3-6.24 6.92-6.35 12.9-7.91.67-.69 1.53-1.24 1.9-2.19.87-6.24 4.93-13.54 11.32-13.65-4.02 2.75-7.19 7.25-7.71 12.41 1.17 4.22 5.35 6.43 8.86 8.14 2.28 3.72 6.84 3.93 10.38 5.51h21.03c3-.13 5.39-2.43 8.14-3.09-.94 1.35-2.13 2.6-3.67 3.09h50.35c1.99-2.7.58-5.12 2.27-6.84.49 2.04-.31 4.78-.47 6.84h5.9s-4.41-7.03-6.96-10.27h.06c-5.81-8.69-12.84-19.16-20.54-28.83h-4.4c-1.26 2.83-1.01 6.6-3.48 8.64.04-3.08 2.24-5.55 1.94-8.64h-2.14c-1.05.75-1.33 2.68-1.85 4.03-1.41-1.04 0-2.63-.2-4.03h-31.65c2.73 3.92 7.2-1.35 9.9 2.54 1.33 1.9 1.33 4.73.34 6.77-1.03 2.11-1.81 4.82-5.34 5.37.34-1.52 1.59-3.83-.03-4.83-1.38-1.32-3.41-.69-4.82-.14-5.59-1.07-6.58-6.85-7.47-9.72-1.63.87-3.13 3.94-4.78 4.75-4.01.08-7.2 3.73-8.26 7.75.22 1.39 1.43 1.8 2.27 3.29-2.65-.19-5.3-1.62-7.07-3.23-2.25-4.79-1.27-9.16 1.63-12.57h-6.21c-2.23.18-3.77 2.01-5.69 2.99-.32-1.62 1.4-1.91 2.13-2.99h-20.82c-.24 1.91.42 3.66.85 5.48-3.3.17-5.45-2.52-6.59-5.48zm26.31.02c1.39 2.6 2.26 3.18 3.23 3.87-.11-1.1-.29-1.77-.24-3.87zm54.96.02l-2.58.01c-.17 3.62 2.72 7.62 6.04 7.82 1.62.1 3.51-.06 4.51-1.55 2.13.83 2.12 4.36 2.8 5.22 1.68-2.1 3.23-8.46-1.68-8.63-1.53-.23-3.23 1.52-4.78 1.51-3.02-.03-3.64-2.13-4.31-4.38zm-9.98.01l-2.52 3.77c1.81-.62 3.95-1.39 5.34-3.77zm10.9 0c.81 1.66 2.16 4.43 5.84 2.42-3.12.12-3.72-.98-4.42-2.42zm-19.1.1c-3.54 4-5.06 8.04-1.03 11.76.53-8.18 4.5-8.7 7.4-11.76zm87.31.44c5.19 13.28 14.23 25.87 20.73 36.64v.02h13.77c.28-2.08.95-1.66 1.81 0h3.89c5.21-8.75-4.22-14.39-1.97-23.34-4.83 3.61-1.56 6.93-1.3 11.36.24 4.08-.03 7.42-.1 7.2-.05-.17.04-3.45-.7-7.2-.39-1.95-1.89-5.52-1.69-7.26.44-3.91 4.39-7.02 4.39-7.02s-2.97-.3-4.78.94c-1.82 1.25-2.47 4.05-2.55 3.72-1-4.13.71-6.16 3.01-8.46 2.96-2.96 4.54.03 6.98-4.7-6.34-.52-12.26-.21-13.49 9.49-1.94-4.4 1.75-7.81 4.5-11.39h-7.33l-.33 3.73-.83-3.73h-3l.67 5.9c-1.07-1.26-1.66-3.49-2.16-5.9h-2.54c-.59.8-.77 1.6.04 2.4-1 .09-1.6-1.44-2.33-2.4h-2.66c1.18 3.9 2.71 5.41 4.16 7.39-2.48-.85-4.2-3.98-5.83-7.39zm-95.6 2.25l-.01.01c.4.03.66.24.43.82-2.15.9-4.28 2.36-5.85 4.35-.39.35-.66.6-1.28.46 1.59-3.38 2.7-3.03 5.5-5.41.28-.12.81-.26 1.21-.23zm1.19 5.21h.01c0 0-.01 0-.01 0-1.42 1.22-4.46 2.97-6.08 4.79-3.06 3.42-2.77 8.96-7.06 11.26-6.72 2.96-13.34-3.57-19.33-5.98 1.06.03 3.01-.04 3.93.63 3.17 2.35 6.78 4.57 10.62 4.73 3.46.15 6.57-2.94 8.05-6.5 1.5-3.62 4.4-6.46 7.66-8.47.35-.04 1.84-.42 2.21-.46 0 0 0 0 0 0zm-142.6 3.5c-2.64 2.42-3.79 7.46-1.68 10.57 3.42 1.73 3.84 7.07 7.63 7.94.34-3.09-3.12-4.51-3.3-7.5-.23-3.15-.28-6.41.94-9.35-1.38-.16-2.29-1.8-3.58-1.66zm23.12 20.3c1.11 1.52 2.99.69 3.92 2.54-1.85 1.11-3.71-.71-3.92-2.54zm39.02.5c.36.03.67.2.93.51-.18.92-2.57.23-1.31-.49.13-.02.26-.03.38-.02zm120.9.8c.44.05-.74 1.51-1.03 1.83-1.07 2.11-3.33 2.45-5.32 2.82-2.71 1.79-5.74-.07-8.64.23-1.14-.55-3.22 0-3.77-.93 6.51.29 13.89.18 18.47-3.88.14-.06.23-.08.29-.07zm25.16 41.9c-.49.06-1.64.56-1.7.2-18.85 12.13-53.47 10.74-50.87 35.46h9.18v-4.83l3.06 4.83h53.92l-.24-2.71c10.83 4.73 15.16.47 21.9-.47-.48 1.06-3.27 2.12-1.41 3.18h3.4c7.68-9.12 14.82-19.41 12.14-35.09l-.01.02h-1.41c-3.61 7-7.22 7.58-10.83 10.48-.41.2-.11-.76.63-1.36 3.11-2.53 6.64-5.1 8.01-9.13h-15.16c-1.64 1.94-2.75 3.94-9.94 3.76.6-1.36 2.16-2.66 3.46-3.76l-17.8-.25c-.57.99-2.78 3.59-4.32 5l2.67-5.33-2.32.14c-1.61 2.32-4.04 4.31-6.91 5.74.77-1.29 4.21-4.34 4.75-5.74.05-.13-.04-.16-.2-.14zm26.35.57c-.81.67-3.36 2.19-4.54 3.58 2.69-.11 5.11-1.7 7.06-3.58zm24.2 0c.95 4.87-.63 8.77.34 12.74 1.19 4.85 6.88 10.13 13.26 9.99 11.48-.25 13-13.8 12.71-22.73h-7.18c.32 4.74-.2 13.52-5.29 13.31-3.8.34-6.68-7.92-10.15-13.31zm-96.06.01c4.63.86 9.73 1.34 13.74 2.69 1.18-.21 1.18-.72.72-1.33-1.9-1.07-3.98-1.04-6-1.36zm32.1 0c-.56 1.34-.44 2.69.6 4.03 3.27-1.34 6.22-2.69 5.55-4.03zm92.19 0c-.03 8.73-.33 20.4-10.8 24.01-6.85 2.36-12.74-1.78-16.04-6.23-1.9.64-1.79 1.61-1.65 2.59 5.46 9.64 14.52 8.48 19.2 6.97 9.46-3.06 13.5-15.82 12.51-27.34zm-189.94.01l2.97 2.65-3.6.42c4.09 6.61 8.18 3 12.28 2.75-4.95 20.19-15.38 22.74-24.57 29.26h45.73v.03h1.32c5.82-6.39 8.43-12.89 26.06-15.89 1.78-1.76 3.65-3.86 3.78-4.53-12.43 1.36-21.8 7.25-31.26 13.04-.43.15-.91-.04-.57-.3 9.86-7.48 23.14-14.41 38.67-14.54 1.69-.14 3.8-1.76 1.43-1.96-9.9-.29-18.47 1.64-26.9 3.81-.36.09-.48-.32-.22-.48 4.38-2.6 17.24-4.39 33.89-5.67 1.49-.57 1.82-1.05 1.48-1.48-13.45-1.3-25.37-.47-35.58 2.75-.63-.2.05-.84.4-1.11 6.54-5 22.37-2.88 33.06-4.61-21.47-5.18-28.59-1.41-34.49-.17-.06-.1-1.2.21-.4-.64 2.39-1.41 6.52-2.25 9.9-3.33h-24.78c-3.16 3.93-6.69 7.51-15.25 6.04 4.32-.84 8.9-.47 12.28-6.04h-12.78l-3.11 2.65 1.13-2.65zm94.3.01c-1.85 2.16-10.59-.32-12.15 5.38-.18 1.28-.45 2.59 2.1 2.7 5.2-4.35 7.7-.03 11.55-6.3.82-1.03.08-1.55-1.5-1.78zm-35.15 20.39c-10.8 1.43-18.04 5.86-22.84 14.68h3.97c4.26-4.8 9.21-8.24 15.92-10.5 2.42-2.39 2.34-3 2.95-4.18zm-104.59 3.31c-.43.02-.86.06-1.29.12-5.92.81-6.92 2.81-7.86 3.84-1.18 1.3 1.85 6.79 5.84 7.49 1.64.29 2.8 1.11 9.96.4 0 0 1.94-5.09 1.05-7.15-1.65-3.83-4.67-4.82-7.7-4.7zm37.49 50.43c-.77-.03-1.55.25-2.32.93.88 1.54 1.84 2.94 3.25 3.61.64-.98 1.42-1.79 1.39-3.61-.78-.56-1.55-.9-2.32-.93zm26.31.29c-1.14-.01-2.23.32-2.98.65l-.01.01c-1.63 2.05 3.07 4.67-2.98 10.1-1.64 2.14.55 2.17 1.46 1.72 4.15-1.98 6.49-5.98 7.82-11.13-.98-1-2.17-1.34-3.31-1.35zm-20.56.19c-.8.03-1.59.21-2.38.46-.39 3.15-1.63 5.36-3.45 7.52.06 1.07-.67 2.51 1.26 2.05 3.45-2.88 7.27-5.66 6.96-9.57-.8-.36-1.59-.49-2.38-.46zm153.21.48c.62 4.95 5.63 11.27-1.14 14.09 2.4-1.44 3.44-4.87 2.12-7.08-2.65 3.18-5.6 4.19-6.84 4.44-8.7 1.75-7.96-6.9-7.65-11.44h-4.58c.15 3.62-.99 6.09-3.05 7.72.85.1-.87 5.3-4.49 6.44-5.8 1.81-10.16.69-10.28.79-.11.08 6.21.09 10.13-2.05 2.69-1.47 3.47-4.26 3.4-4.21-3.7 2.5-7.4 1.86-11.09 2.06 4.3-.86 8.81-.63 12.8-5.3 1.38-1.82 1.32-3.63 1.41-5.45h-39.78c-8.97 13-17.45 26.27-33.2 35.39h44.97l.71-2.49.47 2.49h12.41c-.08-1.48-1.12-3.21-1.82-4.84 1.54 1.08 2.99 2.73 4.35 4.84h3.71c.3-3.24-3.05-6.09-1.94-9.79 1.66 6.82 4.71 7.06 5.67 10.69.95-4.2-1.18-9.28.69-11.16 2.23 6.33 7.34 7.42 9.61 10.26 1.91-7.18-3.12-8.38-4.9-11.42.12 1.85-.14 3.63.94 5.64-2.76-1.99-3.18-6.32-1.99-12.27 3.46 3.33 6.09 11.57 11.48 5.74-2.78-.91-7.13-3.85-6.44-5.96 9.96 8.65 13.69 4.38 14.31 1.76-2.34 1.02-5.54.73-7.01-.35 19.57-.21 11.05-12.03 11.17-18.54zm-97.65 22.52c-5.61.02-10.98 2.73-13.49 6.6.83 7.71 8.43 3.91 8.87 6.25h8.2l1.81-3.13c-1.11-.97-2.15-2-2.3-3.94 1.98-2.67 1.41-5.4-1.97-5.75-.38-.02-.75-.03-1.13-.03z" fill="#fff" fill-rule="evenodd"/>
<path d="m100.1 314.4c2.53 2.63 5.94 3.06 9.77 2.44" fill="none" stroke="#000"/>
<g fill-rule="evenodd">
<g fill="none" stroke="#000" transform="translate(1 1.3)">
<path d="m338.2 288.7z"/>
<path d="m318 297.6c-.11 0-.11 0 0 0z"/>
<path d="m315 301.3c-.03 0-.06 0 0 0z"/>
<path d="m315.5 293.6l-2.3 4.34m4.6-.68l-2.98 4.17m22.72-7.06l1.62.43m-2.98 3.91l1.19 1.96m-5.11.93l.94 4m-5.87-2.04l.09 4.43m-3.67-5.03l-1.19 3.66m-1.87-5.62l-1.7 3.66m21.19-15.91l-2.47-.17" stroke-linecap="round"/>
<path d="m23.88 80.52c-3.66 56.32 3.69 83.22 40.87 129.2" stroke-width="2"/>
<path d="m23.84 81.08h21.75m-21.21 4.94h20.94m-21.76 4.94h21.36m-21.18 4.94h20.9m-21.17 4.94h20.9m-20.97 4.94h20.9m-20.83 4.94h20.9m-20.29 4.94h20.4m-19.8 4.94h20.02m-14.42 32.1h18.83m-17.35 4.7h18.48m-16.06 4.7h17.1m-14.83 4.7h16.37m-14.47 4.7h15.78m-12.56 4.7h14.21m-11.27 4.7h13.07m-9.44 4.7h11.06m-7.84 4.7h9.38m-6.71 4.7h8.78m-5.42 4.7h7.78m-4.65 4.7h6.76m60.62-120.9h11.38m-7.48 5.41h8.38m-6.58 5.56h7.99m-5.09 5.49h5.74m-3.54 4.93h4.08m-3.08 4.1h3.07m-2.17 3.6h2.31" stroke-linecap="round" stroke-width="1.2"/>
</g>
<path d="m217.8 47.73c.51 2.05 3.77 8.81 4.58 9.4h-9.43c1.56-1.97 4.51-7.57 4.85-9.4zm-43.3-3.11c1.76 1.1 3.73 2.11 5.34 3.43-2.22.49-5.47-.71-5.34-3.43zm14-5.27c.1.05.15.24.11.61-.74 1.4-1.45 2.85-2.91 3.08-.42.13-1.13.16-.73-.39 1.5-.94 2.33-1.76 3.08-3.14.19-.14.35-.22.45-.17zm75.6-6.51c.03-.01.07-.01.1 0 .09.03.17.13.23.35-.14 1.62-.18 3.16.7 4.17.15 1.05-.23 1.21-.7 1.24-.42-1.55-1.35-2.31-1-5.02.17-.18.43-.67.67-.74zm-91.4-3.64c2.11.02 1.19 2.64.97 3.97-.3.93-.44 3.27-1.83 2.61.9-2.08.78-4.36.85-6.57zm45.3-14.93c-1.88.13-3.67 2.42-4.39 6.08-7.63-2.32-.93 4.09-.33 6.99.63 3.06-.76 5.02-3.11 4.33-6.11-3.92-5.85.22-5.34 2.46-4.61 2.09-2.72 5.03-.32 5.98-.37 4.15 1.62 7.91 6.09 4.7 1.29-.18 2.61-.43 3.63.21l-.06 3.16c-1.34 1.96-4.25 7.98-9.16 9.18l-2.02.06c-1.73.05-2.62-1.1-3.15-3.31-.15-1.11-.16-3.57-.08-4.24 1.65-4.88-3.45-3.16-2.19-.41.19.7-.77 3.82-.79 4.95-.39 2.02-.42 2.88-3.03 3.24-2.02.04-4.28.06-5.69-.1-1.81-1.81-4.03-5.32-4.7-7.29.03-2.22-.8-5.83 1.29-5.79 6.44 1.12 8.24-.62 7.37-4 3.43-4.12 1.6-5.61-.8-6.82-.07-2.42-5.08-8.65-6.78 1-.11 2.41-1.05 5.14-2.61 6.37 1.72-.4 2.65-2.36 3.81-3.86.35-.29.67.22.73.95-1.29 2.03-2.62 3.2-4.2 3.75-1.15-.06-1.66-.16-1.83-.27-2.33-.16-4.74-3.75-4.5-4.88.72-3.56 2.49-3.52 3.8-6.23.74-3.68-1.13-10.44-4.81-4.59-.59.42-1.18.97-1.77.17-6.7-6.92-2.07 2.7-3.47 6.13-1.1 3.2-3.45 4.49-.04 10.53-.06 6.64 14.74 12.82 15.18 22.59.07 1.53-.75 5.23.57 5.31 13.54.18 30.34-.79 52.22 1.17l2.23-2.23c-14.05-1.43-31.49-1.61-52.3-1.32v-5.41l1.39 4.16h1.82l.11-5.52 1.28 5.31c17.34-.37 32.97.19 47.73 1.28 1.43-.38 3.71-3.72 4.9-6.42.42.81-1.21 3.83-1.7 5.78 2.9-.36 5.87-7.24 5.87-7.24l-1.17 5.21c3.33-5.63 6.8-10.35 9.18-14.73 5.24-1.12 5.11-4.92 6.4-8.01.25.01.5-.86.75.64-.44 4.69-2.81 7.15-6.3 8.33-2.5 4.34-5.86 8.84-7.48 13.03l1.28.21c4.45-12.26 15.93-11.88 15.27-23.06l-1.49-.21.85-.75c5.77 1.12 1.08-6.55 1.49-9.93 2.42-9.95-4.32-6-3.42-.85-.7.93-1.95.51-3.1.32-.3-3.49-6.05-7.08-3.2 3.74.78 3.15 5.65 7.22-2.04 7.33-1.32-.28-2.62-1.71-3.48-3.3-2.07-3.82-5.92-7.2-5.38-.83-5.41.91-3.21 2.97-1.07 5.02.14 1.98-1.99 3.48 1.07 6.09l3.78.38.91-1.71-3.17-1c-.85-.35-.79-.79.62-.93l3.48 1 .77-1c-1.61-.93-3.3-1.51-4.72-3.4-.32-1.31.67-.81 1.31-.77 1.92 1.81 3.95 3.39 6.88 3.17-2.27 1.61-3.62 3.34-4.53 5.15l1.92 1.47c-2.15 2.78-5.04 7.61-7.84 8.35-3.18-.42-6.37.37-8.39-2.35-.03-2.03-.39-3.56 0-6.21 1.68-4.47-4.03-4.81-2.93-.66.34 1.9-.2 3.71-.79 5.61-1.25 2.42-3.31 2.65-4.82 2.51-1.54.2-2.13-.86-3.02-1.53l-4.5-8.59.09-3.08c1.73-.57 3.57-1.07 5.07-.24 4.38 1.74 4.34-2.71 5.42-5.58 2.63-1.05 2.06-4.46.92-5.3-1.89-1.39-2.21-2.95-5.6-2.15-4.02 1.55-3.84-.84-4.27-2.67.27-4.08 7.39-11.94-1.07-9.18-1.03-3.64-2.62-5.3-4.19-5.44-.13-.01-.25-.01-.38 0z" fill="#fd1"/>
</g>
<g stroke="#000">
<g stroke-linecap="round" stroke-width="1.1" transform="translate(1 1.3)">
<path d="m202.2 62.31a3.1 3.1 0 1 1 -6.21 0 3.1 3.1 0 1 1 6.21 0z" fill="#07c"/>
<path d="m238.5 63.38a3.1 3.1 0 1 1 -6.21 0 3.1 3.1 0 1 1 6.21 0z" fill="#07c"/>
<path d="m220.1 62.38a3.1 3.1 0 1 1 -6.21 0 3.1 3.1 0 1 1 6.21 0z" fill="#d22"/>
</g>
<g fill="none" fill-rule="evenodd" transform="translate(1 1.3)">
<path d="m220.1 37.77z"/>
<path d="m220.6 26.17c-.21 0-.21 0 0 0z"/>
<path d="m218.5 29.65l2.01-3.56m-6.49-.7l1.08 3.87m11.44 10.2l-6.72-1.62m-10.98 1.16l4.26-1.09m-.41-1.9c-.02 0-6.27.06-6.51.09m6.62-2.25c-.01 0-3.64-.95-3.79-.95m18.01 3.16c-.02 0-6.09.08-6.34.08m4.57-3.64l-4.99.88m-2.59-10l-.54 5.72" stroke-linecap="round"/>
</g>
<ellipse cx="217.6" cy="36.5" fill="#07c" rx="3.8" ry="5.9" stroke-linecap="round" stroke-width="1.8"/>
</g>
<path d="m182.5 388.9c3.27-.77 4.09-2.11 9.89-2.25 1.95-2.03 4.2-3.6 6.1-4.76-6.27-3.55-14.48 1.83-15.99 7.01zm-8.9 20c-3.84 3.43-3.38 9.88-2.86 13.95 3.44-4.37 2.82-6.41 9.18-8.38 1.1-1.97 2.04-9.39-.36-8.59-2.1.71-4.34.89-5.96 3.01zm55.4 9.3c1.26 2.85 2.42 4.36 2.42 7.72.1 1.37-.87 3.95-.87 3.95 5.56-1.05 8.79-10.57 5.86-14.57-1.41-1.62-3.4-1.55-5.03-2.06-1.97.78-3.11 2.47-2.39 4.96zm-28.7 3.5c-3.07 1.94-5.28 4.13-3.76 9.43.29.99.56 3.83 1.73 3.8.57-2.5 2.81-3.7 4.23-5.43 1.29-1.96 2.45-3.78 1.17-6.26-.65-1.82-1.96-1.82-3.37-1.54zm-85.7-63.2c1.23 4.59.49 8.1-1.29 12.28 4.22-1.91 7.9-4.76 8.96-9.62 1.2-4.37-1.18-6.86-5.32-5.92-1.3.3-2.68 1.64-2.35 3.25zm-34.78-12.8c1.55-.4 3.22-.28 4.8-.05 2.47 1.05 1.55 2.65 1.22 4.9-1.07 1.56-2.3 3.6-3.62 4.9-2.37 2.21-3.77 5.3-4.74 8.38-.68-.29-1.45-1.32-1.8-2.14-2.03-4.76-.55-12.35 4.14-15.98zm-6.63-25.6c3.68-1.35 5.03-.41 7.54.97.53 2.76-1.56 4.61-3.4 6.37-5.45-2.85-9.3.67-12.09 1.79 1.57-3.78 4.05-7.7 7.95-9.13zm22.7-16.6c4.52-1.35 10.5-1.74 12.02 3.75-3.37.26-6.05 1.14-9.12 2.77-1.93-1.86-4.82-2.82-7.61-1.96.25-2.46 2.83-4 4.71-4.56zm-6.05-235.5c-1.38.8-2.4 1.46-2.84 3.21-.92 5.78 3.93 10.67 8.66 11.3-2.1-3.21-1.48-6.19-3.48-9.58-.86-1.42-.77-3.67-2.34-4.93zm40.96-2.07c.53 3.44 6.61 2.37 4.88-1.69-1.46-3.13-6.17-6.89-10.22-4.77 2.62 2.62 4.72 3.31 5.34 6.47m-14.9 9.26c.58 1.11 1.64 5.11 4.8 6.64.61-3.48 1.66-8.03-.36-11.84-.63-1.2-1-3.05-2.77-2.15-2.7 1.7-1.9 6.09-1.67 7.35zm-20.05 134c5.69 2.06 8.96 7.12 8.86 9.08-.23 4.53-5.48 6.04-6.99 1.49-.04-2.8-1.1-6.93-1.88-10.58zm-34.3 11.1c.63-2.36 1.92-4.85 3.73-7.44-4.66-.4-8.8 3.53-8.72 5.89.01 1.79 4.63 3.34 4.99 1.56zm21.45-1.1c-1.48-1.69.82-5.77-2.05-11.26-3.24 3.04-4.42 7.71-4.49 9.96.44 2.88 5.62 5.18 6.54 1.3zm-18.86 3.2c1.57 2.14 5.02 2.24 6.87.44-1.43-4.06.89-8.77 1.7-11.56-4.94.24-8.79 7.12-8.57 11.12zm39.56-154c3.59-.3 4.75 11.93 3.97 14.98-2.72-.6-3.98-2.94-5.77-4.9-2.15-3.33-1.18-8.48 1.8-10.09z" fill="#fd1" stroke-width="1.3"/>
<g fill="none" stroke="#000">
<path d="m197.3 129.4c1.55.74 3.78.36 5.6-.34m-13.26.51l3.02-.08.24-.26" stroke-width=".6"/>
<g stroke-width="2">
<path d="m297.7 248.3h-92.75"/>
<path d="m339.9 209h-49.12"/>
<path d="m321.9 284.5h-92.75"/>
</g>
</g>
<path d="m206.7 392c-.32.79-.92 1.3-1.57 1.75-.21.38.31.5 1.29.46.61-.47.92-1.12 1.11-1.85-.24-.28-.43-.74-.83-.37m-9.7-.6c-.94.53-.19.71 0 1.01 4.55.38 6.4-2.21 8.58-4.43.42-.91-.32-.67-.83-.65-2.26 2.55-4.76 4.21-7.75 4.06m46.2-11.2c.34.19 1.2.02.08 1.25-1.7 1.55-3.91 2.09-6.5 2.75-.65.07-1.77-.1-.58-.83 3.96-.84 4.42-1.93 7-3.17m3.8-3.4c.34.19 1.2.02.08 1.25-1.7 1.55-3.91 2.09-6.5 2.75-.65.07-1.77-.1-.58-.83 3.96-.84 4.42-1.93 7-3.17m3.5-4.2c.34.19 1.2.02.08 1.25-1.7 1.55-3.91 2.09-6.5 2.75-.65.07-1.77-.1-.58-.83 3.96-.84 4.42-1.93 7-3.17m3.4-4.7c.34.19 1.2.02.08 1.25-1.7 1.55-3.91 2.09-6.5 2.75-.65.07-1.77-.1-.58-.83 3.96-.84 4.42-1.93 7-3.17m-8.5-4.7c1.37.56 2.58 1.5 3.5 3.17.53.35.56.54 1.08-.67-.56-1.18-1.72-2.48-3.17-3-2.32-.6-1.65.04-1.42.5m-3 28.5c-1.16.25-.43.73-.05.93 3.9.31 11.11 1.2 15.61-1.08.8-.91.2-.83.05-1-5.04 2.04-10.45 1.13-15.61 1.14m8.1-5.2c-1.16.25-.43.73-.05.93 3.9.31 11.11 1.2 15.61-1.08.8-.91.2-.83.05-1-5.04 2.04-10.45 1.13-15.61 1.14m5.5-4c-1.16.25-.43.73-.05.93 3.9.31 11.11 1.2 15.61-1.08.8-.91.2-.83.05-1-5.04 2.04-10.45 1.13-15.61 1.14m2.2-3.5c-1.49.39-.5.94 0 1.17 5.07.14 14.47.8 20.16-2.33.98-1.18.2-1.05 0-1.25-6.39 2.87-13.47 2.07-20.16 2.42m-164.6-137.7c-.78.25-1.92.21-.54.97 2.71.75 5.65 1.11 9.08.57.15-.57.25-.79-1.5-.91-2.28.4-4.31-.15-7.04-.63zm15.51-4.6c-1.53.87-3.13.94-5.22 1.19-.49.39-1.32.63-.12.93 2.15-.03 4.35-.42 6.66-1.69-.31-.87-.54-.55-1.32-.43zm5.3-10c.88-2.38 2.32-2.53 1.44.11-1.65 4.38-5.59 7.33-9.63 9.65-1.18.29-.82.04-.17-1.02 3.27-1.62 5.71-3.88 8.36-8.74m5-2.8c.66-1.3.97-.98 1.44-.64-1.82 4.74-2.04 5.36-3.3 6.77-1.12.76-.53-.01-.52-.71 1.27-1.91 2.05-3.51 2.38-5.43m4.2-.9c.75-1.45 1.1-1.56 1.09-.45-.56 2.86-1.44 4.79-2.96 6.59-1.12.76-.73-.1-.72-.8 1.27-1.91 2.25-3.43 2.58-5.34m24.3-13.6c.56-1.06.83-.8 1.23-.52-.48 2.33-1.53 4.06-2.82 5.52-.95.62-.62-.08-.61-.65 1.09-1.56 1.92-2.79 2.21-4.35m-4.7 3.7c.56-1.06.83-.8 1.23-.52-.48 2.33-1.15 3.81-2.44 5.27-.95.62-.62-.08-.61-.65 1.09-1.56 1.54-2.54 1.83-4.1m-4.9 3.3c.78-1.39.8-1.05 1.36-.68-.67 3.05-2.12 5.32-3.92 7.24-1.32.82-.52-.11-.51-.85 1.51-2.05 2.67-3.66 3.07-5.71m-3.5 2.1c-.67 3.05-2.12 5.32-3.92 7.24-1.32.82-.61-.02-.6-.76 1.51-2.05 2.67-3.66 3.07-5.71-.02-.09.84-1.51 1.46-.78zm-6.9 3.2c.49-1.13.88-1.22 1.44-.86-.66 2.87-1.99 4.72-3.83 7.33-1.32.82-.86-.11-.85-.85 1.51-2.05 2.84-3.58 3.24-5.62m-6.6 17.7c0-.42.3-.4.72-.23 1.02.61 1.91.78 3.55.92.47.44-.32.72-.76.82-1.38.03-1.85-.17-3.5-1.51m6.9-.7c0-.42.3-.4.72-.23 1.02.61 1.91.78 3.55.92.47.44-.32.72-.76.82-1.38.03-1.85-.17-3.5-1.51m8.4-1.3c0-.49.37-.48.88-.27 1.25.72 2.36.93 4.37 1.09.58.52-.4.85-.94.97-1.7.03-2.28-.2-4.32-1.79m3.2-2.8c0-.49.37-.48.88-.27 2.57 1.18 5.32 2.46 7.34 2.63.58.52-.4.85-.94.97-2.43-.7-4.85-1.12-7.28-3.33m8.1-.9c0-.49.37-.48.88-.27 2.57 1.18 5.17 2.68 7.18 2.85 1.94 1.75.11.95-.78.75-2.43-.7-4.85-1.12-7.28-3.33m6.4-3.2c2.97 1.94 6.75 3.51 9.38 3.93.75.66-.74.62-1.44.78-3.42-.82-6.33-2.25-9.14-4.32 0-.63.55-.66 1.2-.4zm7-1.7c4.13 2.32 7.85 4.35 11.18 5.35 2.23 1.71-.31 1.19-1.51.87-3.7-1.44-7.43-3.72-11.91-6.54 0-.97 1.42-.08 2.24.33zm97-27c-.27 1.8-1.54 6.78-2.38 8.1-.95.99-.91 0-1.04-.64.78-1.38 1.97-6.11 2.23-7.49.38-.75 1.49-.03 1.18.03m2.8 3.9c-.27 1.8-1.54 6.78-2.38 8.1-.95.99-.91 0-1.04-.64.78-1.38 1.97-6.11 2.23-7.49.38-.75 1.49-.03 1.18.03m-62.2-20c.41 2.05 1.04.76 1.62.17.67-3.83 2.64-7.21 6.19-10.05-.19-.77-.63-.93-1.46-.17-5.18 4.2-5.18 6.96-6.36 10.05m18.4-9.9c.2-.69.77-1.13 1.35-.2-.3 3.36.23 5.97 1.59 8.53.09.33.03.58-.78.37-2.35-1.91-2.24-6.79-2.17-8.7m5.8-.2c.47-.57.94-.42 1.42 0-.73 4.05-.77 10.86 2.83 10.23-.66-1.6.69-6.35 1.29-7.86l.29 1.96c-.75 1.7-1.14 4.65-.63 7.15-6.14.03-5.6-5.79-5.19-11.49m-115.8 169.2c.62-1 .42-2.16.38-3.15-.26-.18-.4-.83-.88-.05.05 1.18.1 2.36-.66 3.54.19.94.84.16 1.17-.34m-3.9-2.4c-.13 1.12.33 1.76-.77 3.68-.49.65-.87.53-1.15-.25 1.23-1.57.8-2.54.95-3.72.27-.68.65.15.98.29m-9.26 3.4c.48-.3.96-.87 1.44 0-1.02 4.67-3.38 7.48-6.46 9.27-.34-.04-1.39.39-.62-.39 2.89-2.42 5.4-5.04 5.64-8.88m.33-16c-1.12.37-1.7 1.39-2.3 2.18.08.3-.22.89.65.61.71-.94 1.43-1.88 2.77-2.3.46-.85-.54-.65-1.11-.48m1.53 4.3c.82-.78.87-1.56 2.95-2.34.8-.19 1.01.15.73.93-1.95.42-2.24 1.45-3.11 2.26-.64.35-.4-.53-.56-.85m-16.68-2.7c-.94.66-.48 1.22.18 1.77 2.79-1.04 6.1-1.64 8.12-3.35.78-1.11.23-1.03 0-1.24-2.55 1.16-5.12 2.3-8.3 2.82m45.68 8.7c-1.04-1.42.92-1.23 1.47-.84 2.56 1.59 5.31 3.04 8.53 4.12.82.9-1.18.89-1.79.85-3-1.05-5.34-1.94-8.2-4.12m8.4.5c-.99-1.46.97-1.19 1.5-.79 2.5 1.69 5.19 3.24 8.36 4.44.79.93-1.21.84-1.83.78-2.95-1.17-5.26-2.15-8.03-4.43m6.7 1.1c-1.21-1.29.76-1.33 1.35-1.01 2.74 1.27 5.64 2.36 8.96 3.04.93.79-1.06 1.02-1.68 1.06-3.1-.68-5.54-1.27-8.64-3.09m7-1c-1.21-1.29.76-1.33 1.35-1.01 2.74 1.27 5.64 2.36 8.96 3.04.93.79-1.06 1.02-1.68 1.06-3.1-.68-5.54-1.27-8.64-3.09m24-4.3c-1.21-1.29.76-1.33 1.35-1.01 2.74 1.27 5.64 2.36 8.96 3.04.93.79-1.06 1.02-1.68 1.06-3.1-.68-5.54-1.27-8.64-3.09m-7.7 2.2c-1.21-1.29.76-1.33 1.35-1.01 2.74 1.27 5.64 2.36 8.96 3.04.93.79-1.06 1.02-1.68 1.06-3.1-.68-5.54-1.27-8.64-3.09m-8 .7c-1.21-1.29.76-1.33 1.35-1.01 2.74 1.27 5.64 2.36 8.96 3.04.93.79-1.06 1.02-1.68 1.06-3.1-.68-5.54-1.27-8.64-3.09m100.7-197.5c-.74-.74 0-.74 1.31-.46 2.36 1.77 3.49 3.95 3.39 6.54-.36.74-.72.4-1.08.15-.25-2.34-1.12-4.51-3.62-6.23m23.9 150.8c-.59-.23-.74-.91.02-.86 1.34.43 4.23.33 5.77-.27.51.18 1 .66-.02.86-1.09.32-2.2 1.01-5.76.28m-28.6 14.8c-.61.55-.09 1.69.97 1.39 1.5-1.09 5.88-1.78 8.81-1.25.56-.45.76-1.36-.97-1.38-1.96-.2-4.36-.98-8.81 1.25m-7.3 5.1c-.59.55.19 1.54 1.32 1.19 1.49-1.11 6.26-2.08 9.62-1.83.55-.45.62-1.29-1.32-1.18-2.22-.02-5.03-.55-9.62 1.83m-4.5 5.2c-.42.47-.16 1.39.53 1.11 1.02-.94 3.86-1.63 5.69-1.29.38-.38.57-1.13-.53-1.1-1.24-.1-2.71-.67-5.69 1.29m46.8-2c-.37.44-.39 1.09.67 1.23 7.26-.24 9.7-.22 15.61-3.2.44-.32.71-1.83-.75-.99-4.48 2.2-7.77 2.59-15.53 2.97m2.1-4c-.37.44-.39 1.09.67 1.23 7.26-.24 17.17-2.16 19.68-7.27-.04-.88 0-1.94-.75-.99-2.47 4.49-11.84 6.67-19.61 7.04m4.61-4.7c-.37.44-.39 1.09.67 1.23 7.26-.24 14.68-4.37 17.19-9.49-.04-.88 0-1.94-.75-.99-2.47 4.49-9.35 8.88-17.12 9.25m6.41-6c-.37.44-.27.86.79.99 5.36-1.74 9.02-4.81 11.54-9.92-.04-.88 0-1.94-.75-.99-2.47 4.49-6.27 7.85-11.58 9.92m-50.7 30.9c-.56.23-1.04.51-.57 1.34 2.52.96 4.72 2.43 7.67 1.76.8-.66.98-.89.25-1.32-2.98.32-5.2-.67-7.34-1.78m12.4 5.3c-.61.37-1.07.75-.02 1.26 3.81-.08 7.48.36 10.95-1.16.68-.79.79-1.03-.4-1.14-3.71 1.25-7.13 1.2-10.53 1.03m10.39-16.6c-.88.32-1.58.19-.46 1.51 3.36 1.84 11.96 3.11 16.76 2.25 1.11-.98 1.15-.6-.27-1.32-5 .31-12.81-.56-16.02-2.44m-5.81 4.4c-.88.32-1.58.19-.46 1.51 3.36 1.84 11.96 3.11 16.76 2.25 1.11-.98 1.15-.6-.27-1.32-5 .31-12.81-.56-16.02-2.44m-6.61 2.1c-1.03.29-1.86.17-.55 1.37 3.94 1.67 11.07 4.54 16.7 3.76 1.3-.89 1.35-.54-.32-1.2-5.87.28-12.06-2.23-15.84-3.93m-5.1 2.3c-.88.32-1.58.19-.46 1.51 3.36 1.84 9.43 5.01 14.23 4.15 1.11-.98 1.15-.6-.27-1.32-5 .31-10.28-2.46-13.49-4.34m1.99 12.1c-.61.37-1.07.75-.02 1.26 3.81-.08 7.48.36 10.95-1.16.68-.79.79-1.03-.4-1.14-3.71 1.25-7.13 1.2-10.53 1.03m3.09 4.1c-.43.48-.75.97.21 1.45 3.13-.45 6.23-.28 8.82-2.35.42-.97.47-1.26-.53-1.27-2.83 1.78-5.67 2.05-8.5 2.17m4.4 3.3c-.37.48-.64.97.18 1.45 2.66-.45 5.31-.28 7.51-2.35.35-.97.4-1.26-.45-1.27-2.41 1.78-4.82 2.05-7.23 2.17m-26.8-5.4c-.85 1.67-1.93 2.96-3.11 4.09.09.3.1.68.78.39 1.23-1.02 2.19-2.42 3.08-3.92.13-.7-.13-.88-.75-.56m-2.6-1.9c-.85 1.67-1.93 2.96-3.11 4.09.09.3.1.68.78.39 1.23-1.02 2.19-2.42 3.08-3.92.13-.7-.13-.88-.75-.56m28.6-132.7c.29-.67.59-.38.88 0-.17 3.3-.49 6.48-1.92 8.73-.95.99-.91 0-1.04-.64 1.52-2.7 1.54-5.39 2.08-8.09m4.2 2.8c.29-.67.59-.38.88 0-.17 3.3-.49 6.48-1.92 8.73-.95.99-.91 0-1.04-.64 1.52-2.7 1.54-5.39 2.08-8.09m3.2 4.8c.29-.67.59-.38.88 0-.17 3.3-.49 6.48-1.92 8.73-.95.99-.91 0-1.04-.64 1.52-2.7 1.54-5.39 2.08-8.09m19.9 25.9c.29-.67.59-.38.88 0-.08 1.49-.18 2.95-.41 4.31-.25.1-1.3.3-1.17-.17.28-1.38.42-2.76.7-4.14m-3.9-4.6c.29-.67.59-.38.88 0-.17 3.3-.49 6.48-1.92 8.73-.95.99-.91 0-1.04-.64 1.52-2.7 1.54-5.39 2.08-8.09m-3.1-3.8c.29-.67.59-.38.88 0-.17 3.3-.49 6.48-1.92 8.73-.95.99-.91 0-1.04-.64 1.52-2.7 1.54-5.39 2.08-8.09m-3.4-4.9c.29-.67.59-.38.88 0-.17 3.3-.49 6.48-1.92 8.73-.95.99-.91 0-1.04-.64 1.52-2.7 1.54-5.39 2.08-8.09m-3.3-4.5c.29-.67.59-.38.88 0-.17 3.3-.49 6.48-1.92 8.73-.95.99-.91 0-1.04-.64 1.52-2.7 1.54-5.39 2.08-8.09m-3.3-4c.29-.67.59-.38.88 0-.17 3.3-.49 6.48-1.92 8.73-.95.99-.91 0-1.04-.64 1.52-2.7 1.54-5.39 2.08-8.09m-53.3 23.4c4.54-1.16 8.52-1.79 13.05-4.17.53.04.94.15.31.92-1.51 2-6.98 3.01-11.97 4.62-1.33.06-2.22-.82-1.39-1.37m2.41-4.2c-.16 0-.34.05-.5.17-1.99 1.49-2.8 2.52-5.98 2.47-1.06.03-2.16-.44-2.54.36 2.73 1.47 6.8.4 9.7-2.44.2-.13-.18-.56-.67-.56zm-24.1-6.2c-.21.04-.33.17-.31.43 1.24 3.66 3.34 4.69 6.26 6.05 1.5 2.34 5.21 2.33 8.05 1.75 2.38-.49 5.08-1.01 6.97-2.44.68-.51.93-1.93-.52-1.06-2.84 1.32-6.6 2.01-6.73 1.63-.56-1.51 3.96-1.49 4.06-3.29.71-1.72-9.08 4.11-13.05-.19 2.67-.37 5.41.14 7.95-1.83.21-.47-.74-.59-1.99-.61-2.69.19-6.02 1.35-8.12.4-.58-.26-1.95-.95-2.57-.83zm-31.5 61.3c-.22 0-.36.98.25 1.29 2.16.16 3.9-.42 5.52-1.22 1.18-.65-.12-.89-.29-1.05-1.86.94-3.44 1.19-5.48.98m-.6 11.4c-.16.09.29 1.15.91 1.22 1.68-.72 2.63-2.02 3.37-3.5.5-1.15-.59-.86-.8-.95-.83 1.72-1.86 2.61-3.48 3.23m-6.8 10.6c-.38.06-1.06.97.27 1.34 3.82-.32 6.25-1.79 8.26-3.61 1.4-1.44.56-1.38.13-1.6-2.29 2.13-4.99 3.67-8.66 3.87m.4-4.5c-.42.07-1.19 1.09.3 1.5 4.29-.36 7.02-2.01 9.28-4.04 1.58-1.62.63-1.55.15-1.8-2.57 2.38-5.61 4.11-9.73 4.34m163.5-75.9c.37-.57.76-.26.83.07-.12 2.67.99 4.9 1.83 7.29-.1.61-.83.63-1.09.11-.91-2.44-1.8-4.17-1.57-7.46m-3-5.1c.37-.57.76-.26.83.07-.12 2.67.99 4.9 1.83 7.29-.1.61-.83.63-1.09.11-.91-2.44-1.8-4.17-1.57-7.46m-4.9-5.5c.37-.57.76-.26.83.07-.12 2.67.99 4.9 1.83 7.29-.1.61-.83.63-1.09.11-.91-2.44-1.8-4.17-1.57-7.46m-5.1-7.4c.37-.57.76-.26.83.07-.12 2.67.99 4.9 1.83 7.29-.1.61-.83.63-1.09.11-.91-2.44-1.8-4.17-1.57-7.46m20.7-107.6c-.35 4.56 2.09 7.35 1.66 10.97-.81-2.2-1.03-2.73-2.17-4.72-.61-1.63-.18-4.29.51-6.25m-29.6 3.7c2.59 4.4 5.19 6.74 7.78 7.4-1.96-.16-2.82 1.05-5.74-2.3-1.11-1.11-1.89-3.49-2.04-5.1m8.5 4.8c-2.45-.92-4.49-3.67-4.93-7.69-.49-4.55 1.25-8.48 1.24-12.22 1.84 2.19-1.14 15.66 3.69 19.91zm-13 132.5c-.95 1.52-1.76 7.05-1.76 7.05.47-.41.96-.17 1.39-1.5.12-2.1.99-3.86.97-5.97-.34-.08-.61.42-.61.42zm2.8 3.2c-.31 2.68-1.57 6.37-2.01 8.93 0 0 .84.42 1.32-.87.76-3.63 1.38-5.05 1.23-7.45zm2.6 6.3c-.18 2.51-.71 4.97-1.44 7.37.24.18.56.13.78-.27.83-1.49 1.58-5.15 1.2-6.63-.09-.35-.33-.39-.55-.47m1.1 16.6c1.57-3.05 1.78-7.21 2.58-9.27.07-.9.04-3.29-.76-2.12.19 1.9-3.25 11.21-1.82 11.39zm3.1 2.6c-.34.94-1.44 3.33-.03 3.62 1.11-3.7 3.56-7.97 3.01-11.91-.62-1.68-.96-.3-1.15.12-.19 2.87-.63 5.46-1.83 8.17z" fill-rule="evenodd"/>
<path d="m255.48 89.75c2.1-.61 1.85 2.4 2.22 3.73h-4.84c.62-1.4 1.61-2.61 2.62-3.73z" fill="#fff" stroke-width="1.3"/>
</svg>
