<?xml version="1.0" encoding="utf-8"?>
<!-- Generator: Adobe Illustrator 18.0.0, SVG Export Plug-In . SVG Version: 6.00 Build 0)  -->
<!DOCTYPE svg PUBLIC "-//W3C//DTD SVG 1.1//EN" "http://www.w3.org/Graphics/SVG/1.1/DTD/svg11.dtd" [
	<!ENTITY st0 "fill:#0F47AF;">
	<!ENTITY st1 "fill:#FFFFFF;">
	<!ENTITY st2 "fill:#DA121A;">
	<!ENTITY st3 "fill:none;stroke:#000000;stroke-width:2.5;stroke-linecap:round;stroke-linejoin:round;stroke-miterlimit:10;">
	<!ENTITY st4 "fill:none;stroke:#000000;stroke-width:2.5;stroke-miterlimit:10;">
	<!ENTITY st5 "fill:none;stroke:#000000;stroke-width:2.5;stroke-linejoin:round;stroke-miterlimit:10;">
	<!ENTITY st6 "fill:none;stroke:#000000;stroke-width:1.958;stroke-miterlimit:10;">
]>
<svg version="1.1" id="Ebene_1" xmlns="http://www.w3.org/2000/svg" xmlns:xlink="http://www.w3.org/1999/xlink" x="0px" y="0px"
	 width="544.25px" height="581.1px" viewBox="0 0 544.25 581.1" style="enable-background:new 0 0 544.25 581.1;"
	 xml:space="preserve">
<path d="M458.834,28.566c8.271,2.24,20.553,6.641,25.154,3.684c3.131-2.006,4.307-5.221,4.209-9.586
	c-0.586-3.75,1.713-2.314,3.18-0.387c14.684,21.029,23.98,35.984,48.94,56.33c3.426,2.789,2.449,3.426-1.957,3.426
	c-29.363,0-33.279,15.66-33.279,47.471c0,0-7.34,154.943-10.766,232.462c-1.957,40.18-9.395,65.336-26.328,98.174
	c-15.223,29.463-37.586,53.541-65.041,74.584c-30.441,23.002-83.443,43.066-124.211,43.066c-49.381,0-101.308-20.064-135.613-46.004
	c-33.474-25.447-63.327-59.02-79.33-101.158c-9.152-24.176-11.354-43.164-13.37-73.066L34.643,123.191
	C29.377,87.906,27.908,83.99,5.397,80.076c-4.406-0.785-4.614-1.371-0.98-4.895c22.616-21.828,32.521-40.053,42.089-53.344
	c1.469-2.076,3.044-4.436,2.937-0.031c-0.122,4.943,1.479,9.998,5.833,11.012c3.573,0.842,8.907-1.311,13.753-2.691
	C199.206-7.066,340.154-3.641,458.834,28.521v0.029V28.566z"/>
<path style="&st0;" d="M483.337,291.401l-1.74,60.8c0,27.89-5.53,55.79-16.25,81.58c-10.67,25.74-26.43,49.38-46.2,69.15
	c-19.72,19.58-43.36,35.73-69.1,46c-25.8,10.77-53.69,16.15-81.59,16.15c-27.89,0-55.79-5.38-81.58-16.15
	c-25.74-10.27-49.38-26.42-69.1-46c-19.77-19.77-35.53-43.41-46.2-69.15c-10.72-25.79-16.25-53.69-16.25-81.58l-1.47-60.8H483.337z"
	/>
<path style="&st1;" d="M513.407,66.882l-0.98,0.34c-28.14,11.75-23.49,41.21-24.47,62.3l-4.62,161.88H53.857l-3.95-163.69
	c-0.13-21.14-1.17-50.99-25.28-60.44l-1.11-0.64C207.967-23.999,421.247,19.901,513.407,66.882z"/>
<path style="&st1;" d="M295.905,380.059c0,47.62,4.97,97.12,29.73,141.23c-18.79-8.41-45.1-10.32-57.18-10.32
	c-12.07,0-38.82,1.91-57.61,10.32c22.5-37.97,29.27-86.58,30.08-131.6c0.05-3.23,0.08-6.44,0.08-9.63
	c-27.43,0-47.49,3.65-80.28,16.79c3.81-10.22,9.95-22.63,9.95-42.69s-4.72-32.38-8.54-42.6c31.69,16.79,70.95,25.04,106.32,25.04
	c35.38,0,74.63-8.25,106.32-25.04c-3.82,10.22-8.53,22.54-8.53,42.6s6.13,32.47,9.95,42.69
	C343.395,383.709,323.345,380.059,295.905,380.059z"/>
<path d="M241.005,380.059c0,3.19-0.03,6.4-0.08,9.63c-23.64,0.75-47.64,4.42-82.09,15.55c-1.29,0.42-2.68-0.48-1.36-2.6
	c0.95-1.53,2.18-3.55,3.25-5.79C193.515,383.709,213.575,380.059,241.005,380.059z"/>
<path d="M386.685,408.979c-35.1-13.9-60.4-17.82-83.3-18.53c0,57.04,10.99,89.23,29.99,134.31c1.09,2.6,0.41,5.59-3.5,4.25
	c-12.87-4.38-25.22-6.71-35.85-7.95c-10.63-1.24-19.55-1.38-25.57-1.38c-12.04,0-31.73-0.15-57.63,9.33
	c-3.81,1.4-4.42-1.78-3.15-3.29c1.12-1.35,2.14-2.86,3.17-4.43c18.79-8.41,45.54-10.32,57.61-10.32c12.08,0,38.39,1.91,57.18,10.32
	c-24.76-44.11-29.73-93.61-29.73-141.23c27.44,0,47.49,3.65,80.29,16.79c-3.82-10.22-9.95-22.63-9.95-42.69s4.71-32.38,8.53-42.6
	c0,0,5.93-3.07,7.86-4.16c4.19-2.36,5.92,0.09,3.91,3.21c-8.47,13.13-12.3,28.75-12.3,43.55c0,14.69,5.8,33.9,14.14,52.18
	C389.235,408.189,388.595,409.739,386.685,408.979z"/>
<polygon points="484.147,263.052 483.817,274.392 53.447,274.392 53.177,263.052 "/>
<path d="M463.547,209.182h-16.04l-142.9-142.9l46.35-46.35c4.7,0.64,9.36,1.33,13.96,2.07l-15.61,15.61l-28.66,28.67l39.65,39.65
	L463.547,209.182z"/>
<polygon points="274.537,112.382 177.737,209.182 161.697,209.182 221.497,149.392 266.527,104.362 "/>
<polygon style="&st2;" points="485.517,214.862 484.147,263.052 53.177,263.052 52.977,255.021 52.597,238.952 52.397,230.921 
	52.207,222.892 52.007,214.862 "/>
<path style="&st2;" d="M447.507,209.182h-68.14l-61.16-61.16l-47.67-47.67l-4.01,4.01l-45.03,45.03l-59.8,59.79h-68.14
	l194.79-194.79c6.21,0.25,12.37,0.58,18.47,1c15.1,1.04,29.84,2.58,44.14,4.54l-46.35,46.35L447.507,209.182z"/>
<g>
	<path style="&st3;" d="M287.058,369.799c28.357,0,53.611,4.89,73.616,11.425c-2.779-3.938-3.433-18-3.433-27.063
		s0.654-23.125,3.433-27.063c-18.966,10.417-59.966,18.5-92.219,18.5c-32.252,0-73.252-8.083-92.219-18.5
		c2.779,3.938,3.433,18,3.433,27.063s-0.654,23.125-3.433,27.063c20.005-6.535,45.259-11.425,73.616-11.425
		c4.85,21.05,0,93.216-19.433,134.9c4.5-1.942,29.286-2.725,38.036-2.725s33.536,0.784,38.036,2.725
		C287.058,463.015,282.207,390.849,287.058,369.799z"/>
	<path style="&st3;" d="M268.455,510.974c12.075,0,38.386,1.909,57.177,10.32c-24.758-44.111-29.727-93.611-29.727-141.235
		c27.436,0,47.489,3.654,80.286,16.791c-3.817-10.216-9.951-22.625-9.951-42.688s4.716-32.379,8.533-42.596
		c-31.692,16.784-70.942,25.034-106.319,25.034s-74.627-8.25-106.319-25.034c3.817,10.217,8.533,22.534,8.533,42.596
		s-6.134,32.471-9.951,42.688c32.797-13.136,52.851-16.791,80.286-16.791c0,47.624-6.052,100.541-30.164,141.235
		C229.631,512.883,256.38,510.974,268.455,510.974z"/>
	<path style="&st4;" d="M176.236,381.224c-4.179,5.061-8.032,9.141-15.518,15.625"/>
	<path style="&st4;" d="M360.674,381.224c4.179,5.061,8.032,9.141,15.518,15.625"/>
	<path style="&st4;" d="M374.774,311.565c-7.363,7.507-11.139,11.484-14.1,15.534"/>
	<path style="&st4;" d="M162.135,311.565c7.363,7.507,11.139,11.484,14.1,15.534"/>
	<path style="&st4;" d="M210.84,521.293c8.36-7.813,14.09-12.714,19.579-16.594"/>
	<path style="&st4;" d="M325.632,521.293c-8.36-7.813-13.652-12.714-19.141-16.594"/>
	<line style="&st4;" x1="241.004" y1="380.058" x2="249.852" y2="369.799"/>
	<line style="&st4;" x1="295.905" y1="380.058" x2="287.058" y2="369.799"/>
	<path style="&st5;" d="M160.718,396.849c-1.07,2.237-2.292,4.264-3.245,5.792c-1.325,2.124,0.068,3.017,1.358,2.6
		c34.496-11.142,58.501-14.805,82.173-15.548"/>
	<path style="&st3;" d="M210.84,521.293c-1.025,1.571-2.045,3.081-3.169,4.424c-1.268,1.514-0.656,4.694,3.156,3.298
		c25.892-9.48,45.589-9.333,57.627-9.333l0,0c12.038,0,35.663,0.567,61.414,9.333c3.917,1.333,4.596-1.65,3.5-4.25
		c-19-45.083-29.983-77.275-29.983-134.319c22.893,0.719,48.197,4.632,83.3,18.536c1.904,0.754,2.541-0.796,1.698-2.646
		c-8.337-18.276-14.143-37.488-14.143-52.176c0-14.798,3.836-30.417,12.301-43.545c2.014-3.124,0.286-5.58-3.905-3.215
		c-1.937,1.093-7.862,4.164-7.862,4.164"/>
</g>
<line style="&st3;" x1="483.327" y1="291.392" x2="53.856" y2="291.392"/>
<line style="&st3;" x1="483.814" y1="274.384" x2="53.445" y2="274.384"/>
<polyline style="&st3;" points="256.724,13.926 77.329,193.321 51.486,193.321 "/>
<line style="&st3;" x1="53.171" y1="263.045" x2="484.137" y2="263.045"/>
<line style="&st4;" x1="274.538" y1="112.376" x2="177.734" y2="209.181"/>
<line style="&st3;" x1="350.95" y1="19.929" x2="161.699" y2="209.181"/>
<polyline style="&st3;" points="463.544,209.181 320.639,66.275 364.912,22.002 "/>
<line style="&st3;" x1="320.639" y1="66.275" x2="320.639" y2="66.275"/>
<line style="&st4;" x1="447.509" y1="209.181" x2="304.604" y2="66.275"/>
<line style="&st3;" x1="485.515" y1="214.856" x2="52.007" y2="214.856"/>
<line style="&st3;" x1="85.523" y1="209.181" x2="280.564" y2="14.139"/>
<line style="&st3;" x1="93.549" y1="209.181" x2="288.33" y2="14.4"/>
<line style="&st4;" x1="379.359" y1="209.181" x2="270.529" y2="100.35"/>
<line style="&st4;" x1="266.521" y1="104.359" x2="371.342" y2="209.181"/>
<polygon style="&st3;" points="274.538,136.429 218.788,192.179 330.288,192.179 "/>
<polyline style="&st3;" points="385.369,25.599 344.692,66.275 470.589,192.172 486.163,192.172 "/>
<line style="&st3;" x1="51.87" y1="209.181" x2="485.677" y2="209.181"/>
<circle style="&st3;" cx="121.056" cy="238.951" r="8.504"/>
<circle style="&st3;" cx="268.457" cy="68.347" r="8.504"/>
<circle style="&st3;" cx="415.859" cy="238.951" r="8.504"/>
<g>
	<g>
		<path d="M89.611,223.617l-37.41,0.521c-0.69,0.01-1.258-0.542-1.268-1.232c-0.009-0.69,0.542-1.258,1.233-1.268
			c0.01,0,0.025,0,0.035,0l37.41,0.521c0.402,0.005,0.725,0.336,0.719,0.739C90.324,223.294,90.004,223.611,89.611,223.617z"/>
	</g>
	<g>
		<path d="M87.83,231.649l-35.435,0.521c-0.69,0.01-1.258-0.541-1.268-1.231c-0.01-0.69,0.541-1.258,1.231-1.269
			c0.01,0,0.026,0,0.037,0l35.435,0.521c0.403,0.006,0.725,0.337,0.719,0.74C88.543,231.325,88.222,231.642,87.83,231.649z"/>
	</g>
	<g>
		<path d="M94.33,239.68l-41.741,0.521c-0.69,0.009-1.257-0.544-1.266-1.234c-0.009-0.69,0.544-1.257,1.234-1.266
			c0.008,0,0.022,0,0.031,0l41.741,0.521c0.403,0.005,0.725,0.335,0.72,0.738C95.045,239.356,94.724,239.675,94.33,239.68z"/>
	</g>
	<g>
		<path d="M92.83,247.712l-40.036,0.521c-0.69,0.009-1.257-0.543-1.266-1.233s0.543-1.257,1.234-1.267c0.009,0,0.023,0,0.032,0
			l40.036,0.521c0.403,0.005,0.725,0.336,0.72,0.739C93.545,247.388,93.223,247.706,92.83,247.712z"/>
	</g>
	<g>
		<path d="M86.705,255.743l-33.728,0.521c-0.69,0.011-1.258-0.541-1.269-1.231c-0.011-0.69,0.54-1.258,1.23-1.269
			c0.011,0,0.028,0,0.039,0l33.728,0.521c0.403,0.006,0.724,0.337,0.718,0.74C87.417,255.42,87.097,255.736,86.705,255.743z"/>
	</g>
	<g>
		<path d="M432.455,222.159l52.259-0.521c0.69-0.007,1.256,0.547,1.263,1.237c0.007,0.69-0.547,1.256-1.238,1.263
			c-0.006,0-0.019,0-0.025,0l-52.259-0.521c-0.403-0.004-0.726-0.333-0.722-0.736C431.737,222.483,432.059,222.163,432.455,222.159z
			"/>
	</g>
	<g>
		<path d="M430.455,230.19l54.065-0.521c0.69-0.006,1.255,0.548,1.262,1.238c0.006,0.69-0.548,1.255-1.238,1.262
			c-0.006,0-0.018,0-0.024,0l-54.065-0.521c-0.403-0.004-0.726-0.333-0.722-0.736C429.736,230.514,430.059,230.194,430.455,230.19z"
			/>
	</g>
	<g>
		<path d="M438.955,238.222l45.371-0.521c0.69-0.008,1.256,0.545,1.264,1.236c0.008,0.69-0.545,1.256-1.236,1.264
			c-0.007,0-0.021,0-0.028,0l-45.371-0.521c-0.403-0.004-0.725-0.334-0.721-0.737C438.238,238.546,438.56,238.227,438.955,238.222z"
			/>
	</g>
	<g>
		<path d="M455.08,246.253l29.041-0.521c0.69-0.012,1.26,0.538,1.272,1.228c0.012,0.69-0.538,1.26-1.228,1.272
			c-0.013,0-0.032,0-0.045,0l-29.041-0.521c-0.403-0.007-0.723-0.34-0.716-0.742C454.371,246.576,454.69,246.26,455.08,246.253z"/>
	</g>
	<g>
		<path d="M437.455,254.285l46.483-0.521c0.69-0.008,1.256,0.545,1.264,1.236c0.007,0.69-0.546,1.256-1.236,1.264
			c-0.007,0-0.021,0-0.028,0l-46.483-0.521c-0.403-0.004-0.726-0.334-0.721-0.737C436.738,254.608,437.06,254.289,437.455,254.285z"
			/>
	</g>
	<g>
		<path d="M389.834,209.781l-31.972-32.708c-0.282-0.288-0.276-0.75,0.012-1.031c0.284-0.277,0.737-0.276,1.02,0l32.708,31.972
			c0.494,0.483,0.502,1.274,0.02,1.768c-0.483,0.494-1.274,0.502-1.768,0.02C389.849,209.796,389.839,209.786,389.834,209.781z"/>
	</g>
	<g>
		<path d="M401.193,209.781l-28.604-29.341c-0.281-0.289-0.275-0.75,0.013-1.031c0.284-0.276,0.736-0.274,1.018,0l29.341,28.604
			c0.494,0.482,0.504,1.273,0.022,1.768c-0.482,0.494-1.273,0.504-1.768,0.022C401.209,209.797,401.199,209.787,401.193,209.781z"/>
	</g>
	<g>
		<path d="M412.551,209.781l-21.236-21.973c-0.28-0.29-0.272-0.751,0.018-1.031c0.283-0.274,0.732-0.271,1.014,0l21.973,21.236
			c0.496,0.48,0.51,1.271,0.03,1.768c-0.479,0.496-1.271,0.51-1.768,0.03C412.572,209.802,412.56,209.79,412.551,209.781z"/>
	</g>
	<g>
		<path d="M423.909,209.781l-28.884-29.622c-0.281-0.288-0.275-0.75,0.013-1.031c0.284-0.277,0.736-0.275,1.019,0l29.621,28.884
			c0.494,0.482,0.504,1.273,0.022,1.768c-0.482,0.494-1.273,0.504-1.768,0.022C423.925,209.797,423.916,209.787,423.909,209.781z"/>
	</g>
	<g>
		<path d="M435.268,209.781l-34.461-35.198c-0.282-0.288-0.277-0.749,0.011-1.031c0.284-0.278,0.738-0.276,1.021,0l35.198,34.461
			c0.493,0.483,0.501,1.274,0.019,1.768c-0.483,0.493-1.274,0.501-1.768,0.019C435.282,209.795,435.273,209.785,435.268,209.781z"/>
	</g>
	<g>
		<path d="M102.401,208.013l34.438-33.702c0.288-0.282,0.75-0.276,1.031,0.011c0.278,0.284,0.276,0.737,0,1.02l-33.702,34.439
			c-0.483,0.493-1.274,0.502-1.768,0.019c-0.494-0.483-0.502-1.274-0.019-1.768C102.387,208.027,102.397,208.018,102.401,208.013z"
			/>
	</g>
	<g>
		<path d="M112.137,208.013l29.389-28.652c0.288-0.281,0.75-0.275,1.031,0.013c0.277,0.284,0.275,0.736,0,1.018l-28.652,29.389
			c-0.482,0.494-1.273,0.504-1.768,0.022c-0.495-0.482-0.504-1.273-0.022-1.768C112.121,208.029,112.131,208.019,112.137,208.013z"
			/>
	</g>
	<g>
		<path d="M121.873,208.013l24.921-24.184c0.289-0.281,0.75-0.274,1.031,0.015c0.275,0.284,0.273,0.734,0,1.016l-24.185,24.921
			c-0.48,0.495-1.272,0.507-1.768,0.026s-0.507-1.272-0.026-1.768C121.854,208.032,121.865,208.02,121.873,208.013z"/>
	</g>
	<g>
		<path d="M131.609,208.013l17.808-17.071c0.291-0.279,0.752-0.269,1.031,0.021c0.271,0.283,0.268,0.729,0,1.009l-17.072,17.809
			c-0.478,0.498-1.269,0.515-1.768,0.037s-0.515-1.27-0.037-1.768C131.583,208.039,131.598,208.024,131.609,208.013z"/>
	</g>
	<g>
		<path d="M141.345,208.013l27.44-26.703c0.289-0.281,0.75-0.275,1.031,0.014c0.276,0.283,0.274,0.735,0,1.017l-26.704,27.44
			c-0.481,0.495-1.273,0.505-1.768,0.024s-0.505-1.273-0.024-1.768C141.327,208.03,141.338,208.02,141.345,208.013z"/>
	</g>
	<g>
		<path d="M151.108,207.987l38.764-35.788c0.296-0.273,0.757-0.255,1.03,0.041c0.27,0.292,0.255,0.746-0.031,1.021l-38.05,36.546
			c-0.498,0.479-1.289,0.462-1.767-0.036c-0.479-0.498-0.462-1.289,0.035-1.768C151.094,208,151.103,207.991,151.108,207.987z"/>
	</g>
	<g>
		<path d="M266.022,45.413l30.694-31.431c0.482-0.494,1.274-0.503,1.768-0.021c0.494,0.482,0.503,1.273,0.021,1.768
			c-0.005,0.006-0.015,0.016-0.021,0.021l-31.431,30.694c-0.288,0.281-0.75,0.276-1.031-0.012
			C265.744,46.148,265.746,45.695,266.022,45.413z"/>
	</g>
	<g>
		<path d="M280.904,40.266l25.054-25.791c0.481-0.495,1.272-0.506,1.768-0.025c0.495,0.481,0.506,1.272,0.025,1.768
			c-0.007,0.007-0.019,0.019-0.025,0.026l-25.791,25.054c-0.289,0.281-0.75,0.274-1.031-0.015
			C280.629,40.999,280.631,40.548,280.904,40.266z"/>
	</g>
	<g>
		<path d="M283.069,47.837l31.819-32.556c0.483-0.494,1.274-0.502,1.768-0.02s0.502,1.274,0.02,1.768
			c-0.005,0.005-0.015,0.015-0.02,0.021l-32.556,31.819c-0.288,0.281-0.75,0.276-1.031-0.012
			C282.792,48.572,282.794,48.119,283.069,47.837z"/>
	</g>
	<g>
		<path d="M284.505,56.137l39.314-40.051c0.483-0.493,1.275-0.5,1.768-0.017c0.493,0.484,0.5,1.275,0.017,1.768
			c-0.004,0.004-0.013,0.012-0.017,0.016l-40.051,39.314c-0.288,0.282-0.749,0.278-1.031-0.009
			C284.226,56.875,284.228,56.42,284.505,56.137z"/>
	</g>
	<g>
		<path d="M294.055,56.322l38.57-39.306c0.483-0.493,1.275-0.5,1.768-0.017s0.5,1.275,0.017,1.768
			c-0.004,0.004-0.013,0.013-0.017,0.017l-39.306,38.57c-0.287,0.282-0.749,0.277-1.031-0.01
			C293.777,57.06,293.778,56.605,294.055,56.322z"/>
	</g>
	<g>
		<path d="M309.697,52.208l33.639-33.99c0.485-0.491,1.277-0.495,1.768-0.009c0.491,0.486,0.495,1.277,0.009,1.768
			c-0.005,0.005-0.014,0.014-0.019,0.019l-34.371,33.25c-0.29,0.28-0.751,0.272-1.031-0.017
			C309.415,52.942,309.419,52.489,309.697,52.208z"/>
	</g>
</g>
<path style="&st1;" d="M45.934,32.1c5.329,9.807,14.039,5.363,27.449,1.771C214.672-4.004,364.967,5.529,467.789,34.934
	c13.703,3.91,16.199,5.328,23.588-2.441l23.004,33.895c-92.008-47.473-308.029-91.813-492.336-0.148L45.934,32.1z"/>
<path style="&st6;" d="M24.625,67.266c24.112,9.447,25.149,39.301,25.276,60.441l5.423,224.486c0,27.896,5.531,55.791,16.248,81.584
	c10.669,25.742,26.428,49.379,46.199,69.15c19.723,19.576,43.36,35.725,69.103,46.004c25.79,10.766,53.687,16.15,81.583,16.15
	c27.895,0,55.791-5.385,81.584-16.15c25.742-10.279,49.379-26.428,69.102-46.004c19.773-19.771,35.531-43.408,46.201-69.15
	c10.717-25.793,16.246-53.688,16.246-81.584l6.363-222.673c0.978-21.094-3.672-50.557,24.469-62.301l0.979-0.344
	c-92.152-46.977-305.434-90.881-489.887-0.244L24.625,67.266z"/>
<g>
</g>
<g>
</g>
<g>
</g>
<g>
</g>
<g>
</g>
<g>
</g>
</svg>
